  0
SECTION
  2
HEADER
  9
$ANGBASE
  50
0.0
  9
$ANGDIR
  70
1
  9
$MEASUREMENT
  70
1
  0
ENDSEC
  0
SECTION
  2
TABLES
  0
TABLE
  2
LTYPE
  70
4
  0
LTYPE
  5
40F
  2
CONTINUOUS
  70
0
  3
Solid line
  72
65
  73
0
  40
0.0
  0
LTYPE
  5
410
  2
DASHDOT
 70
0
  3
Dash Dot ____ _ ____ _
 72
65
 73
4
 40
2.0
 49
1.25
 49
-0.25
 49
0.25
 49
-0.25
  0
LTYPE
  5
411
  2
DASHED
 70
0
  3
Dashed __ __ __ __ __
 72
65
 73
2
 40
0.75
 49
0.5
 49
-0.25
  0
LTYPE
  5
43B
  2
DOTTED
 70
0
  3
Dotted .  .  .  .
 72
65
 73
2
 40
0.2
 49
0.0
 49
-0.2
  0
ENDTAB
  0
TABLE
  2
STYLE
  70
4
  0
STYLE
  2
KICAD
  70
0
  40
0
  41
1
  42
1
  50
0
  71
0
  3
isocp.shx
  0
STYLE
  2
KICADB
  70
0
  40
0
  41
1
  42
1
  50
0
  71
0
  3
isocp.shx
  0
STYLE
  2
KICADI
  70
0
  40
0
  41
1
  42
1
  50
15
  71
0
  3
isocp.shx
  0
STYLE
  2
KICADBI
  70
0
  40
0
  41
1
  42
1
  50
15
  71
0
  3
isocp.shx
  0
ENDTAB
  0
TABLE
  2
LAYER
  70
1
  0
LAYER
  2
BLACK
  70
0
  62
7
  6
CONTINUOUS
  0
ENDTAB
  0
ENDSEC
  0
SECTION
  2
ENTITIES
0
ARC
8
BLACK
10
138.658
20
-113.387
40
2.27635
50
88.3941
51
136.661
0
LINE
8
BLACK
6
CONTINUOUS
10
245.191
20
-93.2434
11
249.916
21
-97.9678
0
ARC
8
BLACK
10
59.9404
20
-50.4963
40
2.05633
50
-90.3915
51
-42.7524
0
ARC
8
BLACK
10
117.674
20
-127.421
40
2.68777
50
-92.1751
51
-44.105
0
ARC
8
BLACK
10
149.8
20
-52.4892
40
1.32197
50
89.4023
51
178.796
0
ARC
8
BLACK
10
235.017
20
-50.4965
40
2.05615
50
-137.251
51
-89.6073
0
ARC
8
BLACK
10
149.705
20
-109.887
40
1.22766
50
-177.614
51
-94.4731
0
LINE
8
BLACK
6
CONTINUOUS
10
90.5333
20
-125.832
11
90.5333
21
-125.578
0
ARC
8
BLACK
10
105.523
20
-105.512
40
2.16285
50
35.2458
51
180
0
ARC
8
BLACK
10
163.835
20
-47.1497
40
1.29004
50
-270.537
51
-176.956
0
ARC
8
BLACK
10
108.814
20
-105.319
40
6.60416
50
-91.1016
51
0.347543
0
LINE
8
BLACK
6
CONTINUOUS
10
20.6714
20
-120.107
11
30.1067
21
-110.668
0
ARC
8
BLACK
10
177.284
20
-127.421
40
2.68774
50
-135.894
51
-87.8241
0
ARC
8
BLACK
10
88.83
20
-140.992
40
10.8785
50
89.1225
51
106.123
0
LINE
8
BLACK
6
CONTINUOUS
10
20.2142
20
-121.758
11
26.3883
21
-144.812
0
ARC
8
BLACK
10
68.3448
20
-47.9518
40
2.09216
50
89.6071
51
138.233
0
ARC
8
BLACK
10
51.405
20
-53.6493
40
1.09739
50
-271.971
51
-178.909
0
LINE
8
BLACK
6
CONTINUOUS
10
145.348
20
-111.111
11
138.722
21
-111.111
0
LINE
8
BLACK
6
CONTINUOUS
10
103.36
20
-106.909
11
103.36
21
-105.512
0
LINE
8
BLACK
6
CONTINUOUS
10
228.173
20
-46.5582
11
233.507
21
-51.8922
0
LINE
8
BLACK
6
CONTINUOUS
10
266.643
20
-145.913
11
209.149
21
-130.541
0
LINE
8
BLACK
6
CONTINUOUS
10
226.598
20
-45.8597
11
163.847
21
-45.8597
0
ARC
8
BLACK
10
246.484
20
-91.9419
40
1.83474
50
-180.603
51
-134.817
0
ARC
8
BLACK
10
226.613
20
-47.952
40
2.09235
50
41.7706
51
90.3918
0
LINE
8
BLACK
6
CONTINUOUS
10
107.932
20
-125.832
11
107.925
21
-111.922
0
LINE
8
BLACK
6
CONTINUOUS
10
117.572
20
-130.106
11
88.9966
21
-130.114
0
ARC
8
BLACK
10
27.8982
20
-144.406
40
1.56335
50
-164.981
51
-74.5437
0
ARC
8
BLACK
10
206.127
20
-140.993
40
10.8796
50
73.8778
51
90.8766
0
LINE
8
BLACK
6
CONTINUOUS
10
85.809
20
-130.541
11
28.3148
21
-145.913
0
LINE
8
BLACK
6
CONTINUOUS
10
264.851
20
-110.668
11
274.286
21
-120.107
0
LINE
8
BLACK
6
CONTINUOUS
10
137.003
20
-111.824
11
119.604
21
-129.291
0
ARC
8
BLACK
10
32.2994
20
-112.994
40
3.19649
50
93.7929
51
133.311
0
ARC
8
BLACK
10
89.0093
20
-123.419
40
2.159
50
-270
51
-90.0001
0
ARC
8
BLACK
10
21.8218
20
-121.314
40
1.66772
50
-226.384
51
-164.574
0
LINE
8
BLACK
6
CONTINUOUS
10
115.418
20
-105.279
11
109.499
21
-105.279
0
ARC
8
BLACK
10
262.658
20
-112.994
40
3.19692
50
46.6909
51
86.2032
0
LINE
8
BLACK
6
CONTINUOUS
10
44.4323
20
-109.804
11
44.4323
21
-99.3902
0
LINE
8
BLACK
6
CONTINUOUS
10
109.499
20
-104.263
11
107.29
21
-104.263
0
LINE
8
BLACK
6
CONTINUOUS
10
149.814
20
-51.1672
11
161.153
21
-51.1672
0
LINE
8
BLACK
6
CONTINUOUS
10
244.65
20
-53.6702
11
244.65
21
-91.9226
0
LINE
8
BLACK
6
CONTINUOUS
10
108.687
20
-111.922
11
107.925
21
-111.922
0
LINE
8
BLACK
6
CONTINUOUS
10
50.3078
20
-91.9226
11
50.3078
21
-53.6702
0
LINE
8
BLACK
6
CONTINUOUS
10
262.87
20
-109.804
11
250.525
21
-109.804
0
LINE
8
BLACK
6
CONTINUOUS
10
103.36
20
-106.909
11
90.5333
21
-106.909
0
ARC
8
BLACK
10
131.123
20
-47.1497
40
1.29006
50
-3.04366
51
90.5392
0
ARC
8
BLACK
10
48.4729
20
-91.9418
40
1.83501
50
-45.18
51
0.599506
0
ARC
8
BLACK
10
156.299
20
-113.387
40
2.27647
50
43.3399
51
91.6048
0
LINE
8
BLACK
6
CONTINUOUS
10
205.961
20
-130.114
11
177.386
21
-130.106
0
LINE
8
BLACK
6
CONTINUOUS
10
156.236
20
-111.111
11
149.61
21
-111.111
0
LINE
8
BLACK
6
CONTINUOUS
10
45.0419
20
-97.9678
11
49.7663
21
-93.2434
0
LINE
8
BLACK
6
CONTINUOUS
10
268.569
20
-144.812
11
274.743
21
-121.758
0
LINE
8
BLACK
6
CONTINUOUS
10
90.5333
20
-125.578
11
89.0093
21
-125.578
0
ARC
8
BLACK
10
145.252
20
-109.887
40
1.22768
50
-85.5251
51
-2.3864
0
ARC
8
BLACK
10
267.059
20
-144.406
40
1.56351
50
-105.449
51
-15.0247
0
LINE
8
BLACK
6
CONTINUOUS
10
90.5333
20
-125.832
11
107.932
21
-125.832
0
LINE
8
BLACK
6
CONTINUOUS
10
146.479
20
-109.938
11
146.479
21
-52.4614
0
ARC
8
BLACK
10
161.147
20
-49.7671
40
1.40008
50
-89.7432
51
-0.078941
0
LINE
8
BLACK
6
CONTINUOUS
10
243.515
20
-52.5526
11
235.031
21
-52.5526
0
LINE
8
BLACK
6
CONTINUOUS
10
250.525
20
-99.3902
11
250.525
21
-109.804
0
LINE
8
BLACK
6
CONTINUOUS
10
132.411
20
-49.769
11
132.411
21
-47.2182
0
ARC
8
BLACK
10
243.553
20
-53.6493
40
1.09735
50
-1.09133
51
91.9745
0
ARC
8
BLACK
10
145.157
20
-52.4892
40
1.32204
50
1.20359
51
90.5917
0
LINE
8
BLACK
6
CONTINUOUS
10
59.9263
20
-52.5526
11
51.4427
21
-52.5526
0
ARC
8
BLACK
10
273.136
20
-121.314
40
1.66775
50
-15.426
51
46.3826
0
ARC
8
BLACK
10
133.811
20
-49.767
40
1.40025
50
-179.917
51
-90.2633
0
LINE
8
BLACK
6
CONTINUOUS
10
133.805
20
-51.1672
11
145.143
21
-51.1672
0
LINE
8
BLACK
6
CONTINUOUS
10
90.5333
20
-121.26
11
89.0093
21
-121.26
0
LINE
8
BLACK
6
CONTINUOUS
10
175.354
20
-129.291
11
157.955
21
-111.824
0
LINE
8
BLACK
6
CONTINUOUS
10
148.479
20
-109.938
11
148.479
21
-52.4614
0
LINE
8
BLACK
6
CONTINUOUS
10
90.5333
20
-121.26
11
90.5333
21
-106.909
0
LINE
8
BLACK
6
CONTINUOUS
10
162.547
20
-47.2182
11
162.547
21
-49.769
0
LINE
8
BLACK
6
CONTINUOUS
10
109.499
20
-105.279
11
109.499
21
-104.263
0
LINE
8
BLACK
6
CONTINUOUS
10
61.4503
20
-51.8922
11
66.7843
21
-46.5582
0
LINE
8
BLACK
6
CONTINUOUS
10
44.4323
20
-109.804
11
32.0879
21
-109.804
0
ARC
8
BLACK
10
46.8289
20
-99.5755
40
2.4037
50
138.023
51
175.579
0
LINE
8
BLACK
6
CONTINUOUS
10
131.111
20
-45.8597
11
68.3591
21
-45.8597
0
ARC
8
BLACK
10
248.129
20
-99.5753
40
2.40325
50
4.41737
51
41.9811
0
LINE
8
BLACK
6
CONTINUOUS
10
169.687
20
-89.5316
11
185.287
21
-89.5316
0
LINE
8
BLACK
6
CONTINUOUS
10
185.287
20
-89.5316
11
185.287
21
-105.132
0
LINE
8
BLACK
6
CONTINUOUS
10
185.287
20
-105.132
11
169.687
21
-105.132
0
LINE
8
BLACK
6
CONTINUOUS
10
169.687
20
-105.132
11
169.687
21
-89.5316
0
LINE
8
BLACK
6
CONTINUOUS
10
169.687
20
-70.532
11
185.287
21
-70.532
0
LINE
8
BLACK
6
CONTINUOUS
10
185.287
20
-70.532
11
185.287
21
-86.132
0
LINE
8
BLACK
6
CONTINUOUS
10
185.287
20
-86.132
11
169.687
21
-86.132
0
LINE
8
BLACK
6
CONTINUOUS
10
169.687
20
-86.132
11
169.687
21
-70.532
0
LINE
8
BLACK
6
CONTINUOUS
10
263.101
20
-121.458
11
262.601
21
-123.322
0
LINE
8
BLACK
6
CONTINUOUS
10
262.601
20
-123.322
11
265.177
21
-124.013
0
LINE
8
BLACK
6
CONTINUOUS
10
265.177
20
-124.013
11
265.677
21
-122.148
0
LINE
8
BLACK
6
CONTINUOUS
10
265.677
20
-122.148
11
267.934
21
-122.753
0
LINE
8
BLACK
6
CONTINUOUS
10
267.934
20
-122.753
11
267.435
21
-124.618
0
LINE
8
BLACK
6
CONTINUOUS
10
267.435
20
-124.618
11
269.667
21
-125.216
0
LINE
8
BLACK
6
CONTINUOUS
10
269.667
20
-125.216
11
268.517
21
-129.509
0
LINE
8
BLACK
6
CONTINUOUS
10
268.517
20
-129.509
11
269.253
21
-129.707
0
LINE
8
BLACK
6
CONTINUOUS
10
269.253
20
-129.707
11
268.359
21
-133.043
0
LINE
8
BLACK
6
CONTINUOUS
10
268.359
20
-133.043
11
267.623
21
-132.846
0
LINE
8
BLACK
6
CONTINUOUS
10
267.623
20
-132.846
11
266.485
21
-137.09
0
LINE
8
BLACK
6
CONTINUOUS
10
266.485
20
-137.09
11
264.326
21
-136.512
0
LINE
8
BLACK
6
CONTINUOUS
10
264.326
20
-136.512
11
263.636
21
-139.088
0
LINE
8
BLACK
6
CONTINUOUS
10
263.636
20
-139.088
11
256.447
21
-137.162
0
LINE
8
BLACK
6
CONTINUOUS
10
256.447
20
-137.162
11
257.138
21
-134.586
0
LINE
8
BLACK
6
CONTINUOUS
10
257.138
20
-134.586
11
254.954
21
-134.001
0
LINE
8
BLACK
6
CONTINUOUS
10
254.954
20
-134.001
11
256.091
21
-129.756
0
LINE
8
BLACK
6
CONTINUOUS
10
256.091
20
-129.756
11
255.38
21
-129.566
0
LINE
8
BLACK
6
CONTINUOUS
10
255.38
20
-129.566
11
256.261
21
-126.278
0
LINE
8
BLACK
6
CONTINUOUS
10
256.261
20
-126.278
11
256.972
21
-126.469
0
LINE
8
BLACK
6
CONTINUOUS
10
256.972
20
-126.469
11
258.136
21
-122.126
0
LINE
8
BLACK
6
CONTINUOUS
10
258.136
20
-122.126
11
260.393
21
-122.731
0
LINE
8
BLACK
6
CONTINUOUS
10
260.393
20
-122.731
11
260.893
21
-120.866
0
LINE
8
BLACK
6
CONTINUOUS
10
260.893
20
-120.866
11
263.101
21
-121.458
0
CIRCLE
8
BLACK
10
226.687
20
-51.1437
40
1.6
0
CIRCLE
8
BLACK
10
180.828
20
-118.614
40
6.15
0
LINE
8
BLACK
6
CONTINUOUS
10
150.686
20
-53.531
11
166.286
21
-53.531
0
LINE
8
BLACK
6
CONTINUOUS
10
166.286
20
-53.531
11
166.286
21
-69.131
0
LINE
8
BLACK
6
CONTINUOUS
10
166.286
20
-69.131
11
150.686
21
-69.131
0
LINE
8
BLACK
6
CONTINUOUS
10
150.686
20
-69.131
11
150.686
21
-53.531
0
LINE
8
BLACK
6
CONTINUOUS
10
150.686
20
-72.5314
11
166.286
21
-72.5314
0
LINE
8
BLACK
6
CONTINUOUS
10
166.286
20
-72.5314
11
166.286
21
-88.1314
0
LINE
8
BLACK
6
CONTINUOUS
10
166.286
20
-88.1314
11
150.686
21
-88.1314
0
LINE
8
BLACK
6
CONTINUOUS
10
150.686
20
-88.1314
11
150.686
21
-72.5314
0
CIRCLE
8
BLACK
10
223.296
20
-108.582
40
1.6
0
CIRCLE
8
BLACK
10
247.362
20
-109.998
40
1.6
0
CIRCLE
8
BLACK
10
169.639
20
-108.52
40
1.6
0
CIRCLE
8
BLACK
10
261.522
20
-113.757
40
1.6
0
LINE
8
BLACK
6
CONTINUOUS
10
237.63
20
-117.514
11
252.699
21
-121.551
0
LINE
8
BLACK
6
CONTINUOUS
10
252.699
20
-121.551
11
248.661
21
-136.62
0
LINE
8
BLACK
6
CONTINUOUS
10
248.661
20
-136.62
11
233.593
21
-132.582
0
LINE
8
BLACK
6
CONTINUOUS
10
233.593
20
-132.582
11
237.63
21
-117.514
0
CIRCLE
8
BLACK
10
196.486
20
-118.614
40
6.15
0
LINE
8
BLACK
6
CONTINUOUS
10
188.686
20
-85.7218
11
204.286
21
-85.7218
0
LINE
8
BLACK
6
CONTINUOUS
10
204.286
20
-85.7218
11
204.286
21
-101.322
0
LINE
8
BLACK
6
CONTINUOUS
10
204.286
20
-101.322
11
188.686
21
-101.322
0
LINE
8
BLACK
6
CONTINUOUS
10
188.686
20
-101.322
11
188.686
21
-85.7218
0
CIRCLE
8
BLACK
10
252.823
20
-138.598
40
1.6
0
LINE
8
BLACK
6
CONTINUOUS
10
207.686
20
-51.5318
11
223.286
21
-51.5318
0
LINE
8
BLACK
6
CONTINUOUS
10
223.286
20
-51.5318
11
223.286
21
-67.1318
0
LINE
8
BLACK
6
CONTINUOUS
10
223.286
20
-67.1318
11
207.686
21
-67.1318
0
LINE
8
BLACK
6
CONTINUOUS
10
207.686
20
-67.1318
11
207.686
21
-51.5318
0
LINE
8
BLACK
6
CONTINUOUS
10
169.687
20
-51.5324
11
185.287
21
-51.5324
0
LINE
8
BLACK
6
CONTINUOUS
10
185.287
20
-51.5324
11
185.287
21
-67.1324
0
LINE
8
BLACK
6
CONTINUOUS
10
185.287
20
-67.1324
11
169.687
21
-67.1324
0
LINE
8
BLACK
6
CONTINUOUS
10
169.687
20
-67.1324
11
169.687
21
-51.5324
0
LINE
8
BLACK
6
CONTINUOUS
10
226.686
20
-54.5324
11
242.286
21
-54.5324
0
LINE
8
BLACK
6
CONTINUOUS
10
242.286
20
-54.5324
11
242.286
21
-70.1324
0
LINE
8
BLACK
6
CONTINUOUS
10
242.286
20
-70.1324
11
226.686
21
-70.1324
0
LINE
8
BLACK
6
CONTINUOUS
10
226.686
20
-70.1324
11
226.686
21
-54.5324
0
LINE
8
BLACK
6
CONTINUOUS
10
207.686
20
-89.5322
11
223.286
21
-89.5322
0
LINE
8
BLACK
6
CONTINUOUS
10
223.286
20
-89.5322
11
223.286
21
-105.132
0
LINE
8
BLACK
6
CONTINUOUS
10
223.286
20
-105.132
11
207.686
21
-105.132
0
LINE
8
BLACK
6
CONTINUOUS
10
207.686
20
-105.132
11
207.686
21
-89.5322
0
LINE
8
BLACK
6
CONTINUOUS
10
219.431
20
-111.367
11
234.499
21
-115.405
0
LINE
8
BLACK
6
CONTINUOUS
10
234.499
20
-115.405
11
230.461
21
-130.473
0
LINE
8
BLACK
6
CONTINUOUS
10
230.461
20
-130.473
11
215.393
21
-126.436
0
LINE
8
BLACK
6
CONTINUOUS
10
215.393
20
-126.436
11
219.431
21
-111.367
0
CIRCLE
8
BLACK
10
210.872
20
-118.614
40
1.6
0
LINE
8
BLACK
6
CONTINUOUS
10
226.686
20
-92.5322
11
242.286
21
-92.5322
0
LINE
8
BLACK
6
CONTINUOUS
10
242.286
20
-92.5322
11
242.286
21
-108.132
0
LINE
8
BLACK
6
CONTINUOUS
10
242.286
20
-108.132
11
226.686
21
-108.132
0
LINE
8
BLACK
6
CONTINUOUS
10
226.686
20
-108.132
11
226.686
21
-92.5322
0
LINE
8
BLACK
6
CONTINUOUS
10
207.686
20
-70.5318
11
223.286
21
-70.5318
0
LINE
8
BLACK
6
CONTINUOUS
10
223.286
20
-70.5318
11
223.286
21
-86.1318
0
LINE
8
BLACK
6
CONTINUOUS
10
223.286
20
-86.1318
11
207.686
21
-86.1318
0
LINE
8
BLACK
6
CONTINUOUS
10
207.686
20
-86.1318
11
207.686
21
-70.5318
0
LINE
8
BLACK
6
CONTINUOUS
10
226.686
20
-73.5322
11
242.286
21
-73.5322
0
LINE
8
BLACK
6
CONTINUOUS
10
242.286
20
-73.5322
11
242.286
21
-89.1322
0
LINE
8
BLACK
6
CONTINUOUS
10
242.286
20
-89.1322
11
226.686
21
-89.1322
0
LINE
8
BLACK
6
CONTINUOUS
10
226.686
20
-89.1322
11
226.686
21
-73.5322
0
LINE
8
BLACK
6
CONTINUOUS
10
188.686
20
-47.7216
11
204.286
21
-47.7216
0
LINE
8
BLACK
6
CONTINUOUS
10
204.286
20
-47.7216
11
204.286
21
-63.3216
0
LINE
8
BLACK
6
CONTINUOUS
10
204.286
20
-63.3216
11
188.686
21
-63.3216
0
LINE
8
BLACK
6
CONTINUOUS
10
188.686
20
-63.3216
11
188.686
21
-47.7216
0
CIRCLE
8
BLACK
10
172.635
20
-118.614
40
1.6
0
CIRCLE
8
BLACK
10
166.336
20
-50.2019
40
1.6
0
LINE
8
BLACK
6
CONTINUOUS
10
188.686
20
-66.7216
11
204.286
21
-66.7216
0
LINE
8
BLACK
6
CONTINUOUS
10
204.286
20
-66.7216
11
204.286
21
-82.3216
0
LINE
8
BLACK
6
CONTINUOUS
10
204.286
20
-82.3216
11
188.686
21
-82.3216
0
LINE
8
BLACK
6
CONTINUOUS
10
188.686
20
-82.3216
11
188.686
21
-66.7216
0
LINE
8
BLACK
6
CONTINUOUS
10
150.686
20
-91.5318
11
166.286
21
-91.5318
0
LINE
8
BLACK
6
CONTINUOUS
10
166.286
20
-91.5318
11
166.286
21
-107.132
0
LINE
8
BLACK
6
CONTINUOUS
10
166.286
20
-107.132
11
150.686
21
-107.132
0
LINE
8
BLACK
6
CONTINUOUS
10
150.686
20
-107.132
11
150.686
21
-91.5318
0
LINE
8
BLACK
6
CONTINUOUS
10
87.2714
20
-70.5318
11
71.6714
21
-70.5318
0
LINE
8
BLACK
6
CONTINUOUS
10
71.6714
20
-70.5318
11
71.6714
21
-86.1318
0
LINE
8
BLACK
6
CONTINUOUS
10
71.6714
20
-86.1318
11
87.2714
21
-86.1318
0
LINE
8
BLACK
6
CONTINUOUS
10
87.2714
20
-86.1318
11
87.2714
21
-70.5318
0
LINE
8
BLACK
6
CONTINUOUS
10
144.271
20
-72.5314
11
128.671
21
-72.5314
0
LINE
8
BLACK
6
CONTINUOUS
10
128.671
20
-72.5314
11
128.671
21
-88.1314
0
LINE
8
BLACK
6
CONTINUOUS
10
128.671
20
-88.1314
11
144.271
21
-88.1314
0
LINE
8
BLACK
6
CONTINUOUS
10
144.271
20
-88.1314
11
144.271
21
-72.5314
0
LINE
8
BLACK
6
CONTINUOUS
10
144.271
20
-91.5318
11
128.671
21
-91.5318
0
LINE
8
BLACK
6
CONTINUOUS
10
128.671
20
-91.5318
11
128.671
21
-107.132
0
LINE
8
BLACK
6
CONTINUOUS
10
128.671
20
-107.132
11
144.271
21
-107.132
0
LINE
8
BLACK
6
CONTINUOUS
10
144.271
20
-107.132
11
144.271
21
-91.5318
0
LINE
8
BLACK
6
CONTINUOUS
10
57.3272
20
-117.514
11
42.2587
21
-121.551
0
LINE
8
BLACK
6
CONTINUOUS
10
42.2587
20
-121.551
11
46.2963
21
-136.62
0
LINE
8
BLACK
6
CONTINUOUS
10
46.2963
20
-136.62
11
61.3648
21
-132.582
0
LINE
8
BLACK
6
CONTINUOUS
10
61.3648
20
-132.582
11
57.3272
21
-117.514
0
LINE
8
BLACK
6
CONTINUOUS
10
87.2714
20
-89.5322
11
71.6714
21
-89.5322
0
LINE
8
BLACK
6
CONTINUOUS
10
71.6714
20
-89.5322
11
71.6714
21
-105.132
0
LINE
8
BLACK
6
CONTINUOUS
10
71.6714
20
-105.132
11
87.2714
21
-105.132
0
LINE
8
BLACK
6
CONTINUOUS
10
87.2714
20
-105.132
11
87.2714
21
-89.5322
0
CIRCLE
8
BLACK
10
125.319
20
-108.52
40
1.6
0
CIRCLE
8
BLACK
10
42.1344
20
-138.598
40
1.6
0
CIRCLE
8
BLACK
10
47.5954
20
-109.998
40
1.6
0
CIRCLE
8
BLACK
10
33.4356
20
-113.757
40
1.6
0
LINE
8
BLACK
6
CONTINUOUS
10
144.271
20
-53.531
11
128.671
21
-53.531
0
LINE
8
BLACK
6
CONTINUOUS
10
128.671
20
-53.531
11
128.671
21
-69.131
0
LINE
8
BLACK
6
CONTINUOUS
10
128.671
20
-69.131
11
144.271
21
-69.131
0
LINE
8
BLACK
6
CONTINUOUS
10
144.271
20
-69.131
11
144.271
21
-53.531
0
LINE
8
BLACK
6
CONTINUOUS
10
68.2717
20
-73.5322
11
52.6717
21
-73.5322
0
LINE
8
BLACK
6
CONTINUOUS
10
52.6717
20
-73.5322
11
52.6717
21
-89.1322
0
LINE
8
BLACK
6
CONTINUOUS
10
52.6717
20
-89.1322
11
68.2717
21
-89.1322
0
LINE
8
BLACK
6
CONTINUOUS
10
68.2717
20
-89.1322
11
68.2717
21
-73.5322
0
CIRCLE
8
BLACK
10
114.13
20
-118.614
40
6.15
0
LINE
8
BLACK
6
CONTINUOUS
10
125.271
20
-70.532
11
109.671
21
-70.532
0
LINE
8
BLACK
6
CONTINUOUS
10
109.671
20
-70.532
11
109.671
21
-86.132
0
LINE
8
BLACK
6
CONTINUOUS
10
109.671
20
-86.132
11
125.271
21
-86.132
0
LINE
8
BLACK
6
CONTINUOUS
10
125.271
20
-86.132
11
125.271
21
-70.532
0
LINE
8
BLACK
6
CONTINUOUS
10
106.272
20
-66.7216
11
90.6716
21
-66.7216
0
LINE
8
BLACK
6
CONTINUOUS
10
90.6716
20
-66.7216
11
90.6716
21
-82.3216
0
LINE
8
BLACK
6
CONTINUOUS
10
90.6716
20
-82.3216
11
106.272
21
-82.3216
0
LINE
8
BLACK
6
CONTINUOUS
10
106.272
20
-82.3216
11
106.272
21
-66.7216
0
LINE
8
BLACK
6
CONTINUOUS
10
125.271
20
-89.5316
11
109.671
21
-89.5316
0
LINE
8
BLACK
6
CONTINUOUS
10
109.671
20
-89.5316
11
109.671
21
-105.132
0
LINE
8
BLACK
6
CONTINUOUS
10
109.671
20
-105.132
11
125.271
21
-105.132
0
LINE
8
BLACK
6
CONTINUOUS
10
125.271
20
-105.132
11
125.271
21
-89.5316
0
LINE
8
BLACK
6
CONTINUOUS
10
106.272
20
-47.7216
11
90.6716
21
-47.7216
0
LINE
8
BLACK
6
CONTINUOUS
10
90.6716
20
-47.7216
11
90.6716
21
-63.3216
0
LINE
8
BLACK
6
CONTINUOUS
10
90.6716
20
-63.3216
11
106.272
21
-63.3216
0
LINE
8
BLACK
6
CONTINUOUS
10
106.272
20
-63.3216
11
106.272
21
-47.7216
0
LINE
8
BLACK
6
CONTINUOUS
10
106.272
20
-85.7218
11
90.6716
21
-85.7218
0
LINE
8
BLACK
6
CONTINUOUS
10
90.6716
20
-85.7218
11
90.6716
21
-101.322
0
LINE
8
BLACK
6
CONTINUOUS
10
90.6716
20
-101.322
11
106.272
21
-101.322
0
LINE
8
BLACK
6
CONTINUOUS
10
106.272
20
-101.322
11
106.272
21
-85.7218
0
LINE
8
BLACK
6
CONTINUOUS
10
125.271
20
-51.5324
11
109.671
21
-51.5324
0
LINE
8
BLACK
6
CONTINUOUS
10
109.671
20
-51.5324
11
109.671
21
-67.1324
0
LINE
8
BLACK
6
CONTINUOUS
10
109.671
20
-67.1324
11
125.271
21
-67.1324
0
LINE
8
BLACK
6
CONTINUOUS
10
125.271
20
-67.1324
11
125.271
21
-51.5324
0
LINE
8
BLACK
6
CONTINUOUS
10
68.2717
20
-54.5324
11
52.6717
21
-54.5324
0
LINE
8
BLACK
6
CONTINUOUS
10
52.6717
20
-54.5324
11
52.6717
21
-70.1324
0
LINE
8
BLACK
6
CONTINUOUS
10
52.6717
20
-70.1324
11
68.2717
21
-70.1324
0
LINE
8
BLACK
6
CONTINUOUS
10
68.2717
20
-70.1324
11
68.2717
21
-54.5324
0
LINE
8
BLACK
6
CONTINUOUS
10
75.527
20
-111.367
11
60.4586
21
-115.405
0
LINE
8
BLACK
6
CONTINUOUS
10
60.4586
20
-115.405
11
64.4962
21
-130.473
0
LINE
8
BLACK
6
CONTINUOUS
10
64.4962
20
-130.473
11
79.5646
21
-126.436
0
LINE
8
BLACK
6
CONTINUOUS
10
79.5646
20
-126.436
11
75.527
21
-111.367
0
CIRCLE
8
BLACK
10
84.0859
20
-118.614
40
1.6
0
LINE
8
BLACK
6
CONTINUOUS
10
38.1756
20
-120.104
11
23.1071
21
-124.142
0
LINE
8
BLACK
6
CONTINUOUS
10
23.1071
20
-124.142
11
27.1447
21
-139.21
0
LINE
8
BLACK
6
CONTINUOUS
10
27.1447
20
-139.21
11
42.2132
21
-135.173
0
LINE
8
BLACK
6
CONTINUOUS
10
42.2132
20
-135.173
11
38.1756
21
-120.104
0
CIRCLE
8
BLACK
10
122.322
20
-118.614
40
1.6
0
LINE
8
BLACK
6
CONTINUOUS
10
68.2717
20
-92.5322
11
52.6717
21
-92.5322
0
LINE
8
BLACK
6
CONTINUOUS
10
52.6717
20
-92.5322
11
52.6717
21
-108.132
0
LINE
8
BLACK
6
CONTINUOUS
10
52.6717
20
-108.132
11
68.2717
21
-108.132
0
LINE
8
BLACK
6
CONTINUOUS
10
68.2717
20
-108.132
11
68.2717
21
-92.5322
0
CIRCLE
8
BLACK
10
71.6611
20
-108.582
40
1.6
0
LINE
8
BLACK
6
CONTINUOUS
10
87.2714
20
-51.5318
11
71.6714
21
-51.5318
0
LINE
8
BLACK
6
CONTINUOUS
10
71.6714
20
-51.5318
11
71.6714
21
-67.1318
0
LINE
8
BLACK
6
CONTINUOUS
10
71.6714
20
-67.1318
11
87.2714
21
-67.1318
0
LINE
8
BLACK
6
CONTINUOUS
10
87.2714
20
-67.1318
11
87.2714
21
-51.5318
0
CIRCLE
8
BLACK
10
128.621
20
-50.2019
40
1.6
0
CIRCLE
8
BLACK
10
68.2702
20
-51.1437
40
1.6
  0
ENDSEC
  0
EOF
