  0
SECTION
  2
HEADER
  9
$ANGBASE
  50
0.0
  9
$ANGDIR
  70
1
  9
$MEASUREMENT
  70
1
  0
ENDSEC
  0
SECTION
  2
TABLES
  0
TABLE
  2
LTYPE
  70
4
  0
LTYPE
  5
40F
  2
CONTINUOUS
  70
0
  3
Solid line
  72
65
  73
0
  40
0.0
  0
LTYPE
  5
410
  2
DASHDOT
 70
0
  3
Dash Dot ____ _ ____ _
 72
65
 73
4
 40
2.0
 49
1.25
 49
-0.25
 49
0.25
 49
-0.25
  0
LTYPE
  5
411
  2
DASHED
 70
0
  3
Dashed __ __ __ __ __
 72
65
 73
2
 40
0.75
 49
0.5
 49
-0.25
  0
LTYPE
  5
43B
  2
DOTTED
 70
0
  3
Dotted .  .  .  .
 72
65
 73
2
 40
0.2
 49
0.0
 49
-0.2
  0
ENDTAB
  0
TABLE
  2
STYLE
  70
4
  0
STYLE
  2
KICAD
  70
0
  40
0
  41
1
  42
1
  50
0
  71
0
  3
isocp.shx
  0
STYLE
  2
KICADB
  70
0
  40
0
  41
1
  42
1
  50
0
  71
0
  3
isocp.shx
  0
STYLE
  2
KICADI
  70
0
  40
0
  41
1
  42
1
  50
15
  71
0
  3
isocp.shx
  0
STYLE
  2
KICADBI
  70
0
  40
0
  41
1
  42
1
  50
15
  71
0
  3
isocp.shx
  0
ENDTAB
  0
TABLE
  2
LAYER
  70
1
  0
LAYER
  2
BLACK
  70
0
  62
7
  6
CONTINUOUS
  0
ENDTAB
  0
ENDSEC
  0
SECTION
  2
ENTITIES
0
ARC
8
BLACK
10
151.69
20
-85.2003
40
2.68786
50
-2.17482
51
45.893
0
ARC
8
BLACK
10
143.524
20
-75.4834
40
1.58009
50
47.5922
51
132.408
0
LINE
8
BLACK
6
CONTINUOUS
10
131.432
20
-86.4071
11
131.432
21
-94.9415
0
LINE
8
BLACK
6
CONTINUOUS
10
150.101
20
-112.341
11
149.847
21
-112.341
0
ARC
8
BLACK
10
159.057
20
-85.3151
40
2.68129
50
134.104
51
179.727
0
ARC
8
BLACK
10
125.736
20
-148.947
40
1.05625
50
-107.372
51
0.428697
0
LINE
8
BLACK
6
CONTINUOUS
10
126.792
20
-148.939
11
126.792
21
-85.2867
0
LINE
8
BLACK
6
CONTINUOUS
10
125.624
20
-84.1147
11
107.529
21
-84.1147
0
ARC
8
BLACK
10
178.188
20
-120.173
40
1.13284
50
-76.2779
51
-1.70759
0
LINE
8
BLACK
6
CONTINUOUS
10
150.101
20
-94.9415
11
131.432
21
-94.9415
0
ARC
8
BLACK
10
176.6
20
-86.5835
40
2.72096
50
1.19916
51
42.4054
0
ARC
8
BLACK
10
167.228
20
-75.6031
40
1.58025
50
47.5977
51
132.402
0
ARC
8
BLACK
10
142.888
20
-119.948
40
3.8686
50
-107.185
51
-72.8151
0
LINE
8
BLACK
6
CONTINUOUS
10
144.589
20
-74.3167
11
153.561
21
-83.2703
0
ARC
8
BLACK
10
132.564
20
-120.054
40
1.13265
50
-178.303
51
-103.716
0
ARC
8
BLACK
10
147.688
20
-113.865
40
2.159
50
-180
51
0.000398072
0
LINE
8
BLACK
6
CONTINUOUS
10
101.888
20
-149.006
11
101.888
21
-85.3532
0
ARC
8
BLACK
10
157.604
20
-120.091
40
1.22835
50
-179.566
51
-105.66
0
ARC
8
BLACK
10
153.147
20
-119.97
40
1.23017
50
-74.3312
51
2.5654
0
ARC
8
BLACK
10
100.832
20
-149.013
40
1.05624
50
-107.373
51
0.429352
0
ARC
8
BLACK
10
125.631
20
-85.2765
40
1.16177
50
-0.502899
51
90.3292
0
ARC
8
BLACK
10
167.865
20
-120.067
40
3.86864
50
-107.185
51
-72.8153
0
LINE
8
BLACK
6
CONTINUOUS
10
153.479
20
-121.154
11
144.031
21
-123.644
0
LINE
8
BLACK
6
CONTINUOUS
10
154.376
20
-119.915
11
154.376
21
-85.3023
0
ARC
8
BLACK
10
82.8013
20
-143.86
40
1.40166
50
-180.43
51
-103.82
0
LINE
8
BLACK
6
CONTINUOUS
10
131.432
20
-112.341
11
131.432
21
-120.088
0
ARC
8
BLACK
10
82.6348
20
-85.4163
40
1.23517
50
90.4522
51
179.433
0
LINE
8
BLACK
6
CONTINUOUS
10
149.847
20
-112.341
11
149.847
21
-113.865
0
LINE
8
BLACK
6
CONTINUOUS
10
168.294
20
-74.4362
11
178.609
21
-84.7486
0
ARC
8
BLACK
10
100.76
20
-85.3096
40
1.12908
50
-2.21234
51
92.0397
0
LINE
8
BLACK
6
CONTINUOUS
10
156.376
20
-85.3023
11
156.376
21
-120.1
0
LINE
8
BLACK
6
CONTINUOUS
10
81.3997
20
-85.4041
11
81.3997
21
-143.849
0
LINE
8
BLACK
6
CONTINUOUS
10
150.101
20
-112.341
11
150.101
21
-94.9415
0
LINE
8
BLACK
6
CONTINUOUS
10
132.143
20
-84.6291
11
142.458
21
-74.3167
0
LINE
8
BLACK
6
CONTINUOUS
10
179.32
20
-120.207
11
179.32
21
-86.5266
0
ARC
8
BLACK
10
134.153
20
-86.4642
40
2.72136
50
137.599
51
178.799
0
LINE
8
BLACK
6
CONTINUOUS
10
132.296
20
-121.154
11
141.745
21
-123.644
0
LINE
8
BLACK
6
CONTINUOUS
10
100.516
20
-150.022
11
82.4665
21
-145.221
0
LINE
8
BLACK
6
CONTINUOUS
10
166.722
20
-123.763
11
157.273
21
-121.274
0
LINE
8
BLACK
6
CONTINUOUS
10
145.529
20
-112.341
11
145.529
21
-113.865
0
ARC
8
BLACK
10
107.539
20
-85.3499
40
1.23516
50
90.4517
51
179.429
0
LINE
8
BLACK
6
CONTINUOUS
10
157.191
20
-83.3897
11
166.163
21
-74.4362
0
LINE
8
BLACK
6
CONTINUOUS
10
125.421
20
-149.955
11
107.371
21
-145.154
0
LINE
8
BLACK
6
CONTINUOUS
10
145.529
20
-112.341
11
131.432
21
-112.341
0
LINE
8
BLACK
6
CONTINUOUS
10
100.72
20
-84.1812
11
82.6251
21
-84.1812
0
LINE
8
BLACK
6
CONTINUOUS
10
106.304
20
-85.3376
11
106.304
21
-143.783
0
ARC
8
BLACK
10
107.706
20
-143.793
40
1.40169
50
-180.429
51
-103.823
0
LINE
8
BLACK
6
CONTINUOUS
10
169.008
20
-123.763
11
178.456
21
-121.274
0
CIRCLE
8
BLACK
10
123.859
20
-146.17
40
1.1
0
CIRCLE
8
BLACK
10
109.699
20
-142.411
40
1.1
0
CIRCLE
8
BLACK
10
167.869
20
-88.8635
40
5
0
CIRCLE
8
BLACK
10
98.9543
20
-146.237
40
1.1
0
CIRCLE
8
BLACK
10
167.869
20
-104.522
40
5
0
CIRCLE
8
BLACK
10
167.869
20
-118.907
40
1.6
0
CIRCLE
8
BLACK
10
167.869
20
-80.6711
40
1.6
0
CIRCLE
8
BLACK
10
84.7945
20
-142.477
40
1.1
0
CIRCLE
8
BLACK
10
142.884
20
-88.7441
40
5
0
CIRCLE
8
BLACK
10
142.884
20
-118.788
40
1.6
0
CIRCLE
8
BLACK
10
142.884
20
-80.5517
40
1.6
  0
ENDSEC
  0
EOF
