  0
SECTION
  2
HEADER
  9
$ANGBASE
  50
0.0
  9
$ANGDIR
  70
1
  9
$MEASUREMENT
  70
1
  0
ENDSEC
  0
SECTION
  2
TABLES
  0
TABLE
  2
LTYPE
  70
4
  0
LTYPE
  5
40F
  2
CONTINUOUS
  70
0
  3
Solid line
  72
65
  73
0
  40
0.0
  0
LTYPE
  5
410
  2
DASHDOT
 70
0
  3
Dash Dot ____ _ ____ _
 72
65
 73
4
 40
2.0
 49
1.25
 49
-0.25
 49
0.25
 49
-0.25
  0
LTYPE
  5
411
  2
DASHED
 70
0
  3
Dashed __ __ __ __ __
 72
65
 73
2
 40
0.75
 49
0.5
 49
-0.25
  0
LTYPE
  5
43B
  2
DOTTED
 70
0
  3
Dotted .  .  .  .
 72
65
 73
2
 40
0.2
 49
0.0
 49
-0.2
  0
ENDTAB
  0
TABLE
  2
STYLE
  70
4
  0
STYLE
  2
KICAD
  70
0
  40
0
  41
1
  42
1
  50
0
  71
0
  3
isocp.shx
  0
STYLE
  2
KICADB
  70
0
  40
0
  41
1
  42
1
  50
0
  71
0
  3
isocp.shx
  0
STYLE
  2
KICADI
  70
0
  40
0
  41
1
  42
1
  50
15
  71
0
  3
isocp.shx
  0
STYLE
  2
KICADBI
  70
0
  40
0
  41
1
  42
1
  50
15
  71
0
  3
isocp.shx
  0
ENDTAB
  0
TABLE
  2
LAYER
  70
1
  0
LAYER
  2
BLACK
  70
0
  62
7
  6
CONTINUOUS
  0
ENDTAB
  0
ENDSEC
  0
SECTION
  2
ENTITIES
0
ARC
8
BLACK
10
117.108
20
-111.82
40
1.26991
50
-0.00392526
51
90.0041
0
ARC
8
BLACK
10
148.112
20
-58.7981
40
1.32205
50
1.20422
51
90.5951
0
ARC
8
BLACK
10
152.755
20
-58.7981
40
1.32205
50
89.4057
51
178.796
0
LINE
8
BLACK
6
CONTINUOUS
10
119.508
20
-115.542
11
119.508
21
-113.206
0
ARC
8
BLACK
10
152.66
20
-116.196
40
1.22764
50
-177.614
51
-94.4722
0
LINE
8
BLACK
6
CONTINUOUS
10
178.309
20
-135.6
11
160.91
21
-118.133
0
ARC
8
BLACK
10
166.79
20
-53.4586
40
1.29002
50
-270.537
51
-176.957
0
LINE
8
BLACK
6
CONTINUOUS
10
111.85
20
-113.155
11
111.85
21
-111.82
0
ARC
8
BLACK
10
91.7848
20
-147.301
40
10.8785
50
89.123
51
106.124
0
ARC
8
BLACK
10
136.766
20
-56.0759
40
1.40024
50
-179.918
51
-90.2625
0
ARC
8
BLACK
10
180.239
20
-133.73
40
2.68773
50
-135.894
51
-87.8237
0
LINE
8
BLACK
6
CONTINUOUS
10
269.598
20
-152.222
11
212.103
21
-136.85
0
LINE
8
BLACK
6
CONTINUOUS
10
246.477
20
-52.1688
11
166.802
21
-52.1686
0
ARC
8
BLACK
10
248.818
20
-63.6554
40
1.21305
50
-180.004
51
-89.9957
0
ARC
8
BLACK
10
120.569
20
-133.581
40
2.8346
50
-90.8588
51
-45.423
0
ARC
8
BLACK
10
209.082
20
-147.302
40
10.8795
50
73.8775
51
90.8765
0
LINE
8
BLACK
6
CONTINUOUS
10
148.303
20
-117.42
11
141.677
21
-117.42
0
LINE
8
BLACK
6
CONTINUOUS
10
267.966
20
-117.145
11
277.241
21
-126.416
0
ARC
8
BLACK
10
30.853
20
-150.715
40
1.56332
50
-164.982
51
-74.5464
0
LINE
8
BLACK
6
CONTINUOUS
10
119.508
20
-113.206
11
118.378
21
-113.206
0
LINE
8
BLACK
6
CONTINUOUS
10
120.526
20
-136.415
11
91.9513
21
-136.423
0
ARC
8
BLACK
10
269.296
20
-115.808
40
1.88549
50
-181.064
51
-134.856
0
LINE
8
BLACK
6
CONTINUOUS
10
119.508
20
-115.542
11
110.77
21
-115.542
0
LINE
8
BLACK
6
CONTINUOUS
10
152.769
20
-57.4761
11
164.108
21
-57.4761
0
LINE
8
BLACK
6
CONTINUOUS
10
247.605
20
-53.2735
11
247.605
21
-63.6553
0
ARC
8
BLACK
10
266.282
20
-65.9967
40
1.12896
50
-2.21853
51
92.0411
0
LINE
8
BLACK
6
CONTINUOUS
10
133.935
20
-52.1686
11
54.3898
21
-52.1688
0
ARC
8
BLACK
10
148.207
20
-116.196
40
1.2277
50
-85.5241
51
-2.38576
0
ARC
8
BLACK
10
159.254
20
-119.695
40
2.27639
50
43.338
51
91.6043
0
LINE
8
BLACK
6
CONTINUOUS
10
117.108
20
-110.55
11
113.12
21
-110.55
0
LINE
8
BLACK
6
CONTINUOUS
10
88.7637
20
-136.85
11
31.2696
21
-152.222
0
ARC
8
BLACK
10
34.5849
20
-65.9968
40
1.12905
50
-272.04
51
-177.787
0
LINE
8
BLACK
6
CONTINUOUS
10
208.916
20
-136.423
11
180.341
21
-136.415
0
LINE
8
BLACK
6
CONTINUOUS
10
159.19
20
-117.42
11
152.564
21
-117.42
0
LINE
8
BLACK
6
CONTINUOUS
10
23.6261
20
-126.416
11
32.9014
21
-117.145
0
ARC
8
BLACK
10
141.613
20
-119.695
40
2.27627
50
88.3936
51
136.662
0
LINE
8
BLACK
6
CONTINUOUS
10
271.524
20
-151.121
11
277.698
21
-128.067
0
LINE
8
BLACK
6
CONTINUOUS
10
53.2625
20
-63.6553
11
53.2625
21
-53.2735
0
LINE
8
BLACK
6
CONTINUOUS
10
110.77
20
-115.542
11
110.77
21
-113.155
0
LINE
8
BLACK
6
CONTINUOUS
10
135.366
20
-56.0779
11
135.366
21
-53.5271
0
ARC
8
BLACK
10
270.014
20
-150.715
40
1.56352
50
-105.449
51
-15.024
0
ARC
8
BLACK
10
113.12
20
-111.82
40
1.26999
50
89.9995
51
179.999
0
ARC
8
BLACK
10
164.101
20
-56.076
40
1.4001
50
-89.7424
51
-0.0784078
0
LINE
8
BLACK
6
CONTINUOUS
10
111.85
20
-113.155
11
110.77
21
-113.155
0
ARC
8
BLACK
10
24.7765
20
-127.623
40
1.6677
50
-226.384
51
-164.574
0
ARC
8
BLACK
10
134.018
20
-53.514
40
1.34795
50
-0.55603
51
93.5187
0
LINE
8
BLACK
6
CONTINUOUS
10
52.0494
20
-64.8685
11
34.6251
21
-64.8685
0
ARC
8
BLACK
10
246.52
20
-53.2528
40
1.08485
50
-1.09264
51
92.2513
0
LINE
8
BLACK
6
CONTINUOUS
10
23.1689
20
-128.067
11
29.343
21
-151.121
0
LINE
8
BLACK
6
CONTINUOUS
10
149.434
20
-58.7703
11
149.434
21
-116.247
0
ARC
8
BLACK
10
276.09
20
-127.623
40
1.66777
50
-15.4254
51
46.3824
0
LINE
8
BLACK
6
CONTINUOUS
10
151.434
20
-58.7703
11
151.434
21
-116.247
0
LINE
8
BLACK
6
CONTINUOUS
10
266.242
20
-64.8685
11
248.818
21
-64.8685
0
LINE
8
BLACK
6
CONTINUOUS
10
33.4567
20
-66.0404
11
33.4567
21
-115.773
0
ARC
8
BLACK
10
52.0495
20
-63.6554
40
1.21303
50
-90.0052
51
0.00396763
0
LINE
8
BLACK
6
CONTINUOUS
10
165.501
20
-53.5271
11
165.501
21
-56.0779
0
ARC
8
BLACK
10
31.5716
20
-115.808
40
1.88541
50
-45.147
51
1.06367
0
LINE
8
BLACK
6
CONTINUOUS
10
136.759
20
-57.4761
11
148.098
21
-57.4761
0
LINE
8
BLACK
6
CONTINUOUS
10
139.957
20
-118.133
11
122.558
21
-135.6
0
LINE
8
BLACK
6
CONTINUOUS
10
118.378
20
-113.206
11
118.378
21
-111.82
0
ARC
8
BLACK
10
54.3472
20
-53.2528
40
1.08487
50
-272.25
51
-178.907
0
LINE
8
BLACK
6
CONTINUOUS
10
267.41
20
-115.773
11
267.41
21
-66.0404
0
LINE
8
BLACK
6
CONTINUOUS
10
187.46
20
-97.1639
11
185.572
21
-97.1639
0
LINE
8
BLACK
6
CONTINUOUS
10
185.572
20
-97.1639
11
185.572
21
-96.5634
0
LINE
8
BLACK
6
CONTINUOUS
10
185.572
20
-101.1
11
180.178
21
-101.1
0
LINE
8
BLACK
6
CONTINUOUS
10
172.186
20
-102.497
11
174.074
21
-102.497
0
LINE
8
BLACK
6
CONTINUOUS
10
174.074
20
-102.497
11
174.074
21
-102.98
0
LINE
8
BLACK
6
CONTINUOUS
10
187.46
20
-99.8817
11
185.572
21
-99.8817
0
LINE
8
BLACK
6
CONTINUOUS
10
172.186
20
-99.7797
11
174.074
21
-99.7797
0
LINE
8
BLACK
6
CONTINUOUS
10
187.46
20
-99.8817
11
187.46
21
-97.1639
0
LINE
8
BLACK
6
CONTINUOUS
10
175.92
20
-102.98
11
177.918
21
-102.98
0
LINE
8
BLACK
6
CONTINUOUS
10
185.572
20
-101.1
11
185.572
21
-99.8817
0
LINE
8
BLACK
6
CONTINUOUS
10
174.074
20
-102.98
11
174.803
21
-102.98
0
LINE
8
BLACK
6
CONTINUOUS
10
174.074
20
-98.4335
11
174.074
21
-99.7797
0
LINE
8
BLACK
6
CONTINUOUS
10
185.572
20
-96.5634
11
175.996
21
-96.5634
0
LINE
8
BLACK
6
CONTINUOUS
10
172.186
20
-99.7797
11
172.186
21
-102.497
0
ARC
8
BLACK
10
175.955
20
-98.4436
40
1.88064
50
88.7333
51
179.693
0
ARC
8
BLACK
10
175.362
20
-103.629
40
0.855913
50
-229.221
51
49.262
0
ARC
8
BLACK
10
180.153
20
-103.368
40
2.26789
50
89.3556
51
170.156
0
CIRCLE
8
BLACK
10
180.441
20
-103.64
40
2
0
CIRCLE
8
BLACK
10
185.521
20
-103.64
40
0.85
0
CIRCLE
8
BLACK
10
206.483
20
-111.826
40
1.35
0
LINE
8
BLACK
6
CONTINUOUS
10
172.186
20
-83.4979
11
174.074
21
-83.4979
0
LINE
8
BLACK
6
CONTINUOUS
10
185.572
20
-82.1009
11
180.178
21
-82.1009
0
LINE
8
BLACK
6
CONTINUOUS
10
187.46
20
-78.1643
11
185.572
21
-78.1643
0
LINE
8
BLACK
6
CONTINUOUS
10
175.92
20
-83.9805
11
177.918
21
-83.9809
0
LINE
8
BLACK
6
CONTINUOUS
10
174.074
20
-83.4979
11
174.074
21
-83.9809
0
LINE
8
BLACK
6
CONTINUOUS
10
185.572
20
-77.5638
11
175.996
21
-77.5638
0
LINE
8
BLACK
6
CONTINUOUS
10
174.074
20
-83.9809
11
174.803
21
-83.9809
0
LINE
8
BLACK
6
CONTINUOUS
10
187.46
20
-80.8821
11
185.572
21
-80.8821
0
LINE
8
BLACK
6
CONTINUOUS
10
172.186
20
-80.7801
11
174.074
21
-80.7801
0
LINE
8
BLACK
6
CONTINUOUS
10
185.572
20
-82.1009
11
185.572
21
-80.8821
0
LINE
8
BLACK
6
CONTINUOUS
10
174.074
20
-79.4339
11
174.074
21
-80.7801
0
LINE
8
BLACK
6
CONTINUOUS
10
172.186
20
-80.7801
11
172.186
21
-83.4979
0
LINE
8
BLACK
6
CONTINUOUS
10
185.572
20
-78.1643
11
185.572
21
-77.5638
0
LINE
8
BLACK
6
CONTINUOUS
10
187.46
20
-80.8821
11
187.46
21
-78.1643
0
ARC
8
BLACK
10
175.955
20
-79.444
40
1.88064
50
88.7333
51
179.693
0
ARC
8
BLACK
10
175.362
20
-84.629
40
0.855913
50
-229.221
51
49.262
0
ARC
8
BLACK
10
180.153
20
-84.3686
40
2.26789
50
89.3556
51
170.156
0
CIRCLE
8
BLACK
10
180.441
20
-84.6409
40
2
0
CIRCLE
8
BLACK
10
185.521
20
-84.6409
40
0.85
0
LINE
8
BLACK
6
CONTINUOUS
10
256.045
20
-81.9855
11
256.645
21
-81.9855
0
LINE
8
BLACK
6
CONTINUOUS
10
257.345
20
-82.6855
11
257.345
21
-84.0855
0
LINE
8
BLACK
6
CONTINUOUS
10
256.645
20
-84.7855
11
256.045
21
-84.7855
0
LINE
8
BLACK
6
CONTINUOUS
10
255.345
20
-84.0855
11
255.345
21
-82.6855
0
ARC
8
BLACK
10
256.645
20
-84.0855
40
0.699999
50
-90.0001
51
8.18512e-05
0
ARC
8
BLACK
10
256.645
20
-82.6855
40
0.7
50
-0
51
90
0
ARC
8
BLACK
10
256.045
20
-84.0855
40
0.699999
50
-180
51
-89.9999
0
ARC
8
BLACK
10
256.045
20
-82.6855
40
0.7
50
90
51
180
0
LINE
8
BLACK
6
CONTINUOUS
10
268.827
20
-135.188
11
272.114
21
-136.069
0
LINE
8
BLACK
6
CONTINUOUS
10
272.114
20
-136.069
11
271.246
21
-139.308
0
LINE
8
BLACK
6
CONTINUOUS
10
271.246
20
-139.308
11
267.959
21
-138.427
0
LINE
8
BLACK
6
CONTINUOUS
10
267.959
20
-138.427
11
268.827
21
-135.188
0
LINE
8
BLACK
6
CONTINUOUS
10
259.258
20
-132.625
11
262.546
21
-133.505
0
LINE
8
BLACK
6
CONTINUOUS
10
262.546
20
-133.505
11
261.678
21
-136.744
0
LINE
8
BLACK
6
CONTINUOUS
10
261.678
20
-136.744
11
258.39
21
-135.863
0
LINE
8
BLACK
6
CONTINUOUS
10
258.39
20
-135.863
11
259.258
21
-132.625
0
CIRCLE
8
BLACK
10
265.855
20
-143.375
40
1.05
0
CIRCLE
8
BLACK
10
269.608
20
-129.369
40
1.05
0
CIRCLE
8
BLACK
10
267.193
20
-128.722
40
1.05
0
CIRCLE
8
BLACK
10
264.779
20
-128.075
40
1.05
0
CIRCLE
8
BLACK
10
261.026
20
-142.081
40
1.05
0
CIRCLE
8
BLACK
10
229.642
20
-57.4526
40
1.6
0
LINE
8
BLACK
6
CONTINUOUS
10
225.298
20
-83.9673
11
227.178
21
-83.9673
0
LINE
8
BLACK
6
CONTINUOUS
10
227.178
20
-83.9673
11
227.178
21
-89.0727
0
LINE
8
BLACK
6
CONTINUOUS
10
227.178
20
-89.0727
11
225.298
21
-89.0727
0
LINE
8
BLACK
6
CONTINUOUS
10
225.298
20
-89.0727
11
225.298
21
-83.9673
0
LINE
8
BLACK
6
CONTINUOUS
10
40.7181
20
-127.894
11
38.8946
21
-128.382
0
LINE
8
BLACK
6
CONTINUOUS
10
38.8946
20
-128.382
11
38.7392
21
-127.802
0
LINE
8
BLACK
6
CONTINUOUS
10
26.6419
20
-134.374
11
27.3453
21
-136.999
0
LINE
8
BLACK
6
CONTINUOUS
10
39.9135
20
-132.185
11
34.7033
21
-133.581
0
LINE
8
BLACK
6
CONTINUOUS
10
38.7392
20
-127.802
11
29.4896
21
-130.281
0
LINE
8
BLACK
6
CONTINUOUS
10
26.6419
20
-134.374
11
28.4654
21
-133.885
0
LINE
8
BLACK
6
CONTINUOUS
10
28.117
20
-132.585
11
28.4654
21
-133.885
0
LINE
8
BLACK
6
CONTINUOUS
10
41.4215
20
-130.519
11
39.598
21
-131.008
0
LINE
8
BLACK
6
CONTINUOUS
10
29.1688
20
-136.51
11
29.2938
21
-136.977
0
LINE
8
BLACK
6
CONTINUOUS
10
27.3453
20
-136.999
11
29.1688
21
-136.51
0
LINE
8
BLACK
6
CONTINUOUS
10
29.2938
20
-136.977
11
29.9974
21
-136.788
0
LINE
8
BLACK
6
CONTINUOUS
10
41.4215
20
-130.519
11
40.7181
21
-127.894
0
LINE
8
BLACK
6
CONTINUOUS
10
31.0768
20
-136.498
11
33.0068
21
-135.982
0
LINE
8
BLACK
6
CONTINUOUS
10
39.9135
20
-132.185
11
39.598
21
-131.008
0
ARC
8
BLACK
10
35.2656
20
-135.778
40
2.26789
50
-255.644
51
-174.844
0
ARC
8
BLACK
10
30.7051
20
-137.269
40
0.855913
50
-214.221
51
64.2621
0
ARC
8
BLACK
10
29.9361
20
-132.108
40
1.88064
50
-256.267
51
-165.307
0
CIRCLE
8
BLACK
10
40.5218
20
-134.651
40
0.85
0
CIRCLE
8
BLACK
10
35.6149
20
-135.966
40
2
0
LINE
8
BLACK
6
CONTINUOUS
10
239.589
20
-121.7
11
237.71
21
-121.7
0
LINE
8
BLACK
6
CONTINUOUS
10
237.71
20
-121.7
11
237.71
21
-116.594
0
LINE
8
BLACK
6
CONTINUOUS
10
237.71
20
-116.594
11
239.589
21
-116.594
0
LINE
8
BLACK
6
CONTINUOUS
10
239.589
20
-116.594
11
239.589
21
-121.7
0
LINE
8
BLACK
6
CONTINUOUS
10
59.0651
20
-129.594
11
58.7496
21
-128.417
0
LINE
8
BLACK
6
CONTINUOUS
10
45.7935
20
-131.783
11
46.4969
21
-134.408
0
LINE
8
BLACK
6
CONTINUOUS
10
60.5731
20
-127.928
11
58.7496
21
-128.417
0
LINE
8
BLACK
6
CONTINUOUS
10
47.2686
20
-129.994
11
47.617
21
-131.294
0
LINE
8
BLACK
6
CONTINUOUS
10
59.8697
20
-125.303
11
58.0462
21
-125.792
0
LINE
8
BLACK
6
CONTINUOUS
10
48.3204
20
-133.919
11
48.4454
21
-134.386
0
LINE
8
BLACK
6
CONTINUOUS
10
59.0651
20
-129.594
11
53.8549
21
-130.99
0
LINE
8
BLACK
6
CONTINUOUS
10
50.2284
20
-133.908
11
52.1584
21
-133.391
0
LINE
8
BLACK
6
CONTINUOUS
10
60.5731
20
-127.928
11
59.8697
21
-125.303
0
LINE
8
BLACK
6
CONTINUOUS
10
58.0462
20
-125.792
11
57.8908
21
-125.211
0
LINE
8
BLACK
6
CONTINUOUS
10
45.7935
20
-131.783
11
47.617
21
-131.294
0
LINE
8
BLACK
6
CONTINUOUS
10
57.8908
20
-125.211
11
48.6412
21
-127.69
0
LINE
8
BLACK
6
CONTINUOUS
10
48.4454
20
-134.386
11
49.149
21
-134.197
0
LINE
8
BLACK
6
CONTINUOUS
10
46.4969
20
-134.408
11
48.3204
21
-133.919
0
ARC
8
BLACK
10
49.8567
20
-134.679
40
0.855913
50
-214.221
51
64.2621
0
ARC
8
BLACK
10
54.4172
20
-133.187
40
2.26789
50
-255.644
51
-174.844
0
ARC
8
BLACK
10
49.0877
20
-129.517
40
1.88064
50
-256.267
51
-165.307
0
CIRCLE
8
BLACK
10
59.6734
20
-132.061
40
0.85
0
CIRCLE
8
BLACK
10
54.7665
20
-133.375
40
2
0
LINE
8
BLACK
6
CONTINUOUS
10
155.074
20
-62.4329
11
155.074
21
-63.7791
0
LINE
8
BLACK
6
CONTINUOUS
10
166.572
20
-65.0999
11
161.178
21
-65.0999
0
LINE
8
BLACK
6
CONTINUOUS
10
168.46
20
-63.8811
11
166.572
21
-63.8811
0
LINE
8
BLACK
6
CONTINUOUS
10
168.46
20
-61.1633
11
166.572
21
-61.1633
0
LINE
8
BLACK
6
CONTINUOUS
10
153.186
20
-63.7791
11
155.074
21
-63.7791
0
LINE
8
BLACK
6
CONTINUOUS
10
156.92
20
-66.9795
11
158.918
21
-66.9799
0
LINE
8
BLACK
6
CONTINUOUS
10
155.074
20
-66.4969
11
155.074
21
-66.9799
0
LINE
8
BLACK
6
CONTINUOUS
10
153.186
20
-63.7791
11
153.186
21
-66.4969
0
LINE
8
BLACK
6
CONTINUOUS
10
166.572
20
-60.5628
11
156.996
21
-60.5628
0
LINE
8
BLACK
6
CONTINUOUS
10
166.572
20
-65.0999
11
166.572
21
-63.8811
0
LINE
8
BLACK
6
CONTINUOUS
10
166.572
20
-61.1633
11
166.572
21
-60.5628
0
LINE
8
BLACK
6
CONTINUOUS
10
155.074
20
-66.9799
11
155.802
21
-66.9799
0
LINE
8
BLACK
6
CONTINUOUS
10
153.186
20
-66.4969
11
155.074
21
-66.4969
0
LINE
8
BLACK
6
CONTINUOUS
10
168.46
20
-63.8811
11
168.46
21
-61.1633
0
ARC
8
BLACK
10
161.152
20
-67.3676
40
2.26789
50
89.3556
51
170.156
0
ARC
8
BLACK
10
156.955
20
-62.443
40
1.88064
50
88.7333
51
179.693
0
ARC
8
BLACK
10
156.361
20
-67.628
40
0.855913
50
-229.221
51
49.262
0
CIRCLE
8
BLACK
10
166.521
20
-67.6399
40
0.85
0
CIRCLE
8
BLACK
10
161.441
20
-67.6399
40
2
0
LINE
8
BLACK
6
CONTINUOUS
10
252.622
20
-108.927
11
247.122
21
-108.927
0
LINE
8
BLACK
6
CONTINUOUS
10
247.122
20
-108.927
11
247.122
21
-101.627
0
LINE
8
BLACK
6
CONTINUOUS
10
247.122
20
-101.627
11
252.622
21
-101.627
0
LINE
8
BLACK
6
CONTINUOUS
10
252.622
20
-101.627
11
252.622
21
-108.927
0
LINE
8
BLACK
6
CONTINUOUS
10
146.445
20
-99.1641
11
144.557
21
-99.1641
0
LINE
8
BLACK
6
CONTINUOUS
10
131.171
20
-104.498
11
133.059
21
-104.498
0
LINE
8
BLACK
6
CONTINUOUS
10
131.171
20
-101.78
11
131.171
21
-104.498
0
LINE
8
BLACK
6
CONTINUOUS
10
134.905
20
-104.98
11
136.903
21
-104.981
0
LINE
8
BLACK
6
CONTINUOUS
10
144.557
20
-103.101
11
139.163
21
-103.101
0
LINE
8
BLACK
6
CONTINUOUS
10
144.557
20
-99.1641
11
144.557
21
-98.5636
0
LINE
8
BLACK
6
CONTINUOUS
10
144.557
20
-103.101
11
144.557
21
-101.882
0
LINE
8
BLACK
6
CONTINUOUS
10
133.059
20
-100.434
11
133.059
21
-101.78
0
LINE
8
BLACK
6
CONTINUOUS
10
146.445
20
-101.882
11
144.557
21
-101.882
0
LINE
8
BLACK
6
CONTINUOUS
10
133.059
20
-104.498
11
133.059
21
-104.981
0
LINE
8
BLACK
6
CONTINUOUS
10
144.557
20
-98.5636
11
134.981
21
-98.5636
0
LINE
8
BLACK
6
CONTINUOUS
10
146.445
20
-101.882
11
146.445
21
-99.1641
0
LINE
8
BLACK
6
CONTINUOUS
10
133.059
20
-104.981
11
133.787
21
-104.981
0
LINE
8
BLACK
6
CONTINUOUS
10
131.171
20
-101.78
11
133.059
21
-101.78
0
ARC
8
BLACK
10
134.346
20
-105.629
40
0.855913
50
-229.221
51
49.262
0
ARC
8
BLACK
10
139.137
20
-105.368
40
2.26789
50
89.3556
51
170.156
0
ARC
8
BLACK
10
134.939
20
-100.444
40
1.88064
50
88.7333
51
179.693
0
CIRCLE
8
BLACK
10
144.506
20
-105.641
40
0.85
0
CIRCLE
8
BLACK
10
139.426
20
-105.641
40
2
0
LINE
8
BLACK
6
CONTINUOUS
10
153.186
20
-82.7795
11
155.074
21
-82.7795
0
LINE
8
BLACK
6
CONTINUOUS
10
166.572
20
-79.5632
11
156.996
21
-79.5632
0
LINE
8
BLACK
6
CONTINUOUS
10
168.46
20
-80.1637
11
166.572
21
-80.1637
0
LINE
8
BLACK
6
CONTINUOUS
10
155.074
20
-81.4333
11
155.074
21
-82.7795
0
LINE
8
BLACK
6
CONTINUOUS
10
168.46
20
-82.8815
11
168.46
21
-80.1637
0
LINE
8
BLACK
6
CONTINUOUS
10
168.46
20
-82.8815
11
166.572
21
-82.8815
0
LINE
8
BLACK
6
CONTINUOUS
10
166.572
20
-80.1637
11
166.572
21
-79.5632
0
LINE
8
BLACK
6
CONTINUOUS
10
153.186
20
-85.4973
11
155.074
21
-85.4973
0
LINE
8
BLACK
6
CONTINUOUS
10
166.572
20
-84.1003
11
161.178
21
-84.1003
0
LINE
8
BLACK
6
CONTINUOUS
10
166.572
20
-84.1003
11
166.572
21
-82.8815
0
LINE
8
BLACK
6
CONTINUOUS
10
153.186
20
-82.7795
11
153.186
21
-85.4973
0
LINE
8
BLACK
6
CONTINUOUS
10
156.92
20
-85.9799
11
158.918
21
-85.9803
0
LINE
8
BLACK
6
CONTINUOUS
10
155.074
20
-85.9803
11
155.802
21
-85.9803
0
LINE
8
BLACK
6
CONTINUOUS
10
155.074
20
-85.4973
11
155.074
21
-85.9803
0
ARC
8
BLACK
10
161.152
20
-86.368
40
2.26789
50
89.3556
51
170.156
0
ARC
8
BLACK
10
156.955
20
-81.4434
40
1.88064
50
88.7333
51
179.693
0
ARC
8
BLACK
10
156.361
20
-86.6284
40
0.855913
50
-229.221
51
49.262
0
CIRCLE
8
BLACK
10
161.441
20
-86.6403
40
2
0
CIRCLE
8
BLACK
10
166.521
20
-86.6403
40
0.85
0
LINE
8
BLACK
6
CONTINUOUS
10
187.299
20
-102.967
11
189.178
21
-102.967
0
LINE
8
BLACK
6
CONTINUOUS
10
189.178
20
-102.967
11
189.178
21
-108.072
0
LINE
8
BLACK
6
CONTINUOUS
10
189.178
20
-108.072
11
187.299
21
-108.072
0
LINE
8
BLACK
6
CONTINUOUS
10
187.299
20
-108.072
11
187.299
21
-102.967
0
LINE
8
BLACK
6
CONTINUOUS
10
225.298
20
-64.9673
11
227.178
21
-64.9673
0
LINE
8
BLACK
6
CONTINUOUS
10
227.178
20
-64.9673
11
227.178
21
-70.0727
0
LINE
8
BLACK
6
CONTINUOUS
10
227.178
20
-70.0727
11
225.298
21
-70.0727
0
LINE
8
BLACK
6
CONTINUOUS
10
225.298
20
-70.0727
11
225.298
21
-64.9673
0
CIRCLE
8
BLACK
10
226.251
20
-114.891
40
1.6
0
CIRCLE
8
BLACK
10
250.317
20
-116.307
40
2.15
0
LINE
8
BLACK
6
CONTINUOUS
10
244.298
20
-86.9677
11
246.177
21
-86.9677
0
LINE
8
BLACK
6
CONTINUOUS
10
246.177
20
-86.9677
11
246.177
21
-92.0731
0
LINE
8
BLACK
6
CONTINUOUS
10
246.177
20
-92.0731
11
244.298
21
-92.0731
0
LINE
8
BLACK
6
CONTINUOUS
10
244.298
20
-92.0731
11
244.298
21
-86.9677
0
LINE
8
BLACK
6
CONTINUOUS
10
114.059
20
-102.497
11
114.059
21
-102.98
0
LINE
8
BLACK
6
CONTINUOUS
10
112.171
20
-99.7797
11
114.059
21
-99.7797
0
LINE
8
BLACK
6
CONTINUOUS
10
127.444
20
-99.8817
11
125.557
21
-99.8817
0
LINE
8
BLACK
6
CONTINUOUS
10
125.557
20
-97.1639
11
125.557
21
-96.5634
0
LINE
8
BLACK
6
CONTINUOUS
10
114.059
20
-98.4335
11
114.059
21
-99.7797
0
LINE
8
BLACK
6
CONTINUOUS
10
115.905
20
-102.98
11
117.903
21
-102.98
0
LINE
8
BLACK
6
CONTINUOUS
10
125.557
20
-101.1
11
120.163
21
-101.1
0
LINE
8
BLACK
6
CONTINUOUS
10
125.557
20
-96.5634
11
115.981
21
-96.5634
0
LINE
8
BLACK
6
CONTINUOUS
10
125.557
20
-101.1
11
125.557
21
-99.8817
0
LINE
8
BLACK
6
CONTINUOUS
10
127.444
20
-99.8817
11
127.444
21
-97.1639
0
LINE
8
BLACK
6
CONTINUOUS
10
127.444
20
-97.1639
11
125.557
21
-97.1639
0
LINE
8
BLACK
6
CONTINUOUS
10
112.171
20
-102.497
11
114.059
21
-102.497
0
LINE
8
BLACK
6
CONTINUOUS
10
112.171
20
-99.7797
11
112.171
21
-102.497
0
LINE
8
BLACK
6
CONTINUOUS
10
114.059
20
-102.98
11
114.787
21
-102.98
0
ARC
8
BLACK
10
120.137
20
-103.368
40
2.26789
50
89.3556
51
170.156
0
ARC
8
BLACK
10
115.939
20
-98.4436
40
1.88064
50
88.7333
51
179.693
0
ARC
8
BLACK
10
115.346
20
-103.629
40
0.855913
50
-229.221
51
49.262
0
CIRCLE
8
BLACK
10
125.506
20
-103.64
40
0.85
0
CIRCLE
8
BLACK
10
120.426
20
-103.64
40
2
0
LINE
8
BLACK
6
CONTINUOUS
10
206.298
20
-61.1571
11
208.178
21
-61.1571
0
LINE
8
BLACK
6
CONTINUOUS
10
208.178
20
-61.1571
11
208.178
21
-66.2625
0
LINE
8
BLACK
6
CONTINUOUS
10
208.178
20
-66.2625
11
206.298
21
-66.2625
0
LINE
8
BLACK
6
CONTINUOUS
10
206.298
20
-66.2625
11
206.298
21
-61.1571
0
LINE
8
BLACK
6
CONTINUOUS
10
70.4451
20
-81.1645
11
68.5572
21
-81.1645
0
LINE
8
BLACK
6
CONTINUOUS
10
58.9052
20
-86.9807
11
60.9033
21
-86.9811
0
LINE
8
BLACK
6
CONTINUOUS
10
68.5572
20
-80.564
11
58.9814
21
-80.564
0
LINE
8
BLACK
6
CONTINUOUS
10
68.5572
20
-81.1645
11
68.5572
21
-80.564
0
LINE
8
BLACK
6
CONTINUOUS
10
55.1714
20
-83.7803
11
55.1714
21
-86.4981
0
LINE
8
BLACK
6
CONTINUOUS
10
57.0593
20
-82.4341
11
57.0593
21
-83.7803
0
LINE
8
BLACK
6
CONTINUOUS
10
68.5572
20
-85.1011
11
68.5572
21
-83.8823
0
LINE
8
BLACK
6
CONTINUOUS
10
55.1714
20
-83.7803
11
57.0593
21
-83.7803
0
LINE
8
BLACK
6
CONTINUOUS
10
55.1714
20
-86.4981
11
57.0593
21
-86.4981
0
LINE
8
BLACK
6
CONTINUOUS
10
57.0593
20
-86.4981
11
57.0593
21
-86.9811
0
LINE
8
BLACK
6
CONTINUOUS
10
70.4451
20
-83.8823
11
70.4451
21
-81.1645
0
LINE
8
BLACK
6
CONTINUOUS
10
57.0593
20
-86.9811
11
57.7876
21
-86.9811
0
LINE
8
BLACK
6
CONTINUOUS
10
68.5572
20
-85.1011
11
63.1633
21
-85.1011
0
LINE
8
BLACK
6
CONTINUOUS
10
70.4451
20
-83.8823
11
68.5572
21
-83.8823
0
ARC
8
BLACK
10
58.3467
20
-87.6292
40
0.855913
50
-229.221
51
49.262
0
ARC
8
BLACK
10
58.9399
20
-82.4442
40
1.88064
50
88.7333
51
179.693
0
ARC
8
BLACK
10
63.1377
20
-87.3688
40
2.26789
50
89.3556
51
170.156
0
CIRCLE
8
BLACK
10
68.5064
20
-87.6411
40
0.85
0
CIRCLE
8
BLACK
10
63.4264
20
-87.6411
40
2
0
CIRCLE
8
BLACK
10
172.594
20
-114.828
40
1.6
0
CIRCLE
8
BLACK
10
261.829
20
-102.118
40
0.9
0
CIRCLE
8
BLACK
10
256.749
20
-102.118
40
0.9
0
CIRCLE
8
BLACK
10
259.289
20
-102.118
40
0.9
0
CIRCLE
8
BLACK
10
254.209
20
-102.118
40
0.9
0
CIRCLE
8
BLACK
10
264.477
20
-120.066
40
2.15
0
LINE
8
BLACK
6
CONTINUOUS
10
240.121
20
-131.09
11
240.825
21
-131.278
0
LINE
8
BLACK
6
CONTINUOUS
10
253.853
20
-131.561
11
252.029
21
-131.073
0
LINE
8
BLACK
6
CONTINUOUS
10
238.423
20
-130.135
11
240.246
21
-130.623
0
LINE
8
BLACK
6
CONTINUOUS
10
251.714
20
-132.25
11
246.504
21
-130.854
0
LINE
8
BLACK
6
CONTINUOUS
10
239.126
20
-127.51
11
238.423
21
-130.135
0
LINE
8
BLACK
6
CONTINUOUS
10
253.853
20
-131.561
11
254.556
21
-128.936
0
LINE
8
BLACK
6
CONTINUOUS
10
241.904
20
-131.567
11
243.834
21
-132.085
0
LINE
8
BLACK
6
CONTINUOUS
10
252.888
20
-127.867
11
243.639
21
-125.389
0
LINE
8
BLACK
6
CONTINUOUS
10
251.714
20
-132.25
11
252.029
21
-131.073
0
LINE
8
BLACK
6
CONTINUOUS
10
240.246
20
-130.623
11
240.121
21
-131.09
0
LINE
8
BLACK
6
CONTINUOUS
10
252.733
20
-128.447
11
252.888
21
-127.867
0
LINE
8
BLACK
6
CONTINUOUS
10
239.126
20
-127.51
11
240.95
21
-127.998
0
LINE
8
BLACK
6
CONTINUOUS
10
254.556
20
-128.936
11
252.733
21
-128.447
0
LINE
8
BLACK
6
CONTINUOUS
10
241.298
20
-126.698
11
240.95
21
-127.998
0
ARC
8
BLACK
10
243.112
20
-127.194
40
1.88064
50
73.7333
51
164.693
0
ARC
8
BLACK
10
245.892
20
-133.038
40
2.26789
50
74.3556
51
155.156
0
ARC
8
BLACK
10
241.197
20
-132.049
40
0.855913
50
-244.221
51
34.2621
0
CIRCLE
8
BLACK
10
246.101
20
-133.375
40
2
0
CIRCLE
8
BLACK
10
251.008
20
-134.69
40
0.85
0
LINE
8
BLACK
6
CONTINUOUS
10
244.298
20
-67.9682
11
246.178
21
-67.9682
0
LINE
8
BLACK
6
CONTINUOUS
10
246.178
20
-67.9682
11
246.178
21
-73.0736
0
LINE
8
BLACK
6
CONTINUOUS
10
246.178
20
-73.0736
11
244.298
21
-73.0736
0
LINE
8
BLACK
6
CONTINUOUS
10
244.298
20
-73.0736
11
244.298
21
-67.9682
0
LINE
8
BLACK
6
CONTINUOUS
10
74.1711
20
-61.7799
11
74.1711
21
-64.4977
0
LINE
8
BLACK
6
CONTINUOUS
10
74.1711
20
-61.7799
11
76.059
21
-61.7799
0
LINE
8
BLACK
6
CONTINUOUS
10
87.5569
20
-59.1641
11
87.5569
21
-58.5636
0
LINE
8
BLACK
6
CONTINUOUS
10
89.4448
20
-61.8819
11
89.4448
21
-59.1641
0
LINE
8
BLACK
6
CONTINUOUS
10
87.5569
20
-58.5636
11
77.9811
21
-58.5636
0
LINE
8
BLACK
6
CONTINUOUS
10
89.4448
20
-59.1641
11
87.5569
21
-59.1641
0
LINE
8
BLACK
6
CONTINUOUS
10
76.059
20
-60.4337
11
76.059
21
-61.7799
0
LINE
8
BLACK
6
CONTINUOUS
10
77.9049
20
-64.9803
11
79.9029
21
-64.9807
0
LINE
8
BLACK
6
CONTINUOUS
10
76.059
20
-64.4977
11
76.059
21
-64.9807
0
LINE
8
BLACK
6
CONTINUOUS
10
87.5569
20
-63.1007
11
87.5569
21
-61.8819
0
LINE
8
BLACK
6
CONTINUOUS
10
76.059
20
-64.9807
11
76.7873
21
-64.9807
0
LINE
8
BLACK
6
CONTINUOUS
10
74.1711
20
-64.4977
11
76.059
21
-64.4977
0
LINE
8
BLACK
6
CONTINUOUS
10
87.5569
20
-63.1007
11
82.163
21
-63.1007
0
LINE
8
BLACK
6
CONTINUOUS
10
89.4448
20
-61.8819
11
87.5569
21
-61.8819
0
ARC
8
BLACK
10
77.9396
20
-60.4438
40
1.88064
50
88.7333
51
179.693
0
ARC
8
BLACK
10
77.3464
20
-65.6288
40
0.855913
50
-229.221
51
49.262
0
ARC
8
BLACK
10
82.1374
20
-65.3685
40
2.26789
50
89.3556
51
170.156
0
CIRCLE
8
BLACK
10
82.4261
20
-65.6407
40
2
0
CIRCLE
8
BLACK
10
87.5061
20
-65.6407
40
0.85
0
LINE
8
BLACK
6
CONTINUOUS
10
193.074
20
-98.6877
11
193.074
21
-99.1707
0
LINE
8
BLACK
6
CONTINUOUS
10
206.459
20
-96.0719
11
204.572
21
-96.0719
0
LINE
8
BLACK
6
CONTINUOUS
10
191.186
20
-95.9699
11
191.186
21
-98.6877
0
LINE
8
BLACK
6
CONTINUOUS
10
204.572
20
-93.3541
11
204.572
21
-92.7536
0
LINE
8
BLACK
6
CONTINUOUS
10
191.186
20
-98.6877
11
193.074
21
-98.6877
0
LINE
8
BLACK
6
CONTINUOUS
10
193.074
20
-94.6237
11
193.074
21
-95.9699
0
LINE
8
BLACK
6
CONTINUOUS
10
204.572
20
-97.2907
11
199.178
21
-97.2907
0
LINE
8
BLACK
6
CONTINUOUS
10
204.572
20
-92.7536
11
194.996
21
-92.7536
0
LINE
8
BLACK
6
CONTINUOUS
10
204.572
20
-97.2907
11
204.572
21
-96.0719
0
LINE
8
BLACK
6
CONTINUOUS
10
194.92
20
-99.1703
11
196.918
21
-99.1707
0
LINE
8
BLACK
6
CONTINUOUS
10
206.459
20
-96.0719
11
206.459
21
-93.3541
0
LINE
8
BLACK
6
CONTINUOUS
10
191.186
20
-95.9699
11
193.074
21
-95.9699
0
LINE
8
BLACK
6
CONTINUOUS
10
206.459
20
-93.3541
11
204.572
21
-93.3541
0
LINE
8
BLACK
6
CONTINUOUS
10
193.074
20
-99.1707
11
193.802
21
-99.1707
0
ARC
8
BLACK
10
194.954
20
-94.6338
40
1.88064
50
88.7333
51
179.693
0
ARC
8
BLACK
10
194.361
20
-99.8188
40
0.855913
50
-229.221
51
49.262
0
ARC
8
BLACK
10
199.152
20
-99.5584
40
2.26789
50
89.3556
51
170.156
0
CIRCLE
8
BLACK
10
204.521
20
-99.8307
40
0.85
0
CIRCLE
8
BLACK
10
199.441
20
-99.8307
40
2
0
LINE
8
BLACK
6
CONTINUOUS
10
78.7729
20
-121.782
11
78.0695
21
-119.157
0
LINE
8
BLACK
6
CONTINUOUS
10
78.7729
20
-121.782
11
76.9494
21
-122.27
0
LINE
8
BLACK
6
CONTINUOUS
10
78.0695
20
-119.157
11
76.246
21
-119.645
0
LINE
8
BLACK
6
CONTINUOUS
10
63.9933
20
-125.636
11
64.6968
21
-128.262
0
LINE
8
BLACK
6
CONTINUOUS
10
63.9933
20
-125.636
11
65.8168
21
-125.148
0
LINE
8
BLACK
6
CONTINUOUS
10
66.6453
20
-128.239
11
67.3488
21
-128.051
0
LINE
8
BLACK
6
CONTINUOUS
10
76.246
20
-119.645
11
76.0906
21
-119.065
0
LINE
8
BLACK
6
CONTINUOUS
10
77.2649
20
-123.448
11
72.0547
21
-124.844
0
LINE
8
BLACK
6
CONTINUOUS
10
77.2649
20
-123.448
11
76.9494
21
-122.27
0
LINE
8
BLACK
6
CONTINUOUS
10
64.6968
20
-128.262
11
66.5202
21
-127.773
0
LINE
8
BLACK
6
CONTINUOUS
10
68.4282
20
-127.761
11
70.3583
21
-127.245
0
LINE
8
BLACK
6
CONTINUOUS
10
76.0906
20
-119.065
11
66.8411
21
-121.543
0
LINE
8
BLACK
6
CONTINUOUS
10
66.5202
20
-127.773
11
66.6453
21
-128.239
0
LINE
8
BLACK
6
CONTINUOUS
10
65.4684
20
-123.847
11
65.8168
21
-125.148
0
ARC
8
BLACK
10
72.617
20
-127.041
40
2.26789
50
-255.644
51
-174.844
0
ARC
8
BLACK
10
68.0566
20
-128.532
40
0.855913
50
-214.221
51
64.2621
0
ARC
8
BLACK
10
67.2875
20
-123.37
40
1.88064
50
-256.267
51
-165.307
0
CIRCLE
8
BLACK
10
77.8732
20
-125.914
40
0.85
0
CIRCLE
8
BLACK
10
72.9663
20
-127.229
40
2
0
CIRCLE
8
BLACK
10
255.778
20
-144.907
40
1.6
0
CIRCLE
8
BLACK
10
189.991
20
-129.715
40
1.35
0
LINE
8
BLACK
6
CONTINUOUS
10
203.749
20
-125.839
11
208.854
21
-125.839
0
LINE
8
BLACK
6
CONTINUOUS
10
208.854
20
-125.839
11
208.854
21
-123.959
0
LINE
8
BLACK
6
CONTINUOUS
10
208.854
20
-123.959
11
203.749
21
-123.959
0
LINE
8
BLACK
6
CONTINUOUS
10
203.749
20
-123.959
11
203.749
21
-125.839
0
LINE
8
BLACK
6
CONTINUOUS
10
260.829
20
-105.953
11
260.829
21
-104.553
0
LINE
8
BLACK
6
CONTINUOUS
10
262.829
20
-104.553
11
262.829
21
-105.953
0
LINE
8
BLACK
6
CONTINUOUS
10
262.129
20
-106.653
11
261.529
21
-106.653
0
LINE
8
BLACK
6
CONTINUOUS
10
261.529
20
-103.853
11
262.129
21
-103.853
0
ARC
8
BLACK
10
262.129
20
-104.553
40
0.699999
50
-8.18512e-05
51
90.0001
0
ARC
8
BLACK
10
261.529
20
-105.953
40
0.7
50
-180
51
-90
0
ARC
8
BLACK
10
262.129
20
-105.953
40
0.7
50
-90
51
-0
0
ARC
8
BLACK
10
261.529
20
-104.553
40
0.699999
50
-270
51
-180
0
LINE
8
BLACK
6
CONTINUOUS
10
223.572
20
-59.1641
11
223.572
21
-58.5636
0
LINE
8
BLACK
6
CONTINUOUS
10
210.186
20
-61.7799
11
210.186
21
-64.4977
0
LINE
8
BLACK
6
CONTINUOUS
10
223.572
20
-63.1007
11
218.178
21
-63.1007
0
LINE
8
BLACK
6
CONTINUOUS
10
223.572
20
-58.5636
11
213.996
21
-58.5636
0
LINE
8
BLACK
6
CONTINUOUS
10
210.186
20
-64.4977
11
212.074
21
-64.4977
0
LINE
8
BLACK
6
CONTINUOUS
10
212.074
20
-60.4337
11
212.074
21
-61.7799
0
LINE
8
BLACK
6
CONTINUOUS
10
212.074
20
-64.4977
11
212.074
21
-64.9807
0
LINE
8
BLACK
6
CONTINUOUS
10
225.46
20
-59.1641
11
223.572
21
-59.1641
0
LINE
8
BLACK
6
CONTINUOUS
10
223.572
20
-63.1007
11
223.572
21
-61.8819
0
LINE
8
BLACK
6
CONTINUOUS
10
225.46
20
-61.8819
11
223.572
21
-61.8819
0
LINE
8
BLACK
6
CONTINUOUS
10
210.186
20
-61.7799
11
212.074
21
-61.7799
0
LINE
8
BLACK
6
CONTINUOUS
10
213.92
20
-64.9803
11
215.918
21
-64.9807
0
LINE
8
BLACK
6
CONTINUOUS
10
212.074
20
-64.9807
11
212.802
21
-64.9807
0
LINE
8
BLACK
6
CONTINUOUS
10
225.46
20
-61.8819
11
225.46
21
-59.1641
0
ARC
8
BLACK
10
213.361
20
-65.6288
40
0.855913
50
-229.221
51
49.262
0
ARC
8
BLACK
10
213.954
20
-60.4438
40
1.88064
50
88.7333
51
179.693
0
ARC
8
BLACK
10
218.152
20
-65.3685
40
2.26789
50
89.3556
51
170.156
0
CIRCLE
8
BLACK
10
218.441
20
-65.6407
40
2
0
CIRCLE
8
BLACK
10
223.521
20
-65.6407
40
0.85
0
LINE
8
BLACK
6
CONTINUOUS
10
174.074
20
-64.9813
11
174.803
21
-64.9813
0
LINE
8
BLACK
6
CONTINUOUS
10
175.92
20
-64.9809
11
177.918
21
-64.9813
0
LINE
8
BLACK
6
CONTINUOUS
10
172.186
20
-61.7805
11
174.074
21
-61.7805
0
LINE
8
BLACK
6
CONTINUOUS
10
185.572
20
-58.5642
11
175.996
21
-58.5642
0
LINE
8
BLACK
6
CONTINUOUS
10
185.572
20
-59.1647
11
185.572
21
-58.5642
0
LINE
8
BLACK
6
CONTINUOUS
10
187.46
20
-59.1647
11
185.572
21
-59.1647
0
LINE
8
BLACK
6
CONTINUOUS
10
174.074
20
-60.4343
11
174.074
21
-61.7805
0
LINE
8
BLACK
6
CONTINUOUS
10
174.074
20
-64.4983
11
174.074
21
-64.9813
0
LINE
8
BLACK
6
CONTINUOUS
10
185.572
20
-63.1013
11
180.178
21
-63.1013
0
LINE
8
BLACK
6
CONTINUOUS
10
172.186
20
-61.7805
11
172.186
21
-64.4983
0
LINE
8
BLACK
6
CONTINUOUS
10
185.572
20
-63.1013
11
185.572
21
-61.8825
0
LINE
8
BLACK
6
CONTINUOUS
10
187.46
20
-61.8825
11
185.572
21
-61.8825
0
LINE
8
BLACK
6
CONTINUOUS
10
172.186
20
-64.4983
11
174.074
21
-64.4983
0
LINE
8
BLACK
6
CONTINUOUS
10
187.46
20
-61.8825
11
187.46
21
-59.1647
0
ARC
8
BLACK
10
175.362
20
-65.6294
40
0.855913
50
-229.221
51
49.262
0
ARC
8
BLACK
10
175.955
20
-60.4444
40
1.88064
50
88.7333
51
179.693
0
ARC
8
BLACK
10
180.153
20
-65.369
40
2.26789
50
89.3556
51
170.156
0
CIRCLE
8
BLACK
10
180.441
20
-65.6413
40
2
0
CIRCLE
8
BLACK
10
185.521
20
-65.6413
40
0.85
0
LINE
8
BLACK
6
CONTINUOUS
10
144.557
20
-65.0999
11
139.163
21
-65.0999
0
LINE
8
BLACK
6
CONTINUOUS
10
146.445
20
-61.1633
11
144.557
21
-61.1633
0
LINE
8
BLACK
6
CONTINUOUS
10
131.171
20
-63.7791
11
133.059
21
-63.7791
0
LINE
8
BLACK
6
CONTINUOUS
10
146.445
20
-63.8811
11
144.557
21
-63.8811
0
LINE
8
BLACK
6
CONTINUOUS
10
131.171
20
-63.7791
11
131.171
21
-66.4969
0
LINE
8
BLACK
6
CONTINUOUS
10
144.557
20
-60.5628
11
134.981
21
-60.5628
0
LINE
8
BLACK
6
CONTINUOUS
10
144.557
20
-65.0999
11
144.557
21
-63.8811
0
LINE
8
BLACK
6
CONTINUOUS
10
133.059
20
-66.9799
11
133.787
21
-66.9799
0
LINE
8
BLACK
6
CONTINUOUS
10
133.059
20
-62.4329
11
133.059
21
-63.7791
0
LINE
8
BLACK
6
CONTINUOUS
10
134.905
20
-66.9795
11
136.903
21
-66.9799
0
LINE
8
BLACK
6
CONTINUOUS
10
133.059
20
-66.4969
11
133.059
21
-66.9799
0
LINE
8
BLACK
6
CONTINUOUS
10
131.171
20
-66.4969
11
133.059
21
-66.4969
0
LINE
8
BLACK
6
CONTINUOUS
10
144.557
20
-61.1633
11
144.557
21
-60.5628
0
LINE
8
BLACK
6
CONTINUOUS
10
146.445
20
-63.8811
11
146.445
21
-61.1633
0
ARC
8
BLACK
10
134.939
20
-62.443
40
1.88064
50
88.7333
51
179.693
0
ARC
8
BLACK
10
139.137
20
-67.3676
40
2.26789
50
89.3556
51
170.156
0
ARC
8
BLACK
10
134.346
20
-67.628
40
0.855913
50
-229.221
51
49.262
0
CIRCLE
8
BLACK
10
144.506
20
-67.6399
40
0.85
0
CIRCLE
8
BLACK
10
139.426
20
-67.6399
40
2
0
CIRCLE
8
BLACK
10
208.891
20
-129.716
40
1.35
0
LINE
8
BLACK
6
CONTINUOUS
10
244.459
20
-64.8825
11
244.459
21
-62.1647
0
LINE
8
BLACK
6
CONTINUOUS
10
229.186
20
-64.7805
11
231.073
21
-64.7805
0
LINE
8
BLACK
6
CONTINUOUS
10
231.073
20
-67.4983
11
231.073
21
-67.9813
0
LINE
8
BLACK
6
CONTINUOUS
10
231.073
20
-63.4343
11
231.073
21
-64.7805
0
LINE
8
BLACK
6
CONTINUOUS
10
232.919
20
-67.9809
11
234.917
21
-67.9813
0
LINE
8
BLACK
6
CONTINUOUS
10
242.571
20
-62.1647
11
242.571
21
-61.5642
0
LINE
8
BLACK
6
CONTINUOUS
10
244.459
20
-64.8825
11
242.571
21
-64.8825
0
LINE
8
BLACK
6
CONTINUOUS
10
244.459
20
-62.1647
11
242.571
21
-62.1647
0
LINE
8
BLACK
6
CONTINUOUS
10
242.571
20
-66.1013
11
237.177
21
-66.1013
0
LINE
8
BLACK
6
CONTINUOUS
10
229.186
20
-67.4983
11
231.073
21
-67.4983
0
LINE
8
BLACK
6
CONTINUOUS
10
242.571
20
-61.5642
11
232.996
21
-61.5642
0
LINE
8
BLACK
6
CONTINUOUS
10
229.186
20
-64.7805
11
229.186
21
-67.4983
0
LINE
8
BLACK
6
CONTINUOUS
10
242.571
20
-66.1013
11
242.571
21
-64.8825
0
LINE
8
BLACK
6
CONTINUOUS
10
231.073
20
-67.9813
11
231.802
21
-67.9813
0
ARC
8
BLACK
10
237.152
20
-68.369
40
2.26789
50
89.3556
51
170.156
0
ARC
8
BLACK
10
232.361
20
-68.6294
40
0.855913
50
-229.221
51
49.262
0
ARC
8
BLACK
10
232.954
20
-63.4444
40
1.88064
50
88.7333
51
179.693
0
CIRCLE
8
BLACK
10
242.521
20
-68.6413
40
0.85
0
CIRCLE
8
BLACK
10
237.441
20
-68.6413
40
2
0
LINE
8
BLACK
6
CONTINUOUS
10
203.749
20
-123.132
11
208.854
21
-123.132
0
LINE
8
BLACK
6
CONTINUOUS
10
208.854
20
-123.132
11
208.854
21
-121.252
0
LINE
8
BLACK
6
CONTINUOUS
10
208.854
20
-121.252
11
203.749
21
-121.252
0
LINE
8
BLACK
6
CONTINUOUS
10
203.749
20
-121.252
11
203.749
21
-123.132
0
LINE
8
BLACK
6
CONTINUOUS
10
144.557
20
-84.1003
11
144.557
21
-82.8815
0
LINE
8
BLACK
6
CONTINUOUS
10
133.059
20
-81.4333
11
133.059
21
-82.7795
0
LINE
8
BLACK
6
CONTINUOUS
10
131.171
20
-85.4973
11
133.059
21
-85.4973
0
LINE
8
BLACK
6
CONTINUOUS
10
144.557
20
-80.1637
11
144.557
21
-79.5632
0
LINE
8
BLACK
6
CONTINUOUS
10
144.557
20
-79.5632
11
134.981
21
-79.5632
0
LINE
8
BLACK
6
CONTINUOUS
10
144.557
20
-84.1003
11
139.163
21
-84.1003
0
LINE
8
BLACK
6
CONTINUOUS
10
131.171
20
-82.7795
11
133.059
21
-82.7795
0
LINE
8
BLACK
6
CONTINUOUS
10
131.171
20
-82.7795
11
131.171
21
-85.4973
0
LINE
8
BLACK
6
CONTINUOUS
10
134.905
20
-85.9799
11
136.903
21
-85.9803
0
LINE
8
BLACK
6
CONTINUOUS
10
133.059
20
-85.9803
11
133.787
21
-85.9803
0
LINE
8
BLACK
6
CONTINUOUS
10
146.445
20
-82.8815
11
146.445
21
-80.1637
0
LINE
8
BLACK
6
CONTINUOUS
10
146.445
20
-82.8815
11
144.557
21
-82.8815
0
LINE
8
BLACK
6
CONTINUOUS
10
146.445
20
-80.1637
11
144.557
21
-80.1637
0
LINE
8
BLACK
6
CONTINUOUS
10
133.059
20
-85.4973
11
133.059
21
-85.9803
0
ARC
8
BLACK
10
134.939
20
-81.4434
40
1.88064
50
88.7333
51
179.693
0
ARC
8
BLACK
10
134.346
20
-86.6284
40
0.855913
50
-229.221
51
49.262
0
ARC
8
BLACK
10
139.137
20
-86.368
40
2.26789
50
89.3556
51
170.156
0
CIRCLE
8
BLACK
10
144.506
20
-86.6403
40
0.85
0
CIRCLE
8
BLACK
10
139.426
20
-86.6403
40
2
0
LINE
8
BLACK
6
CONTINUOUS
10
47.1211
20
-68.3661
11
51.9471
21
-68.3661
0
LINE
8
BLACK
6
CONTINUOUS
10
51.9471
20
-68.3661
11
51.9471
21
-98.8461
0
LINE
8
BLACK
6
CONTINUOUS
10
51.9471
20
-98.8461
11
47.1211
21
-98.8461
0
LINE
8
BLACK
6
CONTINUOUS
10
47.1211
20
-98.8461
11
47.1211
21
-68.3661
0
LINE
8
BLACK
6
CONTINUOUS
10
33.6591
20
-68.3661
11
38.4851
21
-68.3661
0
LINE
8
BLACK
6
CONTINUOUS
10
38.4851
20
-68.3661
11
38.4851
21
-98.8461
0
LINE
8
BLACK
6
CONTINUOUS
10
38.4851
20
-98.8461
11
33.6591
21
-98.8461
0
LINE
8
BLACK
6
CONTINUOUS
10
33.6591
20
-98.8461
11
33.6591
21
-68.3661
0
LINE
8
BLACK
6
CONTINUOUS
10
168.298
20
-104.967
11
170.178
21
-104.967
0
LINE
8
BLACK
6
CONTINUOUS
10
170.178
20
-104.967
11
170.178
21
-110.073
0
LINE
8
BLACK
6
CONTINUOUS
10
170.178
20
-110.073
11
168.298
21
-110.073
0
LINE
8
BLACK
6
CONTINUOUS
10
168.298
20
-110.073
11
168.298
21
-104.967
0
LINE
8
BLACK
6
CONTINUOUS
10
179.913
20
-90.7958
11
172.613
21
-90.7958
0
LINE
8
BLACK
6
CONTINUOUS
10
172.613
20
-90.7958
11
172.613
21
-96.2958
0
LINE
8
BLACK
6
CONTINUOUS
10
172.613
20
-96.2958
11
179.913
21
-96.2958
0
LINE
8
BLACK
6
CONTINUOUS
10
179.913
20
-96.2958
11
179.913
21
-90.7958
0
LINE
8
BLACK
6
CONTINUOUS
10
187.299
20
-83.9675
11
189.178
21
-83.9675
0
LINE
8
BLACK
6
CONTINUOUS
10
189.178
20
-83.9675
11
189.178
21
-89.0729
0
LINE
8
BLACK
6
CONTINUOUS
10
189.178
20
-89.0729
11
187.299
21
-89.0729
0
LINE
8
BLACK
6
CONTINUOUS
10
187.299
20
-89.0729
11
187.299
21
-83.9675
0
LINE
8
BLACK
6
CONTINUOUS
10
77.9049
20
-83.9803
11
79.9029
21
-83.9807
0
LINE
8
BLACK
6
CONTINUOUS
10
74.1711
20
-80.7799
11
76.059
21
-80.7799
0
LINE
8
BLACK
6
CONTINUOUS
10
76.059
20
-83.4977
11
76.059
21
-83.9807
0
LINE
8
BLACK
6
CONTINUOUS
10
89.4448
20
-80.8819
11
89.4448
21
-78.1641
0
LINE
8
BLACK
6
CONTINUOUS
10
89.4448
20
-78.1641
11
87.5569
21
-78.1641
0
LINE
8
BLACK
6
CONTINUOUS
10
87.5569
20
-78.1641
11
87.5569
21
-77.5636
0
LINE
8
BLACK
6
CONTINUOUS
10
87.5569
20
-77.5636
11
77.9811
21
-77.5636
0
LINE
8
BLACK
6
CONTINUOUS
10
89.4448
20
-80.8819
11
87.5569
21
-80.8819
0
LINE
8
BLACK
6
CONTINUOUS
10
76.059
20
-83.9807
11
76.7873
21
-83.9807
0
LINE
8
BLACK
6
CONTINUOUS
10
87.5569
20
-82.1007
11
87.5569
21
-80.8819
0
LINE
8
BLACK
6
CONTINUOUS
10
74.1711
20
-80.7799
11
74.1711
21
-83.4977
0
LINE
8
BLACK
6
CONTINUOUS
10
74.1711
20
-83.4977
11
76.059
21
-83.4977
0
LINE
8
BLACK
6
CONTINUOUS
10
87.5569
20
-82.1007
11
82.163
21
-82.1007
0
LINE
8
BLACK
6
CONTINUOUS
10
76.059
20
-79.4337
11
76.059
21
-80.7799
0
ARC
8
BLACK
10
77.3464
20
-84.6288
40
0.855913
50
-229.221
51
49.262
0
ARC
8
BLACK
10
77.9396
20
-79.4438
40
1.88064
50
88.7333
51
179.693
0
ARC
8
BLACK
10
82.1374
20
-84.3684
40
2.26789
50
89.3556
51
170.156
0
CIRCLE
8
BLACK
10
87.5061
20
-84.6407
40
0.85
0
CIRCLE
8
BLACK
10
82.4261
20
-84.6407
40
2
0
LINE
8
BLACK
6
CONTINUOUS
10
168.298
20
-85.9669
11
170.178
21
-85.9669
0
LINE
8
BLACK
6
CONTINUOUS
10
170.178
20
-85.9669
11
170.178
21
-91.0723
0
LINE
8
BLACK
6
CONTINUOUS
10
170.178
20
-91.0723
11
168.298
21
-91.0723
0
LINE
8
BLACK
6
CONTINUOUS
10
168.298
20
-91.0723
11
168.298
21
-85.9669
0
LINE
8
BLACK
6
CONTINUOUS
10
112.171
20
-61.7805
11
114.059
21
-61.7805
0
LINE
8
BLACK
6
CONTINUOUS
10
125.557
20
-63.1013
11
125.557
21
-61.8825
0
LINE
8
BLACK
6
CONTINUOUS
10
114.059
20
-64.4983
11
114.059
21
-64.9813
0
LINE
8
BLACK
6
CONTINUOUS
10
127.444
20
-61.8825
11
127.444
21
-59.1647
0
LINE
8
BLACK
6
CONTINUOUS
10
114.059
20
-60.4343
11
114.059
21
-61.7805
0
LINE
8
BLACK
6
CONTINUOUS
10
112.171
20
-61.7805
11
112.171
21
-64.4983
0
LINE
8
BLACK
6
CONTINUOUS
10
125.557
20
-59.1647
11
125.557
21
-58.5642
0
LINE
8
BLACK
6
CONTINUOUS
10
125.557
20
-58.5642
11
115.981
21
-58.5642
0
LINE
8
BLACK
6
CONTINUOUS
10
114.059
20
-64.9813
11
114.787
21
-64.9813
0
LINE
8
BLACK
6
CONTINUOUS
10
125.557
20
-63.1013
11
120.163
21
-63.1013
0
LINE
8
BLACK
6
CONTINUOUS
10
115.905
20
-64.9809
11
117.903
21
-64.9813
0
LINE
8
BLACK
6
CONTINUOUS
10
112.171
20
-64.4983
11
114.059
21
-64.4983
0
LINE
8
BLACK
6
CONTINUOUS
10
127.444
20
-61.8825
11
125.557
21
-61.8825
0
LINE
8
BLACK
6
CONTINUOUS
10
127.444
20
-59.1647
11
125.557
21
-59.1647
0
ARC
8
BLACK
10
115.346
20
-65.6294
40
0.855913
50
-229.221
51
49.262
0
ARC
8
BLACK
10
115.939
20
-60.4444
40
1.88064
50
88.7333
51
179.693
0
ARC
8
BLACK
10
120.137
20
-65.369
40
2.26789
50
89.3556
51
170.156
0
CIRCLE
8
BLACK
10
125.506
20
-65.6413
40
0.85
0
CIRCLE
8
BLACK
10
120.426
20
-65.6413
40
2
0
LINE
8
BLACK
6
CONTINUOUS
10
242.248
20
-121.7
11
240.368
21
-121.7
0
LINE
8
BLACK
6
CONTINUOUS
10
240.368
20
-121.7
11
240.368
21
-116.594
0
LINE
8
BLACK
6
CONTINUOUS
10
240.368
20
-116.594
11
242.248
21
-116.594
0
LINE
8
BLACK
6
CONTINUOUS
10
242.248
20
-116.594
11
242.248
21
-121.7
0
LINE
8
BLACK
6
CONTINUOUS
10
257.472
20
-80.952
11
255.338
21
-80.952
0
LINE
8
BLACK
6
CONTINUOUS
10
255.338
20
-80.952
11
255.338
21
-76.4816
0
LINE
8
BLACK
6
CONTINUOUS
10
255.338
20
-76.4816
11
257.472
21
-76.4816
0
LINE
8
BLACK
6
CONTINUOUS
10
257.472
20
-76.4816
11
257.472
21
-80.952
0
LINE
8
BLACK
6
CONTINUOUS
10
187.299
20
-64.9679
11
189.178
21
-64.9679
0
LINE
8
BLACK
6
CONTINUOUS
10
189.178
20
-64.9679
11
189.178
21
-70.0733
0
LINE
8
BLACK
6
CONTINUOUS
10
189.178
20
-70.0733
11
187.299
21
-70.0733
0
LINE
8
BLACK
6
CONTINUOUS
10
187.299
20
-70.0733
11
187.299
21
-64.9679
0
LINE
8
BLACK
6
CONTINUOUS
10
212.074
20
-98.4341
11
212.074
21
-99.7803
0
LINE
8
BLACK
6
CONTINUOUS
10
223.572
20
-101.101
11
218.178
21
-101.101
0
LINE
8
BLACK
6
CONTINUOUS
10
212.074
20
-102.981
11
212.802
21
-102.981
0
LINE
8
BLACK
6
CONTINUOUS
10
225.46
20
-97.1645
11
223.572
21
-97.1645
0
LINE
8
BLACK
6
CONTINUOUS
10
225.46
20
-99.8823
11
225.46
21
-97.1645
0
LINE
8
BLACK
6
CONTINUOUS
10
210.186
20
-99.7803
11
210.186
21
-102.498
0
LINE
8
BLACK
6
CONTINUOUS
10
210.186
20
-99.7803
11
212.074
21
-99.7803
0
LINE
8
BLACK
6
CONTINUOUS
10
213.92
20
-102.981
11
215.918
21
-102.981
0
LINE
8
BLACK
6
CONTINUOUS
10
212.074
20
-102.498
11
212.074
21
-102.981
0
LINE
8
BLACK
6
CONTINUOUS
10
223.572
20
-97.1645
11
223.572
21
-96.564
0
LINE
8
BLACK
6
CONTINUOUS
10
210.186
20
-102.498
11
212.074
21
-102.498
0
LINE
8
BLACK
6
CONTINUOUS
10
223.572
20
-101.101
11
223.572
21
-99.8823
0
LINE
8
BLACK
6
CONTINUOUS
10
225.46
20
-99.8823
11
223.572
21
-99.8823
0
LINE
8
BLACK
6
CONTINUOUS
10
223.572
20
-96.564
11
213.996
21
-96.564
0
ARC
8
BLACK
10
213.954
20
-98.4442
40
1.88064
50
88.7333
51
179.693
0
ARC
8
BLACK
10
213.361
20
-103.629
40
0.855913
50
-229.221
51
49.262
0
ARC
8
BLACK
10
218.152
20
-103.369
40
2.26789
50
89.3556
51
170.156
0
CIRCLE
8
BLACK
10
223.521
20
-103.641
40
0.85
0
CIRCLE
8
BLACK
10
218.441
20
-103.641
40
2
0
LINE
8
BLACK
6
CONTINUOUS
10
206.298
20
-99.1573
11
208.178
21
-99.1573
0
LINE
8
BLACK
6
CONTINUOUS
10
208.178
20
-99.1573
11
208.178
21
-104.263
0
LINE
8
BLACK
6
CONTINUOUS
10
208.178
20
-104.263
11
206.298
21
-104.263
0
LINE
8
BLACK
6
CONTINUOUS
10
206.298
20
-104.263
11
206.298
21
-99.1573
0
LINE
8
BLACK
6
CONTINUOUS
10
168.298
20
-66.9665
11
170.178
21
-66.9665
0
LINE
8
BLACK
6
CONTINUOUS
10
170.178
20
-66.9665
11
170.178
21
-72.0719
0
LINE
8
BLACK
6
CONTINUOUS
10
170.178
20
-72.0719
11
168.298
21
-72.0719
0
LINE
8
BLACK
6
CONTINUOUS
10
168.298
20
-72.0719
11
168.298
21
-66.9665
0
LINE
8
BLACK
6
CONTINUOUS
10
70.4451
20
-62.1647
11
68.5572
21
-62.1647
0
LINE
8
BLACK
6
CONTINUOUS
10
68.5572
20
-61.5642
11
58.9814
21
-61.5642
0
LINE
8
BLACK
6
CONTINUOUS
10
57.0593
20
-63.4343
11
57.0593
21
-64.7805
0
LINE
8
BLACK
6
CONTINUOUS
10
57.0593
20
-67.9813
11
57.7876
21
-67.9813
0
LINE
8
BLACK
6
CONTINUOUS
10
70.4451
20
-64.8825
11
68.5572
21
-64.8825
0
LINE
8
BLACK
6
CONTINUOUS
10
55.1714
20
-64.7805
11
55.1714
21
-67.4983
0
LINE
8
BLACK
6
CONTINUOUS
10
70.4451
20
-64.8825
11
70.4451
21
-62.1647
0
LINE
8
BLACK
6
CONTINUOUS
10
58.9052
20
-67.9809
11
60.9033
21
-67.9813
0
LINE
8
BLACK
6
CONTINUOUS
10
55.1714
20
-67.4983
11
57.0593
21
-67.4983
0
LINE
8
BLACK
6
CONTINUOUS
10
55.1714
20
-64.7805
11
57.0593
21
-64.7805
0
LINE
8
BLACK
6
CONTINUOUS
10
57.0593
20
-67.4983
11
57.0593
21
-67.9813
0
LINE
8
BLACK
6
CONTINUOUS
10
68.5572
20
-66.1013
11
63.1633
21
-66.1013
0
LINE
8
BLACK
6
CONTINUOUS
10
68.5572
20
-66.1013
11
68.5572
21
-64.8825
0
LINE
8
BLACK
6
CONTINUOUS
10
68.5572
20
-62.1647
11
68.5572
21
-61.5642
0
ARC
8
BLACK
10
58.3467
20
-68.6294
40
0.855913
50
-229.221
51
49.262
0
ARC
8
BLACK
10
58.9399
20
-63.4444
40
1.88064
50
88.7333
51
179.693
0
ARC
8
BLACK
10
63.1377
20
-68.369
40
2.26789
50
89.3556
51
170.156
0
CIRCLE
8
BLACK
10
63.4264
20
-68.6413
40
2
0
CIRCLE
8
BLACK
10
68.5064
20
-68.6413
40
0.85
0
LINE
8
BLACK
6
CONTINUOUS
10
115.905
20
-83.9805
11
117.903
21
-83.9809
0
LINE
8
BLACK
6
CONTINUOUS
10
125.557
20
-77.5638
11
115.981
21
-77.5638
0
LINE
8
BLACK
6
CONTINUOUS
10
125.557
20
-82.1009
11
120.163
21
-82.1009
0
LINE
8
BLACK
6
CONTINUOUS
10
125.557
20
-82.1009
11
125.557
21
-80.8821
0
LINE
8
BLACK
6
CONTINUOUS
10
114.059
20
-83.9809
11
114.787
21
-83.9809
0
LINE
8
BLACK
6
CONTINUOUS
10
112.171
20
-80.7801
11
114.059
21
-80.7801
0
LINE
8
BLACK
6
CONTINUOUS
10
114.059
20
-83.4979
11
114.059
21
-83.9809
0
LINE
8
BLACK
6
CONTINUOUS
10
114.059
20
-79.4339
11
114.059
21
-80.7801
0
LINE
8
BLACK
6
CONTINUOUS
10
127.444
20
-80.8821
11
127.444
21
-78.1643
0
LINE
8
BLACK
6
CONTINUOUS
10
127.444
20
-78.1643
11
125.557
21
-78.1643
0
LINE
8
BLACK
6
CONTINUOUS
10
112.171
20
-80.7801
11
112.171
21
-83.4979
0
LINE
8
BLACK
6
CONTINUOUS
10
127.444
20
-80.8821
11
125.557
21
-80.8821
0
LINE
8
BLACK
6
CONTINUOUS
10
125.557
20
-78.1643
11
125.557
21
-77.5638
0
LINE
8
BLACK
6
CONTINUOUS
10
112.171
20
-83.4979
11
114.059
21
-83.4979
0
ARC
8
BLACK
10
115.346
20
-84.629
40
0.855913
50
-229.221
51
49.262
0
ARC
8
BLACK
10
115.939
20
-79.444
40
1.88064
50
88.7333
51
179.693
0
ARC
8
BLACK
10
120.137
20
-84.3686
40
2.26789
50
89.3556
51
170.156
0
CIRCLE
8
BLACK
10
120.426
20
-84.6409
40
2
0
CIRCLE
8
BLACK
10
125.506
20
-84.6409
40
0.85
0
LINE
8
BLACK
6
CONTINUOUS
10
229.585
20
-89.9858
11
222.285
21
-89.9858
0
LINE
8
BLACK
6
CONTINUOUS
10
222.285
20
-89.9858
11
222.285
21
-95.4858
0
LINE
8
BLACK
6
CONTINUOUS
10
222.285
20
-95.4858
11
229.585
21
-95.4858
0
LINE
8
BLACK
6
CONTINUOUS
10
229.585
20
-95.4858
11
229.585
21
-89.9858
0
LINE
8
BLACK
6
CONTINUOUS
10
93.1713
20
-95.9699
11
93.1713
21
-98.6877
0
LINE
8
BLACK
6
CONTINUOUS
10
106.557
20
-93.3541
11
106.557
21
-92.7536
0
LINE
8
BLACK
6
CONTINUOUS
10
106.557
20
-97.2907
11
101.163
21
-97.2907
0
LINE
8
BLACK
6
CONTINUOUS
10
95.0592
20
-98.6877
11
95.0592
21
-99.1707
0
LINE
8
BLACK
6
CONTINUOUS
10
95.0592
20
-94.6237
11
95.0592
21
-95.9699
0
LINE
8
BLACK
6
CONTINUOUS
10
93.1713
20
-95.9699
11
95.0592
21
-95.9699
0
LINE
8
BLACK
6
CONTINUOUS
10
108.445
20
-96.0719
11
108.445
21
-93.3541
0
LINE
8
BLACK
6
CONTINUOUS
10
96.9051
20
-99.1703
11
98.9031
21
-99.1707
0
LINE
8
BLACK
6
CONTINUOUS
10
108.445
20
-96.0719
11
106.557
21
-96.0719
0
LINE
8
BLACK
6
CONTINUOUS
10
106.557
20
-97.2907
11
106.557
21
-96.0719
0
LINE
8
BLACK
6
CONTINUOUS
10
108.445
20
-93.3541
11
106.557
21
-93.3541
0
LINE
8
BLACK
6
CONTINUOUS
10
93.1713
20
-98.6877
11
95.0592
21
-98.6877
0
LINE
8
BLACK
6
CONTINUOUS
10
106.557
20
-92.7536
11
96.9813
21
-92.7536
0
LINE
8
BLACK
6
CONTINUOUS
10
95.0592
20
-99.1707
11
95.7875
21
-99.1707
0
ARC
8
BLACK
10
96.3466
20
-99.8188
40
0.855913
50
-229.221
51
49.262
0
ARC
8
BLACK
10
101.138
20
-99.5584
40
2.26789
50
89.3556
51
170.156
0
ARC
8
BLACK
10
96.9398
20
-94.6338
40
1.88064
50
88.7333
51
179.693
0
CIRCLE
8
BLACK
10
101.426
20
-99.8307
40
2
0
CIRCLE
8
BLACK
10
106.506
20
-99.8307
40
0.85
0
LINE
8
BLACK
6
CONTINUOUS
10
259.797
20
-80.952
11
257.663
21
-80.952
0
LINE
8
BLACK
6
CONTINUOUS
10
257.663
20
-80.952
11
257.663
21
-76.4816
0
LINE
8
BLACK
6
CONTINUOUS
10
257.663
20
-76.4816
11
259.797
21
-76.4816
0
LINE
8
BLACK
6
CONTINUOUS
10
259.797
20
-76.4816
11
259.797
21
-80.952
0
LINE
8
BLACK
6
CONTINUOUS
10
262.133
20
-108.009
11
262.946
21
-108.009
0
LINE
8
BLACK
6
CONTINUOUS
10
262.133
20
-115.807
11
262.946
21
-115.807
0
LINE
8
BLACK
6
CONTINUOUS
10
259.136
20
-109.863
11
259.949
21
-109.863
0
LINE
8
BLACK
6
CONTINUOUS
10
253.65
20
-111.616
11
254.463
21
-111.616
0
LINE
8
BLACK
6
CONTINUOUS
10
255.148
20
-108.009
11
255.961
21
-108.009
0
LINE
8
BLACK
6
CONTINUOUS
10
255.148
20
-109.863
11
255.961
21
-109.863
0
LINE
8
BLACK
6
CONTINUOUS
10
259.136
20
-115.807
11
259.949
21
-115.807
0
LINE
8
BLACK
6
CONTINUOUS
10
253.65
20
-109.762
11
254.463
21
-109.762
0
LINE
8
BLACK
6
CONTINUOUS
10
259.136
20
-108.009
11
259.949
21
-108.009
0
LINE
8
BLACK
6
CONTINUOUS
10
259.136
20
-113.953
11
259.949
21
-113.953
0
LINE
8
BLACK
6
CONTINUOUS
10
253.65
20
-114.054
11
254.463
21
-114.054
0
LINE
8
BLACK
6
CONTINUOUS
10
255.148
20
-113.953
11
255.961
21
-113.953
0
LINE
8
BLACK
6
CONTINUOUS
10
262.133
20
-109.863
11
262.946
21
-109.863
0
LINE
8
BLACK
6
CONTINUOUS
10
253.65
20
-112.2
11
254.463
21
-112.2
0
LINE
8
BLACK
6
CONTINUOUS
10
262.133
20
-113.953
11
262.946
21
-113.953
0
LINE
8
BLACK
6
CONTINUOUS
10
255.148
20
-115.807
11
255.961
21
-115.807
0
ARC
8
BLACK
10
253.65
20
-110.689
40
0.9271
50
-270
51
-90
0
ARC
8
BLACK
10
262.133
20
-108.936
40
0.9271
50
-270
51
-90
0
ARC
8
BLACK
10
259.136
20
-114.88
40
0.9271
50
-270
51
-90
0
ARC
8
BLACK
10
259.136
20
-108.936
40
0.9271
50
-270
51
-90
0
ARC
8
BLACK
10
262.133
20
-114.88
40
0.9271
50
-270
51
-90
0
ARC
8
BLACK
10
255.961
20
-114.88
40
0.9271
50
-90
51
90
0
ARC
8
BLACK
10
255.148
20
-108.936
40
0.9271
50
-270
51
-90
0
ARC
8
BLACK
10
254.463
20
-110.689
40
0.9271
50
-90
51
90
0
ARC
8
BLACK
10
255.148
20
-114.88
40
0.9271
50
-270
51
-90
0
ARC
8
BLACK
10
262.946
20
-108.936
40
0.9271
50
-90
51
90
0
ARC
8
BLACK
10
253.65
20
-113.127
40
0.9271
50
-270
51
-90
0
ARC
8
BLACK
10
254.463
20
-113.127
40
0.9271
50
-90
51
90
0
ARC
8
BLACK
10
259.949
20
-114.88
40
0.9271
50
-90
51
90
0
ARC
8
BLACK
10
255.961
20
-108.936
40
0.9271
50
-90
51
90
0
ARC
8
BLACK
10
259.949
20
-108.936
40
0.9271
50
-90
51
90
0
ARC
8
BLACK
10
262.946
20
-114.88
40
0.9271
50
-90
51
90
0
LINE
8
BLACK
6
CONTINUOUS
10
244.907
20
-121.7
11
243.027
21
-121.7
0
LINE
8
BLACK
6
CONTINUOUS
10
243.027
20
-121.7
11
243.027
21
-116.594
0
LINE
8
BLACK
6
CONTINUOUS
10
243.027
20
-116.594
11
244.907
21
-116.594
0
LINE
8
BLACK
6
CONTINUOUS
10
244.907
20
-116.594
11
244.907
21
-121.7
0
LINE
8
BLACK
6
CONTINUOUS
10
220.926
20
-121.363
11
222.75
21
-121.852
0
LINE
8
BLACK
6
CONTINUOUS
10
234.688
20
-121.721
11
225.439
21
-119.243
0
LINE
8
BLACK
6
CONTINUOUS
10
235.653
20
-125.415
11
236.356
21
-122.79
0
LINE
8
BLACK
6
CONTINUOUS
10
233.514
20
-126.104
11
233.83
21
-124.926
0
LINE
8
BLACK
6
CONTINUOUS
10
236.356
20
-122.79
11
234.533
21
-122.301
0
LINE
8
BLACK
6
CONTINUOUS
10
222.046
20
-124.477
11
221.921
21
-124.944
0
LINE
8
BLACK
6
CONTINUOUS
10
220.223
20
-123.988
11
222.046
21
-124.477
0
LINE
8
BLACK
6
CONTINUOUS
10
220.926
20
-121.363
11
220.223
21
-123.988
0
LINE
8
BLACK
6
CONTINUOUS
10
223.098
20
-120.551
11
222.75
21
-121.852
0
LINE
8
BLACK
6
CONTINUOUS
10
223.705
20
-125.421
11
225.634
21
-125.938
0
LINE
8
BLACK
6
CONTINUOUS
10
234.533
20
-122.301
11
234.688
21
-121.721
0
LINE
8
BLACK
6
CONTINUOUS
10
221.921
20
-124.944
11
222.625
21
-125.132
0
LINE
8
BLACK
6
CONTINUOUS
10
235.653
20
-125.415
11
233.83
21
-124.926
0
LINE
8
BLACK
6
CONTINUOUS
10
233.514
20
-126.104
11
228.304
21
-124.707
0
ARC
8
BLACK
10
222.997
20
-125.903
40
0.855913
50
-244.221
51
34.2621
0
ARC
8
BLACK
10
227.692
20
-126.891
40
2.26789
50
74.3556
51
155.156
0
ARC
8
BLACK
10
224.912
20
-121.048
40
1.88064
50
73.7333
51
164.693
0
CIRCLE
8
BLACK
10
232.808
20
-128.544
40
0.85
0
CIRCLE
8
BLACK
10
227.901
20
-127.229
40
2
0
LINE
8
BLACK
6
CONTINUOUS
10
258.502
20
-81.9855
11
259.102
21
-81.9855
0
LINE
8
BLACK
6
CONTINUOUS
10
259.102
20
-84.7855
11
258.502
21
-84.7855
0
LINE
8
BLACK
6
CONTINUOUS
10
257.802
20
-84.0855
11
257.802
21
-82.6855
0
LINE
8
BLACK
6
CONTINUOUS
10
259.802
20
-82.6855
11
259.802
21
-84.0855
0
ARC
8
BLACK
10
258.502
20
-84.0855
40
0.699999
50
-180
51
-89.9999
0
ARC
8
BLACK
10
258.502
20
-82.6855
40
0.7
50
90
51
180
0
ARC
8
BLACK
10
259.102
20
-84.0855
40
0.699999
50
-90.0001
51
8.18512e-05
0
ARC
8
BLACK
10
259.102
20
-82.6855
40
0.7
50
-0
51
90
0
LINE
8
BLACK
6
CONTINUOUS
10
254.509
20
-106.653
11
253.909
21
-106.653
0
LINE
8
BLACK
6
CONTINUOUS
10
253.909
20
-103.853
11
254.509
21
-103.853
0
LINE
8
BLACK
6
CONTINUOUS
10
255.209
20
-104.553
11
255.209
21
-105.953
0
LINE
8
BLACK
6
CONTINUOUS
10
253.209
20
-105.953
11
253.209
21
-104.553
0
ARC
8
BLACK
10
253.909
20
-104.553
40
0.699999
50
-270
51
-180
0
ARC
8
BLACK
10
254.509
20
-105.953
40
0.7
50
-90
51
-0
0
ARC
8
BLACK
10
254.509
20
-104.553
40
0.699999
50
-8.18512e-05
51
90.0001
0
ARC
8
BLACK
10
253.909
20
-105.953
40
0.7
50
-180
51
-90
0
CIRCLE
8
BLACK
10
213.826
20
-124.923
40
1.6
0
LINE
8
BLACK
6
CONTINUOUS
10
242.571
20
-104.101
11
242.571
21
-102.882
0
LINE
8
BLACK
6
CONTINUOUS
10
244.459
20
-102.882
11
244.459
21
-100.164
0
LINE
8
BLACK
6
CONTINUOUS
10
231.073
20
-105.498
11
231.073
21
-105.981
0
LINE
8
BLACK
6
CONTINUOUS
10
242.571
20
-104.101
11
237.177
21
-104.101
0
LINE
8
BLACK
6
CONTINUOUS
10
232.919
20
-105.981
11
234.917
21
-105.981
0
LINE
8
BLACK
6
CONTINUOUS
10
244.459
20
-100.164
11
242.571
21
-100.164
0
LINE
8
BLACK
6
CONTINUOUS
10
242.571
20
-99.564
11
232.996
21
-99.564
0
LINE
8
BLACK
6
CONTINUOUS
10
231.073
20
-105.981
11
231.802
21
-105.981
0
LINE
8
BLACK
6
CONTINUOUS
10
244.459
20
-102.882
11
242.571
21
-102.882
0
LINE
8
BLACK
6
CONTINUOUS
10
231.073
20
-101.434
11
231.073
21
-102.78
0
LINE
8
BLACK
6
CONTINUOUS
10
229.186
20
-102.78
11
229.186
21
-105.498
0
LINE
8
BLACK
6
CONTINUOUS
10
242.571
20
-100.164
11
242.571
21
-99.564
0
LINE
8
BLACK
6
CONTINUOUS
10
229.186
20
-105.498
11
231.073
21
-105.498
0
LINE
8
BLACK
6
CONTINUOUS
10
229.186
20
-102.78
11
231.073
21
-102.78
0
ARC
8
BLACK
10
232.361
20
-106.629
40
0.855913
50
-229.221
51
49.262
0
ARC
8
BLACK
10
237.152
20
-106.369
40
2.26789
50
89.3556
51
170.156
0
ARC
8
BLACK
10
232.954
20
-101.444
40
1.88064
50
88.7333
51
179.693
0
CIRCLE
8
BLACK
10
242.521
20
-106.641
40
0.85
0
CIRCLE
8
BLACK
10
237.441
20
-106.641
40
2
0
LINE
8
BLACK
6
CONTINUOUS
10
212.074
20
-83.9807
11
212.802
21
-83.9807
0
LINE
8
BLACK
6
CONTINUOUS
10
225.46
20
-80.8819
11
223.572
21
-80.8819
0
LINE
8
BLACK
6
CONTINUOUS
10
213.92
20
-83.9803
11
215.918
21
-83.9807
0
LINE
8
BLACK
6
CONTINUOUS
10
223.572
20
-82.1007
11
223.572
21
-80.8819
0
LINE
8
BLACK
6
CONTINUOUS
10
212.074
20
-83.4977
11
212.074
21
-83.9807
0
LINE
8
BLACK
6
CONTINUOUS
10
223.572
20
-78.1641
11
223.572
21
-77.5636
0
LINE
8
BLACK
6
CONTINUOUS
10
225.46
20
-78.1641
11
223.572
21
-78.1641
0
LINE
8
BLACK
6
CONTINUOUS
10
223.572
20
-82.1007
11
218.178
21
-82.1007
0
LINE
8
BLACK
6
CONTINUOUS
10
223.572
20
-77.5636
11
213.996
21
-77.5636
0
LINE
8
BLACK
6
CONTINUOUS
10
210.186
20
-80.7799
11
210.186
21
-83.4977
0
LINE
8
BLACK
6
CONTINUOUS
10
210.186
20
-80.7799
11
212.074
21
-80.7799
0
LINE
8
BLACK
6
CONTINUOUS
10
210.186
20
-83.4977
11
212.074
21
-83.4977
0
LINE
8
BLACK
6
CONTINUOUS
10
225.46
20
-80.8819
11
225.46
21
-78.1641
0
LINE
8
BLACK
6
CONTINUOUS
10
212.074
20
-79.4337
11
212.074
21
-80.7799
0
ARC
8
BLACK
10
213.361
20
-84.6288
40
0.855913
50
-229.221
51
49.262
0
ARC
8
BLACK
10
213.954
20
-79.4438
40
1.88064
50
88.7333
51
179.693
0
ARC
8
BLACK
10
218.152
20
-84.3684
40
2.26789
50
89.3556
51
170.156
0
CIRCLE
8
BLACK
10
223.521
20
-84.6407
40
0.85
0
CIRCLE
8
BLACK
10
218.441
20
-84.6407
40
2
0
LINE
8
BLACK
6
CONTINUOUS
10
206.298
20
-80.1571
11
208.178
21
-80.1571
0
LINE
8
BLACK
6
CONTINUOUS
10
208.178
20
-80.1571
11
208.178
21
-85.2625
0
LINE
8
BLACK
6
CONTINUOUS
10
208.178
20
-85.2625
11
206.298
21
-85.2625
0
LINE
8
BLACK
6
CONTINUOUS
10
206.298
20
-85.2625
11
206.298
21
-80.1571
0
LINE
8
BLACK
6
CONTINUOUS
10
87.5569
20
-96.564
11
77.9811
21
-96.564
0
LINE
8
BLACK
6
CONTINUOUS
10
77.9049
20
-102.981
11
79.9029
21
-102.981
0
LINE
8
BLACK
6
CONTINUOUS
10
87.5569
20
-101.101
11
87.5569
21
-99.8823
0
LINE
8
BLACK
6
CONTINUOUS
10
74.1711
20
-102.498
11
76.059
21
-102.498
0
LINE
8
BLACK
6
CONTINUOUS
10
74.1711
20
-99.7803
11
76.059
21
-99.7803
0
LINE
8
BLACK
6
CONTINUOUS
10
89.4448
20
-99.8823
11
89.4448
21
-97.1645
0
LINE
8
BLACK
6
CONTINUOUS
10
76.059
20
-98.4341
11
76.059
21
-99.7803
0
LINE
8
BLACK
6
CONTINUOUS
10
76.059
20
-102.498
11
76.059
21
-102.981
0
LINE
8
BLACK
6
CONTINUOUS
10
87.5569
20
-101.101
11
82.163
21
-101.101
0
LINE
8
BLACK
6
CONTINUOUS
10
74.1711
20
-99.7803
11
74.1711
21
-102.498
0
LINE
8
BLACK
6
CONTINUOUS
10
76.059
20
-102.981
11
76.7873
21
-102.981
0
LINE
8
BLACK
6
CONTINUOUS
10
89.4448
20
-99.8823
11
87.5569
21
-99.8823
0
LINE
8
BLACK
6
CONTINUOUS
10
87.5569
20
-97.1645
11
87.5569
21
-96.564
0
LINE
8
BLACK
6
CONTINUOUS
10
89.4448
20
-97.1645
11
87.5569
21
-97.1645
0
ARC
8
BLACK
10
82.1374
20
-103.369
40
2.26789
50
89.3556
51
170.156
0
ARC
8
BLACK
10
77.3464
20
-103.629
40
0.855913
50
-229.221
51
49.262
0
ARC
8
BLACK
10
77.9396
20
-98.4442
40
1.88064
50
88.7333
51
179.693
0
CIRCLE
8
BLACK
10
87.5061
20
-103.641
40
0.85
0
CIRCLE
8
BLACK
10
82.4261
20
-103.641
40
2
0
CIRCLE
8
BLACK
10
192.391
20
-111.825
40
1.35
0
LINE
8
BLACK
6
CONTINUOUS
10
204.749
20
-85.9952
11
197.449
21
-85.9952
0
LINE
8
BLACK
6
CONTINUOUS
10
197.449
20
-85.9952
11
197.449
21
-91.4952
0
LINE
8
BLACK
6
CONTINUOUS
10
197.449
20
-91.4952
11
204.749
21
-91.4952
0
LINE
8
BLACK
6
CONTINUOUS
10
204.749
20
-91.4952
11
204.749
21
-85.9952
0
LINE
8
BLACK
6
CONTINUOUS
10
258.289
20
-105.953
11
258.289
21
-104.553
0
LINE
8
BLACK
6
CONTINUOUS
10
260.289
20
-104.553
11
260.289
21
-105.953
0
LINE
8
BLACK
6
CONTINUOUS
10
259.589
20
-106.653
11
258.989
21
-106.653
0
LINE
8
BLACK
6
CONTINUOUS
10
258.989
20
-103.853
11
259.589
21
-103.853
0
ARC
8
BLACK
10
259.589
20
-105.953
40
0.7
50
-90
51
-0
0
ARC
8
BLACK
10
258.989
20
-104.553
40
0.699999
50
-270
51
-180
0
ARC
8
BLACK
10
258.989
20
-105.953
40
0.7
50
-180
51
-90
0
ARC
8
BLACK
10
259.589
20
-104.553
40
0.699999
50
-8.18512e-05
51
90.0001
0
LINE
8
BLACK
6
CONTINUOUS
10
242.571
20
-85.1011
11
237.177
21
-85.1011
0
LINE
8
BLACK
6
CONTINUOUS
10
244.459
20
-81.1645
11
242.571
21
-81.1645
0
LINE
8
BLACK
6
CONTINUOUS
10
231.073
20
-82.4341
11
231.073
21
-83.7803
0
LINE
8
BLACK
6
CONTINUOUS
10
232.919
20
-86.9807
11
234.917
21
-86.9811
0
LINE
8
BLACK
6
CONTINUOUS
10
242.571
20
-81.1645
11
242.571
21
-80.564
0
LINE
8
BLACK
6
CONTINUOUS
10
244.459
20
-83.8823
11
242.571
21
-83.8823
0
LINE
8
BLACK
6
CONTINUOUS
10
229.186
20
-83.7803
11
229.186
21
-86.4981
0
LINE
8
BLACK
6
CONTINUOUS
10
242.571
20
-80.564
11
232.996
21
-80.564
0
LINE
8
BLACK
6
CONTINUOUS
10
229.186
20
-86.4981
11
231.073
21
-86.4981
0
LINE
8
BLACK
6
CONTINUOUS
10
229.186
20
-83.7803
11
231.073
21
-83.7803
0
LINE
8
BLACK
6
CONTINUOUS
10
231.073
20
-86.4981
11
231.073
21
-86.9811
0
LINE
8
BLACK
6
CONTINUOUS
10
242.571
20
-85.1011
11
242.571
21
-83.8823
0
LINE
8
BLACK
6
CONTINUOUS
10
244.459
20
-83.8823
11
244.459
21
-81.1645
0
LINE
8
BLACK
6
CONTINUOUS
10
231.073
20
-86.9811
11
231.802
21
-86.9811
0
ARC
8
BLACK
10
237.152
20
-87.3688
40
2.26789
50
89.3556
51
170.156
0
ARC
8
BLACK
10
232.361
20
-87.6292
40
0.855913
50
-229.221
51
49.262
0
ARC
8
BLACK
10
232.954
20
-82.4442
40
1.88064
50
88.7333
51
179.693
0
CIRCLE
8
BLACK
10
237.441
20
-87.6411
40
2
0
CIRCLE
8
BLACK
10
242.521
20
-87.6411
40
0.85
0
LINE
8
BLACK
6
CONTINUOUS
10
58.9052
20
-105.981
11
60.9033
21
-105.981
0
LINE
8
BLACK
6
CONTINUOUS
10
57.0593
20
-105.981
11
57.7876
21
-105.981
0
LINE
8
BLACK
6
CONTINUOUS
10
70.4451
20
-100.164
11
68.5572
21
-100.164
0
LINE
8
BLACK
6
CONTINUOUS
10
57.0593
20
-105.498
11
57.0593
21
-105.981
0
LINE
8
BLACK
6
CONTINUOUS
10
55.1714
20
-105.498
11
57.0593
21
-105.498
0
LINE
8
BLACK
6
CONTINUOUS
10
68.5572
20
-100.164
11
68.5572
21
-99.564
0
LINE
8
BLACK
6
CONTINUOUS
10
68.5572
20
-104.101
11
63.1633
21
-104.101
0
LINE
8
BLACK
6
CONTINUOUS
10
55.1714
20
-102.78
11
55.1714
21
-105.498
0
LINE
8
BLACK
6
CONTINUOUS
10
55.1714
20
-102.78
11
57.0593
21
-102.78
0
LINE
8
BLACK
6
CONTINUOUS
10
70.4451
20
-102.882
11
68.5572
21
-102.882
0
LINE
8
BLACK
6
CONTINUOUS
10
57.0593
20
-101.434
11
57.0593
21
-102.78
0
LINE
8
BLACK
6
CONTINUOUS
10
70.4451
20
-102.882
11
70.4451
21
-100.164
0
LINE
8
BLACK
6
CONTINUOUS
10
68.5572
20
-104.101
11
68.5572
21
-102.882
0
LINE
8
BLACK
6
CONTINUOUS
10
68.5572
20
-99.564
11
58.9814
21
-99.564
0
ARC
8
BLACK
10
63.1377
20
-106.369
40
2.26789
50
89.3556
51
170.156
0
ARC
8
BLACK
10
58.3467
20
-106.629
40
0.855913
50
-229.221
51
49.262
0
ARC
8
BLACK
10
58.9399
20
-101.444
40
1.88064
50
88.7333
51
179.693
0
CIRCLE
8
BLACK
10
63.4264
20
-106.641
40
2
0
CIRCLE
8
BLACK
10
68.5064
20
-106.641
40
0.85
0
LINE
8
BLACK
6
CONTINUOUS
10
191.186
20
-57.9697
11
191.186
21
-60.6875
0
LINE
8
BLACK
6
CONTINUOUS
10
206.459
20
-58.0717
11
204.572
21
-58.0717
0
LINE
8
BLACK
6
CONTINUOUS
10
193.074
20
-61.1705
11
193.802
21
-61.1705
0
LINE
8
BLACK
6
CONTINUOUS
10
194.92
20
-61.1701
11
196.918
21
-61.1705
0
LINE
8
BLACK
6
CONTINUOUS
10
204.572
20
-59.2905
11
199.178
21
-59.2905
0
LINE
8
BLACK
6
CONTINUOUS
10
204.572
20
-54.7534
11
194.996
21
-54.7534
0
LINE
8
BLACK
6
CONTINUOUS
10
191.186
20
-57.9697
11
193.074
21
-57.9697
0
LINE
8
BLACK
6
CONTINUOUS
10
191.186
20
-60.6875
11
193.074
21
-60.6875
0
LINE
8
BLACK
6
CONTINUOUS
10
204.572
20
-59.2905
11
204.572
21
-58.0717
0
LINE
8
BLACK
6
CONTINUOUS
10
193.074
20
-56.6235
11
193.074
21
-57.9697
0
LINE
8
BLACK
6
CONTINUOUS
10
206.459
20
-58.0717
11
206.459
21
-55.3539
0
LINE
8
BLACK
6
CONTINUOUS
10
206.459
20
-55.3539
11
204.572
21
-55.3539
0
LINE
8
BLACK
6
CONTINUOUS
10
193.074
20
-60.6875
11
193.074
21
-61.1705
0
LINE
8
BLACK
6
CONTINUOUS
10
204.572
20
-55.3539
11
204.572
21
-54.7534
0
ARC
8
BLACK
10
194.361
20
-61.8186
40
0.855913
50
-229.221
51
49.262
0
ARC
8
BLACK
10
194.954
20
-56.6336
40
1.88064
50
88.7333
51
179.693
0
ARC
8
BLACK
10
199.152
20
-61.5583
40
2.26789
50
89.3556
51
170.156
0
CIRCLE
8
BLACK
10
204.521
20
-61.8305
40
0.85
0
CIRCLE
8
BLACK
10
199.441
20
-61.8305
40
2
0
CIRCLE
8
BLACK
10
175.59
20
-124.923
40
1.6
0
CIRCLE
8
BLACK
10
169.291
20
-56.5108
40
1.6
0
LINE
8
BLACK
6
CONTINUOUS
10
93.1713
20
-57.9697
11
95.0592
21
-57.9697
0
LINE
8
BLACK
6
CONTINUOUS
10
106.557
20
-59.2905
11
106.557
21
-58.0717
0
LINE
8
BLACK
6
CONTINUOUS
10
95.0592
20
-61.1705
11
95.7875
21
-61.1705
0
LINE
8
BLACK
6
CONTINUOUS
10
108.445
20
-58.0717
11
108.445
21
-55.3539
0
LINE
8
BLACK
6
CONTINUOUS
10
95.0592
20
-56.6235
11
95.0592
21
-57.9697
0
LINE
8
BLACK
6
CONTINUOUS
10
96.9051
20
-61.1701
11
98.9031
21
-61.1705
0
LINE
8
BLACK
6
CONTINUOUS
10
93.1713
20
-60.6875
11
95.0592
21
-60.6875
0
LINE
8
BLACK
6
CONTINUOUS
10
106.557
20
-59.2905
11
101.163
21
-59.2905
0
LINE
8
BLACK
6
CONTINUOUS
10
108.445
20
-58.0717
11
106.557
21
-58.0717
0
LINE
8
BLACK
6
CONTINUOUS
10
108.445
20
-55.3539
11
106.557
21
-55.3539
0
LINE
8
BLACK
6
CONTINUOUS
10
93.1713
20
-57.9697
11
93.1713
21
-60.6875
0
LINE
8
BLACK
6
CONTINUOUS
10
95.0592
20
-60.6875
11
95.0592
21
-61.1705
0
LINE
8
BLACK
6
CONTINUOUS
10
106.557
20
-54.7534
11
96.9813
21
-54.7534
0
LINE
8
BLACK
6
CONTINUOUS
10
106.557
20
-55.3539
11
106.557
21
-54.7534
0
ARC
8
BLACK
10
96.3466
20
-61.8186
40
0.855913
50
-229.221
51
49.262
0
ARC
8
BLACK
10
96.9398
20
-56.6336
40
1.88064
50
88.7333
51
179.693
0
ARC
8
BLACK
10
101.138
20
-61.5583
40
2.26789
50
89.3556
51
170.156
0
CIRCLE
8
BLACK
10
101.426
20
-61.8305
40
2
0
CIRCLE
8
BLACK
10
106.506
20
-61.8305
40
0.85
0
LINE
8
BLACK
6
CONTINUOUS
10
193.074
20
-75.6235
11
193.074
21
-76.9697
0
LINE
8
BLACK
6
CONTINUOUS
10
191.186
20
-76.9697
11
191.186
21
-79.6875
0
LINE
8
BLACK
6
CONTINUOUS
10
204.572
20
-78.2905
11
204.572
21
-77.0717
0
LINE
8
BLACK
6
CONTINUOUS
10
206.459
20
-77.0717
11
206.459
21
-74.3539
0
LINE
8
BLACK
6
CONTINUOUS
10
193.074
20
-80.1705
11
193.802
21
-80.1705
0
LINE
8
BLACK
6
CONTINUOUS
10
204.572
20
-73.7534
11
194.996
21
-73.7534
0
LINE
8
BLACK
6
CONTINUOUS
10
204.572
20
-78.2905
11
199.178
21
-78.2905
0
LINE
8
BLACK
6
CONTINUOUS
10
191.186
20
-76.9697
11
193.074
21
-76.9697
0
LINE
8
BLACK
6
CONTINUOUS
10
194.92
20
-80.1701
11
196.918
21
-80.1705
0
LINE
8
BLACK
6
CONTINUOUS
10
204.572
20
-74.3539
11
204.572
21
-73.7534
0
LINE
8
BLACK
6
CONTINUOUS
10
206.459
20
-77.0717
11
204.572
21
-77.0717
0
LINE
8
BLACK
6
CONTINUOUS
10
191.186
20
-79.6875
11
193.074
21
-79.6875
0
LINE
8
BLACK
6
CONTINUOUS
10
193.074
20
-79.6875
11
193.074
21
-80.1705
0
LINE
8
BLACK
6
CONTINUOUS
10
206.459
20
-74.3539
11
204.572
21
-74.3539
0
ARC
8
BLACK
10
194.954
20
-75.6336
40
1.88064
50
88.7333
51
179.693
0
ARC
8
BLACK
10
199.152
20
-80.5582
40
2.26789
50
89.3556
51
170.156
0
ARC
8
BLACK
10
194.361
20
-80.8186
40
0.855913
50
-229.221
51
49.262
0
CIRCLE
8
BLACK
10
204.521
20
-80.8305
40
0.85
0
CIRCLE
8
BLACK
10
199.441
20
-80.8305
40
2
0
LINE
8
BLACK
6
CONTINUOUS
10
257.749
20
-104.553
11
257.749
21
-105.953
0
LINE
8
BLACK
6
CONTINUOUS
10
256.449
20
-103.853
11
257.049
21
-103.853
0
LINE
8
BLACK
6
CONTINUOUS
10
255.749
20
-105.953
11
255.749
21
-104.553
0
LINE
8
BLACK
6
CONTINUOUS
10
257.049
20
-106.653
11
256.449
21
-106.653
0
ARC
8
BLACK
10
257.049
20
-105.953
40
0.7
50
-90
51
-0
0
ARC
8
BLACK
10
257.049
20
-104.553
40
0.699999
50
-8.18512e-05
51
90.0001
0
ARC
8
BLACK
10
256.449
20
-105.953
40
0.7
50
-180
51
-90
0
ARC
8
BLACK
10
256.449
20
-104.553
40
0.699999
50
-270
51
-180
0
LINE
8
BLACK
6
CONTINUOUS
10
95.0592
20
-80.1705
11
95.7875
21
-80.1705
0
LINE
8
BLACK
6
CONTINUOUS
10
106.557
20
-78.2905
11
101.163
21
-78.2905
0
LINE
8
BLACK
6
CONTINUOUS
10
108.445
20
-77.0717
11
106.557
21
-77.0717
0
LINE
8
BLACK
6
CONTINUOUS
10
96.9051
20
-80.1701
11
98.9031
21
-80.1705
0
LINE
8
BLACK
6
CONTINUOUS
10
106.557
20
-78.2905
11
106.557
21
-77.0717
0
LINE
8
BLACK
6
CONTINUOUS
10
95.0592
20
-79.6875
11
95.0592
21
-80.1705
0
LINE
8
BLACK
6
CONTINUOUS
10
93.1713
20
-79.6875
11
95.0592
21
-79.6875
0
LINE
8
BLACK
6
CONTINUOUS
10
108.445
20
-74.3539
11
106.557
21
-74.3539
0
LINE
8
BLACK
6
CONTINUOUS
10
106.557
20
-73.7534
11
96.9813
21
-73.7534
0
LINE
8
BLACK
6
CONTINUOUS
10
93.1713
20
-76.9697
11
95.0592
21
-76.9697
0
LINE
8
BLACK
6
CONTINUOUS
10
106.557
20
-74.3539
11
106.557
21
-73.7534
0
LINE
8
BLACK
6
CONTINUOUS
10
95.0592
20
-75.6235
11
95.0592
21
-76.9697
0
LINE
8
BLACK
6
CONTINUOUS
10
93.1713
20
-76.9697
11
93.1713
21
-79.6875
0
LINE
8
BLACK
6
CONTINUOUS
10
108.445
20
-77.0717
11
108.445
21
-74.3539
0
ARC
8
BLACK
10
101.138
20
-80.5582
40
2.26789
50
89.3556
51
170.156
0
ARC
8
BLACK
10
96.3466
20
-80.8186
40
0.855913
50
-229.221
51
49.262
0
ARC
8
BLACK
10
96.9398
20
-75.6336
40
1.88064
50
88.7333
51
179.693
0
CIRCLE
8
BLACK
10
101.426
20
-80.8305
40
2
0
CIRCLE
8
BLACK
10
106.506
20
-80.8305
40
0.85
0
LINE
8
BLACK
6
CONTINUOUS
10
166.572
20
-98.5636
11
156.996
21
-98.5636
0
LINE
8
BLACK
6
CONTINUOUS
10
153.186
20
-104.498
11
155.074
21
-104.498
0
LINE
8
BLACK
6
CONTINUOUS
10
168.46
20
-101.882
11
166.572
21
-101.882
0
LINE
8
BLACK
6
CONTINUOUS
10
153.186
20
-101.78
11
155.074
21
-101.78
0
LINE
8
BLACK
6
CONTINUOUS
10
155.074
20
-104.498
11
155.074
21
-104.981
0
LINE
8
BLACK
6
CONTINUOUS
10
155.074
20
-104.981
11
155.802
21
-104.981
0
LINE
8
BLACK
6
CONTINUOUS
10
166.572
20
-103.101
11
161.178
21
-103.101
0
LINE
8
BLACK
6
CONTINUOUS
10
166.572
20
-103.101
11
166.572
21
-101.882
0
LINE
8
BLACK
6
CONTINUOUS
10
156.92
20
-104.98
11
158.918
21
-104.981
0
LINE
8
BLACK
6
CONTINUOUS
10
155.074
20
-100.434
11
155.074
21
-101.78
0
LINE
8
BLACK
6
CONTINUOUS
10
168.46
20
-99.1641
11
166.572
21
-99.1641
0
LINE
8
BLACK
6
CONTINUOUS
10
166.572
20
-99.1641
11
166.572
21
-98.5636
0
LINE
8
BLACK
6
CONTINUOUS
10
168.46
20
-101.882
11
168.46
21
-99.1641
0
LINE
8
BLACK
6
CONTINUOUS
10
153.186
20
-101.78
11
153.186
21
-104.498
0
ARC
8
BLACK
10
161.152
20
-105.368
40
2.26789
50
89.3556
51
170.156
0
ARC
8
BLACK
10
156.361
20
-105.629
40
0.855913
50
-229.221
51
49.262
0
ARC
8
BLACK
10
156.955
20
-100.444
40
1.88064
50
88.7333
51
179.693
0
CIRCLE
8
BLACK
10
166.521
20
-105.641
40
0.85
0
CIRCLE
8
BLACK
10
161.441
20
-105.641
40
2
0
CIRCLE
8
BLACK
10
94.3841
20
-111.826
40
1.35
0
LINE
8
BLACK
6
CONTINUOUS
10
56.5691
20
-67.9682
11
54.6895
21
-67.9682
0
LINE
8
BLACK
6
CONTINUOUS
10
54.6895
20
-67.9682
11
54.6895
21
-73.0736
0
LINE
8
BLACK
6
CONTINUOUS
10
54.6895
20
-73.0736
11
56.5691
21
-73.0736
0
LINE
8
BLACK
6
CONTINUOUS
10
56.5691
20
-73.0736
11
56.5691
21
-67.9682
0
LINE
8
BLACK
6
CONTINUOUS
10
41.7655
20
-84.7855
11
42.3655
21
-84.7855
0
LINE
8
BLACK
6
CONTINUOUS
10
41.0655
20
-82.6855
11
41.0655
21
-84.0855
0
LINE
8
BLACK
6
CONTINUOUS
10
42.3655
20
-81.9855
11
41.7655
21
-81.9855
0
LINE
8
BLACK
6
CONTINUOUS
10
43.0655
20
-84.0855
11
43.0655
21
-82.6855
0
ARC
8
BLACK
10
41.7655
20
-84.0855
40
0.699999
50
-180
51
-89.9999
0
ARC
8
BLACK
10
42.3655
20
-82.6855
40
0.7
50
-0
51
90
0
ARC
8
BLACK
10
42.3655
20
-84.0855
40
0.699999
50
-90.0001
51
8.18512e-05
0
ARC
8
BLACK
10
41.7655
20
-82.6855
40
0.7
50
90
51
180
0
LINE
8
BLACK
6
CONTINUOUS
10
75.5689
20
-64.9673
11
73.6893
21
-64.9673
0
LINE
8
BLACK
6
CONTINUOUS
10
73.6893
20
-64.9673
11
73.6893
21
-70.0727
0
LINE
8
BLACK
6
CONTINUOUS
10
73.6893
20
-70.0727
11
75.5689
21
-70.0727
0
LINE
8
BLACK
6
CONTINUOUS
10
75.5689
20
-70.0727
11
75.5689
21
-64.9673
0
LINE
8
BLACK
6
CONTINUOUS
10
120.955
20
-90.7958
11
128.255
21
-90.7958
0
LINE
8
BLACK
6
CONTINUOUS
10
128.255
20
-90.7958
11
128.255
21
-96.2958
0
LINE
8
BLACK
6
CONTINUOUS
10
128.255
20
-96.2958
11
120.955
21
-96.2958
0
LINE
8
BLACK
6
CONTINUOUS
10
120.955
20
-96.2958
11
120.955
21
-90.7958
0
LINE
8
BLACK
6
CONTINUOUS
10
132.569
20
-104.967
11
130.689
21
-104.967
0
LINE
8
BLACK
6
CONTINUOUS
10
130.689
20
-104.967
11
130.689
21
-110.073
0
LINE
8
BLACK
6
CONTINUOUS
10
130.689
20
-110.073
11
132.569
21
-110.073
0
LINE
8
BLACK
6
CONTINUOUS
10
132.569
20
-110.073
11
132.569
21
-104.967
0
LINE
8
BLACK
6
CONTINUOUS
10
58.6191
20
-121.7
11
60.4987
21
-121.7
0
LINE
8
BLACK
6
CONTINUOUS
10
60.4987
20
-121.7
11
60.4987
21
-116.594
0
LINE
8
BLACK
6
CONTINUOUS
10
60.4987
20
-116.594
11
58.6191
21
-116.594
0
LINE
8
BLACK
6
CONTINUOUS
10
58.6191
20
-116.594
11
58.6191
21
-121.7
0
LINE
8
BLACK
6
CONTINUOUS
10
55.9605
20
-121.7
11
57.8401
21
-121.7
0
LINE
8
BLACK
6
CONTINUOUS
10
57.8401
20
-121.7
11
57.8401
21
-116.594
0
LINE
8
BLACK
6
CONTINUOUS
10
57.8401
20
-116.594
11
55.9605
21
-116.594
0
LINE
8
BLACK
6
CONTINUOUS
10
55.9605
20
-116.594
11
55.9605
21
-121.7
0
LINE
8
BLACK
6
CONTINUOUS
10
113.569
20
-102.967
11
111.689
21
-102.967
0
LINE
8
BLACK
6
CONTINUOUS
10
111.689
20
-102.967
11
111.689
21
-108.072
0
LINE
8
BLACK
6
CONTINUOUS
10
111.689
20
-108.072
11
113.569
21
-108.072
0
LINE
8
BLACK
6
CONTINUOUS
10
113.569
20
-108.072
11
113.569
21
-102.967
0
LINE
8
BLACK
6
CONTINUOUS
10
48.2453
20
-108.927
11
53.7453
21
-108.927
0
LINE
8
BLACK
6
CONTINUOUS
10
53.7453
20
-108.927
11
53.7453
21
-101.627
0
LINE
8
BLACK
6
CONTINUOUS
10
53.7453
20
-101.627
11
48.2453
21
-101.627
0
LINE
8
BLACK
6
CONTINUOUS
10
48.2453
20
-101.627
11
48.2453
21
-108.927
0
CIRCLE
8
BLACK
10
50.5501
20
-116.307
40
2.15
0
CIRCLE
8
BLACK
10
125.277
20
-124.923
40
1.6
0
LINE
8
BLACK
6
CONTINUOUS
10
42.5784
20
-105.953
11
42.5784
21
-104.553
0
LINE
8
BLACK
6
CONTINUOUS
10
41.2784
20
-106.653
11
41.8784
21
-106.653
0
LINE
8
BLACK
6
CONTINUOUS
10
40.5784
20
-104.553
11
40.5784
21
-105.953
0
LINE
8
BLACK
6
CONTINUOUS
10
41.8784
20
-103.853
11
41.2784
21
-103.853
0
ARC
8
BLACK
10
41.2784
20
-104.553
40
0.699999
50
-270
51
-180
0
ARC
8
BLACK
10
41.2784
20
-105.953
40
0.7
50
-180
51
-90
0
ARC
8
BLACK
10
41.8784
20
-105.953
40
0.7
50
-90
51
-0
0
ARC
8
BLACK
10
41.8784
20
-104.553
40
0.699999
50
-8.18512e-05
51
90.0001
0
LINE
8
BLACK
6
CONTINUOUS
10
94.5691
20
-80.1571
11
92.6895
21
-80.1571
0
LINE
8
BLACK
6
CONTINUOUS
10
92.6895
20
-80.1571
11
92.6895
21
-85.2625
0
LINE
8
BLACK
6
CONTINUOUS
10
92.6895
20
-85.2625
11
94.5691
21
-85.2625
0
LINE
8
BLACK
6
CONTINUOUS
10
94.5691
20
-85.2625
11
94.5691
21
-80.1571
0
LINE
8
BLACK
6
CONTINUOUS
10
97.1185
20
-125.839
11
92.0131
21
-125.839
0
LINE
8
BLACK
6
CONTINUOUS
10
92.0131
20
-125.839
11
92.0131
21
-123.959
0
LINE
8
BLACK
6
CONTINUOUS
10
92.0131
20
-123.959
11
97.1185
21
-123.959
0
LINE
8
BLACK
6
CONTINUOUS
10
97.1185
20
-123.959
11
97.1185
21
-125.839
0
LINE
8
BLACK
6
CONTINUOUS
10
94.5691
20
-61.1571
11
92.6895
21
-61.1571
0
LINE
8
BLACK
6
CONTINUOUS
10
92.6895
20
-61.1571
11
92.6895
21
-66.2625
0
LINE
8
BLACK
6
CONTINUOUS
10
92.6895
20
-66.2625
11
94.5691
21
-66.2625
0
LINE
8
BLACK
6
CONTINUOUS
10
94.5691
20
-66.2625
11
94.5691
21
-61.1571
0
LINE
8
BLACK
6
CONTINUOUS
10
47.2174
20
-114.054
11
46.4046
21
-114.054
0
LINE
8
BLACK
6
CONTINUOUS
10
41.731
20
-113.953
11
40.9182
21
-113.953
0
LINE
8
BLACK
6
CONTINUOUS
10
38.7338
20
-109.863
11
37.921
21
-109.863
0
LINE
8
BLACK
6
CONTINUOUS
10
41.731
20
-115.807
11
40.9182
21
-115.807
0
LINE
8
BLACK
6
CONTINUOUS
10
45.7188
20
-113.953
11
44.906
21
-113.953
0
LINE
8
BLACK
6
CONTINUOUS
10
45.7188
20
-108.009
11
44.906
21
-108.009
0
LINE
8
BLACK
6
CONTINUOUS
10
38.7338
20
-113.953
11
37.921
21
-113.953
0
LINE
8
BLACK
6
CONTINUOUS
10
45.7188
20
-109.863
11
44.906
21
-109.863
0
LINE
8
BLACK
6
CONTINUOUS
10
41.731
20
-108.009
11
40.9182
21
-108.009
0
LINE
8
BLACK
6
CONTINUOUS
10
38.7338
20
-115.807
11
37.921
21
-115.807
0
LINE
8
BLACK
6
CONTINUOUS
10
47.2174
20
-112.2
11
46.4046
21
-112.2
0
LINE
8
BLACK
6
CONTINUOUS
10
45.7188
20
-115.807
11
44.906
21
-115.807
0
LINE
8
BLACK
6
CONTINUOUS
10
47.2174
20
-111.616
11
46.4046
21
-111.616
0
LINE
8
BLACK
6
CONTINUOUS
10
47.2174
20
-109.762
11
46.4046
21
-109.762
0
LINE
8
BLACK
6
CONTINUOUS
10
41.731
20
-109.863
11
40.9182
21
-109.863
0
LINE
8
BLACK
6
CONTINUOUS
10
38.7338
20
-108.009
11
37.921
21
-108.009
0
ARC
8
BLACK
10
38.7338
20
-114.88
40
0.9271
50
-90
51
90
0
ARC
8
BLACK
10
38.7338
20
-108.936
40
0.9271
50
-90
51
90
0
ARC
8
BLACK
10
45.7188
20
-114.88
40
0.9271
50
-90
51
90
0
ARC
8
BLACK
10
37.921
20
-114.88
40
0.9271
50
-270
51
-90
0
ARC
8
BLACK
10
41.731
20
-114.88
40
0.9271
50
-90
51
90
0
ARC
8
BLACK
10
37.921
20
-108.936
40
0.9271
50
-270
51
-90
0
ARC
8
BLACK
10
47.2174
20
-110.689
40
0.9271
50
-90
51
90
0
ARC
8
BLACK
10
41.731
20
-108.936
40
0.9271
50
-90
51
90
0
ARC
8
BLACK
10
47.2174
20
-113.127
40
0.9271
50
-90
51
90
0
ARC
8
BLACK
10
46.4046
20
-110.689
40
0.9271
50
-270
51
-90
0
ARC
8
BLACK
10
44.906
20
-108.936
40
0.9271
50
-270
51
-90
0
ARC
8
BLACK
10
46.4046
20
-113.127
40
0.9271
50
-270
51
-90
0
ARC
8
BLACK
10
45.7188
20
-108.936
40
0.9271
50
-90
51
90
0
ARC
8
BLACK
10
44.906
20
-114.88
40
0.9271
50
-270
51
-90
0
ARC
8
BLACK
10
40.9182
20
-114.88
40
0.9271
50
-270
51
-90
0
ARC
8
BLACK
10
40.9182
20
-108.936
40
0.9271
50
-270
51
-90
0
LINE
8
BLACK
6
CONTINUOUS
10
113.569
20
-64.9679
11
111.689
21
-64.9679
0
LINE
8
BLACK
6
CONTINUOUS
10
111.689
20
-64.9679
11
111.689
21
-70.0733
0
LINE
8
BLACK
6
CONTINUOUS
10
111.689
20
-70.0733
11
113.569
21
-70.0733
0
LINE
8
BLACK
6
CONTINUOUS
10
113.569
20
-70.0733
11
113.569
21
-64.9679
0
LINE
8
BLACK
6
CONTINUOUS
10
47.6584
20
-105.953
11
47.6584
21
-104.553
0
LINE
8
BLACK
6
CONTINUOUS
10
45.6584
20
-104.553
11
45.6584
21
-105.953
0
LINE
8
BLACK
6
CONTINUOUS
10
46.3584
20
-106.653
11
46.9584
21
-106.653
0
LINE
8
BLACK
6
CONTINUOUS
10
46.9584
20
-103.853
11
46.3584
21
-103.853
0
ARC
8
BLACK
10
46.9584
20
-104.553
40
0.699999
50
-8.18512e-05
51
90.0001
0
ARC
8
BLACK
10
46.3584
20
-105.953
40
0.7
50
-180
51
-90
0
ARC
8
BLACK
10
46.3584
20
-104.553
40
0.699999
50
-270
51
-180
0
ARC
8
BLACK
10
46.9584
20
-105.953
40
0.7
50
-90
51
-0
0
LINE
8
BLACK
6
CONTINUOUS
10
96.1181
20
-85.9952
11
103.418
21
-85.9952
0
LINE
8
BLACK
6
CONTINUOUS
10
103.418
20
-85.9952
11
103.418
21
-91.4952
0
LINE
8
BLACK
6
CONTINUOUS
10
103.418
20
-91.4952
11
96.1181
21
-91.4952
0
LINE
8
BLACK
6
CONTINUOUS
10
96.1181
20
-91.4952
11
96.1181
21
-85.9952
0
LINE
8
BLACK
6
CONTINUOUS
10
61.2778
20
-121.7
11
63.1574
21
-121.7
0
LINE
8
BLACK
6
CONTINUOUS
10
63.1574
20
-121.7
11
63.1574
21
-116.594
0
LINE
8
BLACK
6
CONTINUOUS
10
63.1574
20
-116.594
11
61.2778
21
-116.594
0
LINE
8
BLACK
6
CONTINUOUS
10
61.2778
20
-116.594
11
61.2778
21
-121.7
0
LINE
8
BLACK
6
CONTINUOUS
10
132.569
20
-66.9665
11
130.689
21
-66.9665
0
LINE
8
BLACK
6
CONTINUOUS
10
130.689
20
-66.9665
11
130.689
21
-72.0719
0
LINE
8
BLACK
6
CONTINUOUS
10
130.689
20
-72.0719
11
132.569
21
-72.0719
0
LINE
8
BLACK
6
CONTINUOUS
10
132.569
20
-72.0719
11
132.569
21
-66.9665
0
CIRCLE
8
BLACK
10
71.2249
20
-57.4526
40
1.6
0
LINE
8
BLACK
6
CONTINUOUS
10
119.47
20
-121.188
11
116.752
21
-121.188
0
LINE
8
BLACK
6
CONTINUOUS
10
116.752
20
-121.188
11
116.752
21
-122.001
0
LINE
8
BLACK
6
CONTINUOUS
10
116.752
20
-122.001
11
113.501
21
-122.001
0
LINE
8
BLACK
6
CONTINUOUS
10
113.501
20
-122.001
11
113.501
21
-121.188
0
LINE
8
BLACK
6
CONTINUOUS
10
113.501
20
-121.188
11
110.758
21
-121.188
0
LINE
8
BLACK
6
CONTINUOUS
10
110.758
20
-121.188
11
110.758
21
-115.651
0
LINE
8
BLACK
6
CONTINUOUS
10
110.758
20
-115.651
11
119.47
21
-115.651
0
LINE
8
BLACK
6
CONTINUOUS
10
119.47
20
-115.651
11
119.47
21
-121.188
0
LINE
8
BLACK
6
CONTINUOUS
10
71.2817
20
-89.9858
11
78.5817
21
-89.9858
0
LINE
8
BLACK
6
CONTINUOUS
10
78.5817
20
-89.9858
11
78.5817
21
-95.4858
0
LINE
8
BLACK
6
CONTINUOUS
10
78.5817
20
-95.4858
11
71.2817
21
-95.4858
0
LINE
8
BLACK
6
CONTINUOUS
10
71.2817
20
-95.4858
11
71.2817
21
-89.9858
0
CIRCLE
8
BLACK
10
131.576
20
-56.5108
40
1.6
0
CIRCLE
8
BLACK
10
39.0384
20
-102.118
40
0.9
0
CIRCLE
8
BLACK
10
46.6584
20
-102.118
40
0.9
0
CIRCLE
8
BLACK
10
44.1184
20
-102.118
40
0.9
0
CIRCLE
8
BLACK
10
41.5784
20
-102.118
40
0.9
0
LINE
8
BLACK
6
CONTINUOUS
10
113.569
20
-83.9675
11
111.689
21
-83.9675
0
LINE
8
BLACK
6
CONTINUOUS
10
111.689
20
-83.9675
11
111.689
21
-89.0729
0
LINE
8
BLACK
6
CONTINUOUS
10
111.689
20
-89.0729
11
113.569
21
-89.0729
0
LINE
8
BLACK
6
CONTINUOUS
10
113.569
20
-89.0729
11
113.569
21
-83.9675
0
CIRCLE
8
BLACK
10
110.876
20
-129.715
40
1.35
0
CIRCLE
8
BLACK
10
108.476
20
-111.825
40
1.35
0
CIRCLE
8
BLACK
10
45.0891
20
-144.907
40
1.6
0
LINE
8
BLACK
6
CONTINUOUS
10
38.7384
20
-106.653
11
39.3384
21
-106.653
0
LINE
8
BLACK
6
CONTINUOUS
10
38.0384
20
-104.553
11
38.0384
21
-105.953
0
LINE
8
BLACK
6
CONTINUOUS
10
39.3384
20
-103.853
11
38.7384
21
-103.853
0
LINE
8
BLACK
6
CONTINUOUS
10
40.0384
20
-105.953
11
40.0384
21
-104.553
0
ARC
8
BLACK
10
39.3384
20
-104.553
40
0.699999
50
-8.18512e-05
51
90.0001
0
ARC
8
BLACK
10
38.7384
20
-104.553
40
0.699999
50
-270
51
-180
0
ARC
8
BLACK
10
38.7384
20
-105.953
40
0.7
50
-180
51
-90
0
ARC
8
BLACK
10
39.3384
20
-105.953
40
0.7
50
-90
51
-0
0
LINE
8
BLACK
6
CONTINUOUS
10
94.5691
20
-99.1573
11
92.6895
21
-99.1573
0
LINE
8
BLACK
6
CONTINUOUS
10
92.6895
20
-99.1573
11
92.6895
21
-104.263
0
LINE
8
BLACK
6
CONTINUOUS
10
92.6895
20
-104.263
11
94.5691
21
-104.263
0
LINE
8
BLACK
6
CONTINUOUS
10
94.5691
20
-104.263
11
94.5691
21
-99.1573
0
LINE
8
BLACK
6
CONTINUOUS
10
45.5218
20
-84.0855
11
45.5218
21
-82.6855
0
LINE
8
BLACK
6
CONTINUOUS
10
44.8218
20
-81.9855
11
44.2218
21
-81.9855
0
LINE
8
BLACK
6
CONTINUOUS
10
43.5218
20
-82.6855
11
43.5218
21
-84.0855
0
LINE
8
BLACK
6
CONTINUOUS
10
44.2218
20
-84.7855
11
44.8218
21
-84.7855
0
ARC
8
BLACK
10
44.8218
20
-84.0855
40
0.699999
50
-90.0001
51
8.18512e-05
0
ARC
8
BLACK
10
44.2218
20
-82.6855
40
0.7
50
90
51
180
0
ARC
8
BLACK
10
44.2218
20
-84.0855
40
0.699999
50
-180
51
-89.9999
0
ARC
8
BLACK
10
44.8218
20
-82.6855
40
0.7
50
-0
51
90
0
LINE
8
BLACK
6
CONTINUOUS
10
132.569
20
-85.9669
11
130.689
21
-85.9669
0
LINE
8
BLACK
6
CONTINUOUS
10
130.689
20
-85.9669
11
130.689
21
-91.0723
0
LINE
8
BLACK
6
CONTINUOUS
10
130.689
20
-91.0723
11
132.569
21
-91.0723
0
LINE
8
BLACK
6
CONTINUOUS
10
132.569
20
-91.0723
11
132.569
21
-85.9669
0
LINE
8
BLACK
6
CONTINUOUS
10
267.208
20
-68.3661
11
262.382
21
-68.3661
0
LINE
8
BLACK
6
CONTINUOUS
10
262.382
20
-68.3661
11
262.382
21
-98.8461
0
LINE
8
BLACK
6
CONTINUOUS
10
262.382
20
-98.8461
11
267.208
21
-98.8461
0
LINE
8
BLACK
6
CONTINUOUS
10
267.208
20
-98.8461
11
267.208
21
-68.3661
0
LINE
8
BLACK
6
CONTINUOUS
10
253.746
20
-68.3661
11
248.92
21
-68.3661
0
LINE
8
BLACK
6
CONTINUOUS
10
248.92
20
-68.3661
11
248.92
21
-98.8461
0
LINE
8
BLACK
6
CONTINUOUS
10
248.92
20
-98.8461
11
253.746
21
-98.8461
0
LINE
8
BLACK
6
CONTINUOUS
10
253.746
20
-98.8461
11
253.746
21
-68.3661
0
CIRCLE
8
BLACK
10
91.9763
20
-129.716
40
1.35
0
LINE
8
BLACK
6
CONTINUOUS
10
75.5689
20
-83.9673
11
73.6893
21
-83.9673
0
LINE
8
BLACK
6
CONTINUOUS
10
73.6893
20
-83.9673
11
73.6893
21
-89.0727
0
LINE
8
BLACK
6
CONTINUOUS
10
73.6893
20
-89.0727
11
75.5689
21
-89.0727
0
LINE
8
BLACK
6
CONTINUOUS
10
75.5689
20
-89.0727
11
75.5689
21
-83.9673
0
LINE
8
BLACK
6
CONTINUOUS
10
41.07
20
-80.952
11
43.2036
21
-80.952
0
LINE
8
BLACK
6
CONTINUOUS
10
43.2036
20
-80.952
11
43.2036
21
-76.4816
0
LINE
8
BLACK
6
CONTINUOUS
10
43.2036
20
-76.4816
11
41.07
21
-76.4816
0
LINE
8
BLACK
6
CONTINUOUS
10
41.07
20
-76.4816
11
41.07
21
-80.952
0
LINE
8
BLACK
6
CONTINUOUS
10
56.5692
20
-86.9677
11
54.6896
21
-86.9677
0
LINE
8
BLACK
6
CONTINUOUS
10
54.6896
20
-86.9677
11
54.6896
21
-92.0731
0
LINE
8
BLACK
6
CONTINUOUS
10
54.6896
20
-92.0731
11
56.5692
21
-92.0731
0
LINE
8
BLACK
6
CONTINUOUS
10
56.5692
20
-92.0731
11
56.5692
21
-86.9677
0
CIRCLE
8
BLACK
10
87.0406
20
-124.923
40
1.6
0
LINE
8
BLACK
6
CONTINUOUS
10
45.1184
20
-105.953
11
45.1184
21
-104.553
0
LINE
8
BLACK
6
CONTINUOUS
10
43.8184
20
-106.653
11
44.4184
21
-106.653
0
LINE
8
BLACK
6
CONTINUOUS
10
43.1184
20
-104.553
11
43.1184
21
-105.953
0
LINE
8
BLACK
6
CONTINUOUS
10
44.4184
20
-103.853
11
43.8184
21
-103.853
0
ARC
8
BLACK
10
44.4184
20
-105.953
40
0.7
50
-90
51
-0
0
ARC
8
BLACK
10
44.4184
20
-104.553
40
0.699999
50
-8.18512e-05
51
90.0001
0
ARC
8
BLACK
10
43.8184
20
-105.953
40
0.7
50
-180
51
-90
0
ARC
8
BLACK
10
43.8184
20
-104.553
40
0.699999
50
-270
51
-180
0
CIRCLE
8
BLACK
10
36.3903
20
-120.066
40
2.15
0
CIRCLE
8
BLACK
10
74.6159
20
-114.891
40
1.6
0
CIRCLE
8
BLACK
10
128.273
20
-114.828
40
1.6
0
LINE
8
BLACK
6
CONTINUOUS
10
97.1185
20
-123.132
11
92.0131
21
-123.132
0
LINE
8
BLACK
6
CONTINUOUS
10
92.0131
20
-123.132
11
92.0131
21
-121.252
0
LINE
8
BLACK
6
CONTINUOUS
10
92.0131
20
-121.252
11
97.1185
21
-121.252
0
LINE
8
BLACK
6
CONTINUOUS
10
97.1185
20
-121.252
11
97.1185
21
-123.132
0
LINE
8
BLACK
6
CONTINUOUS
10
43.3951
20
-80.952
11
45.5287
21
-80.952
0
LINE
8
BLACK
6
CONTINUOUS
10
45.5287
20
-80.952
11
45.5287
21
-76.4816
0
LINE
8
BLACK
6
CONTINUOUS
10
45.5287
20
-76.4816
11
43.3951
21
-76.4816
0
LINE
8
BLACK
6
CONTINUOUS
10
43.3951
20
-76.4816
11
43.3951
21
-80.952
  0
ENDSEC
  0
EOF
