  0
SECTION
  2
HEADER
  9
$ANGBASE
  50
0.0
  9
$ANGDIR
  70
1
  9
$MEASUREMENT
  70
1
  0
ENDSEC
  0
SECTION
  2
TABLES
  0
TABLE
  2
LTYPE
  70
4
  0
LTYPE
  5
40F
  2
CONTINUOUS
  70
0
  3
Solid line
  72
65
  73
0
  40
0.0
  0
LTYPE
  5
410
  2
DASHDOT
 70
0
  3
Dash Dot ____ _ ____ _
 72
65
 73
4
 40
2.0
 49
1.25
 49
-0.25
 49
0.25
 49
-0.25
  0
LTYPE
  5
411
  2
DASHED
 70
0
  3
Dashed __ __ __ __ __
 72
65
 73
2
 40
0.75
 49
0.5
 49
-0.25
  0
LTYPE
  5
43B
  2
DOTTED
 70
0
  3
Dotted .  .  .  .
 72
65
 73
2
 40
0.2
 49
0.0
 49
-0.2
  0
ENDTAB
  0
TABLE
  2
STYLE
  70
4
  0
STYLE
  2
KICAD
  70
0
  40
0
  41
1
  42
1
  50
0
  71
0
  3
isocp.shx
  0
STYLE
  2
KICADB
  70
0
  40
0
  41
1
  42
1
  50
0
  71
0
  3
isocp.shx
  0
STYLE
  2
KICADI
  70
0
  40
0
  41
1
  42
1
  50
15
  71
0
  3
isocp.shx
  0
STYLE
  2
KICADBI
  70
0
  40
0
  41
1
  42
1
  50
15
  71
0
  3
isocp.shx
  0
ENDTAB
  0
TABLE
  2
LAYER
  70
1
  0
LAYER
  2
BLACK
  70
0
  62
7
  6
CONTINUOUS
  0
ENDTAB
  0
ENDSEC
  0
SECTION
  2
ENTITIES
0
ARC
8
BLACK
10
32.142
20
-139.728
40
1.56332
50
-164.982
51
-74.545
0
ARC
8
BLACK
10
154.044
20
-47.8103
40
1.32202
50
89.4043
51
178.795
0
ARC
8
BLACK
10
93.0738
20
-136.313
40
10.8784
50
89.1228
51
106.123
0
ARC
8
BLACK
10
153.949
20
-105.208
40
1.22763
50
-177.615
51
-94.4707
0
ARC
8
BLACK
10
138.055
20
-45.0881
40
1.40022
50
-179.918
51
-90.2611
0
LINE
8
BLACK
6
CONTINUOUS
10
179.598
20
-124.612
11
162.199
21
-107.145
0
ARC
8
BLACK
10
168.079
20
-42.4708
40
1.29009
50
-270.534
51
-176.958
0
LINE
8
BLACK
6
CONTINUOUS
10
121.815
20
-125.428
11
93.2403
21
-125.436
0
ARC
8
BLACK
10
32.8607
20
-104.82
40
1.88535
50
-45.1482
51
1.06408
0
ARC
8
BLACK
10
181.528
20
-122.742
40
2.68771
50
-135.894
51
-87.8229
0
LINE
8
BLACK
6
CONTINUOUS
10
34.7457
20
-55.0526
11
34.7457
21
-104.785
0
LINE
8
BLACK
6
CONTINUOUS
10
270.887
20
-141.234
11
213.392
21
-125.862
0
LINE
8
BLACK
6
CONTINUOUS
10
247.766
20
-41.181
11
168.091
21
-41.1808
0
ARC
8
BLACK
10
250.107
20
-52.6676
40
1.21304
50
-180.005
51
-89.9941
0
LINE
8
BLACK
6
CONTINUOUS
10
90.0528
20
-125.862
11
32.5586
21
-141.234
0
ARC
8
BLACK
10
210.371
20
-136.314
40
10.8795
50
73.8774
51
90.8764
0
ARC
8
BLACK
10
149.496
20
-105.208
40
1.22764
50
-85.5271
51
-2.38533
0
LINE
8
BLACK
6
CONTINUOUS
10
53.3384
20
-53.8806
11
35.9141
21
-53.8806
0
LINE
8
BLACK
6
CONTINUOUS
10
150.723
20
-105.259
11
150.723
21
-47.7825
0
LINE
8
BLACK
6
CONTINUOUS
10
149.592
20
-106.432
11
142.966
21
-106.432
0
LINE
8
BLACK
6
CONTINUOUS
10
269.255
20
-106.157
11
278.53
21
-115.428
0
ARC
8
BLACK
10
35.8739
20
-55.009
40
1.12902
50
-272.042
51
-177.787
0
ARC
8
BLACK
10
270.585
20
-104.82
40
1.88553
50
-181.061
51
-134.853
0
LINE
8
BLACK
6
CONTINUOUS
10
141.246
20
-107.145
11
123.847
21
-124.612
0
LINE
8
BLACK
6
CONTINUOUS
10
154.058
20
-46.4883
11
165.397
21
-46.4883
0
LINE
8
BLACK
6
CONTINUOUS
10
248.894
20
-42.2857
11
248.894
21
-52.6675
0
ARC
8
BLACK
10
267.571
20
-55.0089
40
1.12898
50
-2.21805
51
92.0445
0
ARC
8
BLACK
10
121.917
20
-122.742
40
2.68779
50
-92.176
51
-44.1068
0
ARC
8
BLACK
10
142.902
20
-108.708
40
2.27633
50
88.3952
51
136.663
0
LINE
8
BLACK
6
CONTINUOUS
10
135.354
20
-41.1808
11
55.6788
21
-41.181
0
ARC
8
BLACK
10
135.366
20
-42.4707
40
1.28998
50
-3.04686
51
90.5368
0
LINE
8
BLACK
6
CONTINUOUS
10
54.5516
20
-52.6675
11
54.5516
21
-42.2857
0
LINE
8
BLACK
6
CONTINUOUS
10
24.9151
20
-115.428
11
34.1904
21
-106.157
0
ARC
8
BLACK
10
160.543
20
-108.708
40
2.2764
50
43.3376
51
91.6035
0
LINE
8
BLACK
6
CONTINUOUS
10
210.205
20
-125.436
11
181.63
21
-125.428
0
LINE
8
BLACK
6
CONTINUOUS
10
160.479
20
-106.432
11
153.853
21
-106.432
0
ARC
8
BLACK
10
53.3385
20
-52.6676
40
1.21306
50
-90.0036
51
0.00453431
0
ARC
8
BLACK
10
149.401
20
-47.8103
40
1.32206
50
1.20471
51
90.5937
0
LINE
8
BLACK
6
CONTINUOUS
10
272.813
20
-140.133
11
278.987
21
-117.079
0
LINE
8
BLACK
6
CONTINUOUS
10
24.4579
20
-117.079
11
30.632
21
-140.133
0
ARC
8
BLACK
10
26.0655
20
-116.635
40
1.66772
50
-226.384
51
-164.574
0
ARC
8
BLACK
10
271.303
20
-139.727
40
1.56346
50
-105.451
51
-15.0242
0
ARC
8
BLACK
10
165.39
20
-45.0882
40
1.40013
50
-89.741
51
-0.0779149
0
ARC
8
BLACK
10
247.809
20
-42.265
40
1.08486
50
-1.09197
51
92.2495
0
ARC
8
BLACK
10
55.6362
20
-42.265
40
1.08483
50
-272.252
51
-178.908
0
LINE
8
BLACK
6
CONTINUOUS
10
138.048
20
-46.4883
11
149.387
21
-46.4883
0
LINE
8
BLACK
6
CONTINUOUS
10
152.723
20
-47.7825
11
152.723
21
-105.259
0
ARC
8
BLACK
10
277.38
20
-116.635
40
1.6678
50
-15.4247
51
46.3818
0
LINE
8
BLACK
6
CONTINUOUS
10
267.531
20
-53.8806
11
250.107
21
-53.8806
0
LINE
8
BLACK
6
CONTINUOUS
10
166.791
20
-42.5393
11
166.791
21
-45.0901
0
LINE
8
BLACK
6
CONTINUOUS
10
136.655
20
-45.0901
11
136.655
21
-42.5393
0
LINE
8
BLACK
6
CONTINUOUS
10
268.699
20
-104.785
11
268.699
21
-55.0526
0
CIRCLE
8
BLACK
10
230.931
20
-46.4648
40
1.6
0
CIRCLE
8
BLACK
10
227.54
20
-103.903
40
1.6
0
CIRCLE
8
BLACK
10
251.606
20
-105.319
40
2.15
0
CIRCLE
8
BLACK
10
173.883
20
-103.841
40
1.6
0
CIRCLE
8
BLACK
10
265.766
20
-109.078
40
2.15
0
CIRCLE
8
BLACK
10
257.067
20
-133.919
40
1.6
0
CIRCLE
8
BLACK
10
215.115
20
-113.935
40
1.6
0
CIRCLE
8
BLACK
10
176.879
20
-113.935
40
1.6
0
CIRCLE
8
BLACK
10
170.58
20
-45.523
40
1.6
0
LINE
8
BLACK
6
CONTINUOUS
10
120.759
20
-110.2
11
118.041
21
-110.2
0
LINE
8
BLACK
6
CONTINUOUS
10
118.041
20
-110.2
11
118.041
21
-111.013
0
LINE
8
BLACK
6
CONTINUOUS
10
118.041
20
-111.013
11
114.79
21
-111.013
0
LINE
8
BLACK
6
CONTINUOUS
10
114.79
20
-111.013
11
114.79
21
-110.2
0
LINE
8
BLACK
6
CONTINUOUS
10
114.79
20
-110.2
11
112.047
21
-110.2
0
LINE
8
BLACK
6
CONTINUOUS
10
112.047
20
-110.2
11
112.047
21
-104.663
0
LINE
8
BLACK
6
CONTINUOUS
10
112.047
20
-104.663
11
120.759
21
-104.663
0
LINE
8
BLACK
6
CONTINUOUS
10
120.759
20
-104.663
11
120.759
21
-110.2
0
CIRCLE
8
BLACK
10
93.2653
20
-118.728
40
1.75
0
CIRCLE
8
BLACK
10
46.3781
20
-133.919
40
1.6
0
CIRCLE
8
BLACK
10
88.3297
20
-113.935
40
1.6
0
CIRCLE
8
BLACK
10
37.6793
20
-109.078
40
2.15
0
CIRCLE
8
BLACK
10
109.765
20
-100.837
40
1.75
0
CIRCLE
8
BLACK
10
75.9049
20
-103.903
40
1.6
0
CIRCLE
8
BLACK
10
126.566
20
-113.935
40
1.6
0
CIRCLE
8
BLACK
10
129.562
20
-103.841
40
1.6
0
CIRCLE
8
BLACK
10
51.8391
20
-105.319
40
2.15
0
CIRCLE
8
BLACK
10
132.865
20
-45.523
40
1.6
0
CIRCLE
8
BLACK
10
72.5139
20
-46.4648
40
1.6
  0
ENDSEC
  0
EOF
