  0
SECTION
  2
HEADER
  9
$ANGBASE
  50
0.0
  9
$ANGDIR
  70
1
  9
$MEASUREMENT
  70
1
  0
ENDSEC
  0
SECTION
  2
TABLES
  0
TABLE
  2
LTYPE
  70
4
  0
LTYPE
  5
40F
  2
CONTINUOUS
  70
0
  3
Solid line
  72
65
  73
0
  40
0.0
  0
LTYPE
  5
410
  2
DASHDOT
 70
0
  3
Dash Dot ____ _ ____ _
 72
65
 73
4
 40
2.0
 49
1.25
 49
-0.25
 49
0.25
 49
-0.25
  0
LTYPE
  5
411
  2
DASHED
 70
0
  3
Dashed __ __ __ __ __
 72
65
 73
2
 40
0.75
 49
0.5
 49
-0.25
  0
LTYPE
  5
43B
  2
DOTTED
 70
0
  3
Dotted .  .  .  .
 72
65
 73
2
 40
0.2
 49
0.0
 49
-0.2
  0
ENDTAB
  0
TABLE
  2
STYLE
  70
4
  0
STYLE
  2
KICAD
  70
0
  40
0
  41
1
  42
1
  50
0
  71
0
  3
isocp.shx
  0
STYLE
  2
KICADB
  70
0
  40
0
  41
1
  42
1
  50
0
  71
0
  3
isocp.shx
  0
STYLE
  2
KICADI
  70
0
  40
0
  41
1
  42
1
  50
15
  71
0
  3
isocp.shx
  0
STYLE
  2
KICADBI
  70
0
  40
0
  41
1
  42
1
  50
15
  71
0
  3
isocp.shx
  0
ENDTAB
  0
TABLE
  2
LAYER
  70
1
  0
LAYER
  2
BLACK
  70
0
  62
7
  6
CONTINUOUS
  0
ENDTAB
  0
ENDSEC
  0
SECTION
  2
ENTITIES
0
LINE
8
BLACK
6
CONTINUOUS
10
32.7022
20
-58.0512
11
32.7022
21
-107.784
0
LINE
8
BLACK
6
CONTINUOUS
10
134.611
20
-48.0887
11
134.611
21
-45.5379
0
LINE
8
BLACK
6
CONTINUOUS
10
51.2949
20
-56.8793
11
33.8706
21
-56.8793
0
ARC
8
BLACK
10
24.0221
20
-119.634
40
1.66777
50
-226.382
51
-164.574
0
LINE
8
BLACK
6
CONTINUOUS
10
148.679
20
-108.258
11
148.679
21
-50.7811
0
ARC
8
BLACK
10
53.5927
20
-45.2636
40
1.08484
50
-272.252
51
-178.907
0
ARC
8
BLACK
10
136.011
20
-48.0868
40
1.40015
50
-179.921
51
-90.2612
0
ARC
8
BLACK
10
30.0985
20
-142.726
40
1.56344
50
-164.978
51
-74.5463
0
LINE
8
BLACK
6
CONTINUOUS
10
22.4144
20
-120.078
11
28.5885
21
-143.131
0
LINE
8
BLACK
6
CONTINUOUS
10
147.548
20
-109.431
11
140.922
21
-109.431
0
LINE
8
BLACK
6
CONTINUOUS
10
119.772
20
-128.426
11
91.1968
21
-128.434
0
ARC
8
BLACK
10
140.858
20
-111.706
40
2.27638
50
88.3953
51
136.662
0
ARC
8
BLACK
10
33.8304
20
-58.0076
40
1.12902
50
-272.042
51
-177.786
0
LINE
8
BLACK
6
CONTINUOUS
10
52.508
20
-55.6661
11
52.508
21
-45.2843
0
LINE
8
BLACK
6
CONTINUOUS
10
136.005
20
-49.4869
11
147.344
21
-49.4869
0
ARC
8
BLACK
10
30.8171
20
-107.819
40
1.88545
50
-45.1466
51
1.06326
0
LINE
8
BLACK
6
CONTINUOUS
10
22.8716
20
-118.427
11
32.1468
21
-109.156
0
ARC
8
BLACK
10
91.0304
20
-139.312
40
10.879
50
89.1234
51
106.123
0
ARC
8
BLACK
10
51.295
20
-55.6662
40
1.21306
50
-90.0037
51
0.0033535
0
LINE
8
BLACK
6
CONTINUOUS
10
133.311
20
-44.1794
11
53.6353
21
-44.1796
0
LINE
8
BLACK
6
CONTINUOUS
10
88.0092
20
-128.861
11
30.515
21
-144.233
0
ARC
8
BLACK
10
119.874
20
-125.74
40
2.68773
50
-92.1761
51
-44.1057
0
ARC
8
BLACK
10
133.323
20
-45.4694
40
1.29006
50
-3.04354
51
90.5369
0
LINE
8
BLACK
6
CONTINUOUS
10
139.203
20
-110.144
11
121.804
21
-127.611
0
ARC
8
BLACK
10
147.452
20
-108.207
40
1.22764
50
-85.5273
51
-2.3865
0
ARC
8
BLACK
10
147.357
20
-50.8089
40
1.32204
50
1.20363
51
90.5938
0
ARC
8
BLACK
10
152.001
20
-50.8089
40
1.32206
50
89.4062
51
178.796
0
ARC
8
BLACK
10
151.906
20
-108.207
40
1.22766
50
-177.614
51
-94.4727
0
LINE
8
BLACK
6
CONTINUOUS
10
177.554
20
-127.611
11
160.155
21
-110.144
0
ARC
8
BLACK
10
166.035
20
-45.4694
40
1.29003
50
-270.537
51
-176.956
0
ARC
8
BLACK
10
179.484
20
-125.74
40
2.68774
50
-135.894
51
-87.8239
0
LINE
8
BLACK
6
CONTINUOUS
10
268.843
20
-144.233
11
211.349
21
-128.861
0
LINE
8
BLACK
6
CONTINUOUS
10
245.723
20
-44.1796
11
166.047
21
-44.1794
0
ARC
8
BLACK
10
248.063
20
-55.6662
40
1.21307
50
-180.003
51
-89.9963
0
ARC
8
BLACK
10
208.328
20
-139.312
40
10.879
50
73.8768
51
90.8766
0
LINE
8
BLACK
6
CONTINUOUS
10
267.211
20
-109.156
11
276.486
21
-118.427
0
ARC
8
BLACK
10
268.541
20
-107.819
40
1.88544
50
-181.063
51
-134.853
0
LINE
8
BLACK
6
CONTINUOUS
10
152.014
20
-49.4869
11
163.353
21
-49.4869
0
LINE
8
BLACK
6
CONTINUOUS
10
246.85
20
-45.2843
11
246.85
21
-55.6661
0
ARC
8
BLACK
10
265.528
20
-58.0076
40
1.12905
50
-2.21414
51
92.0416
0
ARC
8
BLACK
10
158.5
20
-111.706
40
2.27637
50
43.3379
51
91.6047
0
LINE
8
BLACK
6
CONTINUOUS
10
208.161
20
-128.434
11
179.586
21
-128.426
0
LINE
8
BLACK
6
CONTINUOUS
10
158.436
20
-109.431
11
151.81
21
-109.431
0
LINE
8
BLACK
6
CONTINUOUS
10
270.77
20
-143.131
11
276.944
21
-120.078
0
ARC
8
BLACK
10
269.26
20
-142.726
40
1.56339
50
-105.454
51
-15.022
0
ARC
8
BLACK
10
163.347
20
-48.0868
40
1.40019
50
-89.7388
51
-0.0789349
0
ARC
8
BLACK
10
245.765
20
-45.2636
40
1.08483
50
-1.09334
51
92.2519
0
LINE
8
BLACK
6
CONTINUOUS
10
150.679
20
-50.7811
11
150.679
21
-108.258
0
ARC
8
BLACK
10
275.336
20
-119.634
40
1.66775
50
-15.4259
51
46.3824
0
LINE
8
BLACK
6
CONTINUOUS
10
265.487
20
-56.8793
11
248.063
21
-56.8793
0
LINE
8
BLACK
6
CONTINUOUS
10
164.747
20
-45.5379
11
164.747
21
-48.0887
0
LINE
8
BLACK
6
CONTINUOUS
10
266.656
20
-107.784
11
266.656
21
-58.0512
0
CIRCLE
8
BLACK
10
35.6358
20
-112.077
40
2.15
0
CIRCLE
8
BLACK
10
49.7956
20
-108.317
40
2.15
0
CIRCLE
8
BLACK
10
130.822
20
-48.5216
40
1.6
0
CIRCLE
8
BLACK
10
127.519
20
-106.839
40
1.6
0
CIRCLE
8
BLACK
10
86.2861
20
-116.934
40
1.6
0
CIRCLE
8
BLACK
10
73.8614
20
-106.902
40
1.6
0
CIRCLE
8
BLACK
10
44.3346
20
-136.918
40
1.6
0
CIRCLE
8
BLACK
10
124.522
20
-116.934
40
1.6
0
CIRCLE
8
BLACK
10
70.4704
20
-49.4634
40
1.6
0
CIRCLE
8
BLACK
10
249.562
20
-108.317
40
2.15
0
CIRCLE
8
BLACK
10
263.722
20
-112.077
40
2.15
0
CIRCLE
8
BLACK
10
228.888
20
-49.4634
40
1.6
0
CIRCLE
8
BLACK
10
225.497
20
-106.902
40
1.6
0
CIRCLE
8
BLACK
10
171.839
20
-106.839
40
1.6
0
CIRCLE
8
BLACK
10
255.023
20
-136.918
40
1.6
0
CIRCLE
8
BLACK
10
213.072
20
-116.934
40
1.6
0
CIRCLE
8
BLACK
10
174.836
20
-116.934
40
1.6
0
CIRCLE
8
BLACK
10
168.536
20
-48.5216
40
1.6
  0
ENDSEC
  0
EOF
