  0
SECTION
  2
HEADER
  9
$ANGBASE
  50
0.0
  9
$ANGDIR
  70
1
  9
$MEASUREMENT
  70
1
  0
ENDSEC
  0
SECTION
  2
TABLES
  0
TABLE
  2
LTYPE
  70
4
  0
LTYPE
  5
40F
  2
CONTINUOUS
  70
0
  3
Solid line
  72
65
  73
0
  40
0.0
  0
LTYPE
  5
410
  2
DASHDOT
 70
0
  3
Dash Dot ____ _ ____ _
 72
65
 73
4
 40
2.0
 49
1.25
 49
-0.25
 49
0.25
 49
-0.25
  0
LTYPE
  5
411
  2
DASHED
 70
0
  3
Dashed __ __ __ __ __
 72
65
 73
2
 40
0.75
 49
0.5
 49
-0.25
  0
LTYPE
  5
43B
  2
DOTTED
 70
0
  3
Dotted .  .  .  .
 72
65
 73
2
 40
0.2
 49
0.0
 49
-0.2
  0
ENDTAB
  0
TABLE
  2
STYLE
  70
4
  0
STYLE
  2
KICAD
  70
0
  40
0
  41
1
  42
1
  50
0
  71
0
  3
isocp.shx
  0
STYLE
  2
KICADB
  70
0
  40
0
  41
1
  42
1
  50
0
  71
0
  3
isocp.shx
  0
STYLE
  2
KICADI
  70
0
  40
0
  41
1
  42
1
  50
15
  71
0
  3
isocp.shx
  0
STYLE
  2
KICADBI
  70
0
  40
0
  41
1
  42
1
  50
15
  71
0
  3
isocp.shx
  0
ENDTAB
  0
TABLE
  2
LAYER
  70
1
  0
LAYER
  2
BLACK
  70
0
  62
7
  6
CONTINUOUS
  0
ENDTAB
  0
ENDSEC
  0
SECTION
  2
ENTITIES
0
ARC
8
BLACK
10
138.658
20
-113.387
40
2.27635
50
88.3941
51
136.661
0
LINE
8
BLACK
6
CONTINUOUS
10
245.191
20
-93.2434
11
249.916
21
-97.9678
0
ARC
8
BLACK
10
59.9404
20
-50.4963
40
2.05633
50
-90.3915
51
-42.7524
0
ARC
8
BLACK
10
149.8
20
-52.4892
40
1.32197
50
89.4023
51
178.796
0
ARC
8
BLACK
10
235.017
20
-50.4965
40
2.05615
50
-137.251
51
-89.6073
0
ARC
8
BLACK
10
149.705
20
-109.887
40
1.22766
50
-177.614
51
-94.4731
0
ARC
8
BLACK
10
212.05
20
-118.628
40
4.07727
50
-15.3891
51
16.4296
0
ARC
8
BLACK
10
105.519
20
-105.512
40
2.159
50
-0
51
180
0
LINE
8
BLACK
6
CONTINUOUS
10
164.042
20
-117.932
11
157.955
21
-111.824
0
ARC
8
BLACK
10
163.835
20
-47.1497
40
1.29004
50
-270.537
51
-176.956
0
LINE
8
BLACK
6
CONTINUOUS
10
118.397
20
-107.721
11
128.659
21
-117.983
0
LINE
8
BLACK
6
CONTINUOUS
10
20.6714
20
-120.107
11
30.1067
21
-110.668
0
ARC
8
BLACK
10
80.6378
20
-130.664
40
1.2174
50
-77.2367
51
13.5825
0
ARC
8
BLACK
10
214.32
20
-130.664
40
1.21737
50
-193.583
51
-102.761
0
LINE
8
BLACK
6
CONTINUOUS
10
215.961
20
-117.475
11
213.39
21
-107.721
0
LINE
8
BLACK
6
CONTINUOUS
10
20.2142
20
-121.758
11
26.3883
21
-144.812
0
ARC
8
BLACK
10
68.3448
20
-47.9518
40
2.09216
50
89.6071
51
138.233
0
ARC
8
BLACK
10
51.405
20
-53.6493
40
1.09739
50
-271.971
51
-178.909
0
LINE
8
BLACK
6
CONTINUOUS
10
145.348
20
-111.111
11
138.722
21
-111.111
0
LINE
8
BLACK
6
CONTINUOUS
10
103.36
20
-106.909
11
103.36
21
-105.512
0
LINE
8
BLACK
6
CONTINUOUS
10
228.173
20
-46.5582
11
233.507
21
-51.8922
0
LINE
8
BLACK
6
CONTINUOUS
10
103.36
20
-106.909
11
82.6339
21
-106.909
0
ARC
8
BLACK
10
246.484
20
-91.9419
40
1.83474
50
-180.603
51
-134.817
0
ARC
8
BLACK
10
226.613
20
-47.952
40
2.09235
50
41.7706
51
90.3918
0
ARC
8
BLACK
10
116.502
20
-109.521
40
2.61316
50
43.5123
51
88.2914
0
LINE
8
BLACK
6
CONTINUOUS
10
166.299
20
-117.983
11
176.56
21
-107.721
0
ARC
8
BLACK
10
27.8982
20
-144.406
40
1.56335
50
-164.981
51
-74.5437
0
LINE
8
BLACK
6
CONTINUOUS
10
81.5671
20
-107.721
11
78.9967
21
-117.475
0
ARC
8
BLACK
10
178.456
20
-109.52
40
2.61294
50
91.7056
51
136.489
0
LINE
8
BLACK
6
CONTINUOUS
10
107.678
20
-106.909
11
107.678
21
-105.512
0
LINE
8
BLACK
6
CONTINUOUS
10
81.8211
20
-130.378
11
78.9763
21
-119.71
0
LINE
8
BLACK
6
CONTINUOUS
10
264.851
20
-110.668
11
274.286
21
-120.107
0
ARC
8
BLACK
10
82.6683
20
-108.06
40
1.15209
50
91.7086
51
162.898
0
ARC
8
BLACK
10
32.2994
20
-112.994
40
3.19649
50
93.7929
51
133.311
0
ARC
8
BLACK
10
212.289
20
-108.06
40
1.15221
50
17.1061
51
88.2895
0
LINE
8
BLACK
6
CONTINUOUS
10
116.58
20
-106.909
11
107.678
21
-106.909
0
ARC
8
BLACK
10
21.8218
20
-121.314
40
1.66772
50
-226.384
51
-164.574
0
ARC
8
BLACK
10
262.658
20
-112.994
40
3.19692
50
46.6909
51
86.2032
0
LINE
8
BLACK
6
CONTINUOUS
10
146.479
20
-109.938
11
146.479
21
-52.4614
0
LINE
8
BLACK
6
CONTINUOUS
10
226.598
20
-45.8597
11
163.847
21
-45.8597
0
LINE
8
BLACK
6
CONTINUOUS
10
44.4323
20
-109.804
11
44.4323
21
-99.3902
0
LINE
8
BLACK
6
CONTINUOUS
10
137.003
20
-111.824
11
130.915
21
-117.932
0
LINE
8
BLACK
6
CONTINUOUS
10
149.814
20
-51.1672
11
161.153
21
-51.1672
0
LINE
8
BLACK
6
CONTINUOUS
10
244.65
20
-53.6702
11
244.65
21
-91.9226
0
ARC
8
BLACK
10
82.9071
20
-118.628
40
4.07695
50
-196.431
51
-164.61
0
LINE
8
BLACK
6
CONTINUOUS
10
50.3078
20
-92.0342
11
50.3078
21
-53.6702
0
LINE
8
BLACK
6
CONTINUOUS
10
262.87
20
-109.804
11
250.525
21
-109.804
0
ARC
8
BLACK
10
131.123
20
-47.1497
40
1.29006
50
-3.04366
51
90.5392
0
ARC
8
BLACK
10
48.4668
20
-91.9357
40
1.84364
50
-45.1791
51
-3.06262
0
ARC
8
BLACK
10
156.299
20
-113.387
40
2.27647
50
43.3399
51
91.6048
0
LINE
8
BLACK
6
CONTINUOUS
10
156.236
20
-111.111
11
149.61
21
-111.111
0
LINE
8
BLACK
6
CONTINUOUS
10
45.0419
20
-97.9678
11
49.7663
21
-93.2434
0
LINE
8
BLACK
6
CONTINUOUS
10
268.569
20
-144.812
11
274.743
21
-121.758
0
LINE
8
BLACK
6
CONTINUOUS
10
80.9067
20
-131.851
11
28.3148
21
-145.913
0
ARC
8
BLACK
10
129.761
20
-116.776
40
1.63385
50
-132.402
51
-45.0194
0
ARC
8
BLACK
10
145.252
20
-109.887
40
1.22768
50
-85.5251
51
-2.3864
0
ARC
8
BLACK
10
267.059
20
-144.406
40
1.56351
50
-105.449
51
-15.0247
0
ARC
8
BLACK
10
161.147
20
-49.7671
40
1.40008
50
-89.7432
51
-0.078941
0
LINE
8
BLACK
6
CONTINUOUS
10
243.515
20
-52.5526
11
235.031
21
-52.5526
0
LINE
8
BLACK
6
CONTINUOUS
10
250.525
20
-99.3902
11
250.525
21
-109.804
0
LINE
8
BLACK
6
CONTINUOUS
10
212.324
20
-106.909
11
178.378
21
-106.909
0
LINE
8
BLACK
6
CONTINUOUS
10
132.411
20
-49.769
11
132.411
21
-47.2182
0
ARC
8
BLACK
10
243.553
20
-53.6493
40
1.09735
50
-1.09133
51
91.9745
0
LINE
8
BLACK
6
CONTINUOUS
10
131.111
20
-45.8597
11
68.3591
21
-45.8597
0
ARC
8
BLACK
10
145.157
20
-52.4892
40
1.32204
50
1.20359
51
90.5917
0
LINE
8
BLACK
6
CONTINUOUS
10
148.479
20
-52.4614
11
148.479
21
-109.938
0
LINE
8
BLACK
6
CONTINUOUS
10
59.9263
20
-52.5526
11
51.4427
21
-52.5526
0
ARC
8
BLACK
10
273.136
20
-121.314
40
1.66775
50
-15.426
51
46.3826
0
ARC
8
BLACK
10
133.811
20
-49.767
40
1.40025
50
-179.917
51
-90.2633
0
LINE
8
BLACK
6
CONTINUOUS
10
133.805
20
-51.1672
11
145.143
21
-51.1672
0
LINE
8
BLACK
6
CONTINUOUS
10
266.643
20
-145.913
11
214.051
21
-131.851
0
LINE
8
BLACK
6
CONTINUOUS
10
162.547
20
-47.2182
11
162.547
21
-49.769
0
ARC
8
BLACK
10
165.197
20
-116.777
40
1.63374
50
-134.985
51
-47.5925
0
LINE
8
BLACK
6
CONTINUOUS
10
61.4503
20
-51.8922
11
66.7843
21
-46.5582
0
LINE
8
BLACK
6
CONTINUOUS
10
44.4323
20
-109.804
11
32.0879
21
-109.804
0
ARC
8
BLACK
10
46.8289
20
-99.5755
40
2.4037
50
138.023
51
175.579
0
LINE
8
BLACK
6
CONTINUOUS
10
215.981
20
-119.71
11
213.136
21
-130.378
0
ARC
8
BLACK
10
248.129
20
-99.5753
40
2.40332
50
4.41719
51
41.9795
0
LINE
8
BLACK
6
CONTINUOUS
10
170.487
20
-90.3316
11
184.487
21
-90.3316
0
LINE
8
BLACK
6
CONTINUOUS
10
184.487
20
-90.3316
11
184.487
21
-104.332
0
LINE
8
BLACK
6
CONTINUOUS
10
184.487
20
-104.332
11
170.487
21
-104.332
0
LINE
8
BLACK
6
CONTINUOUS
10
170.487
20
-104.332
11
170.487
21
-90.3316
0
LINE
8
BLACK
6
CONTINUOUS
10
170.487
20
-71.332
11
184.487
21
-71.332
0
LINE
8
BLACK
6
CONTINUOUS
10
184.487
20
-71.332
11
184.487
21
-85.332
0
LINE
8
BLACK
6
CONTINUOUS
10
184.487
20
-85.332
11
170.487
21
-85.332
0
LINE
8
BLACK
6
CONTINUOUS
10
170.487
20
-85.332
11
170.487
21
-71.332
0
LINE
8
BLACK
6
CONTINUOUS
10
266.418
20
-137.076
11
255.02
21
-134.022
0
LINE
8
BLACK
6
CONTINUOUS
10
255.02
20
-134.022
11
258.177
21
-122.238
0
LINE
8
BLACK
6
CONTINUOUS
10
258.177
20
-122.238
11
269.575
21
-125.292
0
LINE
8
BLACK
6
CONTINUOUS
10
269.575
20
-125.292
11
266.418
21
-137.076
0
CIRCLE
8
BLACK
10
226.687
20
-51.1437
40
1.6
0
LINE
8
BLACK
6
CONTINUOUS
10
151.486
20
-54.331
11
165.486
21
-54.331
0
LINE
8
BLACK
6
CONTINUOUS
10
165.486
20
-54.331
11
165.486
21
-68.331
0
LINE
8
BLACK
6
CONTINUOUS
10
165.486
20
-68.331
11
151.486
21
-68.331
0
LINE
8
BLACK
6
CONTINUOUS
10
151.486
20
-68.331
11
151.486
21
-54.331
0
LINE
8
BLACK
6
CONTINUOUS
10
151.486
20
-73.3314
11
165.486
21
-73.3314
0
LINE
8
BLACK
6
CONTINUOUS
10
165.486
20
-73.3314
11
165.486
21
-87.3314
0
LINE
8
BLACK
6
CONTINUOUS
10
165.486
20
-87.3314
11
151.486
21
-87.3314
0
LINE
8
BLACK
6
CONTINUOUS
10
151.486
20
-87.3314
11
151.486
21
-73.3314
0
CIRCLE
8
BLACK
10
223.296
20
-108.582
40
1.6
0
CIRCLE
8
BLACK
10
247.362
20
-109.998
40
1.6
0
CIRCLE
8
BLACK
10
169.639
20
-108.52
40
1.6
0
CIRCLE
8
BLACK
10
261.522
20
-113.757
40
1.6
0
LINE
8
BLACK
6
CONTINUOUS
10
238.196
20
-118.493
11
251.719
21
-122.117
0
LINE
8
BLACK
6
CONTINUOUS
10
251.719
20
-122.117
11
248.096
21
-135.64
0
LINE
8
BLACK
6
CONTINUOUS
10
248.096
20
-135.64
11
234.573
21
-132.016
0
LINE
8
BLACK
6
CONTINUOUS
10
234.573
20
-132.016
11
238.196
21
-118.493
0
LINE
8
BLACK
6
CONTINUOUS
10
189.486
20
-86.5218
11
203.486
21
-86.5218
0
LINE
8
BLACK
6
CONTINUOUS
10
203.486
20
-86.5218
11
203.486
21
-100.522
0
LINE
8
BLACK
6
CONTINUOUS
10
203.486
20
-100.522
11
189.486
21
-100.522
0
LINE
8
BLACK
6
CONTINUOUS
10
189.486
20
-100.522
11
189.486
21
-86.5218
0
CIRCLE
8
BLACK
10
252.823
20
-138.598
40
1.6
0
LINE
8
BLACK
6
CONTINUOUS
10
208.486
20
-52.3318
11
222.486
21
-52.3318
0
LINE
8
BLACK
6
CONTINUOUS
10
222.486
20
-52.3318
11
222.486
21
-66.3318
0
LINE
8
BLACK
6
CONTINUOUS
10
222.486
20
-66.3318
11
208.486
21
-66.3318
0
LINE
8
BLACK
6
CONTINUOUS
10
208.486
20
-66.3318
11
208.486
21
-52.3318
0
LINE
8
BLACK
6
CONTINUOUS
10
170.487
20
-52.3324
11
184.487
21
-52.3324
0
LINE
8
BLACK
6
CONTINUOUS
10
184.487
20
-52.3324
11
184.487
21
-66.3324
0
LINE
8
BLACK
6
CONTINUOUS
10
184.487
20
-66.3324
11
170.487
21
-66.3324
0
LINE
8
BLACK
6
CONTINUOUS
10
170.487
20
-66.3324
11
170.487
21
-52.3324
0
LINE
8
BLACK
6
CONTINUOUS
10
227.486
20
-55.3324
11
241.486
21
-55.3324
0
LINE
8
BLACK
6
CONTINUOUS
10
241.486
20
-55.3324
11
241.486
21
-69.3324
0
LINE
8
BLACK
6
CONTINUOUS
10
241.486
20
-69.3324
11
227.486
21
-69.3324
0
LINE
8
BLACK
6
CONTINUOUS
10
227.486
20
-69.3324
11
227.486
21
-55.3324
0
LINE
8
BLACK
6
CONTINUOUS
10
208.486
20
-90.3322
11
222.486
21
-90.3322
0
LINE
8
BLACK
6
CONTINUOUS
10
222.486
20
-90.3322
11
222.486
21
-104.332
0
LINE
8
BLACK
6
CONTINUOUS
10
222.486
20
-104.332
11
208.486
21
-104.332
0
LINE
8
BLACK
6
CONTINUOUS
10
208.486
20
-104.332
11
208.486
21
-90.3322
0
LINE
8
BLACK
6
CONTINUOUS
10
219.996
20
-112.347
11
233.519
21
-115.97
0
LINE
8
BLACK
6
CONTINUOUS
10
233.519
20
-115.97
11
229.896
21
-129.493
0
LINE
8
BLACK
6
CONTINUOUS
10
229.896
20
-129.493
11
216.373
21
-125.87
0
LINE
8
BLACK
6
CONTINUOUS
10
216.373
20
-125.87
11
219.996
21
-112.347
0
LINE
8
BLACK
6
CONTINUOUS
10
227.486
20
-93.3322
11
241.486
21
-93.3322
0
LINE
8
BLACK
6
CONTINUOUS
10
241.486
20
-93.3322
11
241.486
21
-107.332
0
LINE
8
BLACK
6
CONTINUOUS
10
241.486
20
-107.332
11
227.486
21
-107.332
0
LINE
8
BLACK
6
CONTINUOUS
10
227.486
20
-107.332
11
227.486
21
-93.3322
0
LINE
8
BLACK
6
CONTINUOUS
10
208.486
20
-71.3318
11
222.486
21
-71.3318
0
LINE
8
BLACK
6
CONTINUOUS
10
222.486
20
-71.3318
11
222.486
21
-85.3318
0
LINE
8
BLACK
6
CONTINUOUS
10
222.486
20
-85.3318
11
208.486
21
-85.3318
0
LINE
8
BLACK
6
CONTINUOUS
10
208.486
20
-85.3318
11
208.486
21
-71.3318
0
LINE
8
BLACK
6
CONTINUOUS
10
227.486
20
-74.3322
11
241.486
21
-74.3322
0
LINE
8
BLACK
6
CONTINUOUS
10
241.486
20
-74.3322
11
241.486
21
-88.3322
0
LINE
8
BLACK
6
CONTINUOUS
10
241.486
20
-88.3322
11
227.486
21
-88.3322
0
LINE
8
BLACK
6
CONTINUOUS
10
227.486
20
-88.3322
11
227.486
21
-74.3322
0
LINE
8
BLACK
6
CONTINUOUS
10
189.486
20
-48.5216
11
203.486
21
-48.5216
0
LINE
8
BLACK
6
CONTINUOUS
10
203.486
20
-48.5216
11
203.486
21
-62.5216
0
LINE
8
BLACK
6
CONTINUOUS
10
203.486
20
-62.5216
11
189.486
21
-62.5216
0
LINE
8
BLACK
6
CONTINUOUS
10
189.486
20
-62.5216
11
189.486
21
-48.5216
0
CIRCLE
8
BLACK
10
166.336
20
-50.2019
40
1.6
0
LINE
8
BLACK
6
CONTINUOUS
10
189.486
20
-67.5216
11
203.486
21
-67.5216
0
LINE
8
BLACK
6
CONTINUOUS
10
203.486
20
-67.5216
11
203.486
21
-81.5216
0
LINE
8
BLACK
6
CONTINUOUS
10
203.486
20
-81.5216
11
189.486
21
-81.5216
0
LINE
8
BLACK
6
CONTINUOUS
10
189.486
20
-81.5216
11
189.486
21
-67.5216
0
LINE
8
BLACK
6
CONTINUOUS
10
151.486
20
-92.3318
11
165.486
21
-92.3318
0
LINE
8
BLACK
6
CONTINUOUS
10
165.486
20
-92.3318
11
165.486
21
-106.332
0
LINE
8
BLACK
6
CONTINUOUS
10
165.486
20
-106.332
11
151.486
21
-106.332
0
LINE
8
BLACK
6
CONTINUOUS
10
151.486
20
-106.332
11
151.486
21
-92.3318
0
LINE
8
BLACK
6
CONTINUOUS
10
86.4714
20
-71.3318
11
72.4714
21
-71.3318
0
LINE
8
BLACK
6
CONTINUOUS
10
72.4714
20
-71.3318
11
72.4714
21
-85.3318
0
LINE
8
BLACK
6
CONTINUOUS
10
72.4714
20
-85.3318
11
86.4714
21
-85.3318
0
LINE
8
BLACK
6
CONTINUOUS
10
86.4714
20
-85.3318
11
86.4714
21
-71.3318
0
LINE
8
BLACK
6
CONTINUOUS
10
143.471
20
-73.3314
11
129.471
21
-73.3314
0
LINE
8
BLACK
6
CONTINUOUS
10
129.471
20
-73.3314
11
129.471
21
-87.3314
0
LINE
8
BLACK
6
CONTINUOUS
10
129.471
20
-87.3314
11
143.471
21
-87.3314
0
LINE
8
BLACK
6
CONTINUOUS
10
143.471
20
-87.3314
11
143.471
21
-73.3314
0
LINE
8
BLACK
6
CONTINUOUS
10
143.471
20
-92.3318
11
129.471
21
-92.3318
0
LINE
8
BLACK
6
CONTINUOUS
10
129.471
20
-92.3318
11
129.471
21
-106.332
0
LINE
8
BLACK
6
CONTINUOUS
10
129.471
20
-106.332
11
143.471
21
-106.332
0
LINE
8
BLACK
6
CONTINUOUS
10
143.471
20
-106.332
11
143.471
21
-92.3318
0
LINE
8
BLACK
6
CONTINUOUS
10
56.7615
20
-118.493
11
43.2385
21
-122.117
0
LINE
8
BLACK
6
CONTINUOUS
10
43.2385
20
-122.117
11
46.862
21
-135.64
0
LINE
8
BLACK
6
CONTINUOUS
10
46.862
20
-135.64
11
60.385
21
-132.016
0
LINE
8
BLACK
6
CONTINUOUS
10
60.385
20
-132.016
11
56.7615
21
-118.493
0
LINE
8
BLACK
6
CONTINUOUS
10
86.4714
20
-90.3322
11
72.4714
21
-90.3322
0
LINE
8
BLACK
6
CONTINUOUS
10
72.4714
20
-90.3322
11
72.4714
21
-104.332
0
LINE
8
BLACK
6
CONTINUOUS
10
72.4714
20
-104.332
11
86.4714
21
-104.332
0
LINE
8
BLACK
6
CONTINUOUS
10
86.4714
20
-104.332
11
86.4714
21
-90.3322
0
CIRCLE
8
BLACK
10
125.319
20
-108.52
40
1.6
0
CIRCLE
8
BLACK
10
42.1344
20
-138.598
40
1.6
0
CIRCLE
8
BLACK
10
47.5954
20
-109.998
40
1.6
0
CIRCLE
8
BLACK
10
33.4356
20
-113.757
40
1.6
0
LINE
8
BLACK
6
CONTINUOUS
10
143.471
20
-54.331
11
129.471
21
-54.331
0
LINE
8
BLACK
6
CONTINUOUS
10
129.471
20
-54.331
11
129.471
21
-68.331
0
LINE
8
BLACK
6
CONTINUOUS
10
129.471
20
-68.331
11
143.471
21
-68.331
0
LINE
8
BLACK
6
CONTINUOUS
10
143.471
20
-68.331
11
143.471
21
-54.331
0
LINE
8
BLACK
6
CONTINUOUS
10
67.4717
20
-74.3322
11
53.4717
21
-74.3322
0
LINE
8
BLACK
6
CONTINUOUS
10
53.4717
20
-74.3322
11
53.4717
21
-88.3322
0
LINE
8
BLACK
6
CONTINUOUS
10
53.4717
20
-88.3322
11
67.4717
21
-88.3322
0
LINE
8
BLACK
6
CONTINUOUS
10
67.4717
20
-88.3322
11
67.4717
21
-74.3322
0
LINE
8
BLACK
6
CONTINUOUS
10
124.471
20
-71.332
11
110.471
21
-71.332
0
LINE
8
BLACK
6
CONTINUOUS
10
110.471
20
-71.332
11
110.471
21
-85.332
0
LINE
8
BLACK
6
CONTINUOUS
10
110.471
20
-85.332
11
124.471
21
-85.332
0
LINE
8
BLACK
6
CONTINUOUS
10
124.471
20
-85.332
11
124.471
21
-71.332
0
LINE
8
BLACK
6
CONTINUOUS
10
105.472
20
-67.5216
11
91.4716
21
-67.5216
0
LINE
8
BLACK
6
CONTINUOUS
10
91.4716
20
-67.5216
11
91.4716
21
-81.5216
0
LINE
8
BLACK
6
CONTINUOUS
10
91.4716
20
-81.5216
11
105.472
21
-81.5216
0
LINE
8
BLACK
6
CONTINUOUS
10
105.472
20
-81.5216
11
105.472
21
-67.5216
0
LINE
8
BLACK
6
CONTINUOUS
10
124.471
20
-90.3316
11
110.471
21
-90.3316
0
LINE
8
BLACK
6
CONTINUOUS
10
110.471
20
-90.3316
11
110.471
21
-104.332
0
LINE
8
BLACK
6
CONTINUOUS
10
110.471
20
-104.332
11
124.471
21
-104.332
0
LINE
8
BLACK
6
CONTINUOUS
10
124.471
20
-104.332
11
124.471
21
-90.3316
0
LINE
8
BLACK
6
CONTINUOUS
10
105.472
20
-48.5216
11
91.4716
21
-48.5216
0
LINE
8
BLACK
6
CONTINUOUS
10
91.4716
20
-48.5216
11
91.4716
21
-62.5216
0
LINE
8
BLACK
6
CONTINUOUS
10
91.4716
20
-62.5216
11
105.472
21
-62.5216
0
LINE
8
BLACK
6
CONTINUOUS
10
105.472
20
-62.5216
11
105.472
21
-48.5216
0
LINE
8
BLACK
6
CONTINUOUS
10
105.472
20
-86.5218
11
91.4716
21
-86.5218
0
LINE
8
BLACK
6
CONTINUOUS
10
91.4716
20
-86.5218
11
91.4716
21
-100.522
0
LINE
8
BLACK
6
CONTINUOUS
10
91.4716
20
-100.522
11
105.472
21
-100.522
0
LINE
8
BLACK
6
CONTINUOUS
10
105.472
20
-100.522
11
105.472
21
-86.5218
0
LINE
8
BLACK
6
CONTINUOUS
10
124.471
20
-52.3324
11
110.471
21
-52.3324
0
LINE
8
BLACK
6
CONTINUOUS
10
110.471
20
-52.3324
11
110.471
21
-66.3324
0
LINE
8
BLACK
6
CONTINUOUS
10
110.471
20
-66.3324
11
124.471
21
-66.3324
0
LINE
8
BLACK
6
CONTINUOUS
10
124.471
20
-66.3324
11
124.471
21
-52.3324
0
LINE
8
BLACK
6
CONTINUOUS
10
67.4717
20
-55.3324
11
53.4717
21
-55.3324
0
LINE
8
BLACK
6
CONTINUOUS
10
53.4717
20
-55.3324
11
53.4717
21
-69.3324
0
LINE
8
BLACK
6
CONTINUOUS
10
53.4717
20
-69.3324
11
67.4717
21
-69.3324
0
LINE
8
BLACK
6
CONTINUOUS
10
67.4717
20
-69.3324
11
67.4717
21
-55.3324
0
LINE
8
BLACK
6
CONTINUOUS
10
74.9613
20
-112.347
11
61.4384
21
-115.97
0
LINE
8
BLACK
6
CONTINUOUS
10
61.4384
20
-115.97
11
65.0618
21
-129.493
0
LINE
8
BLACK
6
CONTINUOUS
10
65.0618
20
-129.493
11
78.5848
21
-125.87
0
LINE
8
BLACK
6
CONTINUOUS
10
78.5848
20
-125.87
11
74.9613
21
-112.347
0
LINE
8
BLACK
6
CONTINUOUS
10
37.6099
20
-121.084
11
24.0869
21
-124.708
0
LINE
8
BLACK
6
CONTINUOUS
10
24.0869
20
-124.708
11
27.7104
21
-138.231
0
LINE
8
BLACK
6
CONTINUOUS
10
27.7104
20
-138.231
11
41.2334
21
-134.607
0
LINE
8
BLACK
6
CONTINUOUS
10
41.2334
20
-134.607
11
37.6099
21
-121.084
0
LINE
8
BLACK
6
CONTINUOUS
10
67.4717
20
-93.3322
11
53.4717
21
-93.3322
0
LINE
8
BLACK
6
CONTINUOUS
10
53.4717
20
-93.3322
11
53.4717
21
-107.332
0
LINE
8
BLACK
6
CONTINUOUS
10
53.4717
20
-107.332
11
67.4717
21
-107.332
0
LINE
8
BLACK
6
CONTINUOUS
10
67.4717
20
-107.332
11
67.4717
21
-93.3322
0
CIRCLE
8
BLACK
10
71.6611
20
-108.582
40
1.6
0
LINE
8
BLACK
6
CONTINUOUS
10
86.4714
20
-52.3318
11
72.4714
21
-52.3318
0
LINE
8
BLACK
6
CONTINUOUS
10
72.4714
20
-52.3318
11
72.4714
21
-66.3318
0
LINE
8
BLACK
6
CONTINUOUS
10
72.4714
20
-66.3318
11
86.4714
21
-66.3318
0
LINE
8
BLACK
6
CONTINUOUS
10
86.4714
20
-66.3318
11
86.4714
21
-52.3318
0
CIRCLE
8
BLACK
10
128.621
20
-50.2019
40
1.6
0
CIRCLE
8
BLACK
10
68.2702
20
-51.1437
40
1.6
  0
ENDSEC
  0
EOF
