  0
SECTION
  2
HEADER
  9
$ANGBASE
  50
0.0
  9
$ANGDIR
  70
1
  9
$MEASUREMENT
  70
1
  0
ENDSEC
  0
SECTION
  2
TABLES
  0
TABLE
  2
LTYPE
  70
4
  0
LTYPE
  5
40F
  2
CONTINUOUS
  70
0
  3
Solid line
  72
65
  73
0
  40
0.0
  0
LTYPE
  5
410
  2
DASHDOT
 70
0
  3
Dash Dot ____ _ ____ _
 72
65
 73
4
 40
2.0
 49
1.25
 49
-0.25
 49
0.25
 49
-0.25
  0
LTYPE
  5
411
  2
DASHED
 70
0
  3
Dashed __ __ __ __ __
 72
65
 73
2
 40
0.75
 49
0.5
 49
-0.25
  0
LTYPE
  5
43B
  2
DOTTED
 70
0
  3
Dotted .  .  .  .
 72
65
 73
2
 40
0.2
 49
0.0
 49
-0.2
  0
ENDTAB
  0
TABLE
  2
STYLE
  70
4
  0
STYLE
  2
KICAD
  70
0
  40
0
  41
1
  42
1
  50
0
  71
0
  3
isocp.shx
  0
STYLE
  2
KICADB
  70
0
  40
0
  41
1
  42
1
  50
0
  71
0
  3
isocp.shx
  0
STYLE
  2
KICADI
  70
0
  40
0
  41
1
  42
1
  50
15
  71
0
  3
isocp.shx
  0
STYLE
  2
KICADBI
  70
0
  40
0
  41
1
  42
1
  50
15
  71
0
  3
isocp.shx
  0
ENDTAB
  0
TABLE
  2
LAYER
  70
1
  0
LAYER
  2
BLACK
  70
0
  62
7
  6
CONTINUOUS
  0
ENDTAB
  0
ENDSEC
  0
SECTION
  2
ENTITIES
0
LINE
8
BLACK
6
CONTINUOUS
10
131.84
20
-24.7112
11
70.3079
21
-24.7114
0
LINE
8
BLACK
6
CONTINUOUS
10
133.14
20
-28.6205
11
133.14
21
-26.0697
0
LINE
8
BLACK
6
CONTINUOUS
10
52.1646
20
-31.4674
11
62.1799
21
-31.4674
0
ARC
8
BLACK
10
52.122
20
-32.5518
40
1.08482
50
-272.253
51
-178.907
0
LINE
8
BLACK
6
CONTINUOUS
10
51.0374
20
-73.7713
11
51.0374
21
-32.5725
0
LINE
8
BLACK
6
CONTINUOUS
10
45.4667
20
-79.9181
11
50.6483
21
-74.7365
0
LINE
8
BLACK
6
CONTINUOUS
10
21.4517
20
-98.9076
11
31.0395
21
-89.3161
0
LINE
8
BLACK
6
CONTINUOUS
10
83.4937
20
-108.282
11
80.5849
21
-97.4106
0
ARC
8
BLACK
10
131.852
20
-26.0011
40
1.28997
50
-3.0476
51
90.5408
0
LINE
8
BLACK
6
CONTINUOUS
10
82.1983
20
-110.542
11
29.0444
21
-124.765
0
ARC
8
BLACK
10
81.7748
20
-108.798
40
1.79481
50
-76.3521
51
16.7239
0
LINE
8
BLACK
6
CONTINUOUS
10
45.0603
20
-80.8833
11
45.0603
21
-88.6049
0
LINE
8
BLACK
6
CONTINUOUS
10
83.1919
20
-86.4378
11
80.5595
21
-96.3946
0
ARC
8
BLACK
10
145.887
20
-31.3407
40
1.32205
50
1.20428
51
90.5976
0
ARC
8
BLACK
10
145.982
20
-88.7387
40
1.22765
50
-85.5267
51
-2.38587
0
LINE
8
BLACK
6
CONTINUOUS
10
137.732
20
-90.6758
11
131.22
21
-97.2074
0
ARC
8
BLACK
10
139.388
20
-92.238
40
2.27631
50
88.395
51
136.663
0
LINE
8
BLACK
6
CONTINUOUS
10
147.208
20
-88.7898
11
147.208
21
-31.3129
0
LINE
8
BLACK
6
CONTINUOUS
10
63.2975
20
-31.0231
11
69.1395
21
-25.1811
0
LINE
8
BLACK
6
CONTINUOUS
10
146.078
20
-89.9626
11
139.452
21
-89.9626
0
ARC
8
BLACK
10
70.2475
20
-26.2492
40
1.53899
50
87.7503
51
136.05
0
LINE
8
BLACK
6
CONTINUOUS
10
134.534
20
-30.0187
11
145.873
21
-30.0187
0
LINE
8
BLACK
6
CONTINUOUS
10
118.774
20
-86.1878
11
129.747
21
-97.2074
0
ARC
8
BLACK
10
28.6279
20
-123.258
40
1.5634
50
-164.979
51
-74.5493
0
ARC
8
BLACK
10
22.5514
20
-100.166
40
1.66775
50
-226.383
51
-164.574
0
ARC
8
BLACK
10
32.612
20
-90.6969
40
2.09269
50
88.5457
51
138.713
0
ARC
8
BLACK
10
134.541
20
-28.6185
40
1.40023
50
-179.918
51
-90.2607
0
ARC
8
BLACK
10
46.2802
20
-80.8288
40
1.2211
50
-228.227
51
-177.443
0
LINE
8
BLACK
6
CONTINUOUS
10
20.9437
20
-100.609
11
27.1178
21
-123.663
0
ARC
8
BLACK
10
62.2381
20
-29.9859
40
1.4826
50
-92.2492
51
-44.3927
0
ARC
8
BLACK
10
49.7843
20
-73.8272
40
1.25432
50
-46.4625
51
2.55489
0
LINE
8
BLACK
6
CONTINUOUS
10
45.0603
20
-88.6049
11
32.6651
21
-88.6049
0
ARC
8
BLACK
10
130.484
20
-96.5123
40
1.01278
50
-136.661
51
-43.3392
0
LINE
8
BLACK
6
CONTINUOUS
10
117.606
20
-85.6758
11
84.1795
21
-85.6758
0
ARC
8
BLACK
10
117.614
20
-87.2462
40
1.57044
50
42.3731
51
90.2987
0
ARC
8
BLACK
10
82.8325
20
-96.8461
40
2.31739
50
-191.235
51
-165.902
0
ARC
8
BLACK
10
84.1826
20
-86.7008
40
1.02499
50
90.1725
51
165.131
0
ARC
8
BLACK
10
145.986
20
-129.081
40
0.994948
50
-44.614
51
46.6611
0
ARC
8
BLACK
10
150.53
20
-31.3407
40
1.32201
50
89.4038
51
178.796
0
LINE
8
BLACK
6
CONTINUOUS
10
134.426
20
-116.847
11
101.253
21
-116.847
0
ARC
8
BLACK
10
150.435
20
-88.7387
40
1.22764
50
-177.614
51
-94.4702
0
ARC
8
BLACK
10
101.538
20
-138.987
40
1.04563
50
-162.285
51
-91.691
0
ARC
8
BLACK
10
101.246
20
-117.87
40
1.02249
50
89.5828
51
159.503
0
ARC
8
BLACK
10
135.375
20
-137.346
40
2.68782
50
-92.1751
51
-44.1062
0
LINE
8
BLACK
6
CONTINUOUS
10
159.284
20
-139.217
11
149.896
21
-129.78
0
ARC
8
BLACK
10
164.565
20
-26.0012
40
1.29008
50
-270.535
51
-176.957
0
ARC
8
BLACK
10
161.214
20
-137.346
40
2.68762
50
-135.896
51
-87.8236
0
ARC
8
BLACK
10
246.632
20
-73.8272
40
1.25427
50
-182.555
51
-133.535
0
LINE
8
BLACK
6
CONTINUOUS
10
165.196
20
-97.2074
11
158.685
21
-90.6758
0
LINE
8
BLACK
6
CONTINUOUS
10
267.372
20
-124.765
11
214.218
21
-110.542
0
LINE
8
BLACK
6
CONTINUOUS
10
226.109
20
-24.7114
11
164.577
21
-24.7112
0
LINE
8
BLACK
6
CONTINUOUS
10
245.768
20
-74.7365
11
250.95
21
-79.9181
0
ARC
8
BLACK
10
134.492
20
-118.514
40
1.66795
50
43.8094
51
92.28
0
LINE
8
BLACK
6
CONTINUOUS
10
215.832
20
-97.4106
11
212.923
21
-108.282
0
LINE
8
BLACK
6
CONTINUOUS
10
146.694
20
-129.78
11
137.305
21
-139.217
0
LINE
8
BLACK
6
CONTINUOUS
10
195.336
20
-116.847
11
162.164
21
-116.847
0
LINE
8
BLACK
6
CONTINUOUS
10
265.377
20
-89.3161
11
274.965
21
-98.9076
0
LINE
8
BLACK
6
CONTINUOUS
10
212.237
20
-85.6758
11
178.811
21
-85.6758
0
ARC
8
BLACK
10
263.805
20
-90.6973
40
2.09308
50
41.2918
51
91.4494
0
LINE
8
BLACK
6
CONTINUOUS
10
227.277
20
-25.1811
11
233.119
21
-31.0231
0
ARC
8
BLACK
10
250.136
20
-80.8289
40
1.22152
50
-2.55178
51
48.2142
0
LINE
8
BLACK
6
CONTINUOUS
10
150.544
20
-30.0187
11
161.883
21
-30.0187
0
LINE
8
BLACK
6
CONTINUOUS
10
245.379
20
-32.5725
11
245.379
21
-73.7713
0
ARC
8
BLACK
10
234.179
20
-29.9861
40
1.48243
50
-135.611
51
-87.7478
0
ARC
8
BLACK
10
162.097
20
-118.514
40
1.66795
50
87.7216
51
136.192
0
LINE
8
BLACK
6
CONTINUOUS
10
198.943
20
-127.468
11
196.301
21
-117.512
0
ARC
8
BLACK
10
157.029
20
-92.2382
40
2.27649
50
43.339
51
91.6032
0
ARC
8
BLACK
10
195.344
20
-117.87
40
1.02246
50
20.4979
51
90.4197
0
LINE
8
BLACK
6
CONTINUOUS
10
195.082
20
-140.032
11
161.316
21
-140.032
0
LINE
8
BLACK
6
CONTINUOUS
10
215.857
20
-96.3946
11
213.225
21
-86.4378
0
ARC
8
BLACK
10
214.642
20
-108.798
40
1.79484
50
-196.723
51
-103.646
0
LINE
8
BLACK
6
CONTINUOUS
10
156.965
20
-89.9626
11
150.339
21
-89.9626
0
LINE
8
BLACK
6
CONTINUOUS
10
269.299
20
-123.663
11
275.473
21
-100.609
0
ARC
8
BLACK
10
226.169
20
-26.2494
40
1.53919
50
43.9538
51
92.2469
0
ARC
8
BLACK
10
195.051
20
-138.987
40
1.04559
50
-88.3115
51
-17.7156
0
ARC
8
BLACK
10
267.789
20
-123.258
40
1.56347
50
-105.451
51
-15.0246
0
ARC
8
BLACK
10
161.876
20
-28.6186
40
1.40014
50
-89.7406
51
-0.0784054
0
ARC
8
BLACK
10
213.584
20
-96.8461
40
2.31738
50
-14.0983
51
11.2355
0
LINE
8
BLACK
6
CONTINUOUS
10
263.752
20
-88.6049
11
251.356
21
-88.6049
0
ARC
8
BLACK
10
212.234
20
-86.7008
40
1.02503
50
14.8681
51
89.8237
0
ARC
8
BLACK
10
244.295
20
-32.5518
40
1.08485
50
-1.0926
51
92.249
0
ARC
8
BLACK
10
150.604
20
-129.081
40
0.994891
50
-226.663
51
-135.384
0
LINE
8
BLACK
6
CONTINUOUS
10
234.237
20
-31.4674
11
244.252
21
-31.4674
0
ARC
8
BLACK
10
165.933
20
-96.5123
40
1.01278
50
-136.661
51
-43.3392
0
LINE
8
BLACK
6
CONTINUOUS
10
149.208
20
-31.3129
11
149.208
21
-88.7898
0
ARC
8
BLACK
10
273.865
20
-100.166
40
1.6678
50
-15.425
51
46.3813
0
LINE
8
BLACK
6
CONTINUOUS
10
198.918
20
-128.484
11
196.047
21
-139.305
0
ARC
8
BLACK
10
99.9193
20
-127.92
40
2.31735
50
-191.236
51
-165.902
0
LINE
8
BLACK
6
CONTINUOUS
10
149.921
20
-128.357
11
160.894
21
-117.359
0
ARC
8
BLACK
10
196.67
20
-127.92
40
2.31733
50
-14.0984
51
11.236
0
LINE
8
BLACK
6
CONTINUOUS
10
135.273
20
-140.032
11
101.507
21
-140.032
0
LINE
8
BLACK
6
CONTINUOUS
10
100.542
20
-139.305
11
97.6717
21
-128.484
0
LINE
8
BLACK
6
CONTINUOUS
10
163.276
20
-26.0697
11
163.276
21
-28.6205
0
LINE
8
BLACK
6
CONTINUOUS
10
135.696
20
-117.359
11
146.668
21
-128.357
0
LINE
8
BLACK
6
CONTINUOUS
10
100.288
20
-117.512
11
97.6463
21
-127.468
0
LINE
8
BLACK
6
CONTINUOUS
10
251.356
20
-88.6049
11
251.356
21
-80.8833
0
LINE
8
BLACK
6
CONTINUOUS
10
166.67
20
-97.2074
11
177.642
21
-86.1878
0
ARC
8
BLACK
10
178.803
20
-87.2462
40
1.57041
50
89.6989
51
137.625
0
LINE
8
BLACK
6
CONTINUOUS
10
106.201
20
-27.3731
11
92.2012
21
-27.3731
0
LINE
8
BLACK
6
CONTINUOUS
10
92.2012
20
-27.3731
11
92.2012
21
-41.3731
0
LINE
8
BLACK
6
CONTINUOUS
10
92.2012
20
-41.3731
11
106.201
21
-41.3731
0
LINE
8
BLACK
6
CONTINUOUS
10
106.201
20
-41.3731
11
106.201
21
-27.3731
0
CIRCLE
8
BLACK
10
48.3249
20
-88.8492
40
1.6
0
CIRCLE
8
BLACK
10
42.8639
20
-117.45
40
1.6
0
LINE
8
BLACK
6
CONTINUOUS
10
87.201
20
-50.1833
11
73.201
21
-50.1833
0
LINE
8
BLACK
6
CONTINUOUS
10
73.201
20
-50.1833
11
73.201
21
-64.1833
0
LINE
8
BLACK
6
CONTINUOUS
10
73.201
20
-64.1833
11
87.201
21
-64.1833
0
LINE
8
BLACK
6
CONTINUOUS
10
87.201
20
-64.1833
11
87.201
21
-50.1833
0
LINE
8
BLACK
6
CONTINUOUS
10
144.201
20
-52.1829
11
130.201
21
-52.1829
0
LINE
8
BLACK
6
CONTINUOUS
10
130.201
20
-52.1829
11
130.201
21
-66.1829
0
LINE
8
BLACK
6
CONTINUOUS
10
130.201
20
-66.1829
11
144.201
21
-66.1829
0
LINE
8
BLACK
6
CONTINUOUS
10
144.201
20
-66.1829
11
144.201
21
-52.1829
0
LINE
8
BLACK
6
CONTINUOUS
10
75.6909
20
-91.1984
11
62.1679
21
-94.8219
0
LINE
8
BLACK
6
CONTINUOUS
10
62.1679
20
-94.8219
11
65.7914
21
-108.345
0
LINE
8
BLACK
6
CONTINUOUS
10
65.7914
20
-108.345
11
79.3144
21
-104.721
0
LINE
8
BLACK
6
CONTINUOUS
10
79.3144
20
-104.721
11
75.6909
21
-91.1984
0
LINE
8
BLACK
6
CONTINUOUS
10
68.2013
20
-53.1837
11
54.2013
21
-53.1837
0
LINE
8
BLACK
6
CONTINUOUS
10
54.2013
20
-53.1837
11
54.2013
21
-67.1837
0
LINE
8
BLACK
6
CONTINUOUS
10
54.2013
20
-67.1837
11
68.2013
21
-67.1837
0
LINE
8
BLACK
6
CONTINUOUS
10
68.2013
20
-67.1837
11
68.2013
21
-53.1837
0
CIRCLE
8
BLACK
10
34.1651
20
-92.6084
40
1.6
0
LINE
8
BLACK
6
CONTINUOUS
10
144.201
20
-71.1833
11
130.201
21
-71.1833
0
LINE
8
BLACK
6
CONTINUOUS
10
130.201
20
-71.1833
11
130.201
21
-85.1833
0
LINE
8
BLACK
6
CONTINUOUS
10
130.201
20
-85.1833
11
144.201
21
-85.1833
0
LINE
8
BLACK
6
CONTINUOUS
10
144.201
20
-85.1833
11
144.201
21
-71.1833
0
LINE
8
BLACK
6
CONTINUOUS
10
38.3395
20
-99.9356
11
24.8165
21
-103.559
0
LINE
8
BLACK
6
CONTINUOUS
10
24.8165
20
-103.559
11
28.44
21
-117.082
0
LINE
8
BLACK
6
CONTINUOUS
10
28.44
20
-117.082
11
41.9629
21
-113.459
0
LINE
8
BLACK
6
CONTINUOUS
10
41.9629
20
-113.459
11
38.3395
21
-99.9356
0
LINE
8
BLACK
6
CONTINUOUS
10
68.2013
20
-34.1839
11
54.2013
21
-34.1839
0
LINE
8
BLACK
6
CONTINUOUS
10
54.2013
20
-34.1839
11
54.2013
21
-48.1839
0
LINE
8
BLACK
6
CONTINUOUS
10
54.2013
20
-48.1839
11
68.2013
21
-48.1839
0
LINE
8
BLACK
6
CONTINUOUS
10
68.2013
20
-48.1839
11
68.2013
21
-34.1839
0
CIRCLE
8
BLACK
10
72.3907
20
-87.4337
40
1.6
0
LINE
8
BLACK
6
CONTINUOUS
10
57.4911
20
-97.3448
11
43.9681
21
-100.968
0
LINE
8
BLACK
6
CONTINUOUS
10
43.9681
20
-100.968
11
47.5916
21
-114.491
0
LINE
8
BLACK
6
CONTINUOUS
10
47.5916
20
-114.491
11
61.1145
21
-110.868
0
LINE
8
BLACK
6
CONTINUOUS
10
61.1145
20
-110.868
11
57.4911
21
-97.3448
0
LINE
8
BLACK
6
CONTINUOUS
10
144.201
20
-33.1825
11
130.201
21
-33.1825
0
LINE
8
BLACK
6
CONTINUOUS
10
130.201
20
-33.1825
11
130.201
21
-47.1825
0
LINE
8
BLACK
6
CONTINUOUS
10
130.201
20
-47.1825
11
144.201
21
-47.1825
0
LINE
8
BLACK
6
CONTINUOUS
10
144.201
20
-47.1825
11
144.201
21
-33.1825
0
LINE
8
BLACK
6
CONTINUOUS
10
68.2013
20
-72.1837
11
54.2013
21
-72.1837
0
LINE
8
BLACK
6
CONTINUOUS
10
54.2013
20
-72.1837
11
54.2013
21
-86.1837
0
LINE
8
BLACK
6
CONTINUOUS
10
54.2013
20
-86.1837
11
68.2013
21
-86.1837
0
LINE
8
BLACK
6
CONTINUOUS
10
68.2013
20
-86.1837
11
68.2013
21
-72.1837
0
LINE
8
BLACK
6
CONTINUOUS
10
106.201
20
-65.3733
11
92.2012
21
-65.3733
0
LINE
8
BLACK
6
CONTINUOUS
10
92.2012
20
-65.3733
11
92.2012
21
-79.3733
0
LINE
8
BLACK
6
CONTINUOUS
10
92.2012
20
-79.3733
11
106.201
21
-79.3733
0
LINE
8
BLACK
6
CONTINUOUS
10
106.201
20
-79.3733
11
106.201
21
-65.3733
0
CIRCLE
8
BLACK
10
129.351
20
-29.0534
40
1.6
0
LINE
8
BLACK
6
CONTINUOUS
10
125.201
20
-69.1831
11
111.201
21
-69.1831
0
LINE
8
BLACK
6
CONTINUOUS
10
111.201
20
-69.1831
11
111.201
21
-83.1831
0
LINE
8
BLACK
6
CONTINUOUS
10
111.201
20
-83.1831
11
125.201
21
-83.1831
0
LINE
8
BLACK
6
CONTINUOUS
10
125.201
20
-83.1831
11
125.201
21
-69.1831
0
LINE
8
BLACK
6
CONTINUOUS
10
106.201
20
-46.3731
11
92.2012
21
-46.3731
0
LINE
8
BLACK
6
CONTINUOUS
10
92.2012
20
-46.3731
11
92.2012
21
-60.3731
0
LINE
8
BLACK
6
CONTINUOUS
10
92.2012
20
-60.3731
11
106.201
21
-60.3731
0
LINE
8
BLACK
6
CONTINUOUS
10
106.201
20
-60.3731
11
106.201
21
-46.3731
0
CIRCLE
8
BLACK
10
68.9998
20
-29.9952
40
1.6
0
LINE
8
BLACK
6
CONTINUOUS
10
87.201
20
-69.1837
11
73.201
21
-69.1837
0
LINE
8
BLACK
6
CONTINUOUS
10
73.201
20
-69.1837
11
73.201
21
-83.1837
0
LINE
8
BLACK
6
CONTINUOUS
10
73.201
20
-83.1837
11
87.201
21
-83.1837
0
LINE
8
BLACK
6
CONTINUOUS
10
87.201
20
-83.1837
11
87.201
21
-69.1837
0
CIRCLE
8
BLACK
10
126.048
20
-87.371
40
1.6
0
LINE
8
BLACK
6
CONTINUOUS
10
87.201
20
-31.1833
11
73.201
21
-31.1833
0
LINE
8
BLACK
6
CONTINUOUS
10
73.201
20
-31.1833
11
73.201
21
-45.1833
0
LINE
8
BLACK
6
CONTINUOUS
10
73.201
20
-45.1833
11
87.201
21
-45.1833
0
LINE
8
BLACK
6
CONTINUOUS
10
87.201
20
-45.1833
11
87.201
21
-31.1833
0
LINE
8
BLACK
6
CONTINUOUS
10
125.201
20
-31.1839
11
111.201
21
-31.1839
0
LINE
8
BLACK
6
CONTINUOUS
10
111.201
20
-31.1839
11
111.201
21
-45.1839
0
LINE
8
BLACK
6
CONTINUOUS
10
111.201
20
-45.1839
11
125.201
21
-45.1839
0
LINE
8
BLACK
6
CONTINUOUS
10
125.201
20
-45.1839
11
125.201
21
-31.1839
0
LINE
8
BLACK
6
CONTINUOUS
10
125.201
20
-50.1835
11
111.201
21
-50.1835
0
LINE
8
BLACK
6
CONTINUOUS
10
111.201
20
-50.1835
11
111.201
21
-64.1835
0
LINE
8
BLACK
6
CONTINUOUS
10
111.201
20
-64.1835
11
125.201
21
-64.1835
0
LINE
8
BLACK
6
CONTINUOUS
10
125.201
20
-64.1835
11
125.201
21
-50.1835
0
LINE
8
BLACK
6
CONTINUOUS
10
171.216
20
-69.1831
11
185.216
21
-69.1831
0
LINE
8
BLACK
6
CONTINUOUS
10
185.216
20
-69.1831
11
185.216
21
-83.1831
0
LINE
8
BLACK
6
CONTINUOUS
10
185.216
20
-83.1831
11
171.216
21
-83.1831
0
LINE
8
BLACK
6
CONTINUOUS
10
171.216
20
-83.1831
11
171.216
21
-69.1831
0
LINE
8
BLACK
6
CONTINUOUS
10
171.216
20
-50.1835
11
185.216
21
-50.1835
0
LINE
8
BLACK
6
CONTINUOUS
10
185.216
20
-50.1835
11
185.216
21
-64.1835
0
LINE
8
BLACK
6
CONTINUOUS
10
185.216
20
-64.1835
11
171.216
21
-64.1835
0
LINE
8
BLACK
6
CONTINUOUS
10
171.216
20
-64.1835
11
171.216
21
-50.1835
0
LINE
8
BLACK
6
CONTINUOUS
10
258.907
20
-101.09
11
270.305
21
-104.144
0
LINE
8
BLACK
6
CONTINUOUS
10
270.305
20
-104.144
11
267.147
21
-115.928
0
LINE
8
BLACK
6
CONTINUOUS
10
267.147
20
-115.928
11
255.749
21
-112.874
0
LINE
8
BLACK
6
CONTINUOUS
10
255.749
20
-112.874
11
258.907
21
-101.09
0
CIRCLE
8
BLACK
10
227.417
20
-29.9952
40
1.6
0
CIRCLE
8
BLACK
10
164.758
20
-128.539
40
5.025
0
LINE
8
BLACK
6
CONTINUOUS
10
152.216
20
-33.1825
11
166.216
21
-33.1825
0
LINE
8
BLACK
6
CONTINUOUS
10
166.216
20
-33.1825
11
166.216
21
-47.1825
0
LINE
8
BLACK
6
CONTINUOUS
10
166.216
20
-47.1825
11
152.216
21
-47.1825
0
LINE
8
BLACK
6
CONTINUOUS
10
152.216
20
-47.1825
11
152.216
21
-33.1825
0
LINE
8
BLACK
6
CONTINUOUS
10
152.216
20
-52.1829
11
166.216
21
-52.1829
0
LINE
8
BLACK
6
CONTINUOUS
10
166.216
20
-52.1829
11
166.216
21
-66.1829
0
LINE
8
BLACK
6
CONTINUOUS
10
166.216
20
-66.1829
11
152.216
21
-66.1829
0
LINE
8
BLACK
6
CONTINUOUS
10
152.216
20
-66.1829
11
152.216
21
-52.1829
0
CIRCLE
8
BLACK
10
224.026
20
-87.4337
40
1.6
0
CIRCLE
8
BLACK
10
248.092
20
-88.8492
40
1.6
0
CIRCLE
8
BLACK
10
170.369
20
-87.371
40
1.6
0
CIRCLE
8
BLACK
10
262.252
20
-92.6084
40
1.6
0
LINE
8
BLACK
6
CONTINUOUS
10
238.926
20
-97.3448
11
252.449
21
-100.968
0
LINE
8
BLACK
6
CONTINUOUS
10
252.449
20
-100.968
11
248.825
21
-114.491
0
LINE
8
BLACK
6
CONTINUOUS
10
248.825
20
-114.491
11
235.302
21
-110.868
0
LINE
8
BLACK
6
CONTINUOUS
10
235.302
20
-110.868
11
238.926
21
-97.3448
0
CIRCLE
8
BLACK
10
180.416
20
-128.539
40
5.025
0
LINE
8
BLACK
6
CONTINUOUS
10
190.216
20
-65.3733
11
204.216
21
-65.3733
0
LINE
8
BLACK
6
CONTINUOUS
10
204.216
20
-65.3733
11
204.216
21
-79.3733
0
LINE
8
BLACK
6
CONTINUOUS
10
204.216
20
-79.3733
11
190.216
21
-79.3733
0
LINE
8
BLACK
6
CONTINUOUS
10
190.216
20
-79.3733
11
190.216
21
-65.3733
0
CIRCLE
8
BLACK
10
253.553
20
-117.45
40
1.6
0
LINE
8
BLACK
6
CONTINUOUS
10
209.216
20
-31.1833
11
223.216
21
-31.1833
0
LINE
8
BLACK
6
CONTINUOUS
10
223.216
20
-31.1833
11
223.216
21
-45.1833
0
LINE
8
BLACK
6
CONTINUOUS
10
223.216
20
-45.1833
11
209.216
21
-45.1833
0
LINE
8
BLACK
6
CONTINUOUS
10
209.216
20
-45.1833
11
209.216
21
-31.1833
0
LINE
8
BLACK
6
CONTINUOUS
10
171.216
20
-31.1839
11
185.216
21
-31.1839
0
LINE
8
BLACK
6
CONTINUOUS
10
185.216
20
-31.1839
11
185.216
21
-45.1839
0
LINE
8
BLACK
6
CONTINUOUS
10
185.216
20
-45.1839
11
171.216
21
-45.1839
0
LINE
8
BLACK
6
CONTINUOUS
10
171.216
20
-45.1839
11
171.216
21
-31.1839
0
LINE
8
BLACK
6
CONTINUOUS
10
228.215
20
-34.1839
11
242.215
21
-34.1839
0
LINE
8
BLACK
6
CONTINUOUS
10
242.215
20
-34.1839
11
242.215
21
-48.1839
0
LINE
8
BLACK
6
CONTINUOUS
10
242.215
20
-48.1839
11
228.215
21
-48.1839
0
LINE
8
BLACK
6
CONTINUOUS
10
228.215
20
-48.1839
11
228.215
21
-34.1839
0
LINE
8
BLACK
6
CONTINUOUS
10
209.216
20
-69.1837
11
223.216
21
-69.1837
0
LINE
8
BLACK
6
CONTINUOUS
10
223.216
20
-69.1837
11
223.216
21
-83.1837
0
LINE
8
BLACK
6
CONTINUOUS
10
223.216
20
-83.1837
11
209.216
21
-83.1837
0
LINE
8
BLACK
6
CONTINUOUS
10
209.216
20
-83.1837
11
209.216
21
-69.1837
0
LINE
8
BLACK
6
CONTINUOUS
10
220.726
20
-91.1984
11
234.249
21
-94.8219
0
LINE
8
BLACK
6
CONTINUOUS
10
234.249
20
-94.8219
11
230.625
21
-108.345
0
LINE
8
BLACK
6
CONTINUOUS
10
230.625
20
-108.345
11
217.102
21
-104.721
0
LINE
8
BLACK
6
CONTINUOUS
10
217.102
20
-104.721
11
220.726
21
-91.1984
0
CIRCLE
8
BLACK
10
194.802
20
-128.539
40
1.6
0
LINE
8
BLACK
6
CONTINUOUS
10
228.215
20
-72.1837
11
242.215
21
-72.1837
0
LINE
8
BLACK
6
CONTINUOUS
10
242.215
20
-72.1837
11
242.215
21
-86.1837
0
LINE
8
BLACK
6
CONTINUOUS
10
242.215
20
-86.1837
11
228.215
21
-86.1837
0
LINE
8
BLACK
6
CONTINUOUS
10
228.215
20
-86.1837
11
228.215
21
-72.1837
0
LINE
8
BLACK
6
CONTINUOUS
10
209.216
20
-50.1833
11
223.216
21
-50.1833
0
LINE
8
BLACK
6
CONTINUOUS
10
223.216
20
-50.1833
11
223.216
21
-64.1833
0
LINE
8
BLACK
6
CONTINUOUS
10
223.216
20
-64.1833
11
209.216
21
-64.1833
0
LINE
8
BLACK
6
CONTINUOUS
10
209.216
20
-64.1833
11
209.216
21
-50.1833
0
LINE
8
BLACK
6
CONTINUOUS
10
228.215
20
-53.1837
11
242.215
21
-53.1837
0
LINE
8
BLACK
6
CONTINUOUS
10
242.215
20
-53.1837
11
242.215
21
-67.1837
0
LINE
8
BLACK
6
CONTINUOUS
10
242.215
20
-67.1837
11
228.215
21
-67.1837
0
LINE
8
BLACK
6
CONTINUOUS
10
228.215
20
-67.1837
11
228.215
21
-53.1837
0
LINE
8
BLACK
6
CONTINUOUS
10
190.216
20
-27.3731
11
204.216
21
-27.3731
0
LINE
8
BLACK
6
CONTINUOUS
10
204.216
20
-27.3731
11
204.216
21
-41.3731
0
LINE
8
BLACK
6
CONTINUOUS
10
204.216
20
-41.3731
11
190.216
21
-41.3731
0
LINE
8
BLACK
6
CONTINUOUS
10
190.216
20
-41.3731
11
190.216
21
-27.3731
0
CIRCLE
8
BLACK
10
156.566
20
-128.539
40
1.6
0
CIRCLE
8
BLACK
10
167.066
20
-29.0534
40
1.6
0
LINE
8
BLACK
6
CONTINUOUS
10
190.216
20
-46.3731
11
204.216
21
-46.3731
0
LINE
8
BLACK
6
CONTINUOUS
10
204.216
20
-46.3731
11
204.216
21
-60.3731
0
LINE
8
BLACK
6
CONTINUOUS
10
204.216
20
-60.3731
11
190.216
21
-60.3731
0
LINE
8
BLACK
6
CONTINUOUS
10
190.216
20
-60.3731
11
190.216
21
-46.3731
0
LINE
8
BLACK
6
CONTINUOUS
10
152.216
20
-71.1833
11
166.216
21
-71.1833
0
LINE
8
BLACK
6
CONTINUOUS
10
166.216
20
-71.1833
11
166.216
21
-85.1833
0
LINE
8
BLACK
6
CONTINUOUS
10
166.216
20
-85.1833
11
152.216
21
-85.1833
0
LINE
8
BLACK
6
CONTINUOUS
10
152.216
20
-85.1833
11
152.216
21
-71.1833
0
CIRCLE
8
BLACK
10
140.024
20
-128.539
40
1.6
0
CIRCLE
8
BLACK
10
116.173
20
-128.539
40
5.025
0
CIRCLE
8
BLACK
10
101.787
20
-128.539
40
1.6
0
CIRCLE
8
BLACK
10
131.831
20
-128.539
40
5.025
  0
ENDSEC
  0
EOF
