  0
SECTION
  2
HEADER
  9
$ANGBASE
  50
0.0
  9
$ANGDIR
  70
1
  9
$MEASUREMENT
  70
1
  0
ENDSEC
  0
SECTION
  2
TABLES
  0
TABLE
  2
LTYPE
  70
4
  0
LTYPE
  5
40F
  2
CONTINUOUS
  70
0
  3
Solid line
  72
65
  73
0
  40
0.0
  0
LTYPE
  5
410
  2
DASHDOT
 70
0
  3
Dash Dot ____ _ ____ _
 72
65
 73
4
 40
2.0
 49
1.25
 49
-0.25
 49
0.25
 49
-0.25
  0
LTYPE
  5
411
  2
DASHED
 70
0
  3
Dashed __ __ __ __ __
 72
65
 73
2
 40
0.75
 49
0.5
 49
-0.25
  0
LTYPE
  5
43B
  2
DOTTED
 70
0
  3
Dotted .  .  .  .
 72
65
 73
2
 40
0.2
 49
0.0
 49
-0.2
  0
ENDTAB
  0
TABLE
  2
STYLE
  70
4
  0
STYLE
  2
KICAD
  70
0
  40
0
  41
1
  42
1
  50
0
  71
0
  3
isocp.shx
  0
STYLE
  2
KICADB
  70
0
  40
0
  41
1
  42
1
  50
0
  71
0
  3
isocp.shx
  0
STYLE
  2
KICADI
  70
0
  40
0
  41
1
  42
1
  50
15
  71
0
  3
isocp.shx
  0
STYLE
  2
KICADBI
  70
0
  40
0
  41
1
  42
1
  50
15
  71
0
  3
isocp.shx
  0
ENDTAB
  0
TABLE
  2
LAYER
  70
1
  0
LAYER
  2
BLACK
  70
0
  62
7
  6
CONTINUOUS
  0
ENDTAB
  0
ENDSEC
  0
SECTION
  2
ENTITIES
0
LINE
8
BLACK
6
CONTINUOUS
10
133.684
20
-51.178
11
72.1521
21
-51.1782
0
ARC
8
BLACK
10
152.374
20
-57.8075
40
1.32205
50
89.4057
51
178.796
0
LINE
8
BLACK
6
CONTINUOUS
10
134.985
20
-55.0873
11
134.985
21
-52.5365
0
ARC
8
BLACK
10
152.279
20
-115.206
40
1.22764
50
-177.614
51
-94.4722
0
LINE
8
BLACK
6
CONTINUOUS
10
177.928
20
-134.61
11
160.529
21
-117.143
0
ARC
8
BLACK
10
166.409
20
-52.468
40
1.29002
50
-270.537
51
-176.957
0
LINE
8
BLACK
6
CONTINUOUS
10
54.0088
20
-57.9342
11
64.0241
21
-57.9342
0
ARC
8
BLACK
10
53.9662
20
-59.0186
40
1.08487
50
-272.25
51
-178.907
0
ARC
8
BLACK
10
64.0823
20
-56.4528
40
1.4825
50
-92.2511
51
-44.3911
0
ARC
8
BLACK
10
179.858
20
-132.739
40
2.68773
50
-135.894
51
-87.8237
0
LINE
8
BLACK
6
CONTINUOUS
10
147.922
20
-116.429
11
141.296
21
-116.429
0
LINE
8
BLACK
6
CONTINUOUS
10
52.8815
20
-100.238
11
52.8815
21
-59.0393
0
ARC
8
BLACK
10
48.1245
20
-107.296
40
1.22125
50
-228.222
51
-177.443
0
ARC
8
BLACK
10
147.731
20
-57.8075
40
1.32205
50
1.20422
51
90.5951
0
LINE
8
BLACK
6
CONTINUOUS
10
149.053
20
-115.257
11
149.053
21
-57.7797
0
LINE
8
BLACK
6
CONTINUOUS
10
46.9045
20
-107.35
11
46.9045
21
-115.072
0
ARC
8
BLACK
10
248.477
20
-100.294
40
1.2543
50
-182.555
51
-133.537
0
LINE
8
BLACK
6
CONTINUOUS
10
139.576
20
-117.143
11
122.177
21
-134.61
0
LINE
8
BLACK
6
CONTINUOUS
10
269.217
20
-151.232
11
211.722
21
-135.859
0
LINE
8
BLACK
6
CONTINUOUS
10
227.953
20
-51.1782
11
166.421
21
-51.178
0
LINE
8
BLACK
6
CONTINUOUS
10
247.613
20
-101.203
11
252.794
21
-106.385
0
ARC
8
BLACK
10
208.701
20
-146.311
40
10.8795
50
73.8775
51
90.8765
0
ARC
8
BLACK
10
51.6285
20
-100.294
40
1.25428
50
-46.464
51
2.55497
0
ARC
8
BLACK
10
133.696
20
-52.468
40
1.29007
50
-3.04303
51
90.5383
0
ARC
8
BLACK
10
72.0916
20
-52.7159
40
1.53888
50
87.7481
51
136.051
0
LINE
8
BLACK
6
CONTINUOUS
10
267.221
20
-115.783
11
276.809
21
-125.374
0
ARC
8
BLACK
10
120.247
20
-132.739
40
2.68777
50
-92.1746
51
-44.1045
0
LINE
8
BLACK
6
CONTINUOUS
10
46.9045
20
-115.072
11
34.5093
21
-115.072
0
ARC
8
BLACK
10
265.649
20
-117.164
40
2.09288
50
41.2885
51
91.4508
0
LINE
8
BLACK
6
CONTINUOUS
10
88.3827
20
-135.859
11
30.8886
21
-151.232
0
LINE
8
BLACK
6
CONTINUOUS
10
229.121
20
-51.6479
11
234.963
21
-57.4899
0
LINE
8
BLACK
6
CONTINUOUS
10
47.3109
20
-106.385
11
52.4925
21
-101.203
0
LINE
8
BLACK
6
CONTINUOUS
10
136.378
20
-56.4855
11
147.717
21
-56.4855
0
ARC
8
BLACK
10
251.98
20
-107.296
40
1.22128
50
-2.55698
51
48.2196
0
LINE
8
BLACK
6
CONTINUOUS
10
152.388
20
-56.4855
11
163.727
21
-56.4855
0
LINE
8
BLACK
6
CONTINUOUS
10
247.224
20
-59.0393
11
247.224
21
-100.238
0
ARC
8
BLACK
10
236.023
20
-56.4528
40
1.48253
50
-135.609
51
-87.7497
0
LINE
8
BLACK
6
CONTINUOUS
10
22.7879
20
-127.076
11
28.962
21
-150.13
0
LINE
8
BLACK
6
CONTINUOUS
10
23.2959
20
-125.374
11
32.8837
21
-115.783
0
ARC
8
BLACK
10
141.232
20
-118.705
40
2.27627
50
88.3936
51
136.662
0
ARC
8
BLACK
10
158.873
20
-118.705
40
2.27639
50
43.338
51
91.6043
0
LINE
8
BLACK
6
CONTINUOUS
10
208.535
20
-135.433
11
179.96
21
-135.425
0
ARC
8
BLACK
10
136.385
20
-55.0853
40
1.40024
50
-179.918
51
-90.2625
0
ARC
8
BLACK
10
24.3955
20
-126.633
40
1.6677
50
-226.384
51
-164.574
0
LINE
8
BLACK
6
CONTINUOUS
10
158.809
20
-116.429
11
152.183
21
-116.429
0
ARC
8
BLACK
10
34.4563
20
-117.164
40
2.09293
50
88.5498
51
138.712
0
LINE
8
BLACK
6
CONTINUOUS
10
65.1417
20
-57.4899
11
70.9837
21
-51.6479
0
LINE
8
BLACK
6
CONTINUOUS
10
271.143
20
-150.13
11
277.317
21
-127.076
0
ARC
8
BLACK
10
228.013
20
-52.7159
40
1.53889
50
43.9469
51
92.2489
0
ARC
8
BLACK
10
147.826
20
-115.206
40
1.2277
50
-85.5241
51
-2.38576
0
ARC
8
BLACK
10
30.472
20
-149.725
40
1.56332
50
-164.982
51
-74.5464
0
ARC
8
BLACK
10
269.633
20
-149.725
40
1.56352
50
-105.449
51
-15.024
0
ARC
8
BLACK
10
91.4038
20
-146.31
40
10.8785
50
89.123
51
106.124
0
ARC
8
BLACK
10
163.72
20
-55.0854
40
1.4001
50
-89.7424
51
-0.0784078
0
LINE
8
BLACK
6
CONTINUOUS
10
120.145
20
-135.425
11
91.5703
21
-135.433
0
LINE
8
BLACK
6
CONTINUOUS
10
265.596
20
-115.072
11
253.201
21
-115.072
0
ARC
8
BLACK
10
246.139
20
-59.0186
40
1.08485
50
-1.09264
51
92.2513
0
LINE
8
BLACK
6
CONTINUOUS
10
236.081
20
-57.9342
11
246.096
21
-57.9342
0
LINE
8
BLACK
6
CONTINUOUS
10
151.053
20
-57.7797
11
151.053
21
-115.257
0
ARC
8
BLACK
10
275.709
20
-126.633
40
1.66777
50
-15.4254
51
46.3824
0
LINE
8
BLACK
6
CONTINUOUS
10
165.12
20
-52.5365
11
165.12
21
-55.0873
0
LINE
8
BLACK
6
CONTINUOUS
10
253.201
20
-115.072
11
253.201
21
-107.35
0
LINE
8
BLACK
6
CONTINUOUS
10
270.387
20
-144.529
11
255.318
21
-140.491
0
LINE
8
BLACK
6
CONTINUOUS
10
255.318
20
-140.491
11
259.356
21
-125.423
0
LINE
8
BLACK
6
CONTINUOUS
10
259.356
20
-125.423
11
274.424
21
-129.46
0
LINE
8
BLACK
6
CONTINUOUS
10
274.424
20
-129.46
11
270.387
21
-144.529
0
LINE
8
BLACK
6
CONTINUOUS
10
172.26
20
-94.8499
11
187.86
21
-94.8499
0
LINE
8
BLACK
6
CONTINUOUS
10
187.86
20
-94.8499
11
187.86
21
-110.45
0
LINE
8
BLACK
6
CONTINUOUS
10
187.86
20
-110.45
11
172.26
21
-110.45
0
LINE
8
BLACK
6
CONTINUOUS
10
172.26
20
-110.45
11
172.26
21
-94.8499
0
LINE
8
BLACK
6
CONTINUOUS
10
172.26
20
-75.8503
11
187.86
21
-75.8503
0
LINE
8
BLACK
6
CONTINUOUS
10
187.86
20
-75.8503
11
187.86
21
-91.4503
0
LINE
8
BLACK
6
CONTINUOUS
10
187.86
20
-91.4503
11
172.26
21
-91.4503
0
LINE
8
BLACK
6
CONTINUOUS
10
172.26
20
-91.4503
11
172.26
21
-75.8503
0
CIRCLE
8
BLACK
10
229.261
20
-56.462
40
1.6
0
CIRCLE
8
BLACK
10
183.402
20
-123.932
40
6.025
0
LINE
8
BLACK
6
CONTINUOUS
10
153.26
20
-58.8493
11
168.86
21
-58.8493
0
LINE
8
BLACK
6
CONTINUOUS
10
168.86
20
-58.8493
11
168.86
21
-74.4493
0
LINE
8
BLACK
6
CONTINUOUS
10
168.86
20
-74.4493
11
153.26
21
-74.4493
0
LINE
8
BLACK
6
CONTINUOUS
10
153.26
20
-74.4493
11
153.26
21
-58.8493
0
LINE
8
BLACK
6
CONTINUOUS
10
153.26
20
-77.8497
11
168.86
21
-77.8497
0
LINE
8
BLACK
6
CONTINUOUS
10
168.86
20
-77.8497
11
168.86
21
-93.4497
0
LINE
8
BLACK
6
CONTINUOUS
10
168.86
20
-93.4497
11
153.26
21
-93.4497
0
LINE
8
BLACK
6
CONTINUOUS
10
153.26
20
-93.4497
11
153.26
21
-77.8497
0
CIRCLE
8
BLACK
10
225.87
20
-113.9
40
1.6
0
CIRCLE
8
BLACK
10
249.936
20
-115.316
40
1.6
0
CIRCLE
8
BLACK
10
172.213
20
-113.838
40
1.6
0
CIRCLE
8
BLACK
10
264.096
20
-119.075
40
1.6
0
LINE
8
BLACK
6
CONTINUOUS
10
240.204
20
-122.832
11
255.273
21
-126.869
0
LINE
8
BLACK
6
CONTINUOUS
10
255.273
20
-126.869
11
251.235
21
-141.938
0
LINE
8
BLACK
6
CONTINUOUS
10
251.235
20
-141.938
11
236.167
21
-137.9
0
LINE
8
BLACK
6
CONTINUOUS
10
236.167
20
-137.9
11
240.204
21
-122.832
0
CIRCLE
8
BLACK
10
199.06
20
-123.932
40
6.025
0
LINE
8
BLACK
6
CONTINUOUS
10
191.26
20
-91.0401
11
206.86
21
-91.0401
0
LINE
8
BLACK
6
CONTINUOUS
10
206.86
20
-91.0401
11
206.86
21
-106.64
0
LINE
8
BLACK
6
CONTINUOUS
10
206.86
20
-106.64
11
191.26
21
-106.64
0
LINE
8
BLACK
6
CONTINUOUS
10
191.26
20
-106.64
11
191.26
21
-91.0401
0
CIRCLE
8
BLACK
10
255.397
20
-143.916
40
1.6
0
LINE
8
BLACK
6
CONTINUOUS
10
210.26
20
-56.8501
11
225.86
21
-56.8501
0
LINE
8
BLACK
6
CONTINUOUS
10
225.86
20
-56.8501
11
225.86
21
-72.4501
0
LINE
8
BLACK
6
CONTINUOUS
10
225.86
20
-72.4501
11
210.26
21
-72.4501
0
LINE
8
BLACK
6
CONTINUOUS
10
210.26
20
-72.4501
11
210.26
21
-56.8501
0
LINE
8
BLACK
6
CONTINUOUS
10
172.26
20
-56.8507
11
187.86
21
-56.8507
0
LINE
8
BLACK
6
CONTINUOUS
10
187.86
20
-56.8507
11
187.86
21
-72.4507
0
LINE
8
BLACK
6
CONTINUOUS
10
187.86
20
-72.4507
11
172.26
21
-72.4507
0
LINE
8
BLACK
6
CONTINUOUS
10
172.26
20
-72.4507
11
172.26
21
-56.8507
0
LINE
8
BLACK
6
CONTINUOUS
10
229.26
20
-59.8507
11
244.86
21
-59.8507
0
LINE
8
BLACK
6
CONTINUOUS
10
244.86
20
-59.8507
11
244.86
21
-75.4507
0
LINE
8
BLACK
6
CONTINUOUS
10
244.86
20
-75.4507
11
229.26
21
-75.4507
0
LINE
8
BLACK
6
CONTINUOUS
10
229.26
20
-75.4507
11
229.26
21
-59.8507
0
LINE
8
BLACK
6
CONTINUOUS
10
210.26
20
-94.8505
11
225.86
21
-94.8505
0
LINE
8
BLACK
6
CONTINUOUS
10
225.86
20
-94.8505
11
225.86
21
-110.45
0
LINE
8
BLACK
6
CONTINUOUS
10
225.86
20
-110.45
11
210.26
21
-110.45
0
LINE
8
BLACK
6
CONTINUOUS
10
210.26
20
-110.45
11
210.26
21
-94.8505
0
LINE
8
BLACK
6
CONTINUOUS
10
222.004
20
-116.685
11
237.073
21
-120.723
0
LINE
8
BLACK
6
CONTINUOUS
10
237.073
20
-120.723
11
233.035
21
-135.791
0
LINE
8
BLACK
6
CONTINUOUS
10
233.035
20
-135.791
11
217.967
21
-131.754
0
LINE
8
BLACK
6
CONTINUOUS
10
217.967
20
-131.754
11
222.004
21
-116.685
0
CIRCLE
8
BLACK
10
213.445
20
-123.932
40
1.6
0
LINE
8
BLACK
6
CONTINUOUS
10
229.26
20
-97.8505
11
244.86
21
-97.8505
0
LINE
8
BLACK
6
CONTINUOUS
10
244.86
20
-97.8505
11
244.86
21
-113.45
0
LINE
8
BLACK
6
CONTINUOUS
10
244.86
20
-113.45
11
229.26
21
-113.45
0
LINE
8
BLACK
6
CONTINUOUS
10
229.26
20
-113.45
11
229.26
21
-97.8505
0
LINE
8
BLACK
6
CONTINUOUS
10
210.26
20
-75.8501
11
225.86
21
-75.8501
0
LINE
8
BLACK
6
CONTINUOUS
10
225.86
20
-75.8501
11
225.86
21
-91.4501
0
LINE
8
BLACK
6
CONTINUOUS
10
225.86
20
-91.4501
11
210.26
21
-91.4501
0
LINE
8
BLACK
6
CONTINUOUS
10
210.26
20
-91.4501
11
210.26
21
-75.8501
0
LINE
8
BLACK
6
CONTINUOUS
10
229.26
20
-78.8505
11
244.86
21
-78.8505
0
LINE
8
BLACK
6
CONTINUOUS
10
244.86
20
-78.8505
11
244.86
21
-94.4505
0
LINE
8
BLACK
6
CONTINUOUS
10
244.86
20
-94.4505
11
229.26
21
-94.4505
0
LINE
8
BLACK
6
CONTINUOUS
10
229.26
20
-94.4505
11
229.26
21
-78.8505
0
LINE
8
BLACK
6
CONTINUOUS
10
191.26
20
-53.0399
11
206.86
21
-53.0399
0
LINE
8
BLACK
6
CONTINUOUS
10
206.86
20
-53.0399
11
206.86
21
-68.6399
0
LINE
8
BLACK
6
CONTINUOUS
10
206.86
20
-68.6399
11
191.26
21
-68.6399
0
LINE
8
BLACK
6
CONTINUOUS
10
191.26
20
-68.6399
11
191.26
21
-53.0399
0
CIRCLE
8
BLACK
10
175.209
20
-123.932
40
1.6
0
CIRCLE
8
BLACK
10
168.91
20
-55.5202
40
1.6
0
LINE
8
BLACK
6
CONTINUOUS
10
191.26
20
-72.0399
11
206.86
21
-72.0399
0
LINE
8
BLACK
6
CONTINUOUS
10
206.86
20
-72.0399
11
206.86
21
-87.6399
0
LINE
8
BLACK
6
CONTINUOUS
10
206.86
20
-87.6399
11
191.26
21
-87.6399
0
LINE
8
BLACK
6
CONTINUOUS
10
191.26
20
-87.6399
11
191.26
21
-72.0399
0
LINE
8
BLACK
6
CONTINUOUS
10
153.26
20
-96.8501
11
168.86
21
-96.8501
0
LINE
8
BLACK
6
CONTINUOUS
10
168.86
20
-96.8501
11
168.86
21
-112.45
0
LINE
8
BLACK
6
CONTINUOUS
10
168.86
20
-112.45
11
153.26
21
-112.45
0
LINE
8
BLACK
6
CONTINUOUS
10
153.26
20
-112.45
11
153.26
21
-96.8501
0
CIRCLE
8
BLACK
10
36.0093
20
-119.075
40
1.6
0
CIRCLE
8
BLACK
10
124.896
20
-123.932
40
1.6
0
LINE
8
BLACK
6
CONTINUOUS
10
146.845
20
-77.8497
11
131.245
21
-77.8497
0
LINE
8
BLACK
6
CONTINUOUS
10
131.245
20
-77.8497
11
131.245
21
-93.4497
0
LINE
8
BLACK
6
CONTINUOUS
10
131.245
20
-93.4497
11
146.845
21
-93.4497
0
LINE
8
BLACK
6
CONTINUOUS
10
146.845
20
-93.4497
11
146.845
21
-77.8497
0
LINE
8
BLACK
6
CONTINUOUS
10
70.8454
20
-78.8505
11
55.2454
21
-78.8505
0
LINE
8
BLACK
6
CONTINUOUS
10
55.2454
20
-78.8505
11
55.2454
21
-94.4505
0
LINE
8
BLACK
6
CONTINUOUS
10
55.2454
20
-94.4505
11
70.8454
21
-94.4505
0
LINE
8
BLACK
6
CONTINUOUS
10
70.8454
20
-94.4505
11
70.8454
21
-78.8505
0
CIRCLE
8
BLACK
10
101.045
20
-123.932
40
6.025
0
LINE
8
BLACK
6
CONTINUOUS
10
146.845
20
-96.8501
11
131.245
21
-96.8501
0
LINE
8
BLACK
6
CONTINUOUS
10
131.245
20
-96.8501
11
131.245
21
-112.45
0
LINE
8
BLACK
6
CONTINUOUS
10
131.245
20
-112.45
11
146.845
21
-112.45
0
LINE
8
BLACK
6
CONTINUOUS
10
146.845
20
-112.45
11
146.845
21
-96.8501
0
LINE
8
BLACK
6
CONTINUOUS
10
78.1007
20
-116.685
11
63.0323
21
-120.723
0
LINE
8
BLACK
6
CONTINUOUS
10
63.0323
20
-120.723
11
67.0699
21
-135.791
0
LINE
8
BLACK
6
CONTINUOUS
10
67.0699
20
-135.791
11
82.1383
21
-131.754
0
LINE
8
BLACK
6
CONTINUOUS
10
82.1383
20
-131.754
11
78.1007
21
-116.685
0
LINE
8
BLACK
6
CONTINUOUS
10
40.7493
20
-125.423
11
25.6809
21
-129.46
0
LINE
8
BLACK
6
CONTINUOUS
10
25.6809
20
-129.46
11
29.7184
21
-144.529
0
LINE
8
BLACK
6
CONTINUOUS
10
29.7184
20
-144.529
11
44.7869
21
-140.491
0
LINE
8
BLACK
6
CONTINUOUS
10
44.7869
20
-140.491
11
40.7493
21
-125.423
0
CIRCLE
8
BLACK
10
44.7081
20
-143.916
40
1.6
0
LINE
8
BLACK
6
CONTINUOUS
10
70.8454
20
-59.8507
11
55.2454
21
-59.8507
0
LINE
8
BLACK
6
CONTINUOUS
10
55.2454
20
-59.8507
11
55.2454
21
-75.4507
0
LINE
8
BLACK
6
CONTINUOUS
10
55.2454
20
-75.4507
11
70.8454
21
-75.4507
0
LINE
8
BLACK
6
CONTINUOUS
10
70.8454
20
-75.4507
11
70.8454
21
-59.8507
0
CIRCLE
8
BLACK
10
74.2349
20
-113.9
40
1.6
0
LINE
8
BLACK
6
CONTINUOUS
10
108.845
20
-53.0399
11
93.2453
21
-53.0399
0
LINE
8
BLACK
6
CONTINUOUS
10
93.2453
20
-53.0399
11
93.2453
21
-68.6399
0
LINE
8
BLACK
6
CONTINUOUS
10
93.2453
20
-68.6399
11
108.845
21
-68.6399
0
LINE
8
BLACK
6
CONTINUOUS
10
108.845
20
-68.6399
11
108.845
21
-53.0399
0
CIRCLE
8
BLACK
10
50.1691
20
-115.316
40
1.6
0
LINE
8
BLACK
6
CONTINUOUS
10
89.8451
20
-75.8501
11
74.2451
21
-75.8501
0
LINE
8
BLACK
6
CONTINUOUS
10
74.2451
20
-75.8501
11
74.2451
21
-91.4501
0
LINE
8
BLACK
6
CONTINUOUS
10
74.2451
20
-91.4501
11
89.8451
21
-91.4501
0
LINE
8
BLACK
6
CONTINUOUS
10
89.8451
20
-91.4501
11
89.8451
21
-75.8501
0
LINE
8
BLACK
6
CONTINUOUS
10
89.8451
20
-94.8505
11
74.2451
21
-94.8505
0
LINE
8
BLACK
6
CONTINUOUS
10
74.2451
20
-94.8505
11
74.2451
21
-110.45
0
LINE
8
BLACK
6
CONTINUOUS
10
74.2451
20
-110.45
11
89.8451
21
-110.45
0
LINE
8
BLACK
6
CONTINUOUS
10
89.8451
20
-110.45
11
89.8451
21
-94.8505
0
CIRCLE
8
BLACK
10
86.6596
20
-123.932
40
1.6
0
LINE
8
BLACK
6
CONTINUOUS
10
108.845
20
-91.0401
11
93.2453
21
-91.0401
0
LINE
8
BLACK
6
CONTINUOUS
10
93.2453
20
-91.0401
11
93.2453
21
-106.64
0
LINE
8
BLACK
6
CONTINUOUS
10
93.2453
20
-106.64
11
108.845
21
-106.64
0
LINE
8
BLACK
6
CONTINUOUS
10
108.845
20
-106.64
11
108.845
21
-91.0401
0
LINE
8
BLACK
6
CONTINUOUS
10
89.8451
20
-56.8501
11
74.2451
21
-56.8501
0
LINE
8
BLACK
6
CONTINUOUS
10
74.2451
20
-56.8501
11
74.2451
21
-72.4501
0
LINE
8
BLACK
6
CONTINUOUS
10
74.2451
20
-72.4501
11
89.8451
21
-72.4501
0
LINE
8
BLACK
6
CONTINUOUS
10
89.8451
20
-72.4501
11
89.8451
21
-56.8501
0
LINE
8
BLACK
6
CONTINUOUS
10
127.845
20
-94.8499
11
112.245
21
-94.8499
0
LINE
8
BLACK
6
CONTINUOUS
10
112.245
20
-94.8499
11
112.245
21
-110.45
0
LINE
8
BLACK
6
CONTINUOUS
10
112.245
20
-110.45
11
127.845
21
-110.45
0
LINE
8
BLACK
6
CONTINUOUS
10
127.845
20
-110.45
11
127.845
21
-94.8499
0
LINE
8
BLACK
6
CONTINUOUS
10
108.845
20
-72.0399
11
93.2453
21
-72.0399
0
LINE
8
BLACK
6
CONTINUOUS
10
93.2453
20
-72.0399
11
93.2453
21
-87.6399
0
LINE
8
BLACK
6
CONTINUOUS
10
93.2453
20
-87.6399
11
108.845
21
-87.6399
0
LINE
8
BLACK
6
CONTINUOUS
10
108.845
20
-87.6399
11
108.845
21
-72.0399
0
CIRCLE
8
BLACK
10
116.703
20
-123.932
40
6.025
0
LINE
8
BLACK
6
CONTINUOUS
10
127.845
20
-56.8507
11
112.245
21
-56.8507
0
LINE
8
BLACK
6
CONTINUOUS
10
112.245
20
-56.8507
11
112.245
21
-72.4507
0
LINE
8
BLACK
6
CONTINUOUS
10
112.245
20
-72.4507
11
127.845
21
-72.4507
0
LINE
8
BLACK
6
CONTINUOUS
10
127.845
20
-72.4507
11
127.845
21
-56.8507
0
CIRCLE
8
BLACK
10
131.195
20
-55.5202
40
1.6
0
CIRCLE
8
BLACK
10
70.8439
20
-56.462
40
1.6
0
CIRCLE
8
BLACK
10
127.892
20
-113.838
40
1.6
0
LINE
8
BLACK
6
CONTINUOUS
10
59.9009
20
-122.832
11
44.8325
21
-126.869
0
LINE
8
BLACK
6
CONTINUOUS
10
44.8325
20
-126.869
11
48.87
21
-141.938
0
LINE
8
BLACK
6
CONTINUOUS
10
48.87
20
-141.938
11
63.9385
21
-137.9
0
LINE
8
BLACK
6
CONTINUOUS
10
63.9385
20
-137.9
11
59.9009
21
-122.832
0
LINE
8
BLACK
6
CONTINUOUS
10
146.845
20
-58.8493
11
131.245
21
-58.8493
0
LINE
8
BLACK
6
CONTINUOUS
10
131.245
20
-58.8493
11
131.245
21
-74.4493
0
LINE
8
BLACK
6
CONTINUOUS
10
131.245
20
-74.4493
11
146.845
21
-74.4493
0
LINE
8
BLACK
6
CONTINUOUS
10
146.845
20
-74.4493
11
146.845
21
-58.8493
0
LINE
8
BLACK
6
CONTINUOUS
10
127.845
20
-75.8503
11
112.245
21
-75.8503
0
LINE
8
BLACK
6
CONTINUOUS
10
112.245
20
-75.8503
11
112.245
21
-91.4503
0
LINE
8
BLACK
6
CONTINUOUS
10
112.245
20
-91.4503
11
127.845
21
-91.4503
0
LINE
8
BLACK
6
CONTINUOUS
10
127.845
20
-91.4503
11
127.845
21
-75.8503
0
LINE
8
BLACK
6
CONTINUOUS
10
70.8454
20
-97.8505
11
55.2454
21
-97.8505
0
LINE
8
BLACK
6
CONTINUOUS
10
55.2454
20
-97.8505
11
55.2454
21
-113.45
0
LINE
8
BLACK
6
CONTINUOUS
10
55.2454
20
-113.45
11
70.8454
21
-113.45
0
LINE
8
BLACK
6
CONTINUOUS
10
70.8454
20
-113.45
11
70.8454
21
-97.8505
  0
ENDSEC
  0
EOF
