  0
SECTION
  2
HEADER
  9
$ANGBASE
  50
0.0
  9
$ANGDIR
  70
1
  9
$MEASUREMENT
  70
1
  0
ENDSEC
  0
SECTION
  2
TABLES
  0
TABLE
  2
LTYPE
  70
4
  0
LTYPE
  5
40F
  2
CONTINUOUS
  70
0
  3
Solid line
  72
65
  73
0
  40
0.0
  0
LTYPE
  5
410
  2
DASHDOT
 70
0
  3
Dash Dot ____ _ ____ _
 72
65
 73
4
 40
2.0
 49
1.25
 49
-0.25
 49
0.25
 49
-0.25
  0
LTYPE
  5
411
  2
DASHED
 70
0
  3
Dashed __ __ __ __ __
 72
65
 73
2
 40
0.75
 49
0.5
 49
-0.25
  0
LTYPE
  5
43B
  2
DOTTED
 70
0
  3
Dotted .  .  .  .
 72
65
 73
2
 40
0.2
 49
0.0
 49
-0.2
  0
ENDTAB
  0
TABLE
  2
STYLE
  70
4
  0
STYLE
  2
KICAD
  70
0
  40
0
  41
1
  42
1
  50
0
  71
0
  3
isocp.shx
  0
STYLE
  2
KICADB
  70
0
  40
0
  41
1
  42
1
  50
0
  71
0
  3
isocp.shx
  0
STYLE
  2
KICADI
  70
0
  40
0
  41
1
  42
1
  50
15
  71
0
  3
isocp.shx
  0
STYLE
  2
KICADBI
  70
0
  40
0
  41
1
  42
1
  50
15
  71
0
  3
isocp.shx
  0
ENDTAB
  0
TABLE
  2
LAYER
  70
1
  0
LAYER
  2
BLACK
  70
0
  62
7
  6
CONTINUOUS
  0
ENDTAB
  0
ENDSEC
  0
SECTION
  2
ENTITIES
0
ARC
8
BLACK
10
147.023
20
-55.8205
40
1.32206
50
89.406
51
178.796
0
ARC
8
BLACK
10
146.928
20
-113.218
40
1.22766
50
-177.613
51
-94.4725
0
LINE
8
BLACK
6
CONTINUOUS
10
172.577
20
-132.623
11
155.178
21
-115.156
0
ARC
8
BLACK
10
161.058
20
-50.481
40
1.29003
50
-270.537
51
-176.956
0
LINE
8
BLACK
6
CONTINUOUS
10
47.5306
20
-60.6777
11
47.5306
21
-50.2959
0
ARC
8
BLACK
10
28.853
20
-63.0192
40
1.12906
50
-272.04
51
-177.786
0
LINE
8
BLACK
6
CONTINUOUS
10
142.571
20
-114.442
11
135.945
21
-114.442
0
LINE
8
BLACK
6
CONTINUOUS
10
17.8942
20
-123.438
11
27.1695
21
-114.167
0
ARC
8
BLACK
10
174.507
20
-130.752
40
2.68774
50
-135.894
51
-87.8238
0
LINE
8
BLACK
6
CONTINUOUS
10
114.794
20
-133.438
11
86.2194
21
-133.446
0
LINE
8
BLACK
6
CONTINUOUS
10
17.437
20
-125.089
11
23.6111
21
-148.143
0
LINE
8
BLACK
6
CONTINUOUS
10
46.3175
20
-61.8909
11
28.8932
21
-61.8909
0
LINE
8
BLACK
6
CONTINUOUS
10
263.866
20
-149.245
11
206.371
21
-133.872
0
LINE
8
BLACK
6
CONTINUOUS
10
240.745
20
-49.1912
11
161.07
21
-49.191
0
ARC
8
BLACK
10
86.0529
20
-144.323
40
10.8785
50
89.123
51
106.124
0
ARC
8
BLACK
10
243.086
20
-60.6778
40
1.21307
50
-180.003
51
-89.996
0
ARC
8
BLACK
10
203.35
20
-144.324
40
10.8796
50
73.8777
51
90.8766
0
LINE
8
BLACK
6
CONTINUOUS
10
83.0318
20
-133.872
11
25.5377
21
-149.245
0
ARC
8
BLACK
10
142.475
20
-113.218
40
1.2277
50
-85.5245
51
-2.38647
0
ARC
8
BLACK
10
135.881
20
-116.718
40
2.27634
50
88.3938
51
136.661
0
ARC
8
BLACK
10
19.0446
20
-124.646
40
1.66771
50
-226.384
51
-164.573
0
LINE
8
BLACK
6
CONTINUOUS
10
262.234
20
-114.167
11
271.509
21
-123.438
0
ARC
8
BLACK
10
263.564
20
-112.831
40
1.88544
50
-181.063
51
-134.853
0
ARC
8
BLACK
10
48.6153
20
-50.2752
40
1.08488
50
-272.25
51
-178.907
0
LINE
8
BLACK
6
CONTINUOUS
10
129.634
20
-53.1003
11
129.634
21
-50.5495
0
LINE
8
BLACK
6
CONTINUOUS
10
147.037
20
-54.4985
11
158.376
21
-54.4985
0
LINE
8
BLACK
6
CONTINUOUS
10
241.873
20
-50.2959
11
241.873
21
-60.6777
0
ARC
8
BLACK
10
260.55
20
-63.0192
40
1.12905
50
-2.21423
51
92.0413
0
ARC
8
BLACK
10
25.1211
20
-147.738
40
1.56335
50
-164.981
51
-74.5451
0
LINE
8
BLACK
6
CONTINUOUS
10
27.7248
20
-63.0628
11
27.7248
21
-112.796
0
LINE
8
BLACK
6
CONTINUOUS
10
143.702
20
-113.27
11
143.702
21
-55.7927
0
ARC
8
BLACK
10
153.522
20
-116.718
40
2.27647
50
43.3396
51
91.6045
0
LINE
8
BLACK
6
CONTINUOUS
10
203.184
20
-133.446
11
174.609
21
-133.438
0
ARC
8
BLACK
10
25.8397
20
-112.831
40
1.88541
50
-45.1475
51
1.06322
0
LINE
8
BLACK
6
CONTINUOUS
10
153.458
20
-114.442
11
146.832
21
-114.442
0
ARC
8
BLACK
10
142.38
20
-55.8205
40
1.32203
50
1.20349
51
90.5911
0
LINE
8
BLACK
6
CONTINUOUS
10
265.792
20
-148.143
11
271.966
21
-125.089
0
ARC
8
BLACK
10
131.034
20
-53.0983
40
1.40025
50
-179.917
51
-90.2628
0
ARC
8
BLACK
10
264.282
20
-147.738
40
1.56349
50
-105.45
51
-15.0211
0
LINE
8
BLACK
6
CONTINUOUS
10
134.225
20
-115.156
11
116.826
21
-132.623
0
LINE
8
BLACK
6
CONTINUOUS
10
128.333
20
-49.191
11
48.6579
21
-49.1912
0
ARC
8
BLACK
10
158.369
20
-53.0984
40
1.40009
50
-89.7427
51
-0.0790221
0
LINE
8
BLACK
6
CONTINUOUS
10
131.027
20
-54.4985
11
142.366
21
-54.4985
0
ARC
8
BLACK
10
240.788
20
-50.2752
40
1.08483
50
-1.09344
51
92.2517
0
ARC
8
BLACK
10
128.345
20
-50.481
40
1.29005
50
-3.04372
51
90.5386
0
LINE
8
BLACK
6
CONTINUOUS
10
145.702
20
-55.7927
11
145.702
21
-113.27
0
ARC
8
BLACK
10
270.359
20
-124.646
40
1.66776
50
-15.4259
51
46.3822
0
ARC
8
BLACK
10
46.3175
20
-60.6778
40
1.21312
50
-90.0009
51
0.00325887
0
LINE
8
BLACK
6
CONTINUOUS
10
260.51
20
-61.8909
11
243.086
21
-61.8909
0
LINE
8
BLACK
6
CONTINUOUS
10
159.77
20
-50.5495
11
159.77
21
-53.1003
0
ARC
8
BLACK
10
114.896
20
-130.752
40
2.68778
50
-92.1748
51
-44.1048
0
LINE
8
BLACK
6
CONTINUOUS
10
261.678
20
-112.796
11
261.678
21
-63.0628
0
LINE
8
BLACK
6
CONTINUOUS
10
179.84
20
-93.5858
11
170.264
21
-93.5858
0
LINE
8
BLACK
6
CONTINUOUS
10
179.84
20
-98.1229
11
179.84
21
-96.9041
0
LINE
8
BLACK
6
CONTINUOUS
10
181.728
20
-94.1863
11
179.84
21
-94.1863
0
LINE
8
BLACK
6
CONTINUOUS
10
166.454
20
-96.8021
11
168.342
21
-96.8021
0
LINE
8
BLACK
6
CONTINUOUS
10
181.728
20
-96.9041
11
179.84
21
-96.9041
0
LINE
8
BLACK
6
CONTINUOUS
10
181.728
20
-96.9041
11
181.728
21
-94.1863
0
LINE
8
BLACK
6
CONTINUOUS
10
166.454
20
-96.8021
11
166.454
21
-99.5199
0
LINE
8
BLACK
6
CONTINUOUS
10
179.84
20
-94.1863
11
179.84
21
-93.5858
0
LINE
8
BLACK
6
CONTINUOUS
10
179.84
20
-98.1229
11
174.446
21
-98.1229
0
LINE
8
BLACK
6
CONTINUOUS
10
168.342
20
-95.4559
11
168.342
21
-96.8021
0
LINE
8
BLACK
6
CONTINUOUS
10
168.342
20
-99.5199
11
168.342
21
-100.003
0
LINE
8
BLACK
6
CONTINUOUS
10
166.454
20
-99.5199
11
168.342
21
-99.5199
0
LINE
8
BLACK
6
CONTINUOUS
10
168.342
20
-100.003
11
169.071
21
-100.003
0
LINE
8
BLACK
6
CONTINUOUS
10
170.188
20
-100.002
11
172.186
21
-100.003
0
ARC
8
BLACK
10
170.223
20
-95.466
40
1.88064
50
88.7333
51
179.693
0
ARC
8
BLACK
10
174.421
20
-100.391
40
2.26789
50
89.3556
51
170.156
0
ARC
8
BLACK
10
169.63
20
-100.651
40
0.855913
50
-229.221
51
49.262
0
CIRCLE
8
BLACK
10
179.789
20
-100.663
40
0.85
0
CIRCLE
8
BLACK
10
174.709
20
-100.663
40
2
0
LINE
8
BLACK
6
CONTINUOUS
10
140.713
20
-96.1865
11
138.825
21
-96.1865
0
LINE
8
BLACK
6
CONTINUOUS
10
140.713
20
-98.9043
11
138.825
21
-98.9043
0
LINE
8
BLACK
6
CONTINUOUS
10
127.327
20
-97.4561
11
127.327
21
-98.8023
0
LINE
8
BLACK
6
CONTINUOUS
10
127.327
20
-101.52
11
127.327
21
-102.003
0
LINE
8
BLACK
6
CONTINUOUS
10
138.825
20
-100.123
11
133.431
21
-100.123
0
LINE
8
BLACK
6
CONTINUOUS
10
125.439
20
-98.8023
11
127.327
21
-98.8023
0
LINE
8
BLACK
6
CONTINUOUS
10
140.713
20
-98.9043
11
140.713
21
-96.1865
0
LINE
8
BLACK
6
CONTINUOUS
10
125.439
20
-101.52
11
127.327
21
-101.52
0
LINE
8
BLACK
6
CONTINUOUS
10
138.825
20
-96.1865
11
138.825
21
-95.586
0
LINE
8
BLACK
6
CONTINUOUS
10
125.439
20
-98.8023
11
125.439
21
-101.52
0
LINE
8
BLACK
6
CONTINUOUS
10
138.825
20
-100.123
11
138.825
21
-98.9043
0
LINE
8
BLACK
6
CONTINUOUS
10
138.825
20
-95.586
11
129.249
21
-95.586
0
LINE
8
BLACK
6
CONTINUOUS
10
127.327
20
-102.003
11
128.055
21
-102.003
0
LINE
8
BLACK
6
CONTINUOUS
10
129.173
20
-102.003
11
131.171
21
-102.003
0
ARC
8
BLACK
10
128.614
20
-102.651
40
0.855913
50
-229.221
51
49.262
0
ARC
8
BLACK
10
129.207
20
-97.4662
40
1.88064
50
88.7333
51
179.693
0
ARC
8
BLACK
10
133.405
20
-102.391
40
2.26789
50
89.3556
51
170.156
0
CIRCLE
8
BLACK
10
138.774
20
-102.663
40
0.85
0
CIRCLE
8
BLACK
10
133.694
20
-102.663
40
2
0
LINE
8
BLACK
6
CONTINUOUS
10
219.306
20
-99.7555
11
221.706
21
-99.7555
0
LINE
8
BLACK
6
CONTINUOUS
10
221.706
20
-99.7555
11
221.706
21
-105.197
0
LINE
8
BLACK
6
CONTINUOUS
10
221.706
20
-105.197
11
219.306
21
-105.197
0
LINE
8
BLACK
6
CONTINUOUS
10
219.306
20
-105.197
11
219.306
21
-99.7555
0
LINE
8
BLACK
6
CONTINUOUS
10
181.728
20
-77.9045
11
179.84
21
-77.9045
0
LINE
8
BLACK
6
CONTINUOUS
10
168.342
20
-80.5203
11
168.342
21
-81.0033
0
LINE
8
BLACK
6
CONTINUOUS
10
179.84
20
-74.5862
11
170.264
21
-74.5862
0
LINE
8
BLACK
6
CONTINUOUS
10
166.454
20
-80.5203
11
168.342
21
-80.5203
0
LINE
8
BLACK
6
CONTINUOUS
10
170.188
20
-81.0029
11
172.186
21
-81.0033
0
LINE
8
BLACK
6
CONTINUOUS
10
168.342
20
-76.4563
11
168.342
21
-77.8025
0
LINE
8
BLACK
6
CONTINUOUS
10
166.454
20
-77.8025
11
166.454
21
-80.5203
0
LINE
8
BLACK
6
CONTINUOUS
10
179.84
20
-75.1867
11
179.84
21
-74.5862
0
LINE
8
BLACK
6
CONTINUOUS
10
181.728
20
-77.9045
11
181.728
21
-75.1867
0
LINE
8
BLACK
6
CONTINUOUS
10
166.454
20
-77.8025
11
168.342
21
-77.8025
0
LINE
8
BLACK
6
CONTINUOUS
10
179.84
20
-79.1233
11
179.84
21
-77.9045
0
LINE
8
BLACK
6
CONTINUOUS
10
179.84
20
-79.1233
11
174.446
21
-79.1233
0
LINE
8
BLACK
6
CONTINUOUS
10
168.342
20
-81.0033
11
169.071
21
-81.0033
0
LINE
8
BLACK
6
CONTINUOUS
10
181.728
20
-75.1867
11
179.84
21
-75.1867
0
ARC
8
BLACK
10
169.63
20
-81.6514
40
0.855913
50
-229.221
51
49.262
0
ARC
8
BLACK
10
170.223
20
-76.4664
40
1.88064
50
88.7333
51
179.693
0
ARC
8
BLACK
10
174.421
20
-81.391
40
2.26789
50
89.3556
51
170.156
0
CIRCLE
8
BLACK
10
179.789
20
-81.6633
40
0.85
0
CIRCLE
8
BLACK
10
174.709
20
-81.6633
40
2
0
LINE
8
BLACK
6
CONTINUOUS
10
255.946
20
-133.766
11
252.658
21
-132.886
0
LINE
8
BLACK
6
CONTINUOUS
10
252.658
20
-132.886
11
253.526
21
-129.647
0
LINE
8
BLACK
6
CONTINUOUS
10
253.526
20
-129.647
11
256.814
21
-130.528
0
LINE
8
BLACK
6
CONTINUOUS
10
256.814
20
-130.528
11
255.946
21
-133.766
0
LINE
8
BLACK
6
CONTINUOUS
10
265.514
20
-136.33
11
262.227
21
-135.449
0
LINE
8
BLACK
6
CONTINUOUS
10
262.227
20
-135.449
11
263.095
21
-132.211
0
LINE
8
BLACK
6
CONTINUOUS
10
263.095
20
-132.211
11
266.382
21
-133.092
0
LINE
8
BLACK
6
CONTINUOUS
10
266.382
20
-133.092
11
265.514
21
-136.33
0
CIRCLE
8
BLACK
10
258.917
20
-125.58
40
1.05
0
CIRCLE
8
BLACK
10
259.994
20
-140.88
40
1.05
0
CIRCLE
8
BLACK
10
257.579
20
-140.233
40
1.05
0
CIRCLE
8
BLACK
10
263.747
20
-126.874
40
1.05
0
CIRCLE
8
BLACK
10
255.164
20
-139.586
40
1.05
0
LINE
8
BLACK
6
CONTINUOUS
10
254.065
20
-77.9744
11
251.932
21
-77.9744
0
LINE
8
BLACK
6
CONTINUOUS
10
251.932
20
-77.9744
11
251.932
21
-73.504
0
LINE
8
BLACK
6
CONTINUOUS
10
251.932
20
-73.504
11
254.065
21
-73.504
0
LINE
8
BLACK
6
CONTINUOUS
10
254.065
20
-73.504
11
254.065
21
-77.9744
0
CIRCLE
8
BLACK
10
223.91
20
-54.4751
40
1.6
0
LINE
8
BLACK
6
CONTINUOUS
10
219.306
20
-80.7551
11
221.706
21
-80.7551
0
LINE
8
BLACK
6
CONTINUOUS
10
221.706
20
-80.7551
11
221.706
21
-86.1963
0
LINE
8
BLACK
6
CONTINUOUS
10
221.706
20
-86.1963
11
219.306
21
-86.1963
0
LINE
8
BLACK
6
CONTINUOUS
10
219.306
20
-86.1963
11
219.306
21
-80.7551
0
LINE
8
BLACK
6
CONTINUOUS
10
234.343
20
-118.957
11
231.943
21
-118.957
0
LINE
8
BLACK
6
CONTINUOUS
10
231.943
20
-118.957
11
231.943
21
-113.515
0
LINE
8
BLACK
6
CONTINUOUS
10
231.943
20
-113.515
11
234.343
21
-113.515
0
LINE
8
BLACK
6
CONTINUOUS
10
234.343
20
-113.515
11
234.343
21
-118.957
0
LINE
8
BLACK
6
CONTINUOUS
10
162.728
20
-60.9035
11
160.84
21
-60.9035
0
LINE
8
BLACK
6
CONTINUOUS
10
147.454
20
-60.8015
11
147.454
21
-63.5193
0
LINE
8
BLACK
6
CONTINUOUS
10
160.84
20
-62.1223
11
155.446
21
-62.1223
0
LINE
8
BLACK
6
CONTINUOUS
10
149.342
20
-59.4553
11
149.342
21
-60.8015
0
LINE
8
BLACK
6
CONTINUOUS
10
147.454
20
-60.8015
11
149.342
21
-60.8015
0
LINE
8
BLACK
6
CONTINUOUS
10
147.454
20
-63.5193
11
149.342
21
-63.5193
0
LINE
8
BLACK
6
CONTINUOUS
10
151.188
20
-64.0019
11
153.186
21
-64.0023
0
LINE
8
BLACK
6
CONTINUOUS
10
160.84
20
-62.1223
11
160.84
21
-60.9035
0
LINE
8
BLACK
6
CONTINUOUS
10
160.84
20
-57.5852
11
151.264
21
-57.5852
0
LINE
8
BLACK
6
CONTINUOUS
10
149.342
20
-64.0023
11
150.07
21
-64.0023
0
LINE
8
BLACK
6
CONTINUOUS
10
162.728
20
-60.9035
11
162.728
21
-58.1857
0
LINE
8
BLACK
6
CONTINUOUS
10
160.84
20
-58.1857
11
160.84
21
-57.5852
0
LINE
8
BLACK
6
CONTINUOUS
10
149.342
20
-63.5193
11
149.342
21
-64.0023
0
LINE
8
BLACK
6
CONTINUOUS
10
162.728
20
-58.1857
11
160.84
21
-58.1857
0
ARC
8
BLACK
10
150.629
20
-64.6504
40
0.855913
50
-229.221
51
49.262
0
ARC
8
BLACK
10
155.421
20
-64.39
40
2.26789
50
89.3556
51
170.156
0
ARC
8
BLACK
10
151.223
20
-59.4654
40
1.88064
50
88.7333
51
179.693
0
CIRCLE
8
BLACK
10
160.789
20
-64.6623
40
0.85
0
CIRCLE
8
BLACK
10
155.709
20
-64.6623
40
2
0
LINE
8
BLACK
6
CONTINUOUS
10
246.89
20
-105.95
11
241.39
21
-105.95
0
LINE
8
BLACK
6
CONTINUOUS
10
241.39
20
-105.95
11
241.39
21
-98.6497
0
LINE
8
BLACK
6
CONTINUOUS
10
241.39
20
-98.6497
11
246.89
21
-98.6497
0
LINE
8
BLACK
6
CONTINUOUS
10
246.89
20
-98.6497
11
246.89
21
-105.95
0
LINE
8
BLACK
6
CONTINUOUS
10
147.454
20
-79.8019
11
147.454
21
-82.5197
0
LINE
8
BLACK
6
CONTINUOUS
10
160.84
20
-81.1227
11
160.84
21
-79.9039
0
LINE
8
BLACK
6
CONTINUOUS
10
149.342
20
-83.0027
11
150.07
21
-83.0027
0
LINE
8
BLACK
6
CONTINUOUS
10
162.728
20
-79.9039
11
160.84
21
-79.9039
0
LINE
8
BLACK
6
CONTINUOUS
10
147.454
20
-82.5197
11
149.342
21
-82.5197
0
LINE
8
BLACK
6
CONTINUOUS
10
160.84
20
-77.1861
11
160.84
21
-76.5856
0
LINE
8
BLACK
6
CONTINUOUS
10
149.342
20
-78.4557
11
149.342
21
-79.8019
0
LINE
8
BLACK
6
CONTINUOUS
10
162.728
20
-77.1861
11
160.84
21
-77.1861
0
LINE
8
BLACK
6
CONTINUOUS
10
160.84
20
-76.5856
11
151.264
21
-76.5856
0
LINE
8
BLACK
6
CONTINUOUS
10
149.342
20
-82.5197
11
149.342
21
-83.0027
0
LINE
8
BLACK
6
CONTINUOUS
10
151.188
20
-83.0023
11
153.186
21
-83.0027
0
LINE
8
BLACK
6
CONTINUOUS
10
147.454
20
-79.8019
11
149.342
21
-79.8019
0
LINE
8
BLACK
6
CONTINUOUS
10
160.84
20
-81.1227
11
155.446
21
-81.1227
0
LINE
8
BLACK
6
CONTINUOUS
10
162.728
20
-79.9039
11
162.728
21
-77.1861
0
ARC
8
BLACK
10
150.629
20
-83.6508
40
0.855913
50
-229.221
51
49.262
0
ARC
8
BLACK
10
151.223
20
-78.4658
40
1.88064
50
88.7333
51
179.693
0
ARC
8
BLACK
10
155.421
20
-83.3904
40
2.26789
50
89.3556
51
170.156
0
CIRCLE
8
BLACK
10
160.789
20
-83.6627
40
0.85
0
CIRCLE
8
BLACK
10
155.709
20
-83.6627
40
2
0
LINE
8
BLACK
6
CONTINUOUS
10
181.306
20
-99.7549
11
183.706
21
-99.7549
0
LINE
8
BLACK
6
CONTINUOUS
10
183.706
20
-99.7549
11
183.706
21
-105.196
0
LINE
8
BLACK
6
CONTINUOUS
10
183.706
20
-105.196
11
181.306
21
-105.196
0
LINE
8
BLACK
6
CONTINUOUS
10
181.306
20
-105.196
11
181.306
21
-99.7549
0
LINE
8
BLACK
6
CONTINUOUS
10
219.306
20
-61.7551
11
221.706
21
-61.7551
0
LINE
8
BLACK
6
CONTINUOUS
10
221.706
20
-61.7551
11
221.706
21
-67.1963
0
LINE
8
BLACK
6
CONTINUOUS
10
221.706
20
-67.1963
11
219.306
21
-67.1963
0
LINE
8
BLACK
6
CONTINUOUS
10
219.306
20
-67.1963
11
219.306
21
-61.7551
0
CIRCLE
8
BLACK
10
220.519
20
-111.914
40
1.6
0
CIRCLE
8
BLACK
10
244.585
20
-113.329
40
2.15
0
LINE
8
BLACK
6
CONTINUOUS
10
100.825
20
-89.776
11
91.2494
21
-89.776
0
LINE
8
BLACK
6
CONTINUOUS
10
102.713
20
-90.3765
11
100.825
21
-90.3765
0
LINE
8
BLACK
6
CONTINUOUS
10
89.3272
20
-91.6461
11
89.3272
21
-92.9923
0
LINE
8
BLACK
6
CONTINUOUS
10
100.825
20
-94.3131
11
100.825
21
-93.0943
0
LINE
8
BLACK
6
CONTINUOUS
10
89.3272
20
-95.7101
11
89.3272
21
-96.1931
0
LINE
8
BLACK
6
CONTINUOUS
10
87.4394
20
-92.9923
11
89.3272
21
-92.9923
0
LINE
8
BLACK
6
CONTINUOUS
10
91.1732
20
-96.1927
11
93.1712
21
-96.1931
0
LINE
8
BLACK
6
CONTINUOUS
10
89.3272
20
-96.1931
11
90.0556
21
-96.1931
0
LINE
8
BLACK
6
CONTINUOUS
10
102.713
20
-93.0943
11
100.825
21
-93.0943
0
LINE
8
BLACK
6
CONTINUOUS
10
102.713
20
-93.0943
11
102.713
21
-90.3765
0
LINE
8
BLACK
6
CONTINUOUS
10
87.4394
20
-95.7101
11
89.3272
21
-95.7101
0
LINE
8
BLACK
6
CONTINUOUS
10
87.4394
20
-92.9923
11
87.4394
21
-95.7101
0
LINE
8
BLACK
6
CONTINUOUS
10
100.825
20
-90.3765
11
100.825
21
-89.776
0
LINE
8
BLACK
6
CONTINUOUS
10
100.825
20
-94.3131
11
95.4312
21
-94.3131
0
ARC
8
BLACK
10
90.6147
20
-96.8412
40
0.855913
50
-229.221
51
49.262
0
ARC
8
BLACK
10
91.2079
20
-91.6562
40
1.88064
50
88.7333
51
179.693
0
ARC
8
BLACK
10
95.4057
20
-96.5808
40
2.26789
50
89.3556
51
170.156
0
CIRCLE
8
BLACK
10
100.774
20
-96.8531
40
0.85
0
CIRCLE
8
BLACK
10
95.6944
20
-96.8531
40
2
0
LINE
8
BLACK
6
CONTINUOUS
10
41.9265
20
-101.576
11
41.9265
21
-102.976
0
LINE
8
BLACK
6
CONTINUOUS
10
40.6265
20
-100.876
11
41.2265
21
-100.876
0
LINE
8
BLACK
6
CONTINUOUS
10
41.2265
20
-103.676
11
40.6265
21
-103.676
0
LINE
8
BLACK
6
CONTINUOUS
10
39.9265
20
-102.976
11
39.9265
21
-101.576
0
ARC
8
BLACK
10
40.6265
20
-101.576
40
0.699999
50
-270
51
-180
0
ARC
8
BLACK
10
40.6265
20
-102.976
40
0.7
50
-180
51
-90
0
ARC
8
BLACK
10
41.2265
20
-101.576
40
0.699999
50
-8.18512e-05
51
90.0001
0
ARC
8
BLACK
10
41.2265
20
-102.976
40
0.7
50
-90
51
-0
0
LINE
8
BLACK
6
CONTINUOUS
10
37.3865
20
-102.976
11
37.3865
21
-101.576
0
LINE
8
BLACK
6
CONTINUOUS
10
39.3865
20
-101.576
11
39.3865
21
-102.976
0
LINE
8
BLACK
6
CONTINUOUS
10
38.6865
20
-103.676
11
38.0865
21
-103.676
0
LINE
8
BLACK
6
CONTINUOUS
10
38.0865
20
-100.876
11
38.6865
21
-100.876
0
ARC
8
BLACK
10
38.0865
20
-101.576
40
0.699999
50
-270
51
-180
0
ARC
8
BLACK
10
38.6865
20
-102.976
40
0.7
50
-90
51
-0
0
ARC
8
BLACK
10
38.6865
20
-101.576
40
0.699999
50
-8.18512e-05
51
90.0001
0
ARC
8
BLACK
10
38.0865
20
-102.976
40
0.7
50
-180
51
-90
0
LINE
8
BLACK
6
CONTINUOUS
10
238.306
20
-83.7555
11
240.706
21
-83.7555
0
LINE
8
BLACK
6
CONTINUOUS
10
240.706
20
-83.7555
11
240.706
21
-89.1967
0
LINE
8
BLACK
6
CONTINUOUS
10
240.706
20
-89.1967
11
238.306
21
-89.1967
0
LINE
8
BLACK
6
CONTINUOUS
10
238.306
20
-89.1967
11
238.306
21
-83.7555
0
LINE
8
BLACK
6
CONTINUOUS
10
200.306
20
-57.9449
11
202.706
21
-57.9449
0
LINE
8
BLACK
6
CONTINUOUS
10
202.706
20
-57.9449
11
202.706
21
-63.3861
0
LINE
8
BLACK
6
CONTINUOUS
10
202.706
20
-63.3861
11
200.306
21
-63.3861
0
LINE
8
BLACK
6
CONTINUOUS
10
200.306
20
-63.3861
11
200.306
21
-57.9449
0
LINE
8
BLACK
6
CONTINUOUS
10
238.306
20
-102.755
11
240.706
21
-102.755
0
LINE
8
BLACK
6
CONTINUOUS
10
240.706
20
-102.755
11
240.706
21
-108.197
0
LINE
8
BLACK
6
CONTINUOUS
10
240.706
20
-108.197
11
238.306
21
-108.197
0
LINE
8
BLACK
6
CONTINUOUS
10
238.306
20
-108.197
11
238.306
21
-102.755
0
CIRCLE
8
BLACK
10
166.862
20
-111.851
40
1.6
0
CIRCLE
8
BLACK
10
256.097
20
-99.1399
40
0.9
0
CIRCLE
8
BLACK
10
253.557
20
-99.1399
40
0.9
0
CIRCLE
8
BLACK
10
248.477
20
-99.1399
40
0.9
0
CIRCLE
8
BLACK
10
251.017
20
-99.1399
40
0.9
0
CIRCLE
8
BLACK
10
258.745
20
-117.088
40
2.15
0
LINE
8
BLACK
6
CONTINUOUS
10
248.121
20
-128.584
11
248.824
21
-125.958
0
LINE
8
BLACK
6
CONTINUOUS
10
245.982
20
-129.272
11
240.772
21
-127.876
0
LINE
8
BLACK
6
CONTINUOUS
10
236.172
20
-128.59
11
238.102
21
-129.107
0
LINE
8
BLACK
6
CONTINUOUS
10
245.982
20
-129.272
11
246.298
21
-128.095
0
LINE
8
BLACK
6
CONTINUOUS
10
248.121
20
-128.584
11
246.298
21
-128.095
0
LINE
8
BLACK
6
CONTINUOUS
10
233.394
20
-124.532
11
235.218
21
-125.021
0
LINE
8
BLACK
6
CONTINUOUS
10
235.566
20
-123.72
11
235.218
21
-125.021
0
LINE
8
BLACK
6
CONTINUOUS
10
232.691
20
-127.157
11
234.514
21
-127.646
0
LINE
8
BLACK
6
CONTINUOUS
10
247.156
20
-124.89
11
237.907
21
-122.411
0
LINE
8
BLACK
6
CONTINUOUS
10
234.514
20
-127.646
11
234.389
21
-128.112
0
LINE
8
BLACK
6
CONTINUOUS
10
248.824
20
-125.958
11
247.001
21
-125.47
0
LINE
8
BLACK
6
CONTINUOUS
10
233.394
20
-124.532
11
232.691
21
-127.157
0
LINE
8
BLACK
6
CONTINUOUS
10
234.389
20
-128.112
11
235.093
21
-128.301
0
LINE
8
BLACK
6
CONTINUOUS
10
247.001
20
-125.47
11
247.156
21
-124.89
0
ARC
8
BLACK
10
240.16
20
-130.06
40
2.26789
50
74.3556
51
155.156
0
ARC
8
BLACK
10
237.38
20
-124.217
40
1.88064
50
73.7333
51
164.693
0
ARC
8
BLACK
10
235.465
20
-129.072
40
0.855913
50
-244.221
51
34.2621
0
CIRCLE
8
BLACK
10
245.276
20
-131.713
40
0.85
0
CIRCLE
8
BLACK
10
240.369
20
-130.398
40
2
0
LINE
8
BLACK
6
CONTINUOUS
10
251.74
20
-77.9744
11
249.606
21
-77.9744
0
LINE
8
BLACK
6
CONTINUOUS
10
249.606
20
-77.9744
11
249.606
21
-73.504
0
LINE
8
BLACK
6
CONTINUOUS
10
249.606
20
-73.504
11
251.74
21
-73.504
0
LINE
8
BLACK
6
CONTINUOUS
10
251.74
20
-73.504
11
251.74
21
-77.9744
0
LINE
8
BLACK
6
CONTINUOUS
10
238.306
20
-64.7561
11
240.706
21
-64.7561
0
LINE
8
BLACK
6
CONTINUOUS
10
240.706
20
-64.7561
11
240.706
21
-70.1973
0
LINE
8
BLACK
6
CONTINUOUS
10
240.706
20
-70.1973
11
238.306
21
-70.1973
0
LINE
8
BLACK
6
CONTINUOUS
10
238.306
20
-70.1973
11
238.306
21
-64.7561
0
LINE
8
BLACK
6
CONTINUOUS
10
198.84
20
-90.3765
11
198.84
21
-89.776
0
LINE
8
BLACK
6
CONTINUOUS
10
200.727
20
-90.3765
11
198.84
21
-90.3765
0
LINE
8
BLACK
6
CONTINUOUS
10
200.727
20
-93.0943
11
200.727
21
-90.3765
0
LINE
8
BLACK
6
CONTINUOUS
10
187.342
20
-91.6461
11
187.342
21
-92.9923
0
LINE
8
BLACK
6
CONTINUOUS
10
198.84
20
-94.3131
11
193.446
21
-94.3131
0
LINE
8
BLACK
6
CONTINUOUS
10
189.188
20
-96.1927
11
191.186
21
-96.1931
0
LINE
8
BLACK
6
CONTINUOUS
10
185.454
20
-92.9923
11
185.454
21
-95.7101
0
LINE
8
BLACK
6
CONTINUOUS
10
200.727
20
-93.0943
11
198.84
21
-93.0943
0
LINE
8
BLACK
6
CONTINUOUS
10
187.342
20
-95.7101
11
187.342
21
-96.1931
0
LINE
8
BLACK
6
CONTINUOUS
10
187.342
20
-96.1931
11
188.07
21
-96.1931
0
LINE
8
BLACK
6
CONTINUOUS
10
185.454
20
-95.7101
11
187.342
21
-95.7101
0
LINE
8
BLACK
6
CONTINUOUS
10
185.454
20
-92.9923
11
187.342
21
-92.9923
0
LINE
8
BLACK
6
CONTINUOUS
10
198.84
20
-89.776
11
189.264
21
-89.776
0
LINE
8
BLACK
6
CONTINUOUS
10
198.84
20
-94.3131
11
198.84
21
-93.0943
0
ARC
8
BLACK
10
193.42
20
-96.5808
40
2.26789
50
89.3556
51
170.156
0
ARC
8
BLACK
10
188.629
20
-96.8412
40
0.855913
50
-229.221
51
49.262
0
ARC
8
BLACK
10
189.222
20
-91.6562
40
1.88064
50
88.7333
51
179.693
0
CIRCLE
8
BLACK
10
198.789
20
-96.8531
40
0.85
0
CIRCLE
8
BLACK
10
193.709
20
-96.8531
40
2
0
LINE
8
BLACK
6
CONTINUOUS
10
125.439
20
-60.8015
11
127.327
21
-60.8015
0
LINE
8
BLACK
6
CONTINUOUS
10
140.713
20
-60.9035
11
140.713
21
-58.1857
0
LINE
8
BLACK
6
CONTINUOUS
10
138.825
20
-62.1223
11
133.431
21
-62.1223
0
LINE
8
BLACK
6
CONTINUOUS
10
125.439
20
-60.8015
11
125.439
21
-63.5193
0
LINE
8
BLACK
6
CONTINUOUS
10
125.439
20
-63.5193
11
127.327
21
-63.5193
0
LINE
8
BLACK
6
CONTINUOUS
10
127.327
20
-64.0023
11
128.055
21
-64.0023
0
LINE
8
BLACK
6
CONTINUOUS
10
140.713
20
-60.9035
11
138.825
21
-60.9035
0
LINE
8
BLACK
6
CONTINUOUS
10
140.713
20
-58.1857
11
138.825
21
-58.1857
0
LINE
8
BLACK
6
CONTINUOUS
10
138.825
20
-62.1223
11
138.825
21
-60.9035
0
LINE
8
BLACK
6
CONTINUOUS
10
138.825
20
-58.1857
11
138.825
21
-57.5852
0
LINE
8
BLACK
6
CONTINUOUS
10
129.173
20
-64.0019
11
131.171
21
-64.0023
0
LINE
8
BLACK
6
CONTINUOUS
10
127.327
20
-59.4553
11
127.327
21
-60.8015
0
LINE
8
BLACK
6
CONTINUOUS
10
127.327
20
-63.5193
11
127.327
21
-64.0023
0
LINE
8
BLACK
6
CONTINUOUS
10
138.825
20
-57.5852
11
129.249
21
-57.5852
0
ARC
8
BLACK
10
133.405
20
-64.39
40
2.26789
50
89.3556
51
170.156
0
ARC
8
BLACK
10
128.614
20
-64.6504
40
0.855913
50
-229.221
51
49.262
0
ARC
8
BLACK
10
129.207
20
-59.4654
40
1.88064
50
88.7333
51
179.693
0
CIRCLE
8
BLACK
10
138.774
20
-64.6623
40
0.85
0
CIRCLE
8
BLACK
10
133.694
20
-64.6623
40
2
0
LINE
8
BLACK
6
CONTINUOUS
10
119.825
20
-75.1867
11
119.825
21
-74.5862
0
LINE
8
BLACK
6
CONTINUOUS
10
106.439
20
-77.8025
11
108.327
21
-77.8025
0
LINE
8
BLACK
6
CONTINUOUS
10
121.712
20
-77.9045
11
119.825
21
-77.9045
0
LINE
8
BLACK
6
CONTINUOUS
10
106.439
20
-80.5203
11
108.327
21
-80.5203
0
LINE
8
BLACK
6
CONTINUOUS
10
108.327
20
-76.4563
11
108.327
21
-77.8025
0
LINE
8
BLACK
6
CONTINUOUS
10
108.327
20
-81.0033
11
109.055
21
-81.0033
0
LINE
8
BLACK
6
CONTINUOUS
10
119.825
20
-79.1233
11
119.825
21
-77.9045
0
LINE
8
BLACK
6
CONTINUOUS
10
119.825
20
-74.5862
11
110.249
21
-74.5862
0
LINE
8
BLACK
6
CONTINUOUS
10
108.327
20
-80.5203
11
108.327
21
-81.0033
0
LINE
8
BLACK
6
CONTINUOUS
10
110.173
20
-81.0029
11
112.171
21
-81.0033
0
LINE
8
BLACK
6
CONTINUOUS
10
106.439
20
-77.8025
11
106.439
21
-80.5203
0
LINE
8
BLACK
6
CONTINUOUS
10
121.712
20
-77.9045
11
121.712
21
-75.1867
0
LINE
8
BLACK
6
CONTINUOUS
10
119.825
20
-79.1233
11
114.431
21
-79.1233
0
LINE
8
BLACK
6
CONTINUOUS
10
121.712
20
-75.1867
11
119.825
21
-75.1867
0
ARC
8
BLACK
10
114.405
20
-81.391
40
2.26789
50
89.3556
51
170.156
0
ARC
8
BLACK
10
109.614
20
-81.6514
40
0.855913
50
-229.221
51
49.262
0
ARC
8
BLACK
10
110.207
20
-76.4664
40
1.88064
50
88.7333
51
179.693
0
CIRCLE
8
BLACK
10
119.774
20
-81.6633
40
0.85
0
CIRCLE
8
BLACK
10
114.694
20
-81.6633
40
2
0
LINE
8
BLACK
6
CONTINUOUS
10
91.1732
20
-58.1925
11
93.1712
21
-58.1929
0
LINE
8
BLACK
6
CONTINUOUS
10
102.713
20
-55.0941
11
100.825
21
-55.0941
0
LINE
8
BLACK
6
CONTINUOUS
10
89.3272
20
-57.7099
11
89.3272
21
-58.1929
0
LINE
8
BLACK
6
CONTINUOUS
10
100.825
20
-52.3763
11
100.825
21
-51.7758
0
LINE
8
BLACK
6
CONTINUOUS
10
87.4394
20
-54.9921
11
89.3272
21
-54.9921
0
LINE
8
BLACK
6
CONTINUOUS
10
89.3272
20
-53.6459
11
89.3272
21
-54.9921
0
LINE
8
BLACK
6
CONTINUOUS
10
100.825
20
-51.7758
11
91.2494
21
-51.7758
0
LINE
8
BLACK
6
CONTINUOUS
10
100.825
20
-56.3129
11
95.4312
21
-56.3129
0
LINE
8
BLACK
6
CONTINUOUS
10
87.4394
20
-54.9921
11
87.4394
21
-57.7099
0
LINE
8
BLACK
6
CONTINUOUS
10
100.825
20
-56.3129
11
100.825
21
-55.0941
0
LINE
8
BLACK
6
CONTINUOUS
10
89.3272
20
-58.1929
11
90.0556
21
-58.1929
0
LINE
8
BLACK
6
CONTINUOUS
10
102.713
20
-52.3763
11
100.825
21
-52.3763
0
LINE
8
BLACK
6
CONTINUOUS
10
87.4394
20
-57.7099
11
89.3272
21
-57.7099
0
LINE
8
BLACK
6
CONTINUOUS
10
102.713
20
-55.0941
11
102.713
21
-52.3763
0
ARC
8
BLACK
10
90.6147
20
-58.8411
40
0.855913
50
-229.221
51
49.262
0
ARC
8
BLACK
10
91.2079
20
-53.656
40
1.88064
50
88.7333
51
179.693
0
ARC
8
BLACK
10
95.4057
20
-58.5807
40
2.26789
50
89.3556
51
170.156
0
CIRCLE
8
BLACK
10
95.6944
20
-58.8529
40
2
0
CIRCLE
8
BLACK
10
100.774
20
-58.8529
40
0.85
0
CIRCLE
8
BLACK
10
250.046
20
-141.929
40
1.6
0
LINE
8
BLACK
6
CONTINUOUS
10
199.079
20
-123.145
11
204.52
21
-123.145
0
LINE
8
BLACK
6
CONTINUOUS
10
204.52
20
-123.145
11
204.52
21
-120.745
0
LINE
8
BLACK
6
CONTINUOUS
10
204.52
20
-120.745
11
199.079
21
-120.745
0
LINE
8
BLACK
6
CONTINUOUS
10
199.079
20
-120.745
11
199.079
21
-123.145
0
LINE
8
BLACK
6
CONTINUOUS
10
119.825
20
-98.1229
11
119.825
21
-96.9041
0
LINE
8
BLACK
6
CONTINUOUS
10
106.439
20
-96.8021
11
108.327
21
-96.8021
0
LINE
8
BLACK
6
CONTINUOUS
10
108.327
20
-95.4559
11
108.327
21
-96.8021
0
LINE
8
BLACK
6
CONTINUOUS
10
106.439
20
-96.8021
11
106.439
21
-99.5199
0
LINE
8
BLACK
6
CONTINUOUS
10
108.327
20
-99.5199
11
108.327
21
-100.003
0
LINE
8
BLACK
6
CONTINUOUS
10
106.439
20
-99.5199
11
108.327
21
-99.5199
0
LINE
8
BLACK
6
CONTINUOUS
10
119.825
20
-98.1229
11
114.431
21
-98.1229
0
LINE
8
BLACK
6
CONTINUOUS
10
108.327
20
-100.003
11
109.055
21
-100.003
0
LINE
8
BLACK
6
CONTINUOUS
10
121.712
20
-96.9041
11
119.825
21
-96.9041
0
LINE
8
BLACK
6
CONTINUOUS
10
119.825
20
-94.1863
11
119.825
21
-93.5858
0
LINE
8
BLACK
6
CONTINUOUS
10
121.712
20
-94.1863
11
119.825
21
-94.1863
0
LINE
8
BLACK
6
CONTINUOUS
10
110.173
20
-100.002
11
112.171
21
-100.003
0
LINE
8
BLACK
6
CONTINUOUS
10
121.712
20
-96.9041
11
121.712
21
-94.1863
0
LINE
8
BLACK
6
CONTINUOUS
10
119.825
20
-93.5858
11
110.249
21
-93.5858
0
ARC
8
BLACK
10
114.405
20
-100.391
40
2.26789
50
89.3556
51
170.156
0
ARC
8
BLACK
10
110.207
20
-95.466
40
1.88064
50
88.7333
51
179.693
0
ARC
8
BLACK
10
109.614
20
-100.651
40
0.855913
50
-229.221
51
49.262
0
CIRCLE
8
BLACK
10
119.774
20
-100.663
40
0.85
0
CIRCLE
8
BLACK
10
114.694
20
-100.663
40
2
0
LINE
8
BLACK
6
CONTINUOUS
10
49.4395
20
-83.5205
11
51.3273
21
-83.5205
0
LINE
8
BLACK
6
CONTINUOUS
10
51.3273
20
-84.0035
11
52.0557
21
-84.0035
0
LINE
8
BLACK
6
CONTINUOUS
10
62.8253
20
-77.5864
11
53.2495
21
-77.5864
0
LINE
8
BLACK
6
CONTINUOUS
10
62.8253
20
-78.1869
11
62.8253
21
-77.5864
0
LINE
8
BLACK
6
CONTINUOUS
10
51.3273
20
-83.5205
11
51.3273
21
-84.0035
0
LINE
8
BLACK
6
CONTINUOUS
10
62.8253
20
-82.1235
11
62.8253
21
-80.9047
0
LINE
8
BLACK
6
CONTINUOUS
10
64.7131
20
-80.9047
11
62.8253
21
-80.9047
0
LINE
8
BLACK
6
CONTINUOUS
10
53.1733
20
-84.0031
11
55.1713
21
-84.0035
0
LINE
8
BLACK
6
CONTINUOUS
10
51.3273
20
-79.4565
11
51.3273
21
-80.8027
0
LINE
8
BLACK
6
CONTINUOUS
10
64.7131
20
-78.1869
11
62.8253
21
-78.1869
0
LINE
8
BLACK
6
CONTINUOUS
10
64.7131
20
-80.9047
11
64.7131
21
-78.1869
0
LINE
8
BLACK
6
CONTINUOUS
10
62.8253
20
-82.1235
11
57.4313
21
-82.1235
0
LINE
8
BLACK
6
CONTINUOUS
10
49.4395
20
-80.8027
11
49.4395
21
-83.5205
0
LINE
8
BLACK
6
CONTINUOUS
10
49.4395
20
-80.8027
11
51.3273
21
-80.8027
0
ARC
8
BLACK
10
53.208
20
-79.4666
40
1.88064
50
88.7333
51
179.693
0
ARC
8
BLACK
10
52.6148
20
-84.6516
40
0.855913
50
-229.221
51
49.262
0
ARC
8
BLACK
10
57.4058
20
-84.3912
40
2.26789
50
89.3556
51
170.156
0
CIRCLE
8
BLACK
10
62.7745
20
-84.6635
40
0.85
0
CIRCLE
8
BLACK
10
57.6945
20
-84.6635
40
2
0
LINE
8
BLACK
6
CONTINUOUS
10
257.097
20
-101.576
11
257.097
21
-102.976
0
LINE
8
BLACK
6
CONTINUOUS
10
255.797
20
-100.876
11
256.397
21
-100.876
0
LINE
8
BLACK
6
CONTINUOUS
10
255.097
20
-102.976
11
255.097
21
-101.576
0
LINE
8
BLACK
6
CONTINUOUS
10
256.397
20
-103.676
11
255.797
21
-103.676
0
ARC
8
BLACK
10
256.397
20
-102.976
40
0.7
50
-90
51
-0
0
ARC
8
BLACK
10
255.797
20
-102.976
40
0.7
50
-180
51
-90
0
ARC
8
BLACK
10
255.797
20
-101.576
40
0.699999
50
-270
51
-180
0
ARC
8
BLACK
10
256.397
20
-101.576
40
0.699999
50
-8.18512e-05
51
90.0001
0
LINE
8
BLACK
6
CONTINUOUS
10
206.342
20
-61.5201
11
206.342
21
-62.0031
0
LINE
8
BLACK
6
CONTINUOUS
10
219.728
20
-56.1865
11
217.84
21
-56.1865
0
LINE
8
BLACK
6
CONTINUOUS
10
217.84
20
-60.1231
11
217.84
21
-58.9043
0
LINE
8
BLACK
6
CONTINUOUS
10
204.454
20
-58.8023
11
204.454
21
-61.5201
0
LINE
8
BLACK
6
CONTINUOUS
10
204.454
20
-58.8023
11
206.342
21
-58.8023
0
LINE
8
BLACK
6
CONTINUOUS
10
206.342
20
-62.0031
11
207.07
21
-62.0031
0
LINE
8
BLACK
6
CONTINUOUS
10
206.342
20
-57.4561
11
206.342
21
-58.8023
0
LINE
8
BLACK
6
CONTINUOUS
10
208.188
20
-62.0027
11
210.186
21
-62.0031
0
LINE
8
BLACK
6
CONTINUOUS
10
204.454
20
-61.5201
11
206.342
21
-61.5201
0
LINE
8
BLACK
6
CONTINUOUS
10
219.728
20
-58.9043
11
219.728
21
-56.1865
0
LINE
8
BLACK
6
CONTINUOUS
10
217.84
20
-56.1865
11
217.84
21
-55.586
0
LINE
8
BLACK
6
CONTINUOUS
10
217.84
20
-60.1231
11
212.446
21
-60.1231
0
LINE
8
BLACK
6
CONTINUOUS
10
219.728
20
-58.9043
11
217.84
21
-58.9043
0
LINE
8
BLACK
6
CONTINUOUS
10
217.84
20
-55.586
11
208.264
21
-55.586
0
ARC
8
BLACK
10
208.222
20
-57.4662
40
1.88064
50
88.7333
51
179.693
0
ARC
8
BLACK
10
212.42
20
-62.3909
40
2.26789
50
89.3556
51
170.156
0
ARC
8
BLACK
10
207.629
20
-62.6513
40
0.855913
50
-229.221
51
49.262
0
CIRCLE
8
BLACK
10
212.709
20
-62.6631
40
2
0
CIRCLE
8
BLACK
10
217.789
20
-62.6631
40
0.85
0
LINE
8
BLACK
6
CONTINUOUS
10
166.454
20
-58.8029
11
166.454
21
-61.5207
0
LINE
8
BLACK
6
CONTINUOUS
10
170.188
20
-62.0033
11
172.186
21
-62.0037
0
LINE
8
BLACK
6
CONTINUOUS
10
181.728
20
-56.1871
11
179.84
21
-56.1871
0
LINE
8
BLACK
6
CONTINUOUS
10
168.342
20
-62.0037
11
169.071
21
-62.0037
0
LINE
8
BLACK
6
CONTINUOUS
10
168.342
20
-61.5207
11
168.342
21
-62.0037
0
LINE
8
BLACK
6
CONTINUOUS
10
179.84
20
-60.1237
11
179.84
21
-58.9049
0
LINE
8
BLACK
6
CONTINUOUS
10
181.728
20
-58.9049
11
179.84
21
-58.9049
0
LINE
8
BLACK
6
CONTINUOUS
10
168.342
20
-57.4567
11
168.342
21
-58.8029
0
LINE
8
BLACK
6
CONTINUOUS
10
166.454
20
-58.8029
11
168.342
21
-58.8029
0
LINE
8
BLACK
6
CONTINUOUS
10
179.84
20
-60.1237
11
174.446
21
-60.1237
0
LINE
8
BLACK
6
CONTINUOUS
10
181.728
20
-58.9049
11
181.728
21
-56.1871
0
LINE
8
BLACK
6
CONTINUOUS
10
179.84
20
-56.1871
11
179.84
21
-55.5866
0
LINE
8
BLACK
6
CONTINUOUS
10
179.84
20
-55.5866
11
170.264
21
-55.5866
0
LINE
8
BLACK
6
CONTINUOUS
10
166.454
20
-61.5207
11
168.342
21
-61.5207
0
ARC
8
BLACK
10
174.421
20
-62.3914
40
2.26789
50
89.3556
51
170.156
0
ARC
8
BLACK
10
169.63
20
-62.6518
40
0.855913
50
-229.221
51
49.262
0
ARC
8
BLACK
10
170.223
20
-57.4668
40
1.88064
50
88.7333
51
179.693
0
CIRCLE
8
BLACK
10
174.709
20
-62.6637
40
2
0
CIRCLE
8
BLACK
10
179.789
20
-62.6637
40
0.85
0
LINE
8
BLACK
6
CONTINUOUS
10
225.342
20
-65.0037
11
226.07
21
-65.0037
0
LINE
8
BLACK
6
CONTINUOUS
10
238.727
20
-59.1871
11
236.84
21
-59.1871
0
LINE
8
BLACK
6
CONTINUOUS
10
223.454
20
-61.8029
11
225.342
21
-61.8029
0
LINE
8
BLACK
6
CONTINUOUS
10
236.84
20
-63.1237
11
236.84
21
-61.9049
0
LINE
8
BLACK
6
CONTINUOUS
10
223.454
20
-64.5207
11
225.342
21
-64.5207
0
LINE
8
BLACK
6
CONTINUOUS
10
236.84
20
-59.1871
11
236.84
21
-58.5866
0
LINE
8
BLACK
6
CONTINUOUS
10
227.188
20
-65.0033
11
229.186
21
-65.0037
0
LINE
8
BLACK
6
CONTINUOUS
10
236.84
20
-58.5866
11
227.264
21
-58.5866
0
LINE
8
BLACK
6
CONTINUOUS
10
225.342
20
-60.4567
11
225.342
21
-61.8029
0
LINE
8
BLACK
6
CONTINUOUS
10
238.727
20
-61.9049
11
238.727
21
-59.1871
0
LINE
8
BLACK
6
CONTINUOUS
10
236.84
20
-63.1237
11
231.446
21
-63.1237
0
LINE
8
BLACK
6
CONTINUOUS
10
225.342
20
-64.5207
11
225.342
21
-65.0037
0
LINE
8
BLACK
6
CONTINUOUS
10
238.727
20
-61.9049
11
236.84
21
-61.9049
0
LINE
8
BLACK
6
CONTINUOUS
10
223.454
20
-61.8029
11
223.454
21
-64.5207
0
ARC
8
BLACK
10
226.629
20
-65.6518
40
0.855913
50
-229.221
51
49.262
0
ARC
8
BLACK
10
227.222
20
-60.4668
40
1.88064
50
88.7333
51
179.693
0
ARC
8
BLACK
10
231.42
20
-65.3914
40
2.26789
50
89.3556
51
170.156
0
CIRCLE
8
BLACK
10
236.789
20
-65.6637
40
0.85
0
CIRCLE
8
BLACK
10
231.709
20
-65.6637
40
2
0
LINE
8
BLACK
6
CONTINUOUS
10
59.7365
20
-120.87
11
60.0849
21
-122.17
0
LINE
8
BLACK
6
CONTINUOUS
10
58.9649
20
-125.284
11
60.7883
21
-124.795
0
LINE
8
BLACK
6
CONTINUOUS
10
73.041
20
-118.804
11
72.3376
21
-116.179
0
LINE
8
BLACK
6
CONTINUOUS
10
62.6963
20
-124.784
11
64.6264
21
-124.267
0
LINE
8
BLACK
6
CONTINUOUS
10
58.2614
20
-122.659
11
58.9649
21
-125.284
0
LINE
8
BLACK
6
CONTINUOUS
10
58.2614
20
-122.659
11
60.0849
21
-122.17
0
LINE
8
BLACK
6
CONTINUOUS
10
70.3587
20
-116.088
11
61.1092
21
-118.566
0
LINE
8
BLACK
6
CONTINUOUS
10
73.041
20
-118.804
11
71.2175
21
-119.293
0
LINE
8
BLACK
6
CONTINUOUS
10
60.9133
20
-125.262
11
61.6169
21
-125.073
0
LINE
8
BLACK
6
CONTINUOUS
10
71.533
20
-120.47
11
66.3228
21
-121.866
0
LINE
8
BLACK
6
CONTINUOUS
10
70.5141
20
-116.668
11
70.3587
21
-116.088
0
LINE
8
BLACK
6
CONTINUOUS
10
60.7883
20
-124.795
11
60.9133
21
-125.262
0
LINE
8
BLACK
6
CONTINUOUS
10
71.533
20
-120.47
11
71.2175
21
-119.293
0
LINE
8
BLACK
6
CONTINUOUS
10
72.3376
20
-116.179
11
70.5141
21
-116.668
0
ARC
8
BLACK
10
62.3246
20
-125.555
40
0.855913
50
-214.221
51
64.2621
0
ARC
8
BLACK
10
61.5556
20
-120.393
40
1.88064
50
-256.267
51
-165.307
0
ARC
8
BLACK
10
66.8851
20
-124.063
40
2.26789
50
-255.644
51
-174.844
0
CIRCLE
8
BLACK
10
72.1413
20
-122.937
40
0.85
0
CIRCLE
8
BLACK
10
67.2344
20
-124.251
40
2
0
LINE
8
BLACK
6
CONTINUOUS
10
41.3892
20
-65.3885
11
46.2152
21
-65.3885
0
LINE
8
BLACK
6
CONTINUOUS
10
46.2152
20
-65.3885
11
46.2152
21
-95.8685
0
LINE
8
BLACK
6
CONTINUOUS
10
46.2152
20
-95.8685
11
41.3892
21
-95.8685
0
LINE
8
BLACK
6
CONTINUOUS
10
41.3892
20
-95.8685
11
41.3892
21
-65.3885
0
LINE
8
BLACK
6
CONTINUOUS
10
27.9272
20
-65.3885
11
32.7532
21
-65.3885
0
LINE
8
BLACK
6
CONTINUOUS
10
32.7532
20
-65.3885
11
32.7532
21
-95.8685
0
LINE
8
BLACK
6
CONTINUOUS
10
32.7532
20
-95.8685
11
27.9272
21
-95.8685
0
LINE
8
BLACK
6
CONTINUOUS
10
27.9272
20
-95.8685
11
27.9272
21
-65.3885
0
LINE
8
BLACK
6
CONTINUOUS
10
182.083
20
-123.145
11
187.524
21
-123.145
0
LINE
8
BLACK
6
CONTINUOUS
10
187.524
20
-123.145
11
187.524
21
-120.745
0
LINE
8
BLACK
6
CONTINUOUS
10
187.524
20
-120.745
11
182.083
21
-120.745
0
LINE
8
BLACK
6
CONTINUOUS
10
182.083
20
-120.745
11
182.083
21
-123.145
0
LINE
8
BLACK
6
CONTINUOUS
10
162.306
20
-101.755
11
164.706
21
-101.755
0
LINE
8
BLACK
6
CONTINUOUS
10
164.706
20
-101.755
11
164.706
21
-107.196
0
LINE
8
BLACK
6
CONTINUOUS
10
164.706
20
-107.196
11
162.306
21
-107.196
0
LINE
8
BLACK
6
CONTINUOUS
10
162.306
20
-107.196
11
162.306
21
-101.755
0
LINE
8
BLACK
6
CONTINUOUS
10
174.181
20
-87.8182
11
166.881
21
-87.8182
0
LINE
8
BLACK
6
CONTINUOUS
10
166.881
20
-87.8182
11
166.881
21
-93.3182
0
LINE
8
BLACK
6
CONTINUOUS
10
166.881
20
-93.3182
11
174.181
21
-93.3182
0
LINE
8
BLACK
6
CONTINUOUS
10
174.181
20
-93.3182
11
174.181
21
-87.8182
0
LINE
8
BLACK
6
CONTINUOUS
10
32.3065
20
-102.976
11
32.3065
21
-101.576
0
LINE
8
BLACK
6
CONTINUOUS
10
33.6065
20
-103.676
11
33.0065
21
-103.676
0
LINE
8
BLACK
6
CONTINUOUS
10
34.3065
20
-101.576
11
34.3065
21
-102.976
0
LINE
8
BLACK
6
CONTINUOUS
10
33.0065
20
-100.876
11
33.6065
21
-100.876
0
ARC
8
BLACK
10
33.6065
20
-102.976
40
0.7
50
-90
51
-0
0
ARC
8
BLACK
10
33.0065
20
-102.976
40
0.7
50
-180
51
-90
0
ARC
8
BLACK
10
33.0065
20
-101.576
40
0.699999
50
-270
51
-180
0
ARC
8
BLACK
10
33.6065
20
-101.576
40
0.699999
50
-8.18512e-05
51
90.0001
0
LINE
8
BLACK
6
CONTINUOUS
10
81.825
20
-79.1231
11
76.431
21
-79.1231
0
LINE
8
BLACK
6
CONTINUOUS
10
70.327
20
-80.5201
11
70.327
21
-81.0031
0
LINE
8
BLACK
6
CONTINUOUS
10
81.825
20
-74.586
11
72.2492
21
-74.586
0
LINE
8
BLACK
6
CONTINUOUS
10
72.173
20
-81.0027
11
74.171
21
-81.0031
0
LINE
8
BLACK
6
CONTINUOUS
10
83.7128
20
-77.9043
11
83.7128
21
-75.1865
0
LINE
8
BLACK
6
CONTINUOUS
10
83.7128
20
-77.9043
11
81.825
21
-77.9043
0
LINE
8
BLACK
6
CONTINUOUS
10
81.825
20
-79.1231
11
81.825
21
-77.9043
0
LINE
8
BLACK
6
CONTINUOUS
10
68.4392
20
-80.5201
11
70.327
21
-80.5201
0
LINE
8
BLACK
6
CONTINUOUS
10
68.4392
20
-77.8023
11
68.4392
21
-80.5201
0
LINE
8
BLACK
6
CONTINUOUS
10
68.4392
20
-77.8023
11
70.327
21
-77.8023
0
LINE
8
BLACK
6
CONTINUOUS
10
70.327
20
-81.0031
11
71.0554
21
-81.0031
0
LINE
8
BLACK
6
CONTINUOUS
10
70.327
20
-76.4561
11
70.327
21
-77.8023
0
LINE
8
BLACK
6
CONTINUOUS
10
81.825
20
-75.1865
11
81.825
21
-74.586
0
LINE
8
BLACK
6
CONTINUOUS
10
83.7128
20
-75.1865
11
81.825
21
-75.1865
0
ARC
8
BLACK
10
71.6145
20
-81.6512
40
0.855913
50
-229.221
51
49.262
0
ARC
8
BLACK
10
76.4055
20
-81.3908
40
2.26789
50
89.3556
51
170.156
0
ARC
8
BLACK
10
72.2077
20
-76.4662
40
1.88064
50
88.7333
51
179.693
0
CIRCLE
8
BLACK
10
81.7742
20
-81.6631
40
0.85
0
CIRCLE
8
BLACK
10
76.6942
20
-81.6631
40
2
0
LINE
8
BLACK
6
CONTINUOUS
10
181.306
20
-80.7553
11
183.706
21
-80.7553
0
LINE
8
BLACK
6
CONTINUOUS
10
183.706
20
-80.7553
11
183.706
21
-86.1965
0
LINE
8
BLACK
6
CONTINUOUS
10
183.706
20
-86.1965
11
181.306
21
-86.1965
0
LINE
8
BLACK
6
CONTINUOUS
10
181.306
20
-86.1965
11
181.306
21
-80.7553
0
LINE
8
BLACK
6
CONTINUOUS
10
162.306
20
-82.7547
11
164.706
21
-82.7547
0
LINE
8
BLACK
6
CONTINUOUS
10
164.706
20
-82.7547
11
164.706
21
-88.1959
0
LINE
8
BLACK
6
CONTINUOUS
10
164.706
20
-88.1959
11
162.306
21
-88.1959
0
LINE
8
BLACK
6
CONTINUOUS
10
162.306
20
-88.1959
11
162.306
21
-82.7547
0
LINE
8
BLACK
6
CONTINUOUS
10
237.137
20
-118.957
11
234.737
21
-118.957
0
LINE
8
BLACK
6
CONTINUOUS
10
234.737
20
-118.957
11
234.737
21
-113.515
0
LINE
8
BLACK
6
CONTINUOUS
10
234.737
20
-113.515
11
237.137
21
-113.515
0
LINE
8
BLACK
6
CONTINUOUS
10
237.137
20
-113.515
11
237.137
21
-118.957
0
LINE
8
BLACK
6
CONTINUOUS
10
181.306
20
-61.7557
11
183.706
21
-61.7557
0
LINE
8
BLACK
6
CONTINUOUS
10
183.706
20
-61.7557
11
183.706
21
-67.1969
0
LINE
8
BLACK
6
CONTINUOUS
10
183.706
20
-67.1969
11
181.306
21
-67.1969
0
LINE
8
BLACK
6
CONTINUOUS
10
181.306
20
-67.1969
11
181.306
21
-61.7557
0
LINE
8
BLACK
6
CONTINUOUS
10
204.454
20
-96.8027
11
204.454
21
-99.5205
0
LINE
8
BLACK
6
CONTINUOUS
10
217.84
20
-98.1235
11
212.446
21
-98.1235
0
LINE
8
BLACK
6
CONTINUOUS
10
217.84
20
-94.1869
11
217.84
21
-93.5864
0
LINE
8
BLACK
6
CONTINUOUS
10
206.342
20
-100.003
11
207.07
21
-100.003
0
LINE
8
BLACK
6
CONTINUOUS
10
208.188
20
-100.003
11
210.186
21
-100.003
0
LINE
8
BLACK
6
CONTINUOUS
10
217.84
20
-98.1235
11
217.84
21
-96.9047
0
LINE
8
BLACK
6
CONTINUOUS
10
219.728
20
-96.9047
11
219.728
21
-94.1869
0
LINE
8
BLACK
6
CONTINUOUS
10
204.454
20
-96.8027
11
206.342
21
-96.8027
0
LINE
8
BLACK
6
CONTINUOUS
10
219.728
20
-94.1869
11
217.84
21
-94.1869
0
LINE
8
BLACK
6
CONTINUOUS
10
219.728
20
-96.9047
11
217.84
21
-96.9047
0
LINE
8
BLACK
6
CONTINUOUS
10
206.342
20
-95.4565
11
206.342
21
-96.8027
0
LINE
8
BLACK
6
CONTINUOUS
10
206.342
20
-99.5205
11
206.342
21
-100.003
0
LINE
8
BLACK
6
CONTINUOUS
10
204.454
20
-99.5205
11
206.342
21
-99.5205
0
LINE
8
BLACK
6
CONTINUOUS
10
217.84
20
-93.5864
11
208.264
21
-93.5864
0
ARC
8
BLACK
10
207.629
20
-100.652
40
0.855913
50
-229.221
51
49.262
0
ARC
8
BLACK
10
212.42
20
-100.391
40
2.26789
50
89.3556
51
170.156
0
ARC
8
BLACK
10
208.222
20
-95.4666
40
1.88064
50
88.7333
51
179.693
0
CIRCLE
8
BLACK
10
212.709
20
-100.663
40
2
0
CIRCLE
8
BLACK
10
217.789
20
-100.663
40
0.85
0
LINE
8
BLACK
6
CONTINUOUS
10
40.765
20
-131.43
11
42.5885
21
-130.942
0
LINE
8
BLACK
6
CONTINUOUS
10
52.1589
20
-122.234
11
42.9093
21
-124.712
0
LINE
8
BLACK
6
CONTINUOUS
10
40.0616
20
-128.805
11
41.8851
21
-128.317
0
LINE
8
BLACK
6
CONTINUOUS
10
52.3143
20
-122.814
11
52.1589
21
-122.234
0
LINE
8
BLACK
6
CONTINUOUS
10
53.3331
20
-126.616
11
53.0177
21
-125.439
0
LINE
8
BLACK
6
CONTINUOUS
10
54.8412
20
-124.951
11
54.1378
21
-122.325
0
LINE
8
BLACK
6
CONTINUOUS
10
54.8412
20
-124.951
11
53.0177
21
-125.439
0
LINE
8
BLACK
6
CONTINUOUS
10
42.5885
20
-130.942
11
42.7135
21
-131.408
0
LINE
8
BLACK
6
CONTINUOUS
10
53.3331
20
-126.616
11
48.123
21
-128.012
0
LINE
8
BLACK
6
CONTINUOUS
10
54.1378
20
-122.325
11
52.3143
21
-122.814
0
LINE
8
BLACK
6
CONTINUOUS
10
40.0616
20
-128.805
11
40.765
21
-131.43
0
LINE
8
BLACK
6
CONTINUOUS
10
41.5367
20
-127.016
11
41.8851
21
-128.317
0
LINE
8
BLACK
6
CONTINUOUS
10
42.7135
20
-131.408
11
43.4171
21
-131.22
0
LINE
8
BLACK
6
CONTINUOUS
10
44.4965
20
-130.93
11
46.4265
21
-130.413
0
ARC
8
BLACK
10
44.1248
20
-131.701
40
0.855913
50
-214.221
51
64.2621
0
ARC
8
BLACK
10
43.3558
20
-126.539
40
1.88064
50
-256.267
51
-165.307
0
ARC
8
BLACK
10
48.6853
20
-130.21
40
2.26789
50
-255.644
51
-174.844
0
CIRCLE
8
BLACK
10
49.0346
20
-130.398
40
2
0
CIRCLE
8
BLACK
10
53.9415
20
-129.083
40
0.85
0
LINE
8
BLACK
6
CONTINUOUS
10
83.7128
20
-56.1865
11
81.825
21
-56.1865
0
LINE
8
BLACK
6
CONTINUOUS
10
81.825
20
-56.1865
11
81.825
21
-55.586
0
LINE
8
BLACK
6
CONTINUOUS
10
68.4392
20
-61.5201
11
70.327
21
-61.5201
0
LINE
8
BLACK
6
CONTINUOUS
10
68.4392
20
-58.8023
11
70.327
21
-58.8023
0
LINE
8
BLACK
6
CONTINUOUS
10
70.327
20
-61.5201
11
70.327
21
-62.0031
0
LINE
8
BLACK
6
CONTINUOUS
10
81.825
20
-60.1231
11
81.825
21
-58.9043
0
LINE
8
BLACK
6
CONTINUOUS
10
72.173
20
-62.0027
11
74.171
21
-62.0031
0
LINE
8
BLACK
6
CONTINUOUS
10
81.825
20
-60.1231
11
76.431
21
-60.1231
0
LINE
8
BLACK
6
CONTINUOUS
10
68.4392
20
-58.8023
11
68.4392
21
-61.5201
0
LINE
8
BLACK
6
CONTINUOUS
10
81.825
20
-55.586
11
72.2492
21
-55.586
0
LINE
8
BLACK
6
CONTINUOUS
10
83.7128
20
-58.9043
11
83.7128
21
-56.1865
0
LINE
8
BLACK
6
CONTINUOUS
10
70.327
20
-62.0031
11
71.0554
21
-62.0031
0
LINE
8
BLACK
6
CONTINUOUS
10
83.7128
20
-58.9043
11
81.825
21
-58.9043
0
LINE
8
BLACK
6
CONTINUOUS
10
70.327
20
-57.4561
11
70.327
21
-58.8023
0
ARC
8
BLACK
10
71.6145
20
-62.6513
40
0.855913
50
-229.221
51
49.262
0
ARC
8
BLACK
10
76.4055
20
-62.3909
40
2.26789
50
89.3556
51
170.156
0
ARC
8
BLACK
10
72.2077
20
-57.4662
40
1.88064
50
88.7333
51
179.693
0
CIRCLE
8
BLACK
10
76.6942
20
-62.6631
40
2
0
CIRCLE
8
BLACK
10
81.7742
20
-62.6631
40
0.85
0
LINE
8
BLACK
6
CONTINUOUS
10
200.306
20
-95.9451
11
202.706
21
-95.9451
0
LINE
8
BLACK
6
CONTINUOUS
10
202.706
20
-95.9451
11
202.706
21
-101.386
0
LINE
8
BLACK
6
CONTINUOUS
10
202.706
20
-101.386
11
200.306
21
-101.386
0
LINE
8
BLACK
6
CONTINUOUS
10
200.306
20
-101.386
11
200.306
21
-95.9451
0
LINE
8
BLACK
6
CONTINUOUS
10
162.306
20
-63.7543
11
164.706
21
-63.7543
0
LINE
8
BLACK
6
CONTINUOUS
10
164.706
20
-63.7543
11
164.706
21
-69.1955
0
LINE
8
BLACK
6
CONTINUOUS
10
164.706
20
-69.1955
11
162.306
21
-69.1955
0
LINE
8
BLACK
6
CONTINUOUS
10
162.306
20
-69.1955
11
162.306
21
-63.7543
0
LINE
8
BLACK
6
CONTINUOUS
10
223.853
20
-87.0082
11
216.553
21
-87.0082
0
LINE
8
BLACK
6
CONTINUOUS
10
216.553
20
-87.0082
11
216.553
21
-92.5082
0
LINE
8
BLACK
6
CONTINUOUS
10
216.553
20
-92.5082
11
223.853
21
-92.5082
0
LINE
8
BLACK
6
CONTINUOUS
10
223.853
20
-92.5082
11
223.853
21
-87.0082
0
LINE
8
BLACK
6
CONTINUOUS
10
108.327
20
-62.0037
11
109.055
21
-62.0037
0
LINE
8
BLACK
6
CONTINUOUS
10
106.439
20
-58.8029
11
106.439
21
-61.5207
0
LINE
8
BLACK
6
CONTINUOUS
10
108.327
20
-61.5207
11
108.327
21
-62.0037
0
LINE
8
BLACK
6
CONTINUOUS
10
110.173
20
-62.0033
11
112.171
21
-62.0037
0
LINE
8
BLACK
6
CONTINUOUS
10
106.439
20
-58.8029
11
108.327
21
-58.8029
0
LINE
8
BLACK
6
CONTINUOUS
10
119.825
20
-56.1871
11
119.825
21
-55.5866
0
LINE
8
BLACK
6
CONTINUOUS
10
106.439
20
-61.5207
11
108.327
21
-61.5207
0
LINE
8
BLACK
6
CONTINUOUS
10
108.327
20
-57.4567
11
108.327
21
-58.8029
0
LINE
8
BLACK
6
CONTINUOUS
10
119.825
20
-60.1237
11
114.431
21
-60.1237
0
LINE
8
BLACK
6
CONTINUOUS
10
121.712
20
-58.9049
11
119.825
21
-58.9049
0
LINE
8
BLACK
6
CONTINUOUS
10
121.712
20
-56.1871
11
119.825
21
-56.1871
0
LINE
8
BLACK
6
CONTINUOUS
10
119.825
20
-60.1237
11
119.825
21
-58.9049
0
LINE
8
BLACK
6
CONTINUOUS
10
121.712
20
-58.9049
11
121.712
21
-56.1871
0
LINE
8
BLACK
6
CONTINUOUS
10
119.825
20
-55.5866
11
110.249
21
-55.5866
0
ARC
8
BLACK
10
109.614
20
-62.6518
40
0.855913
50
-229.221
51
49.262
0
ARC
8
BLACK
10
114.405
20
-62.3914
40
2.26789
50
89.3556
51
170.156
0
ARC
8
BLACK
10
110.207
20
-57.4668
40
1.88064
50
88.7333
51
179.693
0
CIRCLE
8
BLACK
10
119.774
20
-62.6637
40
0.85
0
CIRCLE
8
BLACK
10
114.694
20
-62.6637
40
2
0
LINE
8
BLACK
6
CONTINUOUS
10
252.07
20
-81.1079
11
252.07
21
-79.7079
0
LINE
8
BLACK
6
CONTINUOUS
10
252.77
20
-79.0079
11
253.37
21
-79.0079
0
LINE
8
BLACK
6
CONTINUOUS
10
254.07
20
-79.7079
11
254.07
21
-81.1079
0
LINE
8
BLACK
6
CONTINUOUS
10
253.37
20
-81.8079
11
252.77
21
-81.8079
0
ARC
8
BLACK
10
252.77
20
-79.7079
40
0.7
50
90
51
180
0
ARC
8
BLACK
10
252.77
20
-81.1079
40
0.699999
50
-180
51
-89.9999
0
ARC
8
BLACK
10
253.37
20
-81.1079
40
0.699999
50
-90.0001
51
8.18512e-05
0
ARC
8
BLACK
10
253.37
20
-79.7079
40
0.7
50
-0
51
90
0
LINE
8
BLACK
6
CONTINUOUS
10
62.8253
20
-101.123
11
62.8253
21
-99.9047
0
LINE
8
BLACK
6
CONTINUOUS
10
49.4395
20
-99.8027
11
51.3273
21
-99.8027
0
LINE
8
BLACK
6
CONTINUOUS
10
51.3273
20
-103.003
11
52.0557
21
-103.003
0
LINE
8
BLACK
6
CONTINUOUS
10
53.1733
20
-103.003
11
55.1713
21
-103.003
0
LINE
8
BLACK
6
CONTINUOUS
10
64.7131
20
-99.9047
11
62.8253
21
-99.9047
0
LINE
8
BLACK
6
CONTINUOUS
10
51.3273
20
-102.52
11
51.3273
21
-103.003
0
LINE
8
BLACK
6
CONTINUOUS
10
62.8253
20
-101.123
11
57.4313
21
-101.123
0
LINE
8
BLACK
6
CONTINUOUS
10
62.8253
20
-96.5864
11
53.2495
21
-96.5864
0
LINE
8
BLACK
6
CONTINUOUS
10
62.8253
20
-97.1869
11
62.8253
21
-96.5864
0
LINE
8
BLACK
6
CONTINUOUS
10
51.3273
20
-98.4565
11
51.3273
21
-99.8027
0
LINE
8
BLACK
6
CONTINUOUS
10
49.4395
20
-99.8027
11
49.4395
21
-102.52
0
LINE
8
BLACK
6
CONTINUOUS
10
49.4395
20
-102.52
11
51.3273
21
-102.52
0
LINE
8
BLACK
6
CONTINUOUS
10
64.7131
20
-97.1869
11
62.8253
21
-97.1869
0
LINE
8
BLACK
6
CONTINUOUS
10
64.7131
20
-99.9047
11
64.7131
21
-97.1869
0
ARC
8
BLACK
10
53.208
20
-98.4666
40
1.88064
50
88.7333
51
179.693
0
ARC
8
BLACK
10
57.4058
20
-103.391
40
2.26789
50
89.3556
51
170.156
0
ARC
8
BLACK
10
52.6148
20
-103.652
40
0.855913
50
-229.221
51
49.262
0
CIRCLE
8
BLACK
10
62.7745
20
-103.663
40
0.85
0
CIRCLE
8
BLACK
10
57.6945
20
-103.663
40
2
0
LINE
8
BLACK
6
CONTINUOUS
10
247.918
20
-109.222
11
248.731
21
-109.222
0
LINE
8
BLACK
6
CONTINUOUS
10
247.918
20
-106.784
11
248.731
21
-106.784
0
LINE
8
BLACK
6
CONTINUOUS
10
249.416
20
-110.975
11
250.229
21
-110.975
0
LINE
8
BLACK
6
CONTINUOUS
10
253.404
20
-110.975
11
254.217
21
-110.975
0
LINE
8
BLACK
6
CONTINUOUS
10
253.404
20
-106.886
11
254.217
21
-106.886
0
LINE
8
BLACK
6
CONTINUOUS
10
253.404
20
-105.031
11
254.217
21
-105.031
0
LINE
8
BLACK
6
CONTINUOUS
10
249.416
20
-112.829
11
250.229
21
-112.829
0
LINE
8
BLACK
6
CONTINUOUS
10
247.918
20
-111.077
11
248.731
21
-111.077
0
LINE
8
BLACK
6
CONTINUOUS
10
256.401
20
-106.886
11
257.214
21
-106.886
0
LINE
8
BLACK
6
CONTINUOUS
10
256.401
20
-105.031
11
257.214
21
-105.031
0
LINE
8
BLACK
6
CONTINUOUS
10
253.404
20
-112.829
11
254.217
21
-112.829
0
LINE
8
BLACK
6
CONTINUOUS
10
249.416
20
-105.031
11
250.229
21
-105.031
0
LINE
8
BLACK
6
CONTINUOUS
10
256.401
20
-112.829
11
257.214
21
-112.829
0
LINE
8
BLACK
6
CONTINUOUS
10
247.918
20
-108.638
11
248.731
21
-108.638
0
LINE
8
BLACK
6
CONTINUOUS
10
256.401
20
-110.975
11
257.214
21
-110.975
0
LINE
8
BLACK
6
CONTINUOUS
10
249.416
20
-106.886
11
250.229
21
-106.886
0
ARC
8
BLACK
10
248.731
20
-110.149
40
0.9271
50
-90
51
90
0
ARC
8
BLACK
10
250.229
20
-111.902
40
0.9271
50
-90
51
90
0
ARC
8
BLACK
10
256.401
20
-105.958
40
0.9271
50
-270
51
-90
0
ARC
8
BLACK
10
247.918
20
-107.711
40
0.9271
50
-270
51
-90
0
ARC
8
BLACK
10
248.731
20
-107.711
40
0.9271
50
-90
51
90
0
ARC
8
BLACK
10
249.416
20
-111.902
40
0.9271
50
-270
51
-90
0
ARC
8
BLACK
10
257.214
20
-105.958
40
0.9271
50
-90
51
90
0
ARC
8
BLACK
10
250.229
20
-105.958
40
0.9271
50
-90
51
90
0
ARC
8
BLACK
10
256.401
20
-111.902
40
0.9271
50
-270
51
-90
0
ARC
8
BLACK
10
253.404
20
-111.902
40
0.9271
50
-270
51
-90
0
ARC
8
BLACK
10
249.416
20
-105.958
40
0.9271
50
-270
51
-90
0
ARC
8
BLACK
10
253.404
20
-105.958
40
0.9271
50
-270
51
-90
0
ARC
8
BLACK
10
257.214
20
-111.902
40
0.9271
50
-90
51
90
0
ARC
8
BLACK
10
254.217
20
-105.958
40
0.9271
50
-90
51
90
0
ARC
8
BLACK
10
247.918
20
-110.149
40
0.9271
50
-270
51
-90
0
ARC
8
BLACK
10
254.217
20
-111.902
40
0.9271
50
-90
51
90
0
LINE
8
BLACK
6
CONTINUOUS
10
239.931
20
-118.957
11
237.531
21
-118.957
0
LINE
8
BLACK
6
CONTINUOUS
10
237.531
20
-118.957
11
237.531
21
-113.515
0
LINE
8
BLACK
6
CONTINUOUS
10
237.531
20
-113.515
11
239.931
21
-113.515
0
LINE
8
BLACK
6
CONTINUOUS
10
239.931
20
-113.515
11
239.931
21
-118.957
0
LINE
8
BLACK
6
CONTINUOUS
10
217.366
20
-117.574
11
217.018
21
-118.874
0
LINE
8
BLACK
6
CONTINUOUS
10
228.957
20
-118.743
11
219.707
21
-116.265
0
LINE
8
BLACK
6
CONTINUOUS
10
216.189
20
-121.966
11
216.893
21
-122.154
0
LINE
8
BLACK
6
CONTINUOUS
10
228.801
20
-119.323
11
228.957
21
-118.743
0
LINE
8
BLACK
6
CONTINUOUS
10
227.782
20
-123.126
11
228.098
21
-121.949
0
LINE
8
BLACK
6
CONTINUOUS
10
215.194
20
-118.386
11
217.018
21
-118.874
0
LINE
8
BLACK
6
CONTINUOUS
10
229.921
20
-122.437
11
230.625
21
-119.812
0
LINE
8
BLACK
6
CONTINUOUS
10
230.625
20
-119.812
11
228.801
21
-119.323
0
LINE
8
BLACK
6
CONTINUOUS
10
216.314
20
-121.499
11
216.189
21
-121.966
0
LINE
8
BLACK
6
CONTINUOUS
10
215.194
20
-118.386
11
214.491
21
-121.011
0
LINE
8
BLACK
6
CONTINUOUS
10
217.973
20
-122.443
11
219.902
21
-122.961
0
LINE
8
BLACK
6
CONTINUOUS
10
214.491
20
-121.011
11
216.314
21
-121.499
0
LINE
8
BLACK
6
CONTINUOUS
10
227.782
20
-123.126
11
222.572
21
-121.73
0
LINE
8
BLACK
6
CONTINUOUS
10
229.921
20
-122.437
11
228.098
21
-121.949
0
ARC
8
BLACK
10
221.96
20
-123.914
40
2.26789
50
74.3556
51
155.156
0
ARC
8
BLACK
10
219.18
20
-118.07
40
1.88064
50
73.7333
51
164.693
0
ARC
8
BLACK
10
217.265
20
-122.925
40
0.855913
50
-244.221
51
34.2621
0
CIRCLE
8
BLACK
10
227.076
20
-125.566
40
0.85
0
CIRCLE
8
BLACK
10
222.169
20
-124.251
40
2
0
LINE
8
BLACK
6
CONTINUOUS
10
49.4395
20
-61.8029
11
49.4395
21
-64.5207
0
LINE
8
BLACK
6
CONTINUOUS
10
51.3273
20
-60.4567
11
51.3273
21
-61.8029
0
LINE
8
BLACK
6
CONTINUOUS
10
49.4395
20
-64.5207
11
51.3273
21
-64.5207
0
LINE
8
BLACK
6
CONTINUOUS
10
51.3273
20
-64.5207
11
51.3273
21
-65.0037
0
LINE
8
BLACK
6
CONTINUOUS
10
62.8253
20
-63.1237
11
57.4313
21
-63.1237
0
LINE
8
BLACK
6
CONTINUOUS
10
62.8253
20
-63.1237
11
62.8253
21
-61.9049
0
LINE
8
BLACK
6
CONTINUOUS
10
53.1733
20
-65.0033
11
55.1713
21
-65.0037
0
LINE
8
BLACK
6
CONTINUOUS
10
49.4395
20
-61.8029
11
51.3273
21
-61.8029
0
LINE
8
BLACK
6
CONTINUOUS
10
51.3273
20
-65.0037
11
52.0557
21
-65.0037
0
LINE
8
BLACK
6
CONTINUOUS
10
64.7131
20
-59.1871
11
62.8253
21
-59.1871
0
LINE
8
BLACK
6
CONTINUOUS
10
62.8253
20
-58.5866
11
53.2495
21
-58.5866
0
LINE
8
BLACK
6
CONTINUOUS
10
64.7131
20
-61.9049
11
64.7131
21
-59.1871
0
LINE
8
BLACK
6
CONTINUOUS
10
64.7131
20
-61.9049
11
62.8253
21
-61.9049
0
LINE
8
BLACK
6
CONTINUOUS
10
62.8253
20
-59.1871
11
62.8253
21
-58.5866
0
ARC
8
BLACK
10
52.6148
20
-65.6518
40
0.855913
50
-229.221
51
49.262
0
ARC
8
BLACK
10
57.4058
20
-65.3914
40
2.26789
50
89.3556
51
170.156
0
ARC
8
BLACK
10
53.208
20
-60.4668
40
1.88064
50
88.7333
51
179.693
0
CIRCLE
8
BLACK
10
57.6945
20
-65.6637
40
2
0
CIRCLE
8
BLACK
10
62.7745
20
-65.6637
40
0.85
0
LINE
8
BLACK
6
CONTINUOUS
10
248.777
20
-103.676
11
248.177
21
-103.676
0
LINE
8
BLACK
6
CONTINUOUS
10
248.177
20
-100.876
11
248.777
21
-100.876
0
LINE
8
BLACK
6
CONTINUOUS
10
247.477
20
-102.976
11
247.477
21
-101.576
0
LINE
8
BLACK
6
CONTINUOUS
10
249.477
20
-101.576
11
249.477
21
-102.976
0
ARC
8
BLACK
10
248.177
20
-101.576
40
0.699999
50
-270
51
-180
0
ARC
8
BLACK
10
248.777
20
-101.576
40
0.699999
50
-8.18512e-05
51
90.0001
0
ARC
8
BLACK
10
248.177
20
-102.976
40
0.7
50
-180
51
-90
0
ARC
8
BLACK
10
248.777
20
-102.976
40
0.7
50
-90
51
-0
0
CIRCLE
8
BLACK
10
208.095
20
-121.945
40
1.6
0
LINE
8
BLACK
6
CONTINUOUS
10
236.84
20
-101.123
11
231.446
21
-101.123
0
LINE
8
BLACK
6
CONTINUOUS
10
236.84
20
-101.123
11
236.84
21
-99.9047
0
LINE
8
BLACK
6
CONTINUOUS
10
238.727
20
-97.1869
11
236.84
21
-97.1869
0
LINE
8
BLACK
6
CONTINUOUS
10
225.342
20
-103.003
11
226.07
21
-103.003
0
LINE
8
BLACK
6
CONTINUOUS
10
223.454
20
-102.52
11
225.342
21
-102.52
0
LINE
8
BLACK
6
CONTINUOUS
10
225.342
20
-102.52
11
225.342
21
-103.003
0
LINE
8
BLACK
6
CONTINUOUS
10
238.727
20
-99.9047
11
236.84
21
-99.9047
0
LINE
8
BLACK
6
CONTINUOUS
10
236.84
20
-97.1869
11
236.84
21
-96.5864
0
LINE
8
BLACK
6
CONTINUOUS
10
223.454
20
-99.8027
11
223.454
21
-102.52
0
LINE
8
BLACK
6
CONTINUOUS
10
223.454
20
-99.8027
11
225.342
21
-99.8027
0
LINE
8
BLACK
6
CONTINUOUS
10
227.188
20
-103.003
11
229.186
21
-103.003
0
LINE
8
BLACK
6
CONTINUOUS
10
225.342
20
-98.4565
11
225.342
21
-99.8027
0
LINE
8
BLACK
6
CONTINUOUS
10
238.727
20
-99.9047
11
238.727
21
-97.1869
0
LINE
8
BLACK
6
CONTINUOUS
10
236.84
20
-96.5864
11
227.264
21
-96.5864
0
ARC
8
BLACK
10
227.222
20
-98.4666
40
1.88064
50
88.7333
51
179.693
0
ARC
8
BLACK
10
226.629
20
-103.652
40
0.855913
50
-229.221
51
49.262
0
ARC
8
BLACK
10
231.42
20
-103.391
40
2.26789
50
89.3556
51
170.156
0
CIRCLE
8
BLACK
10
231.709
20
-103.663
40
2
0
CIRCLE
8
BLACK
10
236.789
20
-103.663
40
0.85
0
LINE
8
BLACK
6
CONTINUOUS
10
217.84
20
-79.1231
11
212.446
21
-79.1231
0
LINE
8
BLACK
6
CONTINUOUS
10
208.188
20
-81.0027
11
210.186
21
-81.0031
0
LINE
8
BLACK
6
CONTINUOUS
10
204.454
20
-77.8023
11
204.454
21
-80.5201
0
LINE
8
BLACK
6
CONTINUOUS
10
217.84
20
-79.1231
11
217.84
21
-77.9043
0
LINE
8
BLACK
6
CONTINUOUS
10
206.342
20
-80.5201
11
206.342
21
-81.0031
0
LINE
8
BLACK
6
CONTINUOUS
10
219.728
20
-77.9043
11
217.84
21
-77.9043
0
LINE
8
BLACK
6
CONTINUOUS
10
204.454
20
-77.8023
11
206.342
21
-77.8023
0
LINE
8
BLACK
6
CONTINUOUS
10
219.728
20
-75.1865
11
217.84
21
-75.1865
0
LINE
8
BLACK
6
CONTINUOUS
10
206.342
20
-76.4561
11
206.342
21
-77.8023
0
LINE
8
BLACK
6
CONTINUOUS
10
204.454
20
-80.5201
11
206.342
21
-80.5201
0
LINE
8
BLACK
6
CONTINUOUS
10
206.342
20
-81.0031
11
207.07
21
-81.0031
0
LINE
8
BLACK
6
CONTINUOUS
10
217.84
20
-75.1865
11
217.84
21
-74.586
0
LINE
8
BLACK
6
CONTINUOUS
10
219.728
20
-77.9043
11
219.728
21
-75.1865
0
LINE
8
BLACK
6
CONTINUOUS
10
217.84
20
-74.586
11
208.264
21
-74.586
0
ARC
8
BLACK
10
207.629
20
-81.6512
40
0.855913
50
-229.221
51
49.262
0
ARC
8
BLACK
10
212.42
20
-81.3908
40
2.26789
50
89.3556
51
170.156
0
ARC
8
BLACK
10
208.222
20
-76.4662
40
1.88064
50
88.7333
51
179.693
0
CIRCLE
8
BLACK
10
212.709
20
-81.6631
40
2
0
CIRCLE
8
BLACK
10
217.789
20
-81.6631
40
0.85
0
LINE
8
BLACK
6
CONTINUOUS
10
200.306
20
-76.9449
11
202.706
21
-76.9449
0
LINE
8
BLACK
6
CONTINUOUS
10
202.706
20
-76.9449
11
202.706
21
-82.3861
0
LINE
8
BLACK
6
CONTINUOUS
10
202.706
20
-82.3861
11
200.306
21
-82.3861
0
LINE
8
BLACK
6
CONTINUOUS
10
200.306
20
-82.3861
11
200.306
21
-76.9449
0
LINE
8
BLACK
6
CONTINUOUS
10
39.7899
20
-79.7079
11
39.7899
21
-81.1079
0
LINE
8
BLACK
6
CONTINUOUS
10
39.0899
20
-81.8079
11
38.4899
21
-81.8079
0
LINE
8
BLACK
6
CONTINUOUS
10
38.4899
20
-79.0079
11
39.0899
21
-79.0079
0
LINE
8
BLACK
6
CONTINUOUS
10
37.7899
20
-81.1079
11
37.7899
21
-79.7079
0
ARC
8
BLACK
10
39.0899
20
-79.7079
40
0.7
50
-0
51
90
0
ARC
8
BLACK
10
38.4899
20
-79.7079
40
0.7
50
90
51
180
0
ARC
8
BLACK
10
38.4899
20
-81.1079
40
0.699999
50
-180
51
-89.9999
0
ARC
8
BLACK
10
39.0899
20
-81.1079
40
0.699999
50
-90.0001
51
8.18512e-05
0
LINE
8
BLACK
6
CONTINUOUS
10
138.825
20
-76.5856
11
129.249
21
-76.5856
0
LINE
8
BLACK
6
CONTINUOUS
10
125.439
20
-82.5197
11
127.327
21
-82.5197
0
LINE
8
BLACK
6
CONTINUOUS
10
127.327
20
-82.5197
11
127.327
21
-83.0027
0
LINE
8
BLACK
6
CONTINUOUS
10
138.825
20
-77.1861
11
138.825
21
-76.5856
0
LINE
8
BLACK
6
CONTINUOUS
10
129.173
20
-83.0023
11
131.171
21
-83.0027
0
LINE
8
BLACK
6
CONTINUOUS
10
140.713
20
-79.9039
11
140.713
21
-77.1861
0
LINE
8
BLACK
6
CONTINUOUS
10
125.439
20
-79.8019
11
125.439
21
-82.5197
0
LINE
8
BLACK
6
CONTINUOUS
10
125.439
20
-79.8019
11
127.327
21
-79.8019
0
LINE
8
BLACK
6
CONTINUOUS
10
140.713
20
-77.1861
11
138.825
21
-77.1861
0
LINE
8
BLACK
6
CONTINUOUS
10
138.825
20
-81.1227
11
138.825
21
-79.9039
0
LINE
8
BLACK
6
CONTINUOUS
10
138.825
20
-81.1227
11
133.431
21
-81.1227
0
LINE
8
BLACK
6
CONTINUOUS
10
127.327
20
-83.0027
11
128.055
21
-83.0027
0
LINE
8
BLACK
6
CONTINUOUS
10
140.713
20
-79.9039
11
138.825
21
-79.9039
0
LINE
8
BLACK
6
CONTINUOUS
10
127.327
20
-78.4557
11
127.327
21
-79.8019
0
ARC
8
BLACK
10
129.207
20
-78.4658
40
1.88064
50
88.7333
51
179.693
0
ARC
8
BLACK
10
128.614
20
-83.6508
40
0.855913
50
-229.221
51
49.262
0
ARC
8
BLACK
10
133.405
20
-83.3904
40
2.26789
50
89.3556
51
170.156
0
CIRCLE
8
BLACK
10
133.694
20
-83.6627
40
2
0
CIRCLE
8
BLACK
10
138.774
20
-83.6627
40
0.85
0
LINE
8
BLACK
6
CONTINUOUS
10
34.8465
20
-102.976
11
34.8465
21
-101.576
0
LINE
8
BLACK
6
CONTINUOUS
10
36.1465
20
-103.676
11
35.5465
21
-103.676
0
LINE
8
BLACK
6
CONTINUOUS
10
35.5465
20
-100.876
11
36.1465
21
-100.876
0
LINE
8
BLACK
6
CONTINUOUS
10
36.8465
20
-101.576
11
36.8465
21
-102.976
0
ARC
8
BLACK
10
35.5465
20
-102.976
40
0.7
50
-180
51
-90
0
ARC
8
BLACK
10
36.1465
20
-102.976
40
0.7
50
-90
51
-0
0
ARC
8
BLACK
10
35.5465
20
-101.576
40
0.699999
50
-270
51
-180
0
ARC
8
BLACK
10
36.1465
20
-101.576
40
0.699999
50
-8.18512e-05
51
90.0001
0
LINE
8
BLACK
6
CONTINUOUS
10
199.017
20
-83.0176
11
191.717
21
-83.0176
0
LINE
8
BLACK
6
CONTINUOUS
10
191.717
20
-83.0176
11
191.717
21
-88.5176
0
LINE
8
BLACK
6
CONTINUOUS
10
191.717
20
-88.5176
11
199.017
21
-88.5176
0
LINE
8
BLACK
6
CONTINUOUS
10
199.017
20
-88.5176
11
199.017
21
-83.0176
0
LINE
8
BLACK
6
CONTINUOUS
10
25.3449
20
-133.521
11
27.2749
21
-133.004
0
LINE
8
BLACK
6
CONTINUOUS
10
22.3851
20
-129.607
11
22.7335
21
-130.907
0
LINE
8
BLACK
6
CONTINUOUS
10
23.5619
20
-133.999
11
24.2655
21
-133.811
0
LINE
8
BLACK
6
CONTINUOUS
10
20.91
20
-131.396
11
22.7335
21
-130.907
0
LINE
8
BLACK
6
CONTINUOUS
10
35.6896
20
-127.541
11
33.8661
21
-128.03
0
LINE
8
BLACK
6
CONTINUOUS
10
35.6896
20
-127.541
11
34.9862
21
-124.916
0
LINE
8
BLACK
6
CONTINUOUS
10
33.0073
20
-124.825
11
23.7577
21
-127.303
0
LINE
8
BLACK
6
CONTINUOUS
10
23.4369
20
-133.533
11
23.5619
21
-133.999
0
LINE
8
BLACK
6
CONTINUOUS
10
34.1815
20
-129.207
11
28.9714
21
-130.603
0
LINE
8
BLACK
6
CONTINUOUS
10
20.91
20
-131.396
11
21.6134
21
-134.021
0
LINE
8
BLACK
6
CONTINUOUS
10
34.9862
20
-124.916
11
33.1627
21
-125.405
0
LINE
8
BLACK
6
CONTINUOUS
10
21.6134
20
-134.021
11
23.4369
21
-133.533
0
LINE
8
BLACK
6
CONTINUOUS
10
34.1815
20
-129.207
11
33.8661
21
-128.03
0
LINE
8
BLACK
6
CONTINUOUS
10
33.1627
20
-125.405
11
33.0073
21
-124.825
0
ARC
8
BLACK
10
24.2042
20
-129.13
40
1.88064
50
-256.267
51
-165.307
0
ARC
8
BLACK
10
24.9732
20
-134.292
40
0.855913
50
-214.221
51
64.2621
0
ARC
8
BLACK
10
29.5337
20
-132.8
40
2.26789
50
-255.644
51
-174.844
0
CIRCLE
8
BLACK
10
34.7899
20
-131.674
40
0.85
0
CIRCLE
8
BLACK
10
29.883
20
-132.989
40
2
0
LINE
8
BLACK
6
CONTINUOUS
10
87.4394
20
-76.7099
11
89.3272
21
-76.7099
0
LINE
8
BLACK
6
CONTINUOUS
10
87.4394
20
-73.9921
11
87.4394
21
-76.7099
0
LINE
8
BLACK
6
CONTINUOUS
10
89.3272
20
-76.7099
11
89.3272
21
-77.1929
0
LINE
8
BLACK
6
CONTINUOUS
10
89.3272
20
-72.6459
11
89.3272
21
-73.9921
0
LINE
8
BLACK
6
CONTINUOUS
10
102.713
20
-71.3763
11
100.825
21
-71.3763
0
LINE
8
BLACK
6
CONTINUOUS
10
100.825
20
-70.7758
11
91.2494
21
-70.7758
0
LINE
8
BLACK
6
CONTINUOUS
10
102.713
20
-74.0941
11
102.713
21
-71.3763
0
LINE
8
BLACK
6
CONTINUOUS
10
100.825
20
-75.3129
11
95.4312
21
-75.3129
0
LINE
8
BLACK
6
CONTINUOUS
10
100.825
20
-75.3129
11
100.825
21
-74.0941
0
LINE
8
BLACK
6
CONTINUOUS
10
89.3272
20
-77.1929
11
90.0556
21
-77.1929
0
LINE
8
BLACK
6
CONTINUOUS
10
100.825
20
-71.3763
11
100.825
21
-70.7758
0
LINE
8
BLACK
6
CONTINUOUS
10
102.713
20
-74.0941
11
100.825
21
-74.0941
0
LINE
8
BLACK
6
CONTINUOUS
10
91.1732
20
-77.1925
11
93.1712
21
-77.1929
0
LINE
8
BLACK
6
CONTINUOUS
10
87.4394
20
-73.9921
11
89.3272
21
-73.9921
0
ARC
8
BLACK
10
91.2079
20
-72.656
40
1.88064
50
88.7333
51
179.693
0
ARC
8
BLACK
10
95.4057
20
-77.5806
40
2.26789
50
89.3556
51
170.156
0
ARC
8
BLACK
10
90.6147
20
-77.841
40
0.855913
50
-229.221
51
49.262
0
CIRCLE
8
BLACK
10
100.774
20
-77.8529
40
0.85
0
CIRCLE
8
BLACK
10
95.6944
20
-77.8529
40
2
0
LINE
8
BLACK
6
CONTINUOUS
10
253.257
20
-100.876
11
253.857
21
-100.876
0
LINE
8
BLACK
6
CONTINUOUS
10
253.857
20
-103.676
11
253.257
21
-103.676
0
LINE
8
BLACK
6
CONTINUOUS
10
254.557
20
-101.576
11
254.557
21
-102.976
0
LINE
8
BLACK
6
CONTINUOUS
10
252.557
20
-102.976
11
252.557
21
-101.576
0
ARC
8
BLACK
10
253.857
20
-102.976
40
0.7
50
-90
51
-0
0
ARC
8
BLACK
10
253.257
20
-102.976
40
0.7
50
-180
51
-90
0
ARC
8
BLACK
10
253.257
20
-101.576
40
0.699999
50
-270
51
-180
0
ARC
8
BLACK
10
253.857
20
-101.576
40
0.699999
50
-8.18512e-05
51
90.0001
0
LINE
8
BLACK
6
CONTINUOUS
10
249.613
20
-81.1079
11
249.613
21
-79.7079
0
LINE
8
BLACK
6
CONTINUOUS
10
251.613
20
-79.7079
11
251.613
21
-81.1079
0
LINE
8
BLACK
6
CONTINUOUS
10
250.313
20
-79.0079
11
250.913
21
-79.0079
0
LINE
8
BLACK
6
CONTINUOUS
10
250.913
20
-81.8079
11
250.313
21
-81.8079
0
ARC
8
BLACK
10
250.913
20
-79.7079
40
0.7
50
-0
51
90
0
ARC
8
BLACK
10
250.313
20
-79.7079
40
0.7
50
90
51
180
0
ARC
8
BLACK
10
250.913
20
-81.1079
40
0.699999
50
-90.0001
51
8.18512e-05
0
ARC
8
BLACK
10
250.313
20
-81.1079
40
0.699999
50
-180
51
-89.9999
0
LINE
8
BLACK
6
CONTINUOUS
10
238.727
20
-78.1869
11
236.84
21
-78.1869
0
LINE
8
BLACK
6
CONTINUOUS
10
236.84
20
-78.1869
11
236.84
21
-77.5864
0
LINE
8
BLACK
6
CONTINUOUS
10
223.454
20
-80.8027
11
223.454
21
-83.5205
0
LINE
8
BLACK
6
CONTINUOUS
10
225.342
20
-84.0035
11
226.07
21
-84.0035
0
LINE
8
BLACK
6
CONTINUOUS
10
236.84
20
-77.5864
11
227.264
21
-77.5864
0
LINE
8
BLACK
6
CONTINUOUS
10
238.727
20
-80.9047
11
236.84
21
-80.9047
0
LINE
8
BLACK
6
CONTINUOUS
10
236.84
20
-82.1235
11
231.446
21
-82.1235
0
LINE
8
BLACK
6
CONTINUOUS
10
236.84
20
-82.1235
11
236.84
21
-80.9047
0
LINE
8
BLACK
6
CONTINUOUS
10
223.454
20
-83.5205
11
225.342
21
-83.5205
0
LINE
8
BLACK
6
CONTINUOUS
10
227.188
20
-84.0031
11
229.186
21
-84.0035
0
LINE
8
BLACK
6
CONTINUOUS
10
225.342
20
-83.5205
11
225.342
21
-84.0035
0
LINE
8
BLACK
6
CONTINUOUS
10
225.342
20
-79.4565
11
225.342
21
-80.8027
0
LINE
8
BLACK
6
CONTINUOUS
10
238.727
20
-80.9047
11
238.727
21
-78.1869
0
LINE
8
BLACK
6
CONTINUOUS
10
223.454
20
-80.8027
11
225.342
21
-80.8027
0
ARC
8
BLACK
10
226.629
20
-84.6516
40
0.855913
50
-229.221
51
49.262
0
ARC
8
BLACK
10
227.222
20
-79.4666
40
1.88064
50
88.7333
51
179.693
0
ARC
8
BLACK
10
231.42
20
-84.3912
40
2.26789
50
89.3556
51
170.156
0
CIRCLE
8
BLACK
10
231.709
20
-84.6635
40
2
0
CIRCLE
8
BLACK
10
236.789
20
-84.6635
40
0.85
0
LINE
8
BLACK
6
CONTINUOUS
10
187.342
20
-58.1929
11
188.07
21
-58.1929
0
LINE
8
BLACK
6
CONTINUOUS
10
198.84
20
-56.3129
11
198.84
21
-55.0941
0
LINE
8
BLACK
6
CONTINUOUS
10
185.454
20
-57.7099
11
187.342
21
-57.7099
0
LINE
8
BLACK
6
CONTINUOUS
10
200.727
20
-52.3763
11
198.84
21
-52.3763
0
LINE
8
BLACK
6
CONTINUOUS
10
198.84
20
-52.3763
11
198.84
21
-51.7758
0
LINE
8
BLACK
6
CONTINUOUS
10
198.84
20
-51.7758
11
189.264
21
-51.7758
0
LINE
8
BLACK
6
CONTINUOUS
10
187.342
20
-53.6459
11
187.342
21
-54.9921
0
LINE
8
BLACK
6
CONTINUOUS
10
198.84
20
-56.3129
11
193.446
21
-56.3129
0
LINE
8
BLACK
6
CONTINUOUS
10
200.727
20
-55.0941
11
198.84
21
-55.0941
0
LINE
8
BLACK
6
CONTINUOUS
10
187.342
20
-57.7099
11
187.342
21
-58.1929
0
LINE
8
BLACK
6
CONTINUOUS
10
185.454
20
-54.9921
11
185.454
21
-57.7099
0
LINE
8
BLACK
6
CONTINUOUS
10
189.188
20
-58.1925
11
191.186
21
-58.1929
0
LINE
8
BLACK
6
CONTINUOUS
10
185.454
20
-54.9921
11
187.342
21
-54.9921
0
LINE
8
BLACK
6
CONTINUOUS
10
200.727
20
-55.0941
11
200.727
21
-52.3763
0
ARC
8
BLACK
10
188.629
20
-58.8411
40
0.855913
50
-229.221
51
49.262
0
ARC
8
BLACK
10
189.222
20
-53.656
40
1.88064
50
88.7333
51
179.693
0
ARC
8
BLACK
10
193.42
20
-58.5807
40
2.26789
50
89.3556
51
170.156
0
CIRCLE
8
BLACK
10
193.709
20
-58.8529
40
2
0
CIRCLE
8
BLACK
10
198.789
20
-58.8529
40
0.85
0
CIRCLE
8
BLACK
10
169.858
20
-121.945
40
1.6
0
CIRCLE
8
BLACK
10
163.559
20
-53.5332
40
1.6
0
LINE
8
BLACK
6
CONTINUOUS
10
187.342
20
-72.6459
11
187.342
21
-73.9921
0
LINE
8
BLACK
6
CONTINUOUS
10
200.727
20
-74.0941
11
200.727
21
-71.3763
0
LINE
8
BLACK
6
CONTINUOUS
10
198.84
20
-75.3129
11
198.84
21
-74.0941
0
LINE
8
BLACK
6
CONTINUOUS
10
187.342
20
-77.1929
11
188.07
21
-77.1929
0
LINE
8
BLACK
6
CONTINUOUS
10
185.454
20
-76.7099
11
187.342
21
-76.7099
0
LINE
8
BLACK
6
CONTINUOUS
10
200.727
20
-71.3763
11
198.84
21
-71.3763
0
LINE
8
BLACK
6
CONTINUOUS
10
198.84
20
-71.3763
11
198.84
21
-70.7758
0
LINE
8
BLACK
6
CONTINUOUS
10
185.454
20
-73.9921
11
187.342
21
-73.9921
0
LINE
8
BLACK
6
CONTINUOUS
10
200.727
20
-74.0941
11
198.84
21
-74.0941
0
LINE
8
BLACK
6
CONTINUOUS
10
198.84
20
-75.3129
11
193.446
21
-75.3129
0
LINE
8
BLACK
6
CONTINUOUS
10
198.84
20
-70.7758
11
189.264
21
-70.7758
0
LINE
8
BLACK
6
CONTINUOUS
10
189.188
20
-77.1925
11
191.186
21
-77.1929
0
LINE
8
BLACK
6
CONTINUOUS
10
187.342
20
-76.7099
11
187.342
21
-77.1929
0
LINE
8
BLACK
6
CONTINUOUS
10
185.454
20
-73.9921
11
185.454
21
-76.7099
0
ARC
8
BLACK
10
189.222
20
-72.656
40
1.88064
50
88.7333
51
179.693
0
ARC
8
BLACK
10
193.42
20
-77.5806
40
2.26789
50
89.3556
51
170.156
0
ARC
8
BLACK
10
188.629
20
-77.841
40
0.855913
50
-229.221
51
49.262
0
CIRCLE
8
BLACK
10
193.709
20
-77.8529
40
2
0
CIRCLE
8
BLACK
10
198.789
20
-77.8529
40
0.85
0
LINE
8
BLACK
6
CONTINUOUS
10
83.7128
20
-94.1869
11
81.825
21
-94.1869
0
LINE
8
BLACK
6
CONTINUOUS
10
81.825
20
-94.1869
11
81.825
21
-93.5864
0
LINE
8
BLACK
6
CONTINUOUS
10
70.327
20
-95.4565
11
70.327
21
-96.8027
0
LINE
8
BLACK
6
CONTINUOUS
10
81.825
20
-93.5864
11
72.2492
21
-93.5864
0
LINE
8
BLACK
6
CONTINUOUS
10
81.825
20
-98.1235
11
81.825
21
-96.9047
0
LINE
8
BLACK
6
CONTINUOUS
10
70.327
20
-100.003
11
71.0554
21
-100.003
0
LINE
8
BLACK
6
CONTINUOUS
10
68.4392
20
-99.5205
11
70.327
21
-99.5205
0
LINE
8
BLACK
6
CONTINUOUS
10
72.173
20
-100.003
11
74.171
21
-100.003
0
LINE
8
BLACK
6
CONTINUOUS
10
83.7128
20
-96.9047
11
81.825
21
-96.9047
0
LINE
8
BLACK
6
CONTINUOUS
10
68.4392
20
-96.8027
11
68.4392
21
-99.5205
0
LINE
8
BLACK
6
CONTINUOUS
10
81.825
20
-98.1235
11
76.431
21
-98.1235
0
LINE
8
BLACK
6
CONTINUOUS
10
68.4392
20
-96.8027
11
70.327
21
-96.8027
0
LINE
8
BLACK
6
CONTINUOUS
10
83.7128
20
-96.9047
11
83.7128
21
-94.1869
0
LINE
8
BLACK
6
CONTINUOUS
10
70.327
20
-99.5205
11
70.327
21
-100.003
0
ARC
8
BLACK
10
71.6145
20
-100.652
40
0.855913
50
-229.221
51
49.262
0
ARC
8
BLACK
10
76.4055
20
-100.391
40
2.26789
50
89.3556
51
170.156
0
ARC
8
BLACK
10
72.2077
20
-95.4666
40
1.88064
50
88.7333
51
179.693
0
CIRCLE
8
BLACK
10
81.7742
20
-100.663
40
0.85
0
CIRCLE
8
BLACK
10
76.6942
20
-100.663
40
2
0
LINE
8
BLACK
6
CONTINUOUS
10
252.017
20
-101.576
11
252.017
21
-102.976
0
LINE
8
BLACK
6
CONTINUOUS
10
250.017
20
-102.976
11
250.017
21
-101.576
0
LINE
8
BLACK
6
CONTINUOUS
10
251.317
20
-103.676
11
250.717
21
-103.676
0
LINE
8
BLACK
6
CONTINUOUS
10
250.717
20
-100.876
11
251.317
21
-100.876
0
ARC
8
BLACK
10
250.717
20
-102.976
40
0.7
50
-180
51
-90
0
ARC
8
BLACK
10
250.717
20
-101.576
40
0.699999
50
-270
51
-180
0
ARC
8
BLACK
10
251.317
20
-102.976
40
0.7
50
-90
51
-0
0
ARC
8
BLACK
10
251.317
20
-101.576
40
0.699999
50
-8.18512e-05
51
90.0001
0
LINE
8
BLACK
6
CONTINUOUS
10
162.728
20
-98.9043
11
162.728
21
-96.1865
0
LINE
8
BLACK
6
CONTINUOUS
10
147.454
20
-101.52
11
149.342
21
-101.52
0
LINE
8
BLACK
6
CONTINUOUS
10
160.84
20
-100.123
11
160.84
21
-98.9043
0
LINE
8
BLACK
6
CONTINUOUS
10
160.84
20
-96.1865
11
160.84
21
-95.586
0
LINE
8
BLACK
6
CONTINUOUS
10
147.454
20
-98.8023
11
149.342
21
-98.8023
0
LINE
8
BLACK
6
CONTINUOUS
10
151.188
20
-102.003
11
153.186
21
-102.003
0
LINE
8
BLACK
6
CONTINUOUS
10
149.342
20
-97.4561
11
149.342
21
-98.8023
0
LINE
8
BLACK
6
CONTINUOUS
10
149.342
20
-102.003
11
150.07
21
-102.003
0
LINE
8
BLACK
6
CONTINUOUS
10
149.342
20
-101.52
11
149.342
21
-102.003
0
LINE
8
BLACK
6
CONTINUOUS
10
162.728
20
-96.1865
11
160.84
21
-96.1865
0
LINE
8
BLACK
6
CONTINUOUS
10
160.84
20
-95.586
11
151.264
21
-95.586
0
LINE
8
BLACK
6
CONTINUOUS
10
160.84
20
-100.123
11
155.446
21
-100.123
0
LINE
8
BLACK
6
CONTINUOUS
10
147.454
20
-98.8023
11
147.454
21
-101.52
0
LINE
8
BLACK
6
CONTINUOUS
10
162.728
20
-98.9043
11
160.84
21
-98.9043
0
ARC
8
BLACK
10
155.421
20
-102.391
40
2.26789
50
89.3556
51
170.156
0
ARC
8
BLACK
10
151.223
20
-97.4662
40
1.88064
50
88.7333
51
179.693
0
ARC
8
BLACK
10
150.629
20
-102.651
40
0.855913
50
-229.221
51
49.262
0
CIRCLE
8
BLACK
10
160.789
20
-102.663
40
0.85
0
CIRCLE
8
BLACK
10
155.709
20
-102.663
40
2
0
CIRCLE
8
BLACK
10
81.3087
20
-121.945
40
1.6
0
LINE
8
BLACK
6
CONTINUOUS
10
251.317
20
-100.876
11
250.717
21
-100.876
0
LINE
8
BLACK
6
CONTINUOUS
10
252.017
20
-102.976
11
252.017
21
-101.576
0
LINE
8
BLACK
6
CONTINUOUS
10
250.017
20
-101.576
11
250.017
21
-102.976
0
LINE
8
BLACK
6
CONTINUOUS
10
250.717
20
-103.676
11
251.317
21
-103.676
0
ARC
8
BLACK
10
251.317
20
-101.576
40
0.699999
50
-8.18512e-05
51
90.0001
0
ARC
8
BLACK
10
250.717
20
-101.576
40
0.699999
50
-270
51
-180
0
ARC
8
BLACK
10
251.317
20
-102.976
40
0.7
50
-90
51
-0
0
ARC
8
BLACK
10
250.717
20
-102.976
40
0.7
50
-180
51
-90
0
CIRCLE
8
BLACK
10
44.8182
20
-113.329
40
2.15
0
LINE
8
BLACK
6
CONTINUOUS
10
42.5134
20
-105.95
11
48.0134
21
-105.95
0
LINE
8
BLACK
6
CONTINUOUS
10
48.0134
20
-105.95
11
48.0134
21
-98.6497
0
LINE
8
BLACK
6
CONTINUOUS
10
48.0134
20
-98.6497
11
42.5134
21
-98.6497
0
LINE
8
BLACK
6
CONTINUOUS
10
42.5134
20
-98.6497
11
42.5134
21
-105.95
0
CIRCLE
8
BLACK
10
68.884
20
-111.914
40
1.6
0
LINE
8
BLACK
6
CONTINUOUS
10
41.2265
20
-100.876
11
40.6265
21
-100.876
0
LINE
8
BLACK
6
CONTINUOUS
10
40.6265
20
-103.676
11
41.2265
21
-103.676
0
LINE
8
BLACK
6
CONTINUOUS
10
41.9265
20
-102.976
11
41.9265
21
-101.576
0
LINE
8
BLACK
6
CONTINUOUS
10
39.9265
20
-101.576
11
39.9265
21
-102.976
0
ARC
8
BLACK
10
41.2265
20
-101.576
40
0.699999
50
-8.18512e-05
51
90.0001
0
ARC
8
BLACK
10
40.6265
20
-102.976
40
0.7
50
-180
51
-90
0
ARC
8
BLACK
10
41.2265
20
-102.976
40
0.7
50
-90
51
-0
0
ARC
8
BLACK
10
40.6265
20
-101.576
40
0.699999
50
-270
51
-180
0
LINE
8
BLACK
6
CONTINUOUS
10
107.32
20
-123.145
11
101.879
21
-123.145
0
LINE
8
BLACK
6
CONTINUOUS
10
101.879
20
-123.145
11
101.879
21
-120.745
0
LINE
8
BLACK
6
CONTINUOUS
10
101.879
20
-120.745
11
107.32
21
-120.745
0
LINE
8
BLACK
6
CONTINUOUS
10
107.32
20
-120.745
11
107.32
21
-123.145
0
LINE
8
BLACK
6
CONTINUOUS
10
89.0974
20
-76.9449
11
86.6974
21
-76.9449
0
LINE
8
BLACK
6
CONTINUOUS
10
86.6974
20
-76.9449
11
86.6974
21
-82.3861
0
LINE
8
BLACK
6
CONTINUOUS
10
86.6974
20
-82.3861
11
89.0974
21
-82.3861
0
LINE
8
BLACK
6
CONTINUOUS
10
89.0974
20
-82.3861
11
89.0974
21
-76.9449
0
LINE
8
BLACK
6
CONTINUOUS
10
70.0972
20
-61.7551
11
67.6972
21
-61.7551
0
LINE
8
BLACK
6
CONTINUOUS
10
67.6972
20
-61.7551
11
67.6972
21
-67.1963
0
LINE
8
BLACK
6
CONTINUOUS
10
67.6972
20
-67.1963
11
70.0972
21
-67.1963
0
LINE
8
BLACK
6
CONTINUOUS
10
70.0972
20
-67.1963
11
70.0972
21
-61.7551
0
CIRCLE
8
BLACK
10
39.3572
20
-141.929
40
1.6
0
LINE
8
BLACK
6
CONTINUOUS
10
37.6632
20
-77.9744
11
39.7968
21
-77.9744
0
LINE
8
BLACK
6
CONTINUOUS
10
39.7968
20
-77.9744
11
39.7968
21
-73.504
0
LINE
8
BLACK
6
CONTINUOUS
10
39.7968
20
-73.504
11
37.6632
21
-73.504
0
LINE
8
BLACK
6
CONTINUOUS
10
37.6632
20
-73.504
11
37.6632
21
-77.9744
0
LINE
8
BLACK
6
CONTINUOUS
10
108.097
20
-99.7549
11
105.697
21
-99.7549
0
LINE
8
BLACK
6
CONTINUOUS
10
105.697
20
-99.7549
11
105.697
21
-105.196
0
LINE
8
BLACK
6
CONTINUOUS
10
105.697
20
-105.196
11
108.097
21
-105.196
0
LINE
8
BLACK
6
CONTINUOUS
10
108.097
20
-105.196
11
108.097
21
-99.7549
0
CIRCLE
8
BLACK
10
30.6584
20
-117.088
40
2.15
0
LINE
8
BLACK
6
CONTINUOUS
10
108.097
20
-80.7553
11
105.697
21
-80.7553
0
LINE
8
BLACK
6
CONTINUOUS
10
105.697
20
-80.7553
11
105.697
21
-86.1965
0
LINE
8
BLACK
6
CONTINUOUS
10
105.697
20
-86.1965
11
108.097
21
-86.1965
0
LINE
8
BLACK
6
CONTINUOUS
10
108.097
20
-86.1965
11
108.097
21
-80.7553
0
LINE
8
BLACK
6
CONTINUOUS
10
127.097
20
-82.7547
11
124.697
21
-82.7547
0
LINE
8
BLACK
6
CONTINUOUS
10
124.697
20
-82.7547
11
124.697
21
-88.1959
0
LINE
8
BLACK
6
CONTINUOUS
10
124.697
20
-88.1959
11
127.097
21
-88.1959
0
LINE
8
BLACK
6
CONTINUOUS
10
127.097
20
-88.1959
11
127.097
21
-82.7547
0
LINE
8
BLACK
6
CONTINUOUS
10
35.3381
20
-77.9744
11
37.4717
21
-77.9744
0
LINE
8
BLACK
6
CONTINUOUS
10
37.4717
20
-77.9744
11
37.4717
21
-73.504
0
LINE
8
BLACK
6
CONTINUOUS
10
37.4717
20
-73.504
11
35.3381
21
-73.504
0
LINE
8
BLACK
6
CONTINUOUS
10
35.3381
20
-73.504
11
35.3381
21
-77.9744
0
CIRCLE
8
BLACK
10
119.545
20
-121.945
40
1.6
0
LINE
8
BLACK
6
CONTINUOUS
10
251.613
20
-81.1079
11
251.613
21
-79.7079
0
LINE
8
BLACK
6
CONTINUOUS
10
250.313
20
-81.8079
11
250.913
21
-81.8079
0
LINE
8
BLACK
6
CONTINUOUS
10
250.913
20
-79.0079
11
250.313
21
-79.0079
0
LINE
8
BLACK
6
CONTINUOUS
10
249.613
20
-79.7079
11
249.613
21
-81.1079
0
ARC
8
BLACK
10
250.313
20
-79.7079
40
0.7
50
90
51
180
0
ARC
8
BLACK
10
250.913
20
-81.1079
40
0.699999
50
-90.0001
51
8.18512e-05
0
ARC
8
BLACK
10
250.313
20
-81.1079
40
0.699999
50
-180
51
-89.9999
0
ARC
8
BLACK
10
250.913
20
-79.7079
40
0.7
50
-0
51
90
0
LINE
8
BLACK
6
CONTINUOUS
10
51.0975
20
-83.7555
11
48.6975
21
-83.7555
0
LINE
8
BLACK
6
CONTINUOUS
10
48.6975
20
-83.7555
11
48.6975
21
-89.1967
0
LINE
8
BLACK
6
CONTINUOUS
10
48.6975
20
-89.1967
11
51.0975
21
-89.1967
0
LINE
8
BLACK
6
CONTINUOUS
10
51.0975
20
-89.1967
11
51.0975
21
-83.7555
0
CIRCLE
8
BLACK
10
35.8465
20
-99.1399
40
0.9
0
CIRCLE
8
BLACK
10
33.3065
20
-99.1399
40
0.9
0
CIRCLE
8
BLACK
10
38.3865
20
-99.1399
40
0.9
0
CIRCLE
8
BLACK
10
40.9265
20
-99.1399
40
0.9
0
LINE
8
BLACK
6
CONTINUOUS
10
70.0972
20
-80.7551
11
67.6972
21
-80.7551
0
LINE
8
BLACK
6
CONTINUOUS
10
67.6972
20
-80.7551
11
67.6972
21
-86.1963
0
LINE
8
BLACK
6
CONTINUOUS
10
67.6972
20
-86.1963
11
70.0972
21
-86.1963
0
LINE
8
BLACK
6
CONTINUOUS
10
70.0972
20
-86.1963
11
70.0972
21
-80.7551
0
LINE
8
BLACK
6
CONTINUOUS
10
37.3865
20
-101.576
11
37.3865
21
-102.976
0
LINE
8
BLACK
6
CONTINUOUS
10
38.6865
20
-100.876
11
38.0865
21
-100.876
0
LINE
8
BLACK
6
CONTINUOUS
10
39.3865
20
-102.976
11
39.3865
21
-101.576
0
LINE
8
BLACK
6
CONTINUOUS
10
38.0865
20
-103.676
11
38.6865
21
-103.676
0
ARC
8
BLACK
10
38.6865
20
-101.576
40
0.699999
50
-8.18512e-05
51
90.0001
0
ARC
8
BLACK
10
38.6865
20
-102.976
40
0.7
50
-90
51
-0
0
ARC
8
BLACK
10
38.0865
20
-102.976
40
0.7
50
-180
51
-90
0
ARC
8
BLACK
10
38.0865
20
-101.576
40
0.699999
50
-270
51
-180
0
LINE
8
BLACK
6
CONTINUOUS
10
248.177
20
-103.676
11
248.777
21
-103.676
0
LINE
8
BLACK
6
CONTINUOUS
10
247.477
20
-101.576
11
247.477
21
-102.976
0
LINE
8
BLACK
6
CONTINUOUS
10
248.777
20
-100.876
11
248.177
21
-100.876
0
LINE
8
BLACK
6
CONTINUOUS
10
249.477
20
-102.976
11
249.477
21
-101.576
0
ARC
8
BLACK
10
248.777
20
-101.576
40
0.699999
50
-8.18512e-05
51
90.0001
0
ARC
8
BLACK
10
248.177
20
-102.976
40
0.7
50
-180
51
-90
0
ARC
8
BLACK
10
248.777
20
-102.976
40
0.7
50
-90
51
-0
0
ARC
8
BLACK
10
248.177
20
-101.576
40
0.699999
50
-270
51
-180
0
LINE
8
BLACK
6
CONTINUOUS
10
108.097
20
-61.7557
11
105.697
21
-61.7557
0
LINE
8
BLACK
6
CONTINUOUS
10
105.697
20
-61.7557
11
105.697
21
-67.1969
0
LINE
8
BLACK
6
CONTINUOUS
10
105.697
20
-67.1969
11
108.097
21
-67.1969
0
LINE
8
BLACK
6
CONTINUOUS
10
108.097
20
-67.1969
11
108.097
21
-61.7557
0
LINE
8
BLACK
6
CONTINUOUS
10
90.3862
20
-83.0176
11
97.6862
21
-83.0176
0
LINE
8
BLACK
6
CONTINUOUS
10
97.6862
20
-83.0176
11
97.6862
21
-88.5176
0
LINE
8
BLACK
6
CONTINUOUS
10
97.6862
20
-88.5176
11
90.3862
21
-88.5176
0
LINE
8
BLACK
6
CONTINUOUS
10
90.3862
20
-88.5176
11
90.3862
21
-83.0176
0
LINE
8
BLACK
6
CONTINUOUS
10
89.0974
20
-57.9449
11
86.6974
21
-57.9449
0
LINE
8
BLACK
6
CONTINUOUS
10
86.6974
20
-57.9449
11
86.6974
21
-63.3861
0
LINE
8
BLACK
6
CONTINUOUS
10
86.6974
20
-63.3861
11
89.0974
21
-63.3861
0
LINE
8
BLACK
6
CONTINUOUS
10
89.0974
20
-63.3861
11
89.0974
21
-57.9449
0
LINE
8
BLACK
6
CONTINUOUS
10
127.097
20
-63.7543
11
124.697
21
-63.7543
0
LINE
8
BLACK
6
CONTINUOUS
10
124.697
20
-63.7543
11
124.697
21
-69.1955
0
LINE
8
BLACK
6
CONTINUOUS
10
124.697
20
-69.1955
11
127.097
21
-69.1955
0
LINE
8
BLACK
6
CONTINUOUS
10
127.097
20
-69.1955
11
127.097
21
-63.7543
0
LINE
8
BLACK
6
CONTINUOUS
10
248.014
20
-65.3885
11
243.188
21
-65.3885
0
LINE
8
BLACK
6
CONTINUOUS
10
243.188
20
-65.3885
11
243.188
21
-95.8685
0
LINE
8
BLACK
6
CONTINUOUS
10
243.188
20
-95.8685
11
248.014
21
-95.8685
0
LINE
8
BLACK
6
CONTINUOUS
10
248.014
20
-95.8685
11
248.014
21
-65.3885
0
LINE
8
BLACK
6
CONTINUOUS
10
261.476
20
-65.3885
11
256.65
21
-65.3885
0
LINE
8
BLACK
6
CONTINUOUS
10
256.65
20
-65.3885
11
256.65
21
-95.8685
0
LINE
8
BLACK
6
CONTINUOUS
10
256.65
20
-95.8685
11
261.476
21
-95.8685
0
LINE
8
BLACK
6
CONTINUOUS
10
261.476
20
-95.8685
11
261.476
21
-65.3885
0
LINE
8
BLACK
6
CONTINUOUS
10
65.5498
20
-87.0082
11
72.8498
21
-87.0082
0
LINE
8
BLACK
6
CONTINUOUS
10
72.8498
20
-87.0082
11
72.8498
21
-92.5082
0
LINE
8
BLACK
6
CONTINUOUS
10
72.8498
20
-92.5082
11
65.5498
21
-92.5082
0
LINE
8
BLACK
6
CONTINUOUS
10
65.5498
20
-92.5082
11
65.5498
21
-87.0082
0
LINE
8
BLACK
6
CONTINUOUS
10
51.0975
20
-102.755
11
48.6975
21
-102.755
0
LINE
8
BLACK
6
CONTINUOUS
10
48.6975
20
-102.755
11
48.6975
21
-108.197
0
LINE
8
BLACK
6
CONTINUOUS
10
48.6975
20
-108.197
11
51.0975
21
-108.197
0
LINE
8
BLACK
6
CONTINUOUS
10
51.0975
20
-108.197
11
51.0975
21
-102.755
0
CIRCLE
8
BLACK
10
65.493
20
-54.4751
40
1.6
0
CIRCLE
8
BLACK
10
125.844
20
-53.5332
40
1.6
0
CIRCLE
8
BLACK
10
122.541
20
-111.851
40
1.6
0
LINE
8
BLACK
6
CONTINUOUS
10
89.0974
20
-95.9451
11
86.6974
21
-95.9451
0
LINE
8
BLACK
6
CONTINUOUS
10
86.6974
20
-95.9451
11
86.6974
21
-101.386
0
LINE
8
BLACK
6
CONTINUOUS
10
86.6974
20
-101.386
11
89.0974
21
-101.386
0
LINE
8
BLACK
6
CONTINUOUS
10
89.0974
20
-101.386
11
89.0974
21
-95.9451
0
LINE
8
BLACK
6
CONTINUOUS
10
55.0602
20
-118.957
11
57.4602
21
-118.957
0
LINE
8
BLACK
6
CONTINUOUS
10
57.4602
20
-118.957
11
57.4602
21
-113.515
0
LINE
8
BLACK
6
CONTINUOUS
10
57.4602
20
-113.515
11
55.0602
21
-113.515
0
LINE
8
BLACK
6
CONTINUOUS
10
55.0602
20
-113.515
11
55.0602
21
-118.957
0
LINE
8
BLACK
6
CONTINUOUS
10
35.9991
20
-110.975
11
35.1863
21
-110.975
0
LINE
8
BLACK
6
CONTINUOUS
10
39.9869
20
-106.886
11
39.1741
21
-106.886
0
LINE
8
BLACK
6
CONTINUOUS
10
33.0019
20
-105.031
11
32.1891
21
-105.031
0
LINE
8
BLACK
6
CONTINUOUS
10
41.4855
20
-109.222
11
40.6727
21
-109.222
0
LINE
8
BLACK
6
CONTINUOUS
10
39.9869
20
-110.975
11
39.1741
21
-110.975
0
LINE
8
BLACK
6
CONTINUOUS
10
41.4855
20
-108.638
11
40.6727
21
-108.638
0
LINE
8
BLACK
6
CONTINUOUS
10
35.9991
20
-105.031
11
35.1863
21
-105.031
0
LINE
8
BLACK
6
CONTINUOUS
10
41.4855
20
-111.077
11
40.6727
21
-111.077
0
LINE
8
BLACK
6
CONTINUOUS
10
35.9991
20
-112.829
11
35.1863
21
-112.829
0
LINE
8
BLACK
6
CONTINUOUS
10
39.9869
20
-105.031
11
39.1741
21
-105.031
0
LINE
8
BLACK
6
CONTINUOUS
10
33.0019
20
-106.886
11
32.1891
21
-106.886
0
LINE
8
BLACK
6
CONTINUOUS
10
33.0019
20
-112.829
11
32.1891
21
-112.829
0
LINE
8
BLACK
6
CONTINUOUS
10
39.9869
20
-112.829
11
39.1741
21
-112.829
0
LINE
8
BLACK
6
CONTINUOUS
10
41.4855
20
-106.784
11
40.6727
21
-106.784
0
LINE
8
BLACK
6
CONTINUOUS
10
35.9991
20
-106.886
11
35.1863
21
-106.886
0
LINE
8
BLACK
6
CONTINUOUS
10
33.0019
20
-110.975
11
32.1891
21
-110.975
0
ARC
8
BLACK
10
39.9869
20
-105.958
40
0.9271
50
-90
51
90
0
ARC
8
BLACK
10
35.9991
20
-111.902
40
0.9271
50
-90
51
90
0
ARC
8
BLACK
10
32.1891
20
-105.958
40
0.9271
50
-270
51
-90
0
ARC
8
BLACK
10
35.1863
20
-105.958
40
0.9271
50
-270
51
-90
0
ARC
8
BLACK
10
39.9869
20
-111.902
40
0.9271
50
-90
51
90
0
ARC
8
BLACK
10
39.1741
20
-111.902
40
0.9271
50
-270
51
-90
0
ARC
8
BLACK
10
33.0019
20
-111.902
40
0.9271
50
-90
51
90
0
ARC
8
BLACK
10
41.4855
20
-107.711
40
0.9271
50
-90
51
90
0
ARC
8
BLACK
10
40.6727
20
-110.149
40
0.9271
50
-270
51
-90
0
ARC
8
BLACK
10
39.1741
20
-105.958
40
0.9271
50
-270
51
-90
0
ARC
8
BLACK
10
40.6727
20
-107.711
40
0.9271
50
-270
51
-90
0
ARC
8
BLACK
10
33.0019
20
-105.958
40
0.9271
50
-90
51
90
0
ARC
8
BLACK
10
32.1891
20
-111.902
40
0.9271
50
-270
51
-90
0
ARC
8
BLACK
10
35.9991
20
-105.958
40
0.9271
50
-90
51
90
0
ARC
8
BLACK
10
41.4855
20
-110.149
40
0.9271
50
-90
51
90
0
ARC
8
BLACK
10
35.1863
20
-111.902
40
0.9271
50
-270
51
-90
0
LINE
8
BLACK
6
CONTINUOUS
10
70.0972
20
-99.7555
11
67.6972
21
-99.7555
0
LINE
8
BLACK
6
CONTINUOUS
10
67.6972
20
-99.7555
11
67.6972
21
-105.197
0
LINE
8
BLACK
6
CONTINUOUS
10
67.6972
20
-105.197
11
70.0972
21
-105.197
0
LINE
8
BLACK
6
CONTINUOUS
10
70.0972
20
-105.197
11
70.0972
21
-99.7555
0
LINE
8
BLACK
6
CONTINUOUS
10
33.6065
20
-100.876
11
33.0065
21
-100.876
0
LINE
8
BLACK
6
CONTINUOUS
10
34.3065
20
-102.976
11
34.3065
21
-101.576
0
LINE
8
BLACK
6
CONTINUOUS
10
33.0065
20
-103.676
11
33.6065
21
-103.676
0
LINE
8
BLACK
6
CONTINUOUS
10
32.3065
20
-101.576
11
32.3065
21
-102.976
0
ARC
8
BLACK
10
33.6065
20
-101.576
40
0.699999
50
-8.18512e-05
51
90.0001
0
ARC
8
BLACK
10
33.0065
20
-102.976
40
0.7
50
-180
51
-90
0
ARC
8
BLACK
10
33.6065
20
-102.976
40
0.7
50
-90
51
-0
0
ARC
8
BLACK
10
33.0065
20
-101.576
40
0.699999
50
-270
51
-180
0
LINE
8
BLACK
6
CONTINUOUS
10
115.223
20
-87.8182
11
122.523
21
-87.8182
0
LINE
8
BLACK
6
CONTINUOUS
10
122.523
20
-87.8182
11
122.523
21
-93.3182
0
LINE
8
BLACK
6
CONTINUOUS
10
122.523
20
-93.3182
11
115.223
21
-93.3182
0
LINE
8
BLACK
6
CONTINUOUS
10
115.223
20
-93.3182
11
115.223
21
-87.8182
0
LINE
8
BLACK
6
CONTINUOUS
10
38.4899
20
-81.8079
11
39.0899
21
-81.8079
0
LINE
8
BLACK
6
CONTINUOUS
10
39.7899
20
-81.1079
11
39.7899
21
-79.7079
0
LINE
8
BLACK
6
CONTINUOUS
10
37.7899
20
-79.7079
11
37.7899
21
-81.1079
0
LINE
8
BLACK
6
CONTINUOUS
10
39.0899
20
-79.0079
11
38.4899
21
-79.0079
0
ARC
8
BLACK
10
39.0899
20
-79.7079
40
0.7
50
-0
51
90
0
ARC
8
BLACK
10
38.4899
20
-79.7079
40
0.7
50
90
51
180
0
ARC
8
BLACK
10
38.4899
20
-81.1079
40
0.699999
50
-180
51
-89.9999
0
ARC
8
BLACK
10
39.0899
20
-81.1079
40
0.699999
50
-90.0001
51
8.18512e-05
0
LINE
8
BLACK
6
CONTINUOUS
10
36.8465
20
-102.976
11
36.8465
21
-101.576
0
LINE
8
BLACK
6
CONTINUOUS
10
34.8465
20
-101.576
11
34.8465
21
-102.976
0
LINE
8
BLACK
6
CONTINUOUS
10
35.5465
20
-103.676
11
36.1465
21
-103.676
0
LINE
8
BLACK
6
CONTINUOUS
10
36.1465
20
-100.876
11
35.5465
21
-100.876
0
ARC
8
BLACK
10
35.5465
20
-101.576
40
0.699999
50
-270
51
-180
0
ARC
8
BLACK
10
36.1465
20
-101.576
40
0.699999
50
-8.18512e-05
51
90.0001
0
ARC
8
BLACK
10
35.5465
20
-102.976
40
0.7
50
-180
51
-90
0
ARC
8
BLACK
10
36.1465
20
-102.976
40
0.7
50
-90
51
-0
0
LINE
8
BLACK
6
CONTINUOUS
10
254.557
20
-102.976
11
254.557
21
-101.576
0
LINE
8
BLACK
6
CONTINUOUS
10
253.257
20
-103.676
11
253.857
21
-103.676
0
LINE
8
BLACK
6
CONTINUOUS
10
253.857
20
-100.876
11
253.257
21
-100.876
0
LINE
8
BLACK
6
CONTINUOUS
10
252.557
20
-101.576
11
252.557
21
-102.976
0
ARC
8
BLACK
10
253.857
20
-101.576
40
0.699999
50
-8.18512e-05
51
90.0001
0
ARC
8
BLACK
10
253.257
20
-101.576
40
0.699999
50
-270
51
-180
0
ARC
8
BLACK
10
253.257
20
-102.976
40
0.7
50
-180
51
-90
0
ARC
8
BLACK
10
253.857
20
-102.976
40
0.7
50
-90
51
-0
0
LINE
8
BLACK
6
CONTINUOUS
10
127.097
20
-101.755
11
124.697
21
-101.755
0
LINE
8
BLACK
6
CONTINUOUS
10
124.697
20
-101.755
11
124.697
21
-107.196
0
LINE
8
BLACK
6
CONTINUOUS
10
124.697
20
-107.196
11
127.097
21
-107.196
0
LINE
8
BLACK
6
CONTINUOUS
10
127.097
20
-107.196
11
127.097
21
-101.755
0
LINE
8
BLACK
6
CONTINUOUS
10
51.0974
20
-64.7561
11
48.6974
21
-64.7561
0
LINE
8
BLACK
6
CONTINUOUS
10
48.6974
20
-64.7561
11
48.6974
21
-70.1973
0
LINE
8
BLACK
6
CONTINUOUS
10
48.6974
20
-70.1973
11
51.0974
21
-70.1973
0
LINE
8
BLACK
6
CONTINUOUS
10
51.0974
20
-70.1973
11
51.0974
21
-64.7561
0
LINE
8
BLACK
6
CONTINUOUS
10
52.2662
20
-118.957
11
54.6662
21
-118.957
0
LINE
8
BLACK
6
CONTINUOUS
10
54.6662
20
-118.957
11
54.6662
21
-113.515
0
LINE
8
BLACK
6
CONTINUOUS
10
54.6662
20
-113.515
11
52.2662
21
-113.515
0
LINE
8
BLACK
6
CONTINUOUS
10
52.2662
20
-113.515
11
52.2662
21
-118.957
0
LINE
8
BLACK
6
CONTINUOUS
10
49.4722
20
-118.957
11
51.8722
21
-118.957
0
LINE
8
BLACK
6
CONTINUOUS
10
51.8722
20
-118.957
11
51.8722
21
-113.515
0
LINE
8
BLACK
6
CONTINUOUS
10
51.8722
20
-113.515
11
49.4722
21
-113.515
0
LINE
8
BLACK
6
CONTINUOUS
10
49.4722
20
-113.515
11
49.4722
21
-118.957
0
LINE
8
BLACK
6
CONTINUOUS
10
90.3246
20
-123.145
11
84.8834
21
-123.145
0
LINE
8
BLACK
6
CONTINUOUS
10
84.8834
20
-123.145
11
84.8834
21
-120.745
0
LINE
8
BLACK
6
CONTINUOUS
10
84.8834
20
-120.745
11
90.3246
21
-120.745
0
LINE
8
BLACK
6
CONTINUOUS
10
90.3246
20
-120.745
11
90.3246
21
-123.145
0
LINE
8
BLACK
6
CONTINUOUS
10
256.397
20
-100.876
11
255.797
21
-100.876
0
LINE
8
BLACK
6
CONTINUOUS
10
257.097
20
-102.976
11
257.097
21
-101.576
0
LINE
8
BLACK
6
CONTINUOUS
10
255.797
20
-103.676
11
256.397
21
-103.676
0
LINE
8
BLACK
6
CONTINUOUS
10
255.097
20
-101.576
11
255.097
21
-102.976
0
ARC
8
BLACK
10
256.397
20
-101.576
40
0.699999
50
-8.18512e-05
51
90.0001
0
ARC
8
BLACK
10
255.797
20
-102.976
40
0.7
50
-180
51
-90
0
ARC
8
BLACK
10
256.397
20
-102.976
40
0.7
50
-90
51
-0
0
ARC
8
BLACK
10
255.797
20
-101.576
40
0.699999
50
-270
51
-180
0
LINE
8
BLACK
6
CONTINUOUS
10
37.3336
20
-81.1079
11
37.3336
21
-79.7079
0
LINE
8
BLACK
6
CONTINUOUS
10
36.6336
20
-79.0079
11
36.0336
21
-79.0079
0
LINE
8
BLACK
6
CONTINUOUS
10
36.0336
20
-81.8079
11
36.6336
21
-81.8079
0
LINE
8
BLACK
6
CONTINUOUS
10
35.3336
20
-79.7079
11
35.3336
21
-81.1079
0
ARC
8
BLACK
10
36.6336
20
-81.1079
40
0.699999
50
-90.0001
51
8.18512e-05
0
ARC
8
BLACK
10
36.6336
20
-79.7079
40
0.7
50
-0
51
90
0
ARC
8
BLACK
10
36.0336
20
-79.7079
40
0.7
50
90
51
180
0
ARC
8
BLACK
10
36.0336
20
-81.1079
40
0.699999
50
-180
51
-89.9999
  0
ENDSEC
  0
EOF
