M48
; DRILL file {KiCad (6.0.6-0)} date Friday, 08 July 2022 at 23:19:32
; FORMAT={-:-/ absolute / inch / decimal}
; #@! TF.CreationDate,2022-07-08T23:19:32+08:00
; #@! TF.GenerationSoftware,Kicad,Pcbnew,(6.0.6-0)
; #@! TF.FileFunction,NonPlated,1,2,NPTH
FMAT,2
INCH
; #@! TA.AperFunction,NonPlated,NPTH,ComponentDrill
T1C0.0472
; #@! TA.AperFunction,NonPlated,NPTH,ComponentDrill
T2C0.0669
; #@! TA.AperFunction,NonPlated,NPTH,ComponentDrill
T3C0.1000
; #@! TA.AperFunction,NonPlated,NPTH,ComponentDrill
T4C0.1063
; #@! TA.AperFunction,NonPlated,NPTH,ComponentDrill
T5C0.1181
; #@! TA.AperFunction,NonPlated,NPTH,ComponentDrill
T6C0.1260
; #@! TA.AperFunction,NonPlated,NPTH,ComponentDrill
T7C0.1575
%
G90
G05
T1
X8.0251Y-4.5644
X8.0251Y-4.6333
X8.3007Y-4.5644
X8.3007Y-4.6333
T2
X4.0495Y-2.9135
X4.0495Y-3.6615
X4.0495Y-4.4096
X4.4495Y-2.9135
X4.4495Y-3.6615
X4.4495Y-4.4096
X4.7975Y-2.7954
X4.7975Y-3.5434
X4.7975Y-4.2914
X5.1975Y-2.7954
X5.1975Y-3.5434
X5.1975Y-4.2914
X5.5455Y-2.6954
X5.5455Y-3.4434
X5.5455Y-4.1914
X5.9455Y-2.6954
X5.9455Y-3.4434
X5.9455Y-4.1914
X6.2936Y-2.7954
X6.2936Y-3.5434
X6.2936Y-4.2915
X6.6728Y-5.1502
X6.6936Y-2.7954
X6.6936Y-3.5434
X6.6936Y-4.2915
X7.0416Y-2.8974
X7.0416Y-3.6436
X7.0416Y-4.3915
X7.0592Y-5.2538
X7.3938Y-5.3908
X7.4416Y-2.8974
X7.4416Y-3.6436
X7.4416Y-4.3915
X7.7802Y-5.4943
X8.1268Y-5.5873
X8.5132Y-5.6908
T4
X5.3735Y-5.363
X5.468Y-4.6582
X6.0229Y-4.6583
X6.1176Y-5.363
T5
X4.0995Y-2.8135
X4.0995Y-3.5615
X4.0995Y-4.3096
X4.1495Y-2.7135
X4.1495Y-3.4615
X4.1495Y-4.2096
X4.3495Y-2.7135
X4.3495Y-3.4615
X4.3495Y-4.2096
X4.3995Y-2.8135
X4.3995Y-3.5615
X4.3995Y-4.3096
X4.8475Y-2.6954
X4.8475Y-3.4434
X4.8475Y-4.1914
X4.8975Y-2.5954
X4.8975Y-3.3434
X4.8975Y-4.0914
X5.0975Y-2.5954
X5.0975Y-3.3434
X5.0975Y-4.0914
X5.1475Y-2.6954
X5.1475Y-3.4434
X5.1475Y-4.1914
X5.5955Y-2.5954
X5.5955Y-3.3434
X5.5955Y-4.0914
X5.6455Y-2.4954
X5.6455Y-3.2434
X5.6455Y-3.9914
X5.8455Y-2.4954
X5.8455Y-3.2434
X5.8455Y-3.9914
X5.8955Y-2.5954
X5.8955Y-3.3434
X5.8955Y-4.0914
X6.3436Y-2.6954
X6.3436Y-3.4434
X6.3436Y-4.1915
X6.3936Y-2.5954
X6.3936Y-3.3434
X6.3936Y-4.0915
X6.5936Y-2.5954
X6.5936Y-3.3434
X6.5936Y-4.0915
X6.6436Y-2.6954
X6.6436Y-3.4434
X6.6436Y-4.1915
X6.747Y-5.0666
X6.8212Y-4.9829
X7.0144Y-5.0347
X7.0368Y-5.1442
X7.0916Y-2.7974
X7.0916Y-3.5436
X7.0916Y-4.2915
X7.1416Y-2.6974
X7.1416Y-3.4436
X7.1416Y-4.1915
X7.3416Y-2.6974
X7.3416Y-3.4436
X7.3416Y-4.1915
X7.3916Y-2.7974
X7.3916Y-3.5436
X7.3916Y-4.2915
X7.468Y-5.3071
X7.5422Y-5.2235
X7.7354Y-5.2752
X7.7578Y-5.3848
X8.201Y-5.5036
X8.2752Y-5.42
X8.4684Y-5.4717
X8.4908Y-5.5813
T6
X4.51Y-4.85
X4.5634Y-2.482
X4.91Y-4.85
X6.3435Y-5.363
X6.81Y-4.73
X6.9315Y-2.465
X8.666Y-5.166
T7
X4.2495Y-2.9135
X4.2495Y-3.6615
X4.2495Y-4.4096
X4.9975Y-2.7954
X4.9975Y-3.5434
X4.9975Y-4.2914
X5.7455Y-2.6954
X5.7455Y-3.4434
X5.7455Y-4.1914
X6.4936Y-2.7954
X6.4936Y-3.5434
X6.4936Y-4.2915
X6.866Y-5.202
X7.2416Y-2.8974
X7.2416Y-3.6436
X7.2416Y-4.3915
X7.587Y-5.4426
X8.32Y-5.639
T3
G00X5.1282Y-4.6435
M15
G01X5.2841Y-4.6435
M16
G05
G00X6.2069Y-4.6435
M15
G01X6.3628Y-4.6435
M16
G05
T0
M30
