G04 #@! TF.GenerationSoftware,KiCad,Pcbnew,(6.0.6-0)*
G04 #@! TF.CreationDate,2022-07-08T23:29:36+08:00*
G04 #@! TF.ProjectId,AT_ST,41545f53-542e-46b6-9963-61645f706362,rev?*
G04 #@! TF.SameCoordinates,Original*
G04 #@! TF.FileFunction,Soldermask,Top*
G04 #@! TF.FilePolarity,Negative*
%FSLAX46Y46*%
G04 Gerber Fmt 4.6, Leading zero omitted, Abs format (unit mm)*
G04 Created by KiCad (PCBNEW (6.0.6-0)) date 2022-07-08 23:29:36*
%MOMM*%
%LPD*%
G01*
G04 APERTURE LIST*
G04 Aperture macros list*
%AMRoundRect*
0 Rectangle with rounded corners*
0 $1 Rounding radius*
0 $2 $3 $4 $5 $6 $7 $8 $9 X,Y pos of 4 corners*
0 Add a 4 corners polygon primitive as box body*
4,1,4,$2,$3,$4,$5,$6,$7,$8,$9,$2,$3,0*
0 Add four circle primitives for the rounded corners*
1,1,$1+$1,$2,$3*
1,1,$1+$1,$4,$5*
1,1,$1+$1,$6,$7*
1,1,$1+$1,$8,$9*
0 Add four rect primitives between the rounded corners*
20,1,$1+$1,$2,$3,$4,$5,0*
20,1,$1+$1,$4,$5,$6,$7,0*
20,1,$1+$1,$6,$7,$8,$9,0*
20,1,$1+$1,$8,$9,$2,$3,0*%
%AMFreePoly0*
4,1,49,1.246537,1.440756,1.265589,1.436966,1.337677,1.407108,1.353828,1.396317,1.409017,1.341128,1.419808,1.324977,1.449666,1.252889,1.453456,1.233837,1.457300,1.194816,1.457300,-0.746760,1.437494,-0.833537,1.398722,-0.888181,0.900881,-1.386021,0.825516,-1.433377,0.759460,-1.444600,-1.207516,-1.444600,-1.246537,-1.440756,-1.265589,-1.436966,-1.337677,-1.407108,-1.353828,-1.396317,
-1.409017,-1.341128,-1.419808,-1.324977,-1.449666,-1.252889,-1.453456,-1.233837,-1.457300,-1.194816,-1.457300,-0.936600,-1.873100,-0.936600,-1.959877,-0.916795,-2.029466,-0.861298,-2.068086,-0.781103,-2.073100,-0.736600,-2.073100,0.744600,-2.053294,0.831377,-1.997798,0.900965,-1.917604,0.939586,-1.873100,0.944600,-1.457300,0.944601,-1.457301,1.194816,-1.453456,1.233837,-1.449666,1.252889,
-1.419808,1.324977,-1.409017,1.341128,-1.353828,1.396317,-1.337677,1.407108,-1.265589,1.436966,-1.246537,1.440756,-1.207516,1.444600,1.207516,1.444600,1.246537,1.440756,1.246537,1.440756,$1*%
%AMFreePoly1*
4,1,53,1.258633,1.440753,1.277685,1.436962,1.349773,1.407105,1.365924,1.396314,1.421113,1.341125,1.431904,1.324975,1.461762,1.252886,1.465552,1.233834,1.469396,1.194813,1.469396,0.935403,1.940604,0.935403,2.027381,0.915597,2.096970,0.860101,2.135590,0.779907,2.140604,0.735403,2.140604,-0.764597,2.120798,-0.851374,2.065302,-0.920963,1.985108,-0.959583,1.940603,-0.964597,
1.469396,-0.964597,1.469396,-1.194813,1.465552,-1.233834,1.461762,-1.252886,1.431905,-1.324974,1.421113,-1.341125,1.365924,-1.396314,1.349773,-1.407105,1.277685,-1.436963,1.258633,-1.440753,1.219612,-1.444597,-1.219612,-1.444597,-1.258633,-1.440753,-1.277685,-1.436962,-1.349773,-1.407105,-1.365924,-1.396314,-1.421113,-1.341125,-1.431904,-1.324975,-1.461762,-1.252886,-1.465552,-1.233834,
-1.469396,-1.194813,-1.469396,1.194813,-1.465552,1.233834,-1.461762,1.252886,-1.431905,1.324974,-1.421113,1.341125,-1.365924,1.396314,-1.349773,1.407105,-1.277685,1.436963,-1.258633,1.440753,-1.219612,1.444597,1.219612,1.444597,1.258633,1.440753,1.258633,1.440753,$1*%
%AMFreePoly2*
4,1,41,0.586777,0.930194,0.656366,0.874698,0.694986,0.794504,0.700000,0.750000,0.700000,-0.750000,0.680194,-0.836777,0.624698,-0.906366,0.544504,-0.944986,0.500000,-0.950000,0.000000,-0.950000,-0.023504,-0.944635,-0.083606,-0.943534,-0.139582,-0.934468,-0.274897,-0.892193,-0.326080,-0.867780,-0.444090,-0.789225,-0.486362,-0.751429,-0.577582,-0.642910,-0.607548,-0.594768,-0.664643,-0.465009,
-0.679893,-0.410393,-0.697476,-0.275933,-0.697084,-0.275882,-0.700000,-0.250000,-0.700000,0.250000,-0.697921,0.259109,-0.697582,0.286880,-0.675771,0.426957,-0.659192,0.481183,-0.598944,0.609508,-0.567811,0.656904,-0.473967,0.763162,-0.430783,0.799915,-0.310888,0.875563,-0.259125,0.898717,-0.122818,0.937674,-0.066635,0.945370,-0.042411,0.945222,0.000000,0.950000,0.500000,0.950000,
0.586777,0.930194,0.586777,0.930194,$1*%
%AMFreePoly3*
4,1,41,0.022678,0.944824,0.075125,0.944504,0.131210,0.936123,0.267031,0.895504,0.318507,0.871718,0.437469,0.794611,0.480202,0.757333,0.572740,0.649936,0.603290,0.602165,0.661967,0.473113,0.677883,0.418686,0.697980,0.278353,0.700000,0.250000,0.700000,-0.250000,0.699985,-0.252439,0.699836,-0.264655,0.697079,-0.295398,0.673559,-0.435199,0.656318,-0.489221,0.594506,-0.616800,
0.562797,-0.663810,0.467662,-0.768914,0.424032,-0.805137,0.303222,-0.879314,0.251181,-0.901834,0.114408,-0.939123,0.058135,-0.946132,0.037663,-0.945757,0.000000,-0.950000,-0.500000,-0.950000,-0.586777,-0.930194,-0.656366,-0.874698,-0.694986,-0.794504,-0.700000,-0.750000,-0.700000,0.750000,-0.680194,0.836777,-0.624698,0.906366,-0.544504,0.944986,-0.500000,0.950000,0.000000,0.950000,
0.022678,0.944824,0.022678,0.944824,$1*%
%AMFreePoly4*
4,1,65,2.091702,2.730845,2.161291,2.675349,2.194684,2.613829,2.656917,1.225478,3.119151,-0.162873,3.127771,-0.251463,3.097099,-0.335020,3.033211,-0.396994,2.948760,-0.425111,2.929392,-0.426051,1.859468,-0.426051,1.772691,-0.406245,1.703102,-0.350749,1.670108,-0.290416,1.546013,0.074666,1.040076,0.074666,0.926330,-0.286179,0.881351,-0.362987,0.807501,-0.412673,0.735582,-0.426051,
0.243178,-0.426051,0.239987,-0.426026,-0.003620,-0.422139,-0.015604,-0.421588,-0.174057,-0.409531,-0.209941,-0.403480,-0.288807,-0.382656,-0.367652,-0.341352,-0.399787,-0.306515,-0.411265,-0.290650,-0.446083,-0.208734,-0.444005,-0.128018,-0.430404,-0.069666,-0.427678,-0.059246,-0.389897,0.070743,-0.389019,0.073679,-0.331586,0.260550,-0.331070,0.262203,-0.258514,0.491198,-0.258113,0.492449,
-0.181011,0.730356,-0.180826,0.730925,-0.070201,1.068821,1.235506,1.068821,1.293088,1.066540,1.317709,1.066422,1.378071,1.066422,1.307459,1.280794,1.257919,1.136804,1.235506,1.068821,-0.070201,1.068821,0.077646,1.520407,0.084186,1.531297,-0.294745,1.531297,-0.381522,1.551103,-0.451111,1.606599,-0.489731,1.686793,-0.494745,1.731297,-0.494745,2.550651,-0.474939,2.637428,
-0.419443,2.707017,-0.339249,2.745637,-0.294745,2.750651,2.004925,2.750651,2.091702,2.730845,2.091702,2.730845,$1*%
%AMFreePoly5*
4,1,33,1.144878,2.730845,1.214467,2.675349,1.253087,2.595155,1.258101,2.550651,1.258101,1.731297,1.238295,1.644520,1.182799,1.574931,1.102605,1.536311,1.058101,1.531297,0.393226,1.531297,0.393226,-0.226051,0.373420,-0.312828,0.317924,-0.382417,0.237730,-0.421037,0.193226,-0.426051,-0.762688,-0.426051,-0.849465,-0.406245,-0.919054,-0.350749,-0.957674,-0.270555,-0.962688,-0.226051,
-0.962688,1.531297,-1.627563,1.531297,-1.714340,1.551103,-1.783929,1.606599,-1.822549,1.686793,-1.827563,1.731297,-1.827563,2.550651,-1.807757,2.637428,-1.752261,2.707017,-1.672067,2.745637,-1.627563,2.750651,1.058101,2.750651,1.144878,2.730845,1.144878,2.730845,$1*%
%AMFreePoly6*
4,1,111,0.242069,0.815894,0.311678,0.760422,0.350324,0.680242,0.355354,0.635671,0.355354,-0.183684,0.335548,-0.270461,0.280052,-0.340050,0.199858,-0.378670,0.155354,-0.383684,-0.509520,-0.383684,-0.509520,-2.141032,-0.529326,-2.227809,-0.584822,-2.297398,-0.665016,-2.336018,-0.709520,-2.341032,-1.665434,-2.341032,-1.752211,-2.321226,-1.821800,-2.265730,-1.860420,-2.185536,-1.865434,-2.141032,
-1.865434,-0.383907,-2.289875,-0.384380,-2.519911,-0.387475,-2.656019,-0.392901,-2.624787,-0.427430,-2.620025,-0.432891,-2.391176,-0.705104,-2.373511,-0.729674,-2.221662,-0.978674,-2.203117,-1.018257,-2.121715,-1.256983,-2.111990,-1.301785,-2.093183,-1.491341,-2.094119,-1.538685,-2.126086,-1.768128,-2.150966,-1.840526,-2.252214,-2.015902,-2.305036,-2.075617,-2.483588,-2.210204,-2.511092,-2.227618,
-2.531703,-2.238426,-2.545844,-2.245149,-2.601533,-2.269000,-2.628771,-2.278407,-2.698670,-2.297035,-2.721026,-2.301645,-2.816292,-2.315678,-2.830211,-2.317233,-2.962002,-2.327296,-2.969746,-2.327736,-3.149217,-2.334456,-3.153342,-2.334568,-3.391652,-2.338570,-3.393770,-2.338594,-3.702074,-2.340506,-3.703049,-2.340510,-4.043574,-2.340961,-4.043828,-2.340961,-5.307000,-2.341032,-5.393778,-2.321231,
-5.463370,-2.265739,-5.501994,-2.185547,-5.507011,-2.141032,-5.507011,-1.321677,-5.487205,-1.234900,-5.431709,-1.165311,-5.351515,-1.126691,-5.307011,-1.121677,-4.469027,-1.121677,-4.143035,-1.120545,-3.900014,-1.116451,-3.821895,-1.112793,-3.856504,-1.074039,-3.905550,-1.022152,-3.914215,-1.012363,-4.147591,-0.730683,-4.168149,-0.700689,-4.320292,-0.428577,-4.338815,-0.383089,-4.408386,-0.125328,
-4.414936,-0.061213,-4.400594,0.177414,-4.383441,0.247258,-4.293240,0.448381,-4.275851,0.479422,-4.233200,0.541801,-4.223648,0.554637,-4.181737,0.606491,-4.156101,0.632835,-4.106583,0.675139,-4.068271,0.700867,-4.002801,0.734597,-3.967102,0.748834,-3.877334,0.774965,-3.852909,0.780444,-3.730497,0.799951,-3.715925,0.801727,-3.552523,0.815586,-3.544248,0.816116,-3.331509,0.825301,
-3.326939,0.825446,-3.056518,0.830933,-3.054105,0.830967,-2.717656,0.833732,-2.716507,0.833738,-2.305684,0.834755,-2.305288,0.834756,-1.813473,0.835000,-1.813442,0.835000,0.155286,0.835671,0.242069,0.815894,0.242069,0.815894,$1*%
%AMFreePoly7*
4,1,259,-1.664717,0.923083,-1.607825,0.922919,-1.606837,0.922914,-1.563780,0.922577,-1.561598,0.922548,-1.534487,0.922040,-1.527310,0.921776,-1.518937,0.921318,-1.509402,0.920568,-1.492957,0.918877,-1.461655,0.916164,-1.417878,0.912635,-1.366420,0.908691,-1.339262,0.906682,-1.335667,0.906384,-1.119549,0.886473,-1.111935,0.885624,-0.901898,0.858126,-0.894059,0.856941,-0.692049,0.822302,
-0.683768,0.820702,-0.491736,0.779371,-0.482740,0.777216,-0.302631,0.729640,-0.292570,0.726698,-0.126335,0.673326,-0.114740,0.669206,0.035675,0.610484,0.046631,0.605826,0.131560,0.566697,0.141242,0.561915,0.234153,0.512865,0.247038,0.505438,0.322707,0.457985,0.339701,0.446056,0.400183,0.398729,0.420294,0.380673,0.467640,0.332000,0.480603,0.317295,0.490867,0.304433,
0.493421,0.301164,0.526981,0.257272,0.563955,0.176306,0.567918,0.127214,0.561837,-0.014440,0.561359,-0.022120,0.545559,-0.215845,0.543496,-0.232487,0.512580,-0.417865,0.508872,-0.435280,0.461922,-0.615901,0.456767,-0.632675,0.392868,-0.812128,0.387159,-0.826400,0.313914,-0.990877,0.308044,-1.002951,0.241163,-1.129528,0.235265,-1.139925,0.158138,-1.266896,0.151800,-1.276677,
0.069519,-1.395882,0.064000,-1.403489,0.028416,-1.450186,0.022354,-1.457753,-0.012238,-1.498853,-0.017333,-1.504675,-0.063048,-1.554911,-0.066298,-1.558397,-0.119485,-1.614117,-0.122062,-1.616768,-0.179071,-1.674323,-0.181561,-1.676793,-0.238740,-1.732530,-0.241661,-1.735320,-0.295361,-1.785591,-0.299608,-1.789454,-0.346177,-1.830606,-0.351798,-1.835391,-0.373019,-1.852792,-0.383439,-1.860780,
-0.554982,-1.983545,-0.570307,-1.993486,-0.751924,-2.099847,-0.767957,-2.108285,-0.958335,-2.197717,-0.974988,-2.204642,-1.172813,-2.276620,-1.190011,-2.282013,-1.393969,-2.336010,-1.411638,-2.339843,-1.620418,-2.375333,-1.632027,-2.376958,-1.693569,-2.383740,-1.702320,-2.384510,-1.781377,-2.389722,-1.790021,-2.390104,-1.881911,-2.392178,-1.888239,-2.392221,-1.986878,-2.391326,-1.992506,-2.391195,
-2.091809,-2.387497,-2.097829,-2.387182,-2.191711,-2.380848,-2.199502,-2.380169,-2.281878,-2.371365,-2.289054,-2.370467,-2.310522,-2.367384,-2.321832,-2.365427,-2.522795,-2.324683,-2.540441,-2.320261,-2.738550,-2.260923,-2.755236,-2.255111,-2.948360,-2.178110,-2.964291,-2.170936,-3.150300,-2.077202,-3.165646,-2.068603,-3.342408,-1.959067,-3.355382,-1.950306,-3.479288,-1.859382,-3.489752,-1.851154,
-3.530852,-1.816562,-3.536674,-1.811467,-3.586910,-1.765752,-3.590396,-1.762502,-3.646116,-1.709315,-3.648767,-1.706738,-3.706322,-1.649729,-3.708790,-1.647240,-3.764528,-1.590061,-3.767321,-1.587137,-3.817591,-1.533437,-3.821453,-1.529192,-3.862605,-1.482623,-3.867390,-1.477002,-3.884791,-1.455781,-3.892601,-1.445608,-4.006703,-1.286681,-4.015972,-1.272546,-4.117693,-1.102130,-4.125480,-1.087785,
-4.213057,-0.909457,-4.219720,-0.894342,-4.273263,-0.757870,-4.291385,-0.711680,-4.296939,-0.695526,-4.300430,-0.683762,-3.278372,-0.683762,-3.277802,-0.734289,-3.276425,-0.764350,-3.274789,-0.777970,-3.272972,-0.785809,-3.267442,-0.802261,-3.267008,-0.803413,-3.251758,-0.839454,-3.233389,-0.877543,-3.223989,-0.894851,-3.205192,-0.922007,-3.173393,-0.959829,-3.132392,-1.002873,-3.088940,-1.043824,
-3.050248,-1.076087,-3.024496,-1.093907,-2.952579,-1.127403,-2.884923,-1.147350,-2.822970,-1.155155,-2.768005,-1.152388,-2.720436,-1.140688,-2.678849,-1.120806,-2.646681,-1.096242,-2.618853,-1.063923,-2.599293,-1.027787,-2.586492,-0.985412,-2.581156,-0.936179,-2.584457,-0.880910,-2.597287,-0.821410,-2.620006,-0.759959,-2.652536,-0.698839,-2.694437,-0.640274,-2.745132,-0.586200,-2.804370,-0.538004,
-2.864629,-0.501118,-2.926635,-0.474513,-2.990354,-0.457951,-3.051617,-0.451623,-3.107371,-0.455107,-3.130878,-0.460479,-3.178194,-0.480419,-3.212947,-0.504985,-3.242890,-0.538363,-3.270506,-0.585520,-3.275893,-0.597282,-3.276854,-0.599862,-3.277602,-0.607587,-3.278353,-0.636402,-3.278372,-0.683762,-4.300430,-0.683762,-4.348802,-0.520739,-4.352204,-0.507671,-4.380157,-0.383205,-4.382306,-0.372205,
-4.401929,-0.254266,-4.403555,-0.242254,-4.416191,-0.121487,-4.416934,-0.112387,-4.422496,-0.017575,-4.422656,-0.014413,-4.428718,0.127241,-4.412640,0.214785,-4.387780,0.257272,-4.354220,0.301164,-4.341468,0.316238,-4.287837,0.373629,-4.265322,0.394301,-4.193425,0.450827,-4.175219,0.463570,-4.086327,0.518696,-4.071559,0.527010,-3.966943,0.580196,-3.954672,0.585920,-3.835602,0.636631,
-3.825090,0.640762,-3.692837,0.688461,-3.683545,0.691557,-3.539379,0.735706,-3.530923,0.738093,-3.376114,0.778156,-3.368206,0.780032,-3.204025,0.815471,-3.199885,0.816319,-3.184728,0.819257,-3.182886,0.819606,-3.062165,0.841834,-3.058494,0.842474,-2.944646,0.861251,-2.940144,0.861941,-2.829995,0.877540,-2.824951,0.878189,-2.715329,0.890880,-2.710170,0.891410,-2.597902,0.901465,
-2.593060,0.901839,-2.474974,0.909530,-2.470777,0.909759,-2.343700,0.915357,-2.340320,0.915477,-2.201080,0.919253,-2.198538,0.919306,-2.043962,0.921532,-2.042703,0.921546,-1.990636,0.921968,-1.990211,0.921971,-1.899078,0.922516,-1.898733,0.922518,-1.812995,0.922883,-1.812625,0.922884,-1.734392,0.923072,-1.733943,0.923073,-1.665326,0.923084,-1.664717,0.923083,-1.664717,0.923083,
$1*%
%AMFreePoly8*
4,1,164,1.911426,1.577420,1.982245,1.576406,1.987961,1.576242,2.046748,1.573718,2.055048,1.573189,2.085026,1.570650,2.099309,1.568920,2.308112,1.535984,2.325662,1.532404,2.530414,1.480986,2.547401,1.475910,2.746482,1.406671,2.762929,1.400122,2.954720,1.313724,2.970645,1.305677,3.153527,1.202780,3.168920,1.193175,3.341271,1.074440,3.350148,1.067957,3.381707,1.043554,
3.388153,1.038353,3.429253,1.003761,3.435075,0.998666,3.485311,0.952951,3.488797,0.949701,3.544517,0.896514,3.547168,0.893937,3.604723,0.836928,3.607193,0.834438,3.662930,0.777259,3.665720,0.774338,3.715991,0.720638,3.719854,0.716391,3.761006,0.669822,3.765791,0.664201,3.783192,0.642980,3.790961,0.632865,3.904040,0.475482,3.913219,0.461509,4.014278,0.292694,
4.021998,0.278532,4.109180,0.102010,4.115819,0.087056,4.187270,-0.093448,4.192753,-0.109187,4.242722,-0.274487,4.245511,-0.284676,4.261988,-0.351794,4.263038,-0.356296,4.275966,-0.414762,4.277210,-0.420833,4.286200,-0.468442,4.287874,-0.478789,4.292539,-0.513337,4.294337,-0.540598,4.294289,-0.559881,4.274267,-0.646608,4.254977,-0.678461,4.252513,-0.681786,4.184934,-0.739713,
4.098914,-0.762582,4.009155,-0.744822,3.998416,-0.739947,3.981214,-0.731111,3.959190,-0.718417,3.953545,-0.715039,3.932132,-0.701740,3.822952,-0.639588,3.699741,-0.582896,3.558341,-0.529448,3.400830,-0.480157,3.229075,-0.435624,3.044905,-0.396310,2.850054,-0.362572,2.646182,-0.334706,2.435021,-0.312983,2.218107,-0.297625,1.997081,-0.288850,1.773585,-0.286859,1.549153,-0.291834,
1.325387,-0.303947,1.103060,-0.323428,0.984906,-0.337012,0.786697,-0.365325,0.597908,-0.399287,0.419471,-0.438484,0.253186,-0.482324,0.100879,-0.530145,-0.035487,-0.581131,-0.153815,-0.634217,-0.255713,-0.689999,-0.270846,-0.699451,-0.271578,-0.699906,-0.299346,-0.717083,-0.305682,-0.720843,-0.326608,-0.732745,-0.345532,-0.742220,-0.354270,-0.746031,-0.441729,-0.762567,-0.527702,-0.739519,
-0.595160,-0.681451,-0.623564,-0.627135,-0.626637,-0.618104,-0.636765,-0.539088,-0.634891,-0.513466,-0.632888,-0.496307,-0.626455,-0.456296,-0.624987,-0.448224,-0.614383,-0.396030,-0.613238,-0.390761,-0.598851,-0.328588,-0.598036,-0.325199,-0.587713,-0.283881,-0.584895,-0.273743,-0.529446,-0.092856,-0.523655,-0.076526,-0.450778,0.103782,-0.444055,0.118641,-0.355606,0.294647,-0.347779,0.308770,
-0.245614,0.476748,-0.236726,0.490121,-0.132926,0.633466,-0.123953,0.644952,-0.089361,0.686052,-0.084266,0.691874,-0.038551,0.742110,-0.035301,0.745596,0.017886,0.801316,0.020463,0.803967,0.077472,0.861522,0.079961,0.863990,0.137140,0.919728,0.140064,0.922521,0.193764,0.972791,0.198009,0.976653,0.244578,1.017805,0.250199,1.022590,0.271420,1.039991,0.281892,1.048015,
0.451547,1.169348,0.466719,1.179194,0.647551,1.285237,0.663198,1.293505,0.853190,1.383381,0.869405,1.390196,1.066538,1.463024,1.083455,1.468433,1.285713,1.523334,1.300762,1.526801,1.444650,1.554148,1.458227,1.556248,1.507108,1.562098,1.515330,1.562910,1.579073,1.567879,1.583891,1.568196,1.658013,1.572177,1.661521,1.572335,1.741541,1.575225,1.744602,1.575312,
1.826037,1.577005,1.829194,1.577045,1.907563,1.577437,1.911426,1.577420,1.911426,1.577420,$1*%
%AMFreePoly9*
4,1,190,-0.177650,0.757359,-0.169625,0.755005,-0.129704,0.738426,-0.116064,0.730941,-0.103796,0.723628,-0.083065,0.710243,-0.078581,0.707261,-0.049279,0.687204,-0.048796,0.686873,0.019046,0.640144,0.095231,0.588319,0.177790,0.532722,0.265337,0.474256,0.357358,0.413247,0.452063,0.350867,0.548521,0.287713,0.645642,0.224491,0.742188,0.162003,0.837778,0.100498,0.930135,0.041442,
1.018945,-0.014955,1.102855,-0.067820,1.180398,-0.116216,1.251058,-0.159797,1.312982,-0.197393,1.365617,-0.228637,1.512159,-0.314015,1.726058,-0.437563,1.930585,-0.554342,2.125745,-0.664339,2.312486,-0.768080,2.490712,-0.865503,2.661372,-0.957128,2.824552,-1.043003,2.980860,-1.123455,3.130554,-1.198635,3.274333,-1.268913,3.412513,-1.334469,3.546357,-1.395924,3.564393,-1.404133,
3.566058,-1.404900,3.594087,-1.417968,3.596725,-1.419221,3.619122,-1.430064,3.623845,-1.432428,3.638678,-1.440099,3.657723,-1.451325,3.663057,-1.454880,3.724282,-1.519486,3.751411,-1.604260,3.739073,-1.692409,3.707102,-1.747741,3.704713,-1.750669,3.676346,-1.779065,3.664639,-1.788637,3.656765,-1.794755,3.636172,-1.809945,3.632760,-1.812406,3.604254,-1.832521,3.602167,-1.833974,
3.566718,-1.858319,3.565178,-1.859366,3.523756,-1.887249,3.522667,-1.887977,3.513218,-1.894248,3.506513,-1.898509,3.366974,-1.983333,3.354421,-1.990358,3.207945,-2.065549,3.195301,-2.071491,3.043226,-2.136576,3.030382,-2.141557,2.874046,-2.196068,2.860857,-2.200162,2.701598,-2.243628,2.687906,-2.246852,2.527062,-2.278802,2.512695,-2.281116,2.351604,-2.301082,2.343973,-2.301880,
2.312957,-2.304521,2.312670,-2.304545,2.280401,-2.307246,2.280063,-2.307274,2.252671,-2.309520,2.252043,-2.309571,2.233318,-2.311047,2.226975,-2.311445,2.206620,-2.312400,2.199711,-2.312605,2.165131,-2.313031,2.161041,-2.313039,2.118738,-2.312695,2.116044,-2.312655,2.068652,-2.311631,2.066484,-2.311573,2.016637,-2.309955,2.014588,-2.309878,1.964922,-2.307756,1.962636,-2.307645,
1.915784,-2.305106,1.912786,-2.304921,1.871384,-2.302053,1.866635,-2.301667,1.833317,-2.298560,1.823021,-2.297330,1.660833,-2.273674,1.647316,-2.271226,1.478568,-2.234635,1.464583,-2.231069,1.300265,-2.182801,1.286430,-2.178183,1.126691,-2.118302,1.113190,-2.112669,0.958180,-2.041237,0.945190,-2.034668,0.795057,-1.951748,0.782731,-1.944350,0.637625,-1.850004,0.626090,-1.841913,
0.486159,-1.736204,0.478973,-1.730511,0.461453,-1.715968,0.456960,-1.712125,0.411936,-1.672446,0.407578,-1.668490,0.358207,-1.622329,0.354912,-1.619177,0.303529,-1.568891,0.300642,-1.566008,0.249582,-1.513957,0.246679,-1.510935,0.198274,-1.459477,0.194924,-1.455826,0.151509,-1.407319,0.147057,-1.402171,0.110966,-1.358975,0.105760,-1.352474,0.051494,-1.281736,0.045211,-1.273075,
-0.052825,-1.130046,-0.060455,-1.118018,-0.147524,-0.969293,-0.154309,-0.956688,-0.230212,-0.802734,-0.236099,-0.789627,-0.300637,-0.630905,-0.305577,-0.617380,-0.358551,-0.454356,-0.362506,-0.440505,-0.403719,-0.273644,-0.406665,-0.259556,-0.435916,-0.089320,-0.437168,-0.080987,-0.439313,-0.064325,-0.439831,-0.059918,-0.446103,-0.000883,-0.446585,0.004291,-0.451745,0.068766,-0.452043,0.073086,
-0.455910,0.139443,-0.456112,0.143687,-0.458504,0.208372,-0.458626,0.213287,-0.459362,0.272744,-0.459330,0.279572,-0.458227,0.330245,-0.458054,0.335264,-0.457812,0.340423,-0.457742,0.341823,-0.455490,0.383578,-0.455365,0.385677,-0.452624,0.428185,-0.452491,0.430109,-0.449446,0.471161,-0.449282,0.473231,-0.446118,0.510622,-0.445872,0.513313,-0.442775,0.544836,-0.442276,0.549379,
-0.439430,0.572827,-0.437619,0.584737,-0.435209,0.597904,-0.423046,0.638929,-0.422402,0.640472,-0.370701,0.712925,-0.329536,0.741176,-0.325648,0.743182,-0.239449,0.765369,-0.177650,0.757359,-0.177650,0.757359,$1*%
%AMFreePoly10*
4,1,249,-2.079470,2.566167,-2.022460,2.565656,-2.020284,2.565625,-1.966533,2.564558,-1.963769,2.564484,-1.915586,2.562861,-1.911528,2.562683,-1.871220,2.560505,-1.863940,2.559978,-1.833816,2.557245,-1.825403,2.556302,-1.766921,2.548489,-1.759733,2.547395,-1.611105,2.522010,-1.599813,2.519745,-1.458601,2.487164,-1.446810,2.484062,-1.310637,2.443763,-1.302766,2.441256,-1.255095,2.424979,
-1.246404,2.421785,-1.087565,2.359200,-1.074467,2.353491,-0.921725,2.280312,-0.909129,2.273717,-0.762907,2.190404,-0.750864,2.182965,-0.611588,2.089976,-0.600144,2.081737,-0.468239,1.979532,-0.457435,1.970536,-0.333324,1.859574,-0.323193,1.849855,-0.207303,1.730595,-0.197882,1.720195,-0.090635,1.593097,-0.081957,1.582047,0.016221,1.447570,0.024121,1.435907,0.112805,1.294509,
0.119889,1.282275,0.198655,1.134418,0.204883,1.121653,0.273306,0.967793,0.278637,0.954552,0.336293,0.795150,0.340686,0.781492,0.387150,0.617008,0.389056,0.609743,0.391768,0.598552,0.392481,0.595504,0.411359,0.511909,0.412772,0.505108,0.427612,0.426835,0.428981,0.418701,0.440238,0.342212,0.441299,0.333753,0.449426,0.255507,0.450072,0.247864,0.455522,0.164321,
0.455824,0.158282,0.459050,0.065901,0.459141,0.062451,0.459995,0.014080,0.460026,0.010260,0.459902,-0.075181,0.459789,-0.081599,0.457164,-0.159814,0.456765,-0.167410,0.451435,-0.241745,0.450712,-0.249636,0.442471,-0.323436,0.441544,-0.330569,0.430187,-0.407179,0.429589,-0.410964,0.426614,-0.428685,0.425170,-0.436361,0.390081,-0.604796,0.386675,-0.618653,0.340043,-0.782827,
0.335618,-0.796514,0.277657,-0.955949,0.272217,-0.969375,0.203138,-1.123592,0.196702,-1.136663,0.116719,-1.285182,0.109311,-1.297807,0.018635,-1.440149,0.010299,-1.452232,-0.090856,-1.587919,-0.095157,-1.593481,-0.113160,-1.615937,-0.129792,-1.636825,-0.142042,-1.652357,-0.148508,-1.660752,-0.150722,-1.663574,-0.156553,-1.670870,-0.179116,-1.694775,-0.183984,-1.699149,-0.261769,-1.742414,
-0.357841,-1.746302,-0.359367,-1.745989,-0.385539,-1.738739,-0.397111,-1.734669,-0.403741,-1.732204,-0.425074,-1.723842,-0.427350,-1.722934,-0.457194,-1.710812,-0.458393,-1.710321,-0.495498,-1.694969,-0.496263,-1.694650,-0.539380,-1.676601,-0.539956,-1.676359,-0.587834,-1.656141,-0.588297,-1.655945,-0.639688,-1.634091,-0.640107,-1.633912,-0.693759,-1.610952,-0.694159,-1.610780,-0.748823,-1.587246,
-0.749241,-1.587066,-0.803668,-1.563487,-0.804129,-1.563286,-0.857069,-1.540193,-0.857606,-1.539958,-0.907808,-1.517884,-0.908487,-1.517584,-0.954702,-1.497058,-0.955899,-1.496522,-1.034770,-1.460871,-1.036309,-1.460167,-1.146031,-1.409449,-1.147473,-1.408776,-1.263285,-1.354120,-1.264538,-1.353523,-1.384232,-1.296016,-1.385380,-1.295460,-1.506752,-1.236191,-1.507868,-1.235642,-1.628711,-1.175698,
-1.629855,-1.175126,-1.747962,-1.115595,-1.749201,-1.114965,-1.862367,-1.056935,-1.863789,-1.056198,-1.969808,-1.000756,-1.971543,-0.999838,-2.068208,-0.948073,-2.070878,-0.946617,-2.381221,-0.774304,-2.384685,-0.772335,-2.705224,-0.585911,-2.708892,-0.583725,-3.022345,-0.392352,-3.026037,-0.390043,-3.334574,-0.192324,-3.338202,-0.189943,-3.643997,0.015513,-3.647486,0.017912,-3.952711,0.232501,
-3.955994,0.234859,-4.262819,0.459974,-4.264383,0.461133,-4.268873,0.464495,-4.269093,0.464660,-4.319507,0.502517,-4.320159,0.503008,-4.361387,0.534231,-4.362554,0.535121,-4.395432,0.560402,-4.397461,0.561984,-4.422828,0.582014,-4.426408,0.584908,-4.445100,0.600379,-4.451578,0.605979,-4.464433,0.617581,-4.476732,0.629684,-4.484587,0.638111,-4.508133,0.668874,-4.511827,0.674815,
-4.541195,0.762695,-4.541564,0.766842,-4.533603,0.843073,-4.532090,0.848019,-4.529581,0.855666,-4.520891,0.880460,-4.518740,0.886304,-4.506061,0.919164,-4.504753,0.922467,-4.489157,0.960843,-4.488142,0.963292,-4.470700,1.004631,-4.469742,1.006864,-4.451526,1.048614,-4.450437,1.051066,-4.432518,1.090677,-4.431025,1.093901,-4.414475,1.128820,-4.412847,1.132173,-4.398855,1.160327,
-4.394916,1.167848,-4.312266,1.317823,-4.304889,1.330141,-4.212412,1.472689,-4.204180,1.484434,-4.102330,1.619188,-4.093292,1.630296,-3.982522,1.756889,-3.972728,1.767305,-3.853492,1.885369,-3.842998,1.895043,-3.715752,2.004211,-3.704610,2.013101,-3.569807,2.113006,-3.558073,2.121072,-3.416167,2.211347,-3.403899,2.218551,-3.255344,2.298829,-3.242604,2.305139,-3.087855,2.375052,
-3.074708,2.380438,-2.914218,2.439619,-2.900735,2.444054,-2.734959,2.492137,-2.727557,2.494131,-2.727324,2.494189,-2.724204,2.494939,-2.668741,2.507804,-2.663347,2.508978,-2.599484,2.521945,-2.595279,2.522752,-2.527072,2.535087,-2.523109,2.535762,-2.454615,2.546732,-2.450140,2.547397,-2.385415,2.556267,-2.377196,2.557221,-2.353380,2.559486,-2.346168,2.560040,-2.307473,2.562312,
-2.303047,2.562523,-2.256074,2.564238,-2.253150,2.564323,-2.200206,2.565481,-2.197956,2.565518,-2.141349,2.566119,-2.139381,2.566130,-2.081418,2.566175,-2.079470,2.566167,-2.079470,2.566167,$1*%
%AMFreePoly11*
4,1,22,0.106406,0.569345,0.141421,0.541421,0.741421,-0.058579,0.788777,-0.133944,0.800000,-0.200000,0.800000,-0.400000,0.780194,-0.486777,0.724698,-0.556366,0.644504,-0.594986,0.600000,-0.600000,-0.600000,-0.600000,-0.686777,-0.580194,-0.756366,-0.524698,-0.794986,-0.444504,-0.800000,-0.400000,-0.800000,-0.200000,-0.780194,-0.113223,-0.741421,-0.058579,-0.141421,0.541421,-0.066056,0.588777,
0.022393,0.598742,0.106406,0.569345,0.106406,0.569345,$1*%
%AMFreePoly12*
4,1,26,0.686777,0.430194,0.756366,0.374698,0.794986,0.294504,0.800000,0.250000,0.800000,-1.000000,0.780194,-1.086777,0.724698,-1.156366,0.644504,-1.194986,0.555496,-1.194986,0.475302,-1.156366,0.458579,-1.141421,0.000000,-0.682842,-0.458579,-1.141421,-0.533944,-1.188777,-0.622393,-1.198742,-0.706406,-1.169345,-0.769345,-1.106406,-0.798742,-1.022393,-0.800000,-1.000000,-0.800000,0.250000,
-0.780194,0.336777,-0.724698,0.406366,-0.644504,0.444986,-0.600000,0.450000,0.600000,0.450000,0.686777,0.430194,0.686777,0.430194,$1*%
G04 Aperture macros list end*
%ADD10C,0.100000*%
%ADD11RoundRect,0.200000X0.150000X0.625000X-0.150000X0.625000X-0.150000X-0.625000X0.150000X-0.625000X0*%
%ADD12RoundRect,0.200000X1.000000X1.000000X-1.000000X1.000000X-1.000000X-1.000000X1.000000X-1.000000X0*%
%ADD13C,2.100000*%
%ADD14C,3.400000*%
%ADD15C,4.400000*%
%ADD16FreePoly0,345.000000*%
%ADD17FreePoly1,345.000000*%
%ADD18FreePoly2,270.000000*%
%ADD19FreePoly3,270.000000*%
%ADD20C,3.100000*%
%ADD21FreePoly0,0.000000*%
%ADD22FreePoly1,0.000000*%
%ADD23RoundRect,0.200000X0.700000X-0.600000X0.700000X0.600000X-0.700000X0.600000X-0.700000X-0.600000X0*%
%ADD24C,3.600000*%
%ADD25C,1.797000*%
%ADD26RoundRect,0.450000X-0.625000X0.375000X-0.625000X-0.375000X0.625000X-0.375000X0.625000X0.375000X0*%
%ADD27C,2.400000*%
%ADD28RoundRect,0.200000X0.551815X-1.804300X1.380036X1.286662X-0.551815X1.804300X-1.380036X-1.286662X0*%
%ADD29RoundRect,0.200000X-0.750000X-0.500000X0.750000X-0.500000X0.750000X0.500000X-0.750000X0.500000X0*%
%ADD30O,6.900000X2.940000*%
%ADD31RoundRect,0.200000X-0.500000X0.750000X-0.500000X-0.750000X0.500000X-0.750000X0.500000X0.750000X0*%
%ADD32FreePoly4,0.000000*%
%ADD33FreePoly5,0.000000*%
%ADD34FreePoly6,0.000000*%
%ADD35FreePoly7,180.000000*%
%ADD36FreePoly8,180.000000*%
%ADD37C,4.800000*%
%ADD38C,1.600000*%
%ADD39O,2.900000X2.100000*%
%ADD40FreePoly2,90.000000*%
%ADD41FreePoly3,90.000000*%
%ADD42FreePoly9,0.000000*%
%ADD43FreePoly10,0.000000*%
%ADD44RoundRect,0.200000X-0.700000X0.600000X-0.700000X-0.600000X0.700000X-0.600000X0.700000X0.600000X0*%
%ADD45RoundRect,0.200000X-0.850000X-0.500000X0.850000X-0.500000X0.850000X0.500000X-0.850000X0.500000X0*%
%ADD46C,2.000000*%
%ADD47FreePoly11,90.000000*%
%ADD48FreePoly11,270.000000*%
%ADD49RoundRect,0.200000X-0.800000X0.800000X-0.800000X-0.800000X0.800000X-0.800000X0.800000X0.800000X0*%
%ADD50FreePoly12,270.000000*%
%ADD51FreePoly12,90.000000*%
%ADD52C,1.000000*%
%ADD53C,1.100000*%
G04 APERTURE END LIST*
G36*
X210600277Y-103034815D02*
G01*
X209584277Y-103034815D01*
X209584277Y-102018815D01*
X210600277Y-102018815D01*
X210600277Y-103034815D01*
G37*
D10*
X210600277Y-103034815D02*
X209584277Y-103034815D01*
X209584277Y-102018815D01*
X210600277Y-102018815D01*
X210600277Y-103034815D01*
G36*
X199424277Y-103034815D02*
G01*
X198408277Y-103034815D01*
X198408277Y-102018815D01*
X199424277Y-102018815D01*
X199424277Y-103034815D01*
G37*
X199424277Y-103034815D02*
X198408277Y-103034815D01*
X198408277Y-102018815D01*
X199424277Y-102018815D01*
X199424277Y-103034815D01*
G36*
X210600277Y-95414815D02*
G01*
X209584277Y-95414815D01*
X209584277Y-94398815D01*
X210600277Y-94398815D01*
X210600277Y-95414815D01*
G37*
X210600277Y-95414815D02*
X209584277Y-95414815D01*
X209584277Y-94398815D01*
X210600277Y-94398815D01*
X210600277Y-95414815D01*
G36*
X199424277Y-85254815D02*
G01*
X198408277Y-85254815D01*
X198408277Y-84238815D01*
X199424277Y-84238815D01*
X199424277Y-85254815D01*
G37*
X199424277Y-85254815D02*
X198408277Y-85254815D01*
X198408277Y-84238815D01*
X199424277Y-84238815D01*
X199424277Y-85254815D01*
G36*
X199424277Y-77634815D02*
G01*
X198408277Y-77634815D01*
X198408277Y-76618815D01*
X199424277Y-76618815D01*
X199424277Y-77634815D01*
G37*
X199424277Y-77634815D02*
X198408277Y-77634815D01*
X198408277Y-76618815D01*
X199424277Y-76618815D01*
X199424277Y-77634815D01*
G36*
X199424277Y-97954815D02*
G01*
X198408277Y-97954815D01*
X198408277Y-96938815D01*
X199424277Y-96938815D01*
X199424277Y-97954815D01*
G37*
X199424277Y-97954815D02*
X198408277Y-97954815D01*
X198408277Y-96938815D01*
X199424277Y-96938815D01*
X199424277Y-97954815D01*
G36*
X199424277Y-75094815D02*
G01*
X198408277Y-75094815D01*
X198408277Y-74078815D01*
X199424277Y-74078815D01*
X199424277Y-75094815D01*
G37*
X199424277Y-75094815D02*
X198408277Y-75094815D01*
X198408277Y-74078815D01*
X199424277Y-74078815D01*
X199424277Y-75094815D01*
G36*
X210600277Y-75094815D02*
G01*
X209584277Y-75094815D01*
X209584277Y-74078815D01*
X210600277Y-74078815D01*
X210600277Y-75094815D01*
G37*
X210600277Y-75094815D02*
X209584277Y-75094815D01*
X209584277Y-74078815D01*
X210600277Y-74078815D01*
X210600277Y-75094815D01*
G36*
X210600277Y-87794815D02*
G01*
X209584277Y-87794815D01*
X209584277Y-86778815D01*
X210600277Y-86778815D01*
X210600277Y-87794815D01*
G37*
X210600277Y-87794815D02*
X209584277Y-87794815D01*
X209584277Y-86778815D01*
X210600277Y-86778815D01*
X210600277Y-87794815D01*
G36*
X210600277Y-80174815D02*
G01*
X209584277Y-80174815D01*
X209584277Y-79158815D01*
X210600277Y-79158815D01*
X210600277Y-80174815D01*
G37*
X210600277Y-80174815D02*
X209584277Y-80174815D01*
X209584277Y-79158815D01*
X210600277Y-79158815D01*
X210600277Y-80174815D01*
G36*
X210600277Y-90334815D02*
G01*
X209584277Y-90334815D01*
X209584277Y-89318815D01*
X210600277Y-89318815D01*
X210600277Y-90334815D01*
G37*
X210600277Y-90334815D02*
X209584277Y-90334815D01*
X209584277Y-89318815D01*
X210600277Y-89318815D01*
X210600277Y-90334815D01*
G36*
X210600277Y-97954815D02*
G01*
X209584277Y-97954815D01*
X209584277Y-96938815D01*
X210600277Y-96938815D01*
X210600277Y-97954815D01*
G37*
X210600277Y-97954815D02*
X209584277Y-97954815D01*
X209584277Y-96938815D01*
X210600277Y-96938815D01*
X210600277Y-97954815D01*
G36*
X210600277Y-85254815D02*
G01*
X209584277Y-85254815D01*
X209584277Y-84238815D01*
X210600277Y-84238815D01*
X210600277Y-85254815D01*
G37*
X210600277Y-85254815D02*
X209584277Y-85254815D01*
X209584277Y-84238815D01*
X210600277Y-84238815D01*
X210600277Y-85254815D01*
G36*
X199424277Y-80174815D02*
G01*
X198408277Y-80174815D01*
X198408277Y-79158815D01*
X199424277Y-79158815D01*
X199424277Y-80174815D01*
G37*
X199424277Y-80174815D02*
X198408277Y-80174815D01*
X198408277Y-79158815D01*
X199424277Y-79158815D01*
X199424277Y-80174815D01*
G36*
X210600277Y-100494815D02*
G01*
X209584277Y-100494815D01*
X209584277Y-99478815D01*
X210600277Y-99478815D01*
X210600277Y-100494815D01*
G37*
X210600277Y-100494815D02*
X209584277Y-100494815D01*
X209584277Y-99478815D01*
X210600277Y-99478815D01*
X210600277Y-100494815D01*
G36*
X199424277Y-82714815D02*
G01*
X198408277Y-82714815D01*
X198408277Y-81698815D01*
X199424277Y-81698815D01*
X199424277Y-82714815D01*
G37*
X199424277Y-82714815D02*
X198408277Y-82714815D01*
X198408277Y-81698815D01*
X199424277Y-81698815D01*
X199424277Y-82714815D01*
G36*
X199424277Y-90334815D02*
G01*
X198408277Y-90334815D01*
X198408277Y-89318815D01*
X199424277Y-89318815D01*
X199424277Y-90334815D01*
G37*
X199424277Y-90334815D02*
X198408277Y-90334815D01*
X198408277Y-89318815D01*
X199424277Y-89318815D01*
X199424277Y-90334815D01*
G36*
X210600277Y-77634815D02*
G01*
X209584277Y-77634815D01*
X209584277Y-76618815D01*
X210600277Y-76618815D01*
X210600277Y-77634815D01*
G37*
X210600277Y-77634815D02*
X209584277Y-77634815D01*
X209584277Y-76618815D01*
X210600277Y-76618815D01*
X210600277Y-77634815D01*
G36*
X210600277Y-92874815D02*
G01*
X209584277Y-92874815D01*
X209584277Y-91858815D01*
X210600277Y-91858815D01*
X210600277Y-92874815D01*
G37*
X210600277Y-92874815D02*
X209584277Y-92874815D01*
X209584277Y-91858815D01*
X210600277Y-91858815D01*
X210600277Y-92874815D01*
G36*
X199424277Y-87794815D02*
G01*
X198408277Y-87794815D01*
X198408277Y-86778815D01*
X199424277Y-86778815D01*
X199424277Y-87794815D01*
G37*
X199424277Y-87794815D02*
X198408277Y-87794815D01*
X198408277Y-86778815D01*
X199424277Y-86778815D01*
X199424277Y-87794815D01*
G36*
X199424277Y-95414815D02*
G01*
X198408277Y-95414815D01*
X198408277Y-94398815D01*
X199424277Y-94398815D01*
X199424277Y-95414815D01*
G37*
X199424277Y-95414815D02*
X198408277Y-95414815D01*
X198408277Y-94398815D01*
X199424277Y-94398815D01*
X199424277Y-95414815D01*
G36*
X199424277Y-100494815D02*
G01*
X198408277Y-100494815D01*
X198408277Y-99478815D01*
X199424277Y-99478815D01*
X199424277Y-100494815D01*
G37*
X199424277Y-100494815D02*
X198408277Y-100494815D01*
X198408277Y-99478815D01*
X199424277Y-99478815D01*
X199424277Y-100494815D01*
G36*
X199424277Y-92874815D02*
G01*
X198408277Y-92874815D01*
X198408277Y-91858815D01*
X199424277Y-91858815D01*
X199424277Y-92874815D01*
G37*
X199424277Y-92874815D02*
X198408277Y-92874815D01*
X198408277Y-91858815D01*
X199424277Y-91858815D01*
X199424277Y-92874815D01*
G36*
X210600277Y-82714815D02*
G01*
X209584277Y-82714815D01*
X209584277Y-81698815D01*
X210600277Y-81698815D01*
X210600277Y-82714815D01*
G37*
X210600277Y-82714815D02*
X209584277Y-82714815D01*
X209584277Y-81698815D01*
X210600277Y-81698815D01*
X210600277Y-82714815D01*
D11*
X133236196Y-126169803D03*
X132736196Y-126169803D03*
X132236196Y-126169803D03*
X131736196Y-126169803D03*
X131236196Y-126169803D03*
D12*
X135286196Y-123444803D03*
X129186196Y-123444803D03*
D13*
X216235525Y-144546544D03*
D14*
X215666200Y-141764392D03*
X208305845Y-139792190D03*
D15*
X211328622Y-143231743D03*
D13*
X206421719Y-141916942D03*
D14*
X210189971Y-137667439D03*
X215096874Y-138982240D03*
D16*
X207166532Y-136831015D03*
D17*
X218653412Y-142591112D03*
D18*
X208324277Y-109505229D03*
D19*
X208324277Y-110805229D03*
D20*
X152982592Y-118319969D03*
D13*
X121856966Y-71003075D03*
D14*
X124396966Y-65923075D03*
X129476966Y-65923075D03*
D13*
X132016966Y-71003075D03*
D14*
X130746966Y-68463075D03*
D15*
X126936966Y-71003075D03*
D14*
X123126966Y-68463074D03*
D21*
X121260066Y-65897675D03*
D22*
X133846362Y-68488478D03*
D23*
X172962028Y-112459228D03*
X172962028Y-109059228D03*
D24*
X176060016Y-62610800D03*
X115911016Y-63043800D03*
D23*
X154012628Y-71871628D03*
X154012628Y-68471628D03*
D14*
X186476264Y-87467875D03*
X181396264Y-87467875D03*
X180126264Y-90007874D03*
D15*
X183936264Y-92547875D03*
D14*
X187746264Y-90007875D03*
D13*
X189016264Y-92547875D03*
X178856264Y-92547875D03*
D21*
X178259364Y-87442475D03*
D22*
X190845660Y-90033278D03*
D23*
X134909078Y-93484428D03*
X134909078Y-90084428D03*
X115962228Y-77509828D03*
X115962228Y-74109828D03*
X191984878Y-77050428D03*
X191984878Y-73650428D03*
D18*
X205784277Y-109505229D03*
D19*
X205784277Y-110805229D03*
D23*
X154012628Y-109868028D03*
X154012628Y-106468028D03*
D14*
X149746366Y-65922315D03*
D15*
X145936366Y-68462315D03*
D13*
X140856366Y-68462315D03*
X151016366Y-68462315D03*
D14*
X142126366Y-65922314D03*
X148476366Y-63382315D03*
X143396366Y-63382315D03*
D21*
X140259466Y-63356915D03*
D22*
X152845762Y-65947718D03*
D25*
X200704277Y-107019302D03*
X203244277Y-107019302D03*
X205784277Y-107019302D03*
X208324277Y-107019302D03*
D26*
X202900798Y-82218547D03*
X202900798Y-85018547D03*
D14*
X186476264Y-106462875D03*
X181396264Y-106462875D03*
D15*
X183936264Y-111542875D03*
D13*
X189016264Y-111542875D03*
D14*
X180126264Y-109002874D03*
X187746264Y-109002875D03*
D13*
X178856264Y-111542875D03*
D21*
X178259364Y-106437475D03*
D22*
X190845660Y-109028278D03*
D13*
X113016766Y-112003475D03*
D14*
X105396766Y-106923475D03*
X110476766Y-106923475D03*
X111746766Y-109463475D03*
D13*
X102856766Y-112003475D03*
D15*
X107936766Y-112003475D03*
D14*
X104126766Y-109463474D03*
D21*
X102259866Y-106898075D03*
D22*
X114846162Y-109488878D03*
D27*
X206972665Y-149829141D03*
X211802294Y-151123236D03*
X209387479Y-150476189D03*
D28*
X205919437Y-141782358D03*
X216737807Y-144681132D03*
D27*
X215555170Y-137117312D03*
X210725541Y-135823217D03*
D14*
X143396366Y-101382475D03*
D13*
X151016366Y-106462475D03*
D15*
X145936366Y-106462475D03*
D14*
X142126366Y-103922474D03*
X149746366Y-103922475D03*
D13*
X140856366Y-106462475D03*
D14*
X148476366Y-101382475D03*
D21*
X140259466Y-101357075D03*
D22*
X152845762Y-103947878D03*
D14*
X168746566Y-68462515D03*
D13*
X170016566Y-71002515D03*
D14*
X161126566Y-68462514D03*
X167476566Y-65922515D03*
X162396566Y-65922515D03*
D13*
X159856566Y-71002515D03*
D15*
X164936566Y-71002515D03*
D21*
X159259666Y-65897115D03*
D22*
X171845962Y-68487918D03*
D18*
X203244277Y-109505229D03*
D19*
X203244277Y-110805229D03*
D24*
X161125626Y-136220177D03*
D29*
X169981000Y-97307600D03*
X169981000Y-100507600D03*
X174881000Y-100507600D03*
X174881000Y-97307600D03*
D13*
X159856566Y-109002875D03*
D15*
X164936566Y-109002875D03*
D14*
X167476566Y-103922875D03*
X162396566Y-103922875D03*
X161126566Y-106462874D03*
X168746566Y-106462875D03*
D13*
X170016566Y-109002875D03*
D21*
X159259666Y-103897475D03*
D22*
X171845962Y-106488278D03*
D14*
X197048000Y-136773475D03*
X196478674Y-133991323D03*
X191571771Y-132676522D03*
D15*
X192710422Y-138240826D03*
D13*
X187803519Y-136926025D03*
D14*
X189687645Y-134801273D03*
D13*
X197617325Y-139555627D03*
D16*
X188548332Y-131840098D03*
D17*
X200035212Y-137600195D03*
D24*
X124714000Y-123190000D03*
D23*
X151485600Y-131801800D03*
X151485600Y-128401800D03*
D30*
X159636337Y-117944000D03*
D31*
X197967400Y-107729114D03*
X194767400Y-107729114D03*
X194767400Y-112629114D03*
X197967400Y-112629114D03*
D14*
X173257749Y-126566496D03*
X171373623Y-128691247D03*
X178733978Y-130663449D03*
D13*
X169489497Y-130815999D03*
X179303303Y-133445601D03*
D14*
X178164652Y-127881297D03*
D15*
X174396400Y-132130800D03*
D16*
X170234310Y-125730072D03*
D17*
X181721190Y-131490169D03*
D14*
X130746966Y-87462675D03*
X124396966Y-84922675D03*
D13*
X121856966Y-90002675D03*
X132016966Y-90002675D03*
D14*
X123126966Y-87462674D03*
D15*
X126936966Y-90002675D03*
D14*
X129476966Y-84922675D03*
D21*
X121260066Y-84897275D03*
D22*
X133846362Y-87488078D03*
D32*
X200634600Y-127254000D03*
D33*
X204774800Y-127254000D03*
D34*
X206857600Y-128778000D03*
D35*
X128066800Y-129859391D03*
D36*
X131826000Y-131097700D03*
D14*
X111746766Y-71462675D03*
X110476766Y-68922675D03*
D13*
X102856766Y-74002675D03*
D14*
X104126766Y-71462674D03*
X105396766Y-68922675D03*
D13*
X113016766Y-74002675D03*
D15*
X107936766Y-74002675D03*
D21*
X102259866Y-68897275D03*
D22*
X114846162Y-71488078D03*
D15*
X145936366Y-87462275D03*
D14*
X143396366Y-82382275D03*
X149746366Y-84922275D03*
X142126366Y-84922274D03*
D13*
X140856366Y-87462275D03*
X151016366Y-87462275D03*
D14*
X148476366Y-82382275D03*
D21*
X140259466Y-82356875D03*
D22*
X152845762Y-84947678D03*
D20*
X138887081Y-118319459D03*
D23*
X191984878Y-115050028D03*
X191984878Y-111650028D03*
X115962228Y-115561428D03*
X115962228Y-112161428D03*
D24*
X172974000Y-120142000D03*
D37*
X196494400Y-121259600D03*
D29*
X145144600Y-93777000D03*
X145144600Y-96977000D03*
X150044600Y-96977000D03*
X150044600Y-93777000D03*
D23*
X172962028Y-93408028D03*
X172962028Y-90008028D03*
D38*
X210837338Y-115935915D03*
X210837338Y-117685915D03*
X203837338Y-117685915D03*
X203837338Y-115935915D03*
D39*
X202037338Y-119785915D03*
X202037338Y-113835915D03*
X206037338Y-119785915D03*
X206037338Y-113835915D03*
X209037338Y-113835915D03*
X209037338Y-119785915D03*
X200537338Y-118035915D03*
X200537338Y-115585915D03*
D37*
X210972400Y-123799600D03*
D20*
X136486592Y-136219577D03*
D40*
X202840881Y-88937313D03*
D41*
X202840881Y-87637313D03*
D24*
X220116400Y-131216400D03*
D29*
X120308200Y-96190000D03*
X120308200Y-99390000D03*
X125208200Y-99390000D03*
X125208200Y-96190000D03*
D23*
X154012628Y-90802800D03*
X154012628Y-87402800D03*
D42*
X143814800Y-130335700D03*
D43*
X148031200Y-130081700D03*
D15*
X164936566Y-90002475D03*
D14*
X162396566Y-84922475D03*
X161126566Y-87462474D03*
X167476566Y-84922475D03*
D13*
X170016566Y-90002475D03*
D14*
X168746566Y-87462475D03*
D13*
X159856566Y-90002475D03*
D21*
X159259666Y-84897075D03*
D22*
X171845962Y-87487878D03*
D14*
X181396264Y-68514075D03*
D13*
X189016264Y-73594075D03*
D14*
X187746264Y-71054075D03*
X180126264Y-71054074D03*
D13*
X178856264Y-73594075D03*
D15*
X183936264Y-73594075D03*
D14*
X186476264Y-68514075D03*
D21*
X178259364Y-68488675D03*
D22*
X190845660Y-71079478D03*
D40*
X205297168Y-88937313D03*
D41*
X205297168Y-87637313D03*
D23*
X191984878Y-96100428D03*
X191984878Y-92700428D03*
D24*
X114554000Y-123190000D03*
D23*
X115962228Y-96510228D03*
X115962228Y-93110228D03*
X134909078Y-74408628D03*
X134909078Y-71008628D03*
X134909078Y-112611028D03*
X134909078Y-109211028D03*
X172962028Y-74296000D03*
X172962028Y-70896000D03*
D20*
X155386392Y-136220177D03*
D44*
X184667111Y-122335915D03*
X184667111Y-125735915D03*
D15*
X107936766Y-93003075D03*
D14*
X104126766Y-90463074D03*
D13*
X102856766Y-93003075D03*
D14*
X111746766Y-90463075D03*
X105396766Y-87923075D03*
X110476766Y-87923075D03*
D13*
X113016766Y-93003075D03*
D21*
X102259866Y-87897675D03*
D22*
X114846162Y-90488478D03*
D26*
X205225898Y-82218547D03*
X205225898Y-85018547D03*
D45*
X182549400Y-59724390D03*
X188849400Y-59724390D03*
X188849400Y-63524390D03*
X182549400Y-63524390D03*
D18*
X200704277Y-109505229D03*
D19*
X200704277Y-110805229D03*
D30*
X132236141Y-117944000D03*
D44*
X189984450Y-122335915D03*
X189984450Y-125735915D03*
X187325780Y-122335915D03*
X187325780Y-125735915D03*
D23*
X137464800Y-131801800D03*
X137464800Y-128401800D03*
D14*
X124396966Y-103922275D03*
D13*
X132016966Y-109002275D03*
D14*
X123126966Y-106462274D03*
X129476966Y-103922275D03*
D13*
X121856966Y-109002275D03*
D14*
X130746966Y-106462275D03*
D15*
X126936966Y-109002275D03*
D21*
X121260066Y-103896875D03*
D22*
X133846362Y-106487678D03*
D46*
X212124277Y-74586815D03*
X196884277Y-87286815D03*
D47*
X210346277Y-87286815D03*
D48*
X198662277Y-102526815D03*
X198662277Y-82206815D03*
X198662277Y-84746815D03*
D47*
X210346277Y-89826815D03*
X210346277Y-84746815D03*
D48*
X198662277Y-74586815D03*
D46*
X196884277Y-102526815D03*
X196884277Y-84746815D03*
X212124277Y-92366815D03*
D48*
X198662277Y-97446815D03*
D49*
X196884277Y-74586815D03*
D46*
X196884277Y-74586815D03*
D48*
X198662277Y-79666815D03*
D47*
X210346277Y-99986815D03*
D46*
X212124277Y-77126815D03*
D47*
X210346277Y-77126815D03*
D48*
X198662277Y-77126815D03*
D47*
X210346277Y-79666815D03*
D46*
X196884277Y-97446815D03*
X196884277Y-89826815D03*
D47*
X210346277Y-92366815D03*
D46*
X212124277Y-79666815D03*
X196884277Y-92366815D03*
D47*
X210346277Y-97446815D03*
X210346277Y-74586815D03*
X210346277Y-102526815D03*
D46*
X196884277Y-79666815D03*
D48*
X198662277Y-89826815D03*
D46*
X196884277Y-82206815D03*
X212124277Y-82206815D03*
D48*
X198662277Y-87286815D03*
D46*
X212124277Y-89826815D03*
D48*
X198662277Y-99986815D03*
D46*
X212124277Y-102526815D03*
X196884277Y-77126815D03*
D48*
X198662277Y-92366815D03*
D46*
X212124277Y-94906815D03*
X212124277Y-99986815D03*
X196884277Y-94906815D03*
D48*
X198662277Y-94906815D03*
D46*
X212124277Y-97446815D03*
X212124277Y-84746815D03*
X196884277Y-99986815D03*
D47*
X210346277Y-94906815D03*
D46*
X212124277Y-87286815D03*
D47*
X210346277Y-82206815D03*
D50*
X199678277Y-74586815D03*
X199678277Y-77126815D03*
X199678277Y-79666815D03*
X199678277Y-82206815D03*
X199678277Y-84746815D03*
X199678277Y-87286815D03*
X199678277Y-89826815D03*
X199678277Y-92366815D03*
X199678277Y-94906815D03*
X199678277Y-97446815D03*
X199678277Y-99986815D03*
X199678277Y-102526815D03*
D51*
X209330277Y-102526815D03*
X209330277Y-99986815D03*
X209330277Y-97446815D03*
X209330277Y-94906815D03*
X209330277Y-92366815D03*
X209330277Y-89826815D03*
X209330277Y-87286815D03*
X209330277Y-84746815D03*
X209330277Y-82206815D03*
X209330277Y-79666815D03*
X209330277Y-77126815D03*
X209330277Y-74586815D03*
D52*
X200486520Y-89839693D03*
X195021700Y-97383600D03*
D53*
X200660000Y-98298000D03*
X200660000Y-99949000D03*
D52*
X194157600Y-104429900D03*
D53*
X200863200Y-102514400D03*
D52*
X192735200Y-105003600D03*
X190449200Y-114198400D03*
X113547366Y-106904075D03*
X132547566Y-103902875D03*
X151546966Y-101363075D03*
X170547166Y-103903475D03*
X189546864Y-106443475D03*
X181135645Y-128657288D03*
D53*
X187579000Y-94234000D03*
X193090800Y-83058000D03*
X99466400Y-100279200D03*
X208091966Y-78366715D03*
X145320711Y-75116910D03*
X99669600Y-82092800D03*
X174599600Y-77825600D03*
X174955200Y-87426800D03*
X200406000Y-78468315D03*
X184099200Y-100380800D03*
X188826150Y-59726105D03*
X182526950Y-59726105D03*
X100584000Y-118821200D03*
X157734000Y-127508000D03*
X161925000Y-91948000D03*
X134112000Y-127508000D03*
X164490400Y-99314000D03*
X196153966Y-70797515D03*
X194767200Y-110642400D03*
D52*
X102259866Y-87897675D03*
X125984000Y-116840000D03*
X208381600Y-92964000D03*
X100939066Y-90513875D03*
X100939066Y-71513475D03*
X100939066Y-109514275D03*
D53*
X208026000Y-94869000D03*
D52*
X140335000Y-113715800D03*
X119939266Y-106513075D03*
X120523000Y-113715800D03*
X119939266Y-68513875D03*
X121260066Y-84897275D03*
X119939266Y-87513475D03*
X138938666Y-103973275D03*
X138938666Y-84973075D03*
D53*
X207939566Y-97416715D03*
D52*
X155549600Y-108508800D03*
X169265600Y-113033728D03*
X155549600Y-112318800D03*
X138938666Y-65973115D03*
X140259466Y-82356875D03*
X168281393Y-127915279D03*
X157938866Y-87513275D03*
X158496000Y-111556800D03*
X157938866Y-106513675D03*
X186595415Y-134025305D03*
X159258000Y-94691200D03*
X185470800Y-114375528D03*
D53*
X208153000Y-100711000D03*
D52*
X157938866Y-68513315D03*
X205943200Y-112217200D03*
X201980800Y-105054400D03*
X200177400Y-83489800D03*
X198501000Y-109601000D03*
X202260200Y-80340200D03*
D53*
X200787000Y-74295000D03*
D52*
X200812400Y-80746600D03*
D53*
X205297168Y-87325200D03*
D52*
X200126600Y-86055200D03*
X206248000Y-90881200D03*
X204571600Y-111302800D03*
X201498200Y-87162815D03*
D53*
X200725966Y-77147515D03*
X208192500Y-88442800D03*
X208142766Y-84767515D03*
X207899000Y-75438000D03*
X200704277Y-109505229D03*
X203244277Y-109506910D03*
X205784277Y-109506910D03*
X208324277Y-109506910D03*
D52*
X170547166Y-84903075D03*
X151546966Y-82362875D03*
X132547566Y-84903275D03*
X113547366Y-87903675D03*
X189546864Y-68494675D03*
X170547166Y-65903115D03*
X151546966Y-63362915D03*
X132547566Y-65903675D03*
X189546864Y-87448475D03*
X113547366Y-68903275D03*
X172288200Y-97967800D03*
X195630800Y-109677200D03*
X218643200Y-140208000D03*
D53*
X208153000Y-101828600D03*
D52*
X176938564Y-90058675D03*
D53*
X176733200Y-71170800D03*
D52*
X177800000Y-97485200D03*
X205213615Y-139016222D03*
X176938564Y-109053675D03*
X199449667Y-134767314D03*
X172288200Y-100050600D03*
X147726400Y-94437200D03*
X192379600Y-103936800D03*
X160883600Y-121513600D03*
X175615600Y-105257600D03*
D53*
X200660000Y-95910400D03*
D52*
X137109200Y-120784663D03*
X175615600Y-114198400D03*
X158140400Y-120772100D03*
X191127584Y-102542173D03*
X175615600Y-103124000D03*
X208991200Y-91084400D03*
X137210800Y-122036500D03*
X200456800Y-91084400D03*
X173634400Y-114198400D03*
X147624800Y-96164400D03*
X122834400Y-96926400D03*
X122783600Y-99364800D03*
X202844400Y-104190800D03*
D53*
X202866281Y-88973113D03*
X197129400Y-110153714D03*
X160629600Y-122783600D03*
X204520800Y-108585000D03*
X147675600Y-93167200D03*
X122783600Y-95758000D03*
X153974800Y-122797700D03*
X131521200Y-123748800D03*
X172288200Y-96647000D03*
X200660000Y-93776800D03*
D52*
X159359600Y-122021600D03*
X136347200Y-121412000D03*
X175615600Y-104190800D03*
X174701200Y-114198400D03*
X157276800Y-121409163D03*
X191753592Y-103239486D03*
D53*
X207634766Y-79687515D03*
X182524400Y-63554790D03*
X195436747Y-78385392D03*
X188874400Y-63554790D03*
M02*
