M48
; DRILL file {KiCad (6.0.6-0)} date Friday, 08 July 2022 at 23:19:32
; FORMAT={-:-/ absolute / inch / decimal}
; #@! TF.CreationDate,2022-07-08T23:19:32+08:00
; #@! TF.GenerationSoftware,Kicad,Pcbnew,(6.0.6-0)
; #@! TF.FileFunction,Plated,1,2,PTH
FMAT,2
INCH
; #@! TA.AperFunction,Plated,PTH,ViaDrill
T1C0.0118
; #@! TA.AperFunction,Plated,PTH,ComponentDrill
T2C0.0118
; #@! TA.AperFunction,Plated,PTH,ViaDrill
T3C0.0157
; #@! TA.AperFunction,Plated,PTH,ComponentDrill
T4C0.0157
; #@! TA.AperFunction,Plated,PTH,ComponentDrill
T5C0.0320
; #@! TA.AperFunction,Plated,PTH,ComponentDrill
T6C0.0394
; #@! TA.AperFunction,Plated,PTH,ComponentDrill
T7C0.0433
; #@! TA.AperFunction,Plated,PTH,ComponentDrill
T8C0.0591
; #@! TA.AperFunction,Plated,PTH,ComponentDrill
T9C0.0866
%
G90
G05
T1
X3.974Y-2.8155
X3.974Y-3.5635
X3.974Y-4.3116
X4.026Y-3.4605
X4.4704Y-2.7127
X4.4704Y-3.4608
X4.4704Y-4.2088
X4.722Y-2.6974
X4.722Y-3.4454
X4.722Y-4.1934
X4.745Y-4.477
X4.774Y-3.3424
X4.834Y-3.912
X4.836Y-3.816
X4.96Y-4.6
X5.2184Y-2.5946
X5.2184Y-3.3426
X5.2184Y-4.0907
X5.368Y-4.78
X5.398Y-4.7553
X5.402Y-4.8046
X5.47Y-2.5974
X5.47Y-3.3454
X5.47Y-4.0934
X5.522Y-3.2424
X5.525Y-4.477
X5.812Y-3.786
X5.816Y-3.718
X5.9664Y-2.4946
X5.9664Y-3.2426
X5.9664Y-3.9907
X6.124Y-4.272
X6.124Y-4.422
X6.192Y-4.7799
X6.2181Y-2.6974
X6.2181Y-3.4454
X6.2181Y-4.1935
X6.226Y-4.7548
X6.24Y-4.392
X6.27Y-3.728
X6.274Y-4.804
X6.334Y-4.784
X6.6253Y-5.036
X6.664Y-4.4501
X6.7145Y-2.5946
X6.7145Y-3.3426
X6.7145Y-4.0907
X6.783Y-3.857
X6.783Y-3.939
X6.836Y-4.496
X6.878Y-4.496
X6.914Y-4.06
X6.914Y-4.102
X6.914Y-4.144
X6.914Y-4.496
X6.9661Y-3.5456
X6.9661Y-4.2935
X7.0Y-3.838
X7.1313Y-5.0652
X7.302Y-4.503
X7.3463Y-5.2766
X7.4625Y-2.6966
X7.4625Y-3.4429
X7.4625Y-4.1907
X7.498Y-4.496
X7.5247Y-4.0371
X7.5494Y-4.0645
X7.574Y-4.092
X7.588Y-4.134
X7.644Y-4.1114
X7.678Y-3.834
X7.702Y-4.318
X7.815Y-4.315
X7.8523Y-5.3058
X7.879Y-3.388
X7.881Y-3.287
X7.892Y-3.586
X7.8932Y-3.537
X7.906Y-3.179
X7.933Y-3.4316
X7.952Y-4.136
X7.963Y-3.163
X7.986Y-4.102
X8.054Y-4.382
X8.0793Y-5.4731
X8.108Y-4.418
X8.12Y-3.578
X8.204Y-3.66
X8.228Y-3.586
X8.608Y-5.52
T2
X5.042Y-5.1126
X5.19Y-5.1613
X5.662Y-5.1313
X5.828Y-5.1213
T3
X3.916Y-3.948
X3.924Y-3.232
X3.96Y-4.678
X4.834Y-3.77
X5.178Y-4.872
X5.28Y-5.02
X5.7213Y-2.9574
X5.814Y-3.668
X6.062Y-4.8346
X6.21Y-5.02
X6.324Y-4.834
X6.375Y-3.62
X6.476Y-3.91
X6.783Y-3.805
X6.874Y-3.064
X6.888Y-3.442
X6.958Y-2.802
X7.186Y-2.5022
X7.1861Y-2.3514
X7.248Y-3.952
X7.385Y-3.71
X7.4341Y-2.3514
X7.436Y-2.5022
X7.602Y-3.27
X7.668Y-4.356
X7.6944Y-3.086
X7.7226Y-2.7873
X7.761Y-4.3368
X7.89Y-3.0893
X7.9Y-3.692
X7.9Y-3.776
X7.9Y-3.87
X7.9Y-3.935
X7.9017Y-4.3112
X7.9026Y-3.0373
X7.905Y-2.925
X7.908Y-4.036
X7.9869Y-3.5029
X8.0017Y-4.3113
X8.052Y-4.275
X8.0826Y-3.438
X8.1017Y-4.3113
X8.1746Y-3.1373
X8.185Y-2.97
X8.1866Y-3.8353
X8.19Y-3.735
X8.1926Y-3.0853
X8.1946Y-3.3373
X8.195Y-3.965
X8.195Y-4.009
X8.1966Y-3.482
X8.2017Y-4.3113
T4
X4.5654Y-2.9177
X4.5654Y-3.0516
X4.5654Y-3.6658
X4.5654Y-3.7996
X4.5654Y-4.4158
X4.5654Y-4.5497
X5.3114Y-2.7956
X5.3114Y-2.9295
X5.3114Y-3.5466
X5.3114Y-3.6805
X5.3114Y-4.2996
X5.3114Y-4.4335
X5.412Y-5.0552
X5.412Y-5.189
X5.964Y-5.0552
X5.964Y-5.189
X6.0635Y-2.6957
X6.0635Y-2.8296
X6.0635Y-3.4411
X6.0635Y-3.5749
X6.0635Y-4.1917
X6.0635Y-4.3255
X6.8095Y-2.7912
X6.8095Y-2.925
X6.8095Y-3.5436
X6.8095Y-3.6775
X6.8095Y-4.2937
X6.8095Y-4.4275
X7.2704Y-4.8164
X7.2704Y-4.9502
X7.375Y-4.8164
X7.375Y-4.9502
X7.4797Y-4.8164
X7.4797Y-4.9502
X7.5585Y-2.8996
X7.5585Y-3.0335
X7.5585Y-3.6496
X7.5585Y-3.7835
X7.5585Y-4.3957
X7.5585Y-4.5295
X7.9882Y-3.237
X7.9882Y-3.3472
X8.0798Y-3.237
X8.0798Y-3.3472
T5
X7.9017Y-4.2134
X8.0017Y-4.2134
X8.1017Y-4.2134
X8.2017Y-4.2134
T6
X8.1485Y-5.8988
X8.2436Y-5.9243
X8.2963Y-5.3474
X8.3387Y-5.9497
X8.4864Y-5.3983
T7
X7.7513Y-2.9365
X7.7513Y-2.9365
X7.7513Y-3.0365
X7.7513Y-3.1365
X7.7513Y-3.2365
X7.7513Y-3.3365
X7.7513Y-3.4365
X7.7513Y-3.5365
X7.7513Y-3.6365
X7.7513Y-3.7365
X7.7513Y-3.8365
X7.7513Y-3.9365
X7.7513Y-4.0365
X8.3513Y-2.9365
X8.3513Y-2.9365
X8.3513Y-3.0365
X8.3513Y-3.1365
X8.3513Y-3.2365
X8.3513Y-3.3365
X8.3513Y-3.4365
X8.3513Y-3.5365
X8.3513Y-3.6365
X8.3513Y-3.7365
X8.3513Y-3.8365
X8.3513Y-3.9365
X8.3513Y-4.0365
T9
X7.736Y-4.774
X8.306Y-4.874
T6
G00X7.905Y-4.5506
M15
G01X7.8853Y-4.5506
M16
G05
G00X7.905Y-4.6471
M15
G01X7.8853Y-4.6471
M16
G05
G00X7.9641Y-4.4817
M15
G01X7.9444Y-4.4817
M16
G05
G00X7.9641Y-4.716
M15
G01X7.9444Y-4.716
M16
G05
G00X8.1215Y-4.4817
M15
G01X8.1019Y-4.4817
M16
G05
G00X8.1215Y-4.716
M15
G01X8.1019Y-4.716
M16
G05
G00X8.2397Y-4.4817
M15
G01X8.22Y-4.4817
M16
G05
G00X8.2397Y-4.716
M15
G01X8.22Y-4.716
M16
G05
T8
G00X8.1004Y-5.6067
M15
G01X8.1137Y-5.5573
M16
G05
G00X8.5264Y-5.7208
M15
G01X8.5396Y-5.6714
M16
G05
T0
M30
