G04 #@! TF.GenerationSoftware,KiCad,Pcbnew,(6.0.6-0)*
G04 #@! TF.CreationDate,2022-07-08T23:29:35+08:00*
G04 #@! TF.ProjectId,AT_ST,41545f53-542e-46b6-9963-61645f706362,rev?*
G04 #@! TF.SameCoordinates,Original*
G04 #@! TF.FileFunction,Paste,Top*
G04 #@! TF.FilePolarity,Positive*
%FSLAX46Y46*%
G04 Gerber Fmt 4.6, Leading zero omitted, Abs format (unit mm)*
G04 Created by KiCad (PCBNEW (6.0.6-0)) date 2022-07-08 23:29:35*
%MOMM*%
%LPD*%
G01*
G04 APERTURE LIST*
G04 Aperture macros list*
%AMFreePoly0*
4,1,22,1.226568,1.240810,1.242719,1.230019,1.253510,1.213868,1.257300,1.194816,1.257300,-0.746760,0.759460,-1.244600,-1.207516,-1.244600,-1.226568,-1.240810,-1.242719,-1.230019,-1.253510,-1.213868,-1.257300,-1.194816,-1.257300,-0.736600,-1.873100,-0.736600,-1.873100,0.744600,-1.257300,0.744600,-1.257300,1.194816,-1.253511,1.213868,-1.242719,1.230019,-1.226568,1.240811,-1.207516,1.244600,
1.207516,1.244600,1.226568,1.240810,1.226568,1.240810,$1*%
%AMFreePoly1*
4,1,25,1.238664,1.240807,1.254815,1.230016,1.265606,1.213865,1.269396,1.194813,1.269396,0.735403,1.940604,0.735403,1.940604,-0.764597,1.269396,-0.764597,1.269396,-1.194813,1.265606,-1.213865,1.254815,-1.230016,1.238664,-1.240807,1.219612,-1.244597,-1.219612,-1.244597,-1.238664,-1.240807,-1.254815,-1.230016,-1.265606,-1.213865,-1.269396,-1.194813,-1.269396,1.194813,-1.265606,1.213865,
-1.254815,1.230016,-1.238664,1.240807,-1.219612,1.244597,1.219612,1.244597,1.238664,1.240807,1.238664,1.240807,$1*%
%AMFreePoly2*
4,1,32,2.467158,1.162300,2.929392,-0.226051,1.859468,-0.226051,1.689269,0.274666,0.893419,0.274666,0.735582,-0.226051,0.243178,-0.226051,-0.000429,-0.222164,-0.158882,-0.210107,-0.237748,-0.189283,-0.249226,-0.173418,-0.235625,-0.115066,-0.197844,0.014923,-0.140411,0.201794,-0.067855,0.430789,0.009247,0.668696,0.267719,1.458178,1.156982,1.458178,1.068394,1.200694,1.020985,1.056894,
0.988837,0.947903,0.979807,0.904816,1.021583,0.886366,1.131994,0.872765,1.288665,0.866559,1.317164,0.866422,1.654520,0.866422,1.369637,1.731297,-0.294745,1.731297,-0.294745,2.550651,2.004925,2.550651,2.467158,1.162300,2.467158,1.162300,$1*%
%AMFreePoly3*
4,1,9,1.058101,1.731297,0.193226,1.731297,0.193226,-0.226051,-0.762688,-0.226051,-0.762688,1.731297,-1.627563,1.731297,-1.627563,2.550651,1.058101,2.550651,1.058101,1.731297,1.058101,1.731297,$1*%
%AMFreePoly4*
4,1,64,0.155354,-0.183684,-0.709520,-0.183684,-0.709520,-2.141032,-1.665434,-2.141032,-1.665434,-0.183684,-2.291330,-0.184381,-2.525227,-0.187528,-2.729347,-0.195666,-2.884891,-0.207652,-2.973060,-0.222342,-2.982586,-0.226436,-3.002343,-0.260234,-2.978221,-0.320172,-2.902622,-0.418411,-2.773113,-0.561592,-2.544264,-0.833805,-2.392415,-1.082805,-2.311013,-1.321531,-2.292206,-1.511087,-2.324173,-1.740530,
-2.425421,-1.915906,-2.603973,-2.050493,-2.624584,-2.061301,-2.680273,-2.085152,-2.750172,-2.103780,-2.845438,-2.117813,-2.977229,-2.127876,-3.156700,-2.134596,-3.395010,-2.138598,-3.703314,-2.140510,-4.043839,-2.140961,-5.307011,-2.141032,-5.307011,-1.321677,-4.468620,-1.321677,-4.140992,-1.320539,-3.893668,-1.316373,-3.715932,-1.308051,-3.597067,-1.294444,-3.526357,-1.274425,-3.493086,-1.246865,
-3.486223,-1.218253,-3.515915,-1.165590,-3.595163,-1.066424,-3.709222,-0.938702,-3.760206,-0.884765,-3.993582,-0.603085,-4.145725,-0.330973,-4.215296,-0.073212,-4.200954,0.165415,-4.110753,0.366538,-4.068102,0.428917,-4.026191,0.480771,-3.976673,0.523075,-3.911203,0.556805,-3.821435,0.582936,-3.699023,0.602443,-3.535621,0.616302,-3.322882,0.625487,-3.052461,0.630974,-2.716012,0.633739,
-2.305189,0.634756,-1.813374,0.635000,0.155354,0.635671,0.155354,-0.183684,0.155354,-0.183684,$1*%
G04 Aperture macros list end*
%ADD10R,0.300000X1.250000*%
%ADD11R,2.000000X2.000000*%
%ADD12FreePoly0,345.000000*%
%ADD13FreePoly1,345.000000*%
%ADD14FreePoly0,0.000000*%
%ADD15FreePoly1,0.000000*%
%ADD16R,1.500000X1.000000*%
%ADD17R,1.000000X1.500000*%
%ADD18FreePoly2,0.000000*%
%ADD19FreePoly3,0.000000*%
%ADD20FreePoly4,0.000000*%
%ADD21R,1.700000X1.000000*%
G04 APERTURE END LIST*
D10*
X133236196Y-126169803D03*
X132736196Y-126169803D03*
X132236196Y-126169803D03*
X131736196Y-126169803D03*
X131236196Y-126169803D03*
D11*
X135286196Y-123444803D03*
X129186196Y-123444803D03*
D12*
X207166532Y-136831015D03*
D13*
X218653412Y-142591112D03*
D14*
X121260066Y-65897675D03*
D15*
X133846362Y-68488478D03*
D14*
X178259364Y-87442475D03*
D15*
X190845660Y-90033278D03*
D14*
X140259466Y-63356915D03*
D15*
X152845762Y-65947718D03*
D14*
X178259364Y-106437475D03*
D15*
X190845660Y-109028278D03*
D14*
X102259866Y-106898075D03*
D15*
X114846162Y-109488878D03*
D14*
X140259466Y-101357075D03*
D15*
X152845762Y-103947878D03*
D14*
X159259666Y-65897115D03*
D15*
X171845962Y-68487918D03*
D16*
X169981000Y-97307600D03*
X169981000Y-100507600D03*
X174881000Y-100507600D03*
X174881000Y-97307600D03*
D14*
X159259666Y-103897475D03*
D15*
X171845962Y-106488278D03*
D12*
X188548332Y-131840098D03*
D13*
X200035212Y-137600195D03*
D17*
X197967400Y-107729114D03*
X194767400Y-107729114D03*
X194767400Y-112629114D03*
X197967400Y-112629114D03*
D12*
X170234310Y-125730072D03*
D13*
X181721190Y-131490169D03*
D14*
X121260066Y-84897275D03*
D15*
X133846362Y-87488078D03*
D18*
X200634600Y-127254000D03*
D19*
X204774800Y-127254000D03*
D20*
X206857600Y-128778000D03*
D14*
X102259866Y-68897275D03*
D15*
X114846162Y-71488078D03*
D14*
X140259466Y-82356875D03*
D15*
X152845762Y-84947678D03*
D16*
X145144600Y-93777000D03*
X145144600Y-96977000D03*
X150044600Y-96977000D03*
X150044600Y-93777000D03*
X120308200Y-96190000D03*
X120308200Y-99390000D03*
X125208200Y-99390000D03*
X125208200Y-96190000D03*
D14*
X159259666Y-84897075D03*
D15*
X171845962Y-87487878D03*
D14*
X178259364Y-68488675D03*
D15*
X190845660Y-71079478D03*
D14*
X102259866Y-87897675D03*
D15*
X114846162Y-90488478D03*
D21*
X182549400Y-59724390D03*
X188849400Y-59724390D03*
X188849400Y-63524390D03*
X182549400Y-63524390D03*
D14*
X121260066Y-103896875D03*
D15*
X133846362Y-106487678D03*
M02*
