G04 #@! TF.GenerationSoftware,KiCad,Pcbnew,(6.0.6-0)*
G04 #@! TF.CreationDate,2022-07-08T23:29:35+08:00*
G04 #@! TF.ProjectId,AT_ST,41545f53-542e-46b6-9963-61645f706362,rev?*
G04 #@! TF.SameCoordinates,Original*
G04 #@! TF.FileFunction,Paste,Bot*
G04 #@! TF.FilePolarity,Positive*
%FSLAX46Y46*%
G04 Gerber Fmt 4.6, Leading zero omitted, Abs format (unit mm)*
G04 Created by KiCad (PCBNEW (6.0.6-0)) date 2022-07-08 23:29:35*
%MOMM*%
%LPD*%
G01*
G04 APERTURE LIST*
G04 Aperture macros list*
%AMFreePoly0*
4,1,25,1.226568,1.240810,1.242719,1.230019,1.253510,1.213868,1.257300,1.194816,1.257300,-1.194816,1.253511,-1.213868,1.242719,-1.230019,1.226568,-1.240811,1.207516,-1.244600,-1.207516,-1.244600,-1.226568,-1.240810,-1.242719,-1.230019,-1.253510,-1.213868,-1.257300,-1.194816,-1.257300,-0.736600,-1.852301,-0.736600,-1.852300,0.760800,-1.257300,0.760800,-1.257300,1.194816,-1.253511,1.213868,
-1.242719,1.230019,-1.226568,1.240811,-1.207516,1.244600,1.207516,1.244600,1.226568,1.240810,1.226568,1.240810,$1*%
%AMFreePoly1*
4,1,22,1.208016,1.234829,1.224089,1.224089,1.234829,1.208016,1.238600,1.189056,1.238600,0.750600,1.939400,0.750600,1.939400,-0.749399,1.238600,-0.749400,1.238600,-1.189056,1.234829,-1.208016,1.224089,-1.224089,1.208016,-1.234829,1.189056,-1.238600,-0.743160,-1.238600,-1.238600,-0.743160,-1.238600,1.189056,-1.234829,1.208016,-1.224089,1.224089,-1.208016,1.234829,-1.189056,1.238600,
1.189056,1.238600,1.208016,1.234829,1.208016,1.234829,$1*%
%AMFreePoly2*
4,1,620,0.971579,5.578965,0.941693,5.407493,0.859873,5.253389,0.831032,5.219332,0.787994,5.164135,0.793876,5.135690,0.808253,5.128897,0.857015,5.114513,0.955055,5.087503,1.089915,5.051144,1.249136,5.008716,1.420259,4.963496,1.590828,4.918763,1.748383,4.877794,1.880465,4.843869,1.974618,4.820265,2.018383,4.810260,2.019681,4.810129,2.035083,4.782382,2.036618,4.718553,
2.024333,4.647757,2.019392,4.633115,1.999271,4.606078,1.956551,4.601120,1.873657,4.617688,1.836059,4.627372,1.743250,4.648754,1.683607,4.656541,1.671579,4.653102,1.688714,4.617722,1.736234,4.535609,1.808316,4.416007,1.899134,4.268157,2.002863,4.101302,2.113678,3.924686,2.225754,3.747550,2.333266,3.579138,2.430389,3.428691,2.511299,3.305454,2.570170,3.218667,
2.601177,3.177574,2.601990,3.176795,2.717113,3.035639,2.768393,2.878412,2.771579,2.824021,2.771579,2.686081,2.946579,2.665061,3.061337,2.655455,3.215458,2.648080,3.381647,2.644116,3.438926,2.643752,3.756274,2.643462,3.823588,2.830495,4.075296,2.830495,4.113380,2.818974,4.192811,2.803657,4.223717,2.798697,4.359188,2.777989,4.486416,3.465486,4.525340,3.674639,
4.561028,3.864178,4.591417,4.023332,4.614447,4.141331,4.628055,4.207405,4.629832,4.214889,4.628926,4.265396,4.612694,4.276795,4.592373,4.246802,4.553619,4.162704,4.500021,4.033321,4.435165,3.867472,4.362637,3.673978,4.320857,3.559190,4.247629,3.353953,4.183577,3.170644,4.131711,3.018198,4.095043,2.905553,4.076584,2.841644,4.075296,2.830495,3.823588,2.830495,
4.035201,3.418462,4.142065,3.715765,4.228546,3.956322,4.297224,4.145978,4.350674,4.290574,4.391474,4.395955,4.422202,4.467963,4.445435,4.512442,4.463751,4.535234,4.479725,4.542183,4.495937,4.539133,4.514963,4.531925,4.525004,4.528914,4.584983,4.522864,4.604912,4.535260,4.592721,4.576098,4.560191,4.662346,4.513384,4.778203,4.492755,4.827562,4.436746,4.956107,
4.396094,5.033628,4.362195,5.071313,4.326445,5.080351,4.301088,5.076795,4.234232,5.069794,4.119681,5.064628,3.976397,5.061982,3.888246,5.061870,3.660093,5.072931,3.486009,5.106196,3.355880,5.165837,3.259595,5.256027,3.204684,5.343910,3.157016,5.426715,3.129432,5.448628,3.404912,5.448628,3.435971,5.389240,3.520223,5.336860,3.644286,5.295053,3.794777,5.267384,
3.958311,5.257419,4.093943,5.265096,4.218562,5.290357,4.334125,5.331710,4.423355,5.381017,4.468973,5.430141,4.471579,5.442972,4.438978,5.456741,4.343961,5.467132,4.190706,5.473880,3.983389,5.476719,3.938246,5.476795,3.758173,5.475133,3.604069,5.470539,3.487090,5.463604,3.418392,5.454914,3.404912,5.448628,3.129432,5.448628,3.108509,5.465250,3.031729,5.476306,
2.987568,5.476795,2.895599,5.479729,2.852140,5.496625,2.839060,5.539626,2.838246,5.576795,2.838246,5.676795,4.704912,5.676795,4.704788,5.551795,4.686272,5.435829,4.641460,5.323357,4.637390,5.316454,4.570117,5.206113,4.837515,4.572401,4.917884,4.380744,4.988585,4.209868,5.045757,4.069297,5.085535,3.968557,5.104056,3.917174,5.104912,3.913092,5.078909,3.885758,
5.019920,3.848901,4.956472,3.818693,4.923272,3.810129,4.905576,3.837961,4.878086,3.905931,4.874690,3.915534,4.845953,3.981718,4.823682,4.005778,4.821615,4.004609,4.810925,3.968412,4.790284,3.876450,4.761707,3.738544,4.727211,3.564511,4.688813,3.364171,4.675051,3.290870,4.621192,2.988639,4.584207,2.748732,4.563820,2.569051,4.559753,2.447497,4.561169,2.426795,
4.549298,2.253660,4.482450,2.110961,4.368364,2.007319,4.214780,1.951357,4.127721,1.943953,4.028752,1.951165,3.951950,1.969502,3.944388,1.973006,3.893271,1.979316,3.796257,1.976604,3.672234,1.966938,3.540090,1.952386,3.418714,1.935013,3.326993,1.916889,3.284449,1.900776,3.289805,1.865748,3.317241,1.787644,3.357848,1.690252,3.401391,1.586602,3.454057,1.453369,
3.510578,1.304913,3.565687,1.155593,3.614115,1.019768,3.650595,0.911797,3.669859,0.846039,3.671569,0.835129,3.640195,0.826290,3.553876,0.818823,3.424332,0.813335,3.263279,0.810431,3.188246,0.810129,2.704912,0.810129,2.704912,0.376795,3.571579,0.376795,3.571579,-0.739871,3.570862,-1.005144,3.568824,-1.247881,3.565640,-1.460373,3.561481,-1.634913,3.556519,-1.763793,
3.550929,-1.839305,3.546579,-1.856301,3.508825,-1.853245,3.412144,-1.844644,3.263983,-1.831181,3.071792,-1.813541,2.843017,-1.792406,2.585107,-1.768462,2.305510,-1.742392,2.275997,-1.739634,1.992903,-1.713315,1.729262,-1.689078,1.492789,-1.667611,1.291201,-1.649604,1.132213,-1.635745,1.023540,-1.626722,0.972899,-1.623225,0.971574,-1.623205,0.948592,-1.611765,0.921250,-1.573041,
0.886886,-1.500430,0.842840,-1.387325,0.786449,-1.227122,0.715052,-1.013215,0.669372,-0.873205,0.426010,-0.123205,-0.128421,-0.123205,-0.128421,0.110129,0.108526,0.110129,0.237278,0.112220,0.308810,0.126017,0.332568,0.162806,0.318476,0.231542,0.548548,0.231542,0.556686,0.199458,0.582958,0.112430,0.624715,-0.021141,0.679306,-0.192856,0.744082,-0.394314,0.810519,-0.599082,
1.078990,-1.423205,1.299671,-1.423205,0.730752,0.282142,0.642901,0.260092,0.576203,0.241775,0.548548,0.231542,0.318476,0.231542,0.317998,0.233874,0.285590,0.321696,0.289977,0.345919,0.308933,0.360385,0.946228,0.360385,0.954264,0.328822,0.980539,0.243839,1.021818,0.115128,1.074868,-0.047617,1.136454,-0.234703,1.203344,-0.436436,1.272302,-0.643124,1.340096,-0.845074,
1.403491,-1.032591,1.459254,-1.195983,1.504151,-1.325556,1.534947,-1.411617,1.548345,-1.444415,1.583138,-1.450370,1.674685,-1.461169,1.813331,-1.475811,1.989420,-1.493291,2.193297,-1.512606,2.290237,-1.521511,2.516168,-1.542255,2.730599,-1.562285,2.920779,-1.580384,3.073958,-1.595334,3.177387,-1.605920,3.197128,-1.608098,3.372677,-1.628139,3.354912,0.160129,1.492288,0.173734,
1.357424,0.308598,1.288430,0.376795,1.704912,0.376795,2.471579,0.376795,2.471579,0.810129,1.704912,0.810129,1.704912,0.376795,1.288430,0.376795,1.277493,0.387606,1.224861,0.428031,1.178274,0.436972,1.116476,0.421526,1.068220,0.405180,0.991258,0.378281,0.948407,0.361600,0.946228,0.360385,0.308933,0.360385,0.326379,0.373698,0.402509,0.408457,0.526076,0.453623,
0.704793,0.512620,0.742850,0.524792,0.912291,0.578055,1.060270,0.623166,1.174688,0.656545,1.243443,0.674612,1.256504,0.676795,1.302518,0.654437,1.365364,0.599959,1.371579,0.593462,1.441264,0.528654,1.482174,0.520272,1.501080,0.571702,1.504912,0.660129,1.504912,0.810129,0.971579,0.810129,0.971579,1.043462,1.204912,1.043462,2.288246,1.043462,2.549393,1.043834,
2.787897,1.044891,2.995930,1.046540,3.165664,1.048692,3.289271,1.051255,3.358924,1.054138,3.371579,1.056058,3.359961,1.091882,3.331071,1.165355,3.321132,1.189391,3.270684,1.310129,1.204912,1.310129,1.204912,1.043462,0.971579,1.043462,0.971579,1.176795,0.972076,1.336894,0.975215,1.441929,0.983469,1.503503,0.999311,1.533219,1.025213,1.542679,1.049727,1.543462,
1.401294,1.543462,1.695577,1.543462,1.705856,1.561699,1.971579,1.561699,2.002431,1.553667,2.085069,1.547441,2.204621,1.543923,2.271579,1.543462,2.403699,1.544875,2.506130,1.548659,2.563998,1.554134,2.571579,1.557200,2.556096,1.590462,2.514977,1.666594,2.462288,1.760129,2.706807,1.760129,2.775800,1.651795,2.825015,1.585693,2.878891,1.553787,2.963460,1.543943,
3.008186,1.543462,3.102213,1.546355,3.161279,1.553738,3.171579,1.559237,3.156968,1.605946,3.120939,1.682309,3.075195,1.766935,3.031441,1.838434,3.001381,1.875415,2.997818,1.876795,2.948063,1.862914,2.912794,1.846890,2.833330,1.810073,2.780860,1.788556,2.706807,1.760129,2.462288,1.760129,2.456217,1.770907,2.438246,1.802202,2.375530,1.915749,2.328665,2.009678,
2.305882,2.067226,2.304912,2.073765,2.293494,2.102801,2.258592,2.074363,2.199234,1.987240,2.114448,1.840220,2.107838,1.828206,2.045894,1.713334,1.998674,1.621949,1.973687,1.568734,1.971579,1.561699,1.705856,1.561699,1.933903,1.966294,2.037762,2.156211,2.072533,2.226795,2.471579,2.226795,2.499065,2.150051,2.565735,2.073901,2.647904,2.021124,2.696850,2.010129,
2.794048,2.037112,2.879728,2.104449,2.931733,2.191719,2.938246,2.232606,2.910556,2.334118,2.839736,2.404223,2.744162,2.437234,2.642208,2.427466,2.552250,2.369232,2.540665,2.355633,2.492971,2.283591,2.471657,2.228839,2.471579,2.226795,2.072533,2.226795,2.105041,2.292784,2.136561,2.377854,2.133600,2.413000,2.091479,2.402157,2.024795,2.341966,1.974160,2.281834,
1.901372,2.188272,1.802996,2.061615,1.694263,1.921478,1.627321,1.835129,1.401294,1.543462,1.049727,1.543462,1.099665,1.569754,1.178174,1.641906,1.277565,1.749837,1.390151,1.883461,1.508244,2.032697,1.624155,2.187459,1.730198,2.337666,1.799253,2.443462,3.113102,2.443462,3.130109,2.285129,3.140763,2.192159,3.148765,2.133471,3.151014,2.123407,3.183410,2.125546,
3.266316,2.134192,3.384079,2.147678,3.429912,2.153145,3.565417,2.171096,3.647512,2.188089,3.689194,2.209020,3.703463,2.238786,3.704402,2.256534,3.698270,2.319714,3.674223,2.364637,3.642308,2.383369,3.910205,2.383369,3.911421,2.367903,3.949533,2.264486,4.028207,2.187392,4.127510,2.152056,4.184738,2.156270,4.273120,2.209103,4.332811,2.301181,4.350524,2.406888,
4.339981,2.455565,4.273431,2.557360,4.179728,2.601930,4.070068,2.586577,3.990917,2.539607,3.925290,2.467981,3.910205,2.383369,3.642308,2.383369,3.622179,2.395183,3.532057,2.415234,3.393774,2.428670,3.234007,2.437638,3.113102,2.443462,1.799253,2.443462,1.818685,2.473233,1.881926,2.584077,1.912236,2.660115,1.913646,2.676586,1.898805,2.729389,1.875629,2.793364,
2.129208,2.793364,2.159863,2.693565,2.226807,2.615387,2.323472,2.577790,2.343454,2.576795,2.420245,2.603988,2.498636,2.670128,2.555989,2.752059,2.571579,2.810129,2.544994,2.888672,2.480330,2.968854,2.400227,3.027516,2.343454,3.043462,2.270608,3.023165,2.203050,2.981990,2.141414,2.895826,2.129208,2.793364,1.875629,2.793364,1.860537,2.835022,1.802139,2.985239,
1.726909,3.171794,1.638144,3.386442,1.539142,3.620936,1.491912,3.731242,1.375886,4.001990,1.284453,4.218141,1.215310,4.386099,1.166152,4.512267,1.134675,4.603049,1.124000,4.644023,1.381818,4.644023,1.389283,4.593314,1.422147,4.489500,1.479625,4.335085,1.560933,4.132572,1.656865,3.904160,1.760738,3.660770,1.841584,3.472108,1.902864,3.331727,1.948043,3.233179,
1.980583,3.170016,2.003947,3.135789,2.021598,3.124051,2.037000,3.128353,2.053615,3.142246,2.062090,3.149643,2.135111,3.197607,2.193926,3.226795,2.218907,3.239165,2.232749,3.256468,2.231973,3.286052,2.213100,3.335266,2.172650,3.411460,2.107143,3.521981,2.013101,3.674179,1.886168,3.876795,1.769325,4.062877,1.661649,4.234225,1.569178,4.381241,1.497953,4.494324,
1.454013,4.563876,1.446225,4.576114,1.400537,4.639124,1.381818,4.644023,1.124000,4.644023,1.118574,4.664848,1.115544,4.704067,1.123282,4.727109,1.130745,4.734784,1.165725,4.775848,1.164993,4.794492,1.118597,4.816356,1.021040,4.847563,0.886599,4.884711,0.729549,4.924397,0.564168,4.963217,0.404731,4.997769,0.265514,5.024650,0.160793,5.040457,0.121579,5.043209,
-0.107925,5.064964,-0.300246,5.125984,-0.447866,5.222661,-0.543261,5.351385,-0.549306,5.365084,-0.581617,5.430593,-0.328421,5.430593,-0.297640,5.374843,-0.214473,5.328892,-0.092683,5.294246,0.053969,5.272409,0.211719,5.264887,0.366806,5.273186,0.505466,5.298811,0.590044,5.330129,0.680096,5.378481,0.726708,5.415168,0.725922,5.441708,0.673778,5.459619,0.566317,5.470420,
0.399582,5.475629,0.207690,5.476795,0.001537,5.475800,-0.146438,5.472329,-0.244700,5.465652,-0.301715,5.455040,-0.325948,5.439764,-0.328421,5.430593,-0.581617,5.430593,-0.582210,5.431795,-0.622789,5.464761,-0.693555,5.475791,-0.762202,5.476795,-0.860695,5.478996,-0.909749,5.492505,-0.926582,5.527681,-0.928421,5.576795,-0.928421,5.676795,0.971579,5.676795,0.971579,5.578965,
0.971579,5.578965,$1*%
%AMFreePoly3*
4,1,42,0.613446,0.519949,0.770660,0.431157,0.889396,0.300110,0.961869,0.141146,0.980294,-0.031401,0.964618,-0.126720,0.890789,-0.294715,0.779037,-0.419417,0.640748,-0.500897,0.487306,-0.539224,0.330099,-0.534468,0.180512,-0.486700,0.049931,-0.395989,-0.050259,-0.262406,-0.101923,-0.120158,-0.108003,-0.019307,0.096779,-0.019307,0.124112,-0.106341,0.192871,-0.199748,0.283191,-0.279666,
0.375212,-0.326232,0.408544,-0.331071,0.551791,-0.303940,0.662369,-0.231615,0.734193,-0.127700,0.761178,-0.005798,0.737239,0.120486,0.660882,0.233031,0.540219,0.316024,0.408549,0.333504,0.268280,0.288095,0.169255,0.201938,0.109254,0.076129,0.096779,-0.019307,-0.108003,-0.019307,-0.112869,0.061415,-0.067944,0.226716,0.023100,0.367020,0.150512,0.473603,0.304543,0.537740,
0.475441,0.550706,0.613446,0.519949,0.613446,0.519949,$1*%
G04 Aperture macros list end*
%ADD10FreePoly0,345.000000*%
%ADD11FreePoly1,345.000000*%
%ADD12FreePoly0,0.000000*%
%ADD13FreePoly1,0.000000*%
%ADD14R,1.500000X1.000000*%
%ADD15R,1.000000X1.500000*%
%ADD16R,1.700000X1.000000*%
%ADD17R,0.300000X1.250000*%
%ADD18R,2.000000X2.000000*%
%ADD19FreePoly2,180.000000*%
%ADD20FreePoly3,180.000000*%
G04 APERTURE END LIST*
D10*
X205213615Y-139016222D03*
D11*
X218067867Y-139758231D03*
D12*
X119939266Y-68513875D03*
D13*
X132547566Y-65903675D03*
D12*
X176938564Y-90058675D03*
D13*
X189546864Y-87448475D03*
D12*
X138938666Y-65973115D03*
D13*
X151546966Y-63362915D03*
D12*
X176938564Y-109053675D03*
D13*
X189546864Y-106443475D03*
D12*
X100939066Y-109514275D03*
D13*
X113547366Y-106904075D03*
D12*
X138938666Y-103973275D03*
D13*
X151546966Y-101363075D03*
D12*
X157938866Y-68513315D03*
D13*
X170547166Y-65903115D03*
D14*
X174881000Y-97307600D03*
X174881000Y-100507600D03*
X169981000Y-100507600D03*
X169981000Y-97307600D03*
D12*
X157938866Y-106513675D03*
D13*
X170547166Y-103903475D03*
D10*
X186595415Y-134025305D03*
D11*
X199449667Y-134767314D03*
D15*
X197967400Y-112629114D03*
X194767400Y-112629114D03*
X194767400Y-107729114D03*
X197967400Y-107729114D03*
D10*
X168281393Y-127915279D03*
D11*
X181135645Y-128657288D03*
D12*
X119939266Y-87513475D03*
D13*
X132547566Y-84903275D03*
D12*
X100939066Y-71513475D03*
D13*
X113547366Y-68903275D03*
D12*
X138938666Y-84973075D03*
D13*
X151546966Y-82362875D03*
D14*
X150044600Y-93777000D03*
X150044600Y-96977000D03*
X145144600Y-96977000D03*
X145144600Y-93777000D03*
X125208200Y-96190000D03*
X125208200Y-99390000D03*
X120308200Y-99390000D03*
X120308200Y-96190000D03*
D12*
X157938866Y-87513275D03*
D13*
X170547166Y-84903075D03*
D12*
X176938564Y-71104875D03*
D13*
X189546864Y-68494675D03*
D12*
X100939066Y-90513875D03*
D13*
X113547366Y-87903675D03*
D12*
X119939266Y-106513075D03*
D13*
X132547566Y-103902875D03*
D16*
X188849400Y-59724390D03*
X182549400Y-59724390D03*
X182549400Y-63524390D03*
X188849400Y-63524390D03*
D17*
X158636337Y-126169803D03*
X159136337Y-126169803D03*
X159636337Y-126169803D03*
X160136337Y-126169803D03*
X160636337Y-126169803D03*
D18*
X162686337Y-123444803D03*
X156586337Y-123444803D03*
D19*
X204056756Y-125256551D03*
D20*
X202481956Y-124697751D03*
M02*
