G04 #@! TF.GenerationSoftware,KiCad,Pcbnew,(6.0.6-0)*
G04 #@! TF.CreationDate,2022-07-10T14:20:21+08:00*
G04 #@! TF.ProjectId,thrfv,74687266-762e-46b6-9963-61645f706362,rev?*
G04 #@! TF.SameCoordinates,Original*
G04 #@! TF.FileFunction,Legend,Top*
G04 #@! TF.FilePolarity,Positive*
%FSLAX46Y46*%
G04 Gerber Fmt 4.6, Leading zero omitted, Abs format (unit mm)*
G04 Created by KiCad (PCBNEW (6.0.6-0)) date 2022-07-10 14:20:21*
%MOMM*%
%LPD*%
G01*
G04 APERTURE LIST*
%ADD10C,0.120000*%
%ADD11C,0.150000*%
%ADD12C,0.100000*%
%ADD13C,0.200000*%
%ADD14C,1.397000*%
%ADD15C,1.200000*%
%ADD16O,2.500000X1.700000*%
%ADD17C,1.752600*%
G04 APERTURE END LIST*
D10*
X197827826Y-68597022D02*
X197827826Y-67997022D01*
X198056397Y-67997022D01*
X198113540Y-68025594D01*
X198142111Y-68054165D01*
X198170683Y-68111308D01*
X198170683Y-68197022D01*
X198142111Y-68254165D01*
X198113540Y-68282736D01*
X198056397Y-68311308D01*
X197827826Y-68311308D01*
X198427826Y-68597022D02*
X198427826Y-68197022D01*
X198427826Y-68311308D02*
X198456397Y-68254165D01*
X198484968Y-68225594D01*
X198542111Y-68197022D01*
X198599254Y-68197022D01*
X198884968Y-68597022D02*
X198827826Y-68568451D01*
X198799254Y-68539879D01*
X198770683Y-68482736D01*
X198770683Y-68311308D01*
X198799254Y-68254165D01*
X198827826Y-68225594D01*
X198884968Y-68197022D01*
X198970683Y-68197022D01*
X199027826Y-68225594D01*
X199056397Y-68254165D01*
X199084968Y-68311308D01*
X199084968Y-68482736D01*
X199056397Y-68539879D01*
X199027826Y-68568451D01*
X198970683Y-68597022D01*
X198884968Y-68597022D01*
X199199254Y-68654165D02*
X199656397Y-68654165D01*
X199799254Y-68597022D02*
X199799254Y-67997022D01*
X199999254Y-68425594D01*
X200199254Y-67997022D01*
X200199254Y-68597022D01*
X200484968Y-68597022D02*
X200484968Y-68197022D01*
X200484968Y-67997022D02*
X200456397Y-68025594D01*
X200484968Y-68054165D01*
X200513540Y-68025594D01*
X200484968Y-67997022D01*
X200484968Y-68054165D01*
X201027826Y-68568451D02*
X200970683Y-68597022D01*
X200856397Y-68597022D01*
X200799254Y-68568451D01*
X200770683Y-68539879D01*
X200742111Y-68482736D01*
X200742111Y-68311308D01*
X200770683Y-68254165D01*
X200799254Y-68225594D01*
X200856397Y-68197022D01*
X200970683Y-68197022D01*
X201027826Y-68225594D01*
X201284968Y-68597022D02*
X201284968Y-68197022D01*
X201284968Y-68311308D02*
X201313540Y-68254165D01*
X201342111Y-68225594D01*
X201399254Y-68197022D01*
X201456397Y-68197022D01*
X201742111Y-68597022D02*
X201684968Y-68568451D01*
X201656397Y-68539879D01*
X201627826Y-68482736D01*
X201627826Y-68311308D01*
X201656397Y-68254165D01*
X201684968Y-68225594D01*
X201742111Y-68197022D01*
X201827826Y-68197022D01*
X201884968Y-68225594D01*
X201913540Y-68254165D01*
X201942111Y-68311308D01*
X201942111Y-68482736D01*
X201913540Y-68539879D01*
X201884968Y-68568451D01*
X201827826Y-68597022D01*
X201742111Y-68597022D01*
X202056397Y-68654165D02*
X202513540Y-68654165D01*
X202570683Y-67997022D02*
X202913540Y-67997022D01*
X202742111Y-68597022D02*
X202742111Y-67997022D01*
X203056397Y-68197022D02*
X203199254Y-68597022D01*
X203342111Y-68197022D02*
X203199254Y-68597022D01*
X203142111Y-68739879D01*
X203113540Y-68768451D01*
X203056397Y-68797022D01*
X203570683Y-68197022D02*
X203570683Y-68797022D01*
X203570683Y-68225594D02*
X203627826Y-68197022D01*
X203742111Y-68197022D01*
X203799254Y-68225594D01*
X203827826Y-68254165D01*
X203856397Y-68311308D01*
X203856397Y-68482736D01*
X203827826Y-68539879D01*
X203799254Y-68568451D01*
X203742111Y-68597022D01*
X203627826Y-68597022D01*
X203570683Y-68568451D01*
X204342111Y-68568451D02*
X204284968Y-68597022D01*
X204170683Y-68597022D01*
X204113540Y-68568451D01*
X204084968Y-68511308D01*
X204084968Y-68282736D01*
X204113540Y-68225594D01*
X204170683Y-68197022D01*
X204284968Y-68197022D01*
X204342111Y-68225594D01*
X204370683Y-68282736D01*
X204370683Y-68339879D01*
X204084968Y-68397022D01*
X204627826Y-68368451D02*
X205084968Y-68368451D01*
X205713540Y-68539879D02*
X205684968Y-68568451D01*
X205599254Y-68597022D01*
X205542111Y-68597022D01*
X205456397Y-68568451D01*
X205399254Y-68511308D01*
X205370683Y-68454165D01*
X205342111Y-68339879D01*
X205342111Y-68254165D01*
X205370683Y-68139879D01*
X205399254Y-68082736D01*
X205456397Y-68025594D01*
X205542111Y-67997022D01*
X205599254Y-67997022D01*
X205684968Y-68025594D01*
X205713540Y-68054165D01*
X205827826Y-68654165D02*
X206284968Y-68654165D01*
X206427826Y-68282736D02*
X206627826Y-68282736D01*
X206713540Y-68597022D02*
X206427826Y-68597022D01*
X206427826Y-67997022D01*
X206713540Y-67997022D01*
X206913540Y-68597022D02*
X207227826Y-68197022D01*
X206913540Y-68197022D02*
X207227826Y-68597022D01*
X207370683Y-68197022D02*
X207599254Y-68197022D01*
X207456397Y-67997022D02*
X207456397Y-68511308D01*
X207484968Y-68568451D01*
X207542111Y-68597022D01*
X207599254Y-68597022D01*
X208027826Y-68568451D02*
X207970683Y-68597022D01*
X207856397Y-68597022D01*
X207799254Y-68568451D01*
X207770683Y-68511308D01*
X207770683Y-68282736D01*
X207799254Y-68225594D01*
X207856397Y-68197022D01*
X207970683Y-68197022D01*
X208027826Y-68225594D01*
X208056397Y-68282736D01*
X208056397Y-68339879D01*
X207770683Y-68397022D01*
X208313540Y-68197022D02*
X208313540Y-68597022D01*
X208313540Y-68254165D02*
X208342111Y-68225594D01*
X208399254Y-68197022D01*
X208484968Y-68197022D01*
X208542111Y-68225594D01*
X208570683Y-68282736D01*
X208570683Y-68597022D01*
X208827826Y-68568451D02*
X208884968Y-68597022D01*
X208999254Y-68597022D01*
X209056397Y-68568451D01*
X209084968Y-68511308D01*
X209084968Y-68482736D01*
X209056397Y-68425594D01*
X208999254Y-68397022D01*
X208913540Y-68397022D01*
X208856397Y-68368451D01*
X208827826Y-68311308D01*
X208827826Y-68282736D01*
X208856397Y-68225594D01*
X208913540Y-68197022D01*
X208999254Y-68197022D01*
X209056397Y-68225594D01*
X209342111Y-68597022D02*
X209342111Y-68197022D01*
X209342111Y-67997022D02*
X209313540Y-68025594D01*
X209342111Y-68054165D01*
X209370683Y-68025594D01*
X209342111Y-67997022D01*
X209342111Y-68054165D01*
X209713540Y-68597022D02*
X209656397Y-68568451D01*
X209627826Y-68539879D01*
X209599254Y-68482736D01*
X209599254Y-68311308D01*
X209627826Y-68254165D01*
X209656397Y-68225594D01*
X209713540Y-68197022D01*
X209799254Y-68197022D01*
X209856397Y-68225594D01*
X209884968Y-68254165D01*
X209913540Y-68311308D01*
X209913540Y-68482736D01*
X209884968Y-68539879D01*
X209856397Y-68568451D01*
X209799254Y-68597022D01*
X209713540Y-68597022D01*
X210170683Y-68197022D02*
X210170683Y-68597022D01*
X210170683Y-68254165D02*
X210199254Y-68225594D01*
X210256397Y-68197022D01*
X210342111Y-68197022D01*
X210399254Y-68225594D01*
X210427826Y-68282736D01*
X210427826Y-68597022D01*
D11*
X205272453Y-150267899D02*
X205750817Y-150396076D01*
X205377561Y-150611575D01*
X205487953Y-150641154D01*
X205547088Y-150696438D01*
X205569425Y-150741863D01*
X205577304Y-150822852D01*
X205505007Y-151000676D01*
X205439291Y-151061945D01*
X205388034Y-151087650D01*
X205299980Y-151103495D01*
X205079197Y-151044337D01*
X205020062Y-150989052D01*
X204997724Y-150943628D01*
X205704749Y-151211953D02*
X206311950Y-150822504D01*
X205907181Y-150714047D02*
X206109518Y-151320410D01*
X207075515Y-150751027D02*
X206707543Y-150652430D01*
X206526152Y-150998217D01*
X206577408Y-150972512D01*
X206665462Y-150956667D01*
X206849448Y-151005966D01*
X206908583Y-151061250D01*
X206930921Y-151106674D01*
X206938799Y-151187664D01*
X206866502Y-151365487D01*
X206800786Y-151426757D01*
X206749529Y-151452462D01*
X206661476Y-151468307D01*
X206477490Y-151419008D01*
X206418355Y-151363724D01*
X206396017Y-151318299D01*
X207255514Y-151311966D02*
X207844269Y-151469723D01*
X207434216Y-151675362D02*
X207665567Y-151106327D01*
X208326619Y-151086260D02*
X208804982Y-151214437D01*
X208431727Y-151429936D01*
X208542118Y-151459515D01*
X208601253Y-151514800D01*
X208623591Y-151560224D01*
X208631469Y-151641213D01*
X208559172Y-151819037D01*
X208493456Y-151880306D01*
X208442199Y-151906011D01*
X208354146Y-151921856D01*
X208133363Y-151862698D01*
X208074228Y-151807414D01*
X208051890Y-151761989D01*
X209421264Y-152207790D02*
X209724912Y-151460931D01*
X209610533Y-151942992D02*
X209715641Y-152286668D01*
X209918073Y-151788762D02*
X209508020Y-151994402D01*
X210355652Y-152418719D02*
X210267599Y-152434565D01*
X210120410Y-152395126D01*
X210061275Y-152339841D01*
X210053397Y-152258852D01*
X210169072Y-151974334D01*
X210234788Y-151913065D01*
X210322842Y-151897220D01*
X210470031Y-151936659D01*
X210529166Y-151991943D01*
X210537044Y-152072932D01*
X210508125Y-152144062D01*
X210111234Y-152116593D01*
X210838002Y-152035257D02*
X210819556Y-152582461D01*
X211205974Y-152133854D02*
X210819556Y-152582461D01*
X210673665Y-152740565D01*
X210622408Y-152766270D01*
X210534355Y-152782115D01*
X211297920Y-152710638D02*
X211601567Y-151963780D01*
X211485892Y-152248297D02*
X211573946Y-152232452D01*
X211721135Y-152271891D01*
X211780269Y-152327175D01*
X211802607Y-152372600D01*
X211810486Y-152453589D01*
X211723729Y-152666977D01*
X211658013Y-152728247D01*
X211606756Y-152753952D01*
X211518703Y-152769797D01*
X211371514Y-152730358D01*
X211312379Y-152675074D01*
X212107457Y-152927553D02*
X212048322Y-152872269D01*
X212025985Y-152826845D01*
X212018106Y-152745855D01*
X212104863Y-152532467D01*
X212170579Y-152471198D01*
X212221836Y-152445493D01*
X212309889Y-152429647D01*
X212420281Y-152459227D01*
X212479416Y-152514511D01*
X212501753Y-152559936D01*
X212509632Y-152640925D01*
X212422875Y-152854313D01*
X212357159Y-152915583D01*
X212305903Y-152941287D01*
X212217849Y-152957133D01*
X212107457Y-152927553D01*
X213027387Y-153174048D02*
X213186440Y-152782836D01*
X213178562Y-152701847D01*
X213119427Y-152646562D01*
X212972238Y-152607123D01*
X212884185Y-152622969D01*
X213041846Y-153138483D02*
X212953792Y-153154328D01*
X212769807Y-153105029D01*
X212710672Y-153049745D01*
X212702793Y-152968756D01*
X212731712Y-152897626D01*
X212797428Y-152836357D01*
X212885482Y-152820512D01*
X213069468Y-152869810D01*
X213157522Y-152853965D01*
X213395359Y-153272645D02*
X213597790Y-152774740D01*
X213539953Y-152916998D02*
X213605669Y-152855729D01*
X213656925Y-152830024D01*
X213744979Y-152814179D01*
X213818573Y-152833898D01*
X214204896Y-153489560D02*
X214508544Y-152742702D01*
X214219356Y-153453996D02*
X214131302Y-153469841D01*
X213984113Y-153430402D01*
X213924978Y-153375117D01*
X213902641Y-153329693D01*
X213894762Y-153248704D01*
X213981519Y-153035316D01*
X214047235Y-152974046D01*
X214098491Y-152948341D01*
X214186545Y-152932496D01*
X214333734Y-152971935D01*
X214392869Y-153027219D01*
X214601787Y-153517029D02*
X214624125Y-153562453D01*
X214572868Y-153588158D01*
X214550530Y-153542734D01*
X214601787Y-153517029D01*
X214572868Y-153588158D01*
X204709041Y-152278589D02*
X205012689Y-151531730D01*
X205307066Y-151610608D01*
X205366201Y-151665893D01*
X205388539Y-151711317D01*
X205396417Y-151792306D01*
X205353039Y-151899000D01*
X205287323Y-151960270D01*
X205236066Y-151985975D01*
X205148013Y-152001820D01*
X204853635Y-151922942D01*
X205952267Y-152532832D02*
X205901010Y-152558537D01*
X205776159Y-152564522D01*
X205702565Y-152544803D01*
X205606633Y-152479659D01*
X205561957Y-152388810D01*
X205554079Y-152307821D01*
X205575119Y-152155702D01*
X205618497Y-152049008D01*
X205713132Y-151916609D01*
X205778848Y-151855339D01*
X205881362Y-151803929D01*
X206006212Y-151797944D01*
X206079807Y-151817664D01*
X206175739Y-151882808D01*
X206198077Y-151928232D01*
X206671156Y-152370506D02*
X206767088Y-152435650D01*
X206789426Y-152481075D01*
X206797304Y-152562064D01*
X206753926Y-152668758D01*
X206688210Y-152730027D01*
X206636953Y-152755732D01*
X206548900Y-152771578D01*
X206254522Y-152692699D01*
X206558170Y-151945841D01*
X206815750Y-152014859D01*
X206874885Y-152070143D01*
X206897223Y-152115568D01*
X206905101Y-152196557D01*
X206876182Y-152267686D01*
X206810466Y-152328956D01*
X206759210Y-152354661D01*
X206671156Y-152370506D01*
X206413576Y-152301488D01*
X207947192Y-153146249D02*
X208250840Y-152399390D01*
X207961652Y-153110684D02*
X207873598Y-153126529D01*
X207726409Y-153087090D01*
X207667274Y-153031806D01*
X207644937Y-152986382D01*
X207637058Y-152905392D01*
X207723815Y-152692004D01*
X207789531Y-152630734D01*
X207840787Y-152605030D01*
X207928841Y-152589184D01*
X208076030Y-152628624D01*
X208135165Y-152683908D01*
X208624001Y-153288160D02*
X208535947Y-153304005D01*
X208388758Y-153264566D01*
X208329623Y-153209282D01*
X208321745Y-153128293D01*
X208437420Y-152843775D01*
X208503136Y-152782505D01*
X208591190Y-152766660D01*
X208738379Y-152806099D01*
X208797514Y-152861384D01*
X208805392Y-152942373D01*
X208776473Y-153013502D01*
X208379583Y-152986034D01*
X208955175Y-153376898D02*
X209014310Y-153432182D01*
X209161499Y-153471621D01*
X209249553Y-153455776D01*
X209315269Y-153394507D01*
X209329728Y-153358942D01*
X209321850Y-153277953D01*
X209262715Y-153222668D01*
X209152323Y-153193089D01*
X209093189Y-153137805D01*
X209085310Y-153056816D01*
X209099770Y-153021251D01*
X209165486Y-152959981D01*
X209253539Y-152944136D01*
X209363931Y-152973716D01*
X209423066Y-153029000D01*
X209603065Y-153589939D02*
X209805497Y-153092033D01*
X209906713Y-152843080D02*
X209855456Y-152868785D01*
X209877794Y-152914209D01*
X209929051Y-152888504D01*
X209906713Y-152843080D01*
X209877794Y-152914209D01*
X210504643Y-153279369D02*
X210258833Y-153883968D01*
X210193117Y-153945238D01*
X210141861Y-153970943D01*
X210053807Y-153986788D01*
X209943415Y-153957209D01*
X209884280Y-153901925D01*
X210316671Y-153741710D02*
X210228617Y-153757555D01*
X210081428Y-153718116D01*
X210022293Y-153662831D01*
X209999956Y-153617407D01*
X209992077Y-153536418D01*
X210078834Y-153323030D01*
X210144550Y-153261760D01*
X210195807Y-153236055D01*
X210283860Y-153220210D01*
X210431049Y-153259649D01*
X210490184Y-153314933D01*
X210872615Y-153377966D02*
X210670183Y-153875872D01*
X210843696Y-153449096D02*
X210894953Y-153423391D01*
X210983007Y-153407546D01*
X211093398Y-153437125D01*
X211152533Y-153492409D01*
X211160411Y-153573398D01*
X211001358Y-153964610D01*
X211678166Y-154106521D02*
X211590113Y-154122366D01*
X211442924Y-154082927D01*
X211383789Y-154027643D01*
X211375911Y-153946654D01*
X211491586Y-153662136D01*
X211557302Y-153600867D01*
X211645356Y-153585021D01*
X211792544Y-153624461D01*
X211851679Y-153679745D01*
X211859558Y-153760734D01*
X211830639Y-153831863D01*
X211433748Y-153804395D01*
X212362853Y-154329422D02*
X212666501Y-153582563D01*
X212377313Y-154293857D02*
X212289259Y-154309702D01*
X212142070Y-154270263D01*
X212082935Y-154214979D01*
X212060597Y-154169554D01*
X212052719Y-154088565D01*
X212139476Y-153875177D01*
X212205192Y-153813907D01*
X212256448Y-153788202D01*
X212344502Y-153772357D01*
X212491691Y-153811796D01*
X212550826Y-153867081D01*
X213319580Y-154585776D02*
X213623228Y-153838917D01*
X213507552Y-154123435D02*
X213595606Y-154107589D01*
X213742795Y-154147029D01*
X213801930Y-154202313D01*
X213824267Y-154247737D01*
X213832146Y-154328726D01*
X213745389Y-154542115D01*
X213679673Y-154603384D01*
X213628417Y-154629089D01*
X213540363Y-154644934D01*
X213393174Y-154605495D01*
X213334039Y-154550211D01*
X214147564Y-154255486D02*
X214129118Y-154802691D01*
X214515535Y-154354084D02*
X214129118Y-154802691D01*
X213983226Y-154960795D01*
X213931970Y-154986500D01*
X213843916Y-155002345D01*
X215720666Y-154400924D02*
X215503775Y-154934395D01*
X215423600Y-155031229D01*
X215321087Y-155082639D01*
X215196236Y-155088624D01*
X215122641Y-155068905D01*
X216015044Y-154479802D02*
X215895382Y-155275960D01*
X216259462Y-154781928D01*
X216189759Y-155354838D01*
X216677393Y-154657278D01*
X216697041Y-155411886D02*
X216719379Y-155457310D01*
X216668123Y-155483015D01*
X216645785Y-155437591D01*
X216697041Y-155411886D01*
X216668123Y-155483015D01*
X136535292Y-125181974D02*
X136535292Y-125896260D01*
X136487673Y-126039117D01*
X136392435Y-126134355D01*
X136249578Y-126181974D01*
X136154340Y-126181974D01*
X136916245Y-125181974D02*
X137535292Y-125181974D01*
X137201959Y-125562927D01*
X137344816Y-125562927D01*
X137440054Y-125610546D01*
X137487673Y-125658165D01*
X137535292Y-125753403D01*
X137535292Y-125991498D01*
X137487673Y-126086736D01*
X137440054Y-126134355D01*
X137344816Y-126181974D01*
X137059102Y-126181974D01*
X136963864Y-126134355D01*
X136916245Y-126086736D01*
D12*
X207929299Y-111773305D02*
X207929299Y-112130448D01*
X207905489Y-112201876D01*
X207857870Y-112249495D01*
X207786442Y-112273305D01*
X207738823Y-112273305D01*
X208167394Y-112273305D02*
X208167394Y-111773305D01*
X208357870Y-111773305D01*
X208405489Y-111797115D01*
X208429299Y-111820924D01*
X208453108Y-111868543D01*
X208453108Y-111939972D01*
X208429299Y-111987591D01*
X208405489Y-112011400D01*
X208357870Y-112035210D01*
X208167394Y-112035210D01*
X208738823Y-111987591D02*
X208691204Y-111963781D01*
X208667394Y-111939972D01*
X208643585Y-111892353D01*
X208643585Y-111868543D01*
X208667394Y-111820924D01*
X208691204Y-111797115D01*
X208738823Y-111773305D01*
X208834061Y-111773305D01*
X208881680Y-111797115D01*
X208905489Y-111820924D01*
X208929299Y-111868543D01*
X208929299Y-111892353D01*
X208905489Y-111939972D01*
X208881680Y-111963781D01*
X208834061Y-111987591D01*
X208738823Y-111987591D01*
X208691204Y-112011400D01*
X208667394Y-112035210D01*
X208643585Y-112082829D01*
X208643585Y-112178067D01*
X208667394Y-112225686D01*
X208691204Y-112249495D01*
X208738823Y-112273305D01*
X208834061Y-112273305D01*
X208881680Y-112249495D01*
X208905489Y-112225686D01*
X208929299Y-112178067D01*
X208929299Y-112082829D01*
X208905489Y-112035210D01*
X208881680Y-112011400D01*
X208834061Y-111987591D01*
D11*
X170885532Y-111679856D02*
X170085532Y-111679856D01*
X170085532Y-111489380D01*
X170123628Y-111375094D01*
X170199818Y-111298904D01*
X170276008Y-111260808D01*
X170428389Y-111222713D01*
X170542675Y-111222713D01*
X170695056Y-111260808D01*
X170771247Y-111298904D01*
X170847437Y-111375094D01*
X170885532Y-111489380D01*
X170885532Y-111679856D01*
X170885532Y-110460808D02*
X170885532Y-110917951D01*
X170885532Y-110689380D02*
X170085532Y-110689380D01*
X170199818Y-110765570D01*
X170276008Y-110841761D01*
X170314104Y-110917951D01*
X170352199Y-109775094D02*
X170885532Y-109775094D01*
X170047437Y-109965570D02*
X170618866Y-110156047D01*
X170618866Y-109660808D01*
X171697551Y-59922659D02*
X172268980Y-59922659D01*
X171983266Y-60922659D02*
X171983266Y-59922659D01*
X172602313Y-60922659D02*
X172602313Y-59922659D01*
X172602313Y-60398850D02*
X173173742Y-60398850D01*
X173173742Y-60922659D02*
X173173742Y-59922659D01*
X174173742Y-60922659D02*
X173602313Y-60922659D01*
X173888027Y-60922659D02*
X173888027Y-59922659D01*
X173792789Y-60065517D01*
X173697551Y-60160755D01*
X173602313Y-60208374D01*
X117291161Y-60096499D02*
X117862590Y-60096499D01*
X117576876Y-61096499D02*
X117576876Y-60096499D01*
X118195923Y-61096499D02*
X118195923Y-60096499D01*
X118195923Y-60572690D02*
X118767352Y-60572690D01*
X118767352Y-61096499D02*
X118767352Y-60096499D01*
X119195923Y-60191738D02*
X119243542Y-60144119D01*
X119338780Y-60096499D01*
X119576876Y-60096499D01*
X119672114Y-60144119D01*
X119719733Y-60191738D01*
X119767352Y-60286976D01*
X119767352Y-60382214D01*
X119719733Y-60525071D01*
X119148304Y-61096499D01*
X119767352Y-61096499D01*
X151936132Y-70711304D02*
X151136132Y-70711304D01*
X151136132Y-70520828D01*
X151174228Y-70406542D01*
X151250418Y-70330351D01*
X151326608Y-70292256D01*
X151478989Y-70254161D01*
X151593275Y-70254161D01*
X151745656Y-70292256D01*
X151821847Y-70330351D01*
X151898037Y-70406542D01*
X151936132Y-70520828D01*
X151936132Y-70711304D01*
X151136132Y-69987494D02*
X151136132Y-69492256D01*
X151440894Y-69758923D01*
X151440894Y-69644637D01*
X151478989Y-69568447D01*
X151517085Y-69530351D01*
X151593275Y-69492256D01*
X151783751Y-69492256D01*
X151859942Y-69530351D01*
X151898037Y-69568447D01*
X151936132Y-69644637D01*
X151936132Y-69873208D01*
X151898037Y-69949399D01*
X151859942Y-69987494D01*
X132832582Y-92324104D02*
X132032582Y-92324104D01*
X132032582Y-92133628D01*
X132070678Y-92019342D01*
X132146868Y-91943151D01*
X132223058Y-91905056D01*
X132375439Y-91866961D01*
X132489725Y-91866961D01*
X132642106Y-91905056D01*
X132718297Y-91943151D01*
X132794487Y-92019342D01*
X132832582Y-92133628D01*
X132832582Y-92324104D01*
X132032582Y-91600294D02*
X132032582Y-91066961D01*
X132832582Y-91409818D01*
X113885732Y-76349504D02*
X113085732Y-76349504D01*
X113085732Y-76159028D01*
X113123828Y-76044742D01*
X113200018Y-75968551D01*
X113276208Y-75930456D01*
X113428589Y-75892361D01*
X113542875Y-75892361D01*
X113695256Y-75930456D01*
X113771447Y-75968551D01*
X113847637Y-76044742D01*
X113885732Y-76159028D01*
X113885732Y-76349504D01*
X113885732Y-75130456D02*
X113885732Y-75587599D01*
X113885732Y-75359028D02*
X113085732Y-75359028D01*
X113200018Y-75435218D01*
X113276208Y-75511408D01*
X113314304Y-75587599D01*
X189908382Y-75890104D02*
X189108382Y-75890104D01*
X189108382Y-75699628D01*
X189146478Y-75585342D01*
X189222668Y-75509151D01*
X189298858Y-75471056D01*
X189451239Y-75432961D01*
X189565525Y-75432961D01*
X189717906Y-75471056D01*
X189794097Y-75509151D01*
X189870287Y-75585342D01*
X189908382Y-75699628D01*
X189908382Y-75890104D01*
X189108382Y-74709151D02*
X189108382Y-75090104D01*
X189489335Y-75128199D01*
X189451239Y-75090104D01*
X189413144Y-75013913D01*
X189413144Y-74823437D01*
X189451239Y-74747247D01*
X189489335Y-74709151D01*
X189565525Y-74671056D01*
X189756001Y-74671056D01*
X189832192Y-74709151D01*
X189870287Y-74747247D01*
X189908382Y-74823437D01*
X189908382Y-75013913D01*
X189870287Y-75090104D01*
X189832192Y-75128199D01*
D12*
X205389299Y-111773305D02*
X205389299Y-112130448D01*
X205365489Y-112201876D01*
X205317870Y-112249495D01*
X205246442Y-112273305D01*
X205198823Y-112273305D01*
X205627394Y-112273305D02*
X205627394Y-111773305D01*
X205817870Y-111773305D01*
X205865489Y-111797115D01*
X205889299Y-111820924D01*
X205913108Y-111868543D01*
X205913108Y-111939972D01*
X205889299Y-111987591D01*
X205865489Y-112011400D01*
X205817870Y-112035210D01*
X205627394Y-112035210D01*
X206079775Y-111773305D02*
X206413108Y-111773305D01*
X206198823Y-112273305D01*
D11*
X151936132Y-109088656D02*
X151136132Y-109088656D01*
X151136132Y-108898180D01*
X151174228Y-108783894D01*
X151250418Y-108707704D01*
X151326608Y-108669608D01*
X151478989Y-108631513D01*
X151593275Y-108631513D01*
X151745656Y-108669608D01*
X151821847Y-108707704D01*
X151898037Y-108783894D01*
X151936132Y-108898180D01*
X151936132Y-109088656D01*
X151936132Y-107869608D02*
X151936132Y-108326751D01*
X151936132Y-108098180D02*
X151136132Y-108098180D01*
X151250418Y-108174370D01*
X151326608Y-108250561D01*
X151364704Y-108326751D01*
X151136132Y-107602942D02*
X151136132Y-107107704D01*
X151440894Y-107374370D01*
X151440894Y-107260085D01*
X151478989Y-107183894D01*
X151517085Y-107145799D01*
X151593275Y-107107704D01*
X151783751Y-107107704D01*
X151859942Y-107145799D01*
X151898037Y-107183894D01*
X151936132Y-107260085D01*
X151936132Y-107488656D01*
X151898037Y-107564847D01*
X151859942Y-107602942D01*
X209866895Y-107331933D02*
X210447466Y-107331933D01*
X210563580Y-107370638D01*
X210640990Y-107448047D01*
X210679695Y-107564161D01*
X210679695Y-107641571D01*
X209944304Y-106983590D02*
X209905600Y-106944885D01*
X209866895Y-106867476D01*
X209866895Y-106673952D01*
X209905600Y-106596542D01*
X209944304Y-106557838D01*
X210021714Y-106519133D01*
X210099123Y-106519133D01*
X210215238Y-106557838D01*
X210679695Y-107022295D01*
X210679695Y-106519133D01*
X202743699Y-80901895D02*
X202410366Y-80425705D01*
X202172270Y-80901895D02*
X202172270Y-79901895D01*
X202553223Y-79901895D01*
X202648461Y-79949515D01*
X202696080Y-79997134D01*
X202743699Y-80092372D01*
X202743699Y-80235229D01*
X202696080Y-80330467D01*
X202648461Y-80378086D01*
X202553223Y-80425705D01*
X202172270Y-80425705D01*
X203696080Y-80901895D02*
X203124651Y-80901895D01*
X203410366Y-80901895D02*
X203410366Y-79901895D01*
X203315127Y-80044753D01*
X203219889Y-80139991D01*
X203124651Y-80187610D01*
X211735628Y-145841361D02*
X211413653Y-145755088D01*
X211411235Y-145212153D02*
X211871200Y-145335400D01*
X211612381Y-146301326D01*
X211152416Y-146178079D01*
X210420660Y-145045327D02*
X210478981Y-145011655D01*
X210629295Y-145002633D01*
X210721288Y-145027282D01*
X210846953Y-145110253D01*
X210914296Y-145226895D01*
X210935644Y-145331213D01*
X210932341Y-145527523D01*
X210895367Y-145665513D01*
X210800072Y-145837174D01*
X210729426Y-145916842D01*
X210612783Y-145984186D01*
X210462469Y-145993208D01*
X210370476Y-145968558D01*
X210244812Y-145885588D01*
X210211140Y-145827267D01*
X209525380Y-144706839D02*
X210077338Y-144854736D01*
X209801359Y-144780788D02*
X209542540Y-145746714D01*
X209671507Y-145633374D01*
X209788149Y-145566030D01*
X209892467Y-145544683D01*
D12*
X202849299Y-111773305D02*
X202849299Y-112130448D01*
X202825489Y-112201876D01*
X202777870Y-112249495D01*
X202706442Y-112273305D01*
X202658823Y-112273305D01*
X203087394Y-112273305D02*
X203087394Y-111773305D01*
X203277870Y-111773305D01*
X203325489Y-111797115D01*
X203349299Y-111820924D01*
X203373108Y-111868543D01*
X203373108Y-111939972D01*
X203349299Y-111987591D01*
X203325489Y-112011400D01*
X203277870Y-112035210D01*
X203087394Y-112035210D01*
X203801680Y-111773305D02*
X203706442Y-111773305D01*
X203658823Y-111797115D01*
X203635013Y-111820924D01*
X203587394Y-111892353D01*
X203563585Y-111987591D01*
X203563585Y-112178067D01*
X203587394Y-112225686D01*
X203611204Y-112249495D01*
X203658823Y-112273305D01*
X203754061Y-112273305D01*
X203801680Y-112249495D01*
X203825489Y-112225686D01*
X203849299Y-112178067D01*
X203849299Y-112059019D01*
X203825489Y-112011400D01*
X203801680Y-111987591D01*
X203754061Y-111963781D01*
X203658823Y-111963781D01*
X203611204Y-111987591D01*
X203587394Y-112011400D01*
X203563585Y-112059019D01*
D11*
X171311952Y-95859980D02*
X170835761Y-95859980D01*
X170835761Y-94859980D01*
X171645285Y-95336171D02*
X171978619Y-95336171D01*
X172121476Y-95859980D02*
X171645285Y-95859980D01*
X171645285Y-94859980D01*
X172121476Y-94859980D01*
X172550047Y-95859980D02*
X172550047Y-94859980D01*
X172788142Y-94859980D01*
X172931000Y-94907600D01*
X173026238Y-95002838D01*
X173073857Y-95098076D01*
X173121476Y-95288552D01*
X173121476Y-95431409D01*
X173073857Y-95621885D01*
X173026238Y-95717123D01*
X172931000Y-95812361D01*
X172788142Y-95859980D01*
X172550047Y-95859980D01*
X173502428Y-94955219D02*
X173550047Y-94907600D01*
X173645285Y-94859980D01*
X173883380Y-94859980D01*
X173978619Y-94907600D01*
X174026238Y-94955219D01*
X174073857Y-95050457D01*
X174073857Y-95145695D01*
X174026238Y-95288552D01*
X173454809Y-95859980D01*
X174073857Y-95859980D01*
X149105197Y-135743498D02*
X149105197Y-134943498D01*
X149295673Y-134943498D01*
X149409959Y-134981594D01*
X149486149Y-135057784D01*
X149524245Y-135133974D01*
X149562340Y-135286355D01*
X149562340Y-135400641D01*
X149524245Y-135553022D01*
X149486149Y-135629213D01*
X149409959Y-135705403D01*
X149295673Y-135743498D01*
X149105197Y-135743498D01*
X150324245Y-135743498D02*
X149867102Y-135743498D01*
X150095673Y-135743498D02*
X150095673Y-134943498D01*
X150019483Y-135057784D01*
X149943292Y-135133974D01*
X149867102Y-135172070D01*
X150590911Y-134943498D02*
X151124245Y-134943498D01*
X150781387Y-135743498D01*
X195222952Y-106370380D02*
X194746761Y-106370380D01*
X194746761Y-105370380D01*
X195556285Y-105846571D02*
X195889619Y-105846571D01*
X196032476Y-106370380D02*
X195556285Y-106370380D01*
X195556285Y-105370380D01*
X196032476Y-105370380D01*
X196461047Y-106370380D02*
X196461047Y-105370380D01*
X196699142Y-105370380D01*
X196842000Y-105418000D01*
X196937238Y-105513238D01*
X196984857Y-105608476D01*
X197032476Y-105798952D01*
X197032476Y-105941809D01*
X196984857Y-106132285D01*
X196937238Y-106227523D01*
X196842000Y-106322761D01*
X196699142Y-106370380D01*
X196461047Y-106370380D01*
X197984857Y-106370380D02*
X197413428Y-106370380D01*
X197699142Y-106370380D02*
X197699142Y-105370380D01*
X197603904Y-105513238D01*
X197508666Y-105608476D01*
X197413428Y-105656095D01*
X128455102Y-133246355D02*
X128597959Y-133293974D01*
X128836054Y-133293974D01*
X128931292Y-133246355D01*
X128978911Y-133198736D01*
X129026530Y-133103498D01*
X129026530Y-133008260D01*
X128978911Y-132913022D01*
X128931292Y-132865403D01*
X128836054Y-132817784D01*
X128645578Y-132770165D01*
X128550340Y-132722546D01*
X128502721Y-132674927D01*
X128455102Y-132579689D01*
X128455102Y-132484451D01*
X128502721Y-132389213D01*
X128550340Y-132341594D01*
X128645578Y-132293974D01*
X128883673Y-132293974D01*
X129026530Y-132341594D01*
X129359864Y-132293974D02*
X129597959Y-133293974D01*
X129788435Y-132579689D01*
X129978911Y-133293974D01*
X130217006Y-132293974D01*
X131121768Y-133293974D02*
X130550340Y-133293974D01*
X130836054Y-133293974D02*
X130836054Y-132293974D01*
X130740816Y-132436832D01*
X130645578Y-132532070D01*
X130550340Y-132579689D01*
X131978911Y-132293974D02*
X131788435Y-132293974D01*
X131693197Y-132341594D01*
X131645578Y-132389213D01*
X131550340Y-132532070D01*
X131502721Y-132722546D01*
X131502721Y-133103498D01*
X131550340Y-133198736D01*
X131597959Y-133246355D01*
X131693197Y-133293974D01*
X131883673Y-133293974D01*
X131978911Y-133246355D01*
X132026530Y-133198736D01*
X132074149Y-133103498D01*
X132074149Y-132865403D01*
X132026530Y-132770165D01*
X131978911Y-132722546D01*
X131883673Y-132674927D01*
X131693197Y-132674927D01*
X131597959Y-132722546D01*
X131550340Y-132770165D01*
X131502721Y-132865403D01*
X189908382Y-114270656D02*
X189108382Y-114270656D01*
X189108382Y-114080180D01*
X189146478Y-113965894D01*
X189222668Y-113889704D01*
X189298858Y-113851608D01*
X189451239Y-113813513D01*
X189565525Y-113813513D01*
X189717906Y-113851608D01*
X189794097Y-113889704D01*
X189870287Y-113965894D01*
X189908382Y-114080180D01*
X189908382Y-114270656D01*
X189908382Y-113051608D02*
X189908382Y-113508751D01*
X189908382Y-113280180D02*
X189108382Y-113280180D01*
X189222668Y-113356370D01*
X189298858Y-113432561D01*
X189336954Y-113508751D01*
X189108382Y-112327799D02*
X189108382Y-112708751D01*
X189489335Y-112746847D01*
X189451239Y-112708751D01*
X189413144Y-112632561D01*
X189413144Y-112442085D01*
X189451239Y-112365894D01*
X189489335Y-112327799D01*
X189565525Y-112289704D01*
X189756001Y-112289704D01*
X189832192Y-112327799D01*
X189870287Y-112365894D01*
X189908382Y-112442085D01*
X189908382Y-112632561D01*
X189870287Y-112708751D01*
X189832192Y-112746847D01*
X113885732Y-114782056D02*
X113085732Y-114782056D01*
X113085732Y-114591580D01*
X113123828Y-114477294D01*
X113200018Y-114401104D01*
X113276208Y-114363008D01*
X113428589Y-114324913D01*
X113542875Y-114324913D01*
X113695256Y-114363008D01*
X113771447Y-114401104D01*
X113847637Y-114477294D01*
X113885732Y-114591580D01*
X113885732Y-114782056D01*
X113885732Y-113563008D02*
X113885732Y-114020151D01*
X113885732Y-113791580D02*
X113085732Y-113791580D01*
X113200018Y-113867770D01*
X113276208Y-113943961D01*
X113314304Y-114020151D01*
X113885732Y-112801104D02*
X113885732Y-113258247D01*
X113885732Y-113029675D02*
X113085732Y-113029675D01*
X113200018Y-113105866D01*
X113276208Y-113182056D01*
X113314304Y-113258247D01*
X171611285Y-116800380D02*
X172182714Y-116800380D01*
X171897000Y-117800380D02*
X171897000Y-116800380D01*
X172516047Y-117800380D02*
X172516047Y-116800380D01*
X172516047Y-117276571D02*
X173087476Y-117276571D01*
X173087476Y-117800380D02*
X173087476Y-116800380D01*
X173992238Y-117133714D02*
X173992238Y-117800380D01*
X173754142Y-116752761D02*
X173516047Y-117467047D01*
X174135095Y-117467047D01*
X194598340Y-118460774D02*
X194598340Y-117460774D01*
X194931673Y-118175060D01*
X195265006Y-117460774D01*
X195265006Y-118460774D01*
X196312626Y-118365536D02*
X196265006Y-118413155D01*
X196122149Y-118460774D01*
X196026911Y-118460774D01*
X195884054Y-118413155D01*
X195788816Y-118317917D01*
X195741197Y-118222679D01*
X195693578Y-118032203D01*
X195693578Y-117889346D01*
X195741197Y-117698870D01*
X195788816Y-117603632D01*
X195884054Y-117508394D01*
X196026911Y-117460774D01*
X196122149Y-117460774D01*
X196265006Y-117508394D01*
X196312626Y-117556013D01*
X196741197Y-117460774D02*
X196741197Y-118270298D01*
X196788816Y-118365536D01*
X196836435Y-118413155D01*
X196931673Y-118460774D01*
X197122149Y-118460774D01*
X197217387Y-118413155D01*
X197265006Y-118365536D01*
X197312626Y-118270298D01*
X197312626Y-117460774D01*
X197550721Y-118556013D02*
X198312626Y-118556013D01*
X199074530Y-118460774D02*
X198503102Y-118460774D01*
X198788816Y-118460774D02*
X198788816Y-117460774D01*
X198693578Y-117603632D01*
X198598340Y-117698870D01*
X198503102Y-117746489D01*
X146475552Y-92329380D02*
X145999361Y-92329380D01*
X145999361Y-91329380D01*
X146808885Y-91805571D02*
X147142219Y-91805571D01*
X147285076Y-92329380D02*
X146808885Y-92329380D01*
X146808885Y-91329380D01*
X147285076Y-91329380D01*
X147713647Y-92329380D02*
X147713647Y-91329380D01*
X147951742Y-91329380D01*
X148094600Y-91377000D01*
X148189838Y-91472238D01*
X148237457Y-91567476D01*
X148285076Y-91757952D01*
X148285076Y-91900809D01*
X148237457Y-92091285D01*
X148189838Y-92186523D01*
X148094600Y-92281761D01*
X147951742Y-92329380D01*
X147713647Y-92329380D01*
X148618409Y-91329380D02*
X149237457Y-91329380D01*
X148904123Y-91710333D01*
X149046980Y-91710333D01*
X149142219Y-91757952D01*
X149189838Y-91805571D01*
X149237457Y-91900809D01*
X149237457Y-92138904D01*
X149189838Y-92234142D01*
X149142219Y-92281761D01*
X149046980Y-92329380D01*
X148761266Y-92329380D01*
X148666028Y-92281761D01*
X148618409Y-92234142D01*
X170885532Y-92247704D02*
X170085532Y-92247704D01*
X170085532Y-92057228D01*
X170123628Y-91942942D01*
X170199818Y-91866751D01*
X170276008Y-91828656D01*
X170428389Y-91790561D01*
X170542675Y-91790561D01*
X170695056Y-91828656D01*
X170771247Y-91866751D01*
X170847437Y-91942942D01*
X170885532Y-92057228D01*
X170885532Y-92247704D01*
X170885532Y-91409608D02*
X170885532Y-91257228D01*
X170847437Y-91181037D01*
X170809342Y-91142942D01*
X170695056Y-91066751D01*
X170542675Y-91028656D01*
X170237913Y-91028656D01*
X170161723Y-91066751D01*
X170123628Y-91104847D01*
X170085532Y-91181037D01*
X170085532Y-91333418D01*
X170123628Y-91409608D01*
X170161723Y-91447704D01*
X170237913Y-91485799D01*
X170428389Y-91485799D01*
X170504580Y-91447704D01*
X170542675Y-91409608D01*
X170580770Y-91333418D01*
X170580770Y-91181037D01*
X170542675Y-91104847D01*
X170504580Y-91066751D01*
X170428389Y-91028656D01*
X205339718Y-118697819D02*
X205339718Y-118126391D01*
X206339718Y-118412105D02*
X205339718Y-118412105D01*
X206339718Y-117221629D02*
X205863528Y-117554962D01*
X206339718Y-117793057D02*
X205339718Y-117793057D01*
X205339718Y-117412105D01*
X205387338Y-117316867D01*
X205434957Y-117269248D01*
X205530195Y-117221629D01*
X205673052Y-117221629D01*
X205768290Y-117269248D01*
X205815909Y-117316867D01*
X205863528Y-117412105D01*
X205863528Y-117793057D01*
X206339718Y-116221629D02*
X205863528Y-116554962D01*
X206339718Y-116793057D02*
X205339718Y-116793057D01*
X205339718Y-116412105D01*
X205387338Y-116316867D01*
X205434957Y-116269248D01*
X205530195Y-116221629D01*
X205673052Y-116221629D01*
X205768290Y-116269248D01*
X205815909Y-116316867D01*
X205863528Y-116412105D01*
X205863528Y-116793057D01*
X206292099Y-115840676D02*
X206339718Y-115697819D01*
X206339718Y-115459724D01*
X206292099Y-115364486D01*
X206244480Y-115316867D01*
X206149242Y-115269248D01*
X206054004Y-115269248D01*
X205958766Y-115316867D01*
X205911147Y-115364486D01*
X205863528Y-115459724D01*
X205815909Y-115650200D01*
X205768290Y-115745438D01*
X205720671Y-115793057D01*
X205625433Y-115840676D01*
X205530195Y-115840676D01*
X205434957Y-115793057D01*
X205387338Y-115745438D01*
X205339718Y-115650200D01*
X205339718Y-115412105D01*
X205387338Y-115269248D01*
X205339718Y-118697819D02*
X205339718Y-118126391D01*
X206339718Y-118412105D02*
X205339718Y-118412105D01*
X206339718Y-117221629D02*
X205863528Y-117554962D01*
X206339718Y-117793057D02*
X205339718Y-117793057D01*
X205339718Y-117412105D01*
X205387338Y-117316867D01*
X205434957Y-117269248D01*
X205530195Y-117221629D01*
X205673052Y-117221629D01*
X205768290Y-117269248D01*
X205815909Y-117316867D01*
X205863528Y-117412105D01*
X205863528Y-117793057D01*
X206339718Y-116221629D02*
X205863528Y-116554962D01*
X206339718Y-116793057D02*
X205339718Y-116793057D01*
X205339718Y-116412105D01*
X205387338Y-116316867D01*
X205434957Y-116269248D01*
X205530195Y-116221629D01*
X205673052Y-116221629D01*
X205768290Y-116269248D01*
X205815909Y-116316867D01*
X205863528Y-116412105D01*
X205863528Y-116793057D01*
X206292099Y-115840676D02*
X206339718Y-115697819D01*
X206339718Y-115459724D01*
X206292099Y-115364486D01*
X206244480Y-115316867D01*
X206149242Y-115269248D01*
X206054004Y-115269248D01*
X205958766Y-115316867D01*
X205911147Y-115364486D01*
X205863528Y-115459724D01*
X205815909Y-115650200D01*
X205768290Y-115745438D01*
X205720671Y-115793057D01*
X205625433Y-115840676D01*
X205530195Y-115840676D01*
X205434957Y-115793057D01*
X205387338Y-115745438D01*
X205339718Y-115650200D01*
X205339718Y-115412105D01*
X205387338Y-115269248D01*
X208859714Y-128747374D02*
X208859714Y-127747374D01*
X209193047Y-128461660D01*
X209526380Y-127747374D01*
X209526380Y-128747374D01*
X210574000Y-128652136D02*
X210526380Y-128699755D01*
X210383523Y-128747374D01*
X210288285Y-128747374D01*
X210145428Y-128699755D01*
X210050190Y-128604517D01*
X210002571Y-128509279D01*
X209954952Y-128318803D01*
X209954952Y-128175946D01*
X210002571Y-127985470D01*
X210050190Y-127890232D01*
X210145428Y-127794994D01*
X210288285Y-127747374D01*
X210383523Y-127747374D01*
X210526380Y-127794994D01*
X210574000Y-127842613D01*
X211002571Y-127747374D02*
X211002571Y-128556898D01*
X211050190Y-128652136D01*
X211097809Y-128699755D01*
X211193047Y-128747374D01*
X211383523Y-128747374D01*
X211478761Y-128699755D01*
X211526380Y-128652136D01*
X211574000Y-128556898D01*
X211574000Y-127747374D01*
X211812095Y-128842613D02*
X212574000Y-128842613D01*
X212764476Y-127842613D02*
X212812095Y-127794994D01*
X212907333Y-127747374D01*
X213145428Y-127747374D01*
X213240666Y-127794994D01*
X213288285Y-127842613D01*
X213335904Y-127937851D01*
X213335904Y-128033089D01*
X213288285Y-128175946D01*
X212716857Y-128747374D01*
X213335904Y-128747374D01*
X202261146Y-92935038D02*
X202975432Y-92935038D01*
X203118289Y-92982657D01*
X203213527Y-93077895D01*
X203261146Y-93220753D01*
X203261146Y-93315991D01*
X203261146Y-92458848D02*
X202261146Y-92458848D01*
X202261146Y-92077895D01*
X202308766Y-91982657D01*
X202356385Y-91935038D01*
X202451623Y-91887419D01*
X202594480Y-91887419D01*
X202689718Y-91935038D01*
X202737337Y-91982657D01*
X202784956Y-92077895D01*
X202784956Y-92458848D01*
X203261146Y-90935038D02*
X203261146Y-91506467D01*
X203261146Y-91220753D02*
X202261146Y-91220753D01*
X202404004Y-91315991D01*
X202499242Y-91411229D01*
X202546861Y-91506467D01*
X202261146Y-90315991D02*
X202261146Y-90220753D01*
X202308766Y-90125515D01*
X202356385Y-90077895D01*
X202451623Y-90030276D01*
X202642099Y-89982657D01*
X202880194Y-89982657D01*
X203070670Y-90030276D01*
X203165908Y-90077895D01*
X203213527Y-90125515D01*
X203261146Y-90220753D01*
X203261146Y-90315991D01*
X203213527Y-90411229D01*
X203165908Y-90458848D01*
X203070670Y-90506467D01*
X202880194Y-90554086D01*
X202642099Y-90554086D01*
X202451623Y-90506467D01*
X202356385Y-90458848D01*
X202308766Y-90411229D01*
X202261146Y-90315991D01*
X200962511Y-146060774D02*
X201533940Y-146060774D01*
X201248226Y-147060774D02*
X201248226Y-146060774D01*
X201867273Y-147060774D02*
X201867273Y-146060774D01*
X201867273Y-146536965D02*
X202438702Y-146536965D01*
X202438702Y-147060774D02*
X202438702Y-146060774D01*
X203391083Y-146060774D02*
X202914892Y-146060774D01*
X202867273Y-146536965D01*
X202914892Y-146489346D01*
X203010130Y-146441727D01*
X203248226Y-146441727D01*
X203343464Y-146489346D01*
X203391083Y-146536965D01*
X203438702Y-146632203D01*
X203438702Y-146870298D01*
X203391083Y-146965536D01*
X203343464Y-147013155D01*
X203248226Y-147060774D01*
X203010130Y-147060774D01*
X202914892Y-147013155D01*
X202867273Y-146965536D01*
X121639152Y-95859980D02*
X121162961Y-95859980D01*
X121162961Y-94859980D01*
X121972485Y-95336171D02*
X122305819Y-95336171D01*
X122448676Y-95859980D02*
X121972485Y-95859980D01*
X121972485Y-94859980D01*
X122448676Y-94859980D01*
X122877247Y-95859980D02*
X122877247Y-94859980D01*
X123115342Y-94859980D01*
X123258200Y-94907600D01*
X123353438Y-95002838D01*
X123401057Y-95098076D01*
X123448676Y-95288552D01*
X123448676Y-95431409D01*
X123401057Y-95621885D01*
X123353438Y-95717123D01*
X123258200Y-95812361D01*
X123115342Y-95859980D01*
X122877247Y-95859980D01*
X124305819Y-95193314D02*
X124305819Y-95859980D01*
X124067723Y-94812361D02*
X123829628Y-95526647D01*
X124448676Y-95526647D01*
X151936132Y-89642476D02*
X151136132Y-89642476D01*
X151136132Y-89452000D01*
X151174228Y-89337714D01*
X151250418Y-89261523D01*
X151326608Y-89223428D01*
X151478989Y-89185333D01*
X151593275Y-89185333D01*
X151745656Y-89223428D01*
X151821847Y-89261523D01*
X151898037Y-89337714D01*
X151936132Y-89452000D01*
X151936132Y-89642476D01*
X151478989Y-88728190D02*
X151440894Y-88804380D01*
X151402799Y-88842476D01*
X151326608Y-88880571D01*
X151288513Y-88880571D01*
X151212323Y-88842476D01*
X151174228Y-88804380D01*
X151136132Y-88728190D01*
X151136132Y-88575809D01*
X151174228Y-88499619D01*
X151212323Y-88461523D01*
X151288513Y-88423428D01*
X151326608Y-88423428D01*
X151402799Y-88461523D01*
X151440894Y-88499619D01*
X151478989Y-88575809D01*
X151478989Y-88728190D01*
X151517085Y-88804380D01*
X151555180Y-88842476D01*
X151631370Y-88880571D01*
X151783751Y-88880571D01*
X151859942Y-88842476D01*
X151898037Y-88804380D01*
X151936132Y-88728190D01*
X151936132Y-88575809D01*
X151898037Y-88499619D01*
X151859942Y-88461523D01*
X151783751Y-88423428D01*
X151631370Y-88423428D01*
X151555180Y-88461523D01*
X151517085Y-88499619D01*
X151478989Y-88575809D01*
X144127068Y-123832524D02*
X144269925Y-123880143D01*
X144508020Y-123880143D01*
X144603258Y-123832524D01*
X144650877Y-123784905D01*
X144698496Y-123689667D01*
X144698496Y-123594429D01*
X144650877Y-123499191D01*
X144603258Y-123451572D01*
X144508020Y-123403953D01*
X144317544Y-123356334D01*
X144222306Y-123308715D01*
X144174687Y-123261096D01*
X144127068Y-123165858D01*
X144127068Y-123070620D01*
X144174687Y-122975382D01*
X144222306Y-122927763D01*
X144317544Y-122880143D01*
X144555639Y-122880143D01*
X144698496Y-122927763D01*
X145031830Y-122880143D02*
X145269925Y-123880143D01*
X145460401Y-123165858D01*
X145650877Y-123880143D01*
X145888972Y-122880143D01*
X146793734Y-123880143D02*
X146222306Y-123880143D01*
X146508020Y-123880143D02*
X146508020Y-122880143D01*
X146412782Y-123023001D01*
X146317544Y-123118239D01*
X146222306Y-123165858D01*
X147127068Y-122880143D02*
X147793734Y-122880143D01*
X147365163Y-123880143D01*
X204717433Y-92458848D02*
X205431719Y-92458848D01*
X205574576Y-92506467D01*
X205669814Y-92601705D01*
X205717433Y-92744562D01*
X205717433Y-92839800D01*
X205717433Y-91982657D02*
X204717433Y-91982657D01*
X204717433Y-91601705D01*
X204765053Y-91506467D01*
X204812672Y-91458848D01*
X204907910Y-91411229D01*
X205050767Y-91411229D01*
X205146005Y-91458848D01*
X205193624Y-91506467D01*
X205241243Y-91601705D01*
X205241243Y-91982657D01*
X205717433Y-90935038D02*
X205717433Y-90744562D01*
X205669814Y-90649324D01*
X205622195Y-90601705D01*
X205479338Y-90506467D01*
X205288862Y-90458848D01*
X204907910Y-90458848D01*
X204812672Y-90506467D01*
X204765053Y-90554086D01*
X204717433Y-90649324D01*
X204717433Y-90839800D01*
X204765053Y-90935038D01*
X204812672Y-90982657D01*
X204907910Y-91030276D01*
X205146005Y-91030276D01*
X205241243Y-90982657D01*
X205288862Y-90935038D01*
X205336481Y-90839800D01*
X205336481Y-90649324D01*
X205288862Y-90554086D01*
X205241243Y-90506467D01*
X205146005Y-90458848D01*
X189908382Y-95321056D02*
X189108382Y-95321056D01*
X189108382Y-95130580D01*
X189146478Y-95016294D01*
X189222668Y-94940104D01*
X189298858Y-94902008D01*
X189451239Y-94863913D01*
X189565525Y-94863913D01*
X189717906Y-94902008D01*
X189794097Y-94940104D01*
X189870287Y-95016294D01*
X189908382Y-95130580D01*
X189908382Y-95321056D01*
X189908382Y-94102008D02*
X189908382Y-94559151D01*
X189908382Y-94330580D02*
X189108382Y-94330580D01*
X189222668Y-94406770D01*
X189298858Y-94482961D01*
X189336954Y-94559151D01*
X189108382Y-93606770D02*
X189108382Y-93530580D01*
X189146478Y-93454389D01*
X189184573Y-93416294D01*
X189260763Y-93378199D01*
X189413144Y-93340104D01*
X189603620Y-93340104D01*
X189756001Y-93378199D01*
X189832192Y-93416294D01*
X189870287Y-93454389D01*
X189908382Y-93530580D01*
X189908382Y-93606770D01*
X189870287Y-93682961D01*
X189832192Y-93721056D01*
X189756001Y-93759151D01*
X189603620Y-93797247D01*
X189413144Y-93797247D01*
X189260763Y-93759151D01*
X189184573Y-93721056D01*
X189146478Y-93682961D01*
X189108382Y-93606770D01*
X113179911Y-119593974D02*
X113751340Y-119593974D01*
X113465626Y-120593974D02*
X113465626Y-119593974D01*
X114084673Y-120593974D02*
X114084673Y-119593974D01*
X114084673Y-120070165D02*
X114656102Y-120070165D01*
X114656102Y-120593974D02*
X114656102Y-119593974D01*
X115037054Y-119593974D02*
X115656102Y-119593974D01*
X115322768Y-119974927D01*
X115465626Y-119974927D01*
X115560864Y-120022546D01*
X115608483Y-120070165D01*
X115656102Y-120165403D01*
X115656102Y-120403498D01*
X115608483Y-120498736D01*
X115560864Y-120546355D01*
X115465626Y-120593974D01*
X115179911Y-120593974D01*
X115084673Y-120546355D01*
X115037054Y-120498736D01*
X113885732Y-95349904D02*
X113085732Y-95349904D01*
X113085732Y-95159428D01*
X113123828Y-95045142D01*
X113200018Y-94968951D01*
X113276208Y-94930856D01*
X113428589Y-94892761D01*
X113542875Y-94892761D01*
X113695256Y-94930856D01*
X113771447Y-94968951D01*
X113847637Y-95045142D01*
X113885732Y-95159428D01*
X113885732Y-95349904D01*
X113085732Y-94207047D02*
X113085732Y-94359428D01*
X113123828Y-94435618D01*
X113161923Y-94473713D01*
X113276208Y-94549904D01*
X113428589Y-94587999D01*
X113733351Y-94587999D01*
X113809542Y-94549904D01*
X113847637Y-94511808D01*
X113885732Y-94435618D01*
X113885732Y-94283237D01*
X113847637Y-94207047D01*
X113809542Y-94168951D01*
X113733351Y-94130856D01*
X113542875Y-94130856D01*
X113466685Y-94168951D01*
X113428589Y-94207047D01*
X113390494Y-94283237D01*
X113390494Y-94435618D01*
X113428589Y-94511808D01*
X113466685Y-94549904D01*
X113542875Y-94587999D01*
X132832582Y-73248304D02*
X132032582Y-73248304D01*
X132032582Y-73057828D01*
X132070678Y-72943542D01*
X132146868Y-72867351D01*
X132223058Y-72829256D01*
X132375439Y-72791161D01*
X132489725Y-72791161D01*
X132642106Y-72829256D01*
X132718297Y-72867351D01*
X132794487Y-72943542D01*
X132832582Y-73057828D01*
X132832582Y-73248304D01*
X132108773Y-72486399D02*
X132070678Y-72448304D01*
X132032582Y-72372113D01*
X132032582Y-72181637D01*
X132070678Y-72105447D01*
X132108773Y-72067351D01*
X132184963Y-72029256D01*
X132261154Y-72029256D01*
X132375439Y-72067351D01*
X132832582Y-72524494D01*
X132832582Y-72029256D01*
X132832582Y-111831656D02*
X132032582Y-111831656D01*
X132032582Y-111641180D01*
X132070678Y-111526894D01*
X132146868Y-111450704D01*
X132223058Y-111412608D01*
X132375439Y-111374513D01*
X132489725Y-111374513D01*
X132642106Y-111412608D01*
X132718297Y-111450704D01*
X132794487Y-111526894D01*
X132832582Y-111641180D01*
X132832582Y-111831656D01*
X132832582Y-110612608D02*
X132832582Y-111069751D01*
X132832582Y-110841180D02*
X132032582Y-110841180D01*
X132146868Y-110917370D01*
X132223058Y-110993561D01*
X132261154Y-111069751D01*
X132108773Y-110307847D02*
X132070678Y-110269751D01*
X132032582Y-110193561D01*
X132032582Y-110003085D01*
X132070678Y-109926894D01*
X132108773Y-109888799D01*
X132184963Y-109850704D01*
X132261154Y-109850704D01*
X132375439Y-109888799D01*
X132832582Y-110345942D01*
X132832582Y-109850704D01*
X170885532Y-73135676D02*
X170085532Y-73135676D01*
X170085532Y-72945200D01*
X170123628Y-72830914D01*
X170199818Y-72754723D01*
X170276008Y-72716628D01*
X170428389Y-72678533D01*
X170542675Y-72678533D01*
X170695056Y-72716628D01*
X170771247Y-72754723D01*
X170847437Y-72830914D01*
X170885532Y-72945200D01*
X170885532Y-73135676D01*
X170352199Y-71992819D02*
X170885532Y-71992819D01*
X170047437Y-72183295D02*
X170618866Y-72373771D01*
X170618866Y-71878533D01*
X185507191Y-129241022D02*
X184707191Y-129241022D01*
X184707191Y-129050546D01*
X184745287Y-128936260D01*
X184821477Y-128860070D01*
X184897667Y-128821974D01*
X185050048Y-128783879D01*
X185164334Y-128783879D01*
X185316715Y-128821974D01*
X185392906Y-128860070D01*
X185469096Y-128936260D01*
X185507191Y-129050546D01*
X185507191Y-129241022D01*
X185507191Y-128021974D02*
X185507191Y-128479117D01*
X185507191Y-128250546D02*
X184707191Y-128250546D01*
X184821477Y-128326736D01*
X184897667Y-128402927D01*
X184935763Y-128479117D01*
X185050048Y-127564832D02*
X185011953Y-127641022D01*
X184973858Y-127679117D01*
X184897667Y-127717213D01*
X184859572Y-127717213D01*
X184783382Y-127679117D01*
X184745287Y-127641022D01*
X184707191Y-127564832D01*
X184707191Y-127412451D01*
X184745287Y-127336260D01*
X184783382Y-127298165D01*
X184859572Y-127260070D01*
X184897667Y-127260070D01*
X184973858Y-127298165D01*
X185011953Y-127336260D01*
X185050048Y-127412451D01*
X185050048Y-127564832D01*
X185088144Y-127641022D01*
X185126239Y-127679117D01*
X185202429Y-127717213D01*
X185354810Y-127717213D01*
X185431001Y-127679117D01*
X185469096Y-127641022D01*
X185507191Y-127564832D01*
X185507191Y-127412451D01*
X185469096Y-127336260D01*
X185431001Y-127298165D01*
X185354810Y-127260070D01*
X185202429Y-127260070D01*
X185126239Y-127298165D01*
X185088144Y-127336260D01*
X185050048Y-127412451D01*
X205068799Y-80901895D02*
X204735466Y-80425705D01*
X204497370Y-80901895D02*
X204497370Y-79901895D01*
X204878323Y-79901895D01*
X204973561Y-79949515D01*
X205021180Y-79997134D01*
X205068799Y-80092372D01*
X205068799Y-80235229D01*
X205021180Y-80330467D01*
X204973561Y-80378086D01*
X204878323Y-80425705D01*
X204497370Y-80425705D01*
X205449751Y-79997134D02*
X205497370Y-79949515D01*
X205592608Y-79901895D01*
X205830704Y-79901895D01*
X205925942Y-79949515D01*
X205973561Y-79997134D01*
X206021180Y-80092372D01*
X206021180Y-80187610D01*
X205973561Y-80330467D01*
X205402132Y-80901895D01*
X206021180Y-80901895D01*
X184485114Y-62159685D02*
X184151780Y-61683495D01*
X183913685Y-62159685D02*
X183913685Y-61159685D01*
X184294638Y-61159685D01*
X184389876Y-61207305D01*
X184437495Y-61254924D01*
X184485114Y-61350162D01*
X184485114Y-61493019D01*
X184437495Y-61588257D01*
X184389876Y-61635876D01*
X184294638Y-61683495D01*
X183913685Y-61683495D01*
X184866066Y-62112066D02*
X185008923Y-62159685D01*
X185247019Y-62159685D01*
X185342257Y-62112066D01*
X185389876Y-62064447D01*
X185437495Y-61969209D01*
X185437495Y-61873971D01*
X185389876Y-61778733D01*
X185342257Y-61731114D01*
X185247019Y-61683495D01*
X185056542Y-61635876D01*
X184961304Y-61588257D01*
X184913685Y-61540638D01*
X184866066Y-61445400D01*
X184866066Y-61350162D01*
X184913685Y-61254924D01*
X184961304Y-61207305D01*
X185056542Y-61159685D01*
X185294638Y-61159685D01*
X185437495Y-61207305D01*
X185770828Y-61159685D02*
X186008923Y-62159685D01*
X186199400Y-61445400D01*
X186389876Y-62159685D01*
X186627971Y-61159685D01*
X187532733Y-62159685D02*
X186961304Y-62159685D01*
X187247019Y-62159685D02*
X187247019Y-61159685D01*
X187151780Y-61302543D01*
X187056542Y-61397781D01*
X186961304Y-61445400D01*
D12*
X200258499Y-111773305D02*
X200258499Y-112130448D01*
X200234689Y-112201876D01*
X200187070Y-112249495D01*
X200115642Y-112273305D01*
X200068023Y-112273305D01*
X200496594Y-112273305D02*
X200496594Y-111773305D01*
X200687070Y-111773305D01*
X200734689Y-111797115D01*
X200758499Y-111820924D01*
X200782308Y-111868543D01*
X200782308Y-111939972D01*
X200758499Y-111987591D01*
X200734689Y-112011400D01*
X200687070Y-112035210D01*
X200496594Y-112035210D01*
X201234689Y-111773305D02*
X200996594Y-111773305D01*
X200972785Y-112011400D01*
X200996594Y-111987591D01*
X201044213Y-111963781D01*
X201163261Y-111963781D01*
X201210880Y-111987591D01*
X201234689Y-112011400D01*
X201258499Y-112059019D01*
X201258499Y-112178067D01*
X201234689Y-112225686D01*
X201210880Y-112249495D01*
X201163261Y-112273305D01*
X201044213Y-112273305D01*
X200996594Y-112249495D01*
X200972785Y-112225686D01*
D11*
X190824530Y-129241022D02*
X190024530Y-129241022D01*
X190024530Y-129050546D01*
X190062626Y-128936260D01*
X190138816Y-128860070D01*
X190215006Y-128821974D01*
X190367387Y-128783879D01*
X190481673Y-128783879D01*
X190634054Y-128821974D01*
X190710245Y-128860070D01*
X190786435Y-128936260D01*
X190824530Y-129050546D01*
X190824530Y-129241022D01*
X190100721Y-128479117D02*
X190062626Y-128441022D01*
X190024530Y-128364832D01*
X190024530Y-128174355D01*
X190062626Y-128098165D01*
X190100721Y-128060070D01*
X190176911Y-128021974D01*
X190253102Y-128021974D01*
X190367387Y-128060070D01*
X190824530Y-128517213D01*
X190824530Y-128021974D01*
X190024530Y-127526736D02*
X190024530Y-127450546D01*
X190062626Y-127374355D01*
X190100721Y-127336260D01*
X190176911Y-127298165D01*
X190329292Y-127260070D01*
X190519768Y-127260070D01*
X190672149Y-127298165D01*
X190748340Y-127336260D01*
X190786435Y-127374355D01*
X190824530Y-127450546D01*
X190824530Y-127526736D01*
X190786435Y-127602927D01*
X190748340Y-127641022D01*
X190672149Y-127679117D01*
X190519768Y-127717213D01*
X190329292Y-127717213D01*
X190176911Y-127679117D01*
X190100721Y-127641022D01*
X190062626Y-127602927D01*
X190024530Y-127526736D01*
X188165860Y-129241022D02*
X187365860Y-129241022D01*
X187365860Y-129050546D01*
X187403956Y-128936260D01*
X187480146Y-128860070D01*
X187556336Y-128821974D01*
X187708717Y-128783879D01*
X187823003Y-128783879D01*
X187975384Y-128821974D01*
X188051575Y-128860070D01*
X188127765Y-128936260D01*
X188165860Y-129050546D01*
X188165860Y-129241022D01*
X188165860Y-128021974D02*
X188165860Y-128479117D01*
X188165860Y-128250546D02*
X187365860Y-128250546D01*
X187480146Y-128326736D01*
X187556336Y-128402927D01*
X187594432Y-128479117D01*
X188165860Y-127641022D02*
X188165860Y-127488641D01*
X188127765Y-127412451D01*
X188089670Y-127374355D01*
X187975384Y-127298165D01*
X187823003Y-127260070D01*
X187518241Y-127260070D01*
X187442051Y-127298165D01*
X187403956Y-127336260D01*
X187365860Y-127412451D01*
X187365860Y-127564832D01*
X187403956Y-127641022D01*
X187442051Y-127679117D01*
X187518241Y-127717213D01*
X187708717Y-127717213D01*
X187784908Y-127679117D01*
X187823003Y-127641022D01*
X187861098Y-127564832D01*
X187861098Y-127412451D01*
X187823003Y-127336260D01*
X187784908Y-127298165D01*
X187708717Y-127260070D01*
X133353145Y-128249051D02*
X133353145Y-127449051D01*
X133543621Y-127449051D01*
X133657907Y-127487147D01*
X133734097Y-127563337D01*
X133772193Y-127639527D01*
X133810288Y-127791908D01*
X133810288Y-127906194D01*
X133772193Y-128058575D01*
X133734097Y-128134766D01*
X133657907Y-128210956D01*
X133543621Y-128249051D01*
X133353145Y-128249051D01*
X134572193Y-128249051D02*
X134115050Y-128249051D01*
X134343621Y-128249051D02*
X134343621Y-127449051D01*
X134267431Y-127563337D01*
X134191240Y-127639527D01*
X134115050Y-127677623D01*
X135257907Y-127449051D02*
X135105526Y-127449051D01*
X135029335Y-127487147D01*
X134991240Y-127525242D01*
X134915050Y-127639527D01*
X134876954Y-127791908D01*
X134876954Y-128096670D01*
X134915050Y-128172861D01*
X134953145Y-128210956D01*
X135029335Y-128249051D01*
X135181716Y-128249051D01*
X135257907Y-128210956D01*
X135296002Y-128172861D01*
X135334097Y-128096670D01*
X135334097Y-127906194D01*
X135296002Y-127830004D01*
X135257907Y-127791908D01*
X135181716Y-127753813D01*
X135029335Y-127753813D01*
X134953145Y-127791908D01*
X134915050Y-127830004D01*
X134876954Y-127906194D01*
D10*
X129450196Y-126079803D02*
X130712196Y-126079803D01*
X133804196Y-126079803D02*
X135022196Y-126079803D01*
X135792196Y-122259803D02*
X135792196Y-120959803D01*
X133804196Y-126669803D02*
X133804196Y-126079803D01*
X128680196Y-124751803D02*
X128680196Y-126429803D01*
X133404596Y-126936203D02*
X131067796Y-126936203D01*
X129450196Y-126429803D02*
X129450196Y-126079803D01*
X128680196Y-120959803D02*
X128680196Y-122259803D01*
X128680196Y-126429803D02*
X129450196Y-126429803D01*
X135022196Y-126079803D02*
X135022196Y-126429803D01*
X135792196Y-120959803D02*
X128680196Y-120959803D01*
X135792196Y-126429803D02*
X135792196Y-124751803D01*
X135022196Y-126429803D02*
X135792196Y-126429803D01*
D11*
X208890072Y-133038456D02*
X217221183Y-135270770D01*
X207878608Y-136813294D02*
X208890072Y-133038456D01*
X217871875Y-141581319D02*
X216326394Y-141167208D01*
X217889561Y-141566273D02*
X214402569Y-140631937D01*
X218377608Y-139693900D02*
X217859970Y-141625751D01*
X207866702Y-136857727D02*
X212732722Y-138209195D01*
X218912932Y-137747003D02*
X217891890Y-141557580D01*
X214403952Y-140607460D02*
G75*
G03*
X212707538Y-138206589I-2048642J352229D01*
G01*
X218920425Y-137676541D02*
G75*
G03*
X217221183Y-135270770I-2052506J353265D01*
G01*
D10*
X208024277Y-108755229D02*
X208624277Y-108755229D01*
X208624277Y-111555229D02*
X208024277Y-111555229D01*
X209324277Y-109455229D02*
X209324277Y-110855229D01*
X207324277Y-110855229D02*
X207324277Y-109455229D01*
X208624277Y-111555229D02*
G75*
G03*
X209324277Y-110855229I0J700000D01*
G01*
X208024277Y-108755229D02*
G75*
G03*
X207324277Y-109455229I-1J-699999D01*
G01*
X209324277Y-109455229D02*
G75*
G03*
X208624277Y-108755229I-699999J1D01*
G01*
X207324277Y-110855229D02*
G75*
G03*
X208024277Y-111555229I700000J0D01*
G01*
D11*
X122150155Y-68087965D02*
X122150155Y-64179965D01*
X133050155Y-70087965D02*
X129440155Y-70087965D01*
X122150155Y-64179965D02*
X130775155Y-64179965D01*
X122150155Y-68133965D02*
X127200155Y-68179965D01*
X133036966Y-68153075D02*
X133036966Y-70153075D01*
X133036966Y-70107075D02*
X131436966Y-70107075D01*
X133050155Y-66133965D02*
X133050155Y-70078965D01*
X129435156Y-70063964D02*
G75*
G03*
X127175155Y-68183965I-2070000J-190001D01*
G01*
X133039156Y-66063965D02*
G75*
G03*
X130775155Y-64179965I-2074000J-190000D01*
G01*
D13*
X171762028Y-107959228D02*
X174162028Y-107959228D01*
X174162028Y-107959228D02*
X174162028Y-113959228D01*
X174162028Y-113959228D02*
X171762028Y-113959228D01*
X171762028Y-113959228D02*
X171762028Y-107959228D01*
G36*
X174162028Y-113959228D02*
G01*
X171762028Y-113959228D01*
X171762028Y-113400828D01*
X174162028Y-113400828D01*
X174162028Y-113959228D01*
G37*
X174162028Y-113959228D02*
X171762028Y-113959228D01*
X171762028Y-113400828D01*
X174162028Y-113400828D01*
X174162028Y-113959228D01*
X152812628Y-67371628D02*
X155212628Y-67371628D01*
X155212628Y-67371628D02*
X155212628Y-73371628D01*
X155212628Y-73371628D02*
X152812628Y-73371628D01*
X152812628Y-73371628D02*
X152812628Y-67371628D01*
G36*
X155212628Y-73371628D02*
G01*
X152812628Y-73371628D01*
X152812628Y-72813228D01*
X155212628Y-72813228D01*
X155212628Y-73371628D01*
G37*
X155212628Y-73371628D02*
X152812628Y-73371628D01*
X152812628Y-72813228D01*
X155212628Y-72813228D01*
X155212628Y-73371628D01*
D11*
X179149453Y-85724765D02*
X187774453Y-85724765D01*
X190036264Y-91651875D02*
X188436264Y-91651875D01*
X190036264Y-89697875D02*
X190036264Y-91697875D01*
X190049453Y-91632765D02*
X186439453Y-91632765D01*
X179149453Y-89678765D02*
X184199453Y-89724765D01*
X179149453Y-89632765D02*
X179149453Y-85724765D01*
X190049453Y-87678765D02*
X190049453Y-91623765D01*
X186434454Y-91608764D02*
G75*
G03*
X184174453Y-89728765I-2070000J-190001D01*
G01*
X190038454Y-87608765D02*
G75*
G03*
X187774453Y-85724765I-2074000J-190000D01*
G01*
D13*
X133709078Y-88984428D02*
X136109078Y-88984428D01*
X136109078Y-88984428D02*
X136109078Y-94984428D01*
X136109078Y-94984428D02*
X133709078Y-94984428D01*
X133709078Y-94984428D02*
X133709078Y-88984428D01*
G36*
X136109078Y-94984428D02*
G01*
X133709078Y-94984428D01*
X133709078Y-94426028D01*
X136109078Y-94426028D01*
X136109078Y-94984428D01*
G37*
X136109078Y-94984428D02*
X133709078Y-94984428D01*
X133709078Y-94426028D01*
X136109078Y-94426028D01*
X136109078Y-94984428D01*
X114762228Y-73009828D02*
X117162228Y-73009828D01*
X117162228Y-73009828D02*
X117162228Y-79009828D01*
X117162228Y-79009828D02*
X114762228Y-79009828D01*
X114762228Y-79009828D02*
X114762228Y-73009828D01*
G36*
X117162228Y-79009828D02*
G01*
X114762228Y-79009828D01*
X114762228Y-78451428D01*
X117162228Y-78451428D01*
X117162228Y-79009828D01*
G37*
X117162228Y-79009828D02*
X114762228Y-79009828D01*
X114762228Y-78451428D01*
X117162228Y-78451428D01*
X117162228Y-79009828D01*
X190784878Y-72550428D02*
X193184878Y-72550428D01*
X193184878Y-72550428D02*
X193184878Y-78550428D01*
X193184878Y-78550428D02*
X190784878Y-78550428D01*
X190784878Y-78550428D02*
X190784878Y-72550428D01*
G36*
X193184878Y-78550428D02*
G01*
X190784878Y-78550428D01*
X190784878Y-77992028D01*
X193184878Y-77992028D01*
X193184878Y-78550428D01*
G37*
X193184878Y-78550428D02*
X190784878Y-78550428D01*
X190784878Y-77992028D01*
X193184878Y-77992028D01*
X193184878Y-78550428D01*
D10*
X205484277Y-108755229D02*
X206084277Y-108755229D01*
X206784277Y-109455229D02*
X206784277Y-110855229D01*
X206084277Y-111555229D02*
X205484277Y-111555229D01*
X204784277Y-110855229D02*
X204784277Y-109455229D01*
X204784277Y-110855229D02*
G75*
G03*
X205484277Y-111555229I700000J0D01*
G01*
X206084277Y-111555229D02*
G75*
G03*
X206784277Y-110855229I0J700000D01*
G01*
X205484277Y-108755229D02*
G75*
G03*
X204784277Y-109455229I-1J-699999D01*
G01*
X206784277Y-109455229D02*
G75*
G03*
X206084277Y-108755229I-699999J1D01*
G01*
D13*
X152812628Y-105368028D02*
X155212628Y-105368028D01*
X155212628Y-105368028D02*
X155212628Y-111368028D01*
X155212628Y-111368028D02*
X152812628Y-111368028D01*
X152812628Y-111368028D02*
X152812628Y-105368028D01*
G36*
X155212628Y-111368028D02*
G01*
X152812628Y-111368028D01*
X152812628Y-110809628D01*
X155212628Y-110809628D01*
X155212628Y-111368028D01*
G37*
X155212628Y-111368028D02*
X152812628Y-111368028D01*
X152812628Y-110809628D01*
X155212628Y-110809628D01*
X155212628Y-111368028D01*
D11*
X141149555Y-65593205D02*
X146199555Y-65639205D01*
X141149555Y-61639205D02*
X149774555Y-61639205D01*
X152049555Y-67547205D02*
X148439555Y-67547205D01*
X152036366Y-67566315D02*
X150436366Y-67566315D01*
X152036366Y-65612315D02*
X152036366Y-67612315D01*
X141149555Y-65547205D02*
X141149555Y-61639205D01*
X152049555Y-63593205D02*
X152049555Y-67538205D01*
X152038556Y-63523205D02*
G75*
G03*
X149774555Y-61639205I-2074000J-190000D01*
G01*
X148434556Y-67523204D02*
G75*
G03*
X146174555Y-65643205I-2070000J-190001D01*
G01*
X209594277Y-105749302D02*
X209594277Y-108289302D01*
X199434277Y-108289302D02*
X209594277Y-108289302D01*
X199434277Y-108289302D02*
X199434277Y-105749302D01*
X199434277Y-105749302D02*
X209594277Y-105749302D01*
D10*
X203810798Y-83016483D02*
X203810798Y-84220611D01*
X201990798Y-83016483D02*
X201990798Y-84220611D01*
D11*
X190036264Y-110646875D02*
X188436264Y-110646875D01*
X179149453Y-108673765D02*
X184199453Y-108719765D01*
X179149453Y-108627765D02*
X179149453Y-104719765D01*
X179149453Y-104719765D02*
X187774453Y-104719765D01*
X190049453Y-106673765D02*
X190049453Y-110618765D01*
X190049453Y-110627765D02*
X186439453Y-110627765D01*
X190036264Y-108692875D02*
X190036264Y-110692875D01*
X190038454Y-106603765D02*
G75*
G03*
X187774453Y-104719765I-2074000J-190000D01*
G01*
X186434454Y-110603764D02*
G75*
G03*
X184174453Y-108723765I-2070000J-190001D01*
G01*
X103149955Y-109134365D02*
X108199955Y-109180365D01*
X114036766Y-109153475D02*
X114036766Y-111153475D01*
X114049955Y-111088365D02*
X110439955Y-111088365D01*
X114049955Y-107134365D02*
X114049955Y-111079365D01*
X103149955Y-105180365D02*
X111774955Y-105180365D01*
X114036766Y-111107475D02*
X112436766Y-111107475D01*
X103149955Y-109088365D02*
X103149955Y-105180365D01*
X114038956Y-107064365D02*
G75*
G03*
X111774955Y-105180365I-2074000J-190000D01*
G01*
X110434956Y-111064364D02*
G75*
G03*
X108174955Y-109184365I-2070000J-190001D01*
G01*
D10*
X216707363Y-135881713D02*
X219025585Y-136502879D01*
X206566502Y-137409110D02*
X207627660Y-133448814D01*
X211618416Y-141350957D02*
X211877236Y-140385031D01*
X206136165Y-147128925D02*
X205768742Y-147341057D01*
X216929150Y-144326878D02*
X215867992Y-148287174D01*
X211264863Y-140738584D02*
X212230789Y-140997404D01*
X204470067Y-145233109D02*
X215867992Y-148287174D01*
X205768742Y-147341057D02*
X205924033Y-146761502D01*
X219025585Y-136502879D02*
X217964426Y-140463175D01*
X205531226Y-141272813D02*
X204470067Y-145233109D01*
X205924033Y-146761502D02*
X206136165Y-147128925D01*
X207627660Y-133448814D02*
X209945882Y-134069980D01*
X212070919Y-134639382D02*
X214582326Y-135312311D01*
X214747826Y-140867994D02*
G75*
G03*
X214747826Y-140867994I-3000000J0D01*
G01*
D11*
X141149555Y-103547365D02*
X141149555Y-99639365D01*
X141149555Y-103593365D02*
X146199555Y-103639365D01*
X152036366Y-105566475D02*
X150436366Y-105566475D01*
X152036366Y-103612475D02*
X152036366Y-105612475D01*
X152049555Y-101593365D02*
X152049555Y-105538365D01*
X141149555Y-99639365D02*
X149774555Y-99639365D01*
X152049555Y-105547365D02*
X148439555Y-105547365D01*
X148434556Y-105523364D02*
G75*
G03*
X146174555Y-103643365I-2070000J-190001D01*
G01*
X152038556Y-101523365D02*
G75*
G03*
X149774555Y-99639365I-2074000J-190000D01*
G01*
X171036566Y-68152515D02*
X171036566Y-70152515D01*
X160149755Y-68133405D02*
X165199755Y-68179405D01*
X171049755Y-66133405D02*
X171049755Y-70078405D01*
X160149755Y-64179405D02*
X168774755Y-64179405D01*
X171049755Y-70087405D02*
X167439755Y-70087405D01*
X171036566Y-70106515D02*
X169436566Y-70106515D01*
X160149755Y-68087405D02*
X160149755Y-64179405D01*
X171038756Y-66063405D02*
G75*
G03*
X168774755Y-64179405I-2074000J-190000D01*
G01*
X167434756Y-70063404D02*
G75*
G03*
X165174755Y-68183405I-2070000J-190001D01*
G01*
D10*
X204244277Y-109455229D02*
X204244277Y-110855229D01*
X202244277Y-110855229D02*
X202244277Y-109455229D01*
X202944277Y-108755229D02*
X203544277Y-108755229D01*
X203544277Y-111555229D02*
X202944277Y-111555229D01*
X203544277Y-111555229D02*
G75*
G03*
X204244277Y-110855229I0J700000D01*
G01*
X202244277Y-110855229D02*
G75*
G03*
X202944277Y-111555229I700000J0D01*
G01*
X204244277Y-109455229D02*
G75*
G03*
X203544277Y-108755229I-699999J1D01*
G01*
X202944277Y-108755229D02*
G75*
G03*
X202244277Y-109455229I-1J-699999D01*
G01*
X176081000Y-101657600D02*
X176081000Y-100507600D01*
X168781000Y-96157600D02*
X176081000Y-96157600D01*
X168781000Y-101657600D02*
X176081000Y-101657600D01*
D11*
X171036566Y-108106875D02*
X169436566Y-108106875D01*
X171036566Y-106152875D02*
X171036566Y-108152875D01*
X160149755Y-106133765D02*
X165199755Y-106179765D01*
X171049755Y-104133765D02*
X171049755Y-108078765D01*
X171049755Y-108087765D02*
X167439755Y-108087765D01*
X160149755Y-106087765D02*
X160149755Y-102179765D01*
X160149755Y-102179765D02*
X168774755Y-102179765D01*
X167434756Y-108063764D02*
G75*
G03*
X165174755Y-106183765I-2070000J-190001D01*
G01*
X171038756Y-104063765D02*
G75*
G03*
X168774755Y-102179765I-2074000J-190000D01*
G01*
X199761332Y-135156205D02*
X198740290Y-138966782D01*
X198737961Y-138975475D02*
X195250969Y-138041139D01*
X188727008Y-134222496D02*
X189738472Y-130447658D01*
X199226008Y-137103102D02*
X198708370Y-139034953D01*
X189738472Y-130447658D02*
X198069583Y-132679972D01*
X188715102Y-134266929D02*
X193581122Y-135618397D01*
X198720275Y-138990521D02*
X197174794Y-138576410D01*
X195252352Y-138016662D02*
G75*
G03*
X193555938Y-135615791I-2048642J352229D01*
G01*
X199768825Y-135085743D02*
G75*
G03*
X198069583Y-132679972I-2052506J353265D01*
G01*
D13*
X148890218Y-128595594D02*
X151290218Y-128595594D01*
X151290218Y-128595594D02*
X151290218Y-134595594D01*
X151290218Y-134595594D02*
X148890218Y-134595594D01*
X148890218Y-134595594D02*
X148890218Y-128595594D01*
G36*
X151290218Y-134595594D02*
G01*
X148890218Y-134595594D01*
X148890218Y-134037194D01*
X151290218Y-134037194D01*
X151290218Y-134595594D01*
G37*
X151290218Y-134595594D02*
X148890218Y-134595594D01*
X148890218Y-134037194D01*
X151290218Y-134037194D01*
X151290218Y-134595594D01*
D10*
X193617400Y-106529114D02*
X193617400Y-113829114D01*
X199117400Y-106529114D02*
X199117400Y-113829114D01*
X193617400Y-113829114D02*
X194767400Y-113829114D01*
D11*
X180538135Y-132829081D02*
X177051143Y-131894745D01*
X171538646Y-124301264D02*
X179869757Y-126533578D01*
X180520449Y-132844127D02*
X178974968Y-132430016D01*
X170527182Y-128076102D02*
X171538646Y-124301264D01*
X181561506Y-129009811D02*
X180540464Y-132820388D01*
X181026182Y-130956708D02*
X180508544Y-132888559D01*
X170515276Y-128120535D02*
X175381296Y-129472003D01*
X181568999Y-128939349D02*
G75*
G03*
X179869757Y-126533578I-2052506J353265D01*
G01*
X177052526Y-131870268D02*
G75*
G03*
X175356112Y-129469397I-2048642J352229D01*
G01*
X133036966Y-89106675D02*
X131436966Y-89106675D01*
X133050155Y-89087565D02*
X129440155Y-89087565D01*
X133050155Y-85133565D02*
X133050155Y-89078565D01*
X133036966Y-87152675D02*
X133036966Y-89152675D01*
X122150155Y-83179565D02*
X130775155Y-83179565D01*
X122150155Y-87133565D02*
X127200155Y-87179565D01*
X122150155Y-87087565D02*
X122150155Y-83179565D01*
X133039156Y-85063565D02*
G75*
G03*
X130775155Y-83179565I-2074000J-190000D01*
G01*
X129435156Y-89063564D02*
G75*
G03*
X127175155Y-87183565I-2070000J-190001D01*
G01*
D12*
X132478218Y-129690794D02*
G75*
G03*
X132478218Y-129690794I-2200000J0D01*
G01*
G36*
X129735800Y-130159365D02*
G01*
X129912349Y-130236806D01*
X130081308Y-130361727D01*
X130332151Y-130556875D01*
X130570333Y-130692219D01*
X130797034Y-130768416D01*
X130817808Y-130772563D01*
X130898455Y-130794391D01*
X130918272Y-130819156D01*
X130876969Y-130848231D01*
X130795853Y-130876685D01*
X130616771Y-130912783D01*
X130410055Y-130927468D01*
X130205166Y-130920043D01*
X130048630Y-130894377D01*
X129816081Y-130814889D01*
X129618314Y-130705614D01*
X129464387Y-130572615D01*
X129373181Y-130442327D01*
X129321087Y-130314338D01*
X129317453Y-130223793D01*
X129364639Y-130166634D01*
X129465009Y-130138802D01*
X129552367Y-130134493D01*
X129735800Y-130159365D01*
G37*
G36*
X130282769Y-128410665D02*
G01*
X130532432Y-128462905D01*
X130556982Y-128469885D01*
X130745101Y-128542186D01*
X130911906Y-128640129D01*
X131048215Y-128755432D01*
X131144846Y-128879814D01*
X131192618Y-129004994D01*
X131196099Y-129046299D01*
X131173228Y-129148805D01*
X131106394Y-129209564D01*
X130998268Y-129227727D01*
X130851518Y-129202446D01*
X130779175Y-129178731D01*
X130703948Y-129141404D01*
X130596203Y-129075510D01*
X130471862Y-128991224D01*
X130376000Y-128921081D01*
X130235213Y-128822534D01*
X130082903Y-128729389D01*
X129932471Y-128648555D01*
X129797320Y-128586946D01*
X129690850Y-128551471D01*
X129647891Y-128545593D01*
X129615787Y-128525749D01*
X129614414Y-128517920D01*
X129642200Y-128497625D01*
X129715464Y-128469822D01*
X129819067Y-128440145D01*
X129832137Y-128436892D01*
X130055582Y-128402278D01*
X130282769Y-128410665D01*
G37*
D11*
X114036766Y-71152675D02*
X114036766Y-73152675D01*
X103149955Y-71087565D02*
X103149955Y-67179565D01*
X103149955Y-67179565D02*
X111774955Y-67179565D01*
X114049955Y-73087565D02*
X110439955Y-73087565D01*
X114036766Y-73106675D02*
X112436766Y-73106675D01*
X103149955Y-71133565D02*
X108199955Y-71179565D01*
X114049955Y-69133565D02*
X114049955Y-73078565D01*
X114038956Y-69063565D02*
G75*
G03*
X111774955Y-67179565I-2074000J-190000D01*
G01*
X110434956Y-73063564D02*
G75*
G03*
X108174955Y-71183565I-2070000J-190001D01*
G01*
X152049555Y-82593165D02*
X152049555Y-86538165D01*
X141149555Y-80639165D02*
X149774555Y-80639165D01*
X152036366Y-84612275D02*
X152036366Y-86612275D01*
X141149555Y-84547165D02*
X141149555Y-80639165D01*
X141149555Y-84593165D02*
X146199555Y-84639165D01*
X152036366Y-86566275D02*
X150436366Y-86566275D01*
X152049555Y-86547165D02*
X148439555Y-86547165D01*
X152038556Y-82523165D02*
G75*
G03*
X149774555Y-80639165I-2074000J-190000D01*
G01*
X148434556Y-86523164D02*
G75*
G03*
X146174555Y-84643165I-2070000J-190001D01*
G01*
D13*
X190784878Y-110550028D02*
X193184878Y-110550028D01*
X193184878Y-110550028D02*
X193184878Y-116550028D01*
X193184878Y-116550028D02*
X190784878Y-116550028D01*
X190784878Y-116550028D02*
X190784878Y-110550028D01*
G36*
X193184878Y-116550028D02*
G01*
X190784878Y-116550028D01*
X190784878Y-115991628D01*
X193184878Y-115991628D01*
X193184878Y-116550028D01*
G37*
X193184878Y-116550028D02*
X190784878Y-116550028D01*
X190784878Y-115991628D01*
X193184878Y-115991628D01*
X193184878Y-116550028D01*
X114762228Y-111061428D02*
X117162228Y-111061428D01*
X117162228Y-111061428D02*
X117162228Y-117061428D01*
X117162228Y-117061428D02*
X114762228Y-117061428D01*
X114762228Y-117061428D02*
X114762228Y-111061428D01*
G36*
X117162228Y-117061428D02*
G01*
X114762228Y-117061428D01*
X114762228Y-116503028D01*
X117162228Y-116503028D01*
X117162228Y-117061428D01*
G37*
X117162228Y-117061428D02*
X114762228Y-117061428D01*
X114762228Y-116503028D01*
X117162228Y-116503028D01*
X117162228Y-117061428D01*
D10*
X143944600Y-92627000D02*
X151244600Y-92627000D01*
X143944600Y-98127000D02*
X151244600Y-98127000D01*
X151244600Y-98127000D02*
X151244600Y-96977000D01*
D13*
X171762028Y-88908028D02*
X174162028Y-88908028D01*
X174162028Y-88908028D02*
X174162028Y-94908028D01*
X174162028Y-94908028D02*
X171762028Y-94908028D01*
X171762028Y-94908028D02*
X171762028Y-88908028D01*
G36*
X174162028Y-94908028D02*
G01*
X171762028Y-94908028D01*
X171762028Y-94349628D01*
X174162028Y-94349628D01*
X174162028Y-94908028D01*
G37*
X174162028Y-94908028D02*
X171762028Y-94908028D01*
X171762028Y-94349628D01*
X174162028Y-94349628D01*
X174162028Y-94908028D01*
D11*
X212337338Y-114685915D02*
X212337338Y-120685915D01*
X212337338Y-120685915D02*
X200337338Y-120685915D01*
X200337338Y-114685915D02*
X212337338Y-114685915D01*
X200337338Y-120685915D02*
X200337338Y-114685915D01*
D10*
X214362738Y-115565015D02*
X212362738Y-115565015D01*
X212362738Y-115565015D02*
X212362738Y-119806815D01*
X212362738Y-119806815D02*
X214362738Y-119806815D01*
X214362738Y-119806815D02*
X214362738Y-115565015D01*
X203840881Y-87587313D02*
X203840881Y-88987313D01*
X201840881Y-88987313D02*
X201840881Y-87587313D01*
X203140881Y-89687313D02*
X202540881Y-89687313D01*
X202540881Y-86887313D02*
X203140881Y-86887313D01*
X203140881Y-89687313D02*
G75*
G03*
X203840881Y-88987313I1J699999D01*
G01*
X203840881Y-87587313D02*
G75*
G03*
X203140881Y-86887313I-700000J0D01*
G01*
X202540881Y-86887313D02*
G75*
G03*
X201840881Y-87587313I0J-700000D01*
G01*
X201840881Y-88987313D02*
G75*
G03*
X202540881Y-89687313I699999J-1D01*
G01*
X119108200Y-96157600D02*
X126408200Y-96157600D01*
X126408200Y-101657600D02*
X126408200Y-100507600D01*
X119108200Y-101657600D02*
X126408200Y-101657600D01*
D13*
X152812628Y-86302800D02*
X155212628Y-86302800D01*
X155212628Y-86302800D02*
X155212628Y-92302800D01*
X155212628Y-92302800D02*
X152812628Y-92302800D01*
X152812628Y-92302800D02*
X152812628Y-86302800D01*
G36*
X155212628Y-92302800D02*
G01*
X152812628Y-92302800D01*
X152812628Y-91744400D01*
X155212628Y-91744400D01*
X155212628Y-92302800D01*
G37*
X155212628Y-92302800D02*
X152812628Y-92302800D01*
X152812628Y-91744400D01*
X155212628Y-91744400D01*
X155212628Y-92302800D01*
D12*
X148136592Y-129690794D02*
G75*
G03*
X148136592Y-129690794I-2200000J0D01*
G01*
G36*
X145941143Y-128410665D02*
G01*
X146190806Y-128462905D01*
X146215356Y-128469885D01*
X146403475Y-128542186D01*
X146570280Y-128640129D01*
X146706589Y-128755432D01*
X146803220Y-128879814D01*
X146850992Y-129004994D01*
X146854473Y-129046299D01*
X146831602Y-129148805D01*
X146764768Y-129209564D01*
X146656642Y-129227727D01*
X146509892Y-129202446D01*
X146437549Y-129178731D01*
X146362322Y-129141404D01*
X146254577Y-129075510D01*
X146130236Y-128991224D01*
X146034374Y-128921081D01*
X145893587Y-128822534D01*
X145741277Y-128729389D01*
X145590845Y-128648555D01*
X145455694Y-128586946D01*
X145349224Y-128551471D01*
X145306265Y-128545593D01*
X145274161Y-128525749D01*
X145272788Y-128517920D01*
X145300574Y-128497625D01*
X145373838Y-128469822D01*
X145477441Y-128440145D01*
X145490511Y-128436892D01*
X145713956Y-128402278D01*
X145941143Y-128410665D01*
G37*
G36*
X145394174Y-130159365D02*
G01*
X145570723Y-130236806D01*
X145739682Y-130361727D01*
X145990525Y-130556875D01*
X146228707Y-130692219D01*
X146455408Y-130768416D01*
X146476182Y-130772563D01*
X146556829Y-130794391D01*
X146576646Y-130819156D01*
X146535343Y-130848231D01*
X146454227Y-130876685D01*
X146275145Y-130912783D01*
X146068429Y-130927468D01*
X145863540Y-130920043D01*
X145707004Y-130894377D01*
X145474455Y-130814889D01*
X145276688Y-130705614D01*
X145122761Y-130572615D01*
X145031555Y-130442327D01*
X144979461Y-130314338D01*
X144975827Y-130223793D01*
X145023013Y-130166634D01*
X145123383Y-130138802D01*
X145210741Y-130134493D01*
X145394174Y-130159365D01*
G37*
D11*
X171036566Y-87152475D02*
X171036566Y-89152475D01*
X171036566Y-89106475D02*
X169436566Y-89106475D01*
X160149755Y-87087365D02*
X160149755Y-83179365D01*
X171049755Y-85133365D02*
X171049755Y-89078365D01*
X171049755Y-89087365D02*
X167439755Y-89087365D01*
X160149755Y-83179365D02*
X168774755Y-83179365D01*
X160149755Y-87133365D02*
X165199755Y-87179365D01*
X171038756Y-85063365D02*
G75*
G03*
X168774755Y-83179365I-2074000J-190000D01*
G01*
X167434756Y-89063364D02*
G75*
G03*
X165174755Y-87183365I-2070000J-190001D01*
G01*
X179149453Y-70678965D02*
X179149453Y-66770965D01*
X190049453Y-72678965D02*
X186439453Y-72678965D01*
X190036264Y-72698075D02*
X188436264Y-72698075D01*
X179149453Y-66770965D02*
X187774453Y-66770965D01*
X190036264Y-70744075D02*
X190036264Y-72744075D01*
X190049453Y-68724965D02*
X190049453Y-72669965D01*
X179149453Y-70724965D02*
X184199453Y-70770965D01*
X190038454Y-68654965D02*
G75*
G03*
X187774453Y-66770965I-2074000J-190000D01*
G01*
X186434454Y-72654964D02*
G75*
G03*
X184174453Y-70774965I-2070000J-190001D01*
G01*
D10*
X205597168Y-89687313D02*
X204997168Y-89687313D01*
X204297168Y-88987313D02*
X204297168Y-87587313D01*
X204997168Y-86887313D02*
X205597168Y-86887313D01*
X206297168Y-87587313D02*
X206297168Y-88987313D01*
X204997168Y-86887313D02*
G75*
G03*
X204297168Y-87587313I0J-700000D01*
G01*
X204297168Y-88987313D02*
G75*
G03*
X204997168Y-89687313I699999J-1D01*
G01*
X205597168Y-89687313D02*
G75*
G03*
X206297168Y-88987313I1J699999D01*
G01*
X206297168Y-87587313D02*
G75*
G03*
X205597168Y-86887313I-700000J0D01*
G01*
D13*
X190784878Y-91600428D02*
X193184878Y-91600428D01*
X193184878Y-91600428D02*
X193184878Y-97600428D01*
X193184878Y-97600428D02*
X190784878Y-97600428D01*
X190784878Y-97600428D02*
X190784878Y-91600428D01*
G36*
X193184878Y-97600428D02*
G01*
X190784878Y-97600428D01*
X190784878Y-97042028D01*
X193184878Y-97042028D01*
X193184878Y-97600428D01*
G37*
X193184878Y-97600428D02*
X190784878Y-97600428D01*
X190784878Y-97042028D01*
X193184878Y-97042028D01*
X193184878Y-97600428D01*
X114762228Y-92010228D02*
X117162228Y-92010228D01*
X117162228Y-92010228D02*
X117162228Y-98010228D01*
X117162228Y-98010228D02*
X114762228Y-98010228D01*
X114762228Y-98010228D02*
X114762228Y-92010228D01*
G36*
X117162228Y-98010228D02*
G01*
X114762228Y-98010228D01*
X114762228Y-97451828D01*
X117162228Y-97451828D01*
X117162228Y-98010228D01*
G37*
X117162228Y-98010228D02*
X114762228Y-98010228D01*
X114762228Y-97451828D01*
X117162228Y-97451828D01*
X117162228Y-98010228D01*
X133709078Y-69908628D02*
X136109078Y-69908628D01*
X136109078Y-69908628D02*
X136109078Y-75908628D01*
X136109078Y-75908628D02*
X133709078Y-75908628D01*
X133709078Y-75908628D02*
X133709078Y-69908628D01*
G36*
X136109078Y-75908628D02*
G01*
X133709078Y-75908628D01*
X133709078Y-75350228D01*
X136109078Y-75350228D01*
X136109078Y-75908628D01*
G37*
X136109078Y-75908628D02*
X133709078Y-75908628D01*
X133709078Y-75350228D01*
X136109078Y-75350228D01*
X136109078Y-75908628D01*
X133709078Y-108111028D02*
X136109078Y-108111028D01*
X136109078Y-108111028D02*
X136109078Y-114111028D01*
X136109078Y-114111028D02*
X133709078Y-114111028D01*
X133709078Y-114111028D02*
X133709078Y-108111028D01*
G36*
X136109078Y-114111028D02*
G01*
X133709078Y-114111028D01*
X133709078Y-113552628D01*
X136109078Y-113552628D01*
X136109078Y-114111028D01*
G37*
X136109078Y-114111028D02*
X133709078Y-114111028D01*
X133709078Y-113552628D01*
X136109078Y-113552628D01*
X136109078Y-114111028D01*
X171762028Y-69796000D02*
X174162028Y-69796000D01*
X174162028Y-69796000D02*
X174162028Y-75796000D01*
X174162028Y-75796000D02*
X171762028Y-75796000D01*
X171762028Y-75796000D02*
X171762028Y-69796000D01*
G36*
X174162028Y-75796000D02*
G01*
X171762028Y-75796000D01*
X171762028Y-75237600D01*
X174162028Y-75237600D01*
X174162028Y-75796000D01*
G37*
X174162028Y-75796000D02*
X171762028Y-75796000D01*
X171762028Y-75237600D01*
X174162028Y-75237600D01*
X174162028Y-75796000D01*
X186345111Y-126835915D02*
X183945111Y-126835915D01*
X183945111Y-126835915D02*
X183945111Y-120835915D01*
X183945111Y-120835915D02*
X186345111Y-120835915D01*
X186345111Y-120835915D02*
X186345111Y-126835915D01*
G36*
X186345111Y-121394315D02*
G01*
X183945111Y-121394315D01*
X183945111Y-120835915D01*
X186345111Y-120835915D01*
X186345111Y-121394315D01*
G37*
X186345111Y-121394315D02*
X183945111Y-121394315D01*
X183945111Y-120835915D01*
X186345111Y-120835915D01*
X186345111Y-121394315D01*
D11*
X114049955Y-92087965D02*
X110439955Y-92087965D01*
X103149955Y-86179965D02*
X111774955Y-86179965D01*
X114036766Y-90153075D02*
X114036766Y-92153075D01*
X103149955Y-90087965D02*
X103149955Y-86179965D01*
X103149955Y-90133965D02*
X108199955Y-90179965D01*
X114049955Y-88133965D02*
X114049955Y-92078965D01*
X114036766Y-92107075D02*
X112436766Y-92107075D01*
X110434956Y-92063964D02*
G75*
G03*
X108174955Y-90183965I-2070000J-190001D01*
G01*
X114038956Y-88063965D02*
G75*
G03*
X111774955Y-86179965I-2074000J-190000D01*
G01*
D10*
X204315898Y-83016483D02*
X204315898Y-84220611D01*
X206135898Y-83016483D02*
X206135898Y-84220611D01*
X184449400Y-64374390D02*
X186949400Y-64374390D01*
X183999400Y-63924390D02*
X184449400Y-64374390D01*
X187399400Y-59324390D02*
X186949400Y-58874390D01*
X184449400Y-58874390D02*
X186949400Y-58874390D01*
X182949400Y-60624390D02*
X182949400Y-62624390D01*
X183999400Y-59324390D02*
X184449400Y-58874390D01*
X187399400Y-63924390D02*
X186949400Y-64374390D01*
X188449400Y-60624390D02*
X188449400Y-62624390D01*
X200404277Y-108755229D02*
X201004277Y-108755229D01*
X199704277Y-110855229D02*
X199704277Y-109455229D01*
X201704277Y-109455229D02*
X201704277Y-110855229D01*
X201004277Y-111555229D02*
X200404277Y-111555229D01*
X199704277Y-110855229D02*
G75*
G03*
X200404277Y-111555229I700000J0D01*
G01*
X201004277Y-111555229D02*
G75*
G03*
X201704277Y-110855229I0J700000D01*
G01*
X200404277Y-108755229D02*
G75*
G03*
X199704277Y-109455229I-1J-699999D01*
G01*
X201704277Y-109455229D02*
G75*
G03*
X201004277Y-108755229I-699999J1D01*
G01*
D13*
X191662450Y-126835915D02*
X189262450Y-126835915D01*
X189262450Y-126835915D02*
X189262450Y-120835915D01*
X189262450Y-120835915D02*
X191662450Y-120835915D01*
X191662450Y-120835915D02*
X191662450Y-126835915D01*
G36*
X191662450Y-121394315D02*
G01*
X189262450Y-121394315D01*
X189262450Y-120835915D01*
X191662450Y-120835915D01*
X191662450Y-121394315D01*
G37*
X191662450Y-121394315D02*
X189262450Y-121394315D01*
X189262450Y-120835915D01*
X191662450Y-120835915D01*
X191662450Y-121394315D01*
D10*
X139637392Y-138617854D02*
X138011792Y-138617854D01*
X155385392Y-119872654D02*
X155385392Y-121599854D01*
X138011792Y-138617854D02*
X138011792Y-136890654D01*
X153759792Y-119872654D02*
X155385392Y-119872654D01*
D13*
X189003780Y-126835915D02*
X186603780Y-126835915D01*
X186603780Y-126835915D02*
X186603780Y-120835915D01*
X186603780Y-120835915D02*
X189003780Y-120835915D01*
X189003780Y-120835915D02*
X189003780Y-126835915D01*
G36*
X189003780Y-121394315D02*
G01*
X186603780Y-121394315D01*
X186603780Y-120835915D01*
X189003780Y-120835915D01*
X189003780Y-121394315D01*
G37*
X189003780Y-121394315D02*
X186603780Y-121394315D01*
X186603780Y-120835915D01*
X189003780Y-120835915D01*
X189003780Y-121394315D01*
X133142218Y-128595594D02*
X135542218Y-128595594D01*
X135542218Y-128595594D02*
X135542218Y-134595594D01*
X135542218Y-134595594D02*
X133142218Y-134595594D01*
X133142218Y-134595594D02*
X133142218Y-128595594D01*
G36*
X135542218Y-134595594D02*
G01*
X133142218Y-134595594D01*
X133142218Y-134037194D01*
X135542218Y-134037194D01*
X135542218Y-134595594D01*
G37*
X135542218Y-134595594D02*
X133142218Y-134595594D01*
X133142218Y-134037194D01*
X135542218Y-134037194D01*
X135542218Y-134595594D01*
D11*
X122150155Y-106087165D02*
X122150155Y-102179165D01*
X122150155Y-102179165D02*
X130775155Y-102179165D01*
X133050155Y-108087165D02*
X129440155Y-108087165D01*
X122150155Y-106133165D02*
X127200155Y-106179165D01*
X133036966Y-106152275D02*
X133036966Y-108152275D01*
X133050155Y-104133165D02*
X133050155Y-108078165D01*
X133036966Y-108106275D02*
X131436966Y-108106275D01*
X129435156Y-108063164D02*
G75*
G03*
X127175155Y-106183165I-2070000J-190001D01*
G01*
X133039156Y-104063165D02*
G75*
G03*
X130775155Y-102179165I-2074000J-190000D01*
G01*
X213459626Y-70687894D02*
X212509626Y-70687894D01*
X213459626Y-102737894D02*
X213459626Y-103737894D01*
X213459626Y-103737894D02*
X212449626Y-103737894D01*
X195659626Y-70687894D02*
X196659626Y-70687894D01*
X195659626Y-70687894D02*
X195659626Y-71687894D01*
X213459626Y-70687894D02*
X213459626Y-71687894D01*
X195659626Y-102687894D02*
X195659626Y-103737894D01*
X195659626Y-103737894D02*
X196659626Y-103737894D01*
D14*
X200704277Y-107019302D03*
X203244277Y-107019302D03*
X205784277Y-107019302D03*
X208324277Y-107019302D03*
D15*
X210837338Y-115935915D03*
X210837338Y-117685915D03*
X203837338Y-117685915D03*
X203837338Y-115935915D03*
D16*
X202037338Y-119785915D03*
X202037338Y-113835915D03*
X206037338Y-119785915D03*
X206037338Y-113835915D03*
X209037338Y-113835915D03*
X209037338Y-119785915D03*
X200537338Y-118035915D03*
X200537338Y-115585915D03*
D17*
X197178226Y-92332894D03*
X211961026Y-87252894D03*
X197178226Y-102492894D03*
X196721026Y-84712894D03*
X211961026Y-97412894D03*
X211961026Y-77092894D03*
X197178226Y-87252894D03*
X211961026Y-82172894D03*
X212418226Y-94872894D03*
X196721026Y-94872894D03*
X197178226Y-77092894D03*
X196721026Y-99952894D03*
X211961026Y-102492894D03*
X196721026Y-79632894D03*
X212418226Y-74552894D03*
X212418226Y-99952894D03*
X212418226Y-84712894D03*
X197178226Y-97412894D03*
X211961026Y-92332894D03*
X196721026Y-89792894D03*
X197178226Y-82172894D03*
X196721026Y-74552894D03*
X212418226Y-89792894D03*
X212418226Y-79632894D03*
M02*
