G04 #@! TF.GenerationSoftware,KiCad,Pcbnew,(6.0.6-0)*
G04 #@! TF.CreationDate,2022-07-14T22:07:42+08:00*
G04 #@! TF.ProjectId,thrfv,74687266-762e-46b6-9963-61645f706362,rev?*
G04 #@! TF.SameCoordinates,Original*
G04 #@! TF.FileFunction,Legend,Top*
G04 #@! TF.FilePolarity,Positive*
%FSLAX46Y46*%
G04 Gerber Fmt 4.6, Leading zero omitted, Abs format (unit mm)*
G04 Created by KiCad (PCBNEW (6.0.6-0)) date 2022-07-14 22:07:42*
%MOMM*%
%LPD*%
G01*
G04 APERTURE LIST*
%ADD10C,0.150000*%
%ADD11C,0.100000*%
%ADD12C,0.120000*%
%ADD13C,0.200000*%
%ADD14C,1.397000*%
%ADD15C,1.200000*%
%ADD16O,2.500000X1.700000*%
G04 APERTURE END LIST*
D10*
X205448815Y-150512618D02*
X205927179Y-150640795D01*
X205553923Y-150856294D01*
X205664315Y-150885873D01*
X205723450Y-150941157D01*
X205745787Y-150986582D01*
X205753666Y-151067571D01*
X205681369Y-151245395D01*
X205615653Y-151306664D01*
X205564396Y-151332369D01*
X205476342Y-151348214D01*
X205255559Y-151289056D01*
X205196424Y-151233771D01*
X205174086Y-151188347D01*
X205881111Y-151456672D02*
X206488312Y-151067223D01*
X206083543Y-150958766D02*
X206285880Y-151565129D01*
X207251877Y-150995746D02*
X206883905Y-150897149D01*
X206702514Y-151242936D01*
X206753770Y-151217231D01*
X206841824Y-151201386D01*
X207025810Y-151250685D01*
X207084945Y-151305969D01*
X207107283Y-151351393D01*
X207115161Y-151432383D01*
X207042864Y-151610206D01*
X206977148Y-151671476D01*
X206925891Y-151697181D01*
X206837838Y-151713026D01*
X206653852Y-151663727D01*
X206594717Y-151608443D01*
X206572379Y-151563018D01*
X207431876Y-151556685D02*
X208020631Y-151714442D01*
X207610578Y-151920081D02*
X207841929Y-151351046D01*
X208502981Y-151330979D02*
X208981344Y-151459156D01*
X208608089Y-151674655D01*
X208718480Y-151704234D01*
X208777615Y-151759519D01*
X208799953Y-151804943D01*
X208807831Y-151885932D01*
X208735534Y-152063756D01*
X208669818Y-152125025D01*
X208618561Y-152150730D01*
X208530508Y-152166575D01*
X208309725Y-152107417D01*
X208250590Y-152052133D01*
X208228252Y-152006708D01*
X209597626Y-152452509D02*
X209901274Y-151705650D01*
X209786895Y-152187711D02*
X209892003Y-152531387D01*
X210094435Y-152033481D02*
X209684382Y-152239121D01*
X210532014Y-152663438D02*
X210443961Y-152679284D01*
X210296772Y-152639845D01*
X210237637Y-152584560D01*
X210229759Y-152503571D01*
X210345434Y-152219053D01*
X210411150Y-152157784D01*
X210499204Y-152141939D01*
X210646393Y-152181378D01*
X210705528Y-152236662D01*
X210713406Y-152317651D01*
X210684487Y-152388781D01*
X210287596Y-152361312D01*
X211014364Y-152279976D02*
X210995918Y-152827180D01*
X211382336Y-152378573D02*
X210995918Y-152827180D01*
X210850027Y-152985284D01*
X210798770Y-153010989D01*
X210710717Y-153026834D01*
X211474282Y-152955357D02*
X211777929Y-152208499D01*
X211662254Y-152493016D02*
X211750308Y-152477171D01*
X211897497Y-152516610D01*
X211956631Y-152571894D01*
X211978969Y-152617319D01*
X211986848Y-152698308D01*
X211900091Y-152911696D01*
X211834375Y-152972966D01*
X211783118Y-152998671D01*
X211695065Y-153014516D01*
X211547876Y-152975077D01*
X211488741Y-152919793D01*
X212283819Y-153172272D02*
X212224684Y-153116988D01*
X212202347Y-153071564D01*
X212194468Y-152990574D01*
X212281225Y-152777186D01*
X212346941Y-152715917D01*
X212398198Y-152690212D01*
X212486251Y-152674366D01*
X212596643Y-152703946D01*
X212655778Y-152759230D01*
X212678115Y-152804655D01*
X212685994Y-152885644D01*
X212599237Y-153099032D01*
X212533521Y-153160302D01*
X212482265Y-153186006D01*
X212394211Y-153201852D01*
X212283819Y-153172272D01*
X213203749Y-153418767D02*
X213362802Y-153027555D01*
X213354924Y-152946566D01*
X213295789Y-152891281D01*
X213148600Y-152851842D01*
X213060547Y-152867688D01*
X213218208Y-153383202D02*
X213130154Y-153399047D01*
X212946169Y-153349748D01*
X212887034Y-153294464D01*
X212879155Y-153213475D01*
X212908074Y-153142345D01*
X212973790Y-153081076D01*
X213061844Y-153065231D01*
X213245830Y-153114529D01*
X213333884Y-153098684D01*
X213571721Y-153517364D02*
X213774152Y-153019459D01*
X213716315Y-153161717D02*
X213782031Y-153100448D01*
X213833287Y-153074743D01*
X213921341Y-153058898D01*
X213994935Y-153078617D01*
X214381258Y-153734279D02*
X214684906Y-152987421D01*
X214395718Y-153698715D02*
X214307664Y-153714560D01*
X214160475Y-153675121D01*
X214101340Y-153619836D01*
X214079003Y-153574412D01*
X214071124Y-153493423D01*
X214157881Y-153280035D01*
X214223597Y-153218765D01*
X214274853Y-153193060D01*
X214362907Y-153177215D01*
X214510096Y-153216654D01*
X214569231Y-153271938D01*
X214778149Y-153761748D02*
X214800487Y-153807172D01*
X214749230Y-153832877D01*
X214726892Y-153787453D01*
X214778149Y-153761748D01*
X214749230Y-153832877D01*
X204885403Y-152523308D02*
X205189051Y-151776449D01*
X205483428Y-151855327D01*
X205542563Y-151910612D01*
X205564901Y-151956036D01*
X205572779Y-152037025D01*
X205529401Y-152143719D01*
X205463685Y-152204989D01*
X205412428Y-152230694D01*
X205324375Y-152246539D01*
X205029997Y-152167661D01*
X206128629Y-152777551D02*
X206077372Y-152803256D01*
X205952521Y-152809241D01*
X205878927Y-152789522D01*
X205782995Y-152724378D01*
X205738319Y-152633529D01*
X205730441Y-152552540D01*
X205751481Y-152400421D01*
X205794859Y-152293727D01*
X205889494Y-152161328D01*
X205955210Y-152100058D01*
X206057724Y-152048648D01*
X206182574Y-152042663D01*
X206256169Y-152062383D01*
X206352101Y-152127527D01*
X206374439Y-152172951D01*
X206847518Y-152615225D02*
X206943450Y-152680369D01*
X206965788Y-152725794D01*
X206973666Y-152806783D01*
X206930288Y-152913477D01*
X206864572Y-152974746D01*
X206813315Y-153000451D01*
X206725262Y-153016297D01*
X206430884Y-152937418D01*
X206734532Y-152190560D01*
X206992112Y-152259578D01*
X207051247Y-152314862D01*
X207073585Y-152360287D01*
X207081463Y-152441276D01*
X207052544Y-152512405D01*
X206986828Y-152573675D01*
X206935572Y-152599380D01*
X206847518Y-152615225D01*
X206589938Y-152546207D01*
X208123554Y-153390968D02*
X208427202Y-152644109D01*
X208138014Y-153355403D02*
X208049960Y-153371248D01*
X207902771Y-153331809D01*
X207843636Y-153276525D01*
X207821299Y-153231101D01*
X207813420Y-153150111D01*
X207900177Y-152936723D01*
X207965893Y-152875453D01*
X208017149Y-152849749D01*
X208105203Y-152833903D01*
X208252392Y-152873343D01*
X208311527Y-152928627D01*
X208800363Y-153532879D02*
X208712309Y-153548724D01*
X208565120Y-153509285D01*
X208505985Y-153454001D01*
X208498107Y-153373012D01*
X208613782Y-153088494D01*
X208679498Y-153027224D01*
X208767552Y-153011379D01*
X208914741Y-153050818D01*
X208973876Y-153106103D01*
X208981754Y-153187092D01*
X208952835Y-153258221D01*
X208555945Y-153230753D01*
X209131537Y-153621617D02*
X209190672Y-153676901D01*
X209337861Y-153716340D01*
X209425915Y-153700495D01*
X209491631Y-153639226D01*
X209506090Y-153603661D01*
X209498212Y-153522672D01*
X209439077Y-153467387D01*
X209328685Y-153437808D01*
X209269551Y-153382524D01*
X209261672Y-153301535D01*
X209276132Y-153265970D01*
X209341848Y-153204700D01*
X209429901Y-153188855D01*
X209540293Y-153218435D01*
X209599428Y-153273719D01*
X209779427Y-153834658D02*
X209981859Y-153336752D01*
X210083075Y-153087799D02*
X210031818Y-153113504D01*
X210054156Y-153158928D01*
X210105413Y-153133223D01*
X210083075Y-153087799D01*
X210054156Y-153158928D01*
X210681005Y-153524088D02*
X210435195Y-154128687D01*
X210369479Y-154189957D01*
X210318223Y-154215662D01*
X210230169Y-154231507D01*
X210119777Y-154201928D01*
X210060642Y-154146644D01*
X210493033Y-153986429D02*
X210404979Y-154002274D01*
X210257790Y-153962835D01*
X210198655Y-153907550D01*
X210176318Y-153862126D01*
X210168439Y-153781137D01*
X210255196Y-153567749D01*
X210320912Y-153506479D01*
X210372169Y-153480774D01*
X210460222Y-153464929D01*
X210607411Y-153504368D01*
X210666546Y-153559652D01*
X211048977Y-153622685D02*
X210846545Y-154120591D01*
X211020058Y-153693815D02*
X211071315Y-153668110D01*
X211159369Y-153652265D01*
X211269760Y-153681844D01*
X211328895Y-153737128D01*
X211336773Y-153818117D01*
X211177720Y-154209329D01*
X211854528Y-154351240D02*
X211766475Y-154367085D01*
X211619286Y-154327646D01*
X211560151Y-154272362D01*
X211552273Y-154191373D01*
X211667948Y-153906855D01*
X211733664Y-153845586D01*
X211821718Y-153829740D01*
X211968906Y-153869180D01*
X212028041Y-153924464D01*
X212035920Y-154005453D01*
X212007001Y-154076582D01*
X211610110Y-154049114D01*
X212539215Y-154574141D02*
X212842863Y-153827282D01*
X212553675Y-154538576D02*
X212465621Y-154554421D01*
X212318432Y-154514982D01*
X212259297Y-154459698D01*
X212236959Y-154414273D01*
X212229081Y-154333284D01*
X212315838Y-154119896D01*
X212381554Y-154058626D01*
X212432810Y-154032921D01*
X212520864Y-154017076D01*
X212668053Y-154056515D01*
X212727188Y-154111800D01*
X213495942Y-154830495D02*
X213799590Y-154083636D01*
X213683914Y-154368154D02*
X213771968Y-154352308D01*
X213919157Y-154391748D01*
X213978292Y-154447032D01*
X214000629Y-154492456D01*
X214008508Y-154573445D01*
X213921751Y-154786834D01*
X213856035Y-154848103D01*
X213804779Y-154873808D01*
X213716725Y-154889653D01*
X213569536Y-154850214D01*
X213510401Y-154794930D01*
X214323926Y-154500205D02*
X214305480Y-155047410D01*
X214691897Y-154598803D02*
X214305480Y-155047410D01*
X214159588Y-155205514D01*
X214108332Y-155231219D01*
X214020278Y-155247064D01*
X215897028Y-154645643D02*
X215680137Y-155179114D01*
X215599962Y-155275948D01*
X215497449Y-155327358D01*
X215372598Y-155333343D01*
X215299003Y-155313624D01*
X216191406Y-154724521D02*
X216071744Y-155520679D01*
X216435824Y-155026647D01*
X216366121Y-155599557D01*
X216853755Y-154901997D01*
X216873403Y-155656605D02*
X216895741Y-155702029D01*
X216844485Y-155727734D01*
X216822147Y-155682310D01*
X216873403Y-155656605D01*
X216844485Y-155727734D01*
X195399314Y-106615099D02*
X194923123Y-106615099D01*
X194923123Y-105615099D01*
X195732647Y-106091290D02*
X196065981Y-106091290D01*
X196208838Y-106615099D02*
X195732647Y-106615099D01*
X195732647Y-105615099D01*
X196208838Y-105615099D01*
X196637409Y-106615099D02*
X196637409Y-105615099D01*
X196875504Y-105615099D01*
X197018362Y-105662719D01*
X197113600Y-105757957D01*
X197161219Y-105853195D01*
X197208838Y-106043671D01*
X197208838Y-106186528D01*
X197161219Y-106377004D01*
X197113600Y-106472242D01*
X197018362Y-106567480D01*
X196875504Y-106615099D01*
X196637409Y-106615099D01*
X198161219Y-106615099D02*
X197589790Y-106615099D01*
X197875504Y-106615099D02*
X197875504Y-105615099D01*
X197780266Y-105757957D01*
X197685028Y-105853195D01*
X197589790Y-105900814D01*
X153404840Y-131770294D02*
X152604840Y-131770294D01*
X152604840Y-131579818D01*
X152642936Y-131465532D01*
X152719126Y-131389342D01*
X152795316Y-131351246D01*
X152947697Y-131313151D01*
X153061983Y-131313151D01*
X153214364Y-131351246D01*
X153290555Y-131389342D01*
X153366745Y-131465532D01*
X153404840Y-131579818D01*
X153404840Y-131770294D01*
X153404840Y-130551246D02*
X153404840Y-131008389D01*
X153404840Y-130779818D02*
X152604840Y-130779818D01*
X152719126Y-130856008D01*
X152795316Y-130932199D01*
X152833412Y-131008389D01*
X152604840Y-130284580D02*
X152604840Y-129751246D01*
X153404840Y-130094104D01*
X171488314Y-96104699D02*
X171012123Y-96104699D01*
X171012123Y-95104699D01*
X171821647Y-95580890D02*
X172154981Y-95580890D01*
X172297838Y-96104699D02*
X171821647Y-96104699D01*
X171821647Y-95104699D01*
X172297838Y-95104699D01*
X172726409Y-96104699D02*
X172726409Y-95104699D01*
X172964504Y-95104699D01*
X173107362Y-95152319D01*
X173202600Y-95247557D01*
X173250219Y-95342795D01*
X173297838Y-95533271D01*
X173297838Y-95676128D01*
X173250219Y-95866604D01*
X173202600Y-95961842D01*
X173107362Y-96057080D01*
X172964504Y-96104699D01*
X172726409Y-96104699D01*
X173678790Y-95199938D02*
X173726409Y-95152319D01*
X173821647Y-95104699D01*
X174059742Y-95104699D01*
X174154981Y-95152319D01*
X174202600Y-95199938D01*
X174250219Y-95295176D01*
X174250219Y-95390414D01*
X174202600Y-95533271D01*
X173631171Y-96104699D01*
X174250219Y-96104699D01*
D11*
X203025661Y-112018024D02*
X203025661Y-112375167D01*
X203001851Y-112446595D01*
X202954232Y-112494214D01*
X202882804Y-112518024D01*
X202835185Y-112518024D01*
X203263756Y-112518024D02*
X203263756Y-112018024D01*
X203454232Y-112018024D01*
X203501851Y-112041834D01*
X203525661Y-112065643D01*
X203549470Y-112113262D01*
X203549470Y-112184691D01*
X203525661Y-112232310D01*
X203501851Y-112256119D01*
X203454232Y-112279929D01*
X203263756Y-112279929D01*
X203978042Y-112018024D02*
X203882804Y-112018024D01*
X203835185Y-112041834D01*
X203811375Y-112065643D01*
X203763756Y-112137072D01*
X203739947Y-112232310D01*
X203739947Y-112422786D01*
X203763756Y-112470405D01*
X203787566Y-112494214D01*
X203835185Y-112518024D01*
X203930423Y-112518024D01*
X203978042Y-112494214D01*
X204001851Y-112470405D01*
X204025661Y-112422786D01*
X204025661Y-112303738D01*
X204001851Y-112256119D01*
X203978042Y-112232310D01*
X203930423Y-112208500D01*
X203835185Y-112208500D01*
X203787566Y-112232310D01*
X203763756Y-112256119D01*
X203739947Y-112303738D01*
D10*
X202920061Y-81146614D02*
X202586728Y-80670424D01*
X202348632Y-81146614D02*
X202348632Y-80146614D01*
X202729585Y-80146614D01*
X202824823Y-80194234D01*
X202872442Y-80241853D01*
X202920061Y-80337091D01*
X202920061Y-80479948D01*
X202872442Y-80575186D01*
X202824823Y-80622805D01*
X202729585Y-80670424D01*
X202348632Y-80670424D01*
X203872442Y-81146614D02*
X203301013Y-81146614D01*
X203586728Y-81146614D02*
X203586728Y-80146614D01*
X203491489Y-80289472D01*
X203396251Y-80384710D01*
X203301013Y-80432329D01*
D11*
X205565661Y-112018024D02*
X205565661Y-112375167D01*
X205541851Y-112446595D01*
X205494232Y-112494214D01*
X205422804Y-112518024D01*
X205375185Y-112518024D01*
X205803756Y-112518024D02*
X205803756Y-112018024D01*
X205994232Y-112018024D01*
X206041851Y-112041834D01*
X206065661Y-112065643D01*
X206089470Y-112113262D01*
X206089470Y-112184691D01*
X206065661Y-112232310D01*
X206041851Y-112256119D01*
X205994232Y-112279929D01*
X205803756Y-112279929D01*
X206256137Y-112018024D02*
X206589470Y-112018024D01*
X206375185Y-112518024D01*
D10*
X113833632Y-77178070D02*
X113033632Y-77178070D01*
X113033632Y-76987594D01*
X113071728Y-76873308D01*
X113147918Y-76797117D01*
X113224108Y-76759022D01*
X113376489Y-76720927D01*
X113490775Y-76720927D01*
X113643156Y-76759022D01*
X113719347Y-76797117D01*
X113795537Y-76873308D01*
X113833632Y-76987594D01*
X113833632Y-77178070D01*
X113833632Y-75959022D02*
X113833632Y-76416165D01*
X113833632Y-76187594D02*
X113033632Y-76187594D01*
X113147918Y-76263784D01*
X113224108Y-76339974D01*
X113262204Y-76416165D01*
X132833832Y-92679070D02*
X132033832Y-92679070D01*
X132033832Y-92488594D01*
X132071928Y-92374308D01*
X132148118Y-92298117D01*
X132224308Y-92260022D01*
X132376689Y-92221927D01*
X132490975Y-92221927D01*
X132643356Y-92260022D01*
X132719547Y-92298117D01*
X132795737Y-92374308D01*
X132833832Y-92488594D01*
X132833832Y-92679070D01*
X132033832Y-91955260D02*
X132033832Y-91421927D01*
X132833832Y-91764784D01*
X189833130Y-95600222D02*
X189033130Y-95600222D01*
X189033130Y-95409746D01*
X189071226Y-95295460D01*
X189147416Y-95219270D01*
X189223606Y-95181174D01*
X189375987Y-95143079D01*
X189490273Y-95143079D01*
X189642654Y-95181174D01*
X189718845Y-95219270D01*
X189795035Y-95295460D01*
X189833130Y-95409746D01*
X189833130Y-95600222D01*
X189833130Y-94381174D02*
X189833130Y-94838317D01*
X189833130Y-94609746D02*
X189033130Y-94609746D01*
X189147416Y-94685936D01*
X189223606Y-94762127D01*
X189261702Y-94838317D01*
X189033130Y-93885936D02*
X189033130Y-93809746D01*
X189071226Y-93733555D01*
X189109321Y-93695460D01*
X189185511Y-93657365D01*
X189337892Y-93619270D01*
X189528368Y-93619270D01*
X189680749Y-93657365D01*
X189756940Y-93695460D01*
X189795035Y-93733555D01*
X189833130Y-93809746D01*
X189833130Y-93885936D01*
X189795035Y-93962127D01*
X189756940Y-94000222D01*
X189680749Y-94038317D01*
X189528368Y-94076413D01*
X189337892Y-94076413D01*
X189185511Y-94038317D01*
X189109321Y-94000222D01*
X189071226Y-93962127D01*
X189033130Y-93885936D01*
X204893795Y-92703567D02*
X205608081Y-92703567D01*
X205750938Y-92751186D01*
X205846176Y-92846424D01*
X205893795Y-92989281D01*
X205893795Y-93084519D01*
X205893795Y-92227376D02*
X204893795Y-92227376D01*
X204893795Y-91846424D01*
X204941415Y-91751186D01*
X204989034Y-91703567D01*
X205084272Y-91655948D01*
X205227129Y-91655948D01*
X205322367Y-91703567D01*
X205369986Y-91751186D01*
X205417605Y-91846424D01*
X205417605Y-92227376D01*
X205893795Y-91179757D02*
X205893795Y-90989281D01*
X205846176Y-90894043D01*
X205798557Y-90846424D01*
X205655700Y-90751186D01*
X205465224Y-90703567D01*
X205084272Y-90703567D01*
X204989034Y-90751186D01*
X204941415Y-90798805D01*
X204893795Y-90894043D01*
X204893795Y-91084519D01*
X204941415Y-91179757D01*
X204989034Y-91227376D01*
X205084272Y-91274995D01*
X205322367Y-91274995D01*
X205417605Y-91227376D01*
X205465224Y-91179757D01*
X205512843Y-91084519D01*
X205512843Y-90894043D01*
X205465224Y-90798805D01*
X205417605Y-90751186D01*
X205322367Y-90703567D01*
X117467523Y-60746418D02*
X118038952Y-60746418D01*
X117753238Y-61746418D02*
X117753238Y-60746418D01*
X118372285Y-61746418D02*
X118372285Y-60746418D01*
X118372285Y-61222609D02*
X118943714Y-61222609D01*
X118943714Y-61746418D02*
X118943714Y-60746418D01*
X119372285Y-60841657D02*
X119419904Y-60794038D01*
X119515142Y-60746418D01*
X119753238Y-60746418D01*
X119848476Y-60794038D01*
X119896095Y-60841657D01*
X119943714Y-60936895D01*
X119943714Y-61032133D01*
X119896095Y-61174990D01*
X119324666Y-61746418D01*
X119943714Y-61746418D01*
X171873913Y-60167378D02*
X172445342Y-60167378D01*
X172159628Y-61167378D02*
X172159628Y-60167378D01*
X172778675Y-61167378D02*
X172778675Y-60167378D01*
X172778675Y-60643569D02*
X173350104Y-60643569D01*
X173350104Y-61167378D02*
X173350104Y-60167378D01*
X174350104Y-61167378D02*
X173778675Y-61167378D01*
X174064389Y-61167378D02*
X174064389Y-60167378D01*
X173969151Y-60310236D01*
X173873913Y-60405474D01*
X173778675Y-60453093D01*
X151833232Y-71138710D02*
X151033232Y-71138710D01*
X151033232Y-70948234D01*
X151071328Y-70833948D01*
X151147518Y-70757757D01*
X151223708Y-70719662D01*
X151376089Y-70681567D01*
X151490375Y-70681567D01*
X151642756Y-70719662D01*
X151718947Y-70757757D01*
X151795137Y-70833948D01*
X151833232Y-70948234D01*
X151833232Y-71138710D01*
X151033232Y-70414900D02*
X151033232Y-69919662D01*
X151337994Y-70186329D01*
X151337994Y-70072043D01*
X151376089Y-69995853D01*
X151414185Y-69957757D01*
X151490375Y-69919662D01*
X151680851Y-69919662D01*
X151757042Y-69957757D01*
X151795137Y-69995853D01*
X151833232Y-70072043D01*
X151833232Y-70300614D01*
X151795137Y-70376805D01*
X151757042Y-70414900D01*
X170833432Y-112060222D02*
X170033432Y-112060222D01*
X170033432Y-111869746D01*
X170071528Y-111755460D01*
X170147718Y-111679270D01*
X170223908Y-111641174D01*
X170376289Y-111603079D01*
X170490575Y-111603079D01*
X170642956Y-111641174D01*
X170719147Y-111679270D01*
X170795337Y-111755460D01*
X170833432Y-111869746D01*
X170833432Y-112060222D01*
X170833432Y-110841174D02*
X170833432Y-111298317D01*
X170833432Y-111069746D02*
X170033432Y-111069746D01*
X170147718Y-111145936D01*
X170223908Y-111222127D01*
X170262004Y-111298317D01*
X170300099Y-110155460D02*
X170833432Y-110155460D01*
X169995337Y-110345936D02*
X170566766Y-110536413D01*
X170566766Y-110041174D01*
X137786445Y-131775793D02*
X136986445Y-131775793D01*
X136986445Y-131585317D01*
X137024541Y-131471031D01*
X137100731Y-131394841D01*
X137176921Y-131356745D01*
X137329302Y-131318650D01*
X137443588Y-131318650D01*
X137595969Y-131356745D01*
X137672160Y-131394841D01*
X137748350Y-131471031D01*
X137786445Y-131585317D01*
X137786445Y-131775793D01*
X137786445Y-130556745D02*
X137786445Y-131013888D01*
X137786445Y-130785317D02*
X136986445Y-130785317D01*
X137100731Y-130861507D01*
X137176921Y-130937698D01*
X137215017Y-131013888D01*
X136986445Y-129871031D02*
X136986445Y-130023412D01*
X137024541Y-130099603D01*
X137062636Y-130137698D01*
X137176921Y-130213888D01*
X137329302Y-130251984D01*
X137634064Y-130251984D01*
X137710255Y-130213888D01*
X137748350Y-130175793D01*
X137786445Y-130099603D01*
X137786445Y-129947222D01*
X137748350Y-129871031D01*
X137710255Y-129832936D01*
X137634064Y-129794841D01*
X137443588Y-129794841D01*
X137367398Y-129832936D01*
X137329302Y-129871031D01*
X137291207Y-129947222D01*
X137291207Y-130099603D01*
X137329302Y-130175793D01*
X137367398Y-130213888D01*
X137443588Y-130251984D01*
X188342222Y-129485741D02*
X187542222Y-129485741D01*
X187542222Y-129295265D01*
X187580318Y-129180979D01*
X187656508Y-129104789D01*
X187732698Y-129066693D01*
X187885079Y-129028598D01*
X187999365Y-129028598D01*
X188151746Y-129066693D01*
X188227937Y-129104789D01*
X188304127Y-129180979D01*
X188342222Y-129295265D01*
X188342222Y-129485741D01*
X188342222Y-128266693D02*
X188342222Y-128723836D01*
X188342222Y-128495265D02*
X187542222Y-128495265D01*
X187656508Y-128571455D01*
X187732698Y-128647646D01*
X187770794Y-128723836D01*
X188342222Y-127885741D02*
X188342222Y-127733360D01*
X188304127Y-127657170D01*
X188266032Y-127619074D01*
X188151746Y-127542884D01*
X187999365Y-127504789D01*
X187694603Y-127504789D01*
X187618413Y-127542884D01*
X187580318Y-127580979D01*
X187542222Y-127657170D01*
X187542222Y-127809551D01*
X187580318Y-127885741D01*
X187618413Y-127923836D01*
X187694603Y-127961932D01*
X187885079Y-127961932D01*
X187961270Y-127923836D01*
X187999365Y-127885741D01*
X188037460Y-127809551D01*
X188037460Y-127657170D01*
X187999365Y-127580979D01*
X187961270Y-127542884D01*
X187885079Y-127504789D01*
X191000892Y-129485741D02*
X190200892Y-129485741D01*
X190200892Y-129295265D01*
X190238988Y-129180979D01*
X190315178Y-129104789D01*
X190391368Y-129066693D01*
X190543749Y-129028598D01*
X190658035Y-129028598D01*
X190810416Y-129066693D01*
X190886607Y-129104789D01*
X190962797Y-129180979D01*
X191000892Y-129295265D01*
X191000892Y-129485741D01*
X190277083Y-128723836D02*
X190238988Y-128685741D01*
X190200892Y-128609551D01*
X190200892Y-128419074D01*
X190238988Y-128342884D01*
X190277083Y-128304789D01*
X190353273Y-128266693D01*
X190429464Y-128266693D01*
X190543749Y-128304789D01*
X191000892Y-128761932D01*
X191000892Y-128266693D01*
X190200892Y-127771455D02*
X190200892Y-127695265D01*
X190238988Y-127619074D01*
X190277083Y-127580979D01*
X190353273Y-127542884D01*
X190505654Y-127504789D01*
X190696130Y-127504789D01*
X190848511Y-127542884D01*
X190924702Y-127580979D01*
X190962797Y-127619074D01*
X191000892Y-127695265D01*
X191000892Y-127771455D01*
X190962797Y-127847646D01*
X190924702Y-127885741D01*
X190848511Y-127923836D01*
X190696130Y-127961932D01*
X190505654Y-127961932D01*
X190353273Y-127923836D01*
X190277083Y-127885741D01*
X190238988Y-127847646D01*
X190200892Y-127771455D01*
D11*
X200434861Y-112018024D02*
X200434861Y-112375167D01*
X200411051Y-112446595D01*
X200363432Y-112494214D01*
X200292004Y-112518024D01*
X200244385Y-112518024D01*
X200672956Y-112518024D02*
X200672956Y-112018024D01*
X200863432Y-112018024D01*
X200911051Y-112041834D01*
X200934861Y-112065643D01*
X200958670Y-112113262D01*
X200958670Y-112184691D01*
X200934861Y-112232310D01*
X200911051Y-112256119D01*
X200863432Y-112279929D01*
X200672956Y-112279929D01*
X201411051Y-112018024D02*
X201172956Y-112018024D01*
X201149147Y-112256119D01*
X201172956Y-112232310D01*
X201220575Y-112208500D01*
X201339623Y-112208500D01*
X201387242Y-112232310D01*
X201411051Y-112256119D01*
X201434861Y-112303738D01*
X201434861Y-112422786D01*
X201411051Y-112470405D01*
X201387242Y-112494214D01*
X201339623Y-112518024D01*
X201220575Y-112518024D01*
X201172956Y-112494214D01*
X201149147Y-112470405D01*
D10*
X184661476Y-62404404D02*
X184328142Y-61928214D01*
X184090047Y-62404404D02*
X184090047Y-61404404D01*
X184471000Y-61404404D01*
X184566238Y-61452024D01*
X184613857Y-61499643D01*
X184661476Y-61594881D01*
X184661476Y-61737738D01*
X184613857Y-61832976D01*
X184566238Y-61880595D01*
X184471000Y-61928214D01*
X184090047Y-61928214D01*
X185042428Y-62356785D02*
X185185285Y-62404404D01*
X185423381Y-62404404D01*
X185518619Y-62356785D01*
X185566238Y-62309166D01*
X185613857Y-62213928D01*
X185613857Y-62118690D01*
X185566238Y-62023452D01*
X185518619Y-61975833D01*
X185423381Y-61928214D01*
X185232904Y-61880595D01*
X185137666Y-61832976D01*
X185090047Y-61785357D01*
X185042428Y-61690119D01*
X185042428Y-61594881D01*
X185090047Y-61499643D01*
X185137666Y-61452024D01*
X185232904Y-61404404D01*
X185471000Y-61404404D01*
X185613857Y-61452024D01*
X185947190Y-61404404D02*
X186185285Y-62404404D01*
X186375762Y-61690119D01*
X186566238Y-62404404D01*
X186804333Y-61404404D01*
X187709095Y-62404404D02*
X187137666Y-62404404D01*
X187423381Y-62404404D02*
X187423381Y-61404404D01*
X187328142Y-61547262D01*
X187232904Y-61642500D01*
X187137666Y-61690119D01*
X205245161Y-81146614D02*
X204911828Y-80670424D01*
X204673732Y-81146614D02*
X204673732Y-80146614D01*
X205054685Y-80146614D01*
X205149923Y-80194234D01*
X205197542Y-80241853D01*
X205245161Y-80337091D01*
X205245161Y-80479948D01*
X205197542Y-80575186D01*
X205149923Y-80622805D01*
X205054685Y-80670424D01*
X204673732Y-80670424D01*
X205626113Y-80241853D02*
X205673732Y-80194234D01*
X205768970Y-80146614D01*
X206007066Y-80146614D01*
X206102304Y-80194234D01*
X206149923Y-80241853D01*
X206197542Y-80337091D01*
X206197542Y-80432329D01*
X206149923Y-80575186D01*
X205578494Y-81146614D01*
X206197542Y-81146614D01*
X185683553Y-129485741D02*
X184883553Y-129485741D01*
X184883553Y-129295265D01*
X184921649Y-129180979D01*
X184997839Y-129104789D01*
X185074029Y-129066693D01*
X185226410Y-129028598D01*
X185340696Y-129028598D01*
X185493077Y-129066693D01*
X185569268Y-129104789D01*
X185645458Y-129180979D01*
X185683553Y-129295265D01*
X185683553Y-129485741D01*
X185683553Y-128266693D02*
X185683553Y-128723836D01*
X185683553Y-128495265D02*
X184883553Y-128495265D01*
X184997839Y-128571455D01*
X185074029Y-128647646D01*
X185112125Y-128723836D01*
X185226410Y-127809551D02*
X185188315Y-127885741D01*
X185150220Y-127923836D01*
X185074029Y-127961932D01*
X185035934Y-127961932D01*
X184959744Y-127923836D01*
X184921649Y-127885741D01*
X184883553Y-127809551D01*
X184883553Y-127657170D01*
X184921649Y-127580979D01*
X184959744Y-127542884D01*
X185035934Y-127504789D01*
X185074029Y-127504789D01*
X185150220Y-127542884D01*
X185188315Y-127580979D01*
X185226410Y-127657170D01*
X185226410Y-127809551D01*
X185264506Y-127885741D01*
X185302601Y-127923836D01*
X185378791Y-127961932D01*
X185531172Y-127961932D01*
X185607363Y-127923836D01*
X185645458Y-127885741D01*
X185683553Y-127809551D01*
X185683553Y-127657170D01*
X185645458Y-127580979D01*
X185607363Y-127542884D01*
X185531172Y-127504789D01*
X185378791Y-127504789D01*
X185302601Y-127542884D01*
X185264506Y-127580979D01*
X185226410Y-127657170D01*
X170833432Y-73678910D02*
X170033432Y-73678910D01*
X170033432Y-73488434D01*
X170071528Y-73374148D01*
X170147718Y-73297957D01*
X170223908Y-73259862D01*
X170376289Y-73221767D01*
X170490575Y-73221767D01*
X170642956Y-73259862D01*
X170719147Y-73297957D01*
X170795337Y-73374148D01*
X170833432Y-73488434D01*
X170833432Y-73678910D01*
X170300099Y-72536053D02*
X170833432Y-72536053D01*
X169995337Y-72726529D02*
X170566766Y-72917005D01*
X170566766Y-72421767D01*
X132833832Y-112059622D02*
X132033832Y-112059622D01*
X132033832Y-111869146D01*
X132071928Y-111754860D01*
X132148118Y-111678670D01*
X132224308Y-111640574D01*
X132376689Y-111602479D01*
X132490975Y-111602479D01*
X132643356Y-111640574D01*
X132719547Y-111678670D01*
X132795737Y-111754860D01*
X132833832Y-111869146D01*
X132833832Y-112059622D01*
X132833832Y-110840574D02*
X132833832Y-111297717D01*
X132833832Y-111069146D02*
X132033832Y-111069146D01*
X132148118Y-111145336D01*
X132224308Y-111221527D01*
X132262404Y-111297717D01*
X132110023Y-110535813D02*
X132071928Y-110497717D01*
X132033832Y-110421527D01*
X132033832Y-110231051D01*
X132071928Y-110154860D01*
X132110023Y-110116765D01*
X132186213Y-110078670D01*
X132262404Y-110078670D01*
X132376689Y-110116765D01*
X132833832Y-110573908D01*
X132833832Y-110078670D01*
X132833832Y-73679470D02*
X132033832Y-73679470D01*
X132033832Y-73488994D01*
X132071928Y-73374708D01*
X132148118Y-73298517D01*
X132224308Y-73260422D01*
X132376689Y-73222327D01*
X132490975Y-73222327D01*
X132643356Y-73260422D01*
X132719547Y-73298517D01*
X132795737Y-73374708D01*
X132833832Y-73488994D01*
X132833832Y-73679470D01*
X132110023Y-72917565D02*
X132071928Y-72879470D01*
X132033832Y-72803279D01*
X132033832Y-72612803D01*
X132071928Y-72536613D01*
X132110023Y-72498517D01*
X132186213Y-72460422D01*
X132262404Y-72460422D01*
X132376689Y-72498517D01*
X132833832Y-72955660D01*
X132833832Y-72460422D01*
X113833632Y-96178470D02*
X113033632Y-96178470D01*
X113033632Y-95987994D01*
X113071728Y-95873708D01*
X113147918Y-95797517D01*
X113224108Y-95759422D01*
X113376489Y-95721327D01*
X113490775Y-95721327D01*
X113643156Y-95759422D01*
X113719347Y-95797517D01*
X113795537Y-95873708D01*
X113833632Y-95987994D01*
X113833632Y-96178470D01*
X113033632Y-95035613D02*
X113033632Y-95187994D01*
X113071728Y-95264184D01*
X113109823Y-95302279D01*
X113224108Y-95378470D01*
X113376489Y-95416565D01*
X113681251Y-95416565D01*
X113757442Y-95378470D01*
X113795537Y-95340374D01*
X113833632Y-95264184D01*
X113833632Y-95111803D01*
X113795537Y-95035613D01*
X113757442Y-94997517D01*
X113681251Y-94959422D01*
X113490775Y-94959422D01*
X113414585Y-94997517D01*
X113376489Y-95035613D01*
X113338394Y-95111803D01*
X113338394Y-95264184D01*
X113376489Y-95340374D01*
X113414585Y-95378470D01*
X113490775Y-95416565D01*
X201138873Y-146305493D02*
X201710302Y-146305493D01*
X201424588Y-147305493D02*
X201424588Y-146305493D01*
X202043635Y-147305493D02*
X202043635Y-146305493D01*
X202043635Y-146781684D02*
X202615064Y-146781684D01*
X202615064Y-147305493D02*
X202615064Y-146305493D01*
X203567445Y-146305493D02*
X203091254Y-146305493D01*
X203043635Y-146781684D01*
X203091254Y-146734065D01*
X203186492Y-146686446D01*
X203424588Y-146686446D01*
X203519826Y-146734065D01*
X203567445Y-146781684D01*
X203615064Y-146876922D01*
X203615064Y-147115017D01*
X203567445Y-147210255D01*
X203519826Y-147257874D01*
X203424588Y-147305493D01*
X203186492Y-147305493D01*
X203091254Y-147257874D01*
X203043635Y-147210255D01*
X210043257Y-107576652D02*
X210623828Y-107576652D01*
X210739942Y-107615357D01*
X210817352Y-107692766D01*
X210856057Y-107808880D01*
X210856057Y-107886290D01*
X210120666Y-107228309D02*
X210081962Y-107189604D01*
X210043257Y-107112195D01*
X210043257Y-106918671D01*
X210081962Y-106841261D01*
X210120666Y-106802557D01*
X210198076Y-106763852D01*
X210275485Y-106763852D01*
X210391600Y-106802557D01*
X210856057Y-107267014D01*
X210856057Y-106763852D01*
X211911990Y-146086080D02*
X211590015Y-145999807D01*
X211587597Y-145456872D02*
X212047562Y-145580119D01*
X211788743Y-146546045D01*
X211328778Y-146422798D01*
X210597022Y-145290046D02*
X210655343Y-145256374D01*
X210805657Y-145247352D01*
X210897650Y-145272001D01*
X211023315Y-145354972D01*
X211090658Y-145471614D01*
X211112006Y-145575932D01*
X211108703Y-145772242D01*
X211071729Y-145910232D01*
X210976434Y-146081893D01*
X210905788Y-146161561D01*
X210789145Y-146228905D01*
X210638831Y-146237927D01*
X210546838Y-146213277D01*
X210421174Y-146130307D01*
X210387502Y-146071986D01*
X209701742Y-144951558D02*
X210253700Y-145099455D01*
X209977721Y-145025507D02*
X209718902Y-145991433D01*
X209847869Y-145878093D01*
X209964511Y-145810749D01*
X210068829Y-145789402D01*
X117928273Y-116791099D02*
X118499702Y-116791099D01*
X118213988Y-117791099D02*
X118213988Y-116791099D01*
X118833035Y-117791099D02*
X118833035Y-116791099D01*
X118833035Y-117267290D02*
X119404464Y-117267290D01*
X119404464Y-117791099D02*
X119404464Y-116791099D01*
X119785416Y-116791099D02*
X120404464Y-116791099D01*
X120071130Y-117172052D01*
X120213988Y-117172052D01*
X120309226Y-117219671D01*
X120356845Y-117267290D01*
X120404464Y-117362528D01*
X120404464Y-117600623D01*
X120356845Y-117695861D01*
X120309226Y-117743480D01*
X120213988Y-117791099D01*
X119928273Y-117791099D01*
X119833035Y-117743480D01*
X119785416Y-117695861D01*
X202437508Y-93179757D02*
X203151794Y-93179757D01*
X203294651Y-93227376D01*
X203389889Y-93322614D01*
X203437508Y-93465472D01*
X203437508Y-93560710D01*
X203437508Y-92703567D02*
X202437508Y-92703567D01*
X202437508Y-92322614D01*
X202485128Y-92227376D01*
X202532747Y-92179757D01*
X202627985Y-92132138D01*
X202770842Y-92132138D01*
X202866080Y-92179757D01*
X202913699Y-92227376D01*
X202961318Y-92322614D01*
X202961318Y-92703567D01*
X203437508Y-91179757D02*
X203437508Y-91751186D01*
X203437508Y-91465472D02*
X202437508Y-91465472D01*
X202580366Y-91560710D01*
X202675604Y-91655948D01*
X202723223Y-91751186D01*
X202437508Y-90560710D02*
X202437508Y-90465472D01*
X202485128Y-90370234D01*
X202532747Y-90322614D01*
X202627985Y-90274995D01*
X202818461Y-90227376D01*
X203056556Y-90227376D01*
X203247032Y-90274995D01*
X203342270Y-90322614D01*
X203389889Y-90370234D01*
X203437508Y-90465472D01*
X203437508Y-90560710D01*
X203389889Y-90655948D01*
X203342270Y-90703567D01*
X203247032Y-90751186D01*
X203056556Y-90798805D01*
X202818461Y-90798805D01*
X202627985Y-90751186D01*
X202532747Y-90703567D01*
X202485128Y-90655948D01*
X202437508Y-90560710D01*
X209036076Y-128992093D02*
X209036076Y-127992093D01*
X209369409Y-128706379D01*
X209702742Y-127992093D01*
X209702742Y-128992093D01*
X210750362Y-128896855D02*
X210702742Y-128944474D01*
X210559885Y-128992093D01*
X210464647Y-128992093D01*
X210321790Y-128944474D01*
X210226552Y-128849236D01*
X210178933Y-128753998D01*
X210131314Y-128563522D01*
X210131314Y-128420665D01*
X210178933Y-128230189D01*
X210226552Y-128134951D01*
X210321790Y-128039713D01*
X210464647Y-127992093D01*
X210559885Y-127992093D01*
X210702742Y-128039713D01*
X210750362Y-128087332D01*
X211178933Y-127992093D02*
X211178933Y-128801617D01*
X211226552Y-128896855D01*
X211274171Y-128944474D01*
X211369409Y-128992093D01*
X211559885Y-128992093D01*
X211655123Y-128944474D01*
X211702742Y-128896855D01*
X211750362Y-128801617D01*
X211750362Y-127992093D01*
X211988457Y-129087332D02*
X212750362Y-129087332D01*
X212940838Y-128087332D02*
X212988457Y-128039713D01*
X213083695Y-127992093D01*
X213321790Y-127992093D01*
X213417028Y-128039713D01*
X213464647Y-128087332D01*
X213512266Y-128182570D01*
X213512266Y-128277808D01*
X213464647Y-128420665D01*
X212893219Y-128992093D01*
X213512266Y-128992093D01*
X151833232Y-90138670D02*
X151033232Y-90138670D01*
X151033232Y-89948194D01*
X151071328Y-89833908D01*
X151147518Y-89757717D01*
X151223708Y-89719622D01*
X151376089Y-89681527D01*
X151490375Y-89681527D01*
X151642756Y-89719622D01*
X151718947Y-89757717D01*
X151795137Y-89833908D01*
X151833232Y-89948194D01*
X151833232Y-90138670D01*
X151376089Y-89224384D02*
X151337994Y-89300574D01*
X151299899Y-89338670D01*
X151223708Y-89376765D01*
X151185613Y-89376765D01*
X151109423Y-89338670D01*
X151071328Y-89300574D01*
X151033232Y-89224384D01*
X151033232Y-89072003D01*
X151071328Y-88995813D01*
X151109423Y-88957717D01*
X151185613Y-88919622D01*
X151223708Y-88919622D01*
X151299899Y-88957717D01*
X151337994Y-88995813D01*
X151376089Y-89072003D01*
X151376089Y-89224384D01*
X151414185Y-89300574D01*
X151452280Y-89338670D01*
X151528470Y-89376765D01*
X151680851Y-89376765D01*
X151757042Y-89338670D01*
X151795137Y-89300574D01*
X151833232Y-89224384D01*
X151833232Y-89072003D01*
X151795137Y-88995813D01*
X151757042Y-88957717D01*
X151680851Y-88919622D01*
X151528470Y-88919622D01*
X151452280Y-88957717D01*
X151414185Y-88995813D01*
X151376089Y-89072003D01*
X121815514Y-96104699D02*
X121339323Y-96104699D01*
X121339323Y-95104699D01*
X122148847Y-95580890D02*
X122482181Y-95580890D01*
X122625038Y-96104699D02*
X122148847Y-96104699D01*
X122148847Y-95104699D01*
X122625038Y-95104699D01*
X123053609Y-96104699D02*
X123053609Y-95104699D01*
X123291704Y-95104699D01*
X123434562Y-95152319D01*
X123529800Y-95247557D01*
X123577419Y-95342795D01*
X123625038Y-95533271D01*
X123625038Y-95676128D01*
X123577419Y-95866604D01*
X123529800Y-95961842D01*
X123434562Y-96057080D01*
X123291704Y-96104699D01*
X123053609Y-96104699D01*
X124482181Y-95438033D02*
X124482181Y-96104699D01*
X124244085Y-95057080D02*
X124005990Y-95771366D01*
X124625038Y-95771366D01*
X205516080Y-118942538D02*
X205516080Y-118371110D01*
X206516080Y-118656824D02*
X205516080Y-118656824D01*
X206516080Y-117466348D02*
X206039890Y-117799681D01*
X206516080Y-118037776D02*
X205516080Y-118037776D01*
X205516080Y-117656824D01*
X205563700Y-117561586D01*
X205611319Y-117513967D01*
X205706557Y-117466348D01*
X205849414Y-117466348D01*
X205944652Y-117513967D01*
X205992271Y-117561586D01*
X206039890Y-117656824D01*
X206039890Y-118037776D01*
X206516080Y-116466348D02*
X206039890Y-116799681D01*
X206516080Y-117037776D02*
X205516080Y-117037776D01*
X205516080Y-116656824D01*
X205563700Y-116561586D01*
X205611319Y-116513967D01*
X205706557Y-116466348D01*
X205849414Y-116466348D01*
X205944652Y-116513967D01*
X205992271Y-116561586D01*
X206039890Y-116656824D01*
X206039890Y-117037776D01*
X206468461Y-116085395D02*
X206516080Y-115942538D01*
X206516080Y-115704443D01*
X206468461Y-115609205D01*
X206420842Y-115561586D01*
X206325604Y-115513967D01*
X206230366Y-115513967D01*
X206135128Y-115561586D01*
X206087509Y-115609205D01*
X206039890Y-115704443D01*
X205992271Y-115894919D01*
X205944652Y-115990157D01*
X205897033Y-116037776D01*
X205801795Y-116085395D01*
X205706557Y-116085395D01*
X205611319Y-116037776D01*
X205563700Y-115990157D01*
X205516080Y-115894919D01*
X205516080Y-115656824D01*
X205563700Y-115513967D01*
X205516080Y-118942538D02*
X205516080Y-118371110D01*
X206516080Y-118656824D02*
X205516080Y-118656824D01*
X206516080Y-117466348D02*
X206039890Y-117799681D01*
X206516080Y-118037776D02*
X205516080Y-118037776D01*
X205516080Y-117656824D01*
X205563700Y-117561586D01*
X205611319Y-117513967D01*
X205706557Y-117466348D01*
X205849414Y-117466348D01*
X205944652Y-117513967D01*
X205992271Y-117561586D01*
X206039890Y-117656824D01*
X206039890Y-118037776D01*
X206516080Y-116466348D02*
X206039890Y-116799681D01*
X206516080Y-117037776D02*
X205516080Y-117037776D01*
X205516080Y-116656824D01*
X205563700Y-116561586D01*
X205611319Y-116513967D01*
X205706557Y-116466348D01*
X205849414Y-116466348D01*
X205944652Y-116513967D01*
X205992271Y-116561586D01*
X206039890Y-116656824D01*
X206039890Y-117037776D01*
X206468461Y-116085395D02*
X206516080Y-115942538D01*
X206516080Y-115704443D01*
X206468461Y-115609205D01*
X206420842Y-115561586D01*
X206325604Y-115513967D01*
X206230366Y-115513967D01*
X206135128Y-115561586D01*
X206087509Y-115609205D01*
X206039890Y-115704443D01*
X205992271Y-115894919D01*
X205944652Y-115990157D01*
X205897033Y-116037776D01*
X205801795Y-116085395D01*
X205706557Y-116085395D01*
X205611319Y-116037776D01*
X205563700Y-115990157D01*
X205516080Y-115894919D01*
X205516080Y-115656824D01*
X205563700Y-115513967D01*
X170833432Y-92678870D02*
X170033432Y-92678870D01*
X170033432Y-92488394D01*
X170071528Y-92374108D01*
X170147718Y-92297917D01*
X170223908Y-92259822D01*
X170376289Y-92221727D01*
X170490575Y-92221727D01*
X170642956Y-92259822D01*
X170719147Y-92297917D01*
X170795337Y-92374108D01*
X170833432Y-92488394D01*
X170833432Y-92678870D01*
X170833432Y-91840774D02*
X170833432Y-91688394D01*
X170795337Y-91612203D01*
X170757242Y-91574108D01*
X170642956Y-91497917D01*
X170490575Y-91459822D01*
X170185813Y-91459822D01*
X170109623Y-91497917D01*
X170071528Y-91536013D01*
X170033432Y-91612203D01*
X170033432Y-91764584D01*
X170071528Y-91840774D01*
X170109623Y-91878870D01*
X170185813Y-91916965D01*
X170376289Y-91916965D01*
X170452480Y-91878870D01*
X170490575Y-91840774D01*
X170528670Y-91764584D01*
X170528670Y-91612203D01*
X170490575Y-91536013D01*
X170452480Y-91497917D01*
X170376289Y-91459822D01*
X146651914Y-92574099D02*
X146175723Y-92574099D01*
X146175723Y-91574099D01*
X146985247Y-92050290D02*
X147318581Y-92050290D01*
X147461438Y-92574099D02*
X146985247Y-92574099D01*
X146985247Y-91574099D01*
X147461438Y-91574099D01*
X147890009Y-92574099D02*
X147890009Y-91574099D01*
X148128104Y-91574099D01*
X148270962Y-91621719D01*
X148366200Y-91716957D01*
X148413819Y-91812195D01*
X148461438Y-92002671D01*
X148461438Y-92145528D01*
X148413819Y-92336004D01*
X148366200Y-92431242D01*
X148270962Y-92526480D01*
X148128104Y-92574099D01*
X147890009Y-92574099D01*
X148794771Y-91574099D02*
X149413819Y-91574099D01*
X149080485Y-91955052D01*
X149223342Y-91955052D01*
X149318581Y-92002671D01*
X149366200Y-92050290D01*
X149413819Y-92145528D01*
X149413819Y-92383623D01*
X149366200Y-92478861D01*
X149318581Y-92526480D01*
X149223342Y-92574099D01*
X148937628Y-92574099D01*
X148842390Y-92526480D01*
X148794771Y-92478861D01*
X194774702Y-118705493D02*
X194774702Y-117705493D01*
X195108035Y-118419779D01*
X195441368Y-117705493D01*
X195441368Y-118705493D01*
X196488988Y-118610255D02*
X196441368Y-118657874D01*
X196298511Y-118705493D01*
X196203273Y-118705493D01*
X196060416Y-118657874D01*
X195965178Y-118562636D01*
X195917559Y-118467398D01*
X195869940Y-118276922D01*
X195869940Y-118134065D01*
X195917559Y-117943589D01*
X195965178Y-117848351D01*
X196060416Y-117753113D01*
X196203273Y-117705493D01*
X196298511Y-117705493D01*
X196441368Y-117753113D01*
X196488988Y-117800732D01*
X196917559Y-117705493D02*
X196917559Y-118515017D01*
X196965178Y-118610255D01*
X197012797Y-118657874D01*
X197108035Y-118705493D01*
X197298511Y-118705493D01*
X197393749Y-118657874D01*
X197441368Y-118610255D01*
X197488988Y-118515017D01*
X197488988Y-117705493D01*
X197727083Y-118800732D02*
X198488988Y-118800732D01*
X199250892Y-118705493D02*
X198679464Y-118705493D01*
X198965178Y-118705493D02*
X198965178Y-117705493D01*
X198869940Y-117848351D01*
X198774702Y-117943589D01*
X198679464Y-117991208D01*
X171787647Y-117045099D02*
X172359076Y-117045099D01*
X172073362Y-118045099D02*
X172073362Y-117045099D01*
X172692409Y-118045099D02*
X172692409Y-117045099D01*
X172692409Y-117521290D02*
X173263838Y-117521290D01*
X173263838Y-118045099D02*
X173263838Y-117045099D01*
X174168600Y-117378433D02*
X174168600Y-118045099D01*
X173930504Y-116997480D02*
X173692409Y-117711766D01*
X174311457Y-117711766D01*
X113833632Y-115559822D02*
X113033632Y-115559822D01*
X113033632Y-115369346D01*
X113071728Y-115255060D01*
X113147918Y-115178870D01*
X113224108Y-115140774D01*
X113376489Y-115102679D01*
X113490775Y-115102679D01*
X113643156Y-115140774D01*
X113719347Y-115178870D01*
X113795537Y-115255060D01*
X113833632Y-115369346D01*
X113833632Y-115559822D01*
X113833632Y-114340774D02*
X113833632Y-114797917D01*
X113833632Y-114569346D02*
X113033632Y-114569346D01*
X113147918Y-114645536D01*
X113224108Y-114721727D01*
X113262204Y-114797917D01*
X113833632Y-113578870D02*
X113833632Y-114036013D01*
X113833632Y-113807441D02*
X113033632Y-113807441D01*
X113147918Y-113883632D01*
X113224108Y-113959822D01*
X113262204Y-114036013D01*
X189833130Y-114600222D02*
X189033130Y-114600222D01*
X189033130Y-114409746D01*
X189071226Y-114295460D01*
X189147416Y-114219270D01*
X189223606Y-114181174D01*
X189375987Y-114143079D01*
X189490273Y-114143079D01*
X189642654Y-114181174D01*
X189718845Y-114219270D01*
X189795035Y-114295460D01*
X189833130Y-114409746D01*
X189833130Y-114600222D01*
X189833130Y-113381174D02*
X189833130Y-113838317D01*
X189833130Y-113609746D02*
X189033130Y-113609746D01*
X189147416Y-113685936D01*
X189223606Y-113762127D01*
X189261702Y-113838317D01*
X189033130Y-112657365D02*
X189033130Y-113038317D01*
X189414083Y-113076413D01*
X189375987Y-113038317D01*
X189337892Y-112962127D01*
X189337892Y-112771651D01*
X189375987Y-112695460D01*
X189414083Y-112657365D01*
X189490273Y-112619270D01*
X189680749Y-112619270D01*
X189756940Y-112657365D01*
X189795035Y-112695460D01*
X189833130Y-112771651D01*
X189833130Y-112962127D01*
X189795035Y-113038317D01*
X189756940Y-113076413D01*
X189833259Y-76219826D02*
X189033259Y-76219826D01*
X189033259Y-76029350D01*
X189071355Y-75915064D01*
X189147545Y-75838873D01*
X189223735Y-75800778D01*
X189376116Y-75762683D01*
X189490402Y-75762683D01*
X189642783Y-75800778D01*
X189718974Y-75838873D01*
X189795164Y-75915064D01*
X189833259Y-76029350D01*
X189833259Y-76219826D01*
X189033259Y-75038873D02*
X189033259Y-75419826D01*
X189414212Y-75457921D01*
X189376116Y-75419826D01*
X189338021Y-75343635D01*
X189338021Y-75153159D01*
X189376116Y-75076969D01*
X189414212Y-75038873D01*
X189490402Y-75000778D01*
X189680878Y-75000778D01*
X189757069Y-75038873D01*
X189795164Y-75076969D01*
X189833259Y-75153159D01*
X189833259Y-75343635D01*
X189795164Y-75419826D01*
X189757069Y-75457921D01*
X151833232Y-109519822D02*
X151033232Y-109519822D01*
X151033232Y-109329346D01*
X151071328Y-109215060D01*
X151147518Y-109138870D01*
X151223708Y-109100774D01*
X151376089Y-109062679D01*
X151490375Y-109062679D01*
X151642756Y-109100774D01*
X151718947Y-109138870D01*
X151795137Y-109215060D01*
X151833232Y-109329346D01*
X151833232Y-109519822D01*
X151833232Y-108300774D02*
X151833232Y-108757917D01*
X151833232Y-108529346D02*
X151033232Y-108529346D01*
X151147518Y-108605536D01*
X151223708Y-108681727D01*
X151261804Y-108757917D01*
X151033232Y-108034108D02*
X151033232Y-107538870D01*
X151337994Y-107805536D01*
X151337994Y-107691251D01*
X151376089Y-107615060D01*
X151414185Y-107576965D01*
X151490375Y-107538870D01*
X151680851Y-107538870D01*
X151757042Y-107576965D01*
X151795137Y-107615060D01*
X151833232Y-107691251D01*
X151833232Y-107919822D01*
X151795137Y-107996013D01*
X151757042Y-108034108D01*
D11*
X208105661Y-112018024D02*
X208105661Y-112375167D01*
X208081851Y-112446595D01*
X208034232Y-112494214D01*
X207962804Y-112518024D01*
X207915185Y-112518024D01*
X208343756Y-112518024D02*
X208343756Y-112018024D01*
X208534232Y-112018024D01*
X208581851Y-112041834D01*
X208605661Y-112065643D01*
X208629470Y-112113262D01*
X208629470Y-112184691D01*
X208605661Y-112232310D01*
X208581851Y-112256119D01*
X208534232Y-112279929D01*
X208343756Y-112279929D01*
X208915185Y-112232310D02*
X208867566Y-112208500D01*
X208843756Y-112184691D01*
X208819947Y-112137072D01*
X208819947Y-112113262D01*
X208843756Y-112065643D01*
X208867566Y-112041834D01*
X208915185Y-112018024D01*
X209010423Y-112018024D01*
X209058042Y-112041834D01*
X209081851Y-112065643D01*
X209105661Y-112113262D01*
X209105661Y-112137072D01*
X209081851Y-112184691D01*
X209058042Y-112208500D01*
X209010423Y-112232310D01*
X208915185Y-112232310D01*
X208867566Y-112256119D01*
X208843756Y-112279929D01*
X208819947Y-112327548D01*
X208819947Y-112422786D01*
X208843756Y-112470405D01*
X208867566Y-112494214D01*
X208915185Y-112518024D01*
X209010423Y-112518024D01*
X209058042Y-112494214D01*
X209081851Y-112470405D01*
X209105661Y-112422786D01*
X209105661Y-112327548D01*
X209081851Y-112279929D01*
X209058042Y-112256119D01*
X209010423Y-112232310D01*
D10*
X132079224Y-128056902D02*
X132079224Y-128771188D01*
X132031605Y-128914045D01*
X131936367Y-129009283D01*
X131793510Y-129056902D01*
X131698272Y-129056902D01*
X132460177Y-128056902D02*
X133079224Y-128056902D01*
X132745891Y-128437855D01*
X132888748Y-128437855D01*
X132983986Y-128485474D01*
X133031605Y-128533093D01*
X133079224Y-128628331D01*
X133079224Y-128866426D01*
X133031605Y-128961664D01*
X132983986Y-129009283D01*
X132888748Y-129056902D01*
X132603034Y-129056902D01*
X132507796Y-129009283D01*
X132460177Y-128961664D01*
X213635988Y-102995113D02*
X213635988Y-103995113D01*
X195835988Y-103995113D02*
X196835988Y-103995113D01*
X213635988Y-103995113D02*
X212625988Y-103995113D01*
X195835988Y-70945113D02*
X196835988Y-70945113D01*
X213635988Y-70945113D02*
X213635988Y-71945113D01*
X195835988Y-102945113D02*
X195835988Y-103995113D01*
X213635988Y-70945113D02*
X212685988Y-70945113D01*
X195835988Y-70945113D02*
X195835988Y-71945113D01*
D12*
X193793762Y-106773833D02*
X193793762Y-114073833D01*
X199293762Y-106773833D02*
X199293762Y-114073833D01*
X193793762Y-114073833D02*
X194943762Y-114073833D01*
D13*
X149814988Y-127951313D02*
X152214988Y-127951313D01*
X152214988Y-127951313D02*
X152214988Y-133951313D01*
X152214988Y-133951313D02*
X149814988Y-133951313D01*
X149814988Y-133951313D02*
X149814988Y-127951313D01*
G36*
X152214988Y-133951313D02*
G01*
X149814988Y-133951313D01*
X149814988Y-133392913D01*
X152214988Y-133392913D01*
X152214988Y-133951313D01*
G37*
X152214988Y-133951313D02*
X149814988Y-133951313D01*
X149814988Y-133392913D01*
X152214988Y-133392913D01*
X152214988Y-133951313D01*
D10*
X199937694Y-135400924D02*
X198916652Y-139211501D01*
X198914323Y-139220194D02*
X195427331Y-138285858D01*
X188903370Y-134467215D02*
X189914834Y-130692377D01*
X199402370Y-137347821D02*
X198884732Y-139279672D01*
X189914834Y-130692377D02*
X198245945Y-132924691D01*
X188891464Y-134511648D02*
X193757484Y-135863116D01*
X198896637Y-139235240D02*
X197351156Y-138821129D01*
X195428714Y-138261381D02*
G75*
G03*
X193732300Y-135860510I-2048642J352229D01*
G01*
X199945187Y-135330462D02*
G75*
G03*
X198245945Y-132924691I-2052506J353265D01*
G01*
X171212928Y-108351594D02*
X169612928Y-108351594D01*
X171212928Y-106397594D02*
X171212928Y-108397594D01*
X160326117Y-106378484D02*
X165376117Y-106424484D01*
X171226117Y-104378484D02*
X171226117Y-108323484D01*
X171226117Y-108332484D02*
X167616117Y-108332484D01*
X160326117Y-106332484D02*
X160326117Y-102424484D01*
X160326117Y-102424484D02*
X168951117Y-102424484D01*
X167611118Y-108308483D02*
G75*
G03*
X165351117Y-106428484I-2070000J-190001D01*
G01*
X171215118Y-104308484D02*
G75*
G03*
X168951117Y-102424484I-2074000J-190000D01*
G01*
D12*
X176257362Y-101902319D02*
X176257362Y-100752319D01*
X168957362Y-96402319D02*
X176257362Y-96402319D01*
X168957362Y-101902319D02*
X176257362Y-101902319D01*
X204420639Y-109699948D02*
X204420639Y-111099948D01*
X202420639Y-111099948D02*
X202420639Y-109699948D01*
X203120639Y-108999948D02*
X203720639Y-108999948D01*
X203720639Y-111799948D02*
X203120639Y-111799948D01*
X203720639Y-111799948D02*
G75*
G03*
X204420639Y-111099948I0J700000D01*
G01*
X202420639Y-111099948D02*
G75*
G03*
X203120639Y-111799948I700000J0D01*
G01*
X204420639Y-109699948D02*
G75*
G03*
X203720639Y-108999948I-699999J1D01*
G01*
X203120639Y-108999948D02*
G75*
G03*
X202420639Y-109699948I-1J-699999D01*
G01*
D10*
X171212928Y-68397234D02*
X171212928Y-70397234D01*
X160326117Y-68378124D02*
X165376117Y-68424124D01*
X171226117Y-66378124D02*
X171226117Y-70323124D01*
X160326117Y-64424124D02*
X168951117Y-64424124D01*
X171226117Y-70332124D02*
X167616117Y-70332124D01*
X171212928Y-70351234D02*
X169612928Y-70351234D01*
X160326117Y-68332124D02*
X160326117Y-64424124D01*
X171215118Y-66308124D02*
G75*
G03*
X168951117Y-64424124I-2074000J-190000D01*
G01*
X167611118Y-70308123D02*
G75*
G03*
X165351117Y-68428124I-2070000J-190001D01*
G01*
X141325917Y-103792084D02*
X141325917Y-99884084D01*
X141325917Y-103838084D02*
X146375917Y-103884084D01*
X152212728Y-105811194D02*
X150612728Y-105811194D01*
X152212728Y-103857194D02*
X152212728Y-105857194D01*
X152225917Y-101838084D02*
X152225917Y-105783084D01*
X141325917Y-99884084D02*
X149950917Y-99884084D01*
X152225917Y-105792084D02*
X148615917Y-105792084D01*
X148610918Y-105768083D02*
G75*
G03*
X146350917Y-103888084I-2070000J-190001D01*
G01*
X152214918Y-101768084D02*
G75*
G03*
X149950917Y-99884084I-2074000J-190000D01*
G01*
X103326317Y-109878084D02*
X108376317Y-109924084D01*
X114213128Y-109897194D02*
X114213128Y-111897194D01*
X114226317Y-111832084D02*
X110616317Y-111832084D01*
X114226317Y-107878084D02*
X114226317Y-111823084D01*
X103326317Y-105924084D02*
X111951317Y-105924084D01*
X114213128Y-111851194D02*
X112613128Y-111851194D01*
X103326317Y-109832084D02*
X103326317Y-105924084D01*
X114215318Y-107808084D02*
G75*
G03*
X111951317Y-105924084I-2074000J-190000D01*
G01*
X110611318Y-111808083D02*
G75*
G03*
X108351317Y-109928084I-2070000J-190001D01*
G01*
X190212626Y-110891594D02*
X188612626Y-110891594D01*
X179325815Y-108918484D02*
X184375815Y-108964484D01*
X179325815Y-108872484D02*
X179325815Y-104964484D01*
X179325815Y-104964484D02*
X187950815Y-104964484D01*
X190225815Y-106918484D02*
X190225815Y-110863484D01*
X190225815Y-110872484D02*
X186615815Y-110872484D01*
X190212626Y-108937594D02*
X190212626Y-110937594D01*
X190214816Y-106848484D02*
G75*
G03*
X187950815Y-104964484I-2074000J-190000D01*
G01*
X186610816Y-110848483D02*
G75*
G03*
X184350815Y-108968484I-2070000J-190001D01*
G01*
D12*
X203987160Y-83261202D02*
X203987160Y-84465330D01*
X202167160Y-83261202D02*
X202167160Y-84465330D01*
X205660639Y-108999948D02*
X206260639Y-108999948D01*
X206960639Y-109699948D02*
X206960639Y-111099948D01*
X206260639Y-111799948D02*
X205660639Y-111799948D01*
X204960639Y-111099948D02*
X204960639Y-109699948D01*
X204960639Y-111099948D02*
G75*
G03*
X205660639Y-111799948I700000J0D01*
G01*
X206260639Y-111799948D02*
G75*
G03*
X206960639Y-111099948I0J700000D01*
G01*
X205660639Y-108999948D02*
G75*
G03*
X204960639Y-109699948I-1J-699999D01*
G01*
X206960639Y-109699948D02*
G75*
G03*
X206260639Y-108999948I-699999J1D01*
G01*
D13*
X114710128Y-73838394D02*
X117110128Y-73838394D01*
X117110128Y-73838394D02*
X117110128Y-79838394D01*
X117110128Y-79838394D02*
X114710128Y-79838394D01*
X114710128Y-79838394D02*
X114710128Y-73838394D01*
G36*
X117110128Y-79838394D02*
G01*
X114710128Y-79838394D01*
X114710128Y-79279994D01*
X117110128Y-79279994D01*
X117110128Y-79838394D01*
G37*
X117110128Y-79838394D02*
X114710128Y-79838394D01*
X114710128Y-79279994D01*
X117110128Y-79279994D01*
X117110128Y-79838394D01*
X133710328Y-89339394D02*
X136110328Y-89339394D01*
X136110328Y-89339394D02*
X136110328Y-95339394D01*
X136110328Y-95339394D02*
X133710328Y-95339394D01*
X133710328Y-95339394D02*
X133710328Y-89339394D01*
G36*
X136110328Y-95339394D02*
G01*
X133710328Y-95339394D01*
X133710328Y-94780994D01*
X136110328Y-94780994D01*
X136110328Y-95339394D01*
G37*
X136110328Y-95339394D02*
X133710328Y-95339394D01*
X133710328Y-94780994D01*
X136110328Y-94780994D01*
X136110328Y-95339394D01*
X190709626Y-91879594D02*
X193109626Y-91879594D01*
X193109626Y-91879594D02*
X193109626Y-97879594D01*
X193109626Y-97879594D02*
X190709626Y-97879594D01*
X190709626Y-97879594D02*
X190709626Y-91879594D01*
G36*
X193109626Y-97879594D02*
G01*
X190709626Y-97879594D01*
X190709626Y-97321194D01*
X193109626Y-97321194D01*
X193109626Y-97879594D01*
G37*
X193109626Y-97879594D02*
X190709626Y-97879594D01*
X190709626Y-97321194D01*
X193109626Y-97321194D01*
X193109626Y-97879594D01*
D12*
X205773530Y-89932032D02*
X205173530Y-89932032D01*
X204473530Y-89232032D02*
X204473530Y-87832032D01*
X205173530Y-87132032D02*
X205773530Y-87132032D01*
X206473530Y-87832032D02*
X206473530Y-89232032D01*
X205173530Y-87132032D02*
G75*
G03*
X204473530Y-87832032I0J-700000D01*
G01*
X204473530Y-89232032D02*
G75*
G03*
X205173530Y-89932032I699999J-1D01*
G01*
X205773530Y-89932032D02*
G75*
G03*
X206473530Y-89232032I1J699999D01*
G01*
X206473530Y-87832032D02*
G75*
G03*
X205773530Y-87132032I-700000J0D01*
G01*
D10*
X179325815Y-70872684D02*
X179325815Y-66964684D01*
X190225815Y-72872684D02*
X186615815Y-72872684D01*
X190212626Y-72891794D02*
X188612626Y-72891794D01*
X179325815Y-66964684D02*
X187950815Y-66964684D01*
X190212626Y-70937794D02*
X190212626Y-72937794D01*
X190225815Y-68918684D02*
X190225815Y-72863684D01*
X179325815Y-70918684D02*
X184375815Y-70964684D01*
X190214816Y-68848684D02*
G75*
G03*
X187950815Y-66964684I-2074000J-190000D01*
G01*
X186610816Y-72848683D02*
G75*
G03*
X184350815Y-70968684I-2070000J-190001D01*
G01*
X179325815Y-85964484D02*
X187950815Y-85964484D01*
X190212626Y-91891594D02*
X188612626Y-91891594D01*
X190212626Y-89937594D02*
X190212626Y-91937594D01*
X190225815Y-91872484D02*
X186615815Y-91872484D01*
X179325815Y-89918484D02*
X184375815Y-89964484D01*
X179325815Y-89872484D02*
X179325815Y-85964484D01*
X190225815Y-87918484D02*
X190225815Y-91863484D01*
X186610816Y-91848483D02*
G75*
G03*
X184350815Y-89968484I-2070000J-190001D01*
G01*
X190214816Y-87848484D02*
G75*
G03*
X187950815Y-85964484I-2074000J-190000D01*
G01*
D13*
X152709728Y-67799034D02*
X155109728Y-67799034D01*
X155109728Y-67799034D02*
X155109728Y-73799034D01*
X155109728Y-73799034D02*
X152709728Y-73799034D01*
X152709728Y-73799034D02*
X152709728Y-67799034D01*
G36*
X155109728Y-73799034D02*
G01*
X152709728Y-73799034D01*
X152709728Y-73240634D01*
X155109728Y-73240634D01*
X155109728Y-73799034D01*
G37*
X155109728Y-73799034D02*
X152709728Y-73799034D01*
X152709728Y-73240634D01*
X155109728Y-73240634D01*
X155109728Y-73799034D01*
X171709928Y-108339594D02*
X174109928Y-108339594D01*
X174109928Y-108339594D02*
X174109928Y-114339594D01*
X174109928Y-114339594D02*
X171709928Y-114339594D01*
X171709928Y-114339594D02*
X171709928Y-108339594D01*
G36*
X174109928Y-114339594D02*
G01*
X171709928Y-114339594D01*
X171709928Y-113781194D01*
X174109928Y-113781194D01*
X174109928Y-114339594D01*
G37*
X174109928Y-114339594D02*
X171709928Y-114339594D01*
X171709928Y-113781194D01*
X174109928Y-113781194D01*
X174109928Y-114339594D01*
D10*
X122326517Y-106331884D02*
X122326517Y-102423884D01*
X122326517Y-102423884D02*
X130951517Y-102423884D01*
X133226517Y-108331884D02*
X129616517Y-108331884D01*
X122326517Y-106377884D02*
X127376517Y-106423884D01*
X133213328Y-106396994D02*
X133213328Y-108396994D01*
X133226517Y-104377884D02*
X133226517Y-108322884D01*
X133213328Y-108350994D02*
X131613328Y-108350994D01*
X129611518Y-108307883D02*
G75*
G03*
X127351517Y-106427884I-2070000J-190001D01*
G01*
X133215518Y-104307884D02*
G75*
G03*
X130951517Y-102423884I-2074000J-190000D01*
G01*
D13*
X134193988Y-127951313D02*
X136593988Y-127951313D01*
X136593988Y-127951313D02*
X136593988Y-133951313D01*
X136593988Y-133951313D02*
X134193988Y-133951313D01*
X134193988Y-133951313D02*
X134193988Y-127951313D01*
G36*
X136593988Y-133951313D02*
G01*
X134193988Y-133951313D01*
X134193988Y-133392913D01*
X136593988Y-133392913D01*
X136593988Y-133951313D01*
G37*
X136593988Y-133951313D02*
X134193988Y-133951313D01*
X134193988Y-133392913D01*
X136593988Y-133392913D01*
X136593988Y-133951313D01*
X189180142Y-127080634D02*
X186780142Y-127080634D01*
X186780142Y-127080634D02*
X186780142Y-121080634D01*
X186780142Y-121080634D02*
X189180142Y-121080634D01*
X189180142Y-121080634D02*
X189180142Y-127080634D01*
G36*
X189180142Y-121639034D02*
G01*
X186780142Y-121639034D01*
X186780142Y-121080634D01*
X189180142Y-121080634D01*
X189180142Y-121639034D01*
G37*
X189180142Y-121639034D02*
X186780142Y-121639034D01*
X186780142Y-121080634D01*
X189180142Y-121080634D01*
X189180142Y-121639034D01*
D12*
X139813754Y-138862573D02*
X138188154Y-138862573D01*
X155561754Y-120117373D02*
X155561754Y-121844573D01*
X138188154Y-138862573D02*
X138188154Y-137135373D01*
X153936154Y-120117373D02*
X155561754Y-120117373D01*
D13*
X191838812Y-127080634D02*
X189438812Y-127080634D01*
X189438812Y-127080634D02*
X189438812Y-121080634D01*
X189438812Y-121080634D02*
X191838812Y-121080634D01*
X191838812Y-121080634D02*
X191838812Y-127080634D01*
G36*
X191838812Y-121639034D02*
G01*
X189438812Y-121639034D01*
X189438812Y-121080634D01*
X191838812Y-121080634D01*
X191838812Y-121639034D01*
G37*
X191838812Y-121639034D02*
X189438812Y-121639034D01*
X189438812Y-121080634D01*
X191838812Y-121080634D01*
X191838812Y-121639034D01*
D12*
X200580639Y-108999948D02*
X201180639Y-108999948D01*
X199880639Y-111099948D02*
X199880639Y-109699948D01*
X201880639Y-109699948D02*
X201880639Y-111099948D01*
X201180639Y-111799948D02*
X200580639Y-111799948D01*
X199880639Y-111099948D02*
G75*
G03*
X200580639Y-111799948I700000J0D01*
G01*
X201180639Y-111799948D02*
G75*
G03*
X201880639Y-111099948I0J700000D01*
G01*
X200580639Y-108999948D02*
G75*
G03*
X199880639Y-109699948I-1J-699999D01*
G01*
X201880639Y-109699948D02*
G75*
G03*
X201180639Y-108999948I-699999J1D01*
G01*
X184625762Y-64619109D02*
X187125762Y-64619109D01*
X184175762Y-64169109D02*
X184625762Y-64619109D01*
X187575762Y-59569109D02*
X187125762Y-59119109D01*
X184625762Y-59119109D02*
X187125762Y-59119109D01*
X183125762Y-60869109D02*
X183125762Y-62869109D01*
X184175762Y-59569109D02*
X184625762Y-59119109D01*
X187575762Y-64169109D02*
X187125762Y-64619109D01*
X188625762Y-60869109D02*
X188625762Y-62869109D01*
X204492260Y-83261202D02*
X204492260Y-84465330D01*
X206312260Y-83261202D02*
X206312260Y-84465330D01*
D10*
X114226317Y-92831684D02*
X110616317Y-92831684D01*
X103326317Y-86923684D02*
X111951317Y-86923684D01*
X114213128Y-90896794D02*
X114213128Y-92896794D01*
X103326317Y-90831684D02*
X103326317Y-86923684D01*
X103326317Y-90877684D02*
X108376317Y-90923684D01*
X114226317Y-88877684D02*
X114226317Y-92822684D01*
X114213128Y-92850794D02*
X112613128Y-92850794D01*
X110611318Y-92807683D02*
G75*
G03*
X108351317Y-90927684I-2070000J-190001D01*
G01*
X114215318Y-88807684D02*
G75*
G03*
X111951317Y-86923684I-2074000J-190000D01*
G01*
D13*
X186521473Y-127080634D02*
X184121473Y-127080634D01*
X184121473Y-127080634D02*
X184121473Y-121080634D01*
X184121473Y-121080634D02*
X186521473Y-121080634D01*
X186521473Y-121080634D02*
X186521473Y-127080634D01*
G36*
X186521473Y-121639034D02*
G01*
X184121473Y-121639034D01*
X184121473Y-121080634D01*
X186521473Y-121080634D01*
X186521473Y-121639034D01*
G37*
X186521473Y-121639034D02*
X184121473Y-121639034D01*
X184121473Y-121080634D01*
X186521473Y-121080634D01*
X186521473Y-121639034D01*
X171709928Y-70339234D02*
X174109928Y-70339234D01*
X174109928Y-70339234D02*
X174109928Y-76339234D01*
X174109928Y-76339234D02*
X171709928Y-76339234D01*
X171709928Y-76339234D02*
X171709928Y-70339234D01*
G36*
X174109928Y-76339234D02*
G01*
X171709928Y-76339234D01*
X171709928Y-75780834D01*
X174109928Y-75780834D01*
X174109928Y-76339234D01*
G37*
X174109928Y-76339234D02*
X171709928Y-76339234D01*
X171709928Y-75780834D01*
X174109928Y-75780834D01*
X174109928Y-76339234D01*
X133710328Y-108338994D02*
X136110328Y-108338994D01*
X136110328Y-108338994D02*
X136110328Y-114338994D01*
X136110328Y-114338994D02*
X133710328Y-114338994D01*
X133710328Y-114338994D02*
X133710328Y-108338994D01*
G36*
X136110328Y-114338994D02*
G01*
X133710328Y-114338994D01*
X133710328Y-113780594D01*
X136110328Y-113780594D01*
X136110328Y-114338994D01*
G37*
X136110328Y-114338994D02*
X133710328Y-114338994D01*
X133710328Y-113780594D01*
X136110328Y-113780594D01*
X136110328Y-114338994D01*
X133710328Y-70339794D02*
X136110328Y-70339794D01*
X136110328Y-70339794D02*
X136110328Y-76339794D01*
X136110328Y-76339794D02*
X133710328Y-76339794D01*
X133710328Y-76339794D02*
X133710328Y-70339794D01*
G36*
X136110328Y-76339794D02*
G01*
X133710328Y-76339794D01*
X133710328Y-75781394D01*
X136110328Y-75781394D01*
X136110328Y-76339794D01*
G37*
X136110328Y-76339794D02*
X133710328Y-76339794D01*
X133710328Y-75781394D01*
X136110328Y-75781394D01*
X136110328Y-76339794D01*
X114710128Y-92838794D02*
X117110128Y-92838794D01*
X117110128Y-92838794D02*
X117110128Y-98838794D01*
X117110128Y-98838794D02*
X114710128Y-98838794D01*
X114710128Y-98838794D02*
X114710128Y-92838794D01*
G36*
X117110128Y-98838794D02*
G01*
X114710128Y-98838794D01*
X114710128Y-98280394D01*
X117110128Y-98280394D01*
X117110128Y-98838794D01*
G37*
X117110128Y-98838794D02*
X114710128Y-98838794D01*
X114710128Y-98280394D01*
X117110128Y-98280394D01*
X117110128Y-98838794D01*
D10*
X209770639Y-105994021D02*
X209770639Y-108534021D01*
X199610639Y-108534021D02*
X209770639Y-108534021D01*
X199610639Y-108534021D02*
X199610639Y-105994021D01*
X199610639Y-105994021D02*
X209770639Y-105994021D01*
D12*
X214924188Y-141112713D02*
G75*
G03*
X214924188Y-141112713I-3000000J0D01*
G01*
X212247281Y-134884101D02*
X214758688Y-135557030D01*
X207804022Y-133693533D02*
X210122244Y-134314699D01*
X206100395Y-147006221D02*
X206312527Y-147373644D01*
X205707588Y-141517532D02*
X204646429Y-145477828D01*
X219201947Y-136747598D02*
X218140788Y-140707894D01*
X205945104Y-147585776D02*
X206100395Y-147006221D01*
X204646429Y-145477828D02*
X216044354Y-148531893D01*
X211441225Y-140983303D02*
X212407151Y-141242123D01*
X217105512Y-144571597D02*
X216044354Y-148531893D01*
X206312527Y-147373644D02*
X205945104Y-147585776D01*
X211794778Y-141595676D02*
X212053598Y-140629750D01*
X206742864Y-137653829D02*
X207804022Y-133693533D01*
X216883725Y-136126432D02*
X219201947Y-136747598D01*
X204017243Y-87832032D02*
X204017243Y-89232032D01*
X202017243Y-89232032D02*
X202017243Y-87832032D01*
X203317243Y-89932032D02*
X202717243Y-89932032D01*
X202717243Y-87132032D02*
X203317243Y-87132032D01*
X203317243Y-89932032D02*
G75*
G03*
X204017243Y-89232032I1J699999D01*
G01*
X204017243Y-87832032D02*
G75*
G03*
X203317243Y-87132032I-700000J0D01*
G01*
X202717243Y-87132032D02*
G75*
G03*
X202017243Y-87832032I0J-700000D01*
G01*
X202017243Y-89232032D02*
G75*
G03*
X202717243Y-89932032I699999J-1D01*
G01*
D10*
X171212928Y-87397194D02*
X171212928Y-89397194D01*
X171212928Y-89351194D02*
X169612928Y-89351194D01*
X160326117Y-87332084D02*
X160326117Y-83424084D01*
X171226117Y-85378084D02*
X171226117Y-89323084D01*
X171226117Y-89332084D02*
X167616117Y-89332084D01*
X160326117Y-83424084D02*
X168951117Y-83424084D01*
X160326117Y-87378084D02*
X165376117Y-87424084D01*
X171215118Y-85308084D02*
G75*
G03*
X168951117Y-83424084I-2074000J-190000D01*
G01*
X167611118Y-89308083D02*
G75*
G03*
X165351117Y-87428084I-2070000J-190001D01*
G01*
D11*
X148312954Y-130419313D02*
G75*
G03*
X148312954Y-130419313I-2200000J0D01*
G01*
G36*
X146117505Y-129139184D02*
G01*
X146367168Y-129191424D01*
X146391718Y-129198404D01*
X146579837Y-129270705D01*
X146746642Y-129368648D01*
X146882951Y-129483951D01*
X146979582Y-129608333D01*
X147027354Y-129733513D01*
X147030835Y-129774818D01*
X147007964Y-129877324D01*
X146941130Y-129938083D01*
X146833004Y-129956246D01*
X146686254Y-129930965D01*
X146613911Y-129907250D01*
X146538684Y-129869923D01*
X146430939Y-129804029D01*
X146306598Y-129719743D01*
X146210736Y-129649600D01*
X146069949Y-129551053D01*
X145917639Y-129457908D01*
X145767207Y-129377074D01*
X145632056Y-129315465D01*
X145525586Y-129279990D01*
X145482627Y-129274112D01*
X145450523Y-129254268D01*
X145449150Y-129246439D01*
X145476936Y-129226144D01*
X145550200Y-129198341D01*
X145653803Y-129168664D01*
X145666873Y-129165411D01*
X145890318Y-129130797D01*
X146117505Y-129139184D01*
G37*
G36*
X145570536Y-130887884D02*
G01*
X145747085Y-130965325D01*
X145916044Y-131090246D01*
X146166887Y-131285394D01*
X146405069Y-131420738D01*
X146631770Y-131496935D01*
X146652544Y-131501082D01*
X146733191Y-131522910D01*
X146753008Y-131547675D01*
X146711705Y-131576750D01*
X146630589Y-131605204D01*
X146451507Y-131641302D01*
X146244791Y-131655987D01*
X146039902Y-131648562D01*
X145883366Y-131622896D01*
X145650817Y-131543408D01*
X145453050Y-131434133D01*
X145299123Y-131301134D01*
X145207917Y-131170846D01*
X145155823Y-131042857D01*
X145152189Y-130952312D01*
X145199375Y-130895153D01*
X145299745Y-130867321D01*
X145387103Y-130863012D01*
X145570536Y-130887884D01*
G37*
D13*
X152709728Y-86798994D02*
X155109728Y-86798994D01*
X155109728Y-86798994D02*
X155109728Y-92798994D01*
X155109728Y-92798994D02*
X152709728Y-92798994D01*
X152709728Y-92798994D02*
X152709728Y-86798994D01*
G36*
X155109728Y-92798994D02*
G01*
X152709728Y-92798994D01*
X152709728Y-92240594D01*
X155109728Y-92240594D01*
X155109728Y-92798994D01*
G37*
X155109728Y-92798994D02*
X152709728Y-92798994D01*
X152709728Y-92240594D01*
X155109728Y-92240594D01*
X155109728Y-92798994D01*
D12*
X119284562Y-96402319D02*
X126584562Y-96402319D01*
X126584562Y-101902319D02*
X126584562Y-100752319D01*
X119284562Y-101902319D02*
X126584562Y-101902319D01*
D10*
X212513700Y-114930634D02*
X212513700Y-120930634D01*
X212513700Y-120930634D02*
X200513700Y-120930634D01*
X200513700Y-114930634D02*
X212513700Y-114930634D01*
X200513700Y-120930634D02*
X200513700Y-114930634D01*
D12*
X214539100Y-115809734D02*
X212539100Y-115809734D01*
X212539100Y-115809734D02*
X212539100Y-120051534D01*
X212539100Y-120051534D02*
X214539100Y-120051534D01*
X214539100Y-120051534D02*
X214539100Y-115809734D01*
D13*
X171709928Y-89339194D02*
X174109928Y-89339194D01*
X174109928Y-89339194D02*
X174109928Y-95339194D01*
X174109928Y-95339194D02*
X171709928Y-95339194D01*
X171709928Y-95339194D02*
X171709928Y-89339194D01*
G36*
X174109928Y-95339194D02*
G01*
X171709928Y-95339194D01*
X171709928Y-94780794D01*
X174109928Y-94780794D01*
X174109928Y-95339194D01*
G37*
X174109928Y-95339194D02*
X171709928Y-95339194D01*
X171709928Y-94780794D01*
X174109928Y-94780794D01*
X174109928Y-95339194D01*
D12*
X144120962Y-92871719D02*
X151420962Y-92871719D01*
X144120962Y-98371719D02*
X151420962Y-98371719D01*
X151420962Y-98371719D02*
X151420962Y-97221719D01*
D13*
X114710128Y-111839194D02*
X117110128Y-111839194D01*
X117110128Y-111839194D02*
X117110128Y-117839194D01*
X117110128Y-117839194D02*
X114710128Y-117839194D01*
X114710128Y-117839194D02*
X114710128Y-111839194D01*
G36*
X117110128Y-117839194D02*
G01*
X114710128Y-117839194D01*
X114710128Y-117280794D01*
X117110128Y-117280794D01*
X117110128Y-117839194D01*
G37*
X117110128Y-117839194D02*
X114710128Y-117839194D01*
X114710128Y-117280794D01*
X117110128Y-117280794D01*
X117110128Y-117839194D01*
X190709626Y-110879594D02*
X193109626Y-110879594D01*
X193109626Y-110879594D02*
X193109626Y-116879594D01*
X193109626Y-116879594D02*
X190709626Y-116879594D01*
X190709626Y-116879594D02*
X190709626Y-110879594D01*
G36*
X193109626Y-116879594D02*
G01*
X190709626Y-116879594D01*
X190709626Y-116321194D01*
X193109626Y-116321194D01*
X193109626Y-116879594D01*
G37*
X193109626Y-116879594D02*
X190709626Y-116879594D01*
X190709626Y-116321194D01*
X193109626Y-116321194D01*
X193109626Y-116879594D01*
D10*
X122326517Y-68332684D02*
X122326517Y-64424684D01*
X133226517Y-70332684D02*
X129616517Y-70332684D01*
X122326517Y-64424684D02*
X130951517Y-64424684D01*
X122326517Y-68378684D02*
X127376517Y-68424684D01*
X133213328Y-68397794D02*
X133213328Y-70397794D01*
X133213328Y-70351794D02*
X131613328Y-70351794D01*
X133226517Y-66378684D02*
X133226517Y-70323684D01*
X129611518Y-70308683D02*
G75*
G03*
X127351517Y-68428684I-2070000J-190001D01*
G01*
X133215518Y-66308684D02*
G75*
G03*
X130951517Y-64424684I-2074000J-190000D01*
G01*
X152225917Y-82837884D02*
X152225917Y-86782884D01*
X141325917Y-80883884D02*
X149950917Y-80883884D01*
X152212728Y-84856994D02*
X152212728Y-86856994D01*
X141325917Y-84791884D02*
X141325917Y-80883884D01*
X141325917Y-84837884D02*
X146375917Y-84883884D01*
X152212728Y-86810994D02*
X150612728Y-86810994D01*
X152225917Y-86791884D02*
X148615917Y-86791884D01*
X152214918Y-82767884D02*
G75*
G03*
X149950917Y-80883884I-2074000J-190000D01*
G01*
X148610918Y-86767883D02*
G75*
G03*
X146350917Y-84887884I-2070000J-190001D01*
G01*
X114213128Y-71896394D02*
X114213128Y-73896394D01*
X103326317Y-71831284D02*
X103326317Y-67923284D01*
X103326317Y-67923284D02*
X111951317Y-67923284D01*
X114226317Y-73831284D02*
X110616317Y-73831284D01*
X114213128Y-73850394D02*
X112613128Y-73850394D01*
X103326317Y-71877284D02*
X108376317Y-71923284D01*
X114226317Y-69877284D02*
X114226317Y-73822284D01*
X114215318Y-69807284D02*
G75*
G03*
X111951317Y-67923284I-2074000J-190000D01*
G01*
X110611318Y-73807283D02*
G75*
G03*
X108351317Y-71927284I-2070000J-190001D01*
G01*
G36*
X193109755Y-78880150D02*
G01*
X190709755Y-78880150D01*
X190709755Y-78321750D01*
X193109755Y-78321750D01*
X193109755Y-78880150D01*
G37*
D13*
X193109755Y-78880150D02*
X190709755Y-78880150D01*
X190709755Y-78321750D01*
X193109755Y-78321750D01*
X193109755Y-78880150D01*
X190709755Y-72880150D02*
X193109755Y-72880150D01*
X193109755Y-72880150D02*
X193109755Y-78880150D01*
X193109755Y-78880150D02*
X190709755Y-78880150D01*
X190709755Y-78880150D02*
X190709755Y-72880150D01*
D10*
X133213328Y-89351394D02*
X131613328Y-89351394D01*
X133226517Y-89332284D02*
X129616517Y-89332284D01*
X133226517Y-85378284D02*
X133226517Y-89323284D01*
X133213328Y-87397394D02*
X133213328Y-89397394D01*
X122326517Y-83424284D02*
X130951517Y-83424284D01*
X122326517Y-87378284D02*
X127376517Y-87424284D01*
X122326517Y-87332284D02*
X122326517Y-83424284D01*
X133215518Y-85308284D02*
G75*
G03*
X130951517Y-83424284I-2074000J-190000D01*
G01*
X129611518Y-89308283D02*
G75*
G03*
X127351517Y-87428284I-2070000J-190001D01*
G01*
X180714497Y-133073800D02*
X177227505Y-132139464D01*
X171715008Y-124545983D02*
X180046119Y-126778297D01*
X180696811Y-133088846D02*
X179151330Y-132674735D01*
X170703544Y-128320821D02*
X171715008Y-124545983D01*
X181737868Y-129254530D02*
X180716826Y-133065107D01*
X181202544Y-131201427D02*
X180684906Y-133133278D01*
X170691638Y-128365254D02*
X175557658Y-129716722D01*
X181745361Y-129184068D02*
G75*
G03*
X180046119Y-126778297I-2052506J353265D01*
G01*
X177228888Y-132114987D02*
G75*
G03*
X175532474Y-129714116I-2048642J352229D01*
G01*
X141325917Y-65837924D02*
X146375917Y-65883924D01*
X141325917Y-61883924D02*
X149950917Y-61883924D01*
X152225917Y-67791924D02*
X148615917Y-67791924D01*
X152212728Y-67811034D02*
X150612728Y-67811034D01*
X152212728Y-65857034D02*
X152212728Y-67857034D01*
X141325917Y-65791924D02*
X141325917Y-61883924D01*
X152225917Y-63837924D02*
X152225917Y-67782924D01*
X152214918Y-63767924D02*
G75*
G03*
X149950917Y-61883924I-2074000J-190000D01*
G01*
X148610918Y-67767923D02*
G75*
G03*
X146350917Y-65887924I-2070000J-190001D01*
G01*
D13*
X152709728Y-105799194D02*
X155109728Y-105799194D01*
X155109728Y-105799194D02*
X155109728Y-111799194D01*
X155109728Y-111799194D02*
X152709728Y-111799194D01*
X152709728Y-111799194D02*
X152709728Y-105799194D01*
G36*
X155109728Y-111799194D02*
G01*
X152709728Y-111799194D01*
X152709728Y-111240794D01*
X155109728Y-111240794D01*
X155109728Y-111799194D01*
G37*
X155109728Y-111799194D02*
X152709728Y-111799194D01*
X152709728Y-111240794D01*
X155109728Y-111240794D01*
X155109728Y-111799194D01*
D12*
X208200639Y-108999948D02*
X208800639Y-108999948D01*
X208800639Y-111799948D02*
X208200639Y-111799948D01*
X209500639Y-109699948D02*
X209500639Y-111099948D01*
X207500639Y-111099948D02*
X207500639Y-109699948D01*
X208800639Y-111799948D02*
G75*
G03*
X209500639Y-111099948I0J700000D01*
G01*
X208200639Y-108999948D02*
G75*
G03*
X207500639Y-109699948I-1J-699999D01*
G01*
X209500639Y-109699948D02*
G75*
G03*
X208800639Y-108999948I-699999J1D01*
G01*
X207500639Y-111099948D02*
G75*
G03*
X208200639Y-111799948I700000J0D01*
G01*
D10*
X209066434Y-133283175D02*
X217397545Y-135515489D01*
X208054970Y-137058013D02*
X209066434Y-133283175D01*
X218048237Y-141826038D02*
X216502756Y-141411927D01*
X218065923Y-141810992D02*
X214578931Y-140876656D01*
X218553970Y-139938619D02*
X218036332Y-141870470D01*
X208043064Y-137102446D02*
X212909084Y-138453914D01*
X219089294Y-137991722D02*
X218068252Y-141802299D01*
X214580314Y-140852179D02*
G75*
G03*
X212883900Y-138451308I-2048642J352229D01*
G01*
X219096787Y-137921260D02*
G75*
G03*
X217397545Y-135515489I-2052506J353265D01*
G01*
D11*
X132654580Y-130419313D02*
G75*
G03*
X132654580Y-130419313I-2200000J0D01*
G01*
G36*
X130459131Y-129139184D02*
G01*
X130708794Y-129191424D01*
X130733344Y-129198404D01*
X130921463Y-129270705D01*
X131088268Y-129368648D01*
X131224577Y-129483951D01*
X131321208Y-129608333D01*
X131368980Y-129733513D01*
X131372461Y-129774818D01*
X131349590Y-129877324D01*
X131282756Y-129938083D01*
X131174630Y-129956246D01*
X131027880Y-129930965D01*
X130955537Y-129907250D01*
X130880310Y-129869923D01*
X130772565Y-129804029D01*
X130648224Y-129719743D01*
X130552362Y-129649600D01*
X130411575Y-129551053D01*
X130259265Y-129457908D01*
X130108833Y-129377074D01*
X129973682Y-129315465D01*
X129867212Y-129279990D01*
X129824253Y-129274112D01*
X129792149Y-129254268D01*
X129790776Y-129246439D01*
X129818562Y-129226144D01*
X129891826Y-129198341D01*
X129995429Y-129168664D01*
X130008499Y-129165411D01*
X130231944Y-129130797D01*
X130459131Y-129139184D01*
G37*
G36*
X129912162Y-130887884D02*
G01*
X130088711Y-130965325D01*
X130257670Y-131090246D01*
X130508513Y-131285394D01*
X130746695Y-131420738D01*
X130973396Y-131496935D01*
X130994170Y-131501082D01*
X131074817Y-131522910D01*
X131094634Y-131547675D01*
X131053331Y-131576750D01*
X130972215Y-131605204D01*
X130793133Y-131641302D01*
X130586417Y-131655987D01*
X130381528Y-131648562D01*
X130224992Y-131622896D01*
X129992443Y-131543408D01*
X129794676Y-131434133D01*
X129640749Y-131301134D01*
X129549543Y-131170846D01*
X129497449Y-131042857D01*
X129493815Y-130952312D01*
X129541001Y-130895153D01*
X129641371Y-130867321D01*
X129728729Y-130863012D01*
X129912162Y-130887884D01*
G37*
D12*
X133612558Y-126054522D02*
X133412558Y-125654522D01*
X136487558Y-123464522D02*
X136487558Y-122864522D01*
X133212558Y-126054522D02*
X133612558Y-126054522D01*
X136377558Y-123464522D02*
X136487558Y-123464522D01*
X128337558Y-123464522D02*
X128337558Y-122864522D01*
X128447558Y-123464522D02*
X128337558Y-123464522D01*
X133412558Y-125654522D02*
X133212558Y-126054522D01*
D14*
X200880639Y-107264021D03*
X203420639Y-107264021D03*
X205960639Y-107264021D03*
X208500639Y-107264021D03*
D15*
X211013700Y-116180634D03*
X211013700Y-117930634D03*
X204013700Y-117930634D03*
X204013700Y-116180634D03*
D16*
X202213700Y-120030634D03*
X202213700Y-114080634D03*
X206213700Y-120030634D03*
X206213700Y-114080634D03*
X209213700Y-114080634D03*
X209213700Y-120030634D03*
X200713700Y-118280634D03*
X200713700Y-115830634D03*
M02*
