G04 #@! TF.GenerationSoftware,KiCad,Pcbnew,(6.0.6-0)*
G04 #@! TF.CreationDate,2022-07-14T22:07:42+08:00*
G04 #@! TF.ProjectId,thrfv,74687266-762e-46b6-9963-61645f706362,rev?*
G04 #@! TF.SameCoordinates,Original*
G04 #@! TF.FileFunction,Legend,Bot*
G04 #@! TF.FilePolarity,Positive*
%FSLAX46Y46*%
G04 Gerber Fmt 4.6, Leading zero omitted, Abs format (unit mm)*
G04 Created by KiCad (PCBNEW (6.0.6-0)) date 2022-07-14 22:07:42*
%MOMM*%
%LPD*%
G01*
G04 APERTURE LIST*
%ADD10C,0.150000*%
%ADD11C,0.100000*%
%ADD12C,0.120000*%
%ADD13C,0.200000*%
G04 APERTURE END LIST*
D10*
X202539108Y-90560710D02*
X203253394Y-90560710D01*
X203396251Y-90513091D01*
X203491489Y-90417853D01*
X203539108Y-90274995D01*
X203539108Y-90179757D01*
X203539108Y-91036900D02*
X202539108Y-91036900D01*
X202539108Y-91417853D01*
X202586728Y-91513091D01*
X202634347Y-91560710D01*
X202729585Y-91608329D01*
X202872442Y-91608329D01*
X202967680Y-91560710D01*
X203015299Y-91513091D01*
X203062918Y-91417853D01*
X203062918Y-91036900D01*
X203539108Y-92560710D02*
X203539108Y-91989281D01*
X203539108Y-92274995D02*
X202539108Y-92274995D01*
X202681966Y-92179757D01*
X202777204Y-92084519D01*
X202824823Y-91989281D01*
X203539108Y-93513091D02*
X203539108Y-92941662D01*
X203539108Y-93227376D02*
X202539108Y-93227376D01*
X202681966Y-93132138D01*
X202777204Y-93036900D01*
X202824823Y-92941662D01*
D11*
X206368020Y-111995338D02*
X206368020Y-112352481D01*
X206391830Y-112423909D01*
X206439449Y-112471528D01*
X206510877Y-112495338D01*
X206558496Y-112495338D01*
X206129925Y-112495338D02*
X206129925Y-111995338D01*
X205939449Y-111995338D01*
X205891830Y-112019148D01*
X205868020Y-112042957D01*
X205844211Y-112090576D01*
X205844211Y-112162005D01*
X205868020Y-112209624D01*
X205891830Y-112233433D01*
X205939449Y-112257243D01*
X206129925Y-112257243D01*
X205677544Y-111995338D02*
X205368020Y-111995338D01*
X205534687Y-112185814D01*
X205463258Y-112185814D01*
X205415639Y-112209624D01*
X205391830Y-112233433D01*
X205368020Y-112281052D01*
X205368020Y-112400100D01*
X205391830Y-112447719D01*
X205415639Y-112471528D01*
X205463258Y-112495338D01*
X205606115Y-112495338D01*
X205653734Y-112471528D01*
X205677544Y-112447719D01*
D10*
X197637409Y-106615099D02*
X198113600Y-106615099D01*
X198113600Y-105615099D01*
X197304076Y-106091290D02*
X196970742Y-106091290D01*
X196827885Y-106615099D02*
X197304076Y-106615099D01*
X197304076Y-105615099D01*
X196827885Y-105615099D01*
X196399314Y-106615099D02*
X196399314Y-105615099D01*
X196161219Y-105615099D01*
X196018362Y-105662719D01*
X195923123Y-105757957D01*
X195875504Y-105853195D01*
X195827885Y-106043671D01*
X195827885Y-106186528D01*
X195875504Y-106377004D01*
X195923123Y-106472242D01*
X196018362Y-106567480D01*
X196161219Y-106615099D01*
X196399314Y-106615099D01*
X194875504Y-106615099D02*
X195446933Y-106615099D01*
X195161219Y-106615099D02*
X195161219Y-105615099D01*
X195256457Y-105757957D01*
X195351695Y-105853195D01*
X195446933Y-105900814D01*
X153408892Y-129828884D02*
X152608892Y-129828884D01*
X152608892Y-130019360D01*
X152646988Y-130133646D01*
X152723178Y-130209836D01*
X152799368Y-130247932D01*
X152951749Y-130286027D01*
X153066035Y-130286027D01*
X153218416Y-130247932D01*
X153294607Y-130209836D01*
X153370797Y-130133646D01*
X153408892Y-130019360D01*
X153408892Y-129828884D01*
X153408892Y-131047932D02*
X153408892Y-130590789D01*
X153408892Y-130819360D02*
X152608892Y-130819360D01*
X152723178Y-130743170D01*
X152799368Y-130666979D01*
X152837464Y-130590789D01*
X152608892Y-131314598D02*
X152608892Y-131847932D01*
X153408892Y-131505074D01*
X173726409Y-96104699D02*
X174202600Y-96104699D01*
X174202600Y-95104699D01*
X173393076Y-95580890D02*
X173059742Y-95580890D01*
X172916885Y-96104699D02*
X173393076Y-96104699D01*
X173393076Y-95104699D01*
X172916885Y-95104699D01*
X172488314Y-96104699D02*
X172488314Y-95104699D01*
X172250219Y-95104699D01*
X172107362Y-95152319D01*
X172012123Y-95247557D01*
X171964504Y-95342795D01*
X171916885Y-95533271D01*
X171916885Y-95676128D01*
X171964504Y-95866604D01*
X172012123Y-95961842D01*
X172107362Y-96057080D01*
X172250219Y-96104699D01*
X172488314Y-96104699D01*
X171535933Y-95199938D02*
X171488314Y-95152319D01*
X171393076Y-95104699D01*
X171154981Y-95104699D01*
X171059742Y-95152319D01*
X171012123Y-95199938D01*
X170964504Y-95295176D01*
X170964504Y-95390414D01*
X171012123Y-95533271D01*
X171583552Y-96104699D01*
X170964504Y-96104699D01*
X113832185Y-76001169D02*
X113032185Y-76001169D01*
X113032185Y-76191646D01*
X113070281Y-76305931D01*
X113146471Y-76382122D01*
X113222661Y-76420217D01*
X113375042Y-76458312D01*
X113489328Y-76458312D01*
X113641709Y-76420217D01*
X113717900Y-76382122D01*
X113794090Y-76305931D01*
X113832185Y-76191646D01*
X113832185Y-76001169D01*
X113832185Y-77220217D02*
X113832185Y-76763074D01*
X113832185Y-76991646D02*
X113032185Y-76991646D01*
X113146471Y-76915455D01*
X113222661Y-76839265D01*
X113260757Y-76763074D01*
X132832385Y-91502169D02*
X132032385Y-91502169D01*
X132032385Y-91692646D01*
X132070481Y-91806931D01*
X132146671Y-91883122D01*
X132222861Y-91921217D01*
X132375242Y-91959312D01*
X132489528Y-91959312D01*
X132641909Y-91921217D01*
X132718100Y-91883122D01*
X132794290Y-91806931D01*
X132832385Y-91692646D01*
X132832385Y-91502169D01*
X132032385Y-92225979D02*
X132032385Y-92759312D01*
X132832385Y-92416455D01*
X189831683Y-93661417D02*
X189031683Y-93661417D01*
X189031683Y-93851893D01*
X189069779Y-93966179D01*
X189145969Y-94042369D01*
X189222159Y-94080465D01*
X189374540Y-94118560D01*
X189488826Y-94118560D01*
X189641207Y-94080465D01*
X189717398Y-94042369D01*
X189793588Y-93966179D01*
X189831683Y-93851893D01*
X189831683Y-93661417D01*
X189831683Y-94880465D02*
X189831683Y-94423322D01*
X189831683Y-94651893D02*
X189031683Y-94651893D01*
X189145969Y-94575703D01*
X189222159Y-94499512D01*
X189260255Y-94423322D01*
X189031683Y-95375703D02*
X189031683Y-95451893D01*
X189069779Y-95528084D01*
X189107874Y-95566179D01*
X189184064Y-95604274D01*
X189336445Y-95642369D01*
X189526921Y-95642369D01*
X189679302Y-95604274D01*
X189755493Y-95566179D01*
X189793588Y-95528084D01*
X189831683Y-95451893D01*
X189831683Y-95375703D01*
X189793588Y-95299512D01*
X189755493Y-95261417D01*
X189679302Y-95223322D01*
X189526921Y-95185226D01*
X189336445Y-95185226D01*
X189184064Y-95223322D01*
X189107874Y-95261417D01*
X189069779Y-95299512D01*
X189031683Y-95375703D01*
X151831785Y-69961809D02*
X151031785Y-69961809D01*
X151031785Y-70152286D01*
X151069881Y-70266571D01*
X151146071Y-70342762D01*
X151222261Y-70380857D01*
X151374642Y-70418952D01*
X151488928Y-70418952D01*
X151641309Y-70380857D01*
X151717500Y-70342762D01*
X151793690Y-70266571D01*
X151831785Y-70152286D01*
X151831785Y-69961809D01*
X151031785Y-70685619D02*
X151031785Y-71180857D01*
X151336547Y-70914190D01*
X151336547Y-71028476D01*
X151374642Y-71104666D01*
X151412738Y-71142762D01*
X151488928Y-71180857D01*
X151679404Y-71180857D01*
X151755595Y-71142762D01*
X151793690Y-71104666D01*
X151831785Y-71028476D01*
X151831785Y-70799905D01*
X151793690Y-70723714D01*
X151755595Y-70685619D01*
X170831985Y-110121417D02*
X170031985Y-110121417D01*
X170031985Y-110311893D01*
X170070081Y-110426179D01*
X170146271Y-110502369D01*
X170222461Y-110540465D01*
X170374842Y-110578560D01*
X170489128Y-110578560D01*
X170641509Y-110540465D01*
X170717700Y-110502369D01*
X170793890Y-110426179D01*
X170831985Y-110311893D01*
X170831985Y-110121417D01*
X170831985Y-111340465D02*
X170831985Y-110883322D01*
X170831985Y-111111893D02*
X170031985Y-111111893D01*
X170146271Y-111035703D01*
X170222461Y-110959512D01*
X170260557Y-110883322D01*
X170298652Y-112026179D02*
X170831985Y-112026179D01*
X169993890Y-111835703D02*
X170565319Y-111645226D01*
X170565319Y-112140465D01*
X187090047Y-62404404D02*
X187423381Y-61928214D01*
X187661476Y-62404404D02*
X187661476Y-61404404D01*
X187280523Y-61404404D01*
X187185285Y-61452024D01*
X187137666Y-61499643D01*
X187090047Y-61594881D01*
X187090047Y-61737738D01*
X187137666Y-61832976D01*
X187185285Y-61880595D01*
X187280523Y-61928214D01*
X187661476Y-61928214D01*
X186709095Y-62356785D02*
X186566238Y-62404404D01*
X186328142Y-62404404D01*
X186232904Y-62356785D01*
X186185285Y-62309166D01*
X186137666Y-62213928D01*
X186137666Y-62118690D01*
X186185285Y-62023452D01*
X186232904Y-61975833D01*
X186328142Y-61928214D01*
X186518619Y-61880595D01*
X186613857Y-61832976D01*
X186661476Y-61785357D01*
X186709095Y-61690119D01*
X186709095Y-61594881D01*
X186661476Y-61499643D01*
X186613857Y-61452024D01*
X186518619Y-61404404D01*
X186280523Y-61404404D01*
X186137666Y-61452024D01*
X185804333Y-61404404D02*
X185566238Y-62404404D01*
X185375762Y-61690119D01*
X185185285Y-62404404D01*
X184947190Y-61404404D01*
X184613857Y-61499643D02*
X184566238Y-61452024D01*
X184471000Y-61404404D01*
X184232904Y-61404404D01*
X184137666Y-61452024D01*
X184090047Y-61499643D01*
X184042428Y-61594881D01*
X184042428Y-61690119D01*
X184090047Y-61832976D01*
X184661476Y-62404404D01*
X184042428Y-62404404D01*
X137787892Y-129828884D02*
X136987892Y-129828884D01*
X136987892Y-130019360D01*
X137025988Y-130133646D01*
X137102178Y-130209836D01*
X137178368Y-130247932D01*
X137330749Y-130286027D01*
X137445035Y-130286027D01*
X137597416Y-130247932D01*
X137673607Y-130209836D01*
X137749797Y-130133646D01*
X137787892Y-130019360D01*
X137787892Y-129828884D01*
X137787892Y-131047932D02*
X137787892Y-130590789D01*
X137787892Y-130819360D02*
X136987892Y-130819360D01*
X137102178Y-130743170D01*
X137178368Y-130666979D01*
X137216464Y-130590789D01*
X136987892Y-131733646D02*
X136987892Y-131581265D01*
X137025988Y-131505074D01*
X137064083Y-131466979D01*
X137178368Y-131390789D01*
X137330749Y-131352693D01*
X137635511Y-131352693D01*
X137711702Y-131390789D01*
X137749797Y-131428884D01*
X137787892Y-131505074D01*
X137787892Y-131657455D01*
X137749797Y-131733646D01*
X137711702Y-131771741D01*
X137635511Y-131809836D01*
X137445035Y-131809836D01*
X137368845Y-131771741D01*
X137330749Y-131733646D01*
X137292654Y-131657455D01*
X137292654Y-131505074D01*
X137330749Y-131428884D01*
X137368845Y-131390789D01*
X137445035Y-131352693D01*
X188325561Y-127542884D02*
X187525561Y-127542884D01*
X187525561Y-127733360D01*
X187563657Y-127847646D01*
X187639847Y-127923836D01*
X187716037Y-127961932D01*
X187868418Y-128000027D01*
X187982704Y-128000027D01*
X188135085Y-127961932D01*
X188211276Y-127923836D01*
X188287466Y-127847646D01*
X188325561Y-127733360D01*
X188325561Y-127542884D01*
X188325561Y-128761932D02*
X188325561Y-128304789D01*
X188325561Y-128533360D02*
X187525561Y-128533360D01*
X187639847Y-128457170D01*
X187716037Y-128380979D01*
X187754133Y-128304789D01*
X188325561Y-129142884D02*
X188325561Y-129295265D01*
X188287466Y-129371455D01*
X188249371Y-129409551D01*
X188135085Y-129485741D01*
X187982704Y-129523836D01*
X187677942Y-129523836D01*
X187601752Y-129485741D01*
X187563657Y-129447646D01*
X187525561Y-129371455D01*
X187525561Y-129219074D01*
X187563657Y-129142884D01*
X187601752Y-129104789D01*
X187677942Y-129066693D01*
X187868418Y-129066693D01*
X187944609Y-129104789D01*
X187982704Y-129142884D01*
X188020799Y-129219074D01*
X188020799Y-129371455D01*
X187982704Y-129447646D01*
X187944609Y-129485741D01*
X187868418Y-129523836D01*
X190984231Y-127542884D02*
X190184231Y-127542884D01*
X190184231Y-127733360D01*
X190222327Y-127847646D01*
X190298517Y-127923836D01*
X190374707Y-127961932D01*
X190527088Y-128000027D01*
X190641374Y-128000027D01*
X190793755Y-127961932D01*
X190869946Y-127923836D01*
X190946136Y-127847646D01*
X190984231Y-127733360D01*
X190984231Y-127542884D01*
X190260422Y-128304789D02*
X190222327Y-128342884D01*
X190184231Y-128419074D01*
X190184231Y-128609551D01*
X190222327Y-128685741D01*
X190260422Y-128723836D01*
X190336612Y-128761932D01*
X190412803Y-128761932D01*
X190527088Y-128723836D01*
X190984231Y-128266693D01*
X190984231Y-128761932D01*
X190184231Y-129257170D02*
X190184231Y-129333360D01*
X190222327Y-129409551D01*
X190260422Y-129447646D01*
X190336612Y-129485741D01*
X190488993Y-129523836D01*
X190679469Y-129523836D01*
X190831850Y-129485741D01*
X190908041Y-129447646D01*
X190946136Y-129409551D01*
X190984231Y-129333360D01*
X190984231Y-129257170D01*
X190946136Y-129180979D01*
X190908041Y-129142884D01*
X190831850Y-129104789D01*
X190679469Y-129066693D01*
X190488993Y-129066693D01*
X190336612Y-129104789D01*
X190260422Y-129142884D01*
X190222327Y-129180979D01*
X190184231Y-129257170D01*
X185666892Y-127542884D02*
X184866892Y-127542884D01*
X184866892Y-127733360D01*
X184904988Y-127847646D01*
X184981178Y-127923836D01*
X185057368Y-127961932D01*
X185209749Y-128000027D01*
X185324035Y-128000027D01*
X185476416Y-127961932D01*
X185552607Y-127923836D01*
X185628797Y-127847646D01*
X185666892Y-127733360D01*
X185666892Y-127542884D01*
X185666892Y-128761932D02*
X185666892Y-128304789D01*
X185666892Y-128533360D02*
X184866892Y-128533360D01*
X184981178Y-128457170D01*
X185057368Y-128380979D01*
X185095464Y-128304789D01*
X185209749Y-129219074D02*
X185171654Y-129142884D01*
X185133559Y-129104789D01*
X185057368Y-129066693D01*
X185019273Y-129066693D01*
X184943083Y-129104789D01*
X184904988Y-129142884D01*
X184866892Y-129219074D01*
X184866892Y-129371455D01*
X184904988Y-129447646D01*
X184943083Y-129485741D01*
X185019273Y-129523836D01*
X185057368Y-129523836D01*
X185133559Y-129485741D01*
X185171654Y-129447646D01*
X185209749Y-129371455D01*
X185209749Y-129219074D01*
X185247845Y-129142884D01*
X185285940Y-129104789D01*
X185362130Y-129066693D01*
X185514511Y-129066693D01*
X185590702Y-129104789D01*
X185628797Y-129142884D01*
X185666892Y-129219074D01*
X185666892Y-129371455D01*
X185628797Y-129447646D01*
X185590702Y-129485741D01*
X185514511Y-129523836D01*
X185362130Y-129523836D01*
X185285940Y-129485741D01*
X185247845Y-129447646D01*
X185209749Y-129371455D01*
X170831985Y-72502009D02*
X170031985Y-72502009D01*
X170031985Y-72692486D01*
X170070081Y-72806771D01*
X170146271Y-72882962D01*
X170222461Y-72921057D01*
X170374842Y-72959152D01*
X170489128Y-72959152D01*
X170641509Y-72921057D01*
X170717700Y-72882962D01*
X170793890Y-72806771D01*
X170831985Y-72692486D01*
X170831985Y-72502009D01*
X170298652Y-73644866D02*
X170831985Y-73644866D01*
X169993890Y-73454390D02*
X170565319Y-73263914D01*
X170565319Y-73759152D01*
X132832385Y-110120817D02*
X132032385Y-110120817D01*
X132032385Y-110311293D01*
X132070481Y-110425579D01*
X132146671Y-110501769D01*
X132222861Y-110539865D01*
X132375242Y-110577960D01*
X132489528Y-110577960D01*
X132641909Y-110539865D01*
X132718100Y-110501769D01*
X132794290Y-110425579D01*
X132832385Y-110311293D01*
X132832385Y-110120817D01*
X132832385Y-111339865D02*
X132832385Y-110882722D01*
X132832385Y-111111293D02*
X132032385Y-111111293D01*
X132146671Y-111035103D01*
X132222861Y-110958912D01*
X132260957Y-110882722D01*
X132108576Y-111644626D02*
X132070481Y-111682722D01*
X132032385Y-111758912D01*
X132032385Y-111949388D01*
X132070481Y-112025579D01*
X132108576Y-112063674D01*
X132184766Y-112101769D01*
X132260957Y-112101769D01*
X132375242Y-112063674D01*
X132832385Y-111606531D01*
X132832385Y-112101769D01*
X132832385Y-72502569D02*
X132032385Y-72502569D01*
X132032385Y-72693046D01*
X132070481Y-72807331D01*
X132146671Y-72883522D01*
X132222861Y-72921617D01*
X132375242Y-72959712D01*
X132489528Y-72959712D01*
X132641909Y-72921617D01*
X132718100Y-72883522D01*
X132794290Y-72807331D01*
X132832385Y-72693046D01*
X132832385Y-72502569D01*
X132108576Y-73264474D02*
X132070481Y-73302569D01*
X132032385Y-73378760D01*
X132032385Y-73569236D01*
X132070481Y-73645426D01*
X132108576Y-73683522D01*
X132184766Y-73721617D01*
X132260957Y-73721617D01*
X132375242Y-73683522D01*
X132832385Y-73226379D01*
X132832385Y-73721617D01*
X113832185Y-95001569D02*
X113032185Y-95001569D01*
X113032185Y-95192046D01*
X113070281Y-95306331D01*
X113146471Y-95382522D01*
X113222661Y-95420617D01*
X113375042Y-95458712D01*
X113489328Y-95458712D01*
X113641709Y-95420617D01*
X113717900Y-95382522D01*
X113794090Y-95306331D01*
X113832185Y-95192046D01*
X113832185Y-95001569D01*
X113032185Y-96144426D02*
X113032185Y-95992046D01*
X113070281Y-95915855D01*
X113108376Y-95877760D01*
X113222661Y-95801569D01*
X113375042Y-95763474D01*
X113679804Y-95763474D01*
X113755995Y-95801569D01*
X113794090Y-95839665D01*
X113832185Y-95915855D01*
X113832185Y-96068236D01*
X113794090Y-96144426D01*
X113755995Y-96182522D01*
X113679804Y-96220617D01*
X113489328Y-96220617D01*
X113413138Y-96182522D01*
X113375042Y-96144426D01*
X113336947Y-96068236D01*
X113336947Y-95915855D01*
X113375042Y-95839665D01*
X113413138Y-95801569D01*
X113489328Y-95763474D01*
X210043257Y-107034785D02*
X210623828Y-107034785D01*
X210739942Y-106996080D01*
X210817352Y-106918671D01*
X210856057Y-106802557D01*
X210856057Y-106725147D01*
X210120666Y-107383128D02*
X210081962Y-107421833D01*
X210043257Y-107499242D01*
X210043257Y-107692766D01*
X210081962Y-107770176D01*
X210120666Y-107808880D01*
X210198076Y-107847585D01*
X210275485Y-107847585D01*
X210391600Y-107808880D01*
X210856057Y-107344423D01*
X210856057Y-107847585D01*
X209539598Y-145412474D02*
X209861573Y-145498747D01*
X210135134Y-145029760D02*
X209675170Y-144906513D01*
X209416351Y-145872439D01*
X209876315Y-145995686D01*
X211076411Y-145380572D02*
X211042739Y-145322251D01*
X210917074Y-145239280D01*
X210825081Y-145214631D01*
X210674767Y-145223653D01*
X210558125Y-145290997D01*
X210487479Y-145370665D01*
X210392184Y-145542326D01*
X210355209Y-145680316D01*
X210351907Y-145876626D01*
X210373254Y-145980944D01*
X210440598Y-146097586D01*
X210566262Y-146180557D01*
X210658255Y-146205206D01*
X210808569Y-146196184D01*
X210866891Y-146162512D01*
X212020989Y-145535074D02*
X211469032Y-145387177D01*
X211745011Y-145461125D02*
X211486192Y-146427051D01*
X211431173Y-146264412D01*
X211363829Y-146147770D01*
X211284161Y-146077124D01*
X160146032Y-128056902D02*
X160146032Y-128771188D01*
X160193651Y-128914045D01*
X160288889Y-129009283D01*
X160431746Y-129056902D01*
X160526984Y-129056902D01*
X159241270Y-128390236D02*
X159241270Y-129056902D01*
X159479365Y-128009283D02*
X159717460Y-128723569D01*
X159098413Y-128723569D01*
X151831785Y-88961769D02*
X151031785Y-88961769D01*
X151031785Y-89152246D01*
X151069881Y-89266531D01*
X151146071Y-89342722D01*
X151222261Y-89380817D01*
X151374642Y-89418912D01*
X151488928Y-89418912D01*
X151641309Y-89380817D01*
X151717500Y-89342722D01*
X151793690Y-89266531D01*
X151831785Y-89152246D01*
X151831785Y-88961769D01*
X151374642Y-89876055D02*
X151336547Y-89799865D01*
X151298452Y-89761769D01*
X151222261Y-89723674D01*
X151184166Y-89723674D01*
X151107976Y-89761769D01*
X151069881Y-89799865D01*
X151031785Y-89876055D01*
X151031785Y-90028436D01*
X151069881Y-90104626D01*
X151107976Y-90142722D01*
X151184166Y-90180817D01*
X151222261Y-90180817D01*
X151298452Y-90142722D01*
X151336547Y-90104626D01*
X151374642Y-90028436D01*
X151374642Y-89876055D01*
X151412738Y-89799865D01*
X151450833Y-89761769D01*
X151527023Y-89723674D01*
X151679404Y-89723674D01*
X151755595Y-89761769D01*
X151793690Y-89799865D01*
X151831785Y-89876055D01*
X151831785Y-90028436D01*
X151793690Y-90104626D01*
X151755595Y-90142722D01*
X151679404Y-90180817D01*
X151527023Y-90180817D01*
X151450833Y-90142722D01*
X151412738Y-90104626D01*
X151374642Y-90028436D01*
X124053609Y-96104699D02*
X124529800Y-96104699D01*
X124529800Y-95104699D01*
X123720276Y-95580890D02*
X123386942Y-95580890D01*
X123244085Y-96104699D02*
X123720276Y-96104699D01*
X123720276Y-95104699D01*
X123244085Y-95104699D01*
X122815514Y-96104699D02*
X122815514Y-95104699D01*
X122577419Y-95104699D01*
X122434562Y-95152319D01*
X122339323Y-95247557D01*
X122291704Y-95342795D01*
X122244085Y-95533271D01*
X122244085Y-95676128D01*
X122291704Y-95866604D01*
X122339323Y-95961842D01*
X122434562Y-96057080D01*
X122577419Y-96104699D01*
X122815514Y-96104699D01*
X121386942Y-95438033D02*
X121386942Y-96104699D01*
X121625038Y-95057080D02*
X121863133Y-95771366D01*
X121244085Y-95771366D01*
X170831985Y-91501969D02*
X170031985Y-91501969D01*
X170031985Y-91692446D01*
X170070081Y-91806731D01*
X170146271Y-91882922D01*
X170222461Y-91921017D01*
X170374842Y-91959112D01*
X170489128Y-91959112D01*
X170641509Y-91921017D01*
X170717700Y-91882922D01*
X170793890Y-91806731D01*
X170831985Y-91692446D01*
X170831985Y-91501969D01*
X170831985Y-92340065D02*
X170831985Y-92492446D01*
X170793890Y-92568636D01*
X170755795Y-92606731D01*
X170641509Y-92682922D01*
X170489128Y-92721017D01*
X170184366Y-92721017D01*
X170108176Y-92682922D01*
X170070081Y-92644826D01*
X170031985Y-92568636D01*
X170031985Y-92416255D01*
X170070081Y-92340065D01*
X170108176Y-92301969D01*
X170184366Y-92263874D01*
X170374842Y-92263874D01*
X170451033Y-92301969D01*
X170489128Y-92340065D01*
X170527223Y-92416255D01*
X170527223Y-92568636D01*
X170489128Y-92644826D01*
X170451033Y-92682922D01*
X170374842Y-92721017D01*
X148890009Y-92574099D02*
X149366200Y-92574099D01*
X149366200Y-91574099D01*
X148556676Y-92050290D02*
X148223342Y-92050290D01*
X148080485Y-92574099D02*
X148556676Y-92574099D01*
X148556676Y-91574099D01*
X148080485Y-91574099D01*
X147651914Y-92574099D02*
X147651914Y-91574099D01*
X147413819Y-91574099D01*
X147270962Y-91621719D01*
X147175723Y-91716957D01*
X147128104Y-91812195D01*
X147080485Y-92002671D01*
X147080485Y-92145528D01*
X147128104Y-92336004D01*
X147175723Y-92431242D01*
X147270962Y-92526480D01*
X147413819Y-92574099D01*
X147651914Y-92574099D01*
X146747152Y-91574099D02*
X146128104Y-91574099D01*
X146461438Y-91955052D01*
X146318581Y-91955052D01*
X146223342Y-92002671D01*
X146175723Y-92050290D01*
X146128104Y-92145528D01*
X146128104Y-92383623D01*
X146175723Y-92478861D01*
X146223342Y-92526480D01*
X146318581Y-92574099D01*
X146604295Y-92574099D01*
X146699533Y-92526480D01*
X146747152Y-92478861D01*
X113832185Y-113621017D02*
X113032185Y-113621017D01*
X113032185Y-113811493D01*
X113070281Y-113925779D01*
X113146471Y-114001969D01*
X113222661Y-114040065D01*
X113375042Y-114078160D01*
X113489328Y-114078160D01*
X113641709Y-114040065D01*
X113717900Y-114001969D01*
X113794090Y-113925779D01*
X113832185Y-113811493D01*
X113832185Y-113621017D01*
X113832185Y-114840065D02*
X113832185Y-114382922D01*
X113832185Y-114611493D02*
X113032185Y-114611493D01*
X113146471Y-114535303D01*
X113222661Y-114459112D01*
X113260757Y-114382922D01*
X113832185Y-115601969D02*
X113832185Y-115144826D01*
X113832185Y-115373398D02*
X113032185Y-115373398D01*
X113146471Y-115297207D01*
X113222661Y-115221017D01*
X113260757Y-115144826D01*
X189831683Y-112661417D02*
X189031683Y-112661417D01*
X189031683Y-112851893D01*
X189069779Y-112966179D01*
X189145969Y-113042369D01*
X189222159Y-113080465D01*
X189374540Y-113118560D01*
X189488826Y-113118560D01*
X189641207Y-113080465D01*
X189717398Y-113042369D01*
X189793588Y-112966179D01*
X189831683Y-112851893D01*
X189831683Y-112661417D01*
X189831683Y-113880465D02*
X189831683Y-113423322D01*
X189831683Y-113651893D02*
X189031683Y-113651893D01*
X189145969Y-113575703D01*
X189222159Y-113499512D01*
X189260255Y-113423322D01*
X189031683Y-114604274D02*
X189031683Y-114223322D01*
X189412636Y-114185226D01*
X189374540Y-114223322D01*
X189336445Y-114299512D01*
X189336445Y-114489988D01*
X189374540Y-114566179D01*
X189412636Y-114604274D01*
X189488826Y-114642369D01*
X189679302Y-114642369D01*
X189755493Y-114604274D01*
X189793588Y-114566179D01*
X189831683Y-114489988D01*
X189831683Y-114299512D01*
X189793588Y-114223322D01*
X189755493Y-114185226D01*
X189831812Y-75042925D02*
X189031812Y-75042925D01*
X189031812Y-75233402D01*
X189069908Y-75347687D01*
X189146098Y-75423878D01*
X189222288Y-75461973D01*
X189374669Y-75500068D01*
X189488955Y-75500068D01*
X189641336Y-75461973D01*
X189717527Y-75423878D01*
X189793717Y-75347687D01*
X189831812Y-75233402D01*
X189831812Y-75042925D01*
X189031812Y-76223878D02*
X189031812Y-75842925D01*
X189412765Y-75804830D01*
X189374669Y-75842925D01*
X189336574Y-75919116D01*
X189336574Y-76109592D01*
X189374669Y-76185782D01*
X189412765Y-76223878D01*
X189488955Y-76261973D01*
X189679431Y-76261973D01*
X189755622Y-76223878D01*
X189793717Y-76185782D01*
X189831812Y-76109592D01*
X189831812Y-75919116D01*
X189793717Y-75842925D01*
X189755622Y-75804830D01*
X151831785Y-107581017D02*
X151031785Y-107581017D01*
X151031785Y-107771493D01*
X151069881Y-107885779D01*
X151146071Y-107961969D01*
X151222261Y-108000065D01*
X151374642Y-108038160D01*
X151488928Y-108038160D01*
X151641309Y-108000065D01*
X151717500Y-107961969D01*
X151793690Y-107885779D01*
X151831785Y-107771493D01*
X151831785Y-107581017D01*
X151831785Y-108800065D02*
X151831785Y-108342922D01*
X151831785Y-108571493D02*
X151031785Y-108571493D01*
X151146071Y-108495303D01*
X151222261Y-108419112D01*
X151260357Y-108342922D01*
X151031785Y-109066731D02*
X151031785Y-109561969D01*
X151336547Y-109295303D01*
X151336547Y-109409588D01*
X151374642Y-109485779D01*
X151412738Y-109523874D01*
X151488928Y-109561969D01*
X151679404Y-109561969D01*
X151755595Y-109523874D01*
X151793690Y-109485779D01*
X151831785Y-109409588D01*
X151831785Y-109181017D01*
X151793690Y-109104826D01*
X151755595Y-109066731D01*
D11*
X201288020Y-111995338D02*
X201288020Y-112352481D01*
X201311830Y-112423909D01*
X201359449Y-112471528D01*
X201430877Y-112495338D01*
X201478496Y-112495338D01*
X201049925Y-112495338D02*
X201049925Y-111995338D01*
X200859449Y-111995338D01*
X200811830Y-112019148D01*
X200788020Y-112042957D01*
X200764211Y-112090576D01*
X200764211Y-112162005D01*
X200788020Y-112209624D01*
X200811830Y-112233433D01*
X200859449Y-112257243D01*
X201049925Y-112257243D01*
X200288020Y-112495338D02*
X200573734Y-112495338D01*
X200430877Y-112495338D02*
X200430877Y-111995338D01*
X200478496Y-112066767D01*
X200526115Y-112114386D01*
X200573734Y-112138195D01*
X203828020Y-111995338D02*
X203828020Y-112352481D01*
X203851830Y-112423909D01*
X203899449Y-112471528D01*
X203970877Y-112495338D01*
X204018496Y-112495338D01*
X203589925Y-112495338D02*
X203589925Y-111995338D01*
X203399449Y-111995338D01*
X203351830Y-112019148D01*
X203328020Y-112042957D01*
X203304211Y-112090576D01*
X203304211Y-112162005D01*
X203328020Y-112209624D01*
X203351830Y-112233433D01*
X203399449Y-112257243D01*
X203589925Y-112257243D01*
X203113734Y-112042957D02*
X203089925Y-112019148D01*
X203042306Y-111995338D01*
X202923258Y-111995338D01*
X202875639Y-112019148D01*
X202851830Y-112042957D01*
X202828020Y-112090576D01*
X202828020Y-112138195D01*
X202851830Y-112209624D01*
X203137544Y-112495338D01*
X202828020Y-112495338D01*
X208908020Y-111995338D02*
X208908020Y-112352481D01*
X208931830Y-112423909D01*
X208979449Y-112471528D01*
X209050877Y-112495338D01*
X209098496Y-112495338D01*
X208669925Y-112495338D02*
X208669925Y-111995338D01*
X208479449Y-111995338D01*
X208431830Y-112019148D01*
X208408020Y-112042957D01*
X208384211Y-112090576D01*
X208384211Y-112162005D01*
X208408020Y-112209624D01*
X208431830Y-112233433D01*
X208479449Y-112257243D01*
X208669925Y-112257243D01*
X207955639Y-112162005D02*
X207955639Y-112495338D01*
X208074687Y-111971528D02*
X208193734Y-112328671D01*
X207884211Y-112328671D01*
D10*
X195835988Y-70970113D02*
X196785988Y-70970113D01*
X213635988Y-70970113D02*
X212635988Y-70970113D01*
X213635988Y-70970113D02*
X213635988Y-71970113D01*
X195835988Y-104020113D02*
X196845988Y-104020113D01*
X195835988Y-103020113D02*
X195835988Y-104020113D01*
X213635988Y-102970113D02*
X213635988Y-104020113D01*
X213635988Y-104020113D02*
X212635988Y-104020113D01*
X195835988Y-70970113D02*
X195835988Y-71970113D01*
D12*
X204017243Y-89232032D02*
X204017243Y-87832032D01*
X202017243Y-87832032D02*
X202017243Y-89232032D01*
X202717243Y-89932032D02*
X203317243Y-89932032D01*
X203317243Y-87132032D02*
X202717243Y-87132032D01*
X202017243Y-89232032D02*
G75*
G03*
X202717243Y-89932032I699999J-1D01*
G01*
X204017243Y-87832032D02*
G75*
G03*
X203317243Y-87132032I-700000J0D01*
G01*
X203317243Y-89932032D02*
G75*
G03*
X204017243Y-89232032I1J699999D01*
G01*
X202717243Y-87132032D02*
G75*
G03*
X202017243Y-87832032I0J-700000D01*
G01*
X205660639Y-111799948D02*
X206260639Y-111799948D01*
X204960639Y-109699948D02*
X204960639Y-111099948D01*
X206260639Y-108999948D02*
X205660639Y-108999948D01*
X206960639Y-111099948D02*
X206960639Y-109699948D01*
X206260639Y-111799948D02*
G75*
G03*
X206960639Y-111099948I0J700000D01*
G01*
X206960639Y-109699948D02*
G75*
G03*
X206260639Y-108999948I-699999J1D01*
G01*
X205660639Y-108999948D02*
G75*
G03*
X204960639Y-109699948I-1J-699999D01*
G01*
X204960639Y-111099948D02*
G75*
G03*
X205660639Y-111799948I700000J0D01*
G01*
X193793762Y-114073833D02*
X193793762Y-106773833D01*
X193793762Y-106773833D02*
X194943762Y-106773833D01*
X199293762Y-114073833D02*
X199293762Y-106773833D01*
D13*
X152214988Y-127951713D02*
X149814988Y-127951713D01*
X149814988Y-127951713D02*
X149814988Y-133951713D01*
X149814988Y-133951713D02*
X152214988Y-133951713D01*
X152214988Y-133951713D02*
X152214988Y-127951713D01*
G36*
X152214988Y-133951713D02*
G01*
X149814988Y-133951713D01*
X149814988Y-133393313D01*
X152214988Y-133393313D01*
X152214988Y-133951713D01*
G37*
X152214988Y-133951713D02*
X149814988Y-133951713D01*
X149814988Y-133393313D01*
X152214988Y-133393313D01*
X152214988Y-133951713D01*
D10*
X199187722Y-133177040D02*
X190856612Y-130944726D01*
X187130028Y-136062602D02*
X190617020Y-136996939D01*
X198176258Y-136951878D02*
X199187722Y-133177040D01*
X187112342Y-136077647D02*
X188657824Y-136491758D01*
X188153398Y-132243331D02*
X187132357Y-136053909D01*
X187629980Y-134145796D02*
X187112342Y-136077647D01*
X198164352Y-136996311D02*
X193274521Y-135733707D01*
X190856612Y-130944725D02*
G75*
G03*
X188182141Y-132178563I-720316J-1954155D01*
G01*
X193297634Y-135744042D02*
G75*
G03*
X190628063Y-136975050I-719282J-1950288D01*
G01*
X169926117Y-106332484D02*
X169926117Y-102424484D01*
X159012928Y-108351594D02*
X160612928Y-108351594D01*
X169926117Y-102424484D02*
X161301117Y-102424484D01*
X169926117Y-106378484D02*
X164876117Y-106424484D01*
X159012928Y-106351594D02*
X159012928Y-108351594D01*
X159026117Y-108332484D02*
X162636117Y-108332484D01*
X159026117Y-104378484D02*
X159026117Y-108323484D01*
X161301117Y-102424484D02*
G75*
G03*
X159037117Y-104308484I-190000J-2074000D01*
G01*
X164901117Y-106428485D02*
G75*
G03*
X162641118Y-108308483I-190001J-2069997D01*
G01*
D12*
X168957362Y-101902319D02*
X168957362Y-100752319D01*
X176257362Y-96402319D02*
X168957362Y-96402319D01*
X176257362Y-101902319D02*
X168957362Y-101902319D01*
D10*
X159026117Y-70332124D02*
X162636117Y-70332124D01*
X169926117Y-68332124D02*
X169926117Y-64424124D01*
X169926117Y-68378124D02*
X164876117Y-68424124D01*
X169926117Y-64424124D02*
X161301117Y-64424124D01*
X159012928Y-70351234D02*
X160612928Y-70351234D01*
X159012928Y-68351234D02*
X159012928Y-70351234D01*
X159026117Y-66378124D02*
X159026117Y-70323124D01*
X164901117Y-68428125D02*
G75*
G03*
X162641118Y-70308123I-190001J-2069997D01*
G01*
X161301117Y-64424124D02*
G75*
G03*
X159037117Y-66308124I-190000J-2074000D01*
G01*
X140025917Y-101838084D02*
X140025917Y-105783084D01*
X140025917Y-105792084D02*
X143635917Y-105792084D01*
X150925917Y-103838084D02*
X145875917Y-103884084D01*
X150925917Y-99884084D02*
X142300917Y-99884084D01*
X140012728Y-105811194D02*
X141612728Y-105811194D01*
X140012728Y-103811194D02*
X140012728Y-105811194D01*
X150925917Y-103792084D02*
X150925917Y-99884084D01*
X142300917Y-99884084D02*
G75*
G03*
X140036917Y-101768084I-190000J-2074000D01*
G01*
X145900917Y-103888085D02*
G75*
G03*
X143640918Y-105768083I-190001J-2069997D01*
G01*
X102026317Y-111832084D02*
X105636317Y-111832084D01*
X112926317Y-109878084D02*
X107876317Y-109924084D01*
X112926317Y-105924084D02*
X104301317Y-105924084D01*
X102013128Y-111851194D02*
X103613128Y-111851194D01*
X102013128Y-109851194D02*
X102013128Y-111851194D01*
X112926317Y-109832084D02*
X112926317Y-105924084D01*
X102026317Y-107878084D02*
X102026317Y-111823084D01*
X107901317Y-109928085D02*
G75*
G03*
X105641318Y-111808083I-190001J-2069997D01*
G01*
X104301317Y-105924084D02*
G75*
G03*
X102037317Y-107808084I-190000J-2074000D01*
G01*
X188925815Y-104964484D02*
X180300815Y-104964484D01*
X188925815Y-108918484D02*
X183875815Y-108964484D01*
X178025815Y-110872484D02*
X181635815Y-110872484D01*
X178012626Y-110891594D02*
X179612626Y-110891594D01*
X188925815Y-108872484D02*
X188925815Y-104964484D01*
X178025815Y-106918484D02*
X178025815Y-110863484D01*
X178012626Y-108891594D02*
X178012626Y-110891594D01*
X183900815Y-108968485D02*
G75*
G03*
X181640816Y-110848483I-190001J-2069997D01*
G01*
X180300815Y-104964484D02*
G75*
G03*
X178036815Y-106848484I-190000J-2074000D01*
G01*
D13*
X117110128Y-73838794D02*
X114710128Y-73838794D01*
X114710128Y-73838794D02*
X114710128Y-79838794D01*
X114710128Y-79838794D02*
X117110128Y-79838794D01*
X117110128Y-79838794D02*
X117110128Y-73838794D01*
G36*
X117110128Y-79838794D02*
G01*
X114710128Y-79838794D01*
X114710128Y-79280394D01*
X117110128Y-79280394D01*
X117110128Y-79838794D01*
G37*
X117110128Y-79838794D02*
X114710128Y-79838794D01*
X114710128Y-79280394D01*
X117110128Y-79280394D01*
X117110128Y-79838794D01*
X136110328Y-89339794D02*
X133710328Y-89339794D01*
X133710328Y-89339794D02*
X133710328Y-95339794D01*
X133710328Y-95339794D02*
X136110328Y-95339794D01*
X136110328Y-95339794D02*
X136110328Y-89339794D01*
G36*
X136110328Y-95339794D02*
G01*
X133710328Y-95339794D01*
X133710328Y-94781394D01*
X136110328Y-94781394D01*
X136110328Y-95339794D01*
G37*
X136110328Y-95339794D02*
X133710328Y-95339794D01*
X133710328Y-94781394D01*
X136110328Y-94781394D01*
X136110328Y-95339794D01*
X193109626Y-91879994D02*
X190709626Y-91879994D01*
X190709626Y-91879994D02*
X190709626Y-97879994D01*
X190709626Y-97879994D02*
X193109626Y-97879994D01*
X193109626Y-97879994D02*
X193109626Y-91879994D01*
G36*
X193109626Y-97879994D02*
G01*
X190709626Y-97879994D01*
X190709626Y-97321594D01*
X193109626Y-97321594D01*
X193109626Y-97879994D01*
G37*
X193109626Y-97879994D02*
X190709626Y-97879994D01*
X190709626Y-97321594D01*
X193109626Y-97321594D01*
X193109626Y-97879994D01*
D10*
X178025815Y-72872684D02*
X181635815Y-72872684D01*
X178012626Y-72891794D02*
X179612626Y-72891794D01*
X178012626Y-70891794D02*
X178012626Y-72891794D01*
X188925815Y-66964684D02*
X180300815Y-66964684D01*
X188925815Y-70872684D02*
X188925815Y-66964684D01*
X188925815Y-70918684D02*
X183875815Y-70964684D01*
X178025815Y-68918684D02*
X178025815Y-72863684D01*
X183900815Y-70968685D02*
G75*
G03*
X181640816Y-72848683I-190001J-2069997D01*
G01*
X180300815Y-66964684D02*
G75*
G03*
X178036815Y-68848684I-190000J-2074000D01*
G01*
X188925815Y-85964484D02*
X180300815Y-85964484D01*
X178012626Y-89891594D02*
X178012626Y-91891594D01*
X178012626Y-91891594D02*
X179612626Y-91891594D01*
X188925815Y-89918484D02*
X183875815Y-89964484D01*
X178025815Y-91872484D02*
X181635815Y-91872484D01*
X188925815Y-89872484D02*
X188925815Y-85964484D01*
X178025815Y-87918484D02*
X178025815Y-91863484D01*
X183900815Y-89968485D02*
G75*
G03*
X181640816Y-91848483I-190001J-2069997D01*
G01*
X180300815Y-85964484D02*
G75*
G03*
X178036815Y-87848484I-190000J-2074000D01*
G01*
D13*
X155109728Y-67799434D02*
X152709728Y-67799434D01*
X152709728Y-67799434D02*
X152709728Y-73799434D01*
X152709728Y-73799434D02*
X155109728Y-73799434D01*
X155109728Y-73799434D02*
X155109728Y-67799434D01*
G36*
X155109728Y-73799434D02*
G01*
X152709728Y-73799434D01*
X152709728Y-73241034D01*
X155109728Y-73241034D01*
X155109728Y-73799434D01*
G37*
X155109728Y-73799434D02*
X152709728Y-73799434D01*
X152709728Y-73241034D01*
X155109728Y-73241034D01*
X155109728Y-73799434D01*
X174109928Y-108339994D02*
X171709928Y-108339994D01*
X171709928Y-108339994D02*
X171709928Y-114339994D01*
X171709928Y-114339994D02*
X174109928Y-114339994D01*
X174109928Y-114339994D02*
X174109928Y-108339994D01*
G36*
X174109928Y-114339994D02*
G01*
X171709928Y-114339994D01*
X171709928Y-113781594D01*
X174109928Y-113781594D01*
X174109928Y-114339994D01*
G37*
X174109928Y-114339994D02*
X171709928Y-114339994D01*
X171709928Y-113781594D01*
X174109928Y-113781594D01*
X174109928Y-114339994D01*
D12*
X187125762Y-59119109D02*
X184625762Y-59119109D01*
X183125762Y-60869109D02*
X183125762Y-62869109D01*
X187125762Y-64619109D02*
X184625762Y-64619109D01*
X184175762Y-59569109D02*
X184625762Y-59119109D01*
X184175762Y-64169109D02*
X184625762Y-64619109D01*
X187575762Y-59569109D02*
X187125762Y-59119109D01*
X187575762Y-64169109D02*
X187125762Y-64619109D01*
X188625762Y-60869109D02*
X188625762Y-62869109D01*
X154037754Y-138862573D02*
X154037754Y-137135373D01*
X138289754Y-120117373D02*
X136664154Y-120117373D01*
X152412154Y-138862573D02*
X154037754Y-138862573D01*
X136664154Y-120117373D02*
X136664154Y-121844573D01*
D10*
X121013328Y-106350994D02*
X121013328Y-108350994D01*
X121026517Y-104377884D02*
X121026517Y-108322884D01*
X131926517Y-106331884D02*
X131926517Y-102423884D01*
X121013328Y-108350994D02*
X122613328Y-108350994D01*
X131926517Y-106377884D02*
X126876517Y-106423884D01*
X121026517Y-108331884D02*
X124636517Y-108331884D01*
X131926517Y-102423884D02*
X123301517Y-102423884D01*
X123301517Y-102423884D02*
G75*
G03*
X121037517Y-104307884I-190000J-2074000D01*
G01*
X126901517Y-106427885D02*
G75*
G03*
X124641518Y-108307883I-190001J-2069997D01*
G01*
D13*
X136593988Y-127951713D02*
X134193988Y-127951713D01*
X134193988Y-127951713D02*
X134193988Y-133951713D01*
X134193988Y-133951713D02*
X136593988Y-133951713D01*
X136593988Y-133951713D02*
X136593988Y-127951713D01*
G36*
X136593988Y-133951713D02*
G01*
X134193988Y-133951713D01*
X134193988Y-133393313D01*
X136593988Y-133393313D01*
X136593988Y-133951713D01*
G37*
X136593988Y-133951713D02*
X134193988Y-133951713D01*
X134193988Y-133393313D01*
X136593988Y-133393313D01*
X136593988Y-133951713D01*
X186780142Y-127080234D02*
X189180142Y-127080234D01*
X189180142Y-127080234D02*
X189180142Y-121080234D01*
X189180142Y-121080234D02*
X186780142Y-121080234D01*
X186780142Y-121080234D02*
X186780142Y-127080234D01*
G36*
X189180142Y-121638634D02*
G01*
X186780142Y-121638634D01*
X186780142Y-121080234D01*
X189180142Y-121080234D01*
X189180142Y-121638634D01*
G37*
X189180142Y-121638634D02*
X186780142Y-121638634D01*
X186780142Y-121080234D01*
X189180142Y-121080234D01*
X189180142Y-121638634D01*
X189438812Y-127080234D02*
X191838812Y-127080234D01*
X191838812Y-127080234D02*
X191838812Y-121080234D01*
X191838812Y-121080234D02*
X189438812Y-121080234D01*
X189438812Y-121080234D02*
X189438812Y-127080234D01*
G36*
X191838812Y-121638634D02*
G01*
X189438812Y-121638634D01*
X189438812Y-121080234D01*
X191838812Y-121080234D01*
X191838812Y-121638634D01*
G37*
X191838812Y-121638634D02*
X189438812Y-121638634D01*
X189438812Y-121080234D01*
X191838812Y-121080234D01*
X191838812Y-121638634D01*
D10*
X102013128Y-90850794D02*
X102013128Y-92850794D01*
X102013128Y-92850794D02*
X103613128Y-92850794D01*
X102026317Y-88877684D02*
X102026317Y-92822684D01*
X112926317Y-90877684D02*
X107876317Y-90923684D01*
X112926317Y-86923684D02*
X104301317Y-86923684D01*
X102026317Y-92831684D02*
X105636317Y-92831684D01*
X112926317Y-90831684D02*
X112926317Y-86923684D01*
X107901317Y-90927685D02*
G75*
G03*
X105641318Y-92807683I-190001J-2069997D01*
G01*
X104301317Y-86923684D02*
G75*
G03*
X102037317Y-88807684I-190000J-2074000D01*
G01*
D13*
X184121473Y-127080234D02*
X186521473Y-127080234D01*
X186521473Y-127080234D02*
X186521473Y-121080234D01*
X186521473Y-121080234D02*
X184121473Y-121080234D01*
X184121473Y-121080234D02*
X184121473Y-127080234D01*
G36*
X186521473Y-121638634D02*
G01*
X184121473Y-121638634D01*
X184121473Y-121080234D01*
X186521473Y-121080234D01*
X186521473Y-121638634D01*
G37*
X186521473Y-121638634D02*
X184121473Y-121638634D01*
X184121473Y-121080234D01*
X186521473Y-121080234D01*
X186521473Y-121638634D01*
X174109928Y-70339634D02*
X171709928Y-70339634D01*
X171709928Y-70339634D02*
X171709928Y-76339634D01*
X171709928Y-76339634D02*
X174109928Y-76339634D01*
X174109928Y-76339634D02*
X174109928Y-70339634D01*
G36*
X174109928Y-76339634D02*
G01*
X171709928Y-76339634D01*
X171709928Y-75781234D01*
X174109928Y-75781234D01*
X174109928Y-76339634D01*
G37*
X174109928Y-76339634D02*
X171709928Y-76339634D01*
X171709928Y-75781234D01*
X174109928Y-75781234D01*
X174109928Y-76339634D01*
X136110328Y-108339394D02*
X133710328Y-108339394D01*
X133710328Y-108339394D02*
X133710328Y-114339394D01*
X133710328Y-114339394D02*
X136110328Y-114339394D01*
X136110328Y-114339394D02*
X136110328Y-108339394D01*
G36*
X136110328Y-114339394D02*
G01*
X133710328Y-114339394D01*
X133710328Y-113780994D01*
X136110328Y-113780994D01*
X136110328Y-114339394D01*
G37*
X136110328Y-114339394D02*
X133710328Y-114339394D01*
X133710328Y-113780994D01*
X136110328Y-113780994D01*
X136110328Y-114339394D01*
X136110328Y-70340194D02*
X133710328Y-70340194D01*
X133710328Y-70340194D02*
X133710328Y-76340194D01*
X133710328Y-76340194D02*
X136110328Y-76340194D01*
X136110328Y-76340194D02*
X136110328Y-70340194D01*
G36*
X136110328Y-76340194D02*
G01*
X133710328Y-76340194D01*
X133710328Y-75781794D01*
X136110328Y-75781794D01*
X136110328Y-76340194D01*
G37*
X136110328Y-76340194D02*
X133710328Y-76340194D01*
X133710328Y-75781794D01*
X136110328Y-75781794D01*
X136110328Y-76340194D01*
X117110128Y-92839194D02*
X114710128Y-92839194D01*
X114710128Y-92839194D02*
X114710128Y-98839194D01*
X114710128Y-98839194D02*
X117110128Y-98839194D01*
X117110128Y-98839194D02*
X117110128Y-92839194D01*
G36*
X117110128Y-98839194D02*
G01*
X114710128Y-98839194D01*
X114710128Y-98280794D01*
X117110128Y-98280794D01*
X117110128Y-98839194D01*
G37*
X117110128Y-98839194D02*
X114710128Y-98839194D01*
X114710128Y-98280794D01*
X117110128Y-98280794D01*
X117110128Y-98839194D01*
D10*
X209770639Y-108534021D02*
X199610639Y-108534021D01*
X199610639Y-108534021D02*
X199610639Y-105994021D01*
X199610639Y-105994021D02*
X209770639Y-105994021D01*
X209770639Y-105994021D02*
X209770639Y-108534021D01*
D12*
X214924188Y-141112713D02*
G75*
G03*
X214924188Y-141112713I-3000000J0D01*
G01*
X218140788Y-140707894D02*
X219201947Y-136747598D01*
X212407151Y-141242123D02*
X211441225Y-140983303D01*
X205945104Y-147585776D02*
X206312527Y-147373644D01*
X217105512Y-144571597D02*
X216044354Y-148531893D01*
X210122244Y-134314699D02*
X207804022Y-133693533D01*
X207804022Y-133693533D02*
X206742864Y-137653829D01*
X214758688Y-135557030D02*
X212247281Y-134884101D01*
X206312527Y-147373644D02*
X206100395Y-147006221D01*
X206100395Y-147006221D02*
X205945104Y-147585776D01*
X219201947Y-136747598D02*
X216883725Y-136126432D01*
X211794778Y-141595676D02*
X212053598Y-140629750D01*
X205707588Y-141517532D02*
X204646429Y-145477828D01*
X216044354Y-148531893D02*
X204646429Y-145477828D01*
X159012699Y-126054522D02*
X158612699Y-126054522D01*
X158812699Y-125654522D02*
X159012699Y-126054522D01*
X155737699Y-123464522D02*
X155737699Y-122864522D01*
X163777699Y-123464522D02*
X163887699Y-123464522D01*
X158612699Y-126054522D02*
X158812699Y-125654522D01*
X155847699Y-123464522D02*
X155737699Y-123464522D01*
X163887699Y-123464522D02*
X163887699Y-122864522D01*
D10*
X159026117Y-85378084D02*
X159026117Y-89323084D01*
X159012928Y-87351194D02*
X159012928Y-89351194D01*
X159026117Y-89332084D02*
X162636117Y-89332084D01*
X169926117Y-83424084D02*
X161301117Y-83424084D01*
X159012928Y-89351194D02*
X160612928Y-89351194D01*
X169926117Y-87378084D02*
X164876117Y-87424084D01*
X169926117Y-87332084D02*
X169926117Y-83424084D01*
X164901117Y-87428085D02*
G75*
G03*
X162641118Y-89308083I-190001J-2069997D01*
G01*
X161301117Y-83424084D02*
G75*
G03*
X159037117Y-85308084I-190000J-2074000D01*
G01*
D11*
X148312954Y-130419313D02*
G75*
G03*
X148312954Y-130419313I-2200000J0D01*
G01*
G36*
X145570536Y-130887884D02*
G01*
X145747085Y-130965325D01*
X145916044Y-131090246D01*
X146166887Y-131285394D01*
X146405069Y-131420738D01*
X146631770Y-131496935D01*
X146652544Y-131501082D01*
X146733191Y-131522910D01*
X146753008Y-131547675D01*
X146711705Y-131576750D01*
X146630589Y-131605204D01*
X146451507Y-131641302D01*
X146244791Y-131655987D01*
X146039902Y-131648562D01*
X145883366Y-131622896D01*
X145650817Y-131543408D01*
X145453050Y-131434133D01*
X145299123Y-131301134D01*
X145207917Y-131170846D01*
X145155823Y-131042857D01*
X145152189Y-130952312D01*
X145199375Y-130895153D01*
X145299745Y-130867321D01*
X145387103Y-130863012D01*
X145570536Y-130887884D01*
G37*
G36*
X146117505Y-129139184D02*
G01*
X146367168Y-129191424D01*
X146391718Y-129198404D01*
X146579837Y-129270705D01*
X146746642Y-129368648D01*
X146882951Y-129483951D01*
X146979582Y-129608333D01*
X147027354Y-129733513D01*
X147030835Y-129774818D01*
X147007964Y-129877324D01*
X146941130Y-129938083D01*
X146833004Y-129956246D01*
X146686254Y-129930965D01*
X146613911Y-129907250D01*
X146538684Y-129869923D01*
X146430939Y-129804029D01*
X146306598Y-129719743D01*
X146210736Y-129649600D01*
X146069949Y-129551053D01*
X145917639Y-129457908D01*
X145767207Y-129377074D01*
X145632056Y-129315465D01*
X145525586Y-129279990D01*
X145482627Y-129274112D01*
X145450523Y-129254268D01*
X145449150Y-129246439D01*
X145476936Y-129226144D01*
X145550200Y-129198341D01*
X145653803Y-129168664D01*
X145666873Y-129165411D01*
X145890318Y-129130797D01*
X146117505Y-129139184D01*
G37*
D13*
X155109728Y-86799394D02*
X152709728Y-86799394D01*
X152709728Y-86799394D02*
X152709728Y-92799394D01*
X152709728Y-92799394D02*
X155109728Y-92799394D01*
X155109728Y-92799394D02*
X155109728Y-86799394D01*
G36*
X155109728Y-92799394D02*
G01*
X152709728Y-92799394D01*
X152709728Y-92240994D01*
X155109728Y-92240994D01*
X155109728Y-92799394D01*
G37*
X155109728Y-92799394D02*
X152709728Y-92799394D01*
X152709728Y-92240994D01*
X155109728Y-92240994D01*
X155109728Y-92799394D01*
D12*
X119284562Y-101902319D02*
X119284562Y-100752319D01*
X126584562Y-96402319D02*
X119284562Y-96402319D01*
X126584562Y-101902319D02*
X119284562Y-101902319D01*
D10*
X200513700Y-113180634D02*
X212513700Y-113180634D01*
X212513700Y-113180634D02*
X212513700Y-119180634D01*
X212513700Y-119180634D02*
X200513700Y-119180634D01*
X200513700Y-119180634D02*
X200513700Y-113180634D01*
D12*
X214545700Y-114120634D02*
X212545700Y-114120634D01*
X212545700Y-114120634D02*
X212545700Y-118362434D01*
X212545700Y-118362434D02*
X214545700Y-118362434D01*
X214545700Y-118362434D02*
X214545700Y-114120634D01*
D13*
X174109928Y-89339594D02*
X171709928Y-89339594D01*
X171709928Y-89339594D02*
X171709928Y-95339594D01*
X171709928Y-95339594D02*
X174109928Y-95339594D01*
X174109928Y-95339594D02*
X174109928Y-89339594D01*
G36*
X174109928Y-95339594D02*
G01*
X171709928Y-95339594D01*
X171709928Y-94781194D01*
X174109928Y-94781194D01*
X174109928Y-95339594D01*
G37*
X174109928Y-95339594D02*
X171709928Y-95339594D01*
X171709928Y-94781194D01*
X174109928Y-94781194D01*
X174109928Y-95339594D01*
D12*
X151420962Y-98371719D02*
X144120962Y-98371719D01*
X144120962Y-98371719D02*
X144120962Y-97221719D01*
X151420962Y-92871719D02*
X144120962Y-92871719D01*
D13*
X117110128Y-111839594D02*
X114710128Y-111839594D01*
X114710128Y-111839594D02*
X114710128Y-117839594D01*
X114710128Y-117839594D02*
X117110128Y-117839594D01*
X117110128Y-117839594D02*
X117110128Y-111839594D01*
G36*
X117110128Y-117839594D02*
G01*
X114710128Y-117839594D01*
X114710128Y-117281194D01*
X117110128Y-117281194D01*
X117110128Y-117839594D01*
G37*
X117110128Y-117839594D02*
X114710128Y-117839594D01*
X114710128Y-117281194D01*
X117110128Y-117281194D01*
X117110128Y-117839594D01*
X193109626Y-110879994D02*
X190709626Y-110879994D01*
X190709626Y-110879994D02*
X190709626Y-116879994D01*
X190709626Y-116879994D02*
X193109626Y-116879994D01*
X193109626Y-116879994D02*
X193109626Y-110879994D01*
G36*
X193109626Y-116879994D02*
G01*
X190709626Y-116879994D01*
X190709626Y-116321594D01*
X193109626Y-116321594D01*
X193109626Y-116879994D01*
G37*
X193109626Y-116879994D02*
X190709626Y-116879994D01*
X190709626Y-116321594D01*
X193109626Y-116321594D01*
X193109626Y-116879994D01*
D10*
X121013328Y-70351794D02*
X122613328Y-70351794D01*
X121026517Y-66378684D02*
X121026517Y-70323684D01*
X121013328Y-68351794D02*
X121013328Y-70351794D01*
X131926517Y-68378684D02*
X126876517Y-68424684D01*
X131926517Y-64424684D02*
X123301517Y-64424684D01*
X131926517Y-68332684D02*
X131926517Y-64424684D01*
X121026517Y-70332684D02*
X124636517Y-70332684D01*
X123301517Y-64424684D02*
G75*
G03*
X121037517Y-66308684I-190000J-2074000D01*
G01*
X126901517Y-68428685D02*
G75*
G03*
X124641518Y-70308683I-190001J-2069997D01*
G01*
X140012728Y-84810994D02*
X140012728Y-86810994D01*
X150925917Y-84791884D02*
X150925917Y-80883884D01*
X140025917Y-82837884D02*
X140025917Y-86782884D01*
X150925917Y-84837884D02*
X145875917Y-84883884D01*
X140012728Y-86810994D02*
X141612728Y-86810994D01*
X150925917Y-80883884D02*
X142300917Y-80883884D01*
X140025917Y-86791884D02*
X143635917Y-86791884D01*
X145900917Y-84887885D02*
G75*
G03*
X143640918Y-86767883I-190001J-2069997D01*
G01*
X142300917Y-80883884D02*
G75*
G03*
X140036917Y-82767884I-190000J-2074000D01*
G01*
X102026317Y-69877284D02*
X102026317Y-73822284D01*
X102013128Y-71850394D02*
X102013128Y-73850394D01*
X112926317Y-71831284D02*
X112926317Y-67923284D01*
X102026317Y-73831284D02*
X105636317Y-73831284D01*
X102013128Y-73850394D02*
X103613128Y-73850394D01*
X112926317Y-71877284D02*
X107876317Y-71923284D01*
X112926317Y-67923284D02*
X104301317Y-67923284D01*
X107901317Y-71927285D02*
G75*
G03*
X105641318Y-73807283I-190001J-2069997D01*
G01*
X104301317Y-67923284D02*
G75*
G03*
X102037317Y-69807284I-190000J-2074000D01*
G01*
G36*
X193109755Y-78880550D02*
G01*
X190709755Y-78880550D01*
X190709755Y-78322150D01*
X193109755Y-78322150D01*
X193109755Y-78880550D01*
G37*
D13*
X193109755Y-78880550D02*
X190709755Y-78880550D01*
X190709755Y-78322150D01*
X193109755Y-78322150D01*
X193109755Y-78880550D01*
X193109755Y-72880550D02*
X190709755Y-72880550D01*
X190709755Y-72880550D02*
X190709755Y-78880550D01*
X190709755Y-78880550D02*
X193109755Y-78880550D01*
X193109755Y-78880550D02*
X193109755Y-72880550D01*
D10*
X131926517Y-87332284D02*
X131926517Y-83424284D01*
X121026517Y-85378284D02*
X121026517Y-89323284D01*
X121013328Y-89351394D02*
X122613328Y-89351394D01*
X131926517Y-87378284D02*
X126876517Y-87424284D01*
X131926517Y-83424284D02*
X123301517Y-83424284D01*
X121026517Y-89332284D02*
X124636517Y-89332284D01*
X121013328Y-87351394D02*
X121013328Y-89351394D01*
X123301517Y-83424284D02*
G75*
G03*
X121037517Y-85308284I-190000J-2074000D01*
G01*
X126901517Y-87428285D02*
G75*
G03*
X124641518Y-89308283I-190001J-2069997D01*
G01*
X168912516Y-129931253D02*
X170457998Y-130345364D01*
X169430154Y-127999402D02*
X168912516Y-129931253D01*
X179976432Y-130805484D02*
X180987896Y-127030646D01*
X179964526Y-130849917D02*
X175074695Y-129587313D01*
X180987896Y-127030646D02*
X172656786Y-124798332D01*
X168930202Y-129916208D02*
X172417194Y-130850545D01*
X169953572Y-126096937D02*
X168932531Y-129907515D01*
X172656786Y-124798331D02*
G75*
G03*
X169982315Y-126032169I-720316J-1954155D01*
G01*
X175097808Y-129597648D02*
G75*
G03*
X172428237Y-130828656I-719282J-1950288D01*
G01*
X150925917Y-61883924D02*
X142300917Y-61883924D01*
X140012728Y-65811034D02*
X140012728Y-67811034D01*
X140012728Y-67811034D02*
X141612728Y-67811034D01*
X150925917Y-65837924D02*
X145875917Y-65883924D01*
X140025917Y-63837924D02*
X140025917Y-67782924D01*
X150925917Y-65791924D02*
X150925917Y-61883924D01*
X140025917Y-67791924D02*
X143635917Y-67791924D01*
X145900917Y-65887925D02*
G75*
G03*
X143640918Y-67767923I-190001J-2069997D01*
G01*
X142300917Y-61883924D02*
G75*
G03*
X140036917Y-63767924I-190000J-2074000D01*
G01*
D13*
X155109728Y-105799594D02*
X152709728Y-105799594D01*
X152709728Y-105799594D02*
X152709728Y-111799594D01*
X152709728Y-111799594D02*
X155109728Y-111799594D01*
X155109728Y-111799594D02*
X155109728Y-105799594D01*
G36*
X155109728Y-111799594D02*
G01*
X152709728Y-111799594D01*
X152709728Y-111241194D01*
X155109728Y-111241194D01*
X155109728Y-111799594D01*
G37*
X155109728Y-111799594D02*
X152709728Y-111799594D01*
X152709728Y-111241194D01*
X155109728Y-111241194D01*
X155109728Y-111799594D01*
D10*
X206281628Y-138653400D02*
X209768620Y-139587737D01*
X207304998Y-134834129D02*
X206283957Y-138644707D01*
X206781580Y-136736594D02*
X206263942Y-138668445D01*
X206263942Y-138668445D02*
X207809424Y-139082556D01*
X218339322Y-135767838D02*
X210008212Y-133535524D01*
X217315952Y-139587109D02*
X212426121Y-138324505D01*
X217327858Y-139542676D02*
X218339322Y-135767838D01*
X210008212Y-133535523D02*
G75*
G03*
X207333741Y-134769361I-720316J-1954155D01*
G01*
X212449234Y-138334840D02*
G75*
G03*
X209779663Y-139565848I-719282J-1950288D01*
G01*
D12*
X200580639Y-111799948D02*
X201180639Y-111799948D01*
X199880639Y-109699948D02*
X199880639Y-111099948D01*
X201880639Y-111099948D02*
X201880639Y-109699948D01*
X201180639Y-108999948D02*
X200580639Y-108999948D01*
X201880639Y-109699948D02*
G75*
G03*
X201180639Y-108999948I-699999J1D01*
G01*
X200580639Y-108999948D02*
G75*
G03*
X199880639Y-109699948I-1J-699999D01*
G01*
X199880639Y-111099948D02*
G75*
G03*
X200580639Y-111799948I700000J0D01*
G01*
X201180639Y-111799948D02*
G75*
G03*
X201880639Y-111099948I0J700000D01*
G01*
X203720639Y-108999948D02*
X203120639Y-108999948D01*
X204420639Y-111099948D02*
X204420639Y-109699948D01*
X203120639Y-111799948D02*
X203720639Y-111799948D01*
X202420639Y-109699948D02*
X202420639Y-111099948D01*
X202420639Y-111099948D02*
G75*
G03*
X203120639Y-111799948I700000J0D01*
G01*
X203120639Y-108999948D02*
G75*
G03*
X202420639Y-109699948I-1J-699999D01*
G01*
X203720639Y-111799948D02*
G75*
G03*
X204420639Y-111099948I0J700000D01*
G01*
X204420639Y-109699948D02*
G75*
G03*
X203720639Y-108999948I-699999J1D01*
G01*
D11*
X132654580Y-130419313D02*
G75*
G03*
X132654580Y-130419313I-2200000J0D01*
G01*
G36*
X129912162Y-130887884D02*
G01*
X130088711Y-130965325D01*
X130257670Y-131090246D01*
X130508513Y-131285394D01*
X130746695Y-131420738D01*
X130973396Y-131496935D01*
X130994170Y-131501082D01*
X131074817Y-131522910D01*
X131094634Y-131547675D01*
X131053331Y-131576750D01*
X130972215Y-131605204D01*
X130793133Y-131641302D01*
X130586417Y-131655987D01*
X130381528Y-131648562D01*
X130224992Y-131622896D01*
X129992443Y-131543408D01*
X129794676Y-131434133D01*
X129640749Y-131301134D01*
X129549543Y-131170846D01*
X129497449Y-131042857D01*
X129493815Y-130952312D01*
X129541001Y-130895153D01*
X129641371Y-130867321D01*
X129728729Y-130863012D01*
X129912162Y-130887884D01*
G37*
G36*
X130459131Y-129139184D02*
G01*
X130708794Y-129191424D01*
X130733344Y-129198404D01*
X130921463Y-129270705D01*
X131088268Y-129368648D01*
X131224577Y-129483951D01*
X131321208Y-129608333D01*
X131368980Y-129733513D01*
X131372461Y-129774818D01*
X131349590Y-129877324D01*
X131282756Y-129938083D01*
X131174630Y-129956246D01*
X131027880Y-129930965D01*
X130955537Y-129907250D01*
X130880310Y-129869923D01*
X130772565Y-129804029D01*
X130648224Y-129719743D01*
X130552362Y-129649600D01*
X130411575Y-129551053D01*
X130259265Y-129457908D01*
X130108833Y-129377074D01*
X129973682Y-129315465D01*
X129867212Y-129279990D01*
X129824253Y-129274112D01*
X129792149Y-129254268D01*
X129790776Y-129246439D01*
X129818562Y-129226144D01*
X129891826Y-129198341D01*
X129995429Y-129168664D01*
X130008499Y-129165411D01*
X130231944Y-129130797D01*
X130459131Y-129139184D01*
G37*
D12*
X207500639Y-109699948D02*
X207500639Y-111099948D01*
X209500639Y-111099948D02*
X209500639Y-109699948D01*
X208200639Y-111799948D02*
X208800639Y-111799948D01*
X208800639Y-108999948D02*
X208200639Y-108999948D01*
X208200639Y-108999948D02*
G75*
G03*
X207500639Y-109699948I-1J-699999D01*
G01*
X207500639Y-111099948D02*
G75*
G03*
X208200639Y-111799948I700000J0D01*
G01*
X208800639Y-111799948D02*
G75*
G03*
X209500639Y-111099948I0J700000D01*
G01*
X209500639Y-109699948D02*
G75*
G03*
X208800639Y-108999948I-699999J1D01*
G01*
M02*
