G04 #@! TF.GenerationSoftware,KiCad,Pcbnew,(6.0.6-0)*
G04 #@! TF.CreationDate,2022-07-14T23:53:09+08:00*
G04 #@! TF.ProjectId,thrfv,74687266-762e-46b6-9963-61645f706362,rev?*
G04 #@! TF.SameCoordinates,Original*
G04 #@! TF.FileFunction,Profile,NP*
%FSLAX46Y46*%
G04 Gerber Fmt 4.6, Leading zero omitted, Abs format (unit mm)*
G04 Created by KiCad (PCBNEW (6.0.6-0)) date 2022-07-14 23:53:09*
%MOMM*%
%LPD*%
G01*
G04 APERTURE LIST*
G04 #@! TA.AperFunction,Profile*
%ADD10C,0.150000*%
G04 #@! TD*
G04 APERTURE END LIST*
D10*
X99524876Y-62622585D02*
G75*
G03*
X98105528Y-63916829I-94176J-1322115D01*
G01*
X98105507Y-121393720D02*
G75*
G03*
X99236362Y-122566519I1226593J51120D01*
G01*
X124980755Y-140746719D02*
X107581755Y-123279719D01*
X113473788Y-56472171D02*
G75*
G03*
X112173486Y-57830665I-12189J-1289881D01*
G01*
X124980767Y-140746708D02*
G75*
G03*
X127012755Y-141561900I1929923J1870508D01*
G01*
X216269508Y-157368713D02*
X158775328Y-141996519D01*
X193149273Y-56472375D02*
X113473788Y-56472171D01*
X194276532Y-68801829D02*
G75*
G03*
X195489679Y-70014968I1213068J-71D01*
G01*
X158775328Y-141996519D02*
G75*
G03*
X155587755Y-141569900I-3021088J-10451081D01*
G01*
X214637709Y-122291313D02*
X223912988Y-131562313D01*
X214082386Y-120919713D02*
G75*
G03*
X214637709Y-122291313I1885114J-34987D01*
G01*
X99524873Y-62622634D02*
X110779683Y-62622634D01*
X194276540Y-57577071D02*
X194276540Y-68801829D01*
X214082406Y-71186920D02*
G75*
G03*
X212913978Y-70014968I-1128206J43620D01*
G01*
X107581749Y-123279725D02*
G75*
G03*
X105862355Y-122566519I-1655649J-1562275D01*
G01*
X155587755Y-141569900D02*
X127012755Y-141561900D01*
X105862355Y-122566519D02*
X99236362Y-122566519D01*
X218196064Y-156267016D02*
X224370188Y-133213313D01*
X216269520Y-157368669D02*
G75*
G03*
X218196064Y-156267016I416580J1506869D01*
G01*
X110779683Y-62622634D02*
G75*
G03*
X112173486Y-61224429I-6372J1400162D01*
G01*
X194276517Y-57577071D02*
G75*
G03*
X193149273Y-56472375I-1084617J20719D01*
G01*
X98105528Y-63916829D02*
X98105528Y-121393719D01*
X224370175Y-133213309D02*
G75*
G03*
X223912988Y-131562313I-1607675J443609D01*
G01*
X212913978Y-70014968D02*
X195489679Y-70014968D01*
X112173486Y-57830665D02*
X112173486Y-61224429D01*
X214082378Y-120919713D02*
X214082378Y-71186919D01*
M02*
