G04 #@! TF.GenerationSoftware,KiCad,Pcbnew,(6.0.6-0)*
G04 #@! TF.CreationDate,2022-07-17T23:29:56+08:00*
G04 #@! TF.ProjectId,thrfv,74687266-762e-46b6-9963-61645f706362,rev?*
G04 #@! TF.SameCoordinates,Original*
G04 #@! TF.FileFunction,Soldermask,Bot*
G04 #@! TF.FilePolarity,Negative*
%FSLAX46Y46*%
G04 Gerber Fmt 4.6, Leading zero omitted, Abs format (unit mm)*
G04 Created by KiCad (PCBNEW (6.0.6-0)) date 2022-07-17 23:29:56*
%MOMM*%
%LPD*%
G01*
G04 APERTURE LIST*
G04 Aperture macros list*
%AMRoundRect*
0 Rectangle with rounded corners*
0 $1 Rounding radius*
0 $2 $3 $4 $5 $6 $7 $8 $9 X,Y pos of 4 corners*
0 Add a 4 corners polygon primitive as box body*
4,1,4,$2,$3,$4,$5,$6,$7,$8,$9,$2,$3,0*
0 Add four circle primitives for the rounded corners*
1,1,$1+$1,$2,$3*
1,1,$1+$1,$4,$5*
1,1,$1+$1,$6,$7*
1,1,$1+$1,$8,$9*
0 Add four rect primitives between the rounded corners*
20,1,$1+$1,$2,$3,$4,$5,0*
20,1,$1+$1,$4,$5,$6,$7,0*
20,1,$1+$1,$6,$7,$8,$9,0*
20,1,$1+$1,$8,$9,$2,$3,0*%
%AMFreePoly0*
4,1,37,1.228070,1.434758,1.247030,1.430987,1.319133,1.401121,1.335206,1.390381,1.390381,1.335206,1.401121,1.319133,1.430987,1.247030,1.434758,1.228070,1.438600,1.189056,1.438600,-1.189056,1.434758,-1.228070,1.430987,-1.247030,1.401121,-1.319133,1.390381,-1.335206,1.335206,-1.390381,1.319133,-1.401121,1.247030,-1.430987,1.228070,-1.434758,1.189056,-1.438600,-0.743160,-1.438600,
-0.829937,-1.418794,-0.884581,-1.380021,-1.380021,-0.884581,-1.427377,-0.809216,-1.438600,-0.743160,-1.438600,1.189056,-1.434758,1.228070,-1.430987,1.247030,-1.401121,1.319133,-1.390381,1.335206,-1.335206,1.390381,-1.319133,1.401121,-1.247030,1.430987,-1.228070,1.434758,-1.189056,1.438600,1.189056,1.438600,1.228070,1.434758,1.228070,1.434758,$1*%
%AMFreePoly1*
4,1,131,0.421069,1.171878,0.490658,1.116382,0.529278,1.036188,0.533608,0.975155,0.521036,0.823547,0.531896,0.685580,0.581448,0.562002,0.673469,0.438709,0.807335,0.323752,0.979071,0.225967,1.188716,0.151226,1.247913,0.137085,1.349567,0.118697,1.439701,0.107620,1.472501,0.105958,1.493809,0.103729,1.606515,0.085795,1.639308,0.077688,1.779572,0.030129,1.799065,0.022358,
1.946206,-0.045458,1.964157,-0.054863,2.097494,-0.133570,2.119688,-0.148771,2.207801,-0.218271,2.237205,-0.246811,2.360899,-0.394353,2.390006,-0.440741,2.456807,-0.589123,2.474148,-0.660490,2.481906,-0.804801,2.479243,-0.849768,2.477732,-0.858466,2.473551,-0.877170,2.456196,-0.940403,2.433952,-0.980807,2.436320,-0.980568,2.485515,-0.979320,2.490587,-0.979256,2.652949,-0.979256,
2.739726,-0.999062,2.809315,-1.054558,2.847935,-1.134752,2.847935,-1.223760,2.809315,-1.303954,2.786478,-1.328152,2.648041,-1.452301,2.634066,-1.463738,2.463314,-1.591061,2.440681,-1.605675,2.233169,-1.720637,2.211816,-1.730864,1.992805,-1.820241,1.974853,-1.826588,1.889550,-1.852250,1.866815,-1.857664,1.727626,-1.882317,1.708200,-1.884784,1.531851,-1.898452,1.519174,-1.899031,
1.327751,-1.901690,1.315901,-1.901503,1.131491,-1.893130,1.115739,-1.891789,0.960429,-1.872362,0.941121,-1.868979,0.887084,-1.856754,0.859725,-1.848470,0.653373,-1.769490,0.626856,-1.757044,0.412620,-1.636608,0.393398,-1.624308,0.184793,-1.473390,0.168268,-1.460043,-0.021193,-1.289616,-0.037865,-1.272725,-0.194668,-1.093765,-0.213708,-1.068175,-0.324341,-0.891655,-0.335514,-0.871287,
-0.339963,-0.861925,-0.347186,-0.844692,-0.452771,-0.555591,0.483864,-0.555591,0.493332,-0.634615,0.539236,-0.742045,0.633763,-0.871846,0.782146,-0.998510,0.962847,-1.097785,1.172301,-1.170713,1.396206,-1.212930,1.619730,-1.221965,1.827705,-1.197186,2.010275,-1.138936,2.065066,-1.108995,2.044165,-1.104825,2.028852,-1.101137,1.931837,-1.073690,1.913378,-1.067483,1.694381,-0.981754,
1.664059,-0.966817,1.450585,-0.838177,1.430426,-0.824279,1.268219,-0.697128,1.089939,-0.566998,0.921579,-0.481217,0.767718,-0.435388,0.638486,-0.427725,0.587914,-0.437762,0.523148,-0.472551,0.495941,-0.507019,0.483864,-0.555591,-0.452771,-0.555591,-0.458816,-0.539038,-0.467742,-0.506121,-0.524981,-0.190551,-0.528183,-0.156709,-0.531109,0.159181,-0.528375,0.194041,-0.477068,0.500656,
-0.467595,0.536474,-0.362131,0.824219,-0.352731,0.845832,-0.324807,0.900910,-0.322918,0.904542,-0.226332,1.085755,-0.168038,1.153018,-0.086332,1.188326,-0.049837,1.191684,0.334292,1.191684,0.421069,1.171878,0.421069,1.171878,$1*%
%AMFreePoly2*
4,1,133,-1.339450,1.930975,-1.088207,1.908101,-1.063056,1.904185,-0.833045,1.853197,-0.814384,1.848102,-0.774660,1.835162,-0.754079,1.827176,-0.467740,1.697465,-0.436097,1.679497,-0.184700,1.504709,-0.157658,1.482129,0.055859,1.269244,0.077895,1.243155,0.250591,0.999154,0.267587,0.970285,0.396524,0.702151,0.408455,0.670875,0.490693,0.385586,0.497312,0.352124,0.529913,0.056663,
0.530673,0.021380,0.510696,-0.277272,0.504892,-0.313530,0.429398,-0.608393,0.419758,-0.636912,0.347292,-0.807686,0.340236,-0.822577,0.274686,-0.947350,0.260046,-0.971046,0.204023,-1.049006,0.156081,-1.096295,0.096039,-1.138204,0.023451,-1.169768,-0.054156,-1.186389,-0.089564,-1.190719,-0.162135,-1.193070,-0.168611,-1.193175,-0.328365,-1.193175,-0.415142,-1.173369,-0.484731,-1.117873,
-0.523351,-1.037679,-0.528362,-0.992097,-0.527253,-0.786231,-0.530401,-0.679300,-0.540156,-0.627600,-0.562149,-0.579122,-0.575328,-0.557631,-0.713887,-0.390712,-0.885363,-0.260653,-1.092102,-0.164248,-1.338729,-0.104410,-1.338914,-0.104381,-1.593567,-0.059680,-1.613365,-0.055158,-1.817513,0.002520,-1.847380,0.013594,-2.012135,0.090111,-2.047029,0.110860,-2.183503,0.212074,-2.212626,0.238483,
-2.331932,0.370256,-2.346460,0.388302,-2.405819,0.471469,-2.428577,0.513010,-2.464788,0.603018,-2.477703,0.652912,-2.491420,0.762893,-2.491804,0.809097,-2.481008,0.909172,-2.466525,0.965248,-2.460940,0.978530,-2.501413,0.977798,-2.505028,0.977765,-2.677210,0.977765,-2.763987,0.997571,-2.833576,1.053067,-2.872196,1.133261,-2.872196,1.138241,-2.071712,1.138241,-1.952028,1.105607,
-1.930771,1.098509,-1.791493,1.043152,-1.776047,1.036243,-1.628459,0.962580,-1.614371,0.954826,-1.469147,0.867109,-1.453819,0.856857,-1.321629,0.759337,-1.314946,0.754109,-1.314943,0.754113,-1.147601,0.622968,-1.019353,0.540187,-0.913882,0.492360,-0.807647,0.465899,-0.758852,0.460054,-0.620914,0.460536,-0.556051,0.479195,-0.525998,0.504538,-0.498274,0.558416,-0.486517,0.599024,
-0.486242,0.611760,-0.498966,0.657704,-0.506538,0.678107,-0.594278,0.837986,-0.720367,0.970005,-0.893609,1.083425,-1.116045,1.173774,-1.294573,1.218571,-1.431807,1.242648,-1.531813,1.251842,-1.626633,1.248899,-1.737544,1.235396,-1.912032,1.199514,-2.046050,1.152937,-2.071712,1.138241,-2.872196,1.138241,-2.872196,1.222269,-2.833576,1.302463,-2.823247,1.314415,-2.748061,1.394766,
-2.732779,1.409454,-2.561752,1.557220,-2.535002,1.576712,-2.319171,1.708114,-2.294734,1.720775,-2.050919,1.826502,-2.030745,1.833988,-1.883550,1.879766,-1.857181,1.886043,-1.638182,1.922709,-1.610280,1.925389,-1.362707,1.931733,-1.339450,1.930975,-1.339450,1.930975,$1*%
%AMFreePoly3*
4,1,41,0.022678,0.944824,0.075125,0.944504,0.131210,0.936123,0.267031,0.895504,0.318507,0.871718,0.437469,0.794611,0.480202,0.757333,0.572740,0.649936,0.603290,0.602165,0.661967,0.473113,0.677883,0.418686,0.697980,0.278353,0.700000,0.250000,0.700000,-0.250000,0.699985,-0.252439,0.699836,-0.264655,0.697079,-0.295398,0.673559,-0.435199,0.656318,-0.489221,0.594506,-0.616800,
0.562797,-0.663810,0.467662,-0.768914,0.424032,-0.805137,0.303222,-0.879314,0.251181,-0.901834,0.114408,-0.939123,0.058135,-0.946132,0.037663,-0.945757,0.000000,-0.950000,-0.500000,-0.950000,-0.586777,-0.930194,-0.656366,-0.874698,-0.694986,-0.794504,-0.700000,-0.750000,-0.700000,0.750000,-0.680194,0.836777,-0.624698,0.906366,-0.544504,0.944986,-0.500000,0.950000,0.000000,0.950000,
0.022678,0.944824,0.022678,0.944824,$1*%
%AMFreePoly4*
4,1,41,0.586777,0.930194,0.656366,0.874698,0.694986,0.794504,0.700000,0.750000,0.700000,-0.750000,0.680194,-0.836777,0.624698,-0.906366,0.544504,-0.944986,0.500000,-0.950000,0.000000,-0.950000,-0.023504,-0.944635,-0.083606,-0.943534,-0.139582,-0.934468,-0.274897,-0.892193,-0.326080,-0.867780,-0.444090,-0.789225,-0.486362,-0.751429,-0.577582,-0.642910,-0.607548,-0.594768,-0.664643,-0.465009,
-0.679893,-0.410393,-0.697476,-0.275933,-0.697084,-0.275882,-0.700000,-0.250000,-0.700000,0.250000,-0.697921,0.259109,-0.697582,0.286880,-0.675771,0.426957,-0.659192,0.481183,-0.598944,0.609508,-0.567811,0.656904,-0.473967,0.763162,-0.430783,0.799915,-0.310888,0.875563,-0.259125,0.898717,-0.122818,0.937674,-0.066635,0.945370,-0.042411,0.945222,0.000000,0.950000,0.500000,0.950000,
0.586777,0.930194,0.586777,0.930194,$1*%
%AMFreePoly5*
4,1,22,0.106406,0.569345,0.141421,0.541421,0.741421,-0.058579,0.788777,-0.133944,0.800000,-0.200000,0.800000,-0.400000,0.780194,-0.486777,0.724698,-0.556366,0.644504,-0.594986,0.600000,-0.600000,-0.600000,-0.600000,-0.686777,-0.580194,-0.756366,-0.524698,-0.794986,-0.444504,-0.800000,-0.400000,-0.800000,-0.200000,-0.780194,-0.113223,-0.741421,-0.058579,-0.141421,0.541421,-0.066056,0.588777,
0.022393,0.598742,0.106406,0.569345,0.106406,0.569345,$1*%
%AMFreePoly6*
4,1,26,0.686777,0.430194,0.756366,0.374698,0.794986,0.294504,0.800000,0.250000,0.800000,-1.000000,0.780194,-1.086777,0.724698,-1.156366,0.644504,-1.194986,0.555496,-1.194986,0.475302,-1.156366,0.458579,-1.141421,0.000000,-0.682842,-0.458579,-1.141421,-0.533944,-1.188777,-0.622393,-1.198742,-0.706406,-1.169345,-0.769345,-1.106406,-0.798742,-1.022393,-0.800000,-1.000000,-0.800000,0.250000,
-0.780194,0.336777,-0.724698,0.406366,-0.644504,0.444986,-0.600000,0.450000,0.600000,0.450000,0.686777,0.430194,0.686777,0.430194,$1*%
G04 Aperture macros list end*
%ADD10C,0.100000*%
%ADD11RoundRect,0.200000X-0.700000X0.600000X-0.700000X-0.600000X0.700000X-0.600000X0.700000X0.600000X0*%
%ADD12C,3.400000*%
%ADD13C,4.400000*%
%ADD14C,2.100000*%
%ADD15RoundRect,0.200000X-1.244600X-1.244600X1.244600X-1.244600X1.244600X1.244600X-1.244600X1.244600X0*%
%ADD16FreePoly0,0.000000*%
%ADD17RoundRect,0.200000X-1.524317X-0.880065X0.880065X-1.524317X1.524317X0.880065X-0.880065X1.524317X0*%
%ADD18FreePoly0,345.000000*%
%ADD19C,3.100000*%
%ADD20RoundRect,0.200000X0.700000X-0.600000X0.700000X0.600000X-0.700000X0.600000X-0.700000X-0.600000X0*%
%ADD21C,2.400000*%
%ADD22RoundRect,0.200000X0.551815X-1.804300X1.380036X1.286662X-0.551815X1.804300X-1.380036X-1.286662X0*%
%ADD23RoundRect,0.450000X-0.625000X0.375000X-0.625000X-0.375000X0.625000X-0.375000X0.625000X0.375000X0*%
%ADD24C,3.600000*%
%ADD25FreePoly1,0.000000*%
%ADD26FreePoly2,0.000000*%
%ADD27RoundRect,0.200000X-0.500000X0.750000X-0.500000X-0.750000X0.500000X-0.750000X0.500000X0.750000X0*%
%ADD28C,4.800000*%
%ADD29C,1.797000*%
%ADD30O,6.400000X2.940000*%
%ADD31RoundRect,0.200000X-0.750000X-0.500000X0.750000X-0.500000X0.750000X0.500000X-0.750000X0.500000X0*%
%ADD32C,1.600000*%
%ADD33O,2.900000X2.100000*%
%ADD34FreePoly3,270.000000*%
%ADD35FreePoly4,270.000000*%
%ADD36FreePoly4,90.000000*%
%ADD37FreePoly3,90.000000*%
%ADD38RoundRect,0.200000X-0.150000X-0.550000X0.150000X-0.550000X0.150000X0.550000X-0.150000X0.550000X0*%
%ADD39RoundRect,0.200000X-1.150000X-1.550000X1.150000X-1.550000X1.150000X1.550000X-1.150000X1.550000X0*%
%ADD40C,2.000000*%
%ADD41FreePoly5,90.000000*%
%ADD42FreePoly5,270.000000*%
%ADD43RoundRect,0.200000X-0.800000X0.800000X-0.800000X-0.800000X0.800000X-0.800000X0.800000X0.800000X0*%
%ADD44FreePoly6,90.000000*%
%ADD45FreePoly6,270.000000*%
%ADD46RoundRect,0.200000X0.850000X0.500000X-0.850000X0.500000X-0.850000X-0.500000X0.850000X-0.500000X0*%
%ADD47C,1.100000*%
%ADD48C,1.200000*%
G04 APERTURE END LIST*
G36*
X199645988Y-103233113D02*
G01*
X198629988Y-103233113D01*
X198629988Y-102217113D01*
X199645988Y-102217113D01*
X199645988Y-103233113D01*
G37*
D10*
X199645988Y-103233113D02*
X198629988Y-103233113D01*
X198629988Y-102217113D01*
X199645988Y-102217113D01*
X199645988Y-103233113D01*
G36*
X199645988Y-80373113D02*
G01*
X198629988Y-80373113D01*
X198629988Y-79357113D01*
X199645988Y-79357113D01*
X199645988Y-80373113D01*
G37*
X199645988Y-80373113D02*
X198629988Y-80373113D01*
X198629988Y-79357113D01*
X199645988Y-79357113D01*
X199645988Y-80373113D01*
G36*
X199645988Y-77833113D02*
G01*
X198629988Y-77833113D01*
X198629988Y-76817113D01*
X199645988Y-76817113D01*
X199645988Y-77833113D01*
G37*
X199645988Y-77833113D02*
X198629988Y-77833113D01*
X198629988Y-76817113D01*
X199645988Y-76817113D01*
X199645988Y-77833113D01*
G36*
X199645988Y-82913113D02*
G01*
X198629988Y-82913113D01*
X198629988Y-81897113D01*
X199645988Y-81897113D01*
X199645988Y-82913113D01*
G37*
X199645988Y-82913113D02*
X198629988Y-82913113D01*
X198629988Y-81897113D01*
X199645988Y-81897113D01*
X199645988Y-82913113D01*
G36*
X210821988Y-98153113D02*
G01*
X209805988Y-98153113D01*
X209805988Y-97137113D01*
X210821988Y-97137113D01*
X210821988Y-98153113D01*
G37*
X210821988Y-98153113D02*
X209805988Y-98153113D01*
X209805988Y-97137113D01*
X210821988Y-97137113D01*
X210821988Y-98153113D01*
G36*
X199645988Y-75293113D02*
G01*
X198629988Y-75293113D01*
X198629988Y-74277113D01*
X199645988Y-74277113D01*
X199645988Y-75293113D01*
G37*
X199645988Y-75293113D02*
X198629988Y-75293113D01*
X198629988Y-74277113D01*
X199645988Y-74277113D01*
X199645988Y-75293113D01*
G36*
X210821988Y-85453113D02*
G01*
X209805988Y-85453113D01*
X209805988Y-84437113D01*
X210821988Y-84437113D01*
X210821988Y-85453113D01*
G37*
X210821988Y-85453113D02*
X209805988Y-85453113D01*
X209805988Y-84437113D01*
X210821988Y-84437113D01*
X210821988Y-85453113D01*
G36*
X199645988Y-98153113D02*
G01*
X198629988Y-98153113D01*
X198629988Y-97137113D01*
X199645988Y-97137113D01*
X199645988Y-98153113D01*
G37*
X199645988Y-98153113D02*
X198629988Y-98153113D01*
X198629988Y-97137113D01*
X199645988Y-97137113D01*
X199645988Y-98153113D01*
G36*
X210821988Y-93073113D02*
G01*
X209805988Y-93073113D01*
X209805988Y-92057113D01*
X210821988Y-92057113D01*
X210821988Y-93073113D01*
G37*
X210821988Y-93073113D02*
X209805988Y-93073113D01*
X209805988Y-92057113D01*
X210821988Y-92057113D01*
X210821988Y-93073113D01*
G36*
X210821988Y-100693113D02*
G01*
X209805988Y-100693113D01*
X209805988Y-99677113D01*
X210821988Y-99677113D01*
X210821988Y-100693113D01*
G37*
X210821988Y-100693113D02*
X209805988Y-100693113D01*
X209805988Y-99677113D01*
X210821988Y-99677113D01*
X210821988Y-100693113D01*
G36*
X199645988Y-95613113D02*
G01*
X198629988Y-95613113D01*
X198629988Y-94597113D01*
X199645988Y-94597113D01*
X199645988Y-95613113D01*
G37*
X199645988Y-95613113D02*
X198629988Y-95613113D01*
X198629988Y-94597113D01*
X199645988Y-94597113D01*
X199645988Y-95613113D01*
G36*
X210821988Y-80373113D02*
G01*
X209805988Y-80373113D01*
X209805988Y-79357113D01*
X210821988Y-79357113D01*
X210821988Y-80373113D01*
G37*
X210821988Y-80373113D02*
X209805988Y-80373113D01*
X209805988Y-79357113D01*
X210821988Y-79357113D01*
X210821988Y-80373113D01*
G36*
X210821988Y-82913113D02*
G01*
X209805988Y-82913113D01*
X209805988Y-81897113D01*
X210821988Y-81897113D01*
X210821988Y-82913113D01*
G37*
X210821988Y-82913113D02*
X209805988Y-82913113D01*
X209805988Y-81897113D01*
X210821988Y-81897113D01*
X210821988Y-82913113D01*
G36*
X210821988Y-87993113D02*
G01*
X209805988Y-87993113D01*
X209805988Y-86977113D01*
X210821988Y-86977113D01*
X210821988Y-87993113D01*
G37*
X210821988Y-87993113D02*
X209805988Y-87993113D01*
X209805988Y-86977113D01*
X210821988Y-86977113D01*
X210821988Y-87993113D01*
G36*
X210821988Y-75293113D02*
G01*
X209805988Y-75293113D01*
X209805988Y-74277113D01*
X210821988Y-74277113D01*
X210821988Y-75293113D01*
G37*
X210821988Y-75293113D02*
X209805988Y-75293113D01*
X209805988Y-74277113D01*
X210821988Y-74277113D01*
X210821988Y-75293113D01*
G36*
X199645988Y-90533113D02*
G01*
X198629988Y-90533113D01*
X198629988Y-89517113D01*
X199645988Y-89517113D01*
X199645988Y-90533113D01*
G37*
X199645988Y-90533113D02*
X198629988Y-90533113D01*
X198629988Y-89517113D01*
X199645988Y-89517113D01*
X199645988Y-90533113D01*
G36*
X210821988Y-77833113D02*
G01*
X209805988Y-77833113D01*
X209805988Y-76817113D01*
X210821988Y-76817113D01*
X210821988Y-77833113D01*
G37*
X210821988Y-77833113D02*
X209805988Y-77833113D01*
X209805988Y-76817113D01*
X210821988Y-76817113D01*
X210821988Y-77833113D01*
G36*
X199645988Y-87993113D02*
G01*
X198629988Y-87993113D01*
X198629988Y-86977113D01*
X199645988Y-86977113D01*
X199645988Y-87993113D01*
G37*
X199645988Y-87993113D02*
X198629988Y-87993113D01*
X198629988Y-86977113D01*
X199645988Y-86977113D01*
X199645988Y-87993113D01*
G36*
X199645988Y-100693113D02*
G01*
X198629988Y-100693113D01*
X198629988Y-99677113D01*
X199645988Y-99677113D01*
X199645988Y-100693113D01*
G37*
X199645988Y-100693113D02*
X198629988Y-100693113D01*
X198629988Y-99677113D01*
X199645988Y-99677113D01*
X199645988Y-100693113D01*
G36*
X210821988Y-95613113D02*
G01*
X209805988Y-95613113D01*
X209805988Y-94597113D01*
X210821988Y-94597113D01*
X210821988Y-95613113D01*
G37*
X210821988Y-95613113D02*
X209805988Y-95613113D01*
X209805988Y-94597113D01*
X210821988Y-94597113D01*
X210821988Y-95613113D01*
G36*
X199645988Y-85453113D02*
G01*
X198629988Y-85453113D01*
X198629988Y-84437113D01*
X199645988Y-84437113D01*
X199645988Y-85453113D01*
G37*
X199645988Y-85453113D02*
X198629988Y-85453113D01*
X198629988Y-84437113D01*
X199645988Y-84437113D01*
X199645988Y-85453113D01*
G36*
X210821988Y-90533113D02*
G01*
X209805988Y-90533113D01*
X209805988Y-89517113D01*
X210821988Y-89517113D01*
X210821988Y-90533113D01*
G37*
X210821988Y-90533113D02*
X209805988Y-90533113D01*
X209805988Y-89517113D01*
X210821988Y-89517113D01*
X210821988Y-90533113D01*
G36*
X210821988Y-103233113D02*
G01*
X209805988Y-103233113D01*
X209805988Y-102217113D01*
X210821988Y-102217113D01*
X210821988Y-103233113D01*
G37*
X210821988Y-103233113D02*
X209805988Y-103233113D01*
X209805988Y-102217113D01*
X210821988Y-102217113D01*
X210821988Y-103233113D01*
G36*
X199645988Y-93073113D02*
G01*
X198629988Y-93073113D01*
X198629988Y-92057113D01*
X199645988Y-92057113D01*
X199645988Y-93073113D01*
G37*
X199645988Y-93073113D02*
X198629988Y-93073113D01*
X198629988Y-92057113D01*
X199645988Y-92057113D01*
X199645988Y-93073113D01*
D11*
X185321473Y-122580634D03*
X185321473Y-125980634D03*
D12*
X124573328Y-103706994D03*
D13*
X127113328Y-108786994D03*
D12*
X130923328Y-106246994D03*
X123303328Y-106246993D03*
D14*
X122033328Y-108786994D03*
X132193328Y-108786994D03*
D12*
X129653328Y-103706994D03*
D15*
X120115628Y-106297794D03*
D16*
X132723928Y-103687594D03*
D12*
X124573328Y-84707394D03*
D13*
X127113328Y-89787394D03*
D12*
X130923328Y-87247394D03*
X123303328Y-87247393D03*
D14*
X122033328Y-89787394D03*
X132193328Y-89787394D03*
D12*
X129653328Y-84707394D03*
D15*
X120115628Y-87298194D03*
D16*
X132723928Y-84687994D03*
D12*
X210785537Y-135548407D03*
D13*
X211924188Y-141112711D03*
D12*
X216261766Y-139645360D03*
X208901411Y-137673158D03*
D14*
X207017285Y-139797910D03*
X216831091Y-142427512D03*
D12*
X215692440Y-136863208D03*
D17*
X205809181Y-136897190D03*
D18*
X218663433Y-137639199D03*
D12*
X105573128Y-67706394D03*
D13*
X108113128Y-72786394D03*
D12*
X111923128Y-70246394D03*
X104303128Y-70246393D03*
D14*
X103033128Y-72786394D03*
X113193128Y-72786394D03*
D12*
X110653128Y-67706394D03*
D15*
X101115428Y-70297194D03*
D16*
X113723728Y-67686994D03*
D12*
X105573128Y-86706794D03*
D13*
X108113128Y-91786794D03*
D12*
X111923128Y-89246794D03*
X104303128Y-89246793D03*
D14*
X103033128Y-91786794D03*
X113193128Y-91786794D03*
D12*
X110653128Y-86706794D03*
D15*
X101115428Y-89297594D03*
D16*
X113723728Y-86687394D03*
D12*
X191633937Y-132957609D03*
D13*
X192772588Y-138521913D03*
D12*
X197110166Y-137054562D03*
X189749811Y-135082360D03*
D14*
X187865685Y-137207112D03*
X197679491Y-139836714D03*
D12*
X196540840Y-134272410D03*
D17*
X186657581Y-134306392D03*
D18*
X199511833Y-135048401D03*
D12*
X143572728Y-99897194D03*
D13*
X146112728Y-104977194D03*
D12*
X149922728Y-102437194D03*
X142302728Y-102437193D03*
D14*
X141032728Y-104977194D03*
X151192728Y-104977194D03*
D12*
X148652728Y-99897194D03*
D15*
X139115028Y-102487994D03*
D16*
X151723328Y-99877794D03*
D12*
X162572928Y-65707234D03*
D13*
X165112928Y-70787234D03*
D12*
X168922928Y-68247234D03*
X161302928Y-68247233D03*
D14*
X160032928Y-70787234D03*
X170192928Y-70787234D03*
D12*
X167652928Y-65707234D03*
D15*
X158115228Y-68298034D03*
D16*
X170723528Y-65687834D03*
D12*
X124573328Y-65707794D03*
D13*
X127113328Y-70787794D03*
D12*
X130923328Y-68247794D03*
X123303328Y-68247793D03*
D14*
X122033328Y-70787794D03*
X132193328Y-70787794D03*
D12*
X129653328Y-65707794D03*
D15*
X120115628Y-68298594D03*
D16*
X132723928Y-65688394D03*
D12*
X181572626Y-68707794D03*
D13*
X184112626Y-73787794D03*
D12*
X187922626Y-71247794D03*
X180302626Y-71247793D03*
D14*
X179032626Y-73787794D03*
X189192626Y-73787794D03*
D12*
X186652626Y-68707794D03*
D15*
X177114926Y-71298594D03*
D16*
X189723226Y-68688394D03*
D12*
X162572928Y-103707594D03*
D13*
X165112928Y-108787594D03*
D12*
X168922928Y-106247594D03*
X161302928Y-106247593D03*
D14*
X160032928Y-108787594D03*
X170192928Y-108787594D03*
D12*
X167652928Y-103707594D03*
D15*
X158115228Y-106298394D03*
D16*
X170723528Y-103688194D03*
D12*
X173434111Y-126811215D03*
D13*
X174572762Y-132375519D03*
D12*
X178910340Y-130908168D03*
X171549985Y-128935966D03*
D14*
X169665859Y-131060718D03*
X179479665Y-133690320D03*
D12*
X178341014Y-128126016D03*
D17*
X168457755Y-128159998D03*
D18*
X181312007Y-128902007D03*
D12*
X181572626Y-106707594D03*
D13*
X184112626Y-111787594D03*
D12*
X187922626Y-109247594D03*
X180302626Y-109247593D03*
D14*
X179032626Y-111787594D03*
X189192626Y-111787594D03*
D12*
X186652626Y-106707594D03*
D15*
X177114926Y-109298394D03*
D16*
X189723226Y-106688194D03*
D12*
X162572928Y-84707194D03*
D13*
X165112928Y-89787194D03*
D12*
X168922928Y-87247194D03*
X161302928Y-87247193D03*
D14*
X160032928Y-89787194D03*
X170192928Y-89787194D03*
D12*
X167652928Y-84707194D03*
D15*
X158115228Y-87297994D03*
D16*
X170723528Y-84687794D03*
D12*
X181572626Y-87707594D03*
D13*
X184112626Y-92787594D03*
D12*
X187922626Y-90247594D03*
X180302626Y-90247593D03*
D14*
X179032626Y-92787594D03*
X189192626Y-92787594D03*
D12*
X186652626Y-87707594D03*
D15*
X177114926Y-90298394D03*
D16*
X189723226Y-87688194D03*
D12*
X143572728Y-61897034D03*
D13*
X146112728Y-66977034D03*
D12*
X149922728Y-64437034D03*
X142302728Y-64437033D03*
D14*
X141032728Y-66977034D03*
X151192728Y-66977034D03*
D12*
X148652728Y-61897034D03*
D15*
X139115028Y-64487834D03*
D16*
X151723328Y-61877634D03*
D12*
X143572728Y-80896994D03*
D13*
X146112728Y-85976994D03*
D12*
X149922728Y-83436994D03*
X142302728Y-83436993D03*
D14*
X141032728Y-85976994D03*
X151192728Y-85976994D03*
D12*
X148652728Y-80896994D03*
D15*
X139115028Y-83487794D03*
D16*
X151723328Y-80877594D03*
D12*
X105573128Y-105707194D03*
D13*
X108113128Y-110787194D03*
D12*
X111923128Y-108247194D03*
X104303128Y-108247193D03*
D14*
X103033128Y-110787194D03*
X113193128Y-110787194D03*
D12*
X110653128Y-105707194D03*
D15*
X101115428Y-108297994D03*
D16*
X113723728Y-105687794D03*
D19*
X153158954Y-118280325D03*
D20*
X172909928Y-112379594D03*
X172909928Y-108979594D03*
D21*
X211321107Y-133704185D03*
X216150736Y-134998280D03*
D22*
X217333373Y-142562100D03*
X206515003Y-139663326D03*
D21*
X209983045Y-148357157D03*
X212397860Y-149004204D03*
X207568231Y-147710109D03*
D23*
X205402260Y-82463266D03*
X205402260Y-85263266D03*
D24*
X176314155Y-62599150D03*
D20*
X172909928Y-93379194D03*
X172909928Y-89979194D03*
D25*
X129019940Y-129842678D03*
D26*
X131867919Y-129804450D03*
D27*
X198143762Y-112873833D03*
X194943762Y-112873833D03*
X194943762Y-107973833D03*
X198143762Y-107973833D03*
D20*
X134910328Y-112378994D03*
X134910328Y-108978994D03*
X172909928Y-74379234D03*
X172909928Y-70979234D03*
D24*
X172923200Y-120037600D03*
D28*
X196988988Y-121453113D03*
D20*
X191909626Y-96379594D03*
X191909626Y-92979594D03*
X153909728Y-70569034D03*
X153909728Y-67169034D03*
X191909626Y-111979594D03*
X191909626Y-115379594D03*
D24*
X119265755Y-119974950D03*
D29*
X200880639Y-107264021D03*
X203420639Y-107264021D03*
X205960639Y-107264021D03*
X208500639Y-107264021D03*
D28*
X211148762Y-125212313D03*
D23*
X203077160Y-82463266D03*
X203077160Y-85263266D03*
D25*
X144678314Y-129842678D03*
D26*
X147526293Y-129804450D03*
D20*
X191909755Y-77380150D03*
X191909755Y-73980150D03*
D24*
X202449988Y-150053513D03*
D19*
X136662954Y-135369933D03*
D20*
X151014988Y-132322150D03*
X151014988Y-128922150D03*
D30*
X159812699Y-117904356D03*
D19*
X155562754Y-135370533D03*
D20*
X135393988Y-132322150D03*
X135393988Y-128922150D03*
X115910128Y-114379194D03*
X115910128Y-110979194D03*
D31*
X125384562Y-97092319D03*
X125384562Y-100292319D03*
X120484562Y-100292319D03*
X120484562Y-97092319D03*
D20*
X134910328Y-93379394D03*
X134910328Y-89979394D03*
X115910128Y-95378794D03*
X115910128Y-91978794D03*
D11*
X187980142Y-122580634D03*
X187980142Y-125980634D03*
D20*
X134910328Y-74379794D03*
X134910328Y-70979794D03*
X153909728Y-108569194D03*
X153909728Y-105169194D03*
X115910128Y-76378394D03*
X115910128Y-72978394D03*
D31*
X170157362Y-96282319D03*
X170157362Y-99482319D03*
X175057362Y-99482319D03*
X175057362Y-96282319D03*
D30*
X132412503Y-117904356D03*
D32*
X211013700Y-116180634D03*
X211013700Y-117930634D03*
X204013700Y-117930634D03*
X204013700Y-116180634D03*
D33*
X202213700Y-120030634D03*
X202213700Y-114080634D03*
X206213700Y-120030634D03*
X206213700Y-114080634D03*
X209213700Y-114080634D03*
X209213700Y-120030634D03*
X200713700Y-118280634D03*
X200713700Y-115830634D03*
D11*
X190638812Y-122580634D03*
X190638812Y-125980634D03*
D24*
X159164999Y-129833913D03*
D20*
X153909728Y-89568994D03*
X153909728Y-86168994D03*
D19*
X139063443Y-118279815D03*
D31*
X150220962Y-92291719D03*
X150220962Y-95491719D03*
X145320962Y-95491719D03*
X145320962Y-92291719D03*
D24*
X122262188Y-129833913D03*
X115962988Y-61657313D03*
D34*
X203420639Y-111049948D03*
D35*
X203420639Y-109749948D03*
D36*
X203017243Y-89182032D03*
D37*
X203017243Y-87882032D03*
D34*
X200880639Y-111049948D03*
D35*
X200880639Y-109749948D03*
D38*
X158812699Y-126570159D03*
X159312699Y-126570159D03*
X159812699Y-126570159D03*
X160312699Y-126570159D03*
X160812699Y-126570159D03*
D39*
X162482699Y-124870159D03*
X157142699Y-124870159D03*
D40*
X212345988Y-97645113D03*
D41*
X210567988Y-82405113D03*
D40*
X197105988Y-92565113D03*
D41*
X210567988Y-90025113D03*
D42*
X198883988Y-95105113D03*
X198883988Y-92565113D03*
D40*
X197105988Y-90025113D03*
X212345988Y-100185113D03*
D41*
X210567988Y-102725113D03*
X210567988Y-79865113D03*
D40*
X212345988Y-79865113D03*
X212345988Y-95105113D03*
D42*
X198883988Y-102725113D03*
D40*
X197105988Y-95105113D03*
X212345988Y-84945113D03*
X212345988Y-77325113D03*
D41*
X210567988Y-95105113D03*
X210567988Y-92565113D03*
D42*
X198883988Y-79865113D03*
D40*
X197105988Y-82405113D03*
D42*
X198883988Y-87485113D03*
D40*
X197105988Y-77325113D03*
X197105988Y-84945113D03*
X197105988Y-79865113D03*
D42*
X198883988Y-97645113D03*
D40*
X212345988Y-92565113D03*
X212345988Y-82405113D03*
X197105988Y-74785113D03*
X212345988Y-74785113D03*
D41*
X210567988Y-100185113D03*
D40*
X197105988Y-100185113D03*
X197105988Y-87485113D03*
D42*
X198883988Y-74785113D03*
D40*
X197105988Y-102725113D03*
D42*
X198883988Y-84945113D03*
X198883988Y-90025113D03*
D43*
X212345988Y-74785113D03*
D42*
X198883988Y-77325113D03*
X198883988Y-100185113D03*
D41*
X210567988Y-74785113D03*
D40*
X212345988Y-87485113D03*
X212345988Y-90025113D03*
D41*
X210567988Y-77325113D03*
X210567988Y-87485113D03*
D42*
X198883988Y-82405113D03*
D41*
X210567988Y-84945113D03*
D40*
X197105988Y-97645113D03*
D41*
X210567988Y-97645113D03*
D40*
X212345988Y-102725113D03*
D44*
X209551988Y-74785113D03*
X209551988Y-77325113D03*
X209551988Y-79865113D03*
X209551988Y-82405113D03*
X209551988Y-84945113D03*
X209551988Y-87485113D03*
X209551988Y-90025113D03*
X209551988Y-92565113D03*
X209551988Y-95105113D03*
X209551988Y-97645113D03*
X209551988Y-100185113D03*
X209551988Y-102725113D03*
D45*
X199899988Y-102725113D03*
X199899988Y-100185113D03*
X199899988Y-97645113D03*
X199899988Y-95105113D03*
X199899988Y-92565113D03*
X199899988Y-90025113D03*
X199899988Y-87485113D03*
X199899988Y-84945113D03*
X199899988Y-82405113D03*
X199899988Y-79865113D03*
X199899988Y-77325113D03*
X199899988Y-74785113D03*
D46*
X189025762Y-58505190D03*
X182725762Y-58505190D03*
X182725762Y-62305190D03*
X189025762Y-62305190D03*
D34*
X205960639Y-111049948D03*
D35*
X205960639Y-109749948D03*
D34*
X208500639Y-111049948D03*
D35*
X208500639Y-109749948D03*
D47*
X126377755Y-115558150D03*
X201307755Y-90970950D03*
X201256955Y-98590950D03*
X195465755Y-98274213D03*
X201714155Y-100216550D03*
X190625562Y-112510150D03*
X201766055Y-102756550D03*
X194853430Y-105197675D03*
X113723728Y-105687794D03*
X132723928Y-103687594D03*
X151723328Y-99877794D03*
X170723528Y-103688194D03*
X189723226Y-106688194D03*
X181312007Y-128902007D03*
D48*
X194943562Y-110882119D03*
X175131562Y-86396519D03*
X208268328Y-78611434D03*
X133336588Y-128026750D03*
X145497073Y-73631629D03*
X193267162Y-83251719D03*
X164666762Y-99098719D03*
X200582362Y-78713034D03*
X161544000Y-127823550D03*
X189002512Y-58506905D03*
X182703312Y-58506905D03*
X184275562Y-100620519D03*
X196379388Y-71592913D03*
X162101362Y-91732719D03*
X187755362Y-94473719D03*
X217359788Y-132730713D03*
X172961355Y-78318950D03*
D47*
X101115428Y-70297194D03*
X208457861Y-93585756D03*
X101115428Y-108297994D03*
X102436228Y-86681394D03*
X101115428Y-89297594D03*
X120115628Y-106297794D03*
X120115628Y-68298594D03*
X120699362Y-113500519D03*
X142278155Y-113523350D03*
X121436428Y-84681994D03*
X207860955Y-95187350D03*
X120115628Y-87298194D03*
X139115028Y-102487994D03*
X168457755Y-128159998D03*
X139115028Y-64487834D03*
X140435828Y-80871594D03*
X139115028Y-83487794D03*
X155689355Y-107986150D03*
X158330955Y-113054094D03*
X169811755Y-113054094D03*
X208013355Y-97676550D03*
X158115228Y-68298034D03*
X158115228Y-87297994D03*
X158788155Y-111338950D03*
X186619377Y-134270024D03*
X158115228Y-106298394D03*
X208267355Y-101130950D03*
X186193988Y-114615247D03*
X159448555Y-93203350D03*
X201561755Y-105194950D03*
X199885355Y-83706550D03*
X206119562Y-112461919D03*
X201256955Y-74867350D03*
X198677362Y-109845719D03*
X200988762Y-80991319D03*
X202425355Y-80963350D03*
X200302962Y-86299919D03*
X206723611Y-90900406D03*
X205422555Y-87569919D03*
X204660555Y-111787419D03*
X201510955Y-77392234D03*
X201663262Y-87457534D03*
X208622955Y-88786550D03*
X207860955Y-85012234D03*
X208267355Y-75556034D03*
D48*
X200880639Y-109749948D03*
X203420639Y-109751629D03*
X205960639Y-109751629D03*
X208500639Y-109751629D03*
D47*
X170723528Y-84687794D03*
X151723328Y-80877594D03*
X132723928Y-84687994D03*
X113723728Y-86687394D03*
X189723226Y-68688394D03*
X170723528Y-65687834D03*
X151723328Y-61870316D03*
X132723928Y-65688394D03*
X189723226Y-87688194D03*
X113723728Y-67686994D03*
X195807162Y-109921919D03*
X172464562Y-96977000D03*
X218663433Y-137639199D03*
D48*
X176909562Y-71364519D03*
D47*
X205809181Y-136897190D03*
X177114926Y-90298394D03*
X177114926Y-109298394D03*
X207251355Y-101892950D03*
X178425848Y-96530057D03*
X199473629Y-135012033D03*
X147902762Y-92951919D03*
X172464562Y-99059800D03*
X176771355Y-104636150D03*
X135775755Y-120647856D03*
X158280155Y-120645019D03*
X160922909Y-121601704D03*
X174396400Y-114757200D03*
X201418143Y-96203350D03*
X191858955Y-104636150D03*
X208460775Y-92164615D03*
X172415200Y-114757200D03*
X190344527Y-103287150D03*
X176872955Y-103287150D03*
X137387162Y-121996856D03*
X200342555Y-91329119D03*
X123010762Y-97802713D03*
X147801162Y-94679119D03*
X122959962Y-100343113D03*
X202577599Y-105245594D03*
X203042643Y-89217832D03*
D48*
X147851962Y-91681919D03*
X131710988Y-122946750D03*
X197305762Y-110398433D03*
X160805962Y-122743956D03*
X154151162Y-122758056D03*
X172464562Y-95656200D03*
X122959962Y-96634313D03*
X204697162Y-108829719D03*
D47*
X177519786Y-103961650D03*
X201418143Y-94396934D03*
X136537755Y-121322356D03*
X191005612Y-103961650D03*
X157264155Y-121319519D03*
X173380400Y-114780807D03*
X159545587Y-122025138D03*
X207811128Y-79932234D03*
D48*
X189050762Y-62330590D03*
X195613109Y-78630111D03*
X182700762Y-62330590D03*
M02*
