M48
; DRILL file {KiCad (6.0.6)} date Wed Jul 27 15:36:19 2022
; FORMAT={-:-/ absolute / inch / decimal}
; #@! TF.CreationDate,2022-07-27T15:36:19+08:00
; #@! TF.GenerationSoftware,Kicad,Pcbnew,(6.0.6)
; #@! TF.FileFunction,Plated,1,2,PTH
FMAT,2
INCH
; #@! TA.AperFunction,Plated,PTH,ViaDrill
T1C0.0118
; #@! TA.AperFunction,Plated,PTH,ComponentDrill
T2C0.0118
; #@! TA.AperFunction,Plated,PTH,ViaDrill
T3C0.0157
; #@! TA.AperFunction,Plated,PTH,ComponentDrill
T4C0.0157
; #@! TA.AperFunction,Plated,PTH,ComponentDrill
T5C0.0320
; #@! TA.AperFunction,Plated,PTH,ComponentDrill
T6C0.0394
; #@! TA.AperFunction,Plated,PTH,ComponentDrill
T7C0.0433
; #@! TA.AperFunction,Plated,PTH,ComponentDrill
T8C0.0866
%
G90
G05
T1
X3.9809Y-2.7676
X3.9809Y-3.5157
X3.9809Y-4.2637
X4.0329Y-3.4127
X4.4773Y-2.6648
X4.4773Y-3.4129
X4.4773Y-4.1609
X4.729Y-2.6889
X4.729Y-3.4369
X4.729Y-4.185
X4.7519Y-4.4685
X4.781Y-3.3339
X4.8409Y-3.9505
X4.8429Y-3.8505
X4.988Y-4.5495
X5.2254Y-2.5862
X5.2254Y-3.3342
X5.2254Y-4.0822
X5.366Y-4.7768
X5.402Y-4.7502
X5.438Y-4.7237
X5.477Y-2.5389
X5.477Y-3.2869
X5.477Y-4.035
X5.529Y-3.1839
X5.6015Y-4.4694
X5.8189Y-3.7275
X5.8229Y-3.6595
X5.9734Y-2.4358
X5.9734Y-3.1842
X5.9734Y-3.9322
X6.102Y-4.7237
X6.128Y-4.7502
X6.13Y-4.236
X6.216Y-4.7722
X6.225Y-2.6889
X6.225Y-3.4369
X6.225Y-4.185
X6.256Y-4.7722
X6.2775Y-3.6694
X6.3225Y-4.4509
X6.326Y-4.3834
X6.6322Y-5.0457
X6.6855Y-4.4509
X6.7214Y-2.5861
X6.7214Y-3.3342
X6.7214Y-4.0822
X6.788Y-4.518
X6.7899Y-3.818
X6.7899Y-3.9
X6.826Y-4.5189
X6.866Y-4.518
X6.9595Y-4.1195
X6.9635Y-4.0664
X6.973Y-3.5551
X6.973Y-4.3031
X6.989Y-4.093
X7.0246Y-3.8004
X7.1383Y-5.0749
X7.1929Y-2.454
X7.329Y-4.5159
X7.3472Y-5.2862
X7.434Y-4.5159
X7.4429Y-2.454
X7.4694Y-2.7043
X7.4694Y-3.4523
X7.4694Y-4.2003
X7.4939Y-4.0664
X7.5199Y-4.093
X7.5535Y-4.1195
X7.6619Y-4.1321
X7.6955Y-3.8691
X7.7089Y-4.3276
X7.8219Y-4.3246
X7.8533Y-5.3154
X7.8695Y-3.2955
X7.8859Y-3.3976
X7.8875Y-3.5956
X7.9129Y-3.1886
X7.916Y-3.7715
X7.916Y-3.8727
X7.9238Y-3.9462
X7.9255Y-3.5815
X7.9268Y-4.0448
X7.9298Y-3.7164
X7.935Y-2.946
X7.9395Y-3.4432
X7.94Y-3.046
X7.9695Y-3.1875
X7.9755Y-4.1435
X7.9938Y-3.5125
X8.0098Y-4.1085
X8.0575Y-4.4011
X8.0875Y-3.4476
X8.1027Y-5.3897
X8.1149Y-4.4276
X8.1387Y-3.5788
X8.1595Y-4.0115
X8.1815Y-3.1469
X8.1835Y-3.3469
X8.184Y-3.743
X8.1895Y-3.8455
X8.1995Y-2.9746
X8.1995Y-3.9815
X8.207Y-3.6845
X8.2071Y-3.6285
X8.2135Y-3.4955
X8.6088Y-5.4189
T2
X5.0795Y-5.1212
X5.1917Y-5.1197
X5.696Y-5.1212
X5.8081Y-5.1197
T3
X4.8409Y-3.8045
X5.232Y-4.8043
X5.314Y-4.9903
X5.7282Y-2.8989
X5.8209Y-3.6095
X6.05Y-4.8063
X6.184Y-4.9903
X6.3819Y-3.6115
X6.42Y-4.8063
X6.4829Y-3.9015
X6.7899Y-3.766
X6.8095Y-3.0834
X6.8949Y-3.4014
X6.9649Y-2.8096
X7.2549Y-3.9614
X7.3919Y-3.7194
X7.6089Y-3.2776
X7.6749Y-4.3654
X7.7013Y-3.0957
X7.7315Y-2.8186
X7.7679Y-4.3464
X7.894Y-3.094
X7.9087Y-4.3209
X8.0087Y-4.3209
X8.0589Y-4.2846
X8.1087Y-4.3209
X8.2087Y-4.3209
X8.21Y-3.095
X8.5575Y-5.2256
T4
X4.5634Y-2.8732
X4.5634Y-3.007
X4.5634Y-3.6212
X4.5634Y-3.7551
X4.5634Y-4.3693
X4.5634Y-4.5031
X5.3114Y-2.7945
X5.3114Y-2.9283
X5.3114Y-3.5425
X5.3114Y-3.6764
X5.3114Y-4.2905
X5.3114Y-4.4244
X5.3381Y-5.1208
X5.4719Y-5.1208
X6.0072Y-5.1208
X6.0594Y-2.6445
X6.0594Y-2.7783
X6.0594Y-3.3925
X6.0594Y-3.5263
X6.0594Y-4.1405
X6.0594Y-4.2744
X6.141Y-5.1208
X6.8075Y-2.7945
X6.8075Y-2.9283
X6.8075Y-3.5425
X6.8075Y-3.6763
X6.8075Y-4.2905
X6.8075Y-4.4244
X7.305Y-4.826
X7.305Y-4.9599
X7.415Y-4.826
X7.415Y-4.9599
X7.525Y-4.826
X7.525Y-4.9599
X7.5555Y-3.6606
X7.5555Y-3.7945
X7.5555Y-4.4086
X7.5555Y-4.5425
X7.5555Y-2.9126
X7.5555Y-3.0465
X7.9952Y-3.2466
X7.9952Y-3.3568
X8.0867Y-3.2466
X8.0867Y-3.3568
T5
X7.9087Y-4.223
X8.0087Y-4.223
X8.1087Y-4.223
X8.2087Y-4.223
T6
X8.172Y-5.8154
X8.267Y-5.8408
X8.3197Y-5.2639
X8.3621Y-5.8663
X8.5099Y-5.3149
T7
X7.7601Y-2.9443
X7.7601Y-2.9443
X7.7601Y-3.0443
X7.7601Y-3.1443
X7.7601Y-3.2443
X7.7601Y-3.3443
X7.7601Y-3.4443
X7.7601Y-3.5443
X7.7601Y-3.6443
X7.7601Y-3.7443
X7.7601Y-3.8443
X7.7601Y-3.9443
X7.7601Y-4.0443
X8.3601Y-2.9443
X8.3601Y-2.9443
X8.3601Y-3.0443
X8.3601Y-3.1443
X8.3601Y-3.2443
X8.3601Y-3.3443
X8.3601Y-3.4443
X8.3601Y-3.5443
X8.3601Y-3.6443
X8.3601Y-3.7443
X8.3601Y-3.8443
X8.3601Y-3.9443
X8.3601Y-4.0443
T8
X7.7555Y-4.7816
X8.3129Y-4.9296
T6
G00X7.912Y-4.5603
M15
G01X7.8923Y-4.5603
M16
G05
G00X7.912Y-4.6567
M15
G01X7.8923Y-4.6567
M16
G05
G00X7.971Y-4.4914
M15
G01X7.9513Y-4.4914
M16
G05
G00X7.971Y-4.7256
M15
G01X7.9513Y-4.7256
M16
G05
G00X8.1285Y-4.4914
M15
G01X8.1088Y-4.4914
M16
G05
G00X8.1285Y-4.7256
M15
G01X8.1088Y-4.7256
M16
G05
G00X8.2466Y-4.4914
M15
G01X8.2269Y-4.4914
M16
G05
G00X8.2466Y-4.7256
M15
G01X8.2269Y-4.7256
M16
G05
T0
M30
