M48
; DRILL file {KiCad (6.0.6-0)} date Thursday, 14 July 2022 at 22:07:39
; FORMAT={-:-/ absolute / inch / decimal}
; #@! TF.CreationDate,2022-07-14T22:07:39+08:00
; #@! TF.GenerationSoftware,Kicad,Pcbnew,(6.0.6-0)
; #@! TF.FileFunction,Plated,1,2,PTH
FMAT,2
INCH
; #@! TA.AperFunction,Plated,PTH,ViaDrill
T1C0.0118
; #@! TA.AperFunction,Plated,PTH,ComponentDrill
T2C0.0118
; #@! TA.AperFunction,Plated,PTH,ViaDrill
T3C0.0157
; #@! TA.AperFunction,Plated,PTH,ComponentDrill
T4C0.0157
; #@! TA.AperFunction,Plated,PTH,ComponentDrill
T5C0.0320
; #@! TA.AperFunction,Plated,PTH,ComponentDrill
T6C0.0394
; #@! TA.AperFunction,Plated,PTH,ComponentDrill
T7C0.0433
; #@! TA.AperFunction,Plated,PTH,ComponentDrill
T8C0.0591
; #@! TA.AperFunction,Plated,PTH,ComponentDrill
T9C0.0866
%
G90
G05
T1
X3.9809Y-2.8448
X3.9809Y-3.5928
X3.9809Y-4.3409
X4.0329Y-3.4898
X4.4773Y-2.742
X4.4773Y-3.4901
X4.4773Y-4.2381
X4.729Y-2.707
X4.729Y-3.455
X4.729Y-4.2031
X4.7519Y-4.4866
X4.781Y-3.352
X4.8409Y-3.9686
X4.8429Y-3.8686
X4.9755Y-4.6296
X5.2254Y-2.6043
X5.2254Y-3.3523
X5.2254Y-4.1003
X5.3455Y-4.7611
X5.3755Y-4.7877
X5.4089Y-4.8142
X5.477Y-2.607
X5.477Y-3.355
X5.477Y-4.1031
X5.529Y-3.252
X5.6055Y-4.4866
X5.8189Y-3.7956
X5.8229Y-3.7276
X5.9734Y-2.5042
X5.9734Y-3.2523
X5.9734Y-4.0003
X6.1309Y-4.2816
X6.1855Y-4.4691
X6.1975Y-4.7876
X6.225Y-2.707
X6.225Y-3.455
X6.225Y-4.2031
X6.2255Y-4.3595
X6.231Y-4.761
X6.2775Y-3.7381
X6.2813Y-4.8153
X6.3397Y-4.7959
X6.6322Y-5.0457
X6.6855Y-4.4691
X6.7214Y-2.6042
X6.7214Y-3.3523
X6.7214Y-4.1003
X6.7899Y-3.8666
X6.7899Y-3.9486
X6.7995Y-4.5235
X6.8383Y-4.5243
X6.8755Y-4.5255
X6.9215Y-4.0595
X6.9215Y-4.1015
X6.9215Y-4.1495
X6.973Y-3.5551
X6.973Y-4.3031
X7.0255Y-3.8496
X7.1383Y-5.0749
X7.3305Y-4.5124
X7.3472Y-5.2862
X7.4694Y-2.7043
X7.4694Y-3.4523
X7.4694Y-4.2003
X7.5049Y-4.5054
X7.5317Y-4.0465
X7.5563Y-4.074
X7.5809Y-4.1014
X7.6714Y-4.1416
X7.6955Y-3.8691
X7.7089Y-4.3276
X7.8219Y-4.3246
X7.8533Y-5.3154
X7.8695Y-3.2955
X7.8859Y-3.3976
X7.8875Y-3.5956
X7.9129Y-3.1886
X7.9255Y-3.5815
X7.9355Y-4.1415
X7.9395Y-3.4432
X7.9695Y-3.1875
X7.9755Y-4.1435
X8.0575Y-4.4011
X8.1027Y-5.3897
X8.1149Y-4.4276
X8.1387Y-3.5788
X8.207Y-3.6845
X8.2071Y-3.6285
X8.6088Y-5.4189
T2
X5.0795Y-5.135
X5.1917Y-5.1335
X5.696Y-5.135
X5.8081Y-5.1335
T3
X3.9229Y-3.9773
X3.9309Y-3.2613
X3.9669Y-4.7073
X4.8409Y-3.8226
X5.1855Y-4.8516
X5.2495Y-5.0516
X5.7282Y-2.967
X5.8209Y-3.6776
X6.0689Y-4.8442
X6.2235Y-5.0436
X6.3309Y-4.8436
X6.3819Y-3.6296
X6.4829Y-3.9196
X6.7899Y-3.8146
X6.8809Y-3.0734
X6.8949Y-3.4514
X6.9649Y-2.8096
X7.1929Y-2.5116
X7.193Y-2.3611
X7.2549Y-3.9614
X7.3919Y-3.7194
X7.441Y-2.3611
X7.4429Y-2.5116
X7.6089Y-3.2776
X7.6749Y-4.3654
X7.7013Y-3.0957
X7.7315Y-2.8186
X7.7679Y-4.3464
X7.8969Y-3.0989
X7.9087Y-4.3209
X7.9235Y-2.9475
X7.9235Y-3.8815
X7.9298Y-3.7164
X7.9298Y-3.7875
X7.9335Y-3.0469
X7.9415Y-3.9455
X7.9435Y-4.0455
X7.9938Y-3.5125
X8.0087Y-4.3209
X8.0589Y-4.2846
X8.0875Y-3.4476
X8.1087Y-4.3209
X8.1595Y-4.0115
X8.1815Y-3.1469
X8.1835Y-3.3469
X8.1835Y-3.7475
X8.1895Y-3.8455
X8.1995Y-2.9746
X8.1995Y-3.9815
X8.1995Y-3.0949
X8.2087Y-4.3209
X8.2135Y-3.4955
X8.5575Y-5.2256
T4
X4.5634Y-2.9503
X4.5634Y-3.0842
X4.5634Y-3.6984
X4.5634Y-3.8322
X4.5634Y-4.4464
X4.5634Y-4.5803
X5.3114Y-2.8126
X5.3114Y-2.9464
X5.3114Y-3.5606
X5.3114Y-3.6945
X5.3114Y-4.3086
X5.3114Y-4.4425
X5.3305Y-5.0808
X5.3305Y-5.2146
X5.9455Y-5.0808
X5.9455Y-5.2146
X6.0594Y-2.7126
X6.0594Y-2.8464
X6.0594Y-3.4606
X6.0594Y-3.5944
X6.0594Y-4.2086
X6.0594Y-4.3425
X6.8075Y-2.8126
X6.8075Y-2.9464
X6.8075Y-3.5606
X6.8075Y-3.6945
X6.8075Y-4.3086
X6.8075Y-4.4425
X7.2961Y-4.826
X7.2961Y-4.9599
X7.4008Y-4.826
X7.4008Y-4.9599
X7.5055Y-4.826
X7.5055Y-4.9599
X7.5555Y-3.6606
X7.5555Y-3.7945
X7.5555Y-4.4086
X7.5555Y-4.5425
X7.5555Y-2.9126
X7.5555Y-3.0465
X7.9952Y-3.2466
X7.9952Y-3.3568
X8.0867Y-3.2466
X8.0867Y-3.3568
T5
X7.9087Y-4.223
X8.0087Y-4.223
X8.1087Y-4.223
X8.2087Y-4.223
T6
X8.172Y-5.8154
X8.267Y-5.8408
X8.3197Y-5.2639
X8.3621Y-5.8663
X8.5099Y-5.3149
T7
X7.7601Y-2.9443
X7.7601Y-2.9443
X7.7601Y-3.0443
X7.7601Y-3.1443
X7.7601Y-3.2443
X7.7601Y-3.3443
X7.7601Y-3.4443
X7.7601Y-3.5443
X7.7601Y-3.6443
X7.7601Y-3.7443
X7.7601Y-3.8443
X7.7601Y-3.9443
X7.7601Y-4.0443
X8.3601Y-2.9443
X8.3601Y-2.9443
X8.3601Y-3.0443
X8.3601Y-3.1443
X8.3601Y-3.2443
X8.3601Y-3.3443
X8.3601Y-3.4443
X8.3601Y-3.5443
X8.3601Y-3.6443
X8.3601Y-3.7443
X8.3601Y-3.8443
X8.3601Y-3.9443
X8.3601Y-4.0443
T9
X7.7555Y-4.7816
X8.3129Y-4.9296
T6
G00X7.912Y-4.5603
M15
G01X7.8923Y-4.5603
M16
G05
G00X7.912Y-4.6567
M15
G01X7.8923Y-4.6567
M16
G05
G00X7.971Y-4.4914
M15
G01X7.9513Y-4.4914
M16
G05
G00X7.971Y-4.7256
M15
G01X7.9513Y-4.7256
M16
G05
G00X8.1285Y-4.4914
M15
G01X8.1088Y-4.4914
M16
G05
G00X8.1285Y-4.7256
M15
G01X8.1088Y-4.7256
M16
G05
G00X8.2466Y-4.4914
M15
G01X8.2269Y-4.4914
M16
G05
G00X8.2466Y-4.7256
M15
G01X8.2269Y-4.7256
M16
G05
T8
G00X8.1239Y-5.5233
M15
G01X8.1371Y-5.4738
M16
G05
G00X8.5498Y-5.6374
M15
G01X8.5631Y-5.588
M16
G05
T0
M30
