G04 #@! TF.GenerationSoftware,KiCad,Pcbnew,(6.0.6)*
G04 #@! TF.CreationDate,2022-07-27T15:36:24+08:00*
G04 #@! TF.ProjectId,thrfv,74687266-762e-46b6-9963-61645f706362,rev?*
G04 #@! TF.SameCoordinates,Original*
G04 #@! TF.FileFunction,Legend,Bot*
G04 #@! TF.FilePolarity,Positive*
%FSLAX46Y46*%
G04 Gerber Fmt 4.6, Leading zero omitted, Abs format (unit mm)*
G04 Created by KiCad (PCBNEW (6.0.6)) date 2022-07-27 15:36:24*
%MOMM*%
%LPD*%
G01*
G04 APERTURE LIST*
G04 Aperture macros list*
%AMRoundRect*
0 Rectangle with rounded corners*
0 $1 Rounding radius*
0 $2 $3 $4 $5 $6 $7 $8 $9 X,Y pos of 4 corners*
0 Add a 4 corners polygon primitive as box body*
4,1,4,$2,$3,$4,$5,$6,$7,$8,$9,$2,$3,0*
0 Add four circle primitives for the rounded corners*
1,1,$1+$1,$2,$3*
1,1,$1+$1,$4,$5*
1,1,$1+$1,$6,$7*
1,1,$1+$1,$8,$9*
0 Add four rect primitives between the rounded corners*
20,1,$1+$1,$2,$3,$4,$5,0*
20,1,$1+$1,$4,$5,$6,$7,0*
20,1,$1+$1,$6,$7,$8,$9,0*
20,1,$1+$1,$8,$9,$2,$3,0*%
%AMHorizOval*
0 Thick line with rounded ends*
0 $1 width*
0 $2 $3 position (X,Y) of the first rounded end (center of the circle)*
0 $4 $5 position (X,Y) of the second rounded end (center of the circle)*
0 Add line between two ends*
20,1,$1,$2,$3,$4,$5,0*
0 Add two circle primitives to create the rounded ends*
1,1,$1,$2,$3*
1,1,$1,$4,$5*%
%AMFreePoly0*
4,1,37,1.228070,1.434758,1.247030,1.430987,1.319133,1.401121,1.335206,1.390381,1.390381,1.335206,1.401121,1.319133,1.430987,1.247030,1.434758,1.228070,1.438600,1.189056,1.438600,-1.189056,1.434758,-1.228070,1.430987,-1.247030,1.401121,-1.319133,1.390381,-1.335206,1.335206,-1.390381,1.319133,-1.401121,1.247030,-1.430987,1.228070,-1.434758,1.189056,-1.438600,-0.743160,-1.438600,
-0.829937,-1.418794,-0.884581,-1.380021,-1.380021,-0.884581,-1.427377,-0.809216,-1.438600,-0.743160,-1.438600,1.189056,-1.434758,1.228070,-1.430987,1.247030,-1.401121,1.319133,-1.390381,1.335206,-1.335206,1.390381,-1.319133,1.401121,-1.247030,1.430987,-1.228070,1.434758,-1.189056,1.438600,1.189056,1.438600,1.228070,1.434758,1.228070,1.434758,$1*%
%AMFreePoly1*
4,1,131,0.421069,1.171878,0.490658,1.116382,0.529278,1.036188,0.533608,0.975155,0.521036,0.823547,0.531896,0.685580,0.581448,0.562002,0.673469,0.438709,0.807335,0.323752,0.979071,0.225967,1.188716,0.151226,1.247913,0.137085,1.349567,0.118697,1.439701,0.107620,1.472501,0.105958,1.493809,0.103729,1.606515,0.085795,1.639308,0.077688,1.779572,0.030129,1.799065,0.022358,
1.946206,-0.045458,1.964157,-0.054863,2.097494,-0.133570,2.119688,-0.148771,2.207801,-0.218271,2.237205,-0.246811,2.360899,-0.394353,2.390006,-0.440741,2.456807,-0.589123,2.474148,-0.660490,2.481906,-0.804801,2.479243,-0.849768,2.477732,-0.858466,2.473551,-0.877170,2.456196,-0.940403,2.433952,-0.980807,2.436320,-0.980568,2.485515,-0.979320,2.490587,-0.979256,2.652949,-0.979256,
2.739726,-0.999062,2.809315,-1.054558,2.847935,-1.134752,2.847935,-1.223760,2.809315,-1.303954,2.786478,-1.328152,2.648041,-1.452301,2.634066,-1.463738,2.463314,-1.591061,2.440681,-1.605675,2.233169,-1.720637,2.211816,-1.730864,1.992805,-1.820241,1.974853,-1.826588,1.889550,-1.852250,1.866815,-1.857664,1.727626,-1.882317,1.708200,-1.884784,1.531851,-1.898452,1.519174,-1.899031,
1.327751,-1.901690,1.315901,-1.901503,1.131491,-1.893130,1.115739,-1.891789,0.960429,-1.872362,0.941121,-1.868979,0.887084,-1.856754,0.859725,-1.848470,0.653373,-1.769490,0.626856,-1.757044,0.412620,-1.636608,0.393398,-1.624308,0.184793,-1.473390,0.168268,-1.460043,-0.021193,-1.289616,-0.037865,-1.272725,-0.194668,-1.093765,-0.213708,-1.068175,-0.324341,-0.891655,-0.335514,-0.871287,
-0.339963,-0.861925,-0.347186,-0.844692,-0.452771,-0.555591,0.483864,-0.555591,0.493332,-0.634615,0.539236,-0.742045,0.633763,-0.871846,0.782146,-0.998510,0.962847,-1.097785,1.172301,-1.170713,1.396206,-1.212930,1.619730,-1.221965,1.827705,-1.197186,2.010275,-1.138936,2.065066,-1.108995,2.044165,-1.104825,2.028852,-1.101137,1.931837,-1.073690,1.913378,-1.067483,1.694381,-0.981754,
1.664059,-0.966817,1.450585,-0.838177,1.430426,-0.824279,1.268219,-0.697128,1.089939,-0.566998,0.921579,-0.481217,0.767718,-0.435388,0.638486,-0.427725,0.587914,-0.437762,0.523148,-0.472551,0.495941,-0.507019,0.483864,-0.555591,-0.452771,-0.555591,-0.458816,-0.539038,-0.467742,-0.506121,-0.524981,-0.190551,-0.528183,-0.156709,-0.531109,0.159181,-0.528375,0.194041,-0.477068,0.500656,
-0.467595,0.536474,-0.362131,0.824219,-0.352731,0.845832,-0.324807,0.900910,-0.322918,0.904542,-0.226332,1.085755,-0.168038,1.153018,-0.086332,1.188326,-0.049837,1.191684,0.334292,1.191684,0.421069,1.171878,0.421069,1.171878,$1*%
%AMFreePoly2*
4,1,133,-1.339450,1.930975,-1.088207,1.908101,-1.063056,1.904185,-0.833045,1.853197,-0.814384,1.848102,-0.774660,1.835162,-0.754079,1.827176,-0.467740,1.697465,-0.436097,1.679497,-0.184700,1.504709,-0.157658,1.482129,0.055859,1.269244,0.077895,1.243155,0.250591,0.999154,0.267587,0.970285,0.396524,0.702151,0.408455,0.670875,0.490693,0.385586,0.497312,0.352124,0.529913,0.056663,
0.530673,0.021380,0.510696,-0.277272,0.504892,-0.313530,0.429398,-0.608393,0.419758,-0.636912,0.347292,-0.807686,0.340236,-0.822577,0.274686,-0.947350,0.260046,-0.971046,0.204023,-1.049006,0.156081,-1.096295,0.096039,-1.138204,0.023451,-1.169768,-0.054156,-1.186389,-0.089564,-1.190719,-0.162135,-1.193070,-0.168611,-1.193175,-0.328365,-1.193175,-0.415142,-1.173369,-0.484731,-1.117873,
-0.523351,-1.037679,-0.528362,-0.992097,-0.527253,-0.786231,-0.530401,-0.679300,-0.540156,-0.627600,-0.562149,-0.579122,-0.575328,-0.557631,-0.713887,-0.390712,-0.885363,-0.260653,-1.092102,-0.164248,-1.338729,-0.104410,-1.338914,-0.104381,-1.593567,-0.059680,-1.613365,-0.055158,-1.817513,0.002520,-1.847380,0.013594,-2.012135,0.090111,-2.047029,0.110860,-2.183503,0.212074,-2.212626,0.238483,
-2.331932,0.370256,-2.346460,0.388302,-2.405819,0.471469,-2.428577,0.513010,-2.464788,0.603018,-2.477703,0.652912,-2.491420,0.762893,-2.491804,0.809097,-2.481008,0.909172,-2.466525,0.965248,-2.460940,0.978530,-2.501413,0.977798,-2.505028,0.977765,-2.677210,0.977765,-2.763987,0.997571,-2.833576,1.053067,-2.872196,1.133261,-2.872196,1.138241,-2.071712,1.138241,-1.952028,1.105607,
-1.930771,1.098509,-1.791493,1.043152,-1.776047,1.036243,-1.628459,0.962580,-1.614371,0.954826,-1.469147,0.867109,-1.453819,0.856857,-1.321629,0.759337,-1.314946,0.754109,-1.314943,0.754113,-1.147601,0.622968,-1.019353,0.540187,-0.913882,0.492360,-0.807647,0.465899,-0.758852,0.460054,-0.620914,0.460536,-0.556051,0.479195,-0.525998,0.504538,-0.498274,0.558416,-0.486517,0.599024,
-0.486242,0.611760,-0.498966,0.657704,-0.506538,0.678107,-0.594278,0.837986,-0.720367,0.970005,-0.893609,1.083425,-1.116045,1.173774,-1.294573,1.218571,-1.431807,1.242648,-1.531813,1.251842,-1.626633,1.248899,-1.737544,1.235396,-1.912032,1.199514,-2.046050,1.152937,-2.071712,1.138241,-2.872196,1.138241,-2.872196,1.222269,-2.833576,1.302463,-2.823247,1.314415,-2.748061,1.394766,
-2.732779,1.409454,-2.561752,1.557220,-2.535002,1.576712,-2.319171,1.708114,-2.294734,1.720775,-2.050919,1.826502,-2.030745,1.833988,-1.883550,1.879766,-1.857181,1.886043,-1.638182,1.922709,-1.610280,1.925389,-1.362707,1.931733,-1.339450,1.930975,-1.339450,1.930975,$1*%
%AMFreePoly3*
4,1,41,0.586777,0.930194,0.656366,0.874698,0.694986,0.794504,0.700000,0.750000,0.700000,-0.750000,0.680194,-0.836777,0.624698,-0.906366,0.544504,-0.944986,0.500000,-0.950000,0.000000,-0.950000,-0.023504,-0.944635,-0.083606,-0.943534,-0.139582,-0.934468,-0.274897,-0.892193,-0.326080,-0.867780,-0.444090,-0.789225,-0.486362,-0.751429,-0.577582,-0.642910,-0.607548,-0.594768,-0.664643,-0.465009,
-0.679893,-0.410393,-0.697476,-0.275933,-0.697084,-0.275882,-0.700000,-0.250000,-0.700000,0.250000,-0.697921,0.259109,-0.697582,0.286880,-0.675771,0.426957,-0.659192,0.481183,-0.598944,0.609508,-0.567811,0.656904,-0.473967,0.763162,-0.430783,0.799915,-0.310888,0.875563,-0.259125,0.898717,-0.122818,0.937674,-0.066635,0.945370,-0.042411,0.945222,0.000000,0.950000,0.500000,0.950000,
0.586777,0.930194,0.586777,0.930194,$1*%
%AMFreePoly4*
4,1,41,0.022678,0.944824,0.075125,0.944504,0.131210,0.936123,0.267031,0.895504,0.318507,0.871718,0.437469,0.794611,0.480202,0.757333,0.572740,0.649936,0.603290,0.602165,0.661967,0.473113,0.677883,0.418686,0.697980,0.278353,0.700000,0.250000,0.700000,-0.250000,0.699985,-0.252439,0.699836,-0.264655,0.697079,-0.295398,0.673559,-0.435199,0.656318,-0.489221,0.594506,-0.616800,
0.562797,-0.663810,0.467662,-0.768914,0.424032,-0.805137,0.303222,-0.879314,0.251181,-0.901834,0.114408,-0.939123,0.058135,-0.946132,0.037663,-0.945757,0.000000,-0.950000,-0.500000,-0.950000,-0.586777,-0.930194,-0.656366,-0.874698,-0.694986,-0.794504,-0.700000,-0.750000,-0.700000,0.750000,-0.680194,0.836777,-0.624698,0.906366,-0.544504,0.944986,-0.500000,0.950000,0.000000,0.950000,
0.022678,0.944824,0.022678,0.944824,$1*%
%AMFreePoly5*
4,1,22,0.106406,0.569345,0.141421,0.541421,0.741421,-0.058579,0.788777,-0.133944,0.800000,-0.200000,0.800000,-0.400000,0.780194,-0.486777,0.724698,-0.556366,0.644504,-0.594986,0.600000,-0.600000,-0.600000,-0.600000,-0.686777,-0.580194,-0.756366,-0.524698,-0.794986,-0.444504,-0.800000,-0.400000,-0.800000,-0.200000,-0.780194,-0.113223,-0.741421,-0.058579,-0.141421,0.541421,-0.066056,0.588777,
0.022393,0.598742,0.106406,0.569345,0.106406,0.569345,$1*%
%AMFreePoly6*
4,1,26,0.686777,0.430194,0.756366,0.374698,0.794986,0.294504,0.800000,0.250000,0.800000,-1.000000,0.780194,-1.086777,0.724698,-1.156366,0.644504,-1.194986,0.555496,-1.194986,0.475302,-1.156366,0.458579,-1.141421,0.000000,-0.682842,-0.458579,-1.141421,-0.533944,-1.188777,-0.622393,-1.198742,-0.706406,-1.169345,-0.769345,-1.106406,-0.798742,-1.022393,-0.800000,-1.000000,-0.800000,0.250000,
-0.780194,0.336777,-0.724698,0.406366,-0.644504,0.444986,-0.600000,0.450000,0.600000,0.450000,0.686777,0.430194,0.686777,0.430194,$1*%
G04 Aperture macros list end*
%ADD10C,0.150000*%
%ADD11C,0.100000*%
%ADD12C,0.200000*%
%ADD13C,0.120000*%
%ADD14C,2.100000*%
%ADD15C,3.400000*%
%ADD16C,4.400000*%
%ADD17RoundRect,0.200000X-1.244600X-1.244600X1.244600X-1.244600X1.244600X1.244600X-1.244600X1.244600X0*%
%ADD18FreePoly0,0.000000*%
%ADD19C,3.100000*%
%ADD20RoundRect,0.200000X0.700000X-0.600000X0.700000X0.600000X-0.700000X0.600000X-0.700000X-0.600000X0*%
%ADD21HorizOval,1.900000X0.168232X0.627852X-0.168232X-0.627852X0*%
%ADD22C,2.400000*%
%ADD23RoundRect,0.200000X-1.524317X-0.880065X0.880065X-1.524317X1.524317X0.880065X-0.880065X1.524317X0*%
%ADD24FreePoly0,345.000000*%
%ADD25RoundRect,0.450000X-0.625000X0.375000X-0.625000X-0.375000X0.625000X-0.375000X0.625000X0.375000X0*%
%ADD26C,3.600000*%
%ADD27RoundRect,0.200000X-0.700000X0.600000X-0.700000X-0.600000X0.700000X-0.600000X0.700000X0.600000X0*%
%ADD28FreePoly1,0.000000*%
%ADD29FreePoly2,0.000000*%
%ADD30RoundRect,0.200000X-0.500000X0.750000X-0.500000X-0.750000X0.500000X-0.750000X0.500000X0.750000X0*%
%ADD31C,4.800000*%
%ADD32C,1.797000*%
%ADD33RoundRect,0.200000X0.600000X0.700000X-0.600000X0.700000X-0.600000X-0.700000X0.600000X-0.700000X0*%
%ADD34O,5.900000X2.400000*%
%ADD35RoundRect,0.200000X-0.750000X-0.500000X0.750000X-0.500000X0.750000X0.500000X-0.750000X0.500000X0*%
%ADD36C,1.600000*%
%ADD37O,2.900000X2.100000*%
%ADD38FreePoly3,270.000000*%
%ADD39FreePoly4,270.000000*%
%ADD40FreePoly3,90.000000*%
%ADD41FreePoly4,90.000000*%
%ADD42RoundRect,0.200000X-0.150000X-0.750000X0.150000X-0.750000X0.150000X0.750000X-0.150000X0.750000X0*%
%ADD43RoundRect,0.200000X-1.000000X-0.750000X1.000000X-0.750000X1.000000X0.750000X-1.000000X0.750000X0*%
%ADD44C,2.000000*%
%ADD45FreePoly5,90.000000*%
%ADD46FreePoly5,270.000000*%
%ADD47RoundRect,0.200000X-0.800000X0.800000X-0.800000X-0.800000X0.800000X-0.800000X0.800000X0.800000X0*%
%ADD48FreePoly6,90.000000*%
%ADD49FreePoly6,270.000000*%
%ADD50RoundRect,0.200000X0.850000X0.500000X-0.850000X0.500000X-0.850000X-0.500000X0.850000X-0.500000X0*%
%ADD51C,1.100000*%
%ADD52C,1.200000*%
G04 APERTURE END LIST*
D10*
X170794457Y-110538623D02*
X169994457Y-110538623D01*
X169994457Y-110729099D01*
X170032553Y-110843385D01*
X170108743Y-110919575D01*
X170184933Y-110957671D01*
X170337314Y-110995766D01*
X170451600Y-110995766D01*
X170603981Y-110957671D01*
X170680172Y-110919575D01*
X170756362Y-110843385D01*
X170794457Y-110729099D01*
X170794457Y-110538623D01*
X170794457Y-111757671D02*
X170794457Y-111300528D01*
X170794457Y-111529099D02*
X169994457Y-111529099D01*
X170108743Y-111452909D01*
X170184933Y-111376718D01*
X170223029Y-111300528D01*
X170261124Y-112443385D02*
X170794457Y-112443385D01*
X169956362Y-112252909D02*
X170527791Y-112062432D01*
X170527791Y-112557671D01*
X209539598Y-145412474D02*
X209861573Y-145498747D01*
X210135134Y-145029760D02*
X209675170Y-144906513D01*
X209416351Y-145872439D01*
X209876315Y-145995686D01*
X211076411Y-145380572D02*
X211042739Y-145322251D01*
X210917074Y-145239280D01*
X210825081Y-145214631D01*
X210674767Y-145223653D01*
X210558125Y-145290997D01*
X210487479Y-145370665D01*
X210392184Y-145542326D01*
X210355209Y-145680316D01*
X210351907Y-145876626D01*
X210373254Y-145980944D01*
X210440598Y-146097586D01*
X210566262Y-146180557D01*
X210658255Y-146205206D01*
X210808569Y-146196184D01*
X210866891Y-146162512D01*
X212020989Y-145535074D02*
X211469032Y-145387177D01*
X211745011Y-145461125D02*
X211486192Y-146427051D01*
X211431173Y-146264412D01*
X211363829Y-146147770D01*
X211284161Y-146077124D01*
X170831985Y-91041969D02*
X170031985Y-91041969D01*
X170031985Y-91232446D01*
X170070081Y-91346731D01*
X170146271Y-91422922D01*
X170222461Y-91461017D01*
X170374842Y-91499112D01*
X170489128Y-91499112D01*
X170641509Y-91461017D01*
X170717700Y-91422922D01*
X170793890Y-91346731D01*
X170831985Y-91232446D01*
X170831985Y-91041969D01*
X170831985Y-91880065D02*
X170831985Y-92032446D01*
X170793890Y-92108636D01*
X170755795Y-92146731D01*
X170641509Y-92222922D01*
X170489128Y-92261017D01*
X170184366Y-92261017D01*
X170108176Y-92222922D01*
X170070081Y-92184826D01*
X170031985Y-92108636D01*
X170031985Y-91956255D01*
X170070081Y-91880065D01*
X170108176Y-91841969D01*
X170184366Y-91803874D01*
X170374842Y-91803874D01*
X170451033Y-91841969D01*
X170489128Y-91880065D01*
X170527223Y-91956255D01*
X170527223Y-92108636D01*
X170489128Y-92184826D01*
X170451033Y-92222922D01*
X170374842Y-92261017D01*
X185892419Y-127542884D02*
X185092419Y-127542884D01*
X185092419Y-127733360D01*
X185130515Y-127847646D01*
X185206705Y-127923836D01*
X185282895Y-127961932D01*
X185435276Y-128000027D01*
X185549562Y-128000027D01*
X185701943Y-127961932D01*
X185778134Y-127923836D01*
X185854324Y-127847646D01*
X185892419Y-127733360D01*
X185892419Y-127542884D01*
X185892419Y-128761932D02*
X185892419Y-128304789D01*
X185892419Y-128533360D02*
X185092419Y-128533360D01*
X185206705Y-128457170D01*
X185282895Y-128380979D01*
X185320991Y-128304789D01*
X185435276Y-129219074D02*
X185397181Y-129142884D01*
X185359086Y-129104789D01*
X185282895Y-129066693D01*
X185244800Y-129066693D01*
X185168610Y-129104789D01*
X185130515Y-129142884D01*
X185092419Y-129219074D01*
X185092419Y-129371455D01*
X185130515Y-129447646D01*
X185168610Y-129485741D01*
X185244800Y-129523836D01*
X185282895Y-129523836D01*
X185359086Y-129485741D01*
X185397181Y-129447646D01*
X185435276Y-129371455D01*
X185435276Y-129219074D01*
X185473372Y-129142884D01*
X185511467Y-129104789D01*
X185587657Y-129066693D01*
X185740038Y-129066693D01*
X185816229Y-129104789D01*
X185854324Y-129142884D01*
X185892419Y-129219074D01*
X185892419Y-129371455D01*
X185854324Y-129447646D01*
X185816229Y-129485741D01*
X185740038Y-129523836D01*
X185587657Y-129523836D01*
X185511467Y-129485741D01*
X185473372Y-129447646D01*
X185435276Y-129371455D01*
X197144780Y-109116952D02*
X197144780Y-108640761D01*
X196144780Y-108640761D01*
X196620971Y-109450285D02*
X196620971Y-109783619D01*
X197144780Y-109926476D02*
X197144780Y-109450285D01*
X196144780Y-109450285D01*
X196144780Y-109926476D01*
X197144780Y-110355047D02*
X196144780Y-110355047D01*
X196144780Y-110593142D01*
X196192400Y-110736000D01*
X196287638Y-110831238D01*
X196382876Y-110878857D01*
X196573352Y-110926476D01*
X196716209Y-110926476D01*
X196906685Y-110878857D01*
X197001923Y-110831238D01*
X197097161Y-110736000D01*
X197144780Y-110593142D01*
X197144780Y-110355047D01*
X197144780Y-111878857D02*
X197144780Y-111307428D01*
X197144780Y-111593142D02*
X196144780Y-111593142D01*
X196287638Y-111497904D01*
X196382876Y-111402666D01*
X196430495Y-111307428D01*
X132794857Y-110538023D02*
X131994857Y-110538023D01*
X131994857Y-110728499D01*
X132032953Y-110842785D01*
X132109143Y-110918975D01*
X132185333Y-110957071D01*
X132337714Y-110995166D01*
X132452000Y-110995166D01*
X132604381Y-110957071D01*
X132680572Y-110918975D01*
X132756762Y-110842785D01*
X132794857Y-110728499D01*
X132794857Y-110538023D01*
X132794857Y-111757071D02*
X132794857Y-111299928D01*
X132794857Y-111528499D02*
X131994857Y-111528499D01*
X132109143Y-111452309D01*
X132185333Y-111376118D01*
X132223429Y-111299928D01*
X132071048Y-112061832D02*
X132032953Y-112099928D01*
X131994857Y-112176118D01*
X131994857Y-112366594D01*
X132032953Y-112442785D01*
X132071048Y-112480880D01*
X132147238Y-112518975D01*
X132223429Y-112518975D01*
X132337714Y-112480880D01*
X132794857Y-112023737D01*
X132794857Y-112518975D01*
X170831985Y-72042009D02*
X170031985Y-72042009D01*
X170031985Y-72232486D01*
X170070081Y-72346771D01*
X170146271Y-72422962D01*
X170222461Y-72461057D01*
X170374842Y-72499152D01*
X170489128Y-72499152D01*
X170641509Y-72461057D01*
X170717700Y-72422962D01*
X170793890Y-72346771D01*
X170831985Y-72232486D01*
X170831985Y-72042009D01*
X170298652Y-73184866D02*
X170831985Y-73184866D01*
X169993890Y-72994390D02*
X170565319Y-72803914D01*
X170565319Y-73299152D01*
X189794155Y-94538623D02*
X188994155Y-94538623D01*
X188994155Y-94729099D01*
X189032251Y-94843385D01*
X189108441Y-94919575D01*
X189184631Y-94957671D01*
X189337012Y-94995766D01*
X189451298Y-94995766D01*
X189603679Y-94957671D01*
X189679870Y-94919575D01*
X189756060Y-94843385D01*
X189794155Y-94729099D01*
X189794155Y-94538623D01*
X189794155Y-95757671D02*
X189794155Y-95300528D01*
X189794155Y-95529099D02*
X188994155Y-95529099D01*
X189108441Y-95452909D01*
X189184631Y-95376718D01*
X189222727Y-95300528D01*
X188994155Y-96252909D02*
X188994155Y-96329099D01*
X189032251Y-96405290D01*
X189070346Y-96443385D01*
X189146536Y-96481480D01*
X189298917Y-96519575D01*
X189489393Y-96519575D01*
X189641774Y-96481480D01*
X189717965Y-96443385D01*
X189756060Y-96405290D01*
X189794155Y-96329099D01*
X189794155Y-96252909D01*
X189756060Y-96176718D01*
X189717965Y-96138623D01*
X189641774Y-96100528D01*
X189489393Y-96062432D01*
X189298917Y-96062432D01*
X189146536Y-96100528D01*
X189070346Y-96138623D01*
X189032251Y-96176718D01*
X188994155Y-96252909D01*
X151831785Y-68231809D02*
X151031785Y-68231809D01*
X151031785Y-68422286D01*
X151069881Y-68536571D01*
X151146071Y-68612762D01*
X151222261Y-68650857D01*
X151374642Y-68688952D01*
X151488928Y-68688952D01*
X151641309Y-68650857D01*
X151717500Y-68612762D01*
X151793690Y-68536571D01*
X151831785Y-68422286D01*
X151831785Y-68231809D01*
X151031785Y-68955619D02*
X151031785Y-69450857D01*
X151336547Y-69184190D01*
X151336547Y-69298476D01*
X151374642Y-69374666D01*
X151412738Y-69412762D01*
X151488928Y-69450857D01*
X151679404Y-69450857D01*
X151755595Y-69412762D01*
X151793690Y-69374666D01*
X151831785Y-69298476D01*
X151831785Y-69069905D01*
X151793690Y-68993714D01*
X151755595Y-68955619D01*
X189794155Y-113538623D02*
X188994155Y-113538623D01*
X188994155Y-113729099D01*
X189032251Y-113843385D01*
X189108441Y-113919575D01*
X189184631Y-113957671D01*
X189337012Y-113995766D01*
X189451298Y-113995766D01*
X189603679Y-113957671D01*
X189679870Y-113919575D01*
X189756060Y-113843385D01*
X189794155Y-113729099D01*
X189794155Y-113538623D01*
X189794155Y-114757671D02*
X189794155Y-114300528D01*
X189794155Y-114529099D02*
X188994155Y-114529099D01*
X189108441Y-114452909D01*
X189184631Y-114376718D01*
X189222727Y-114300528D01*
X188994155Y-115481480D02*
X188994155Y-115100528D01*
X189375108Y-115062432D01*
X189337012Y-115100528D01*
X189298917Y-115176718D01*
X189298917Y-115367194D01*
X189337012Y-115443385D01*
X189375108Y-115481480D01*
X189451298Y-115519575D01*
X189641774Y-115519575D01*
X189717965Y-115481480D01*
X189756060Y-115443385D01*
X189794155Y-115367194D01*
X189794155Y-115176718D01*
X189756060Y-115100528D01*
X189717965Y-115062432D01*
X210043257Y-107034785D02*
X210623828Y-107034785D01*
X210739942Y-106996080D01*
X210817352Y-106918671D01*
X210856057Y-106802557D01*
X210856057Y-106725147D01*
X210120666Y-107383128D02*
X210081962Y-107421833D01*
X210043257Y-107499242D01*
X210043257Y-107692766D01*
X210081962Y-107770176D01*
X210120666Y-107808880D01*
X210198076Y-107847585D01*
X210275485Y-107847585D01*
X210391600Y-107808880D01*
X210856057Y-107344423D01*
X210856057Y-107847585D01*
X189831812Y-75042925D02*
X189031812Y-75042925D01*
X189031812Y-75233402D01*
X189069908Y-75347687D01*
X189146098Y-75423878D01*
X189222288Y-75461973D01*
X189374669Y-75500068D01*
X189488955Y-75500068D01*
X189641336Y-75461973D01*
X189717527Y-75423878D01*
X189793717Y-75347687D01*
X189831812Y-75233402D01*
X189831812Y-75042925D01*
X189031812Y-76223878D02*
X189031812Y-75842925D01*
X189412765Y-75804830D01*
X189374669Y-75842925D01*
X189336574Y-75919116D01*
X189336574Y-76109592D01*
X189374669Y-76185782D01*
X189412765Y-76223878D01*
X189488955Y-76261973D01*
X189679431Y-76261973D01*
X189755622Y-76223878D01*
X189793717Y-76185782D01*
X189831812Y-76109592D01*
X189831812Y-75919116D01*
X189793717Y-75842925D01*
X189755622Y-75804830D01*
X151401504Y-129572571D02*
X150601504Y-129572571D01*
X150601504Y-129763047D01*
X150639600Y-129877333D01*
X150715790Y-129953523D01*
X150791980Y-129991619D01*
X150944361Y-130029714D01*
X151058647Y-130029714D01*
X151211028Y-129991619D01*
X151287219Y-129953523D01*
X151363409Y-129877333D01*
X151401504Y-129763047D01*
X151401504Y-129572571D01*
X151401504Y-130791619D02*
X151401504Y-130334476D01*
X151401504Y-130563047D02*
X150601504Y-130563047D01*
X150715790Y-130486857D01*
X150791980Y-130410666D01*
X150830076Y-130334476D01*
X150601504Y-131058285D02*
X150601504Y-131591619D01*
X151401504Y-131248761D01*
X134405904Y-129072571D02*
X133605904Y-129072571D01*
X133605904Y-129263047D01*
X133644000Y-129377333D01*
X133720190Y-129453523D01*
X133796380Y-129491619D01*
X133948761Y-129529714D01*
X134063047Y-129529714D01*
X134215428Y-129491619D01*
X134291619Y-129453523D01*
X134367809Y-129377333D01*
X134405904Y-129263047D01*
X134405904Y-129072571D01*
X134405904Y-130291619D02*
X134405904Y-129834476D01*
X134405904Y-130063047D02*
X133605904Y-130063047D01*
X133720190Y-129986857D01*
X133796380Y-129910666D01*
X133834476Y-129834476D01*
X133605904Y-130977333D02*
X133605904Y-130824952D01*
X133644000Y-130748761D01*
X133682095Y-130710666D01*
X133796380Y-130634476D01*
X133948761Y-130596380D01*
X134253523Y-130596380D01*
X134329714Y-130634476D01*
X134367809Y-130672571D01*
X134405904Y-130748761D01*
X134405904Y-130901142D01*
X134367809Y-130977333D01*
X134329714Y-131015428D01*
X134253523Y-131053523D01*
X134063047Y-131053523D01*
X133986857Y-131015428D01*
X133948761Y-130977333D01*
X133910666Y-130901142D01*
X133910666Y-130748761D01*
X133948761Y-130672571D01*
X133986857Y-130634476D01*
X134063047Y-130596380D01*
X113794657Y-112538223D02*
X112994657Y-112538223D01*
X112994657Y-112728699D01*
X113032753Y-112842985D01*
X113108943Y-112919175D01*
X113185133Y-112957271D01*
X113337514Y-112995366D01*
X113451800Y-112995366D01*
X113604181Y-112957271D01*
X113680372Y-112919175D01*
X113756562Y-112842985D01*
X113794657Y-112728699D01*
X113794657Y-112538223D01*
X113794657Y-113757271D02*
X113794657Y-113300128D01*
X113794657Y-113528699D02*
X112994657Y-113528699D01*
X113108943Y-113452509D01*
X113185133Y-113376318D01*
X113223229Y-113300128D01*
X113794657Y-114519175D02*
X113794657Y-114062032D01*
X113794657Y-114290604D02*
X112994657Y-114290604D01*
X113108943Y-114214413D01*
X113185133Y-114138223D01*
X113223229Y-114062032D01*
X124053609Y-99052380D02*
X124529800Y-99052380D01*
X124529800Y-98052380D01*
X123720276Y-98528571D02*
X123386942Y-98528571D01*
X123244085Y-99052380D02*
X123720276Y-99052380D01*
X123720276Y-98052380D01*
X123244085Y-98052380D01*
X122815514Y-99052380D02*
X122815514Y-98052380D01*
X122577419Y-98052380D01*
X122434562Y-98100000D01*
X122339323Y-98195238D01*
X122291704Y-98290476D01*
X122244085Y-98480952D01*
X122244085Y-98623809D01*
X122291704Y-98814285D01*
X122339323Y-98909523D01*
X122434562Y-99004761D01*
X122577419Y-99052380D01*
X122815514Y-99052380D01*
X121386942Y-98385714D02*
X121386942Y-99052380D01*
X121625038Y-98004761D02*
X121863133Y-98719047D01*
X121244085Y-98719047D01*
X132832385Y-91042169D02*
X132032385Y-91042169D01*
X132032385Y-91232646D01*
X132070481Y-91346931D01*
X132146671Y-91423122D01*
X132222861Y-91461217D01*
X132375242Y-91499312D01*
X132489528Y-91499312D01*
X132641909Y-91461217D01*
X132718100Y-91423122D01*
X132794290Y-91346931D01*
X132832385Y-91232646D01*
X132832385Y-91042169D01*
X132032385Y-91765979D02*
X132032385Y-92299312D01*
X132832385Y-91956455D01*
X113832185Y-93041569D02*
X113032185Y-93041569D01*
X113032185Y-93232046D01*
X113070281Y-93346331D01*
X113146471Y-93422522D01*
X113222661Y-93460617D01*
X113375042Y-93498712D01*
X113489328Y-93498712D01*
X113641709Y-93460617D01*
X113717900Y-93422522D01*
X113794090Y-93346331D01*
X113832185Y-93232046D01*
X113832185Y-93041569D01*
X113032185Y-94184426D02*
X113032185Y-94032046D01*
X113070281Y-93955855D01*
X113108376Y-93917760D01*
X113222661Y-93841569D01*
X113375042Y-93803474D01*
X113679804Y-93803474D01*
X113755995Y-93841569D01*
X113794090Y-93879665D01*
X113832185Y-93955855D01*
X113832185Y-94108236D01*
X113794090Y-94184426D01*
X113755995Y-94222522D01*
X113679804Y-94260617D01*
X113489328Y-94260617D01*
X113413138Y-94222522D01*
X113375042Y-94184426D01*
X113336947Y-94108236D01*
X113336947Y-93955855D01*
X113375042Y-93879665D01*
X113413138Y-93841569D01*
X113489328Y-93803474D01*
X188686419Y-127542884D02*
X187886419Y-127542884D01*
X187886419Y-127733360D01*
X187924515Y-127847646D01*
X188000705Y-127923836D01*
X188076895Y-127961932D01*
X188229276Y-128000027D01*
X188343562Y-128000027D01*
X188495943Y-127961932D01*
X188572134Y-127923836D01*
X188648324Y-127847646D01*
X188686419Y-127733360D01*
X188686419Y-127542884D01*
X188686419Y-128761932D02*
X188686419Y-128304789D01*
X188686419Y-128533360D02*
X187886419Y-128533360D01*
X188000705Y-128457170D01*
X188076895Y-128380979D01*
X188114991Y-128304789D01*
X188686419Y-129142884D02*
X188686419Y-129295265D01*
X188648324Y-129371455D01*
X188610229Y-129409551D01*
X188495943Y-129485741D01*
X188343562Y-129523836D01*
X188038800Y-129523836D01*
X187962610Y-129485741D01*
X187924515Y-129447646D01*
X187886419Y-129371455D01*
X187886419Y-129219074D01*
X187924515Y-129142884D01*
X187962610Y-129104789D01*
X188038800Y-129066693D01*
X188229276Y-129066693D01*
X188305467Y-129104789D01*
X188343562Y-129142884D01*
X188381657Y-129219074D01*
X188381657Y-129371455D01*
X188343562Y-129447646D01*
X188305467Y-129485741D01*
X188229276Y-129523836D01*
X132832385Y-72042569D02*
X132032385Y-72042569D01*
X132032385Y-72233046D01*
X132070481Y-72347331D01*
X132146671Y-72423522D01*
X132222861Y-72461617D01*
X132375242Y-72499712D01*
X132489528Y-72499712D01*
X132641909Y-72461617D01*
X132718100Y-72423522D01*
X132794290Y-72347331D01*
X132832385Y-72233046D01*
X132832385Y-72042569D01*
X132108576Y-72804474D02*
X132070481Y-72842569D01*
X132032385Y-72918760D01*
X132032385Y-73109236D01*
X132070481Y-73185426D01*
X132108576Y-73223522D01*
X132184766Y-73261617D01*
X132260957Y-73261617D01*
X132375242Y-73223522D01*
X132832385Y-72766379D01*
X132832385Y-73261617D01*
X151794257Y-106728223D02*
X150994257Y-106728223D01*
X150994257Y-106918699D01*
X151032353Y-107032985D01*
X151108543Y-107109175D01*
X151184733Y-107147271D01*
X151337114Y-107185366D01*
X151451400Y-107185366D01*
X151603781Y-107147271D01*
X151679972Y-107109175D01*
X151756162Y-107032985D01*
X151794257Y-106918699D01*
X151794257Y-106728223D01*
X151794257Y-107947271D02*
X151794257Y-107490128D01*
X151794257Y-107718699D02*
X150994257Y-107718699D01*
X151108543Y-107642509D01*
X151184733Y-107566318D01*
X151222829Y-107490128D01*
X150994257Y-108213937D02*
X150994257Y-108709175D01*
X151299019Y-108442509D01*
X151299019Y-108556794D01*
X151337114Y-108632985D01*
X151375210Y-108671080D01*
X151451400Y-108709175D01*
X151641876Y-108709175D01*
X151718067Y-108671080D01*
X151756162Y-108632985D01*
X151794257Y-108556794D01*
X151794257Y-108328223D01*
X151756162Y-108252032D01*
X151718067Y-108213937D01*
X113832185Y-74041169D02*
X113032185Y-74041169D01*
X113032185Y-74231646D01*
X113070281Y-74345931D01*
X113146471Y-74422122D01*
X113222661Y-74460217D01*
X113375042Y-74498312D01*
X113489328Y-74498312D01*
X113641709Y-74460217D01*
X113717900Y-74422122D01*
X113794090Y-74345931D01*
X113832185Y-74231646D01*
X113832185Y-74041169D01*
X113832185Y-75260217D02*
X113832185Y-74803074D01*
X113832185Y-75031646D02*
X113032185Y-75031646D01*
X113146471Y-74955455D01*
X113222661Y-74879265D01*
X113260757Y-74803074D01*
X173726409Y-98276861D02*
X174202600Y-98276861D01*
X174202600Y-97276861D01*
X173393076Y-97753052D02*
X173059742Y-97753052D01*
X172916885Y-98276861D02*
X173393076Y-98276861D01*
X173393076Y-97276861D01*
X172916885Y-97276861D01*
X172488314Y-98276861D02*
X172488314Y-97276861D01*
X172250219Y-97276861D01*
X172107362Y-97324481D01*
X172012123Y-97419719D01*
X171964504Y-97514957D01*
X171916885Y-97705433D01*
X171916885Y-97848290D01*
X171964504Y-98038766D01*
X172012123Y-98134004D01*
X172107362Y-98229242D01*
X172250219Y-98276861D01*
X172488314Y-98276861D01*
X171535933Y-97372100D02*
X171488314Y-97324481D01*
X171393076Y-97276861D01*
X171154981Y-97276861D01*
X171059742Y-97324481D01*
X171012123Y-97372100D01*
X170964504Y-97467338D01*
X170964504Y-97562576D01*
X171012123Y-97705433D01*
X171583552Y-98276861D01*
X170964504Y-98276861D01*
X191480419Y-127542884D02*
X190680419Y-127542884D01*
X190680419Y-127733360D01*
X190718515Y-127847646D01*
X190794705Y-127923836D01*
X190870895Y-127961932D01*
X191023276Y-128000027D01*
X191137562Y-128000027D01*
X191289943Y-127961932D01*
X191366134Y-127923836D01*
X191442324Y-127847646D01*
X191480419Y-127733360D01*
X191480419Y-127542884D01*
X190756610Y-128304789D02*
X190718515Y-128342884D01*
X190680419Y-128419074D01*
X190680419Y-128609551D01*
X190718515Y-128685741D01*
X190756610Y-128723836D01*
X190832800Y-128761932D01*
X190908991Y-128761932D01*
X191023276Y-128723836D01*
X191480419Y-128266693D01*
X191480419Y-128761932D01*
X190680419Y-129257170D02*
X190680419Y-129333360D01*
X190718515Y-129409551D01*
X190756610Y-129447646D01*
X190832800Y-129485741D01*
X190985181Y-129523836D01*
X191175657Y-129523836D01*
X191328038Y-129485741D01*
X191404229Y-129447646D01*
X191442324Y-129409551D01*
X191480419Y-129333360D01*
X191480419Y-129257170D01*
X191442324Y-129180979D01*
X191404229Y-129142884D01*
X191328038Y-129104789D01*
X191175657Y-129066693D01*
X190985181Y-129066693D01*
X190832800Y-129104789D01*
X190756610Y-129142884D01*
X190718515Y-129180979D01*
X190680419Y-129257170D01*
X151831785Y-87231769D02*
X151031785Y-87231769D01*
X151031785Y-87422246D01*
X151069881Y-87536531D01*
X151146071Y-87612722D01*
X151222261Y-87650817D01*
X151374642Y-87688912D01*
X151488928Y-87688912D01*
X151641309Y-87650817D01*
X151717500Y-87612722D01*
X151793690Y-87536531D01*
X151831785Y-87422246D01*
X151831785Y-87231769D01*
X151374642Y-88146055D02*
X151336547Y-88069865D01*
X151298452Y-88031769D01*
X151222261Y-87993674D01*
X151184166Y-87993674D01*
X151107976Y-88031769D01*
X151069881Y-88069865D01*
X151031785Y-88146055D01*
X151031785Y-88298436D01*
X151069881Y-88374626D01*
X151107976Y-88412722D01*
X151184166Y-88450817D01*
X151222261Y-88450817D01*
X151298452Y-88412722D01*
X151336547Y-88374626D01*
X151374642Y-88298436D01*
X151374642Y-88146055D01*
X151412738Y-88069865D01*
X151450833Y-88031769D01*
X151527023Y-87993674D01*
X151679404Y-87993674D01*
X151755595Y-88031769D01*
X151793690Y-88069865D01*
X151831785Y-88146055D01*
X151831785Y-88298436D01*
X151793690Y-88374626D01*
X151755595Y-88412722D01*
X151679404Y-88450817D01*
X151527023Y-88450817D01*
X151450833Y-88412722D01*
X151412738Y-88374626D01*
X151374642Y-88298436D01*
X148890009Y-94251780D02*
X149366200Y-94251780D01*
X149366200Y-93251780D01*
X148556676Y-93727971D02*
X148223342Y-93727971D01*
X148080485Y-94251780D02*
X148556676Y-94251780D01*
X148556676Y-93251780D01*
X148080485Y-93251780D01*
X147651914Y-94251780D02*
X147651914Y-93251780D01*
X147413819Y-93251780D01*
X147270962Y-93299400D01*
X147175723Y-93394638D01*
X147128104Y-93489876D01*
X147080485Y-93680352D01*
X147080485Y-93823209D01*
X147128104Y-94013685D01*
X147175723Y-94108923D01*
X147270962Y-94204161D01*
X147413819Y-94251780D01*
X147651914Y-94251780D01*
X146747152Y-93251780D02*
X146128104Y-93251780D01*
X146461438Y-93632733D01*
X146318581Y-93632733D01*
X146223342Y-93680352D01*
X146175723Y-93727971D01*
X146128104Y-93823209D01*
X146128104Y-94061304D01*
X146175723Y-94156542D01*
X146223342Y-94204161D01*
X146318581Y-94251780D01*
X146604295Y-94251780D01*
X146699533Y-94204161D01*
X146747152Y-94156542D01*
D11*
X203828020Y-111995338D02*
X203828020Y-112352481D01*
X203851830Y-112423909D01*
X203899449Y-112471528D01*
X203970877Y-112495338D01*
X204018496Y-112495338D01*
X203589925Y-112495338D02*
X203589925Y-111995338D01*
X203399449Y-111995338D01*
X203351830Y-112019148D01*
X203328020Y-112042957D01*
X203304211Y-112090576D01*
X203304211Y-112162005D01*
X203328020Y-112209624D01*
X203351830Y-112233433D01*
X203399449Y-112257243D01*
X203589925Y-112257243D01*
X203113734Y-112042957D02*
X203089925Y-112019148D01*
X203042306Y-111995338D01*
X202923258Y-111995338D01*
X202875639Y-112019148D01*
X202851830Y-112042957D01*
X202828020Y-112090576D01*
X202828020Y-112138195D01*
X202851830Y-112209624D01*
X203137544Y-112495338D01*
X202828020Y-112495338D01*
D10*
X202539108Y-90560710D02*
X203253394Y-90560710D01*
X203396251Y-90513091D01*
X203491489Y-90417853D01*
X203539108Y-90274995D01*
X203539108Y-90179757D01*
X203539108Y-91036900D02*
X202539108Y-91036900D01*
X202539108Y-91417853D01*
X202586728Y-91513091D01*
X202634347Y-91560710D01*
X202729585Y-91608329D01*
X202872442Y-91608329D01*
X202967680Y-91560710D01*
X203015299Y-91513091D01*
X203062918Y-91417853D01*
X203062918Y-91036900D01*
X203539108Y-92560710D02*
X203539108Y-91989281D01*
X203539108Y-92274995D02*
X202539108Y-92274995D01*
X202681966Y-92179757D01*
X202777204Y-92084519D01*
X202824823Y-91989281D01*
X203539108Y-93513091D02*
X203539108Y-92941662D01*
X203539108Y-93227376D02*
X202539108Y-93227376D01*
X202681966Y-93132138D01*
X202777204Y-93036900D01*
X202824823Y-92941662D01*
D11*
X201288020Y-111995338D02*
X201288020Y-112352481D01*
X201311830Y-112423909D01*
X201359449Y-112471528D01*
X201430877Y-112495338D01*
X201478496Y-112495338D01*
X201049925Y-112495338D02*
X201049925Y-111995338D01*
X200859449Y-111995338D01*
X200811830Y-112019148D01*
X200788020Y-112042957D01*
X200764211Y-112090576D01*
X200764211Y-112162005D01*
X200788020Y-112209624D01*
X200811830Y-112233433D01*
X200859449Y-112257243D01*
X201049925Y-112257243D01*
X200288020Y-112495338D02*
X200573734Y-112495338D01*
X200430877Y-112495338D02*
X200430877Y-111995338D01*
X200478496Y-112066767D01*
X200526115Y-112114386D01*
X200573734Y-112138195D01*
D10*
X187090047Y-60940485D02*
X187423381Y-60464295D01*
X187661476Y-60940485D02*
X187661476Y-59940485D01*
X187280523Y-59940485D01*
X187185285Y-59988105D01*
X187137666Y-60035724D01*
X187090047Y-60130962D01*
X187090047Y-60273819D01*
X187137666Y-60369057D01*
X187185285Y-60416676D01*
X187280523Y-60464295D01*
X187661476Y-60464295D01*
X186709095Y-60892866D02*
X186566238Y-60940485D01*
X186328142Y-60940485D01*
X186232904Y-60892866D01*
X186185285Y-60845247D01*
X186137666Y-60750009D01*
X186137666Y-60654771D01*
X186185285Y-60559533D01*
X186232904Y-60511914D01*
X186328142Y-60464295D01*
X186518619Y-60416676D01*
X186613857Y-60369057D01*
X186661476Y-60321438D01*
X186709095Y-60226200D01*
X186709095Y-60130962D01*
X186661476Y-60035724D01*
X186613857Y-59988105D01*
X186518619Y-59940485D01*
X186280523Y-59940485D01*
X186137666Y-59988105D01*
X185804333Y-59940485D02*
X185566238Y-60940485D01*
X185375762Y-60226200D01*
X185185285Y-60940485D01*
X184947190Y-59940485D01*
X184613857Y-60035724D02*
X184566238Y-59988105D01*
X184471000Y-59940485D01*
X184232904Y-59940485D01*
X184137666Y-59988105D01*
X184090047Y-60035724D01*
X184042428Y-60130962D01*
X184042428Y-60226200D01*
X184090047Y-60369057D01*
X184661476Y-60940485D01*
X184042428Y-60940485D01*
D11*
X206368020Y-111995338D02*
X206368020Y-112352481D01*
X206391830Y-112423909D01*
X206439449Y-112471528D01*
X206510877Y-112495338D01*
X206558496Y-112495338D01*
X206129925Y-112495338D02*
X206129925Y-111995338D01*
X205939449Y-111995338D01*
X205891830Y-112019148D01*
X205868020Y-112042957D01*
X205844211Y-112090576D01*
X205844211Y-112162005D01*
X205868020Y-112209624D01*
X205891830Y-112233433D01*
X205939449Y-112257243D01*
X206129925Y-112257243D01*
X205677544Y-111995338D02*
X205368020Y-111995338D01*
X205534687Y-112185814D01*
X205463258Y-112185814D01*
X205415639Y-112209624D01*
X205391830Y-112233433D01*
X205368020Y-112281052D01*
X205368020Y-112400100D01*
X205391830Y-112447719D01*
X205415639Y-112471528D01*
X205463258Y-112495338D01*
X205606115Y-112495338D01*
X205653734Y-112471528D01*
X205677544Y-112447719D01*
X208908020Y-111995338D02*
X208908020Y-112352481D01*
X208931830Y-112423909D01*
X208979449Y-112471528D01*
X209050877Y-112495338D01*
X209098496Y-112495338D01*
X208669925Y-112495338D02*
X208669925Y-111995338D01*
X208479449Y-111995338D01*
X208431830Y-112019148D01*
X208408020Y-112042957D01*
X208384211Y-112090576D01*
X208384211Y-112162005D01*
X208408020Y-112209624D01*
X208431830Y-112233433D01*
X208479449Y-112257243D01*
X208669925Y-112257243D01*
X207955639Y-112162005D02*
X207955639Y-112495338D01*
X208074687Y-111971528D02*
X208193734Y-112328671D01*
X207884211Y-112328671D01*
D10*
X131926517Y-105917884D02*
X126876517Y-105963884D01*
X131926517Y-101963884D02*
X123301517Y-101963884D01*
X121026517Y-107871884D02*
X124636517Y-107871884D01*
X131926517Y-105871884D02*
X131926517Y-101963884D01*
X121026517Y-103917884D02*
X121026517Y-107862884D01*
X123301517Y-101963884D02*
G75*
G03*
X121037517Y-103847884I-190000J-2074000D01*
G01*
X126901517Y-105967885D02*
G75*
G03*
X124641518Y-107847883I-190001J-2069997D01*
G01*
D12*
X174109928Y-107879994D02*
X171709928Y-107879994D01*
X171709928Y-107879994D02*
X171709928Y-113879994D01*
X171709928Y-113879994D02*
X174109928Y-113879994D01*
X174109928Y-113879994D02*
X174109928Y-107879994D01*
G36*
X174109928Y-113879994D02*
G01*
X171709928Y-113879994D01*
X171709928Y-113321594D01*
X174109928Y-113321594D01*
X174109928Y-113879994D01*
G37*
X174109928Y-113879994D02*
X171709928Y-113879994D01*
X171709928Y-113321594D01*
X174109928Y-113321594D01*
X174109928Y-113879994D01*
D10*
X131926517Y-82964284D02*
X123301517Y-82964284D01*
X121026517Y-88872284D02*
X124636517Y-88872284D01*
X121026517Y-84918284D02*
X121026517Y-88863284D01*
X131926517Y-86872284D02*
X131926517Y-82964284D01*
X131926517Y-86918284D02*
X126876517Y-86964284D01*
X123301517Y-82964284D02*
G75*
G03*
X121037517Y-84848284I-190000J-2074000D01*
G01*
X126901517Y-86968285D02*
G75*
G03*
X124641518Y-88848283I-190001J-2069997D01*
G01*
D13*
X210122244Y-134314699D02*
X207804022Y-133693533D01*
X214758688Y-135557030D02*
X212247281Y-134884101D01*
X219201947Y-136747598D02*
X216883725Y-136126432D01*
X207804022Y-133693533D02*
X206742864Y-137653829D01*
X216044354Y-148531893D02*
X204646429Y-145477828D01*
X206312527Y-147373644D02*
X206100395Y-147006221D01*
X218140788Y-140707894D02*
X219201947Y-136747598D01*
X205945104Y-147585776D02*
X206312527Y-147373644D01*
X211794778Y-141595676D02*
X212053598Y-140629750D01*
X212407151Y-141242123D02*
X211441225Y-140983303D01*
X217105512Y-144571597D02*
X216044354Y-148531893D01*
X205707588Y-141517532D02*
X204646429Y-145477828D01*
X206100395Y-147006221D02*
X205945104Y-147585776D01*
X214924188Y-141112713D02*
G75*
G03*
X214924188Y-141112713I-3000000J0D01*
G01*
D10*
X217327858Y-139542676D02*
X218339322Y-135767838D01*
X218339322Y-135767838D02*
X210008212Y-133535524D01*
X206281628Y-138653400D02*
X209768620Y-139587737D01*
X207304998Y-134834129D02*
X206283957Y-138644707D01*
X217315952Y-139587109D02*
X212426121Y-138324505D01*
X210008212Y-133535523D02*
G75*
G03*
X207333741Y-134769361I-720316J-1954155D01*
G01*
X212449234Y-138334840D02*
G75*
G03*
X209779663Y-139565848I-719282J-1950288D01*
G01*
D12*
X174109928Y-88879594D02*
X171709928Y-88879594D01*
X171709928Y-88879594D02*
X171709928Y-94879594D01*
X171709928Y-94879594D02*
X174109928Y-94879594D01*
X174109928Y-94879594D02*
X174109928Y-88879594D01*
G36*
X174109928Y-94879594D02*
G01*
X171709928Y-94879594D01*
X171709928Y-94321194D01*
X174109928Y-94321194D01*
X174109928Y-94879594D01*
G37*
X174109928Y-94879594D02*
X171709928Y-94879594D01*
X171709928Y-94321194D01*
X174109928Y-94321194D01*
X174109928Y-94879594D01*
X184347000Y-127080234D02*
X186747000Y-127080234D01*
X186747000Y-127080234D02*
X186747000Y-121080234D01*
X186747000Y-121080234D02*
X184347000Y-121080234D01*
X184347000Y-121080234D02*
X184347000Y-127080234D01*
G36*
X186747000Y-121638634D02*
G01*
X184347000Y-121638634D01*
X184347000Y-121080234D01*
X186747000Y-121080234D01*
X186747000Y-121638634D01*
G37*
X186747000Y-121638634D02*
X184347000Y-121638634D01*
X184347000Y-121080234D01*
X186747000Y-121080234D01*
X186747000Y-121638634D01*
D11*
X132654580Y-130069400D02*
G75*
G03*
X132654580Y-130069400I-2200000J0D01*
G01*
G36*
X129912162Y-130537971D02*
G01*
X130088711Y-130615412D01*
X130257670Y-130740333D01*
X130508513Y-130935481D01*
X130746695Y-131070825D01*
X130973396Y-131147022D01*
X130994170Y-131151169D01*
X131074817Y-131172997D01*
X131094634Y-131197762D01*
X131053331Y-131226837D01*
X130972215Y-131255291D01*
X130793133Y-131291389D01*
X130586417Y-131306074D01*
X130381528Y-131298649D01*
X130224992Y-131272983D01*
X129992443Y-131193495D01*
X129794676Y-131084220D01*
X129640749Y-130951221D01*
X129549543Y-130820933D01*
X129497449Y-130692944D01*
X129493815Y-130602399D01*
X129541001Y-130545240D01*
X129641371Y-130517408D01*
X129728729Y-130513099D01*
X129912162Y-130537971D01*
G37*
G36*
X130459131Y-128789271D02*
G01*
X130708794Y-128841511D01*
X130733344Y-128848491D01*
X130921463Y-128920792D01*
X131088268Y-129018735D01*
X131224577Y-129134038D01*
X131321208Y-129258420D01*
X131368980Y-129383600D01*
X131372461Y-129424905D01*
X131349590Y-129527411D01*
X131282756Y-129588170D01*
X131174630Y-129606333D01*
X131027880Y-129581052D01*
X130955537Y-129557337D01*
X130880310Y-129520010D01*
X130772565Y-129454116D01*
X130648224Y-129369830D01*
X130552362Y-129299687D01*
X130411575Y-129201140D01*
X130259265Y-129107995D01*
X130108833Y-129027161D01*
X129973682Y-128965552D01*
X129867212Y-128930077D01*
X129824253Y-128924199D01*
X129792149Y-128904355D01*
X129790776Y-128896526D01*
X129818562Y-128876231D01*
X129891826Y-128848428D01*
X129995429Y-128818751D01*
X130008499Y-128815498D01*
X130231944Y-128780884D01*
X130459131Y-128789271D01*
G37*
D10*
X112926317Y-69871284D02*
X112926317Y-65963284D01*
X102026317Y-67917284D02*
X102026317Y-71862284D01*
X112926317Y-65963284D02*
X104301317Y-65963284D01*
X102026317Y-71871284D02*
X105636317Y-71871284D01*
X112926317Y-69917284D02*
X107876317Y-69963284D01*
X107901317Y-69967285D02*
G75*
G03*
X105641318Y-71847283I-190001J-2069997D01*
G01*
X104301317Y-65963284D02*
G75*
G03*
X102037317Y-67847284I-190000J-2074000D01*
G01*
D13*
X193793762Y-114073833D02*
X193793762Y-106773833D01*
X193793762Y-106773833D02*
X194943762Y-106773833D01*
X199293762Y-114073833D02*
X199293762Y-106773833D01*
D10*
X112926317Y-88917684D02*
X107876317Y-88963684D01*
X102026317Y-90871684D02*
X105636317Y-90871684D01*
X102026317Y-86917684D02*
X102026317Y-90862684D01*
X112926317Y-88871684D02*
X112926317Y-84963684D01*
X112926317Y-84963684D02*
X104301317Y-84963684D01*
X104301317Y-84963684D02*
G75*
G03*
X102037317Y-86847684I-190000J-2074000D01*
G01*
X107901317Y-88967685D02*
G75*
G03*
X105641318Y-90847683I-190001J-2069997D01*
G01*
D12*
X136110328Y-107879394D02*
X133710328Y-107879394D01*
X133710328Y-107879394D02*
X133710328Y-113879394D01*
X133710328Y-113879394D02*
X136110328Y-113879394D01*
X136110328Y-113879394D02*
X136110328Y-107879394D01*
G36*
X136110328Y-113879394D02*
G01*
X133710328Y-113879394D01*
X133710328Y-113320994D01*
X136110328Y-113320994D01*
X136110328Y-113879394D01*
G37*
X136110328Y-113879394D02*
X133710328Y-113879394D01*
X133710328Y-113320994D01*
X136110328Y-113320994D01*
X136110328Y-113879394D01*
X174109928Y-69879634D02*
X171709928Y-69879634D01*
X171709928Y-69879634D02*
X171709928Y-75879634D01*
X171709928Y-75879634D02*
X174109928Y-75879634D01*
X174109928Y-75879634D02*
X174109928Y-69879634D01*
G36*
X174109928Y-75879634D02*
G01*
X171709928Y-75879634D01*
X171709928Y-75321234D01*
X174109928Y-75321234D01*
X174109928Y-75879634D01*
G37*
X174109928Y-75879634D02*
X171709928Y-75879634D01*
X171709928Y-75321234D01*
X174109928Y-75321234D01*
X174109928Y-75879634D01*
X193109626Y-91879994D02*
X190709626Y-91879994D01*
X190709626Y-91879994D02*
X190709626Y-97879994D01*
X190709626Y-97879994D02*
X193109626Y-97879994D01*
X193109626Y-97879994D02*
X193109626Y-91879994D01*
G36*
X193109626Y-97879994D02*
G01*
X190709626Y-97879994D01*
X190709626Y-97321594D01*
X193109626Y-97321594D01*
X193109626Y-97879994D01*
G37*
X193109626Y-97879994D02*
X190709626Y-97879994D01*
X190709626Y-97321594D01*
X193109626Y-97321594D01*
X193109626Y-97879994D01*
X155109728Y-66069434D02*
X152709728Y-66069434D01*
X152709728Y-66069434D02*
X152709728Y-72069434D01*
X152709728Y-72069434D02*
X155109728Y-72069434D01*
X155109728Y-72069434D02*
X155109728Y-66069434D01*
G36*
X155109728Y-72069434D02*
G01*
X152709728Y-72069434D01*
X152709728Y-71511034D01*
X155109728Y-71511034D01*
X155109728Y-72069434D01*
G37*
X155109728Y-72069434D02*
X152709728Y-72069434D01*
X152709728Y-71511034D01*
X155109728Y-71511034D01*
X155109728Y-72069434D01*
X193109626Y-110879994D02*
X190709626Y-110879994D01*
X190709626Y-110879994D02*
X190709626Y-116879994D01*
X190709626Y-116879994D02*
X193109626Y-116879994D01*
X193109626Y-116879994D02*
X193109626Y-110879994D01*
G36*
X193109626Y-116879994D02*
G01*
X190709626Y-116879994D01*
X190709626Y-116321594D01*
X193109626Y-116321594D01*
X193109626Y-116879994D01*
G37*
X193109626Y-116879994D02*
X190709626Y-116879994D01*
X190709626Y-116321594D01*
X193109626Y-116321594D01*
X193109626Y-116879994D01*
D10*
X209770639Y-108534021D02*
X199610639Y-108534021D01*
X199610639Y-108534021D02*
X199610639Y-105994021D01*
X199610639Y-105994021D02*
X209770639Y-105994021D01*
X209770639Y-105994021D02*
X209770639Y-108534021D01*
X188153398Y-132243331D02*
X187132357Y-136053909D01*
X187130028Y-136062602D02*
X190617020Y-136996939D01*
X199187722Y-133177040D02*
X190856612Y-130944726D01*
X198176258Y-136951878D02*
X199187722Y-133177040D01*
X198164352Y-136996311D02*
X193274521Y-135733707D01*
X190856612Y-130944725D02*
G75*
G03*
X188182141Y-132178563I-720316J-1954155D01*
G01*
X193297634Y-135744042D02*
G75*
G03*
X190628063Y-136975050I-719282J-1950288D01*
G01*
D11*
X148312954Y-130069400D02*
G75*
G03*
X148312954Y-130069400I-2200000J0D01*
G01*
G36*
X145570536Y-130537971D02*
G01*
X145747085Y-130615412D01*
X145916044Y-130740333D01*
X146166887Y-130935481D01*
X146405069Y-131070825D01*
X146631770Y-131147022D01*
X146652544Y-131151169D01*
X146733191Y-131172997D01*
X146753008Y-131197762D01*
X146711705Y-131226837D01*
X146630589Y-131255291D01*
X146451507Y-131291389D01*
X146244791Y-131306074D01*
X146039902Y-131298649D01*
X145883366Y-131272983D01*
X145650817Y-131193495D01*
X145453050Y-131084220D01*
X145299123Y-130951221D01*
X145207917Y-130820933D01*
X145155823Y-130692944D01*
X145152189Y-130602399D01*
X145199375Y-130545240D01*
X145299745Y-130517408D01*
X145387103Y-130513099D01*
X145570536Y-130537971D01*
G37*
G36*
X146117505Y-128789271D02*
G01*
X146367168Y-128841511D01*
X146391718Y-128848491D01*
X146579837Y-128920792D01*
X146746642Y-129018735D01*
X146882951Y-129134038D01*
X146979582Y-129258420D01*
X147027354Y-129383600D01*
X147030835Y-129424905D01*
X147007964Y-129527411D01*
X146941130Y-129588170D01*
X146833004Y-129606333D01*
X146686254Y-129581052D01*
X146613911Y-129557337D01*
X146538684Y-129520010D01*
X146430939Y-129454116D01*
X146306598Y-129369830D01*
X146210736Y-129299687D01*
X146069949Y-129201140D01*
X145917639Y-129107995D01*
X145767207Y-129027161D01*
X145632056Y-128965552D01*
X145525586Y-128930077D01*
X145482627Y-128924199D01*
X145450523Y-128904355D01*
X145449150Y-128896526D01*
X145476936Y-128876231D01*
X145550200Y-128848428D01*
X145653803Y-128818751D01*
X145666873Y-128815498D01*
X145890318Y-128780884D01*
X146117505Y-128789271D01*
G37*
D12*
X193109755Y-72880550D02*
X190709755Y-72880550D01*
X190709755Y-72880550D02*
X190709755Y-78880550D01*
X190709755Y-78880550D02*
X193109755Y-78880550D01*
X193109755Y-78880550D02*
X193109755Y-72880550D01*
G36*
X193109755Y-78880550D02*
G01*
X190709755Y-78880550D01*
X190709755Y-78322150D01*
X193109755Y-78322150D01*
X193109755Y-78880550D01*
G37*
X193109755Y-78880550D02*
X190709755Y-78880550D01*
X190709755Y-78322150D01*
X193109755Y-78322150D01*
X193109755Y-78880550D01*
D10*
X150925917Y-102108084D02*
X145875917Y-102154084D01*
X140025917Y-104062084D02*
X143635917Y-104062084D01*
X150925917Y-102062084D02*
X150925917Y-98154084D01*
X150925917Y-98154084D02*
X142300917Y-98154084D01*
X140025917Y-100108084D02*
X140025917Y-104053084D01*
X145900917Y-102158085D02*
G75*
G03*
X143640918Y-104038083I-190001J-2069997D01*
G01*
X142300917Y-98154084D02*
G75*
G03*
X140036917Y-100038084I-190000J-2074000D01*
G01*
D12*
X151483000Y-128869400D02*
X157483000Y-128869400D01*
X157483000Y-128869400D02*
X157483000Y-131269400D01*
X157483000Y-131269400D02*
X151483000Y-131269400D01*
X151483000Y-131269400D02*
X151483000Y-128869400D01*
G36*
X157483000Y-131269400D02*
G01*
X156924600Y-131269400D01*
X156924600Y-128869400D01*
X157483000Y-128869400D01*
X157483000Y-131269400D01*
G37*
X157483000Y-131269400D02*
X156924600Y-131269400D01*
X156924600Y-128869400D01*
X157483000Y-128869400D01*
X157483000Y-131269400D01*
D10*
X159026117Y-69872124D02*
X162636117Y-69872124D01*
X169926117Y-63964124D02*
X161301117Y-63964124D01*
X159026117Y-65918124D02*
X159026117Y-69863124D01*
X169926117Y-67918124D02*
X164876117Y-67964124D01*
X169926117Y-67872124D02*
X169926117Y-63964124D01*
X161301117Y-63964124D02*
G75*
G03*
X159037117Y-65848124I-190000J-2074000D01*
G01*
X164901117Y-67968125D02*
G75*
G03*
X162641118Y-69848123I-190001J-2069997D01*
G01*
X131926517Y-67918684D02*
X126876517Y-67964684D01*
X131926517Y-63964684D02*
X123301517Y-63964684D01*
X131926517Y-67872684D02*
X131926517Y-63964684D01*
X121026517Y-69872684D02*
X124636517Y-69872684D01*
X121026517Y-65918684D02*
X121026517Y-69863684D01*
X123301517Y-63964684D02*
G75*
G03*
X121037517Y-65848684I-190000J-2074000D01*
G01*
X126901517Y-67968685D02*
G75*
G03*
X124641518Y-69848683I-190001J-2069997D01*
G01*
X178025815Y-68918684D02*
X178025815Y-72863684D01*
X188925815Y-70872684D02*
X188925815Y-66964684D01*
X178025815Y-72872684D02*
X181635815Y-72872684D01*
X188925815Y-66964684D02*
X180300815Y-66964684D01*
X188925815Y-70918684D02*
X183875815Y-70964684D01*
X183900815Y-70968685D02*
G75*
G03*
X181640816Y-72848683I-190001J-2069997D01*
G01*
X180300815Y-66964684D02*
G75*
G03*
X178036815Y-68848684I-190000J-2074000D01*
G01*
D12*
X134487400Y-128869400D02*
X140487400Y-128869400D01*
X140487400Y-128869400D02*
X140487400Y-131269400D01*
X140487400Y-131269400D02*
X134487400Y-131269400D01*
X134487400Y-131269400D02*
X134487400Y-128869400D01*
G36*
X140487400Y-131269400D02*
G01*
X139929000Y-131269400D01*
X139929000Y-128869400D01*
X140487400Y-128869400D01*
X140487400Y-131269400D01*
G37*
X140487400Y-131269400D02*
X139929000Y-131269400D01*
X139929000Y-128869400D01*
X140487400Y-128869400D01*
X140487400Y-131269400D01*
X117110128Y-109879594D02*
X114710128Y-109879594D01*
X114710128Y-109879594D02*
X114710128Y-115879594D01*
X114710128Y-115879594D02*
X117110128Y-115879594D01*
X117110128Y-115879594D02*
X117110128Y-109879594D01*
G36*
X117110128Y-115879594D02*
G01*
X114710128Y-115879594D01*
X114710128Y-115321194D01*
X117110128Y-115321194D01*
X117110128Y-115879594D01*
G37*
X117110128Y-115879594D02*
X114710128Y-115879594D01*
X114710128Y-115321194D01*
X117110128Y-115321194D01*
X117110128Y-115879594D01*
D13*
X119284562Y-101442319D02*
X119284562Y-100292319D01*
X126584562Y-95942319D02*
X119284562Y-95942319D01*
X126584562Y-101442319D02*
X119284562Y-101442319D01*
D12*
X136110328Y-88879794D02*
X133710328Y-88879794D01*
X133710328Y-88879794D02*
X133710328Y-94879794D01*
X133710328Y-94879794D02*
X136110328Y-94879794D01*
X136110328Y-94879794D02*
X136110328Y-88879794D01*
G36*
X136110328Y-94879794D02*
G01*
X133710328Y-94879794D01*
X133710328Y-94321394D01*
X136110328Y-94321394D01*
X136110328Y-94879794D01*
G37*
X136110328Y-94879794D02*
X133710328Y-94879794D01*
X133710328Y-94321394D01*
X136110328Y-94321394D01*
X136110328Y-94879794D01*
X117110128Y-90879194D02*
X114710128Y-90879194D01*
X114710128Y-90879194D02*
X114710128Y-96879194D01*
X114710128Y-96879194D02*
X117110128Y-96879194D01*
X117110128Y-96879194D02*
X117110128Y-90879194D01*
G36*
X117110128Y-96879194D02*
G01*
X114710128Y-96879194D01*
X114710128Y-96320794D01*
X117110128Y-96320794D01*
X117110128Y-96879194D01*
G37*
X117110128Y-96879194D02*
X114710128Y-96879194D01*
X114710128Y-96320794D01*
X117110128Y-96320794D01*
X117110128Y-96879194D01*
X187141000Y-127080234D02*
X189541000Y-127080234D01*
X189541000Y-127080234D02*
X189541000Y-121080234D01*
X189541000Y-121080234D02*
X187141000Y-121080234D01*
X187141000Y-121080234D02*
X187141000Y-127080234D01*
G36*
X189541000Y-121638634D02*
G01*
X187141000Y-121638634D01*
X187141000Y-121080234D01*
X189541000Y-121080234D01*
X189541000Y-121638634D01*
G37*
X189541000Y-121638634D02*
X187141000Y-121638634D01*
X187141000Y-121080234D01*
X189541000Y-121080234D01*
X189541000Y-121638634D01*
X136110328Y-69880194D02*
X133710328Y-69880194D01*
X133710328Y-69880194D02*
X133710328Y-75880194D01*
X133710328Y-75880194D02*
X136110328Y-75880194D01*
X136110328Y-75880194D02*
X136110328Y-69880194D01*
G36*
X136110328Y-75880194D02*
G01*
X133710328Y-75880194D01*
X133710328Y-75321794D01*
X136110328Y-75321794D01*
X136110328Y-75880194D01*
G37*
X136110328Y-75880194D02*
X133710328Y-75880194D01*
X133710328Y-75321794D01*
X136110328Y-75321794D01*
X136110328Y-75880194D01*
D10*
X159026117Y-107872484D02*
X162636117Y-107872484D01*
X169926117Y-105872484D02*
X169926117Y-101964484D01*
X169926117Y-105918484D02*
X164876117Y-105964484D01*
X159026117Y-103918484D02*
X159026117Y-107863484D01*
X169926117Y-101964484D02*
X161301117Y-101964484D01*
X161301117Y-101964484D02*
G75*
G03*
X159037117Y-103848484I-190000J-2074000D01*
G01*
X164901117Y-105968485D02*
G75*
G03*
X162641118Y-107848483I-190001J-2069997D01*
G01*
D12*
X155109728Y-104069594D02*
X152709728Y-104069594D01*
X152709728Y-104069594D02*
X152709728Y-110069594D01*
X152709728Y-110069594D02*
X155109728Y-110069594D01*
X155109728Y-110069594D02*
X155109728Y-104069594D01*
G36*
X155109728Y-110069594D02*
G01*
X152709728Y-110069594D01*
X152709728Y-109511194D01*
X155109728Y-109511194D01*
X155109728Y-110069594D01*
G37*
X155109728Y-110069594D02*
X152709728Y-110069594D01*
X152709728Y-109511194D01*
X155109728Y-109511194D01*
X155109728Y-110069594D01*
X117110128Y-71878794D02*
X114710128Y-71878794D01*
X114710128Y-71878794D02*
X114710128Y-77878794D01*
X114710128Y-77878794D02*
X117110128Y-77878794D01*
X117110128Y-77878794D02*
X117110128Y-71878794D01*
G36*
X117110128Y-77878794D02*
G01*
X114710128Y-77878794D01*
X114710128Y-77320394D01*
X117110128Y-77320394D01*
X117110128Y-77878794D01*
G37*
X117110128Y-77878794D02*
X114710128Y-77878794D01*
X114710128Y-77320394D01*
X117110128Y-77320394D01*
X117110128Y-77878794D01*
D13*
X168957362Y-100632319D02*
X168957362Y-99482319D01*
X176257362Y-95132319D02*
X168957362Y-95132319D01*
X176257362Y-100632319D02*
X168957362Y-100632319D01*
D10*
X200513700Y-113180634D02*
X212513700Y-113180634D01*
X212513700Y-113180634D02*
X212513700Y-119180634D01*
X212513700Y-119180634D02*
X200513700Y-119180634D01*
X200513700Y-119180634D02*
X200513700Y-113180634D01*
D13*
X214545700Y-114120634D02*
X212545700Y-114120634D01*
X212545700Y-114120634D02*
X212545700Y-118362434D01*
X212545700Y-118362434D02*
X214545700Y-118362434D01*
X214545700Y-118362434D02*
X214545700Y-114120634D01*
D12*
X189935000Y-127080234D02*
X192335000Y-127080234D01*
X192335000Y-127080234D02*
X192335000Y-121080234D01*
X192335000Y-121080234D02*
X189935000Y-121080234D01*
X189935000Y-121080234D02*
X189935000Y-127080234D01*
G36*
X192335000Y-121638634D02*
G01*
X189935000Y-121638634D01*
X189935000Y-121080234D01*
X192335000Y-121080234D01*
X192335000Y-121638634D01*
G37*
X192335000Y-121638634D02*
X189935000Y-121638634D01*
X189935000Y-121080234D01*
X192335000Y-121080234D01*
X192335000Y-121638634D01*
D10*
X179976432Y-130805484D02*
X180987896Y-127030646D01*
X168930202Y-129916208D02*
X172417194Y-130850545D01*
X180987896Y-127030646D02*
X172656786Y-124798332D01*
X169953572Y-126096937D02*
X168932531Y-129907515D01*
X179964526Y-130849917D02*
X175074695Y-129587313D01*
X175097808Y-129597648D02*
G75*
G03*
X172428237Y-130828656I-719282J-1950288D01*
G01*
X172656786Y-124798331D02*
G75*
G03*
X169982315Y-126032169I-720316J-1954155D01*
G01*
X188925815Y-108872484D02*
X188925815Y-104964484D01*
X178025815Y-110872484D02*
X181635815Y-110872484D01*
X188925815Y-104964484D02*
X180300815Y-104964484D01*
X188925815Y-108918484D02*
X183875815Y-108964484D01*
X178025815Y-106918484D02*
X178025815Y-110863484D01*
X180300815Y-104964484D02*
G75*
G03*
X178036815Y-106848484I-190000J-2074000D01*
G01*
X183900815Y-108968485D02*
G75*
G03*
X181640816Y-110848483I-190001J-2069997D01*
G01*
X159026117Y-88872084D02*
X162636117Y-88872084D01*
X159026117Y-84918084D02*
X159026117Y-88863084D01*
X169926117Y-82964084D02*
X161301117Y-82964084D01*
X169926117Y-86872084D02*
X169926117Y-82964084D01*
X169926117Y-86918084D02*
X164876117Y-86964084D01*
X164901117Y-86968085D02*
G75*
G03*
X162641118Y-88848083I-190001J-2069997D01*
G01*
X161301117Y-82964084D02*
G75*
G03*
X159037117Y-84848084I-190000J-2074000D01*
G01*
D12*
X155109728Y-85069394D02*
X152709728Y-85069394D01*
X152709728Y-85069394D02*
X152709728Y-91069394D01*
X152709728Y-91069394D02*
X155109728Y-91069394D01*
X155109728Y-91069394D02*
X155109728Y-85069394D01*
G36*
X155109728Y-91069394D02*
G01*
X152709728Y-91069394D01*
X152709728Y-90510994D01*
X155109728Y-90510994D01*
X155109728Y-91069394D01*
G37*
X155109728Y-91069394D02*
X152709728Y-91069394D01*
X152709728Y-90510994D01*
X155109728Y-90510994D01*
X155109728Y-91069394D01*
D13*
X151420962Y-96641719D02*
X144120962Y-96641719D01*
X144120962Y-96641719D02*
X144120962Y-95491719D01*
X151420962Y-91141719D02*
X144120962Y-91141719D01*
D10*
X188925815Y-85964484D02*
X180300815Y-85964484D01*
X178025815Y-87918484D02*
X178025815Y-91863484D01*
X188925815Y-89918484D02*
X183875815Y-89964484D01*
X188925815Y-89872484D02*
X188925815Y-85964484D01*
X178025815Y-91872484D02*
X181635815Y-91872484D01*
X183900815Y-89968485D02*
G75*
G03*
X181640816Y-91848483I-190001J-2069997D01*
G01*
X180300815Y-85964484D02*
G75*
G03*
X178036815Y-87848484I-190000J-2074000D01*
G01*
X140025917Y-62107924D02*
X140025917Y-66052924D01*
X150925917Y-64107924D02*
X145875917Y-64153924D01*
X150925917Y-60153924D02*
X142300917Y-60153924D01*
X150925917Y-64061924D02*
X150925917Y-60153924D01*
X140025917Y-66061924D02*
X143635917Y-66061924D01*
X142300917Y-60153924D02*
G75*
G03*
X140036917Y-62037924I-190000J-2074000D01*
G01*
X145900917Y-64157925D02*
G75*
G03*
X143640918Y-66037923I-190001J-2069997D01*
G01*
X150925917Y-83061884D02*
X150925917Y-79153884D01*
X150925917Y-79153884D02*
X142300917Y-79153884D01*
X150925917Y-83107884D02*
X145875917Y-83153884D01*
X140025917Y-81107884D02*
X140025917Y-85052884D01*
X140025917Y-85061884D02*
X143635917Y-85061884D01*
X145900917Y-83157885D02*
G75*
G03*
X143640918Y-85037883I-190001J-2069997D01*
G01*
X142300917Y-79153884D02*
G75*
G03*
X140036917Y-81037884I-190000J-2074000D01*
G01*
X102026317Y-105918084D02*
X102026317Y-109863084D01*
X112926317Y-107872084D02*
X112926317Y-103964084D01*
X102026317Y-109872084D02*
X105636317Y-109872084D01*
X112926317Y-103964084D02*
X104301317Y-103964084D01*
X112926317Y-107918084D02*
X107876317Y-107964084D01*
X107901317Y-107968085D02*
G75*
G03*
X105641318Y-109848083I-190001J-2069997D01*
G01*
X104301317Y-103964084D02*
G75*
G03*
X102037317Y-105848084I-190000J-2074000D01*
G01*
D13*
X203720639Y-108999948D02*
X203120639Y-108999948D01*
X204420639Y-111099948D02*
X204420639Y-109699948D01*
X203120639Y-111799948D02*
X203720639Y-111799948D01*
X202420639Y-109699948D02*
X202420639Y-111099948D01*
X202420639Y-111099948D02*
G75*
G03*
X203120639Y-111799948I700000J0D01*
G01*
X203120639Y-108999948D02*
G75*
G03*
X202420639Y-109699948I-1J-699999D01*
G01*
X203720639Y-111799948D02*
G75*
G03*
X204420639Y-111099948I0J700000D01*
G01*
X204420639Y-109699948D02*
G75*
G03*
X203720639Y-108999948I-699999J1D01*
G01*
X138289754Y-118515010D02*
X136664154Y-118515010D01*
X154037754Y-137260210D02*
X154037754Y-135533010D01*
X136664154Y-118515010D02*
X136664154Y-120242210D01*
X152412154Y-137260210D02*
X154037754Y-137260210D01*
X204017243Y-89232032D02*
X204017243Y-87832032D01*
X202017243Y-87832032D02*
X202017243Y-89232032D01*
X202717243Y-89932032D02*
X203317243Y-89932032D01*
X203317243Y-87132032D02*
X202717243Y-87132032D01*
X202017243Y-89232032D02*
G75*
G03*
X202717243Y-89932032I699999J-1D01*
G01*
X204017243Y-87832032D02*
G75*
G03*
X203317243Y-87132032I-700000J0D01*
G01*
X203317243Y-89932032D02*
G75*
G03*
X204017243Y-89232032I1J699999D01*
G01*
X202717243Y-87132032D02*
G75*
G03*
X202017243Y-87832032I0J-700000D01*
G01*
X200580639Y-111799948D02*
X201180639Y-111799948D01*
X199880639Y-109699948D02*
X199880639Y-111099948D01*
X201880639Y-111099948D02*
X201880639Y-109699948D01*
X201180639Y-108999948D02*
X200580639Y-108999948D01*
X201880639Y-109699948D02*
G75*
G03*
X201180639Y-108999948I-699999J1D01*
G01*
X200580639Y-108999948D02*
G75*
G03*
X199880639Y-109699948I-1J-699999D01*
G01*
X199880639Y-111099948D02*
G75*
G03*
X200580639Y-111799948I700000J0D01*
G01*
X201180639Y-111799948D02*
G75*
G03*
X201880639Y-111099948I0J700000D01*
G01*
X155822699Y-120843159D02*
X160902699Y-120843159D01*
X157194299Y-126262759D02*
X159531099Y-126262759D01*
X161918699Y-123793759D02*
X161918699Y-125471759D01*
X156457699Y-125471759D02*
X154806699Y-125471759D01*
X161918699Y-125471759D02*
X160267699Y-125471759D01*
X161918699Y-119901759D02*
X161918699Y-121326759D01*
X154806699Y-119901759D02*
X161918699Y-119901759D01*
X154806699Y-125471759D02*
X154806699Y-123793759D01*
X154806699Y-121326759D02*
X154806699Y-119901759D01*
D10*
X195835988Y-70970113D02*
X196785988Y-70970113D01*
X213635988Y-70970113D02*
X212635988Y-70970113D01*
X213635988Y-70970113D02*
X213635988Y-71970113D01*
X195835988Y-104020113D02*
X196845988Y-104020113D01*
X195835988Y-103020113D02*
X195835988Y-104020113D01*
X213635988Y-102970113D02*
X213635988Y-104020113D01*
X213635988Y-104020113D02*
X212635988Y-104020113D01*
X195835988Y-70970113D02*
X195835988Y-71970113D01*
D13*
X187125762Y-57655190D02*
X184625762Y-57655190D01*
X183125762Y-59405190D02*
X183125762Y-61405190D01*
X187125762Y-63155190D02*
X184625762Y-63155190D01*
X184175762Y-58105190D02*
X184625762Y-57655190D01*
X184175762Y-62705190D02*
X184625762Y-63155190D01*
X187575762Y-58105190D02*
X187125762Y-57655190D01*
X187575762Y-62705190D02*
X187125762Y-63155190D01*
X188625762Y-59405190D02*
X188625762Y-61405190D01*
X205660639Y-111799948D02*
X206260639Y-111799948D01*
X204960639Y-109699948D02*
X204960639Y-111099948D01*
X206260639Y-108999948D02*
X205660639Y-108999948D01*
X206960639Y-111099948D02*
X206960639Y-109699948D01*
X206260639Y-111799948D02*
G75*
G03*
X206960639Y-111099948I0J700000D01*
G01*
X206960639Y-109699948D02*
G75*
G03*
X206260639Y-108999948I-699999J1D01*
G01*
X205660639Y-108999948D02*
G75*
G03*
X204960639Y-109699948I-1J-699999D01*
G01*
X204960639Y-111099948D02*
G75*
G03*
X205660639Y-111799948I700000J0D01*
G01*
X207500639Y-109699948D02*
X207500639Y-111099948D01*
X209500639Y-111099948D02*
X209500639Y-109699948D01*
X208200639Y-111799948D02*
X208800639Y-111799948D01*
X208800639Y-108999948D02*
X208200639Y-108999948D01*
X208200639Y-108999948D02*
G75*
G03*
X207500639Y-109699948I-1J-699999D01*
G01*
X207500639Y-111099948D02*
G75*
G03*
X208200639Y-111799948I700000J0D01*
G01*
X208800639Y-111799948D02*
G75*
G03*
X209500639Y-111099948I0J700000D01*
G01*
X209500639Y-109699948D02*
G75*
G03*
X208800639Y-108999948I-699999J1D01*
G01*
%LPC*%
G36*
X199645988Y-103233113D02*
G01*
X198629988Y-103233113D01*
X198629988Y-102217113D01*
X199645988Y-102217113D01*
X199645988Y-103233113D01*
G37*
D11*
X199645988Y-103233113D02*
X198629988Y-103233113D01*
X198629988Y-102217113D01*
X199645988Y-102217113D01*
X199645988Y-103233113D01*
G36*
X199645988Y-80373113D02*
G01*
X198629988Y-80373113D01*
X198629988Y-79357113D01*
X199645988Y-79357113D01*
X199645988Y-80373113D01*
G37*
X199645988Y-80373113D02*
X198629988Y-80373113D01*
X198629988Y-79357113D01*
X199645988Y-79357113D01*
X199645988Y-80373113D01*
G36*
X199645988Y-77833113D02*
G01*
X198629988Y-77833113D01*
X198629988Y-76817113D01*
X199645988Y-76817113D01*
X199645988Y-77833113D01*
G37*
X199645988Y-77833113D02*
X198629988Y-77833113D01*
X198629988Y-76817113D01*
X199645988Y-76817113D01*
X199645988Y-77833113D01*
G36*
X199645988Y-82913113D02*
G01*
X198629988Y-82913113D01*
X198629988Y-81897113D01*
X199645988Y-81897113D01*
X199645988Y-82913113D01*
G37*
X199645988Y-82913113D02*
X198629988Y-82913113D01*
X198629988Y-81897113D01*
X199645988Y-81897113D01*
X199645988Y-82913113D01*
G36*
X210821988Y-98153113D02*
G01*
X209805988Y-98153113D01*
X209805988Y-97137113D01*
X210821988Y-97137113D01*
X210821988Y-98153113D01*
G37*
X210821988Y-98153113D02*
X209805988Y-98153113D01*
X209805988Y-97137113D01*
X210821988Y-97137113D01*
X210821988Y-98153113D01*
G36*
X199645988Y-75293113D02*
G01*
X198629988Y-75293113D01*
X198629988Y-74277113D01*
X199645988Y-74277113D01*
X199645988Y-75293113D01*
G37*
X199645988Y-75293113D02*
X198629988Y-75293113D01*
X198629988Y-74277113D01*
X199645988Y-74277113D01*
X199645988Y-75293113D01*
G36*
X210821988Y-85453113D02*
G01*
X209805988Y-85453113D01*
X209805988Y-84437113D01*
X210821988Y-84437113D01*
X210821988Y-85453113D01*
G37*
X210821988Y-85453113D02*
X209805988Y-85453113D01*
X209805988Y-84437113D01*
X210821988Y-84437113D01*
X210821988Y-85453113D01*
G36*
X199645988Y-98153113D02*
G01*
X198629988Y-98153113D01*
X198629988Y-97137113D01*
X199645988Y-97137113D01*
X199645988Y-98153113D01*
G37*
X199645988Y-98153113D02*
X198629988Y-98153113D01*
X198629988Y-97137113D01*
X199645988Y-97137113D01*
X199645988Y-98153113D01*
G36*
X210821988Y-93073113D02*
G01*
X209805988Y-93073113D01*
X209805988Y-92057113D01*
X210821988Y-92057113D01*
X210821988Y-93073113D01*
G37*
X210821988Y-93073113D02*
X209805988Y-93073113D01*
X209805988Y-92057113D01*
X210821988Y-92057113D01*
X210821988Y-93073113D01*
G36*
X210821988Y-100693113D02*
G01*
X209805988Y-100693113D01*
X209805988Y-99677113D01*
X210821988Y-99677113D01*
X210821988Y-100693113D01*
G37*
X210821988Y-100693113D02*
X209805988Y-100693113D01*
X209805988Y-99677113D01*
X210821988Y-99677113D01*
X210821988Y-100693113D01*
G36*
X199645988Y-95613113D02*
G01*
X198629988Y-95613113D01*
X198629988Y-94597113D01*
X199645988Y-94597113D01*
X199645988Y-95613113D01*
G37*
X199645988Y-95613113D02*
X198629988Y-95613113D01*
X198629988Y-94597113D01*
X199645988Y-94597113D01*
X199645988Y-95613113D01*
G36*
X210821988Y-80373113D02*
G01*
X209805988Y-80373113D01*
X209805988Y-79357113D01*
X210821988Y-79357113D01*
X210821988Y-80373113D01*
G37*
X210821988Y-80373113D02*
X209805988Y-80373113D01*
X209805988Y-79357113D01*
X210821988Y-79357113D01*
X210821988Y-80373113D01*
G36*
X210821988Y-82913113D02*
G01*
X209805988Y-82913113D01*
X209805988Y-81897113D01*
X210821988Y-81897113D01*
X210821988Y-82913113D01*
G37*
X210821988Y-82913113D02*
X209805988Y-82913113D01*
X209805988Y-81897113D01*
X210821988Y-81897113D01*
X210821988Y-82913113D01*
G36*
X210821988Y-87993113D02*
G01*
X209805988Y-87993113D01*
X209805988Y-86977113D01*
X210821988Y-86977113D01*
X210821988Y-87993113D01*
G37*
X210821988Y-87993113D02*
X209805988Y-87993113D01*
X209805988Y-86977113D01*
X210821988Y-86977113D01*
X210821988Y-87993113D01*
G36*
X210821988Y-75293113D02*
G01*
X209805988Y-75293113D01*
X209805988Y-74277113D01*
X210821988Y-74277113D01*
X210821988Y-75293113D01*
G37*
X210821988Y-75293113D02*
X209805988Y-75293113D01*
X209805988Y-74277113D01*
X210821988Y-74277113D01*
X210821988Y-75293113D01*
G36*
X199645988Y-90533113D02*
G01*
X198629988Y-90533113D01*
X198629988Y-89517113D01*
X199645988Y-89517113D01*
X199645988Y-90533113D01*
G37*
X199645988Y-90533113D02*
X198629988Y-90533113D01*
X198629988Y-89517113D01*
X199645988Y-89517113D01*
X199645988Y-90533113D01*
G36*
X210821988Y-77833113D02*
G01*
X209805988Y-77833113D01*
X209805988Y-76817113D01*
X210821988Y-76817113D01*
X210821988Y-77833113D01*
G37*
X210821988Y-77833113D02*
X209805988Y-77833113D01*
X209805988Y-76817113D01*
X210821988Y-76817113D01*
X210821988Y-77833113D01*
G36*
X199645988Y-87993113D02*
G01*
X198629988Y-87993113D01*
X198629988Y-86977113D01*
X199645988Y-86977113D01*
X199645988Y-87993113D01*
G37*
X199645988Y-87993113D02*
X198629988Y-87993113D01*
X198629988Y-86977113D01*
X199645988Y-86977113D01*
X199645988Y-87993113D01*
G36*
X199645988Y-100693113D02*
G01*
X198629988Y-100693113D01*
X198629988Y-99677113D01*
X199645988Y-99677113D01*
X199645988Y-100693113D01*
G37*
X199645988Y-100693113D02*
X198629988Y-100693113D01*
X198629988Y-99677113D01*
X199645988Y-99677113D01*
X199645988Y-100693113D01*
G36*
X210821988Y-95613113D02*
G01*
X209805988Y-95613113D01*
X209805988Y-94597113D01*
X210821988Y-94597113D01*
X210821988Y-95613113D01*
G37*
X210821988Y-95613113D02*
X209805988Y-95613113D01*
X209805988Y-94597113D01*
X210821988Y-94597113D01*
X210821988Y-95613113D01*
G36*
X199645988Y-85453113D02*
G01*
X198629988Y-85453113D01*
X198629988Y-84437113D01*
X199645988Y-84437113D01*
X199645988Y-85453113D01*
G37*
X199645988Y-85453113D02*
X198629988Y-85453113D01*
X198629988Y-84437113D01*
X199645988Y-84437113D01*
X199645988Y-85453113D01*
G36*
X210821988Y-90533113D02*
G01*
X209805988Y-90533113D01*
X209805988Y-89517113D01*
X210821988Y-89517113D01*
X210821988Y-90533113D01*
G37*
X210821988Y-90533113D02*
X209805988Y-90533113D01*
X209805988Y-89517113D01*
X210821988Y-89517113D01*
X210821988Y-90533113D01*
G36*
X210821988Y-103233113D02*
G01*
X209805988Y-103233113D01*
X209805988Y-102217113D01*
X210821988Y-102217113D01*
X210821988Y-103233113D01*
G37*
X210821988Y-103233113D02*
X209805988Y-103233113D01*
X209805988Y-102217113D01*
X210821988Y-102217113D01*
X210821988Y-103233113D01*
G36*
X199645988Y-93073113D02*
G01*
X198629988Y-93073113D01*
X198629988Y-92057113D01*
X199645988Y-92057113D01*
X199645988Y-93073113D01*
G37*
X199645988Y-93073113D02*
X198629988Y-93073113D01*
X198629988Y-92057113D01*
X199645988Y-92057113D01*
X199645988Y-93073113D01*
D14*
X132193328Y-108786994D03*
D15*
X129653328Y-103706994D03*
X130923328Y-106246994D03*
D14*
X122033328Y-108786994D03*
D15*
X124573328Y-103706994D03*
X123303328Y-106246993D03*
D16*
X127113328Y-108786994D03*
D17*
X120115628Y-106297794D03*
D18*
X132723928Y-103687594D03*
D19*
X153154954Y-116972325D03*
D20*
X172909928Y-112379594D03*
X172909928Y-108979594D03*
D14*
X132193328Y-89787394D03*
D16*
X127113328Y-89787394D03*
D15*
X123303328Y-87247393D03*
X124573328Y-84707394D03*
X129653328Y-84707394D03*
X130923328Y-87247394D03*
D14*
X122033328Y-89787394D03*
D17*
X120115628Y-87298194D03*
D18*
X132723928Y-84687994D03*
D21*
X217333373Y-142562100D03*
X206515003Y-139663326D03*
D22*
X207568231Y-147710109D03*
X212397860Y-149004204D03*
X209983045Y-148357157D03*
X216150736Y-134998280D03*
X211321107Y-133704185D03*
D16*
X211924188Y-141112711D03*
D15*
X208901411Y-137673158D03*
D14*
X216831091Y-142427512D03*
D15*
X210785537Y-135548407D03*
X216261766Y-139645360D03*
D14*
X207017285Y-139797910D03*
D15*
X215692440Y-136863208D03*
D23*
X205809181Y-136897190D03*
D24*
X218663433Y-137639199D03*
D25*
X205402260Y-82463266D03*
X205402260Y-85263266D03*
D26*
X176314155Y-62599150D03*
D20*
X172909928Y-93379194D03*
X172909928Y-89979194D03*
D27*
X185547000Y-122580634D03*
X185547000Y-125980634D03*
D28*
X129019940Y-130078165D03*
D29*
X131867919Y-130039937D03*
D15*
X111923128Y-70246394D03*
D14*
X103033128Y-72786394D03*
D15*
X104303128Y-70246393D03*
X110653128Y-67706394D03*
D14*
X113193128Y-72786394D03*
D16*
X108113128Y-72786394D03*
D15*
X105573128Y-67706394D03*
D17*
X101115428Y-70297194D03*
D18*
X113723728Y-67686994D03*
D30*
X198143762Y-112873833D03*
X194943762Y-112873833D03*
X194943762Y-107973833D03*
X198143762Y-107973833D03*
D15*
X104303128Y-89246793D03*
D16*
X108113128Y-91786794D03*
D14*
X103033128Y-91786794D03*
D15*
X111923128Y-89246794D03*
X105573128Y-86706794D03*
X110653128Y-86706794D03*
D14*
X113193128Y-91786794D03*
D17*
X101115428Y-89297594D03*
D18*
X113723728Y-86687394D03*
D20*
X134910328Y-112378994D03*
X134910328Y-108978994D03*
X172909928Y-74379234D03*
X172909928Y-70979234D03*
D26*
X172923200Y-120037600D03*
D31*
X196988988Y-121453113D03*
D20*
X191909626Y-96379594D03*
X191909626Y-92979594D03*
X153909728Y-70569034D03*
X153909728Y-67169034D03*
X191909626Y-115379594D03*
X191909626Y-111979594D03*
D26*
X119265755Y-119974950D03*
D32*
X200880639Y-107264021D03*
X203420639Y-107264021D03*
X205960639Y-107264021D03*
X208500639Y-107264021D03*
D31*
X211148762Y-125212313D03*
D15*
X189749811Y-135082360D03*
X196540840Y-134272410D03*
D14*
X197679491Y-139836714D03*
D16*
X192772588Y-138521913D03*
D14*
X187865685Y-137207112D03*
D15*
X197110166Y-137054562D03*
X191633937Y-132957609D03*
D23*
X186657581Y-134306392D03*
D24*
X199511833Y-135048401D03*
D25*
X203077160Y-82463266D03*
X203077160Y-85263266D03*
D28*
X144678314Y-130078165D03*
D29*
X147526293Y-130039937D03*
D20*
X191909755Y-77380150D03*
X191909755Y-73980150D03*
D15*
X143572728Y-99897194D03*
D14*
X151192728Y-104977194D03*
X141032728Y-104977194D03*
D15*
X142302728Y-102437193D03*
D16*
X146112728Y-104977194D03*
D15*
X148652728Y-99897194D03*
X149922728Y-102437194D03*
D17*
X139115028Y-102487994D03*
D18*
X151723328Y-99877794D03*
D26*
X202449988Y-150053513D03*
D19*
X136662954Y-134861933D03*
D33*
X155982600Y-130069400D03*
X152582600Y-130069400D03*
D15*
X167652928Y-65707234D03*
X162572928Y-65707234D03*
D14*
X170192928Y-70787234D03*
D15*
X161302928Y-68247233D03*
X168922928Y-68247234D03*
D16*
X165112928Y-70787234D03*
D14*
X160032928Y-70787234D03*
D17*
X158115228Y-68298034D03*
D18*
X170723528Y-65687834D03*
D15*
X123303328Y-68247793D03*
D16*
X127113328Y-70787794D03*
D14*
X122033328Y-70787794D03*
X132193328Y-70787794D03*
D15*
X130923328Y-68247794D03*
X124573328Y-65707794D03*
X129653328Y-65707794D03*
D17*
X120115628Y-68298594D03*
D18*
X132723928Y-65688394D03*
D34*
X158362699Y-116783356D03*
D19*
X155562754Y-134862533D03*
D14*
X189192626Y-73787794D03*
D15*
X180302626Y-71247793D03*
D16*
X184112626Y-73787794D03*
D15*
X186652626Y-68707794D03*
X181572626Y-68707794D03*
D14*
X179032626Y-73787794D03*
D15*
X187922626Y-71247794D03*
D17*
X177114926Y-71298594D03*
D18*
X189723226Y-68688394D03*
D33*
X138987000Y-130069400D03*
X135587000Y-130069400D03*
D20*
X115910128Y-114379194D03*
X115910128Y-110979194D03*
D35*
X125384562Y-97092319D03*
X125384562Y-100292319D03*
X120484562Y-100292319D03*
X120484562Y-97092319D03*
D20*
X134910328Y-93379394D03*
X134910328Y-89979394D03*
X115910128Y-95378794D03*
X115910128Y-91978794D03*
D27*
X188341000Y-122580634D03*
X188341000Y-125980634D03*
D20*
X134910328Y-74379794D03*
X134910328Y-70979794D03*
D14*
X170192928Y-108787594D03*
D16*
X165112928Y-108787594D03*
D14*
X160032928Y-108787594D03*
D15*
X162572928Y-103707594D03*
X161302928Y-106247593D03*
X168922928Y-106247594D03*
X167652928Y-103707594D03*
D17*
X158115228Y-106298394D03*
D18*
X170723528Y-103688194D03*
D20*
X153909728Y-108569194D03*
X153909728Y-105169194D03*
X115910128Y-76378394D03*
X115910128Y-72978394D03*
D35*
X175057362Y-96282319D03*
X175057362Y-99482319D03*
X170157362Y-99482319D03*
X170157362Y-96282319D03*
D34*
X133862503Y-116783356D03*
D36*
X211013700Y-116180634D03*
X211013700Y-117930634D03*
X204013700Y-117930634D03*
X204013700Y-116180634D03*
D37*
X202213700Y-120030634D03*
X202213700Y-114080634D03*
X206213700Y-120030634D03*
X206213700Y-114080634D03*
X209213700Y-114080634D03*
X209213700Y-120030634D03*
X200713700Y-118280634D03*
X200713700Y-115830634D03*
D27*
X191135000Y-122580634D03*
X191135000Y-125980634D03*
D15*
X173434111Y-126811215D03*
D14*
X169665859Y-131060718D03*
D16*
X174572762Y-132375519D03*
D15*
X178910340Y-130908168D03*
X178341014Y-128126016D03*
D14*
X179479665Y-133690320D03*
D15*
X171549985Y-128935966D03*
D23*
X168457755Y-128159998D03*
D24*
X181312007Y-128902007D03*
D26*
X160498444Y-130069400D03*
D16*
X184112626Y-111787594D03*
D15*
X180302626Y-109247593D03*
D14*
X179032626Y-111787594D03*
D15*
X186652626Y-106707594D03*
D14*
X189192626Y-111787594D03*
D15*
X187922626Y-109247594D03*
X181572626Y-106707594D03*
D17*
X177114926Y-109298394D03*
D18*
X189723226Y-106688194D03*
D15*
X167652928Y-84707194D03*
X161302928Y-87247193D03*
D14*
X170192928Y-89787194D03*
D16*
X165112928Y-89787194D03*
D14*
X160032928Y-89787194D03*
D15*
X168922928Y-87247194D03*
X162572928Y-84707194D03*
D17*
X158115228Y-87297994D03*
D18*
X170723528Y-84687794D03*
D20*
X153909728Y-89568994D03*
X153909728Y-86168994D03*
D19*
X139063443Y-116971815D03*
D35*
X150220962Y-92291719D03*
X150220962Y-95491719D03*
X145320962Y-95491719D03*
X145320962Y-92291719D03*
D15*
X180302626Y-90247593D03*
D14*
X189192626Y-92787594D03*
X179032626Y-92787594D03*
D15*
X186652626Y-87707594D03*
D16*
X184112626Y-92787594D03*
D15*
X187922626Y-90247594D03*
X181572626Y-87707594D03*
D17*
X177114926Y-90298394D03*
D18*
X189723226Y-87688194D03*
D14*
X141032728Y-66977034D03*
X151192728Y-66977034D03*
D15*
X148652728Y-61897034D03*
X142302728Y-64437033D03*
D16*
X146112728Y-66977034D03*
D15*
X149922728Y-64437034D03*
X143572728Y-61897034D03*
D17*
X139115028Y-64487834D03*
D18*
X151723328Y-61877634D03*
D26*
X122262188Y-130069400D03*
X115962988Y-61657313D03*
D14*
X151192728Y-85976994D03*
D15*
X142302728Y-83436993D03*
D14*
X141032728Y-85976994D03*
D15*
X148652728Y-80896994D03*
D16*
X146112728Y-85976994D03*
D15*
X149922728Y-83436994D03*
X143572728Y-80896994D03*
D17*
X139115028Y-83487794D03*
D18*
X151723328Y-80877594D03*
D16*
X108113128Y-110787194D03*
D15*
X105573128Y-105707194D03*
X111923128Y-108247194D03*
D14*
X113193128Y-110787194D03*
X103033128Y-110787194D03*
D15*
X104303128Y-108247193D03*
X110653128Y-105707194D03*
D17*
X101115428Y-108297994D03*
D18*
X113723728Y-105687794D03*
D38*
X203420639Y-109749948D03*
D39*
X203420639Y-111049948D03*
D40*
X203017243Y-89182032D03*
D41*
X203017243Y-87882032D03*
D38*
X200880639Y-109749948D03*
D39*
X200880639Y-111049948D03*
D42*
X157362699Y-125262259D03*
X157862699Y-125262259D03*
X158362699Y-125262259D03*
X158862699Y-125262259D03*
X159362699Y-125262259D03*
D43*
X155662699Y-122662759D03*
X161062699Y-122662759D03*
D44*
X212345988Y-97645113D03*
D45*
X210567988Y-82405113D03*
D44*
X197105988Y-92565113D03*
D45*
X210567988Y-90025113D03*
D46*
X198883988Y-95105113D03*
X198883988Y-92565113D03*
D44*
X197105988Y-90025113D03*
X212345988Y-100185113D03*
D45*
X210567988Y-102725113D03*
X210567988Y-79865113D03*
D44*
X212345988Y-79865113D03*
X212345988Y-95105113D03*
D46*
X198883988Y-102725113D03*
D44*
X197105988Y-95105113D03*
X212345988Y-84945113D03*
X212345988Y-77325113D03*
D45*
X210567988Y-95105113D03*
X210567988Y-92565113D03*
D46*
X198883988Y-79865113D03*
D44*
X197105988Y-82405113D03*
D46*
X198883988Y-87485113D03*
D44*
X197105988Y-77325113D03*
X197105988Y-84945113D03*
X197105988Y-79865113D03*
D46*
X198883988Y-97645113D03*
D44*
X212345988Y-92565113D03*
X212345988Y-82405113D03*
X197105988Y-74785113D03*
X212345988Y-74785113D03*
D45*
X210567988Y-100185113D03*
D44*
X197105988Y-100185113D03*
X197105988Y-87485113D03*
D46*
X198883988Y-74785113D03*
D44*
X197105988Y-102725113D03*
D46*
X198883988Y-84945113D03*
X198883988Y-90025113D03*
D47*
X212345988Y-74785113D03*
D46*
X198883988Y-77325113D03*
X198883988Y-100185113D03*
D45*
X210567988Y-74785113D03*
D44*
X212345988Y-87485113D03*
X212345988Y-90025113D03*
D45*
X210567988Y-77325113D03*
X210567988Y-87485113D03*
D46*
X198883988Y-82405113D03*
D45*
X210567988Y-84945113D03*
D44*
X197105988Y-97645113D03*
D45*
X210567988Y-97645113D03*
D44*
X212345988Y-102725113D03*
D48*
X209551988Y-74785113D03*
X209551988Y-77325113D03*
X209551988Y-79865113D03*
X209551988Y-82405113D03*
X209551988Y-84945113D03*
X209551988Y-87485113D03*
X209551988Y-90025113D03*
X209551988Y-92565113D03*
X209551988Y-95105113D03*
X209551988Y-97645113D03*
X209551988Y-100185113D03*
X209551988Y-102725113D03*
D49*
X199899988Y-102725113D03*
X199899988Y-100185113D03*
X199899988Y-97645113D03*
X199899988Y-95105113D03*
X199899988Y-92565113D03*
X199899988Y-90025113D03*
X199899988Y-87485113D03*
X199899988Y-84945113D03*
X199899988Y-82405113D03*
X199899988Y-79865113D03*
X199899988Y-77325113D03*
X199899988Y-74785113D03*
D50*
X189025762Y-58505190D03*
X182725762Y-58505190D03*
X182725762Y-62305190D03*
X189025762Y-62305190D03*
D38*
X205960639Y-109749948D03*
D39*
X205960639Y-111049948D03*
D38*
X208500639Y-109749948D03*
D39*
X208500639Y-111049948D03*
D51*
X201307755Y-90970950D03*
X201066400Y-98366034D03*
X195465755Y-98274213D03*
X201263547Y-100234454D03*
X201340144Y-102737344D03*
X188823600Y-114705094D03*
X194611678Y-104955923D03*
X113723728Y-105687794D03*
X132723928Y-103687594D03*
X151723328Y-99877794D03*
X170723528Y-103688194D03*
X189723226Y-106688194D03*
X181312007Y-128902007D03*
D52*
X194943562Y-110882119D03*
X175131562Y-86396519D03*
X208534000Y-78613000D03*
X145497073Y-73631629D03*
X193267162Y-83251719D03*
X164666762Y-99098719D03*
X200507600Y-78587600D03*
X184275562Y-100620519D03*
X196379388Y-71592913D03*
X162101362Y-91732719D03*
X157073600Y-126754000D03*
X187755362Y-94473719D03*
X217359788Y-132730713D03*
X172961355Y-78318950D03*
X134975600Y-126754000D03*
D51*
X101115428Y-70297194D03*
X208457861Y-93585756D03*
X101115428Y-108297994D03*
X102436228Y-86681394D03*
X101115428Y-89297594D03*
X126695200Y-115558150D03*
X120115628Y-106297794D03*
X120115628Y-68298594D03*
X120699362Y-113500519D03*
X142278155Y-113523350D03*
X121436428Y-84681994D03*
X207873600Y-95071434D03*
X120115628Y-87298194D03*
X139115028Y-102487994D03*
X168457755Y-128159998D03*
X139115028Y-64487834D03*
X140435828Y-80871594D03*
X139115028Y-83487794D03*
X155702000Y-107594400D03*
X160592374Y-113052440D03*
X169811755Y-113054094D03*
X208013355Y-97676550D03*
X158115228Y-68298034D03*
X158115228Y-87297994D03*
X160680400Y-111338950D03*
X186619377Y-134270024D03*
X158115228Y-106298394D03*
X208267355Y-101130950D03*
X186156600Y-114705094D03*
X159448555Y-93203350D03*
X202577995Y-105245197D03*
X199885355Y-83706550D03*
X206119562Y-112461919D03*
X201549000Y-74828400D03*
X198677362Y-109845719D03*
X200988762Y-80991319D03*
X202425355Y-80963350D03*
X200302962Y-86299919D03*
X206723611Y-90900406D03*
X205422555Y-87569919D03*
X204660555Y-111787419D03*
X201676000Y-77368400D03*
X201663262Y-87457534D03*
X208622955Y-88786550D03*
X207860955Y-85012234D03*
X208267355Y-75556034D03*
D52*
X200880639Y-109749948D03*
X203420639Y-109751629D03*
X205960639Y-109751629D03*
X208500639Y-109751629D03*
D51*
X170723528Y-84687794D03*
X151723328Y-80877594D03*
X132723928Y-84687994D03*
X113723728Y-86687394D03*
X189723226Y-68688394D03*
X170723528Y-65687834D03*
X151723328Y-61870316D03*
X132723928Y-65688394D03*
X189723226Y-87688194D03*
X113723728Y-67686994D03*
X195807162Y-109921919D03*
X172464562Y-96977000D03*
X218663433Y-137639199D03*
D52*
X176909562Y-71364519D03*
D51*
X205809181Y-136897190D03*
X177114926Y-90298394D03*
X177114926Y-109298394D03*
X207251355Y-101892950D03*
X178425848Y-96530057D03*
X199473629Y-135012033D03*
X147902762Y-92951919D03*
X172464562Y-99059800D03*
X176771355Y-104636150D03*
X154990800Y-119981100D03*
X158902400Y-121213600D03*
X174396400Y-114757200D03*
X138125200Y-119981100D03*
X201066400Y-95795934D03*
X191858955Y-104636150D03*
X208460775Y-92164615D03*
X136296400Y-121330100D03*
X172415200Y-114757200D03*
X190344527Y-103287150D03*
X176872955Y-103287150D03*
X200342555Y-91329119D03*
X123010762Y-97802713D03*
X147801162Y-94679119D03*
X122959962Y-100343113D03*
X203447662Y-104356197D03*
X203042643Y-89217832D03*
D52*
X147851962Y-91681919D03*
X153670000Y-122080400D03*
X132892800Y-122029600D03*
X197305762Y-110398433D03*
X163068000Y-122080400D03*
X172464562Y-95656200D03*
X122959962Y-96634313D03*
X204697162Y-108829719D03*
D51*
X137210800Y-120655600D03*
X177519786Y-103961650D03*
X201418143Y-94396934D03*
X191005612Y-103961650D03*
X157886400Y-121213600D03*
X155651200Y-120655600D03*
X173380400Y-114780807D03*
X207811128Y-79932234D03*
X189050762Y-62330590D03*
D52*
X195613109Y-78630111D03*
D51*
X182700762Y-62330590D03*
M02*
