G04 #@! TF.GenerationSoftware,KiCad,Pcbnew,(6.0.6-0)*
G04 #@! TF.CreationDate,2022-07-14T23:53:09+08:00*
G04 #@! TF.ProjectId,thrfv,74687266-762e-46b6-9963-61645f706362,rev?*
G04 #@! TF.SameCoordinates,Original*
G04 #@! TF.FileFunction,Legend,Top*
G04 #@! TF.FilePolarity,Positive*
%FSLAX46Y46*%
G04 Gerber Fmt 4.6, Leading zero omitted, Abs format (unit mm)*
G04 Created by KiCad (PCBNEW (6.0.6-0)) date 2022-07-14 23:53:09*
%MOMM*%
%LPD*%
G01*
G04 APERTURE LIST*
%ADD10C,0.150000*%
%ADD11C,0.100000*%
%ADD12C,0.200000*%
%ADD13C,0.120000*%
%ADD14C,1.397000*%
%ADD15C,1.200000*%
%ADD16O,2.500000X1.700000*%
G04 APERTURE END LIST*
D10*
X205448815Y-150512618D02*
X205927179Y-150640795D01*
X205553923Y-150856294D01*
X205664315Y-150885873D01*
X205723450Y-150941157D01*
X205745787Y-150986582D01*
X205753666Y-151067571D01*
X205681369Y-151245395D01*
X205615653Y-151306664D01*
X205564396Y-151332369D01*
X205476342Y-151348214D01*
X205255559Y-151289056D01*
X205196424Y-151233771D01*
X205174086Y-151188347D01*
X205881111Y-151456672D02*
X206488312Y-151067223D01*
X206083543Y-150958766D02*
X206285880Y-151565129D01*
X207251877Y-150995746D02*
X206883905Y-150897149D01*
X206702514Y-151242936D01*
X206753770Y-151217231D01*
X206841824Y-151201386D01*
X207025810Y-151250685D01*
X207084945Y-151305969D01*
X207107283Y-151351393D01*
X207115161Y-151432383D01*
X207042864Y-151610206D01*
X206977148Y-151671476D01*
X206925891Y-151697181D01*
X206837838Y-151713026D01*
X206653852Y-151663727D01*
X206594717Y-151608443D01*
X206572379Y-151563018D01*
X207431876Y-151556685D02*
X208020631Y-151714442D01*
X207610578Y-151920081D02*
X207841929Y-151351046D01*
X208502981Y-151330979D02*
X208981344Y-151459156D01*
X208608089Y-151674655D01*
X208718480Y-151704234D01*
X208777615Y-151759519D01*
X208799953Y-151804943D01*
X208807831Y-151885932D01*
X208735534Y-152063756D01*
X208669818Y-152125025D01*
X208618561Y-152150730D01*
X208530508Y-152166575D01*
X208309725Y-152107417D01*
X208250590Y-152052133D01*
X208228252Y-152006708D01*
X209597626Y-152452509D02*
X209901274Y-151705650D01*
X209786895Y-152187711D02*
X209892003Y-152531387D01*
X210094435Y-152033481D02*
X209684382Y-152239121D01*
X210532014Y-152663438D02*
X210443961Y-152679284D01*
X210296772Y-152639845D01*
X210237637Y-152584560D01*
X210229759Y-152503571D01*
X210345434Y-152219053D01*
X210411150Y-152157784D01*
X210499204Y-152141939D01*
X210646393Y-152181378D01*
X210705528Y-152236662D01*
X210713406Y-152317651D01*
X210684487Y-152388781D01*
X210287596Y-152361312D01*
X211014364Y-152279976D02*
X210995918Y-152827180D01*
X211382336Y-152378573D02*
X210995918Y-152827180D01*
X210850027Y-152985284D01*
X210798770Y-153010989D01*
X210710717Y-153026834D01*
X211474282Y-152955357D02*
X211777929Y-152208499D01*
X211662254Y-152493016D02*
X211750308Y-152477171D01*
X211897497Y-152516610D01*
X211956631Y-152571894D01*
X211978969Y-152617319D01*
X211986848Y-152698308D01*
X211900091Y-152911696D01*
X211834375Y-152972966D01*
X211783118Y-152998671D01*
X211695065Y-153014516D01*
X211547876Y-152975077D01*
X211488741Y-152919793D01*
X212283819Y-153172272D02*
X212224684Y-153116988D01*
X212202347Y-153071564D01*
X212194468Y-152990574D01*
X212281225Y-152777186D01*
X212346941Y-152715917D01*
X212398198Y-152690212D01*
X212486251Y-152674366D01*
X212596643Y-152703946D01*
X212655778Y-152759230D01*
X212678115Y-152804655D01*
X212685994Y-152885644D01*
X212599237Y-153099032D01*
X212533521Y-153160302D01*
X212482265Y-153186006D01*
X212394211Y-153201852D01*
X212283819Y-153172272D01*
X213203749Y-153418767D02*
X213362802Y-153027555D01*
X213354924Y-152946566D01*
X213295789Y-152891281D01*
X213148600Y-152851842D01*
X213060547Y-152867688D01*
X213218208Y-153383202D02*
X213130154Y-153399047D01*
X212946169Y-153349748D01*
X212887034Y-153294464D01*
X212879155Y-153213475D01*
X212908074Y-153142345D01*
X212973790Y-153081076D01*
X213061844Y-153065231D01*
X213245830Y-153114529D01*
X213333884Y-153098684D01*
X213571721Y-153517364D02*
X213774152Y-153019459D01*
X213716315Y-153161717D02*
X213782031Y-153100448D01*
X213833287Y-153074743D01*
X213921341Y-153058898D01*
X213994935Y-153078617D01*
X214381258Y-153734279D02*
X214684906Y-152987421D01*
X214395718Y-153698715D02*
X214307664Y-153714560D01*
X214160475Y-153675121D01*
X214101340Y-153619836D01*
X214079003Y-153574412D01*
X214071124Y-153493423D01*
X214157881Y-153280035D01*
X214223597Y-153218765D01*
X214274853Y-153193060D01*
X214362907Y-153177215D01*
X214510096Y-153216654D01*
X214569231Y-153271938D01*
X214778149Y-153761748D02*
X214800487Y-153807172D01*
X214749230Y-153832877D01*
X214726892Y-153787453D01*
X214778149Y-153761748D01*
X214749230Y-153832877D01*
X204885403Y-152523308D02*
X205189051Y-151776449D01*
X205483428Y-151855327D01*
X205542563Y-151910612D01*
X205564901Y-151956036D01*
X205572779Y-152037025D01*
X205529401Y-152143719D01*
X205463685Y-152204989D01*
X205412428Y-152230694D01*
X205324375Y-152246539D01*
X205029997Y-152167661D01*
X206128629Y-152777551D02*
X206077372Y-152803256D01*
X205952521Y-152809241D01*
X205878927Y-152789522D01*
X205782995Y-152724378D01*
X205738319Y-152633529D01*
X205730441Y-152552540D01*
X205751481Y-152400421D01*
X205794859Y-152293727D01*
X205889494Y-152161328D01*
X205955210Y-152100058D01*
X206057724Y-152048648D01*
X206182574Y-152042663D01*
X206256169Y-152062383D01*
X206352101Y-152127527D01*
X206374439Y-152172951D01*
X206847518Y-152615225D02*
X206943450Y-152680369D01*
X206965788Y-152725794D01*
X206973666Y-152806783D01*
X206930288Y-152913477D01*
X206864572Y-152974746D01*
X206813315Y-153000451D01*
X206725262Y-153016297D01*
X206430884Y-152937418D01*
X206734532Y-152190560D01*
X206992112Y-152259578D01*
X207051247Y-152314862D01*
X207073585Y-152360287D01*
X207081463Y-152441276D01*
X207052544Y-152512405D01*
X206986828Y-152573675D01*
X206935572Y-152599380D01*
X206847518Y-152615225D01*
X206589938Y-152546207D01*
X208123554Y-153390968D02*
X208427202Y-152644109D01*
X208138014Y-153355403D02*
X208049960Y-153371248D01*
X207902771Y-153331809D01*
X207843636Y-153276525D01*
X207821299Y-153231101D01*
X207813420Y-153150111D01*
X207900177Y-152936723D01*
X207965893Y-152875453D01*
X208017149Y-152849749D01*
X208105203Y-152833903D01*
X208252392Y-152873343D01*
X208311527Y-152928627D01*
X208800363Y-153532879D02*
X208712309Y-153548724D01*
X208565120Y-153509285D01*
X208505985Y-153454001D01*
X208498107Y-153373012D01*
X208613782Y-153088494D01*
X208679498Y-153027224D01*
X208767552Y-153011379D01*
X208914741Y-153050818D01*
X208973876Y-153106103D01*
X208981754Y-153187092D01*
X208952835Y-153258221D01*
X208555945Y-153230753D01*
X209131537Y-153621617D02*
X209190672Y-153676901D01*
X209337861Y-153716340D01*
X209425915Y-153700495D01*
X209491631Y-153639226D01*
X209506090Y-153603661D01*
X209498212Y-153522672D01*
X209439077Y-153467387D01*
X209328685Y-153437808D01*
X209269551Y-153382524D01*
X209261672Y-153301535D01*
X209276132Y-153265970D01*
X209341848Y-153204700D01*
X209429901Y-153188855D01*
X209540293Y-153218435D01*
X209599428Y-153273719D01*
X209779427Y-153834658D02*
X209981859Y-153336752D01*
X210083075Y-153087799D02*
X210031818Y-153113504D01*
X210054156Y-153158928D01*
X210105413Y-153133223D01*
X210083075Y-153087799D01*
X210054156Y-153158928D01*
X210681005Y-153524088D02*
X210435195Y-154128687D01*
X210369479Y-154189957D01*
X210318223Y-154215662D01*
X210230169Y-154231507D01*
X210119777Y-154201928D01*
X210060642Y-154146644D01*
X210493033Y-153986429D02*
X210404979Y-154002274D01*
X210257790Y-153962835D01*
X210198655Y-153907550D01*
X210176318Y-153862126D01*
X210168439Y-153781137D01*
X210255196Y-153567749D01*
X210320912Y-153506479D01*
X210372169Y-153480774D01*
X210460222Y-153464929D01*
X210607411Y-153504368D01*
X210666546Y-153559652D01*
X211048977Y-153622685D02*
X210846545Y-154120591D01*
X211020058Y-153693815D02*
X211071315Y-153668110D01*
X211159369Y-153652265D01*
X211269760Y-153681844D01*
X211328895Y-153737128D01*
X211336773Y-153818117D01*
X211177720Y-154209329D01*
X211854528Y-154351240D02*
X211766475Y-154367085D01*
X211619286Y-154327646D01*
X211560151Y-154272362D01*
X211552273Y-154191373D01*
X211667948Y-153906855D01*
X211733664Y-153845586D01*
X211821718Y-153829740D01*
X211968906Y-153869180D01*
X212028041Y-153924464D01*
X212035920Y-154005453D01*
X212007001Y-154076582D01*
X211610110Y-154049114D01*
X212539215Y-154574141D02*
X212842863Y-153827282D01*
X212553675Y-154538576D02*
X212465621Y-154554421D01*
X212318432Y-154514982D01*
X212259297Y-154459698D01*
X212236959Y-154414273D01*
X212229081Y-154333284D01*
X212315838Y-154119896D01*
X212381554Y-154058626D01*
X212432810Y-154032921D01*
X212520864Y-154017076D01*
X212668053Y-154056515D01*
X212727188Y-154111800D01*
X213495942Y-154830495D02*
X213799590Y-154083636D01*
X213683914Y-154368154D02*
X213771968Y-154352308D01*
X213919157Y-154391748D01*
X213978292Y-154447032D01*
X214000629Y-154492456D01*
X214008508Y-154573445D01*
X213921751Y-154786834D01*
X213856035Y-154848103D01*
X213804779Y-154873808D01*
X213716725Y-154889653D01*
X213569536Y-154850214D01*
X213510401Y-154794930D01*
X214323926Y-154500205D02*
X214305480Y-155047410D01*
X214691897Y-154598803D02*
X214305480Y-155047410D01*
X214159588Y-155205514D01*
X214108332Y-155231219D01*
X214020278Y-155247064D01*
X215897028Y-154645643D02*
X215680137Y-155179114D01*
X215599962Y-155275948D01*
X215497449Y-155327358D01*
X215372598Y-155333343D01*
X215299003Y-155313624D01*
X216191406Y-154724521D02*
X216071744Y-155520679D01*
X216435824Y-155026647D01*
X216366121Y-155599557D01*
X216853755Y-154901997D01*
X216873403Y-155656605D02*
X216895741Y-155702029D01*
X216844485Y-155727734D01*
X216822147Y-155682310D01*
X216873403Y-155656605D01*
X216844485Y-155727734D01*
X170833432Y-110790222D02*
X170033432Y-110790222D01*
X170033432Y-110599746D01*
X170071528Y-110485460D01*
X170147718Y-110409270D01*
X170223908Y-110371174D01*
X170376289Y-110333079D01*
X170490575Y-110333079D01*
X170642956Y-110371174D01*
X170719147Y-110409270D01*
X170795337Y-110485460D01*
X170833432Y-110599746D01*
X170833432Y-110790222D01*
X170833432Y-109571174D02*
X170833432Y-110028317D01*
X170833432Y-109799746D02*
X170033432Y-109799746D01*
X170147718Y-109875936D01*
X170223908Y-109952127D01*
X170262004Y-110028317D01*
X170300099Y-108885460D02*
X170833432Y-108885460D01*
X169995337Y-109075936D02*
X170566766Y-109266413D01*
X170566766Y-108771174D01*
X211911990Y-146086080D02*
X211590015Y-145999807D01*
X211587597Y-145456872D02*
X212047562Y-145580119D01*
X211788743Y-146546045D01*
X211328778Y-146422798D01*
X210597022Y-145290046D02*
X210655343Y-145256374D01*
X210805657Y-145247352D01*
X210897650Y-145272001D01*
X211023315Y-145354972D01*
X211090658Y-145471614D01*
X211112006Y-145575932D01*
X211108703Y-145772242D01*
X211071729Y-145910232D01*
X210976434Y-146081893D01*
X210905788Y-146161561D01*
X210789145Y-146228905D01*
X210638831Y-146237927D01*
X210546838Y-146213277D01*
X210421174Y-146130307D01*
X210387502Y-146071986D01*
X209701742Y-144951558D02*
X210253700Y-145099455D01*
X209977721Y-145025507D02*
X209718902Y-145991433D01*
X209847869Y-145878093D01*
X209964511Y-145810749D01*
X210068829Y-145789402D01*
X205245161Y-81146614D02*
X204911828Y-80670424D01*
X204673732Y-81146614D02*
X204673732Y-80146614D01*
X205054685Y-80146614D01*
X205149923Y-80194234D01*
X205197542Y-80241853D01*
X205245161Y-80337091D01*
X205245161Y-80479948D01*
X205197542Y-80575186D01*
X205149923Y-80622805D01*
X205054685Y-80670424D01*
X204673732Y-80670424D01*
X205626113Y-80241853D02*
X205673732Y-80194234D01*
X205768970Y-80146614D01*
X206007066Y-80146614D01*
X206102304Y-80194234D01*
X206149923Y-80241853D01*
X206197542Y-80337091D01*
X206197542Y-80432329D01*
X206149923Y-80575186D01*
X205578494Y-81146614D01*
X206197542Y-81146614D01*
X171951690Y-56410567D02*
X172523119Y-56410567D01*
X172237405Y-57410567D02*
X172237405Y-56410567D01*
X172856452Y-57410567D02*
X172856452Y-56410567D01*
X172856452Y-56886758D02*
X173427881Y-56886758D01*
X173427881Y-57410567D02*
X173427881Y-56410567D01*
X174427881Y-57410567D02*
X173856452Y-57410567D01*
X174142166Y-57410567D02*
X174142166Y-56410567D01*
X174046928Y-56553425D01*
X173951690Y-56648663D01*
X173856452Y-56696282D01*
X170833432Y-91408870D02*
X170033432Y-91408870D01*
X170033432Y-91218394D01*
X170071528Y-91104108D01*
X170147718Y-91027917D01*
X170223908Y-90989822D01*
X170376289Y-90951727D01*
X170490575Y-90951727D01*
X170642956Y-90989822D01*
X170719147Y-91027917D01*
X170795337Y-91104108D01*
X170833432Y-91218394D01*
X170833432Y-91408870D01*
X170833432Y-90570774D02*
X170833432Y-90418394D01*
X170795337Y-90342203D01*
X170757242Y-90304108D01*
X170642956Y-90227917D01*
X170490575Y-90189822D01*
X170185813Y-90189822D01*
X170109623Y-90227917D01*
X170071528Y-90266013D01*
X170033432Y-90342203D01*
X170033432Y-90494584D01*
X170071528Y-90570774D01*
X170109623Y-90608870D01*
X170185813Y-90646965D01*
X170376289Y-90646965D01*
X170452480Y-90608870D01*
X170490575Y-90570774D01*
X170528670Y-90494584D01*
X170528670Y-90342203D01*
X170490575Y-90266013D01*
X170452480Y-90227917D01*
X170376289Y-90189822D01*
X185683553Y-129485741D02*
X184883553Y-129485741D01*
X184883553Y-129295265D01*
X184921649Y-129180979D01*
X184997839Y-129104789D01*
X185074029Y-129066693D01*
X185226410Y-129028598D01*
X185340696Y-129028598D01*
X185493077Y-129066693D01*
X185569268Y-129104789D01*
X185645458Y-129180979D01*
X185683553Y-129295265D01*
X185683553Y-129485741D01*
X185683553Y-128266693D02*
X185683553Y-128723836D01*
X185683553Y-128495265D02*
X184883553Y-128495265D01*
X184997839Y-128571455D01*
X185074029Y-128647646D01*
X185112125Y-128723836D01*
X185226410Y-127809551D02*
X185188315Y-127885741D01*
X185150220Y-127923836D01*
X185074029Y-127961932D01*
X185035934Y-127961932D01*
X184959744Y-127923836D01*
X184921649Y-127885741D01*
X184883553Y-127809551D01*
X184883553Y-127657170D01*
X184921649Y-127580979D01*
X184959744Y-127542884D01*
X185035934Y-127504789D01*
X185074029Y-127504789D01*
X185150220Y-127542884D01*
X185188315Y-127580979D01*
X185226410Y-127657170D01*
X185226410Y-127809551D01*
X185264506Y-127885741D01*
X185302601Y-127923836D01*
X185378791Y-127961932D01*
X185531172Y-127961932D01*
X185607363Y-127923836D01*
X185645458Y-127885741D01*
X185683553Y-127809551D01*
X185683553Y-127657170D01*
X185645458Y-127580979D01*
X185607363Y-127542884D01*
X185531172Y-127504789D01*
X185378791Y-127504789D01*
X185302601Y-127542884D01*
X185264506Y-127580979D01*
X185226410Y-127657170D01*
X195399314Y-106615099D02*
X194923123Y-106615099D01*
X194923123Y-105615099D01*
X195732647Y-106091290D02*
X196065981Y-106091290D01*
X196208838Y-106615099D02*
X195732647Y-106615099D01*
X195732647Y-105615099D01*
X196208838Y-105615099D01*
X196637409Y-106615099D02*
X196637409Y-105615099D01*
X196875504Y-105615099D01*
X197018362Y-105662719D01*
X197113600Y-105757957D01*
X197161219Y-105853195D01*
X197208838Y-106043671D01*
X197208838Y-106186528D01*
X197161219Y-106377004D01*
X197113600Y-106472242D01*
X197018362Y-106567480D01*
X196875504Y-106615099D01*
X196637409Y-106615099D01*
X198161219Y-106615099D02*
X197589790Y-106615099D01*
X197875504Y-106615099D02*
X197875504Y-105615099D01*
X197780266Y-105757957D01*
X197685028Y-105853195D01*
X197589790Y-105900814D01*
X132833832Y-110789622D02*
X132033832Y-110789622D01*
X132033832Y-110599146D01*
X132071928Y-110484860D01*
X132148118Y-110408670D01*
X132224308Y-110370574D01*
X132376689Y-110332479D01*
X132490975Y-110332479D01*
X132643356Y-110370574D01*
X132719547Y-110408670D01*
X132795737Y-110484860D01*
X132833832Y-110599146D01*
X132833832Y-110789622D01*
X132833832Y-109570574D02*
X132833832Y-110027717D01*
X132833832Y-109799146D02*
X132033832Y-109799146D01*
X132148118Y-109875336D01*
X132224308Y-109951527D01*
X132262404Y-110027717D01*
X132110023Y-109265813D02*
X132071928Y-109227717D01*
X132033832Y-109151527D01*
X132033832Y-108961051D01*
X132071928Y-108884860D01*
X132110023Y-108846765D01*
X132186213Y-108808670D01*
X132262404Y-108808670D01*
X132376689Y-108846765D01*
X132833832Y-109303908D01*
X132833832Y-108808670D01*
X170833432Y-72408910D02*
X170033432Y-72408910D01*
X170033432Y-72218434D01*
X170071528Y-72104148D01*
X170147718Y-72027957D01*
X170223908Y-71989862D01*
X170376289Y-71951767D01*
X170490575Y-71951767D01*
X170642956Y-71989862D01*
X170719147Y-72027957D01*
X170795337Y-72104148D01*
X170833432Y-72218434D01*
X170833432Y-72408910D01*
X170300099Y-71266053D02*
X170833432Y-71266053D01*
X169995337Y-71456529D02*
X170566766Y-71647005D01*
X170566766Y-71151767D01*
X171787647Y-117045099D02*
X172359076Y-117045099D01*
X172073362Y-118045099D02*
X172073362Y-117045099D01*
X172692409Y-118045099D02*
X172692409Y-117045099D01*
X172692409Y-117521290D02*
X173263838Y-117521290D01*
X173263838Y-118045099D02*
X173263838Y-117045099D01*
X174168600Y-117378433D02*
X174168600Y-118045099D01*
X173930504Y-116997480D02*
X173692409Y-117711766D01*
X174311457Y-117711766D01*
X194774702Y-125105493D02*
X194774702Y-124105493D01*
X195108035Y-124819779D01*
X195441368Y-124105493D01*
X195441368Y-125105493D01*
X196488988Y-125010255D02*
X196441368Y-125057874D01*
X196298511Y-125105493D01*
X196203273Y-125105493D01*
X196060416Y-125057874D01*
X195965178Y-124962636D01*
X195917559Y-124867398D01*
X195869940Y-124676922D01*
X195869940Y-124534065D01*
X195917559Y-124343589D01*
X195965178Y-124248351D01*
X196060416Y-124153113D01*
X196203273Y-124105493D01*
X196298511Y-124105493D01*
X196441368Y-124153113D01*
X196488988Y-124200732D01*
X196917559Y-124105493D02*
X196917559Y-124915017D01*
X196965178Y-125010255D01*
X197012797Y-125057874D01*
X197108035Y-125105493D01*
X197298511Y-125105493D01*
X197393749Y-125057874D01*
X197441368Y-125010255D01*
X197488988Y-124915017D01*
X197488988Y-124105493D01*
X197727083Y-125200732D02*
X198488988Y-125200732D01*
X199250892Y-125105493D02*
X198679464Y-125105493D01*
X198965178Y-125105493D02*
X198965178Y-124105493D01*
X198869940Y-124248351D01*
X198774702Y-124343589D01*
X198679464Y-124391208D01*
X189833130Y-95600222D02*
X189033130Y-95600222D01*
X189033130Y-95409746D01*
X189071226Y-95295460D01*
X189147416Y-95219270D01*
X189223606Y-95181174D01*
X189375987Y-95143079D01*
X189490273Y-95143079D01*
X189642654Y-95181174D01*
X189718845Y-95219270D01*
X189795035Y-95295460D01*
X189833130Y-95409746D01*
X189833130Y-95600222D01*
X189833130Y-94381174D02*
X189833130Y-94838317D01*
X189833130Y-94609746D02*
X189033130Y-94609746D01*
X189147416Y-94685936D01*
X189223606Y-94762127D01*
X189261702Y-94838317D01*
X189033130Y-93885936D02*
X189033130Y-93809746D01*
X189071226Y-93733555D01*
X189109321Y-93695460D01*
X189185511Y-93657365D01*
X189337892Y-93619270D01*
X189528368Y-93619270D01*
X189680749Y-93657365D01*
X189756940Y-93695460D01*
X189795035Y-93733555D01*
X189833130Y-93809746D01*
X189833130Y-93885936D01*
X189795035Y-93962127D01*
X189756940Y-94000222D01*
X189680749Y-94038317D01*
X189528368Y-94076413D01*
X189337892Y-94076413D01*
X189185511Y-94038317D01*
X189109321Y-94000222D01*
X189071226Y-93962127D01*
X189033130Y-93885936D01*
X151833232Y-68598710D02*
X151033232Y-68598710D01*
X151033232Y-68408234D01*
X151071328Y-68293948D01*
X151147518Y-68217757D01*
X151223708Y-68179662D01*
X151376089Y-68141567D01*
X151490375Y-68141567D01*
X151642756Y-68179662D01*
X151718947Y-68217757D01*
X151795137Y-68293948D01*
X151833232Y-68408234D01*
X151833232Y-68598710D01*
X151033232Y-67874900D02*
X151033232Y-67379662D01*
X151337994Y-67646329D01*
X151337994Y-67532043D01*
X151376089Y-67455853D01*
X151414185Y-67417757D01*
X151490375Y-67379662D01*
X151680851Y-67379662D01*
X151757042Y-67417757D01*
X151795137Y-67455853D01*
X151833232Y-67532043D01*
X151833232Y-67760614D01*
X151795137Y-67836805D01*
X151757042Y-67874900D01*
X189833130Y-114600222D02*
X189033130Y-114600222D01*
X189033130Y-114409746D01*
X189071226Y-114295460D01*
X189147416Y-114219270D01*
X189223606Y-114181174D01*
X189375987Y-114143079D01*
X189490273Y-114143079D01*
X189642654Y-114181174D01*
X189718845Y-114219270D01*
X189795035Y-114295460D01*
X189833130Y-114409746D01*
X189833130Y-114600222D01*
X189833130Y-113381174D02*
X189833130Y-113838317D01*
X189833130Y-113609746D02*
X189033130Y-113609746D01*
X189147416Y-113685936D01*
X189223606Y-113762127D01*
X189261702Y-113838317D01*
X189033130Y-112657365D02*
X189033130Y-113038317D01*
X189414083Y-113076413D01*
X189375987Y-113038317D01*
X189337892Y-112962127D01*
X189337892Y-112771651D01*
X189375987Y-112695460D01*
X189414083Y-112657365D01*
X189490273Y-112619270D01*
X189680749Y-112619270D01*
X189756940Y-112657365D01*
X189795035Y-112695460D01*
X189833130Y-112771651D01*
X189833130Y-112962127D01*
X189795035Y-113038317D01*
X189756940Y-113076413D01*
X117929040Y-115569330D02*
X118500469Y-115569330D01*
X118214755Y-116569330D02*
X118214755Y-115569330D01*
X118833802Y-116569330D02*
X118833802Y-115569330D01*
X118833802Y-116045521D02*
X119405231Y-116045521D01*
X119405231Y-116569330D02*
X119405231Y-115569330D01*
X119786183Y-115569330D02*
X120405231Y-115569330D01*
X120071897Y-115950283D01*
X120214755Y-115950283D01*
X120309993Y-115997902D01*
X120357612Y-116045521D01*
X120405231Y-116140759D01*
X120405231Y-116378854D01*
X120357612Y-116474092D01*
X120309993Y-116521711D01*
X120214755Y-116569330D01*
X119929040Y-116569330D01*
X119833802Y-116521711D01*
X119786183Y-116474092D01*
X210043257Y-107576652D02*
X210623828Y-107576652D01*
X210739942Y-107615357D01*
X210817352Y-107692766D01*
X210856057Y-107808880D01*
X210856057Y-107886290D01*
X210120666Y-107228309D02*
X210081962Y-107189604D01*
X210043257Y-107112195D01*
X210043257Y-106918671D01*
X210081962Y-106841261D01*
X210120666Y-106802557D01*
X210198076Y-106763852D01*
X210275485Y-106763852D01*
X210391600Y-106802557D01*
X210856057Y-107267014D01*
X210856057Y-106763852D01*
X209036076Y-128992093D02*
X209036076Y-127992093D01*
X209369409Y-128706379D01*
X209702742Y-127992093D01*
X209702742Y-128992093D01*
X210750362Y-128896855D02*
X210702742Y-128944474D01*
X210559885Y-128992093D01*
X210464647Y-128992093D01*
X210321790Y-128944474D01*
X210226552Y-128849236D01*
X210178933Y-128753998D01*
X210131314Y-128563522D01*
X210131314Y-128420665D01*
X210178933Y-128230189D01*
X210226552Y-128134951D01*
X210321790Y-128039713D01*
X210464647Y-127992093D01*
X210559885Y-127992093D01*
X210702742Y-128039713D01*
X210750362Y-128087332D01*
X211178933Y-127992093D02*
X211178933Y-128801617D01*
X211226552Y-128896855D01*
X211274171Y-128944474D01*
X211369409Y-128992093D01*
X211559885Y-128992093D01*
X211655123Y-128944474D01*
X211702742Y-128896855D01*
X211750362Y-128801617D01*
X211750362Y-127992093D01*
X211988457Y-129087332D02*
X212750362Y-129087332D01*
X212940838Y-128087332D02*
X212988457Y-128039713D01*
X213083695Y-127992093D01*
X213321790Y-127992093D01*
X213417028Y-128039713D01*
X213464647Y-128087332D01*
X213512266Y-128182570D01*
X213512266Y-128277808D01*
X213464647Y-128420665D01*
X212893219Y-128992093D01*
X213512266Y-128992093D01*
X202920061Y-81146614D02*
X202586728Y-80670424D01*
X202348632Y-81146614D02*
X202348632Y-80146614D01*
X202729585Y-80146614D01*
X202824823Y-80194234D01*
X202872442Y-80241853D01*
X202920061Y-80337091D01*
X202920061Y-80479948D01*
X202872442Y-80575186D01*
X202824823Y-80622805D01*
X202729585Y-80670424D01*
X202348632Y-80670424D01*
X203872442Y-81146614D02*
X203301013Y-81146614D01*
X203586728Y-81146614D02*
X203586728Y-80146614D01*
X203491489Y-80289472D01*
X203396251Y-80384710D01*
X203301013Y-80432329D01*
X189833259Y-76219826D02*
X189033259Y-76219826D01*
X189033259Y-76029350D01*
X189071355Y-75915064D01*
X189147545Y-75838873D01*
X189223735Y-75800778D01*
X189376116Y-75762683D01*
X189490402Y-75762683D01*
X189642783Y-75800778D01*
X189718974Y-75838873D01*
X189795164Y-75915064D01*
X189833259Y-76029350D01*
X189833259Y-76219826D01*
X189033259Y-75038873D02*
X189033259Y-75419826D01*
X189414212Y-75457921D01*
X189376116Y-75419826D01*
X189338021Y-75343635D01*
X189338021Y-75153159D01*
X189376116Y-75076969D01*
X189414212Y-75038873D01*
X189490402Y-75000778D01*
X189680878Y-75000778D01*
X189757069Y-75038873D01*
X189795164Y-75076969D01*
X189833259Y-75153159D01*
X189833259Y-75343635D01*
X189795164Y-75419826D01*
X189757069Y-75457921D01*
X132079224Y-127471502D02*
X132079224Y-128185788D01*
X132031605Y-128328645D01*
X131936367Y-128423883D01*
X131793510Y-128471502D01*
X131698272Y-128471502D01*
X132460177Y-127471502D02*
X133079224Y-127471502D01*
X132745891Y-127852455D01*
X132888748Y-127852455D01*
X132983986Y-127900074D01*
X133031605Y-127947693D01*
X133079224Y-128042931D01*
X133079224Y-128281026D01*
X133031605Y-128376264D01*
X132983986Y-128423883D01*
X132888748Y-128471502D01*
X132603034Y-128471502D01*
X132507796Y-128423883D01*
X132460177Y-128376264D01*
X201138873Y-146305493D02*
X201710302Y-146305493D01*
X201424588Y-147305493D02*
X201424588Y-146305493D01*
X202043635Y-147305493D02*
X202043635Y-146305493D01*
X202043635Y-146781684D02*
X202615064Y-146781684D01*
X202615064Y-147305493D02*
X202615064Y-146305493D01*
X203567445Y-146305493D02*
X203091254Y-146305493D01*
X203043635Y-146781684D01*
X203091254Y-146734065D01*
X203186492Y-146686446D01*
X203424588Y-146686446D01*
X203519826Y-146734065D01*
X203567445Y-146781684D01*
X203615064Y-146876922D01*
X203615064Y-147115017D01*
X203567445Y-147210255D01*
X203519826Y-147257874D01*
X203424588Y-147305493D01*
X203186492Y-147305493D01*
X203091254Y-147257874D01*
X203043635Y-147210255D01*
X153404840Y-131641131D02*
X152604840Y-131641131D01*
X152604840Y-131450655D01*
X152642936Y-131336369D01*
X152719126Y-131260179D01*
X152795316Y-131222083D01*
X152947697Y-131183988D01*
X153061983Y-131183988D01*
X153214364Y-131222083D01*
X153290555Y-131260179D01*
X153366745Y-131336369D01*
X153404840Y-131450655D01*
X153404840Y-131641131D01*
X153404840Y-130422083D02*
X153404840Y-130879226D01*
X153404840Y-130650655D02*
X152604840Y-130650655D01*
X152719126Y-130726845D01*
X152795316Y-130803036D01*
X152833412Y-130879226D01*
X152604840Y-130155417D02*
X152604840Y-129622083D01*
X153404840Y-129964941D01*
D11*
X208105661Y-112018024D02*
X208105661Y-112375167D01*
X208081851Y-112446595D01*
X208034232Y-112494214D01*
X207962804Y-112518024D01*
X207915185Y-112518024D01*
X208343756Y-112518024D02*
X208343756Y-112018024D01*
X208534232Y-112018024D01*
X208581851Y-112041834D01*
X208605661Y-112065643D01*
X208629470Y-112113262D01*
X208629470Y-112184691D01*
X208605661Y-112232310D01*
X208581851Y-112256119D01*
X208534232Y-112279929D01*
X208343756Y-112279929D01*
X208915185Y-112232310D02*
X208867566Y-112208500D01*
X208843756Y-112184691D01*
X208819947Y-112137072D01*
X208819947Y-112113262D01*
X208843756Y-112065643D01*
X208867566Y-112041834D01*
X208915185Y-112018024D01*
X209010423Y-112018024D01*
X209058042Y-112041834D01*
X209081851Y-112065643D01*
X209105661Y-112113262D01*
X209105661Y-112137072D01*
X209081851Y-112184691D01*
X209058042Y-112208500D01*
X209010423Y-112232310D01*
X208915185Y-112232310D01*
X208867566Y-112256119D01*
X208843756Y-112279929D01*
X208819947Y-112327548D01*
X208819947Y-112422786D01*
X208843756Y-112470405D01*
X208867566Y-112494214D01*
X208915185Y-112518024D01*
X209010423Y-112518024D01*
X209058042Y-112494214D01*
X209081851Y-112470405D01*
X209105661Y-112422786D01*
X209105661Y-112327548D01*
X209081851Y-112279929D01*
X209058042Y-112256119D01*
X209010423Y-112232310D01*
D10*
X137786445Y-131646630D02*
X136986445Y-131646630D01*
X136986445Y-131456154D01*
X137024541Y-131341868D01*
X137100731Y-131265678D01*
X137176921Y-131227582D01*
X137329302Y-131189487D01*
X137443588Y-131189487D01*
X137595969Y-131227582D01*
X137672160Y-131265678D01*
X137748350Y-131341868D01*
X137786445Y-131456154D01*
X137786445Y-131646630D01*
X137786445Y-130427582D02*
X137786445Y-130884725D01*
X137786445Y-130656154D02*
X136986445Y-130656154D01*
X137100731Y-130732344D01*
X137176921Y-130808535D01*
X137215017Y-130884725D01*
X136986445Y-129741868D02*
X136986445Y-129894249D01*
X137024541Y-129970440D01*
X137062636Y-130008535D01*
X137176921Y-130084725D01*
X137329302Y-130122821D01*
X137634064Y-130122821D01*
X137710255Y-130084725D01*
X137748350Y-130046630D01*
X137786445Y-129970440D01*
X137786445Y-129818059D01*
X137748350Y-129741868D01*
X137710255Y-129703773D01*
X137634064Y-129665678D01*
X137443588Y-129665678D01*
X137367398Y-129703773D01*
X137329302Y-129741868D01*
X137291207Y-129818059D01*
X137291207Y-129970440D01*
X137329302Y-130046630D01*
X137367398Y-130084725D01*
X137443588Y-130122821D01*
X113833632Y-113599822D02*
X113033632Y-113599822D01*
X113033632Y-113409346D01*
X113071728Y-113295060D01*
X113147918Y-113218870D01*
X113224108Y-113180774D01*
X113376489Y-113142679D01*
X113490775Y-113142679D01*
X113643156Y-113180774D01*
X113719347Y-113218870D01*
X113795537Y-113295060D01*
X113833632Y-113409346D01*
X113833632Y-113599822D01*
X113833632Y-112380774D02*
X113833632Y-112837917D01*
X113833632Y-112609346D02*
X113033632Y-112609346D01*
X113147918Y-112685536D01*
X113224108Y-112761727D01*
X113262204Y-112837917D01*
X113833632Y-111618870D02*
X113833632Y-112076013D01*
X113833632Y-111847441D02*
X113033632Y-111847441D01*
X113147918Y-111923632D01*
X113224108Y-111999822D01*
X113262204Y-112076013D01*
X121815514Y-94834699D02*
X121339323Y-94834699D01*
X121339323Y-93834699D01*
X122148847Y-94310890D02*
X122482181Y-94310890D01*
X122625038Y-94834699D02*
X122148847Y-94834699D01*
X122148847Y-93834699D01*
X122625038Y-93834699D01*
X123053609Y-94834699D02*
X123053609Y-93834699D01*
X123291704Y-93834699D01*
X123434562Y-93882319D01*
X123529800Y-93977557D01*
X123577419Y-94072795D01*
X123625038Y-94263271D01*
X123625038Y-94406128D01*
X123577419Y-94596604D01*
X123529800Y-94691842D01*
X123434562Y-94787080D01*
X123291704Y-94834699D01*
X123053609Y-94834699D01*
X124482181Y-94168033D02*
X124482181Y-94834699D01*
X124244085Y-93787080D02*
X124005990Y-94501366D01*
X124625038Y-94501366D01*
X132833832Y-91409070D02*
X132033832Y-91409070D01*
X132033832Y-91218594D01*
X132071928Y-91104308D01*
X132148118Y-91028117D01*
X132224308Y-90990022D01*
X132376689Y-90951927D01*
X132490975Y-90951927D01*
X132643356Y-90990022D01*
X132719547Y-91028117D01*
X132795737Y-91104308D01*
X132833832Y-91218594D01*
X132833832Y-91409070D01*
X132033832Y-90685260D02*
X132033832Y-90151927D01*
X132833832Y-90494784D01*
X113833632Y-94218470D02*
X113033632Y-94218470D01*
X113033632Y-94027994D01*
X113071728Y-93913708D01*
X113147918Y-93837517D01*
X113224108Y-93799422D01*
X113376489Y-93761327D01*
X113490775Y-93761327D01*
X113643156Y-93799422D01*
X113719347Y-93837517D01*
X113795537Y-93913708D01*
X113833632Y-94027994D01*
X113833632Y-94218470D01*
X113033632Y-93075613D02*
X113033632Y-93227994D01*
X113071728Y-93304184D01*
X113109823Y-93342279D01*
X113224108Y-93418470D01*
X113376489Y-93456565D01*
X113681251Y-93456565D01*
X113757442Y-93418470D01*
X113795537Y-93380374D01*
X113833632Y-93304184D01*
X113833632Y-93151803D01*
X113795537Y-93075613D01*
X113757442Y-93037517D01*
X113681251Y-92999422D01*
X113490775Y-92999422D01*
X113414585Y-93037517D01*
X113376489Y-93075613D01*
X113338394Y-93151803D01*
X113338394Y-93304184D01*
X113376489Y-93380374D01*
X113414585Y-93418470D01*
X113490775Y-93456565D01*
X188342222Y-129485741D02*
X187542222Y-129485741D01*
X187542222Y-129295265D01*
X187580318Y-129180979D01*
X187656508Y-129104789D01*
X187732698Y-129066693D01*
X187885079Y-129028598D01*
X187999365Y-129028598D01*
X188151746Y-129066693D01*
X188227937Y-129104789D01*
X188304127Y-129180979D01*
X188342222Y-129295265D01*
X188342222Y-129485741D01*
X188342222Y-128266693D02*
X188342222Y-128723836D01*
X188342222Y-128495265D02*
X187542222Y-128495265D01*
X187656508Y-128571455D01*
X187732698Y-128647646D01*
X187770794Y-128723836D01*
X188342222Y-127885741D02*
X188342222Y-127733360D01*
X188304127Y-127657170D01*
X188266032Y-127619074D01*
X188151746Y-127542884D01*
X187999365Y-127504789D01*
X187694603Y-127504789D01*
X187618413Y-127542884D01*
X187580318Y-127580979D01*
X187542222Y-127657170D01*
X187542222Y-127809551D01*
X187580318Y-127885741D01*
X187618413Y-127923836D01*
X187694603Y-127961932D01*
X187885079Y-127961932D01*
X187961270Y-127923836D01*
X187999365Y-127885741D01*
X188037460Y-127809551D01*
X188037460Y-127657170D01*
X187999365Y-127580979D01*
X187961270Y-127542884D01*
X187885079Y-127504789D01*
X132833832Y-72409470D02*
X132033832Y-72409470D01*
X132033832Y-72218994D01*
X132071928Y-72104708D01*
X132148118Y-72028517D01*
X132224308Y-71990422D01*
X132376689Y-71952327D01*
X132490975Y-71952327D01*
X132643356Y-71990422D01*
X132719547Y-72028517D01*
X132795737Y-72104708D01*
X132833832Y-72218994D01*
X132833832Y-72409470D01*
X132110023Y-71647565D02*
X132071928Y-71609470D01*
X132033832Y-71533279D01*
X132033832Y-71342803D01*
X132071928Y-71266613D01*
X132110023Y-71228517D01*
X132186213Y-71190422D01*
X132262404Y-71190422D01*
X132376689Y-71228517D01*
X132833832Y-71685660D01*
X132833832Y-71190422D01*
X151833232Y-106979822D02*
X151033232Y-106979822D01*
X151033232Y-106789346D01*
X151071328Y-106675060D01*
X151147518Y-106598870D01*
X151223708Y-106560774D01*
X151376089Y-106522679D01*
X151490375Y-106522679D01*
X151642756Y-106560774D01*
X151718947Y-106598870D01*
X151795137Y-106675060D01*
X151833232Y-106789346D01*
X151833232Y-106979822D01*
X151833232Y-105760774D02*
X151833232Y-106217917D01*
X151833232Y-105989346D02*
X151033232Y-105989346D01*
X151147518Y-106065536D01*
X151223708Y-106141727D01*
X151261804Y-106217917D01*
X151033232Y-105494108D02*
X151033232Y-104998870D01*
X151337994Y-105265536D01*
X151337994Y-105151251D01*
X151376089Y-105075060D01*
X151414185Y-105036965D01*
X151490375Y-104998870D01*
X151680851Y-104998870D01*
X151757042Y-105036965D01*
X151795137Y-105075060D01*
X151833232Y-105151251D01*
X151833232Y-105379822D01*
X151795137Y-105456013D01*
X151757042Y-105494108D01*
X113833632Y-75218070D02*
X113033632Y-75218070D01*
X113033632Y-75027594D01*
X113071728Y-74913308D01*
X113147918Y-74837117D01*
X113224108Y-74799022D01*
X113376489Y-74760927D01*
X113490775Y-74760927D01*
X113643156Y-74799022D01*
X113719347Y-74837117D01*
X113795537Y-74913308D01*
X113833632Y-75027594D01*
X113833632Y-75218070D01*
X113833632Y-73999022D02*
X113833632Y-74456165D01*
X113833632Y-74227594D02*
X113033632Y-74227594D01*
X113147918Y-74303784D01*
X113224108Y-74379974D01*
X113262204Y-74456165D01*
X171488314Y-94834699D02*
X171012123Y-94834699D01*
X171012123Y-93834699D01*
X171821647Y-94310890D02*
X172154981Y-94310890D01*
X172297838Y-94834699D02*
X171821647Y-94834699D01*
X171821647Y-93834699D01*
X172297838Y-93834699D01*
X172726409Y-94834699D02*
X172726409Y-93834699D01*
X172964504Y-93834699D01*
X173107362Y-93882319D01*
X173202600Y-93977557D01*
X173250219Y-94072795D01*
X173297838Y-94263271D01*
X173297838Y-94406128D01*
X173250219Y-94596604D01*
X173202600Y-94691842D01*
X173107362Y-94787080D01*
X172964504Y-94834699D01*
X172726409Y-94834699D01*
X173678790Y-93929938D02*
X173726409Y-93882319D01*
X173821647Y-93834699D01*
X174059742Y-93834699D01*
X174154981Y-93882319D01*
X174202600Y-93929938D01*
X174250219Y-94025176D01*
X174250219Y-94120414D01*
X174202600Y-94263271D01*
X173631171Y-94834699D01*
X174250219Y-94834699D01*
X204893795Y-92703567D02*
X205608081Y-92703567D01*
X205750938Y-92751186D01*
X205846176Y-92846424D01*
X205893795Y-92989281D01*
X205893795Y-93084519D01*
X205893795Y-92227376D02*
X204893795Y-92227376D01*
X204893795Y-91846424D01*
X204941415Y-91751186D01*
X204989034Y-91703567D01*
X205084272Y-91655948D01*
X205227129Y-91655948D01*
X205322367Y-91703567D01*
X205369986Y-91751186D01*
X205417605Y-91846424D01*
X205417605Y-92227376D01*
X205893795Y-91179757D02*
X205893795Y-90989281D01*
X205846176Y-90894043D01*
X205798557Y-90846424D01*
X205655700Y-90751186D01*
X205465224Y-90703567D01*
X205084272Y-90703567D01*
X204989034Y-90751186D01*
X204941415Y-90798805D01*
X204893795Y-90894043D01*
X204893795Y-91084519D01*
X204941415Y-91179757D01*
X204989034Y-91227376D01*
X205084272Y-91274995D01*
X205322367Y-91274995D01*
X205417605Y-91227376D01*
X205465224Y-91179757D01*
X205512843Y-91084519D01*
X205512843Y-90894043D01*
X205465224Y-90798805D01*
X205417605Y-90751186D01*
X205322367Y-90703567D01*
X205516080Y-118942538D02*
X205516080Y-118371110D01*
X206516080Y-118656824D02*
X205516080Y-118656824D01*
X206516080Y-117466348D02*
X206039890Y-117799681D01*
X206516080Y-118037776D02*
X205516080Y-118037776D01*
X205516080Y-117656824D01*
X205563700Y-117561586D01*
X205611319Y-117513967D01*
X205706557Y-117466348D01*
X205849414Y-117466348D01*
X205944652Y-117513967D01*
X205992271Y-117561586D01*
X206039890Y-117656824D01*
X206039890Y-118037776D01*
X206516080Y-116466348D02*
X206039890Y-116799681D01*
X206516080Y-117037776D02*
X205516080Y-117037776D01*
X205516080Y-116656824D01*
X205563700Y-116561586D01*
X205611319Y-116513967D01*
X205706557Y-116466348D01*
X205849414Y-116466348D01*
X205944652Y-116513967D01*
X205992271Y-116561586D01*
X206039890Y-116656824D01*
X206039890Y-117037776D01*
X206468461Y-116085395D02*
X206516080Y-115942538D01*
X206516080Y-115704443D01*
X206468461Y-115609205D01*
X206420842Y-115561586D01*
X206325604Y-115513967D01*
X206230366Y-115513967D01*
X206135128Y-115561586D01*
X206087509Y-115609205D01*
X206039890Y-115704443D01*
X205992271Y-115894919D01*
X205944652Y-115990157D01*
X205897033Y-116037776D01*
X205801795Y-116085395D01*
X205706557Y-116085395D01*
X205611319Y-116037776D01*
X205563700Y-115990157D01*
X205516080Y-115894919D01*
X205516080Y-115656824D01*
X205563700Y-115513967D01*
X205516080Y-118942538D02*
X205516080Y-118371110D01*
X206516080Y-118656824D02*
X205516080Y-118656824D01*
X206516080Y-117466348D02*
X206039890Y-117799681D01*
X206516080Y-118037776D02*
X205516080Y-118037776D01*
X205516080Y-117656824D01*
X205563700Y-117561586D01*
X205611319Y-117513967D01*
X205706557Y-117466348D01*
X205849414Y-117466348D01*
X205944652Y-117513967D01*
X205992271Y-117561586D01*
X206039890Y-117656824D01*
X206039890Y-118037776D01*
X206516080Y-116466348D02*
X206039890Y-116799681D01*
X206516080Y-117037776D02*
X205516080Y-117037776D01*
X205516080Y-116656824D01*
X205563700Y-116561586D01*
X205611319Y-116513967D01*
X205706557Y-116466348D01*
X205849414Y-116466348D01*
X205944652Y-116513967D01*
X205992271Y-116561586D01*
X206039890Y-116656824D01*
X206039890Y-117037776D01*
X206468461Y-116085395D02*
X206516080Y-115942538D01*
X206516080Y-115704443D01*
X206468461Y-115609205D01*
X206420842Y-115561586D01*
X206325604Y-115513967D01*
X206230366Y-115513967D01*
X206135128Y-115561586D01*
X206087509Y-115609205D01*
X206039890Y-115704443D01*
X205992271Y-115894919D01*
X205944652Y-115990157D01*
X205897033Y-116037776D01*
X205801795Y-116085395D01*
X205706557Y-116085395D01*
X205611319Y-116037776D01*
X205563700Y-115990157D01*
X205516080Y-115894919D01*
X205516080Y-115656824D01*
X205563700Y-115513967D01*
X191000892Y-129485741D02*
X190200892Y-129485741D01*
X190200892Y-129295265D01*
X190238988Y-129180979D01*
X190315178Y-129104789D01*
X190391368Y-129066693D01*
X190543749Y-129028598D01*
X190658035Y-129028598D01*
X190810416Y-129066693D01*
X190886607Y-129104789D01*
X190962797Y-129180979D01*
X191000892Y-129295265D01*
X191000892Y-129485741D01*
X190277083Y-128723836D02*
X190238988Y-128685741D01*
X190200892Y-128609551D01*
X190200892Y-128419074D01*
X190238988Y-128342884D01*
X190277083Y-128304789D01*
X190353273Y-128266693D01*
X190429464Y-128266693D01*
X190543749Y-128304789D01*
X191000892Y-128761932D01*
X191000892Y-128266693D01*
X190200892Y-127771455D02*
X190200892Y-127695265D01*
X190238988Y-127619074D01*
X190277083Y-127580979D01*
X190353273Y-127542884D01*
X190505654Y-127504789D01*
X190696130Y-127504789D01*
X190848511Y-127542884D01*
X190924702Y-127580979D01*
X190962797Y-127619074D01*
X191000892Y-127695265D01*
X191000892Y-127771455D01*
X190962797Y-127847646D01*
X190924702Y-127885741D01*
X190848511Y-127923836D01*
X190696130Y-127961932D01*
X190505654Y-127961932D01*
X190353273Y-127923836D01*
X190277083Y-127885741D01*
X190238988Y-127847646D01*
X190200892Y-127771455D01*
D11*
X200434861Y-112018024D02*
X200434861Y-112375167D01*
X200411051Y-112446595D01*
X200363432Y-112494214D01*
X200292004Y-112518024D01*
X200244385Y-112518024D01*
X200672956Y-112518024D02*
X200672956Y-112018024D01*
X200863432Y-112018024D01*
X200911051Y-112041834D01*
X200934861Y-112065643D01*
X200958670Y-112113262D01*
X200958670Y-112184691D01*
X200934861Y-112232310D01*
X200911051Y-112256119D01*
X200863432Y-112279929D01*
X200672956Y-112279929D01*
X201411051Y-112018024D02*
X201172956Y-112018024D01*
X201149147Y-112256119D01*
X201172956Y-112232310D01*
X201220575Y-112208500D01*
X201339623Y-112208500D01*
X201387242Y-112232310D01*
X201411051Y-112256119D01*
X201434861Y-112303738D01*
X201434861Y-112422786D01*
X201411051Y-112470405D01*
X201387242Y-112494214D01*
X201339623Y-112518024D01*
X201220575Y-112518024D01*
X201172956Y-112494214D01*
X201149147Y-112470405D01*
D10*
X151833232Y-87598670D02*
X151033232Y-87598670D01*
X151033232Y-87408194D01*
X151071328Y-87293908D01*
X151147518Y-87217717D01*
X151223708Y-87179622D01*
X151376089Y-87141527D01*
X151490375Y-87141527D01*
X151642756Y-87179622D01*
X151718947Y-87217717D01*
X151795137Y-87293908D01*
X151833232Y-87408194D01*
X151833232Y-87598670D01*
X151376089Y-86684384D02*
X151337994Y-86760574D01*
X151299899Y-86798670D01*
X151223708Y-86836765D01*
X151185613Y-86836765D01*
X151109423Y-86798670D01*
X151071328Y-86760574D01*
X151033232Y-86684384D01*
X151033232Y-86532003D01*
X151071328Y-86455813D01*
X151109423Y-86417717D01*
X151185613Y-86379622D01*
X151223708Y-86379622D01*
X151299899Y-86417717D01*
X151337994Y-86455813D01*
X151376089Y-86532003D01*
X151376089Y-86684384D01*
X151414185Y-86760574D01*
X151452280Y-86798670D01*
X151528470Y-86836765D01*
X151680851Y-86836765D01*
X151757042Y-86798670D01*
X151795137Y-86760574D01*
X151833232Y-86684384D01*
X151833232Y-86532003D01*
X151795137Y-86455813D01*
X151757042Y-86417717D01*
X151680851Y-86379622D01*
X151528470Y-86379622D01*
X151452280Y-86417717D01*
X151414185Y-86455813D01*
X151376089Y-86532003D01*
X184661476Y-60097556D02*
X184328142Y-59621366D01*
X184090047Y-60097556D02*
X184090047Y-59097556D01*
X184471000Y-59097556D01*
X184566238Y-59145176D01*
X184613857Y-59192795D01*
X184661476Y-59288033D01*
X184661476Y-59430890D01*
X184613857Y-59526128D01*
X184566238Y-59573747D01*
X184471000Y-59621366D01*
X184090047Y-59621366D01*
X185042428Y-60049937D02*
X185185285Y-60097556D01*
X185423381Y-60097556D01*
X185518619Y-60049937D01*
X185566238Y-60002318D01*
X185613857Y-59907080D01*
X185613857Y-59811842D01*
X185566238Y-59716604D01*
X185518619Y-59668985D01*
X185423381Y-59621366D01*
X185232904Y-59573747D01*
X185137666Y-59526128D01*
X185090047Y-59478509D01*
X185042428Y-59383271D01*
X185042428Y-59288033D01*
X185090047Y-59192795D01*
X185137666Y-59145176D01*
X185232904Y-59097556D01*
X185471000Y-59097556D01*
X185613857Y-59145176D01*
X185947190Y-59097556D02*
X186185285Y-60097556D01*
X186375762Y-59383271D01*
X186566238Y-60097556D01*
X186804333Y-59097556D01*
X187709095Y-60097556D02*
X187137666Y-60097556D01*
X187423381Y-60097556D02*
X187423381Y-59097556D01*
X187328142Y-59240414D01*
X187232904Y-59335652D01*
X187137666Y-59383271D01*
X146651914Y-90034099D02*
X146175723Y-90034099D01*
X146175723Y-89034099D01*
X146985247Y-89510290D02*
X147318581Y-89510290D01*
X147461438Y-90034099D02*
X146985247Y-90034099D01*
X146985247Y-89034099D01*
X147461438Y-89034099D01*
X147890009Y-90034099D02*
X147890009Y-89034099D01*
X148128104Y-89034099D01*
X148270962Y-89081719D01*
X148366200Y-89176957D01*
X148413819Y-89272195D01*
X148461438Y-89462671D01*
X148461438Y-89605528D01*
X148413819Y-89796004D01*
X148366200Y-89891242D01*
X148270962Y-89986480D01*
X148128104Y-90034099D01*
X147890009Y-90034099D01*
X148794771Y-89034099D02*
X149413819Y-89034099D01*
X149080485Y-89415052D01*
X149223342Y-89415052D01*
X149318581Y-89462671D01*
X149366200Y-89510290D01*
X149413819Y-89605528D01*
X149413819Y-89843623D01*
X149366200Y-89938861D01*
X149318581Y-89986480D01*
X149223342Y-90034099D01*
X148937628Y-90034099D01*
X148842390Y-89986480D01*
X148794771Y-89938861D01*
D11*
X205565661Y-112018024D02*
X205565661Y-112375167D01*
X205541851Y-112446595D01*
X205494232Y-112494214D01*
X205422804Y-112518024D01*
X205375185Y-112518024D01*
X205803756Y-112518024D02*
X205803756Y-112018024D01*
X205994232Y-112018024D01*
X206041851Y-112041834D01*
X206065661Y-112065643D01*
X206089470Y-112113262D01*
X206089470Y-112184691D01*
X206065661Y-112232310D01*
X206041851Y-112256119D01*
X205994232Y-112279929D01*
X205803756Y-112279929D01*
X206256137Y-112018024D02*
X206589470Y-112018024D01*
X206375185Y-112518024D01*
D10*
X202437508Y-93179757D02*
X203151794Y-93179757D01*
X203294651Y-93227376D01*
X203389889Y-93322614D01*
X203437508Y-93465472D01*
X203437508Y-93560710D01*
X203437508Y-92703567D02*
X202437508Y-92703567D01*
X202437508Y-92322614D01*
X202485128Y-92227376D01*
X202532747Y-92179757D01*
X202627985Y-92132138D01*
X202770842Y-92132138D01*
X202866080Y-92179757D01*
X202913699Y-92227376D01*
X202961318Y-92322614D01*
X202961318Y-92703567D01*
X203437508Y-91179757D02*
X203437508Y-91751186D01*
X203437508Y-91465472D02*
X202437508Y-91465472D01*
X202580366Y-91560710D01*
X202675604Y-91655948D01*
X202723223Y-91751186D01*
X202437508Y-90560710D02*
X202437508Y-90465472D01*
X202485128Y-90370234D01*
X202532747Y-90322614D01*
X202627985Y-90274995D01*
X202818461Y-90227376D01*
X203056556Y-90227376D01*
X203247032Y-90274995D01*
X203342270Y-90322614D01*
X203389889Y-90370234D01*
X203437508Y-90465472D01*
X203437508Y-90560710D01*
X203389889Y-90655948D01*
X203342270Y-90703567D01*
X203247032Y-90751186D01*
X203056556Y-90798805D01*
X202818461Y-90798805D01*
X202627985Y-90751186D01*
X202532747Y-90703567D01*
X202485128Y-90655948D01*
X202437508Y-90560710D01*
X117467523Y-56479570D02*
X118038952Y-56479570D01*
X117753238Y-57479570D02*
X117753238Y-56479570D01*
X118372285Y-57479570D02*
X118372285Y-56479570D01*
X118372285Y-56955761D02*
X118943714Y-56955761D01*
X118943714Y-57479570D02*
X118943714Y-56479570D01*
X119372285Y-56574809D02*
X119419904Y-56527190D01*
X119515142Y-56479570D01*
X119753238Y-56479570D01*
X119848476Y-56527190D01*
X119896095Y-56574809D01*
X119943714Y-56670047D01*
X119943714Y-56765285D01*
X119896095Y-56908142D01*
X119324666Y-57479570D01*
X119943714Y-57479570D01*
D11*
X203025661Y-112018024D02*
X203025661Y-112375167D01*
X203001851Y-112446595D01*
X202954232Y-112494214D01*
X202882804Y-112518024D01*
X202835185Y-112518024D01*
X203263756Y-112518024D02*
X203263756Y-112018024D01*
X203454232Y-112018024D01*
X203501851Y-112041834D01*
X203525661Y-112065643D01*
X203549470Y-112113262D01*
X203549470Y-112184691D01*
X203525661Y-112232310D01*
X203501851Y-112256119D01*
X203454232Y-112279929D01*
X203263756Y-112279929D01*
X203978042Y-112018024D02*
X203882804Y-112018024D01*
X203835185Y-112041834D01*
X203811375Y-112065643D01*
X203763756Y-112137072D01*
X203739947Y-112232310D01*
X203739947Y-112422786D01*
X203763756Y-112470405D01*
X203787566Y-112494214D01*
X203835185Y-112518024D01*
X203930423Y-112518024D01*
X203978042Y-112494214D01*
X204001851Y-112470405D01*
X204025661Y-112422786D01*
X204025661Y-112303738D01*
X204001851Y-112256119D01*
X203978042Y-112232310D01*
X203930423Y-112208500D01*
X203835185Y-112208500D01*
X203787566Y-112232310D01*
X203763756Y-112256119D01*
X203739947Y-112303738D01*
D10*
X179325815Y-85964484D02*
X187950815Y-85964484D01*
X190212626Y-91891594D02*
X188612626Y-91891594D01*
X190212626Y-89937594D02*
X190212626Y-91937594D01*
X190225815Y-91872484D02*
X186615815Y-91872484D01*
X179325815Y-89918484D02*
X184375815Y-89964484D01*
X179325815Y-89872484D02*
X179325815Y-85964484D01*
X190225815Y-87918484D02*
X190225815Y-91863484D01*
X186610816Y-91848483D02*
G75*
G03*
X184350815Y-89968484I-2070000J-190001D01*
G01*
X190214816Y-87848484D02*
G75*
G03*
X187950815Y-85964484I-2074000J-190000D01*
G01*
X133213328Y-88081394D02*
X131613328Y-88081394D01*
X133226517Y-88062284D02*
X129616517Y-88062284D01*
X133226517Y-84108284D02*
X133226517Y-88053284D01*
X133213328Y-86127394D02*
X133213328Y-88127394D01*
X122326517Y-82154284D02*
X130951517Y-82154284D01*
X122326517Y-86108284D02*
X127376517Y-86154284D01*
X122326517Y-86062284D02*
X122326517Y-82154284D01*
X133215518Y-84038284D02*
G75*
G03*
X130951517Y-82154284I-2074000J-190000D01*
G01*
X129611518Y-88038283D02*
G75*
G03*
X127351517Y-86158284I-2070000J-190001D01*
G01*
X122326517Y-105061884D02*
X122326517Y-101153884D01*
X122326517Y-101153884D02*
X130951517Y-101153884D01*
X133226517Y-107061884D02*
X129616517Y-107061884D01*
X122326517Y-105107884D02*
X127376517Y-105153884D01*
X133213328Y-105126994D02*
X133213328Y-107126994D01*
X133226517Y-103107884D02*
X133226517Y-107052884D01*
X133213328Y-107080994D02*
X131613328Y-107080994D01*
X129611518Y-107037883D02*
G75*
G03*
X127351517Y-105157884I-2070000J-190001D01*
G01*
X133215518Y-103037884D02*
G75*
G03*
X130951517Y-101153884I-2074000J-190000D01*
G01*
D12*
X171709928Y-107069594D02*
X174109928Y-107069594D01*
X174109928Y-107069594D02*
X174109928Y-113069594D01*
X174109928Y-113069594D02*
X171709928Y-113069594D01*
X171709928Y-113069594D02*
X171709928Y-107069594D01*
G36*
X174109928Y-113069594D02*
G01*
X171709928Y-113069594D01*
X171709928Y-112511194D01*
X174109928Y-112511194D01*
X174109928Y-113069594D01*
G37*
X174109928Y-113069594D02*
X171709928Y-113069594D01*
X171709928Y-112511194D01*
X174109928Y-112511194D01*
X174109928Y-113069594D01*
D13*
X216883725Y-136126432D02*
X219201947Y-136747598D01*
X206742864Y-137653829D02*
X207804022Y-133693533D01*
X211794778Y-141595676D02*
X212053598Y-140629750D01*
X206312527Y-147373644D02*
X205945104Y-147585776D01*
X217105512Y-144571597D02*
X216044354Y-148531893D01*
X211441225Y-140983303D02*
X212407151Y-141242123D01*
X204646429Y-145477828D02*
X216044354Y-148531893D01*
X205945104Y-147585776D02*
X206100395Y-147006221D01*
X219201947Y-136747598D02*
X218140788Y-140707894D01*
X205707588Y-141517532D02*
X204646429Y-145477828D01*
X206100395Y-147006221D02*
X206312527Y-147373644D01*
X207804022Y-133693533D02*
X210122244Y-134314699D01*
X212247281Y-134884101D02*
X214758688Y-135557030D01*
X214924188Y-141112713D02*
G75*
G03*
X214924188Y-141112713I-3000000J0D01*
G01*
D10*
X209066434Y-133283175D02*
X217397545Y-135515489D01*
X208054970Y-137058013D02*
X209066434Y-133283175D01*
X218048237Y-141826038D02*
X216502756Y-141411927D01*
X218065923Y-141810992D02*
X214578931Y-140876656D01*
X218553970Y-139938619D02*
X218036332Y-141870470D01*
X208043064Y-137102446D02*
X212909084Y-138453914D01*
X219089294Y-137991722D02*
X218068252Y-141802299D01*
X214580314Y-140852179D02*
G75*
G03*
X212883900Y-138451308I-2048642J352229D01*
G01*
X219096787Y-137921260D02*
G75*
G03*
X217397545Y-135515489I-2052506J353265D01*
G01*
D13*
X204492260Y-83261202D02*
X204492260Y-84465330D01*
X206312260Y-83261202D02*
X206312260Y-84465330D01*
D12*
X171709928Y-88069194D02*
X174109928Y-88069194D01*
X174109928Y-88069194D02*
X174109928Y-94069194D01*
X174109928Y-94069194D02*
X171709928Y-94069194D01*
X171709928Y-94069194D02*
X171709928Y-88069194D01*
G36*
X174109928Y-94069194D02*
G01*
X171709928Y-94069194D01*
X171709928Y-93510794D01*
X174109928Y-93510794D01*
X174109928Y-94069194D01*
G37*
X174109928Y-94069194D02*
X171709928Y-94069194D01*
X171709928Y-93510794D01*
X174109928Y-93510794D01*
X174109928Y-94069194D01*
X186521473Y-127080634D02*
X184121473Y-127080634D01*
X184121473Y-127080634D02*
X184121473Y-121080634D01*
X184121473Y-121080634D02*
X186521473Y-121080634D01*
X186521473Y-121080634D02*
X186521473Y-127080634D01*
G36*
X186521473Y-121639034D02*
G01*
X184121473Y-121639034D01*
X184121473Y-121080634D01*
X186521473Y-121080634D01*
X186521473Y-121639034D01*
G37*
X186521473Y-121639034D02*
X184121473Y-121639034D01*
X184121473Y-121080634D01*
X186521473Y-121080634D01*
X186521473Y-121639034D01*
D11*
X132654580Y-129833913D02*
G75*
G03*
X132654580Y-129833913I-2200000J0D01*
G01*
G36*
X130459131Y-128553784D02*
G01*
X130708794Y-128606024D01*
X130733344Y-128613004D01*
X130921463Y-128685305D01*
X131088268Y-128783248D01*
X131224577Y-128898551D01*
X131321208Y-129022933D01*
X131368980Y-129148113D01*
X131372461Y-129189418D01*
X131349590Y-129291924D01*
X131282756Y-129352683D01*
X131174630Y-129370846D01*
X131027880Y-129345565D01*
X130955537Y-129321850D01*
X130880310Y-129284523D01*
X130772565Y-129218629D01*
X130648224Y-129134343D01*
X130552362Y-129064200D01*
X130411575Y-128965653D01*
X130259265Y-128872508D01*
X130108833Y-128791674D01*
X129973682Y-128730065D01*
X129867212Y-128694590D01*
X129824253Y-128688712D01*
X129792149Y-128668868D01*
X129790776Y-128661039D01*
X129818562Y-128640744D01*
X129891826Y-128612941D01*
X129995429Y-128583264D01*
X130008499Y-128580011D01*
X130231944Y-128545397D01*
X130459131Y-128553784D01*
G37*
G36*
X129912162Y-130302484D02*
G01*
X130088711Y-130379925D01*
X130257670Y-130504846D01*
X130508513Y-130699994D01*
X130746695Y-130835338D01*
X130973396Y-130911535D01*
X130994170Y-130915682D01*
X131074817Y-130937510D01*
X131094634Y-130962275D01*
X131053331Y-130991350D01*
X130972215Y-131019804D01*
X130793133Y-131055902D01*
X130586417Y-131070587D01*
X130381528Y-131063162D01*
X130224992Y-131037496D01*
X129992443Y-130958008D01*
X129794676Y-130848733D01*
X129640749Y-130715734D01*
X129549543Y-130585446D01*
X129497449Y-130457457D01*
X129493815Y-130366912D01*
X129541001Y-130309753D01*
X129641371Y-130281921D01*
X129728729Y-130277612D01*
X129912162Y-130302484D01*
G37*
D10*
X110611318Y-71847283D02*
G75*
G03*
X108351317Y-69967284I-2070000J-190001D01*
G01*
X114215318Y-67847284D02*
G75*
G03*
X111951317Y-65963284I-2074000J-190000D01*
G01*
X114226317Y-67917284D02*
X114226317Y-71862284D01*
X103326317Y-69917284D02*
X108376317Y-69963284D01*
X114213128Y-71890394D02*
X112613128Y-71890394D01*
X114226317Y-71871284D02*
X110616317Y-71871284D01*
X103326317Y-65963284D02*
X111951317Y-65963284D01*
X103326317Y-69871284D02*
X103326317Y-65963284D01*
X114213128Y-69936394D02*
X114213128Y-71936394D01*
D13*
X193793762Y-106773833D02*
X193793762Y-114073833D01*
X199293762Y-106773833D02*
X199293762Y-114073833D01*
X193793762Y-114073833D02*
X194943762Y-114073833D01*
D10*
X114215318Y-86847684D02*
G75*
G03*
X111951317Y-84963684I-2074000J-190000D01*
G01*
X110611318Y-90847683D02*
G75*
G03*
X108351317Y-88967684I-2070000J-190001D01*
G01*
X114213128Y-90890794D02*
X112613128Y-90890794D01*
X114226317Y-86917684D02*
X114226317Y-90862684D01*
X103326317Y-88917684D02*
X108376317Y-88963684D01*
X103326317Y-88871684D02*
X103326317Y-84963684D01*
X114213128Y-88936794D02*
X114213128Y-90936794D01*
X103326317Y-84963684D02*
X111951317Y-84963684D01*
X114226317Y-90871684D02*
X110616317Y-90871684D01*
D12*
X133710328Y-107068994D02*
X136110328Y-107068994D01*
X136110328Y-107068994D02*
X136110328Y-113068994D01*
X136110328Y-113068994D02*
X133710328Y-113068994D01*
X133710328Y-113068994D02*
X133710328Y-107068994D01*
G36*
X136110328Y-113068994D02*
G01*
X133710328Y-113068994D01*
X133710328Y-112510594D01*
X136110328Y-112510594D01*
X136110328Y-113068994D01*
G37*
X136110328Y-113068994D02*
X133710328Y-113068994D01*
X133710328Y-112510594D01*
X136110328Y-112510594D01*
X136110328Y-113068994D01*
X171709928Y-69069234D02*
X174109928Y-69069234D01*
X174109928Y-69069234D02*
X174109928Y-75069234D01*
X174109928Y-75069234D02*
X171709928Y-75069234D01*
X171709928Y-75069234D02*
X171709928Y-69069234D01*
G36*
X174109928Y-75069234D02*
G01*
X171709928Y-75069234D01*
X171709928Y-74510834D01*
X174109928Y-74510834D01*
X174109928Y-75069234D01*
G37*
X174109928Y-75069234D02*
X171709928Y-75069234D01*
X171709928Y-74510834D01*
X174109928Y-74510834D01*
X174109928Y-75069234D01*
X190709626Y-91879594D02*
X193109626Y-91879594D01*
X193109626Y-91879594D02*
X193109626Y-97879594D01*
X193109626Y-97879594D02*
X190709626Y-97879594D01*
X190709626Y-97879594D02*
X190709626Y-91879594D01*
G36*
X193109626Y-97879594D02*
G01*
X190709626Y-97879594D01*
X190709626Y-97321194D01*
X193109626Y-97321194D01*
X193109626Y-97879594D01*
G37*
X193109626Y-97879594D02*
X190709626Y-97879594D01*
X190709626Y-97321194D01*
X193109626Y-97321194D01*
X193109626Y-97879594D01*
X152709728Y-65259034D02*
X155109728Y-65259034D01*
X155109728Y-65259034D02*
X155109728Y-71259034D01*
X155109728Y-71259034D02*
X152709728Y-71259034D01*
X152709728Y-71259034D02*
X152709728Y-65259034D01*
G36*
X155109728Y-71259034D02*
G01*
X152709728Y-71259034D01*
X152709728Y-70700634D01*
X155109728Y-70700634D01*
X155109728Y-71259034D01*
G37*
X155109728Y-71259034D02*
X152709728Y-71259034D01*
X152709728Y-70700634D01*
X155109728Y-70700634D01*
X155109728Y-71259034D01*
X190709626Y-110879594D02*
X193109626Y-110879594D01*
X193109626Y-110879594D02*
X193109626Y-116879594D01*
X193109626Y-116879594D02*
X190709626Y-116879594D01*
X190709626Y-116879594D02*
X190709626Y-110879594D01*
G36*
X193109626Y-116879594D02*
G01*
X190709626Y-116879594D01*
X190709626Y-116321194D01*
X193109626Y-116321194D01*
X193109626Y-116879594D01*
G37*
X193109626Y-116879594D02*
X190709626Y-116879594D01*
X190709626Y-116321194D01*
X193109626Y-116321194D01*
X193109626Y-116879594D01*
D10*
X209770639Y-105994021D02*
X209770639Y-108534021D01*
X199610639Y-108534021D02*
X209770639Y-108534021D01*
X199610639Y-108534021D02*
X199610639Y-105994021D01*
X199610639Y-105994021D02*
X209770639Y-105994021D01*
X199937694Y-135400924D02*
X198916652Y-139211501D01*
X198914323Y-139220194D02*
X195427331Y-138285858D01*
X188903370Y-134467215D02*
X189914834Y-130692377D01*
X199402370Y-137347821D02*
X198884732Y-139279672D01*
X189914834Y-130692377D02*
X198245945Y-132924691D01*
X188891464Y-134511648D02*
X193757484Y-135863116D01*
X198896637Y-139235240D02*
X197351156Y-138821129D01*
X195428714Y-138261381D02*
G75*
G03*
X193732300Y-135860510I-2048642J352229D01*
G01*
X199945187Y-135330462D02*
G75*
G03*
X198245945Y-132924691I-2052506J353265D01*
G01*
D13*
X203987160Y-83261202D02*
X203987160Y-84465330D01*
X202167160Y-83261202D02*
X202167160Y-84465330D01*
D11*
X148312954Y-129833913D02*
G75*
G03*
X148312954Y-129833913I-2200000J0D01*
G01*
G36*
X146117505Y-128553784D02*
G01*
X146367168Y-128606024D01*
X146391718Y-128613004D01*
X146579837Y-128685305D01*
X146746642Y-128783248D01*
X146882951Y-128898551D01*
X146979582Y-129022933D01*
X147027354Y-129148113D01*
X147030835Y-129189418D01*
X147007964Y-129291924D01*
X146941130Y-129352683D01*
X146833004Y-129370846D01*
X146686254Y-129345565D01*
X146613911Y-129321850D01*
X146538684Y-129284523D01*
X146430939Y-129218629D01*
X146306598Y-129134343D01*
X146210736Y-129064200D01*
X146069949Y-128965653D01*
X145917639Y-128872508D01*
X145767207Y-128791674D01*
X145632056Y-128730065D01*
X145525586Y-128694590D01*
X145482627Y-128688712D01*
X145450523Y-128668868D01*
X145449150Y-128661039D01*
X145476936Y-128640744D01*
X145550200Y-128612941D01*
X145653803Y-128583264D01*
X145666873Y-128580011D01*
X145890318Y-128545397D01*
X146117505Y-128553784D01*
G37*
G36*
X145570536Y-130302484D02*
G01*
X145747085Y-130379925D01*
X145916044Y-130504846D01*
X146166887Y-130699994D01*
X146405069Y-130835338D01*
X146631770Y-130911535D01*
X146652544Y-130915682D01*
X146733191Y-130937510D01*
X146753008Y-130962275D01*
X146711705Y-130991350D01*
X146630589Y-131019804D01*
X146451507Y-131055902D01*
X146244791Y-131070587D01*
X146039902Y-131063162D01*
X145883366Y-131037496D01*
X145650817Y-130958008D01*
X145453050Y-130848733D01*
X145299123Y-130715734D01*
X145207917Y-130585446D01*
X145155823Y-130457457D01*
X145152189Y-130366912D01*
X145199375Y-130309753D01*
X145299745Y-130281921D01*
X145387103Y-130277612D01*
X145570536Y-130302484D01*
G37*
D12*
X190709755Y-72880150D02*
X193109755Y-72880150D01*
X193109755Y-72880150D02*
X193109755Y-78880150D01*
X193109755Y-78880150D02*
X190709755Y-78880150D01*
X190709755Y-78880150D02*
X190709755Y-72880150D01*
G36*
X193109755Y-78880150D02*
G01*
X190709755Y-78880150D01*
X190709755Y-78321750D01*
X193109755Y-78321750D01*
X193109755Y-78880150D01*
G37*
X193109755Y-78880150D02*
X190709755Y-78880150D01*
X190709755Y-78321750D01*
X193109755Y-78321750D01*
X193109755Y-78880150D01*
D13*
X133612558Y-124960159D02*
X133412558Y-124560159D01*
X136487558Y-122370159D02*
X136487558Y-121770159D01*
X133212558Y-124960159D02*
X133612558Y-124960159D01*
X136377558Y-122370159D02*
X136487558Y-122370159D01*
X128337558Y-122370159D02*
X128337558Y-121770159D01*
X128447558Y-122370159D02*
X128337558Y-122370159D01*
X133412558Y-124560159D02*
X133212558Y-124960159D01*
D10*
X141325917Y-101252084D02*
X141325917Y-97344084D01*
X141325917Y-101298084D02*
X146375917Y-101344084D01*
X152212728Y-103271194D02*
X150612728Y-103271194D01*
X152212728Y-101317194D02*
X152212728Y-103317194D01*
X152225917Y-99298084D02*
X152225917Y-103243084D01*
X141325917Y-97344084D02*
X149950917Y-97344084D01*
X152225917Y-103252084D02*
X148615917Y-103252084D01*
X148610918Y-103228083D02*
G75*
G03*
X146350917Y-101348084I-2070000J-190001D01*
G01*
X152214918Y-99228084D02*
G75*
G03*
X149950917Y-97344084I-2074000J-190000D01*
G01*
D13*
X139813754Y-137768210D02*
X138188154Y-137768210D01*
X155561754Y-119023010D02*
X155561754Y-120750210D01*
X138188154Y-137768210D02*
X138188154Y-136041010D01*
X153936154Y-119023010D02*
X155561754Y-119023010D01*
D12*
X149814988Y-127822150D02*
X152214988Y-127822150D01*
X152214988Y-127822150D02*
X152214988Y-133822150D01*
X152214988Y-133822150D02*
X149814988Y-133822150D01*
X149814988Y-133822150D02*
X149814988Y-127822150D01*
G36*
X152214988Y-133822150D02*
G01*
X149814988Y-133822150D01*
X149814988Y-133263750D01*
X152214988Y-133263750D01*
X152214988Y-133822150D01*
G37*
X152214988Y-133822150D02*
X149814988Y-133822150D01*
X149814988Y-133263750D01*
X152214988Y-133263750D01*
X152214988Y-133822150D01*
D13*
X208200639Y-108999948D02*
X208800639Y-108999948D01*
X208800639Y-111799948D02*
X208200639Y-111799948D01*
X209500639Y-109699948D02*
X209500639Y-111099948D01*
X207500639Y-111099948D02*
X207500639Y-109699948D01*
X208800639Y-111799948D02*
G75*
G03*
X209500639Y-111099948I0J700000D01*
G01*
X208200639Y-108999948D02*
G75*
G03*
X207500639Y-109699948I-1J-699999D01*
G01*
X209500639Y-109699948D02*
G75*
G03*
X208800639Y-108999948I-699999J1D01*
G01*
X207500639Y-111099948D02*
G75*
G03*
X208200639Y-111799948I700000J0D01*
G01*
D10*
X171212928Y-67127234D02*
X171212928Y-69127234D01*
X160326117Y-67108124D02*
X165376117Y-67154124D01*
X171226117Y-65108124D02*
X171226117Y-69053124D01*
X160326117Y-63154124D02*
X168951117Y-63154124D01*
X171226117Y-69062124D02*
X167616117Y-69062124D01*
X171212928Y-69081234D02*
X169612928Y-69081234D01*
X160326117Y-67062124D02*
X160326117Y-63154124D01*
X171215118Y-65038124D02*
G75*
G03*
X168951117Y-63154124I-2074000J-190000D01*
G01*
X167611118Y-69038123D02*
G75*
G03*
X165351117Y-67158124I-2070000J-190001D01*
G01*
X122326517Y-67062684D02*
X122326517Y-63154684D01*
X133226517Y-69062684D02*
X129616517Y-69062684D01*
X122326517Y-63154684D02*
X130951517Y-63154684D01*
X122326517Y-67108684D02*
X127376517Y-67154684D01*
X133213328Y-67127794D02*
X133213328Y-69127794D01*
X133213328Y-69081794D02*
X131613328Y-69081794D01*
X133226517Y-65108684D02*
X133226517Y-69053684D01*
X129611518Y-69038683D02*
G75*
G03*
X127351517Y-67158684I-2070000J-190001D01*
G01*
X133215518Y-65038684D02*
G75*
G03*
X130951517Y-63154684I-2074000J-190000D01*
G01*
X179325815Y-70872684D02*
X179325815Y-66964684D01*
X190225815Y-72872684D02*
X186615815Y-72872684D01*
X190212626Y-72891794D02*
X188612626Y-72891794D01*
X179325815Y-66964684D02*
X187950815Y-66964684D01*
X190212626Y-70937794D02*
X190212626Y-72937794D01*
X190225815Y-68918684D02*
X190225815Y-72863684D01*
X179325815Y-70918684D02*
X184375815Y-70964684D01*
X190214816Y-68848684D02*
G75*
G03*
X187950815Y-66964684I-2074000J-190000D01*
G01*
X186610816Y-72848683D02*
G75*
G03*
X184350815Y-70968684I-2070000J-190001D01*
G01*
D12*
X134193988Y-127822150D02*
X136593988Y-127822150D01*
X136593988Y-127822150D02*
X136593988Y-133822150D01*
X136593988Y-133822150D02*
X134193988Y-133822150D01*
X134193988Y-133822150D02*
X134193988Y-127822150D01*
G36*
X136593988Y-133822150D02*
G01*
X134193988Y-133822150D01*
X134193988Y-133263750D01*
X136593988Y-133263750D01*
X136593988Y-133822150D01*
G37*
X136593988Y-133822150D02*
X134193988Y-133822150D01*
X134193988Y-133263750D01*
X136593988Y-133263750D01*
X136593988Y-133822150D01*
G36*
X117110128Y-115879194D02*
G01*
X114710128Y-115879194D01*
X114710128Y-115320794D01*
X117110128Y-115320794D01*
X117110128Y-115879194D01*
G37*
X117110128Y-115879194D02*
X114710128Y-115879194D01*
X114710128Y-115320794D01*
X117110128Y-115320794D01*
X117110128Y-115879194D01*
X114710128Y-109879194D02*
X117110128Y-109879194D01*
X117110128Y-109879194D02*
X117110128Y-115879194D01*
X117110128Y-115879194D02*
X114710128Y-115879194D01*
X114710128Y-115879194D02*
X114710128Y-109879194D01*
D13*
X119284562Y-95132319D02*
X126584562Y-95132319D01*
X126584562Y-100632319D02*
X126584562Y-99482319D01*
X119284562Y-100632319D02*
X126584562Y-100632319D01*
D12*
X133710328Y-88069394D02*
X136110328Y-88069394D01*
X136110328Y-88069394D02*
X136110328Y-94069394D01*
X136110328Y-94069394D02*
X133710328Y-94069394D01*
X133710328Y-94069394D02*
X133710328Y-88069394D01*
G36*
X136110328Y-94069394D02*
G01*
X133710328Y-94069394D01*
X133710328Y-93510994D01*
X136110328Y-93510994D01*
X136110328Y-94069394D01*
G37*
X136110328Y-94069394D02*
X133710328Y-94069394D01*
X133710328Y-93510994D01*
X136110328Y-93510994D01*
X136110328Y-94069394D01*
G36*
X117110128Y-96878794D02*
G01*
X114710128Y-96878794D01*
X114710128Y-96320394D01*
X117110128Y-96320394D01*
X117110128Y-96878794D01*
G37*
X117110128Y-96878794D02*
X114710128Y-96878794D01*
X114710128Y-96320394D01*
X117110128Y-96320394D01*
X117110128Y-96878794D01*
X114710128Y-90878794D02*
X117110128Y-90878794D01*
X117110128Y-90878794D02*
X117110128Y-96878794D01*
X117110128Y-96878794D02*
X114710128Y-96878794D01*
X114710128Y-96878794D02*
X114710128Y-90878794D01*
X189180142Y-127080634D02*
X186780142Y-127080634D01*
X186780142Y-127080634D02*
X186780142Y-121080634D01*
X186780142Y-121080634D02*
X189180142Y-121080634D01*
X189180142Y-121080634D02*
X189180142Y-127080634D01*
G36*
X189180142Y-121639034D02*
G01*
X186780142Y-121639034D01*
X186780142Y-121080634D01*
X189180142Y-121080634D01*
X189180142Y-121639034D01*
G37*
X189180142Y-121639034D02*
X186780142Y-121639034D01*
X186780142Y-121080634D01*
X189180142Y-121080634D01*
X189180142Y-121639034D01*
X133710328Y-69069794D02*
X136110328Y-69069794D01*
X136110328Y-69069794D02*
X136110328Y-75069794D01*
X136110328Y-75069794D02*
X133710328Y-75069794D01*
X133710328Y-75069794D02*
X133710328Y-69069794D01*
G36*
X136110328Y-75069794D02*
G01*
X133710328Y-75069794D01*
X133710328Y-74511394D01*
X136110328Y-74511394D01*
X136110328Y-75069794D01*
G37*
X136110328Y-75069794D02*
X133710328Y-75069794D01*
X133710328Y-74511394D01*
X136110328Y-74511394D01*
X136110328Y-75069794D01*
D10*
X171212928Y-107081594D02*
X169612928Y-107081594D01*
X171212928Y-105127594D02*
X171212928Y-107127594D01*
X160326117Y-105108484D02*
X165376117Y-105154484D01*
X171226117Y-103108484D02*
X171226117Y-107053484D01*
X171226117Y-107062484D02*
X167616117Y-107062484D01*
X160326117Y-105062484D02*
X160326117Y-101154484D01*
X160326117Y-101154484D02*
X168951117Y-101154484D01*
X167611118Y-107038483D02*
G75*
G03*
X165351117Y-105158484I-2070000J-190001D01*
G01*
X171215118Y-103038484D02*
G75*
G03*
X168951117Y-101154484I-2074000J-190000D01*
G01*
D12*
X152709728Y-103259194D02*
X155109728Y-103259194D01*
X155109728Y-103259194D02*
X155109728Y-109259194D01*
X155109728Y-109259194D02*
X152709728Y-109259194D01*
X152709728Y-109259194D02*
X152709728Y-103259194D01*
G36*
X155109728Y-109259194D02*
G01*
X152709728Y-109259194D01*
X152709728Y-108700794D01*
X155109728Y-108700794D01*
X155109728Y-109259194D01*
G37*
X155109728Y-109259194D02*
X152709728Y-109259194D01*
X152709728Y-108700794D01*
X155109728Y-108700794D01*
X155109728Y-109259194D01*
G36*
X117110128Y-77878394D02*
G01*
X114710128Y-77878394D01*
X114710128Y-77319994D01*
X117110128Y-77319994D01*
X117110128Y-77878394D01*
G37*
X117110128Y-77878394D02*
X114710128Y-77878394D01*
X114710128Y-77319994D01*
X117110128Y-77319994D01*
X117110128Y-77878394D01*
X114710128Y-71878394D02*
X117110128Y-71878394D01*
X117110128Y-71878394D02*
X117110128Y-77878394D01*
X117110128Y-77878394D02*
X114710128Y-77878394D01*
X114710128Y-77878394D02*
X114710128Y-71878394D01*
D13*
X176257362Y-100632319D02*
X176257362Y-99482319D01*
X168957362Y-95132319D02*
X176257362Y-95132319D01*
X168957362Y-100632319D02*
X176257362Y-100632319D01*
X205773530Y-89932032D02*
X205173530Y-89932032D01*
X204473530Y-89232032D02*
X204473530Y-87832032D01*
X205173530Y-87132032D02*
X205773530Y-87132032D01*
X206473530Y-87832032D02*
X206473530Y-89232032D01*
X205173530Y-87132032D02*
G75*
G03*
X204473530Y-87832032I0J-700000D01*
G01*
X204473530Y-89232032D02*
G75*
G03*
X205173530Y-89932032I699999J-1D01*
G01*
X205773530Y-89932032D02*
G75*
G03*
X206473530Y-89232032I1J699999D01*
G01*
X206473530Y-87832032D02*
G75*
G03*
X205773530Y-87132032I-700000J0D01*
G01*
D10*
X212513700Y-114930634D02*
X212513700Y-120930634D01*
X212513700Y-120930634D02*
X200513700Y-120930634D01*
X200513700Y-114930634D02*
X212513700Y-114930634D01*
X200513700Y-120930634D02*
X200513700Y-114930634D01*
D13*
X214539100Y-115809734D02*
X212539100Y-115809734D01*
X212539100Y-115809734D02*
X212539100Y-120051534D01*
X212539100Y-120051534D02*
X214539100Y-120051534D01*
X214539100Y-120051534D02*
X214539100Y-115809734D01*
D12*
X191838812Y-127080634D02*
X189438812Y-127080634D01*
X189438812Y-127080634D02*
X189438812Y-121080634D01*
X189438812Y-121080634D02*
X191838812Y-121080634D01*
X191838812Y-121080634D02*
X191838812Y-127080634D01*
G36*
X191838812Y-121639034D02*
G01*
X189438812Y-121639034D01*
X189438812Y-121080634D01*
X191838812Y-121080634D01*
X191838812Y-121639034D01*
G37*
X191838812Y-121639034D02*
X189438812Y-121639034D01*
X189438812Y-121080634D01*
X191838812Y-121080634D01*
X191838812Y-121639034D01*
D10*
X180714497Y-133073800D02*
X177227505Y-132139464D01*
X171715008Y-124545983D02*
X180046119Y-126778297D01*
X180696811Y-133088846D02*
X179151330Y-132674735D01*
X170703544Y-128320821D02*
X171715008Y-124545983D01*
X181737868Y-129254530D02*
X180716826Y-133065107D01*
X181202544Y-131201427D02*
X180684906Y-133133278D01*
X170691638Y-128365254D02*
X175557658Y-129716722D01*
X181745361Y-129184068D02*
G75*
G03*
X180046119Y-126778297I-2052506J353265D01*
G01*
X177228888Y-132114987D02*
G75*
G03*
X175532474Y-129714116I-2048642J352229D01*
G01*
D13*
X200580639Y-108999948D02*
X201180639Y-108999948D01*
X199880639Y-111099948D02*
X199880639Y-109699948D01*
X201880639Y-109699948D02*
X201880639Y-111099948D01*
X201180639Y-111799948D02*
X200580639Y-111799948D01*
X199880639Y-111099948D02*
G75*
G03*
X200580639Y-111799948I700000J0D01*
G01*
X201180639Y-111799948D02*
G75*
G03*
X201880639Y-111099948I0J700000D01*
G01*
X200580639Y-108999948D02*
G75*
G03*
X199880639Y-109699948I-1J-699999D01*
G01*
X201880639Y-109699948D02*
G75*
G03*
X201180639Y-108999948I-699999J1D01*
G01*
D10*
X190212626Y-110891594D02*
X188612626Y-110891594D01*
X179325815Y-108918484D02*
X184375815Y-108964484D01*
X179325815Y-108872484D02*
X179325815Y-104964484D01*
X179325815Y-104964484D02*
X187950815Y-104964484D01*
X190225815Y-106918484D02*
X190225815Y-110863484D01*
X190225815Y-110872484D02*
X186615815Y-110872484D01*
X190212626Y-108937594D02*
X190212626Y-110937594D01*
X190214816Y-106848484D02*
G75*
G03*
X187950815Y-104964484I-2074000J-190000D01*
G01*
X186610816Y-110848483D02*
G75*
G03*
X184350815Y-108968484I-2070000J-190001D01*
G01*
X171212928Y-86127194D02*
X171212928Y-88127194D01*
X171212928Y-88081194D02*
X169612928Y-88081194D01*
X160326117Y-86062084D02*
X160326117Y-82154084D01*
X171226117Y-84108084D02*
X171226117Y-88053084D01*
X171226117Y-88062084D02*
X167616117Y-88062084D01*
X160326117Y-82154084D02*
X168951117Y-82154084D01*
X160326117Y-86108084D02*
X165376117Y-86154084D01*
X171215118Y-84038084D02*
G75*
G03*
X168951117Y-82154084I-2074000J-190000D01*
G01*
X167611118Y-88038083D02*
G75*
G03*
X165351117Y-86158084I-2070000J-190001D01*
G01*
D12*
X152709728Y-84258994D02*
X155109728Y-84258994D01*
X155109728Y-84258994D02*
X155109728Y-90258994D01*
X155109728Y-90258994D02*
X152709728Y-90258994D01*
X152709728Y-90258994D02*
X152709728Y-84258994D01*
G36*
X155109728Y-90258994D02*
G01*
X152709728Y-90258994D01*
X152709728Y-89700594D01*
X155109728Y-89700594D01*
X155109728Y-90258994D01*
G37*
X155109728Y-90258994D02*
X152709728Y-90258994D01*
X152709728Y-89700594D01*
X155109728Y-89700594D01*
X155109728Y-90258994D01*
D13*
X184625762Y-62312261D02*
X187125762Y-62312261D01*
X184175762Y-61862261D02*
X184625762Y-62312261D01*
X187575762Y-57262261D02*
X187125762Y-56812261D01*
X184625762Y-56812261D02*
X187125762Y-56812261D01*
X183125762Y-58562261D02*
X183125762Y-60562261D01*
X184175762Y-57262261D02*
X184625762Y-56812261D01*
X187575762Y-61862261D02*
X187125762Y-62312261D01*
X188625762Y-58562261D02*
X188625762Y-60562261D01*
X144120962Y-90331719D02*
X151420962Y-90331719D01*
X144120962Y-95831719D02*
X151420962Y-95831719D01*
X151420962Y-95831719D02*
X151420962Y-94681719D01*
X205660639Y-108999948D02*
X206260639Y-108999948D01*
X206960639Y-109699948D02*
X206960639Y-111099948D01*
X206260639Y-111799948D02*
X205660639Y-111799948D01*
X204960639Y-111099948D02*
X204960639Y-109699948D01*
X204960639Y-111099948D02*
G75*
G03*
X205660639Y-111799948I700000J0D01*
G01*
X206260639Y-111799948D02*
G75*
G03*
X206960639Y-111099948I0J700000D01*
G01*
X205660639Y-108999948D02*
G75*
G03*
X204960639Y-109699948I-1J-699999D01*
G01*
X206960639Y-109699948D02*
G75*
G03*
X206260639Y-108999948I-699999J1D01*
G01*
X204017243Y-87832032D02*
X204017243Y-89232032D01*
X202017243Y-89232032D02*
X202017243Y-87832032D01*
X203317243Y-89932032D02*
X202717243Y-89932032D01*
X202717243Y-87132032D02*
X203317243Y-87132032D01*
X203317243Y-89932032D02*
G75*
G03*
X204017243Y-89232032I1J699999D01*
G01*
X204017243Y-87832032D02*
G75*
G03*
X203317243Y-87132032I-700000J0D01*
G01*
X202717243Y-87132032D02*
G75*
G03*
X202017243Y-87832032I0J-700000D01*
G01*
X202017243Y-89232032D02*
G75*
G03*
X202717243Y-89932032I699999J-1D01*
G01*
D10*
X141325917Y-63297924D02*
X146375917Y-63343924D01*
X141325917Y-59343924D02*
X149950917Y-59343924D01*
X152225917Y-65251924D02*
X148615917Y-65251924D01*
X152212728Y-65271034D02*
X150612728Y-65271034D01*
X152212728Y-63317034D02*
X152212728Y-65317034D01*
X141325917Y-63251924D02*
X141325917Y-59343924D01*
X152225917Y-61297924D02*
X152225917Y-65242924D01*
X152214918Y-61227924D02*
G75*
G03*
X149950917Y-59343924I-2074000J-190000D01*
G01*
X148610918Y-65227923D02*
G75*
G03*
X146350917Y-63347924I-2070000J-190001D01*
G01*
X152225917Y-80297884D02*
X152225917Y-84242884D01*
X141325917Y-78343884D02*
X149950917Y-78343884D01*
X152212728Y-82316994D02*
X152212728Y-84316994D01*
X141325917Y-82251884D02*
X141325917Y-78343884D01*
X141325917Y-82297884D02*
X146375917Y-82343884D01*
X152212728Y-84270994D02*
X150612728Y-84270994D01*
X152225917Y-84251884D02*
X148615917Y-84251884D01*
X152214918Y-80227884D02*
G75*
G03*
X149950917Y-78343884I-2074000J-190000D01*
G01*
X148610918Y-84227883D02*
G75*
G03*
X146350917Y-82347884I-2070000J-190001D01*
G01*
D13*
X204420639Y-109699948D02*
X204420639Y-111099948D01*
X202420639Y-111099948D02*
X202420639Y-109699948D01*
X203120639Y-108999948D02*
X203720639Y-108999948D01*
X203720639Y-111799948D02*
X203120639Y-111799948D01*
X203720639Y-111799948D02*
G75*
G03*
X204420639Y-111099948I0J700000D01*
G01*
X202420639Y-111099948D02*
G75*
G03*
X203120639Y-111799948I700000J0D01*
G01*
X204420639Y-109699948D02*
G75*
G03*
X203720639Y-108999948I-699999J1D01*
G01*
X203120639Y-108999948D02*
G75*
G03*
X202420639Y-109699948I-1J-699999D01*
G01*
D10*
X110611318Y-109848083D02*
G75*
G03*
X108351317Y-107968084I-2070000J-190001D01*
G01*
X114215318Y-105848084D02*
G75*
G03*
X111951317Y-103964084I-2074000J-190000D01*
G01*
X103326317Y-107872084D02*
X103326317Y-103964084D01*
X114213128Y-109891194D02*
X112613128Y-109891194D01*
X103326317Y-103964084D02*
X111951317Y-103964084D01*
X114226317Y-105918084D02*
X114226317Y-109863084D01*
X114226317Y-109872084D02*
X110616317Y-109872084D01*
X114213128Y-107937194D02*
X114213128Y-109937194D01*
X103326317Y-107918084D02*
X108376317Y-107964084D01*
X213635988Y-102995113D02*
X213635988Y-103995113D01*
X195835988Y-103995113D02*
X196835988Y-103995113D01*
X213635988Y-103995113D02*
X212625988Y-103995113D01*
X195835988Y-70945113D02*
X196835988Y-70945113D01*
X213635988Y-70945113D02*
X213635988Y-71945113D01*
X195835988Y-102945113D02*
X195835988Y-103995113D01*
X213635988Y-70945113D02*
X212685988Y-70945113D01*
X195835988Y-70945113D02*
X195835988Y-71945113D01*
D14*
X200880639Y-107264021D03*
X203420639Y-107264021D03*
X205960639Y-107264021D03*
X208500639Y-107264021D03*
D15*
X211013700Y-116180634D03*
X211013700Y-117930634D03*
X204013700Y-117930634D03*
X204013700Y-116180634D03*
D16*
X202213700Y-120030634D03*
X202213700Y-114080634D03*
X206213700Y-120030634D03*
X206213700Y-114080634D03*
X209213700Y-114080634D03*
X209213700Y-120030634D03*
X200713700Y-118280634D03*
X200713700Y-115830634D03*
M02*
