M48
; DRILL file {KiCad (6.0.6-0)} date Sunday, 10 July 2022 at 14:20:19
; FORMAT={-:-/ absolute / inch / decimal}
; #@! TF.CreationDate,2022-07-10T14:20:19+08:00
; #@! TF.GenerationSoftware,Kicad,Pcbnew,(6.0.6-0)
; #@! TF.FileFunction,NonPlated,1,2,NPTH
FMAT,2
INCH
; #@! TA.AperFunction,NonPlated,NPTH,ComponentDrill
T1C0.0118
; #@! TA.AperFunction,NonPlated,NPTH,ComponentDrill
T2C0.0472
; #@! TA.AperFunction,NonPlated,NPTH,ComponentDrill
T3C0.0669
; #@! TA.AperFunction,NonPlated,NPTH,ComponentDrill
T4C0.1000
; #@! TA.AperFunction,NonPlated,NPTH,ComponentDrill
T5C0.1063
; #@! TA.AperFunction,NonPlated,NPTH,ComponentDrill
T6C0.1181
; #@! TA.AperFunction,NonPlated,NPTH,ComponentDrill
T7C0.1260
; #@! TA.AperFunction,NonPlated,NPTH,ComponentDrill
T8C0.1575
%
G90
G05
T1
X7.7918Y-2.7383
X7.8152Y-2.7383
X7.8385Y-2.7383
X7.8619Y-2.7383
X7.8853Y-2.7383
X8.2268Y-2.7383
X8.2502Y-2.7383
X8.2735Y-2.7383
X8.2969Y-2.7383
X8.3203Y-2.7383
T2
X8.0251Y-4.5644
X8.0251Y-4.6333
X8.3007Y-4.5644
X8.3007Y-4.6333
T3
X4.0495Y-2.9135
X4.0495Y-3.6615
X4.0495Y-4.4096
X4.4495Y-2.9135
X4.4495Y-3.6615
X4.4495Y-4.4096
X4.7975Y-2.7954
X4.7975Y-3.5434
X4.7975Y-4.2914
X5.1975Y-2.7954
X5.1975Y-3.5434
X5.1975Y-4.2914
X5.5455Y-2.6954
X5.5455Y-3.4434
X5.5455Y-4.1914
X5.9455Y-2.6954
X5.9455Y-3.4434
X5.9455Y-4.1914
X6.2936Y-2.7954
X6.2936Y-3.5434
X6.2936Y-4.2915
X6.6728Y-5.1502
X6.6936Y-2.7954
X6.6936Y-3.5434
X6.6936Y-4.2915
X7.0416Y-2.8974
X7.0416Y-3.6436
X7.0416Y-4.3915
X7.0592Y-5.2538
X7.3893Y-5.3922
X7.4416Y-2.8974
X7.4416Y-3.6436
X7.4416Y-4.3915
X7.7757Y-5.4957
X8.1433Y-5.4942
X8.5297Y-5.5977
T5
X5.3735Y-5.363
X5.468Y-4.6582
X6.0229Y-4.6583
X6.1176Y-5.363
T6
X4.0995Y-2.8135
X4.0995Y-3.5615
X4.0995Y-4.3096
X4.1495Y-2.7135
X4.1495Y-3.4615
X4.1495Y-4.2096
X4.3495Y-2.7135
X4.3495Y-3.4615
X4.3495Y-4.2096
X4.3995Y-2.8135
X4.3995Y-3.5615
X4.3995Y-4.3096
X4.8475Y-2.6954
X4.8475Y-3.4434
X4.8475Y-4.1914
X4.8975Y-2.5954
X4.8975Y-3.3434
X4.8975Y-4.0914
X5.0975Y-2.5954
X5.0975Y-3.3434
X5.0975Y-4.0914
X5.1475Y-2.6954
X5.1475Y-3.4434
X5.1475Y-4.1914
X5.5955Y-2.5954
X5.5955Y-3.3434
X5.5955Y-4.0914
X5.6455Y-2.4954
X5.6455Y-3.2434
X5.6455Y-3.9914
X5.8455Y-2.4954
X5.8455Y-3.2434
X5.8455Y-3.9914
X5.8955Y-2.5954
X5.8955Y-3.3434
X5.8955Y-4.0914
X6.3436Y-2.6954
X6.3436Y-3.4434
X6.3436Y-4.1915
X6.3936Y-2.5954
X6.3936Y-3.3434
X6.3936Y-4.0915
X6.5936Y-2.5954
X6.5936Y-3.3434
X6.5936Y-4.0915
X6.6436Y-2.6954
X6.6436Y-3.4434
X6.6436Y-4.1915
X6.747Y-5.0666
X6.8212Y-4.9829
X7.0144Y-5.0347
X7.0368Y-5.1442
X7.0916Y-2.7974
X7.0916Y-3.5436
X7.0916Y-4.2915
X7.1416Y-2.6974
X7.1416Y-3.4436
X7.1416Y-4.1915
X7.3416Y-2.6974
X7.3416Y-3.4436
X7.3416Y-4.1915
X7.3916Y-2.7974
X7.3916Y-3.5436
X7.3916Y-4.2915
X7.4635Y-5.3086
X7.5377Y-5.2249
X7.7309Y-5.2767
X7.7533Y-5.3862
X8.2175Y-5.4106
X8.2917Y-5.3269
X8.4849Y-5.3787
X8.5073Y-5.4882
T7
X4.5085Y-4.85
X4.5585Y-2.479
X4.8705Y-4.85
X6.2849Y-5.125
X6.81Y-4.73
X6.9315Y-2.462
X7.9635Y-5.898
T8
X4.2495Y-2.9135
X4.2495Y-3.6615
X4.2495Y-4.4096
X4.9975Y-2.7954
X4.9975Y-3.5434
X4.9975Y-4.2914
X5.7455Y-2.6954
X5.7455Y-3.4434
X5.7455Y-4.1914
X6.4936Y-2.7954
X6.4936Y-3.5434
X6.4936Y-4.2915
X6.866Y-5.202
X7.2416Y-2.8974
X7.2416Y-3.6436
X7.2416Y-4.3915
X7.5825Y-5.444
X8.3365Y-5.546
T4
G00X5.138Y-4.6435
M15
G01X5.2743Y-4.6435
M16
G05
G00X6.2168Y-4.6435
M15
G01X6.353Y-4.6435
M16
G05
T0
M30
