M48
; DRILL file {KiCad (6.0.6-0)} date Thursday, 14 July 2022 at 23:53:07
; FORMAT={-:-/ absolute / inch / decimal}
; #@! TF.CreationDate,2022-07-14T23:53:07+08:00
; #@! TF.GenerationSoftware,Kicad,Pcbnew,(6.0.6-0)
; #@! TF.FileFunction,NonPlated,1,2,NPTH
FMAT,2
INCH
; #@! TA.AperFunction,NonPlated,NPTH,ComponentDrill
T1C0.0472
; #@! TA.AperFunction,NonPlated,NPTH,ComponentDrill
T2C0.0669
; #@! TA.AperFunction,NonPlated,NPTH,ComponentDrill
T3C0.1000
; #@! TA.AperFunction,NonPlated,NPTH,ComponentDrill
T4C0.1063
; #@! TA.AperFunction,NonPlated,NPTH,ComponentDrill
T5C0.1181
; #@! TA.AperFunction,NonPlated,NPTH,ComponentDrill
T6C0.1260
; #@! TA.AperFunction,NonPlated,NPTH,ComponentDrill
T7C0.1575
%
G90
G05
T1
X8.032Y-4.574
X8.032Y-4.6429
X8.3076Y-4.574
X8.3076Y-4.6429
T2
X4.0564Y-2.8656
X4.0564Y-3.6137
X4.0564Y-4.3617
X4.4564Y-2.8656
X4.4564Y-3.6137
X4.4564Y-4.3617
X4.8045Y-2.755
X4.8045Y-3.503
X4.8045Y-4.2511
X5.2045Y-2.755
X5.2045Y-3.503
X5.2045Y-4.2511
X5.5525Y-2.605
X5.5525Y-3.353
X5.5525Y-4.1011
X5.9525Y-2.605
X5.9525Y-3.353
X5.9525Y-4.1011
X6.3005Y-2.755
X6.3005Y-3.503
X6.3005Y-4.2511
X6.6798Y-5.1599
X6.7005Y-2.755
X6.7005Y-3.503
X6.7005Y-4.2511
X7.0485Y-2.905
X7.0485Y-3.6531
X7.0485Y-4.4011
X7.0661Y-5.2634
X7.3963Y-5.4019
X7.4485Y-2.905
X7.4485Y-3.6531
X7.4485Y-4.4011
X7.7827Y-5.5054
X8.1503Y-5.5039
X8.5367Y-5.6074
T4
X5.3804Y-5.3295
X5.4749Y-4.6248
X6.0299Y-4.6248
X6.1245Y-5.3295
T5
X4.1064Y-2.7656
X4.1064Y-3.5137
X4.1064Y-4.2617
X4.1564Y-2.6656
X4.1564Y-3.4137
X4.1564Y-4.1617
X4.3564Y-2.6656
X4.3564Y-3.4137
X4.3564Y-4.1617
X4.4064Y-2.7656
X4.4064Y-3.5137
X4.4064Y-4.2617
X4.8545Y-2.655
X4.8545Y-3.403
X4.8545Y-4.1511
X4.9045Y-2.555
X4.9045Y-3.303
X4.9045Y-4.0511
X5.1045Y-2.555
X5.1045Y-3.303
X5.1045Y-4.0511
X5.1545Y-2.655
X5.1545Y-3.403
X5.1545Y-4.1511
X5.6025Y-2.505
X5.6025Y-3.253
X5.6025Y-4.0011
X5.6525Y-2.405
X5.6525Y-3.153
X5.6525Y-3.9011
X5.8525Y-2.405
X5.8525Y-3.153
X5.8525Y-3.9011
X5.9025Y-2.505
X5.9025Y-3.253
X5.9025Y-4.0011
X6.3505Y-2.655
X6.3505Y-3.403
X6.3505Y-4.1511
X6.4005Y-2.555
X6.4005Y-3.303
X6.4005Y-4.0511
X6.6005Y-2.555
X6.6005Y-3.303
X6.6005Y-4.0511
X6.6505Y-2.655
X6.6505Y-3.403
X6.6505Y-4.1511
X6.7539Y-5.0762
X6.8281Y-4.9926
X7.0213Y-5.0443
X7.0437Y-5.1539
X7.0985Y-2.805
X7.0985Y-3.5531
X7.0985Y-4.3011
X7.1485Y-2.705
X7.1485Y-3.4531
X7.1485Y-4.2011
X7.3485Y-2.705
X7.3485Y-3.4531
X7.3485Y-4.2011
X7.3985Y-2.805
X7.3985Y-3.5531
X7.3985Y-4.3011
X7.4705Y-5.3182
X7.5446Y-5.2346
X7.7378Y-5.2863
X7.7602Y-5.3958
X8.2245Y-5.4202
X8.2986Y-5.3366
X8.4918Y-5.3883
X8.5142Y-5.4978
T6
X4.5655Y-2.4275
X4.6955Y-4.6915
X4.8135Y-5.1116
X6.2663Y-5.1116
X6.8169Y-4.7396
X6.9415Y-2.4645
X7.9705Y-5.9076
T7
X4.2564Y-2.8656
X4.2564Y-3.6137
X4.2564Y-4.3617
X5.0045Y-2.755
X5.0045Y-3.503
X5.0045Y-4.2511
X5.7525Y-2.605
X5.7525Y-3.353
X5.7525Y-4.1011
X6.5005Y-2.755
X6.5005Y-3.503
X6.5005Y-4.2511
X6.8729Y-5.2116
X7.2485Y-2.905
X7.2485Y-3.6531
X7.2485Y-4.4011
X7.5895Y-5.4536
X8.3435Y-5.5556
T3
G00X5.145Y-4.61
M15
G01X5.2812Y-4.61
M16
G05
G00X6.2237Y-4.61
M15
G01X6.3599Y-4.61
M16
G05
T0
M30
